%TF.GenerationSoftware,KiCad,Pcbnew,(6.99.0-4380-g9b6f7d5db7)*%
%TF.CreationDate,2023-01-24T18:27:43+01:00*%
%TF.ProjectId,GX4000-SRAM-rounded-Kicad7,47583430-3030-42d5-9352-414d2d726f75,rev?*%
%TF.SameCoordinates,Original*%
%TF.FileFunction,Copper,L1,Top*%
%TF.FilePolarity,Positive*%
%FSLAX46Y46*%
G04 Gerber Fmt 4.6, Leading zero omitted, Abs format (unit mm)*
G04 Created by KiCad (PCBNEW (6.99.0-4380-g9b6f7d5db7)) date 2023-01-24 18:27:43*
%MOMM*%
%LPD*%
G01*
G04 APERTURE LIST*
G04 Aperture macros list*
%AMRoundRect*
0 Rectangle with rounded corners*
0 $1 Rounding radius*
0 $2 $3 $4 $5 $6 $7 $8 $9 X,Y pos of 4 corners*
0 Add a 4 corners polygon primitive as box body*
4,1,4,$2,$3,$4,$5,$6,$7,$8,$9,$2,$3,0*
0 Add four circle primitives for the rounded corners*
1,1,$1+$1,$2,$3*
1,1,$1+$1,$4,$5*
1,1,$1+$1,$6,$7*
1,1,$1+$1,$8,$9*
0 Add four rect primitives between the rounded corners*
20,1,$1+$1,$2,$3,$4,$5,0*
20,1,$1+$1,$4,$5,$6,$7,0*
20,1,$1+$1,$6,$7,$8,$9,0*
20,1,$1+$1,$8,$9,$2,$3,0*%
G04 Aperture macros list end*
%TA.AperFunction,ComponentPad*%
%ADD10C,1.600000*%
%TD*%
%TA.AperFunction,SMDPad,CuDef*%
%ADD11RoundRect,0.075000X0.075000X-0.700000X0.075000X0.700000X-0.075000X0.700000X-0.075000X-0.700000X0*%
%TD*%
%TA.AperFunction,ViaPad*%
%ADD12C,0.450000*%
%TD*%
%TA.AperFunction,Conductor*%
%ADD13C,0.250000*%
%TD*%
G04 APERTURE END LIST*
D10*
%TO.P,IC10,1,~{G}*%
%TO.N,/~{OE}*%
X102064280Y-63701560D03*
%TO.P,IC10,2,DQ1*%
%TO.N,/D0*%
X102064280Y-66241560D03*
%TO.P,IC10,3,DQ2*%
%TO.N,/D1*%
X102064280Y-68781560D03*
%TO.P,IC10,4,~{W}*%
%TO.N,/~{WE}*%
X102064280Y-71321560D03*
%TO.P,IC10,5,~{RAS}*%
%TO.N,/~{RAS}*%
X102064280Y-73861560D03*
%TO.P,IC10,6,A6*%
%TO.N,/MA6*%
X102064280Y-76401560D03*
%TO.P,IC10,7,A5*%
%TO.N,/MA5*%
X102064280Y-78941560D03*
%TO.P,IC10,8,A4*%
%TO.N,/MA4*%
X102064280Y-81481560D03*
%TO.P,IC10,9,VCC*%
%TO.N,VCC*%
X102064280Y-84021560D03*
%TO.P,IC10,10,A7*%
%TO.N,/MA7*%
X109684280Y-84021560D03*
%TO.P,IC10,11,A3*%
%TO.N,/MA3*%
X109684280Y-81481560D03*
%TO.P,IC10,12,A2*%
%TO.N,/MA2*%
X109684280Y-78941560D03*
%TO.P,IC10,13,A1*%
%TO.N,/MA1*%
X109684280Y-76401560D03*
%TO.P,IC10,14,A0*%
%TO.N,/MA0*%
X109684280Y-73861560D03*
%TO.P,IC10,15,DQ3*%
%TO.N,/D2*%
X109684280Y-71321560D03*
%TO.P,IC10,16,~{CAS}*%
%TO.N,/~{CAS0}*%
X109684280Y-68781560D03*
%TO.P,IC10,17,DQ4*%
%TO.N,/D3*%
X109684280Y-66241560D03*
%TO.P,IC10,18,GND*%
%TO.N,GND*%
X109684280Y-63701560D03*
%TD*%
%TO.P,IC11,1,~{G}*%
%TO.N,/~{OE}*%
X102064280Y-34847160D03*
%TO.P,IC11,2,DQ1*%
%TO.N,/D4*%
X102064280Y-37387160D03*
%TO.P,IC11,3,DQ2*%
%TO.N,/D5*%
X102064280Y-39927160D03*
%TO.P,IC11,15,DQ3*%
%TO.N,/D6*%
X109684280Y-42467160D03*
%TO.P,IC11,16,~{CAS}*%
%TO.N,/~{CAS0}*%
X109684280Y-39927160D03*
%TO.P,IC11,17,DQ4*%
%TO.N,/D7*%
X109684280Y-37387160D03*
%TO.P,IC11,18,GND*%
%TO.N,GND*%
X109684280Y-34847160D03*
%TD*%
D11*
%TO.P,U1,1,A11*%
%TO.N,/MA3*%
X102139280Y-59423160D03*
%TO.P,U1,2,A9*%
%TO.N,/MA1*%
X102639280Y-59423160D03*
%TO.P,U1,3,A8*%
%TO.N,/MA0*%
X103139280Y-59423160D03*
%TO.P,U1,4,A13*%
%TO.N,/MA5*%
X103639280Y-59423160D03*
%TO.P,U1,5,~{WE}*%
%TO.N,/~{WE}*%
X104139280Y-59423160D03*
%TO.P,U1,6,CE2*%
%TO.N,VCC*%
X104639280Y-59423160D03*
%TO.P,U1,7,A15*%
%TO.N,/MA7*%
X105139280Y-59423160D03*
%TO.P,U1,8,VDD*%
%TO.N,VCC*%
X105639280Y-59423160D03*
%TO.P,U1,9,NC*%
%TO.N,unconnected-(U1-Pad9)*%
X106139280Y-59423160D03*
%TO.P,U1,10,A16*%
%TO.N,/~{CAS0}*%
X106639280Y-59423160D03*
%TO.P,U1,11,A14*%
%TO.N,/MA6*%
X107139280Y-59423160D03*
%TO.P,U1,12,A12*%
%TO.N,/MA4*%
X107639280Y-59423160D03*
%TO.P,U1,13,A7*%
%TO.N,/A7*%
X108139280Y-59423160D03*
%TO.P,U1,14,A6*%
%TO.N,/A6*%
X108639280Y-59423160D03*
%TO.P,U1,15,A5*%
%TO.N,/A5*%
X109139280Y-59423160D03*
%TO.P,U1,16,A4*%
%TO.N,/A4*%
X109639280Y-59423160D03*
%TO.P,U1,17,A3*%
%TO.N,/A3*%
X109639280Y-46573160D03*
%TO.P,U1,18,A2*%
%TO.N,/A2*%
X109139280Y-46573160D03*
%TO.P,U1,19,A1*%
%TO.N,/A1*%
X108639280Y-46573160D03*
%TO.P,U1,20,A0*%
%TO.N,/A0*%
X108139280Y-46573160D03*
%TO.P,U1,21,I/O0*%
%TO.N,/D0*%
X107639280Y-46573160D03*
%TO.P,U1,22,I/O1*%
%TO.N,/D1*%
X107139280Y-46573160D03*
%TO.P,U1,23,I/O2*%
%TO.N,/D2*%
X106639280Y-46573160D03*
%TO.P,U1,24,GND*%
%TO.N,GND*%
X106139280Y-46573160D03*
%TO.P,U1,25,I/O3*%
%TO.N,/D3*%
X105639280Y-46573160D03*
%TO.P,U1,26,I/O4*%
%TO.N,/D4*%
X105139280Y-46573160D03*
%TO.P,U1,27,I/O5*%
%TO.N,/D5*%
X104639280Y-46573160D03*
%TO.P,U1,28,I/O6*%
%TO.N,/D6*%
X104139280Y-46573160D03*
%TO.P,U1,29,I/O7*%
%TO.N,/D7*%
X103639280Y-46573160D03*
%TO.P,U1,30,~{CE1}*%
%TO.N,Net-(U1-Pad30)*%
X103139280Y-46573160D03*
%TO.P,U1,31,A10*%
%TO.N,/MA2*%
X102639280Y-46573160D03*
%TO.P,U1,32,~{OE}*%
%TO.N,/~{OE}*%
X102139280Y-46573160D03*
%TD*%
D10*
%TO.P,CAS1,1,Pin_1*%
%TO.N,Net-(CAS1-Pad1)*%
X105889280Y-37377160D03*
%TD*%
D12*
%TO.N,VCC*%
X104564780Y-58342160D03*
X105889280Y-57951560D03*
%TO.N,GND*%
X107359280Y-77984160D03*
X108719280Y-72564160D03*
X107159280Y-84580360D03*
X106264780Y-45078160D03*
X101359280Y-62224160D03*
X102892080Y-43473160D03*
X101291880Y-45886160D03*
X107667280Y-40425160D03*
X110207280Y-62101360D03*
X110419280Y-49374160D03*
X104365280Y-57316160D03*
X104619280Y-84580360D03*
X103654080Y-34897960D03*
X109445280Y-60704360D03*
X104469280Y-47874360D03*
X108214280Y-61720360D03*
X107540280Y-52566360D03*
X102649280Y-49434360D03*
X101679280Y-41390360D03*
X104370000Y-56049800D03*
X109809280Y-44474160D03*
X106133780Y-72159760D03*
X101317280Y-55919160D03*
X105019280Y-50624360D03*
X107809280Y-82384160D03*
%TO.N,/~{OE}*%
X102053880Y-45352760D03*
%TO.N,/D0*%
X104365280Y-49188160D03*
%TO.N,/D1*%
X103857280Y-48553160D03*
%TO.N,/~{RAS}*%
X106117880Y-70143160D03*
%TO.N,/MA5*%
X105381280Y-77661560D03*
X104238280Y-53973160D03*
%TO.N,/MA3*%
X105381280Y-79541160D03*
X104238280Y-50723160D03*
%TO.N,/MA2*%
X104238280Y-51373160D03*
X102564359Y-47758432D03*
%TO.N,/MA1*%
X104619280Y-75121560D03*
X104238280Y-52023160D03*
%TO.N,/MA0*%
X104873280Y-73826160D03*
X104238280Y-52673160D03*
%TO.N,/D2*%
X107413780Y-45251160D03*
%TO.N,/D3*%
X108429280Y-44870160D03*
%TO.N,/~{WE}*%
X106143280Y-68781560D03*
%TO.N,/MA6*%
X107286280Y-76366160D03*
X104238280Y-54623160D03*
%TO.N,/MA4*%
X107286280Y-80811160D03*
X104238280Y-53323160D03*
%TO.N,/MA7*%
X104238280Y-55284160D03*
%TO.N,/D6*%
X104064780Y-44484360D03*
%TO.N,/D7*%
X103929120Y-43172720D03*
%TO.N,/A7*%
X107540280Y-55273160D03*
%TO.N,/A6*%
X107540280Y-54623160D03*
%TO.N,/A5*%
X107540280Y-53973160D03*
%TO.N,/A4*%
X107540280Y-53323160D03*
%TO.N,/A3*%
X109896455Y-50723160D03*
%TO.N,/A2*%
X109914421Y-51373160D03*
%TO.N,/A1*%
X109913780Y-52023160D03*
%TO.N,/A0*%
X109913780Y-52673160D03*
%TO.N,/~{CAS0}*%
X106564780Y-61511560D03*
%TO.N,Net-(U1-Pad30)*%
X108213780Y-65571160D03*
X107550000Y-51679800D03*
%TO.N,Net-(U3-Pad1)*%
X108213780Y-60622660D03*
X106839280Y-43854160D03*
%TD*%
D13*
%TO.N,VCC*%
X104564780Y-58342160D02*
X104639280Y-58416660D01*
X105639280Y-58201560D02*
X105639280Y-59423160D01*
X104639280Y-58416660D02*
X104639280Y-59423160D01*
X105889280Y-57951560D02*
X105639280Y-58201560D01*
%TO.N,GND*%
X106139280Y-47374360D02*
X106139280Y-46573160D01*
X106139280Y-46573160D02*
X106139280Y-45203660D01*
X104469280Y-47874360D02*
X105639280Y-47874360D01*
X106139280Y-45203660D02*
X106264780Y-45078160D01*
X105639280Y-47874380D02*
G75*
G03*
X106139280Y-47374360I20J499980D01*
G01*
%TO.N,/~{OE}*%
X102139280Y-45420000D02*
X102139280Y-46573160D01*
X102069280Y-45350000D02*
X102139280Y-45420000D01*
%TO.N,/D0*%
X107639280Y-47388160D02*
X107639280Y-46573160D01*
X104365280Y-49188160D02*
X105839280Y-49188160D01*
X105839280Y-49188180D02*
G75*
G03*
X107639280Y-47388160I20J1799980D01*
G01*
%TO.N,/D1*%
X107139280Y-47253160D02*
X107139280Y-46573160D01*
X103857280Y-48553160D02*
X105839280Y-48553160D01*
X105839280Y-48553180D02*
G75*
G03*
X107139280Y-47253160I20J1299980D01*
G01*
%TO.N,/MA5*%
X105381280Y-77661560D02*
X105489280Y-77553560D01*
X103639280Y-60312240D02*
X103639280Y-59423160D01*
X105489280Y-77553560D02*
X105489280Y-63404880D01*
X105049940Y-62344220D02*
X104078620Y-61372900D01*
X103639280Y-59423160D02*
X103639280Y-54273160D01*
X103939280Y-53973160D02*
X104238280Y-53973160D01*
X103939280Y-53973180D02*
G75*
G03*
X103639280Y-54273160I20J-300020D01*
G01*
X103639258Y-60312240D02*
G75*
G03*
X104078620Y-61372900I1500042J40D01*
G01*
X105489299Y-63404880D02*
G75*
G03*
X105049939Y-62344221I-1499999J-20D01*
G01*
%TO.N,/MA3*%
X103163940Y-62744220D02*
X102578620Y-62158900D01*
X102139280Y-61098240D02*
X102139280Y-59423160D01*
X103603280Y-77141840D02*
X103603280Y-63804880D01*
X103939280Y-50723160D02*
X104238280Y-50723160D01*
X105381280Y-79541160D02*
X104042620Y-78202500D01*
X102139280Y-59423160D02*
X102139280Y-52523160D01*
X103603299Y-63804880D02*
G75*
G03*
X103163939Y-62744221I-1499999J-20D01*
G01*
X102139258Y-61098240D02*
G75*
G03*
X102578620Y-62158900I1500042J40D01*
G01*
X103603258Y-77141840D02*
G75*
G03*
X104042620Y-78202500I1500042J40D01*
G01*
X103939280Y-50723180D02*
G75*
G03*
X102139280Y-52523160I20J-1800020D01*
G01*
%TO.N,/MA2*%
X102564359Y-47758432D02*
X102639280Y-47683511D01*
X102639280Y-47683511D02*
X102639280Y-46573160D01*
%TO.N,/MA1*%
X103939280Y-52023160D02*
X104238280Y-52023160D01*
X103798940Y-62617220D02*
X103078620Y-61896900D01*
X104238280Y-74500115D02*
X104238280Y-63677880D01*
X102639280Y-60836240D02*
X102639280Y-59423160D01*
X102639280Y-59423160D02*
X102639280Y-53323160D01*
X104619280Y-75121560D02*
X104408300Y-74910580D01*
X103939280Y-52023180D02*
G75*
G03*
X102639280Y-53323160I20J-1300020D01*
G01*
X104238280Y-74500115D02*
G75*
G03*
X104408300Y-74910580I580520J15D01*
G01*
X102639258Y-60836240D02*
G75*
G03*
X103078620Y-61896900I1500042J40D01*
G01*
X104238299Y-63677880D02*
G75*
G03*
X103798939Y-62617221I-1499999J-20D01*
G01*
%TO.N,/MA0*%
X103139280Y-60574240D02*
X103139280Y-59423160D01*
X103939280Y-52673160D02*
X104238280Y-52673160D01*
X104873280Y-73826160D02*
X104873280Y-63550880D01*
X103139280Y-59423160D02*
X103139280Y-53473160D01*
X104433940Y-62490220D02*
X103578620Y-61634900D01*
X103939280Y-52673180D02*
G75*
G03*
X103139280Y-53473160I20J-800020D01*
G01*
X103139258Y-60574240D02*
G75*
G03*
X103578620Y-61634900I1500042J40D01*
G01*
X104873299Y-63550880D02*
G75*
G03*
X104433939Y-62490221I-1499999J-20D01*
G01*
%TO.N,/D2*%
X106639280Y-45700045D02*
X106639280Y-46573160D01*
X106805322Y-45368318D02*
X106756437Y-45417203D01*
X107413780Y-45251160D02*
X107088165Y-45251160D01*
X106756410Y-45417176D02*
G75*
G03*
X106639280Y-45700045I282890J-282824D01*
G01*
X107088165Y-45251148D02*
G75*
G03*
X106805323Y-45368319I35J-400052D01*
G01*
%TO.N,/D3*%
X107790173Y-44438160D02*
X106139280Y-44438160D01*
X108429280Y-44870160D02*
X108143726Y-44584606D01*
X105639280Y-44938160D02*
X105639280Y-46573160D01*
X106139280Y-44438180D02*
G75*
G03*
X105639280Y-44938160I20J-500020D01*
G01*
X108143748Y-44584584D02*
G75*
G03*
X107790173Y-44438160I-353548J-353616D01*
G01*
%TO.N,/D4*%
X104699940Y-40022820D02*
X102064280Y-37387160D01*
X105139280Y-46573160D02*
X105139280Y-41083480D01*
X105139299Y-41083480D02*
G75*
G03*
X104699939Y-40022821I-1499999J-20D01*
G01*
%TO.N,/D5*%
X104639280Y-46573160D02*
X104639280Y-43123480D01*
X104199940Y-42062820D02*
X102064280Y-39927160D01*
X104639299Y-43123480D02*
G75*
G03*
X104199939Y-42062821I-1499999J-20D01*
G01*
%TO.N,/~{WE}*%
X106143280Y-68781560D02*
X106139280Y-68777560D01*
X106139280Y-68777560D02*
X106139280Y-63292880D01*
X105699940Y-62232220D02*
X104578620Y-61110900D01*
X104139280Y-60050240D02*
X104139280Y-59423160D01*
X106139299Y-63292880D02*
G75*
G03*
X105699939Y-62232221I-1499999J-20D01*
G01*
X104139258Y-60050240D02*
G75*
G03*
X104578620Y-61110900I1500042J40D01*
G01*
%TO.N,/MA6*%
X106699940Y-57451020D02*
X106328620Y-57079700D01*
X107281478Y-67090358D02*
X107271082Y-67079962D01*
X104539280Y-54623160D02*
X104238280Y-54623160D01*
X107413280Y-76239160D02*
X107413280Y-67408556D01*
X107139280Y-66761764D02*
X107139280Y-59423160D01*
X107286280Y-76366160D02*
X107413280Y-76239160D01*
X107139280Y-59423160D02*
X107139280Y-58511680D01*
X105889280Y-56019040D02*
X105889280Y-55973160D01*
X105889340Y-55973160D02*
G75*
G03*
X104539280Y-54623160I-1350040J-40D01*
G01*
X107413316Y-67408556D02*
G75*
G03*
X107281477Y-67090359I-450016J-44D01*
G01*
X105889258Y-56019040D02*
G75*
G03*
X106328620Y-57079700I1500042J40D01*
G01*
X107139312Y-66761764D02*
G75*
G03*
X107271082Y-67079962I449988J-36D01*
G01*
X107139299Y-58511680D02*
G75*
G03*
X106699939Y-57451021I-1499999J-20D01*
G01*
%TO.N,/MA4*%
X106651280Y-55423160D02*
X106651280Y-55678840D01*
X108048280Y-79427840D02*
X108048280Y-66997399D01*
X104238280Y-53323160D02*
X104551280Y-53323160D01*
X107857899Y-66537779D02*
X107829660Y-66509540D01*
X107639280Y-66049921D02*
X107639280Y-59423160D01*
X107286280Y-80811160D02*
X107608940Y-80488500D01*
X107639280Y-57909480D02*
X107639280Y-59423160D01*
X107090620Y-56739500D02*
X107199940Y-56848820D01*
X106651258Y-55678840D02*
G75*
G03*
X107090620Y-56739500I1500042J40D01*
G01*
X107639299Y-57909480D02*
G75*
G03*
X107199939Y-56848821I-1499999J-20D01*
G01*
X107608916Y-80488476D02*
G75*
G03*
X108048280Y-79427840I-1060616J1060676D01*
G01*
X108048286Y-66997399D02*
G75*
G03*
X107857899Y-66537779I-649986J-1D01*
G01*
X107639271Y-66049921D02*
G75*
G03*
X107829660Y-66509540I650029J21D01*
G01*
X106651340Y-55423160D02*
G75*
G03*
X104551280Y-53323160I-2100040J-40D01*
G01*
%TO.N,/MA7*%
X105578620Y-61348900D02*
X106199940Y-61970220D01*
X106700788Y-67525668D02*
X106716773Y-67541653D01*
X104238280Y-55284160D02*
X104539280Y-55284160D01*
X106778280Y-67690145D02*
X106778280Y-75136175D01*
X106639280Y-63030880D02*
X106639280Y-67377175D01*
X106651280Y-75437145D02*
X106651280Y-82521560D01*
X105139280Y-59423160D02*
X105139280Y-60288240D01*
X105139280Y-55884160D02*
X105139280Y-59423160D01*
X108151280Y-84021560D02*
X109684280Y-84021560D01*
X106716772Y-75284668D02*
X106712787Y-75288653D01*
X105139258Y-60288240D02*
G75*
G03*
X105578620Y-61348900I1500042J40D01*
G01*
X106639304Y-67377175D02*
G75*
G03*
X106700788Y-67525668I209996J-25D01*
G01*
X106712760Y-75288626D02*
G75*
G03*
X106651280Y-75437145I148540J-148474D01*
G01*
X106778254Y-67690145D02*
G75*
G03*
X106716773Y-67541653I-209954J45D01*
G01*
X106716780Y-75284676D02*
G75*
G03*
X106778280Y-75136175I-148480J148476D01*
G01*
X106651340Y-82521560D02*
G75*
G03*
X108151280Y-84021560I1499960J-40D01*
G01*
X105139340Y-55884160D02*
G75*
G03*
X104539280Y-55284160I-600040J-40D01*
G01*
X106639299Y-63030880D02*
G75*
G03*
X106199939Y-61970221I-1499999J-20D01*
G01*
%TO.N,/D6*%
X104139280Y-44558860D02*
X104139280Y-46573160D01*
X104064780Y-44484360D02*
X104139280Y-44558860D01*
%TO.N,/D7*%
X103929120Y-43172720D02*
X103673470Y-43428370D01*
X103569046Y-45013726D02*
X103571915Y-45016595D01*
X103501680Y-43843108D02*
X103501680Y-44851091D01*
X103639280Y-45179229D02*
X103639280Y-46573160D01*
X103639265Y-45179229D02*
G75*
G03*
X103571915Y-45016595I-229965J29D01*
G01*
X103673468Y-43428368D02*
G75*
G03*
X103501680Y-43843108I414732J-414732D01*
G01*
X103501693Y-44851091D02*
G75*
G03*
X103569046Y-45013726I230007J-9D01*
G01*
%TO.N,/A7*%
X107540280Y-55273160D02*
X107839280Y-55273160D01*
X108139280Y-55573160D02*
X108139280Y-59423160D01*
X108139340Y-55573160D02*
G75*
G03*
X107839280Y-55273160I-300040J-40D01*
G01*
%TO.N,/A6*%
X108639280Y-59423160D02*
X108639280Y-55423160D01*
X107839280Y-54623160D02*
X107540280Y-54623160D01*
X108639340Y-55423160D02*
G75*
G03*
X107839280Y-54623160I-800040J-40D01*
G01*
%TO.N,/A5*%
X109139280Y-59423160D02*
X109139280Y-55273160D01*
X107540280Y-53973160D02*
X107839280Y-53973160D01*
X109139340Y-55273160D02*
G75*
G03*
X107839280Y-53973160I-1300040J-40D01*
G01*
%TO.N,/A4*%
X109639280Y-59423160D02*
X109639280Y-55123160D01*
X107839280Y-53323160D02*
X107540280Y-53323160D01*
X109639340Y-55123160D02*
G75*
G03*
X107839280Y-53323160I-1800040J-40D01*
G01*
%TO.N,/A3*%
X109639280Y-50465985D02*
X109896455Y-50723160D01*
X109639280Y-46573160D02*
X109639280Y-50465985D01*
%TO.N,/A2*%
X109639280Y-51373160D02*
X109914421Y-51373160D01*
X109139280Y-46573160D02*
X109139280Y-50873160D01*
X109139340Y-50873160D02*
G75*
G03*
X109639280Y-51373160I499960J-40D01*
G01*
%TO.N,/A1*%
X109639280Y-52023160D02*
X109913780Y-52023160D01*
X108639280Y-46573160D02*
X108639280Y-51023160D01*
X108639340Y-51023160D02*
G75*
G03*
X109639280Y-52023160I999960J-40D01*
G01*
%TO.N,/A0*%
X109639280Y-52673160D02*
X109913780Y-52673160D01*
X108139280Y-46573160D02*
X108139280Y-51173160D01*
X108139340Y-51173160D02*
G75*
G03*
X109639280Y-52673160I1499960J-40D01*
G01*
%TO.N,/~{CAS0}*%
X106639280Y-61437060D02*
X106639280Y-59423160D01*
X106564780Y-61511560D02*
X106639280Y-61437060D01*
%TO.N,Net-(U1-Pad30)*%
X104693945Y-49889658D02*
X104931431Y-49889658D01*
X103139280Y-48620853D02*
X103139280Y-46573160D01*
X104408087Y-49889660D02*
X104693945Y-49889658D01*
X106345645Y-50475445D02*
X107550000Y-51679800D01*
X103139240Y-48620853D02*
G75*
G03*
X104408087Y-49889660I1268760J-47D01*
G01*
X106345638Y-50475452D02*
G75*
G03*
X104931431Y-49889658I-1414238J-1414248D01*
G01*
%TD*%
%TA.AperFunction,Conductor*%
%TO.N,/MA7*%
G36*
X109382858Y-83293827D02*
G01*
X109683414Y-84017070D01*
X109683414Y-84026050D01*
X109382858Y-84749293D01*
X109376519Y-84755618D01*
X109367018Y-84755364D01*
X109208875Y-84679952D01*
X109207755Y-84679341D01*
X109073512Y-84596290D01*
X109072570Y-84595641D01*
X108963593Y-84512478D01*
X108963009Y-84512002D01*
X108870056Y-84431092D01*
X108784287Y-84355168D01*
X108696952Y-84287120D01*
X108696627Y-84286929D01*
X108696621Y-84286925D01*
X108599450Y-84229846D01*
X108599451Y-84229846D01*
X108599016Y-84229591D01*
X108481448Y-84185225D01*
X108335214Y-84156667D01*
X108334807Y-84156645D01*
X108334802Y-84156644D01*
X108250018Y-84151986D01*
X108162337Y-84147168D01*
X108154265Y-84143293D01*
X108151280Y-84135486D01*
X108151280Y-83907634D01*
X108154707Y-83899361D01*
X108162337Y-83895952D01*
X108242725Y-83891535D01*
X108334802Y-83886475D01*
X108334807Y-83886474D01*
X108335214Y-83886452D01*
X108481448Y-83857894D01*
X108599016Y-83813528D01*
X108609076Y-83807618D01*
X108696621Y-83756194D01*
X108696627Y-83756190D01*
X108696952Y-83755999D01*
X108784287Y-83687950D01*
X108870056Y-83612026D01*
X108963015Y-83531112D01*
X108963593Y-83530641D01*
X109072570Y-83447478D01*
X109073512Y-83446829D01*
X109207755Y-83363777D01*
X109208875Y-83363166D01*
X109344348Y-83298566D01*
X109367018Y-83287756D01*
X109375961Y-83287289D01*
X109382858Y-83293827D01*
G37*
%TD.AperFunction*%
%TD*%
%TA.AperFunction,Conductor*%
%TO.N,/A5*%
G36*
X107637354Y-53770265D02*
G01*
X107643173Y-53772905D01*
X107654540Y-53778064D01*
X107655245Y-53778413D01*
X107677799Y-53790539D01*
X107678366Y-53790865D01*
X107697173Y-53802375D01*
X107697425Y-53802533D01*
X107714015Y-53813342D01*
X107729571Y-53823115D01*
X107745387Y-53831578D01*
X107762865Y-53838521D01*
X107763234Y-53838615D01*
X107763241Y-53838617D01*
X107778169Y-53842407D01*
X107783406Y-53843737D01*
X107808410Y-53847019D01*
X107808684Y-53847029D01*
X107808694Y-53847030D01*
X107828012Y-53847744D01*
X107836153Y-53851474D01*
X107839280Y-53859436D01*
X107839280Y-54086884D01*
X107835853Y-54095157D01*
X107828012Y-54098576D01*
X107824285Y-54098714D01*
X107808410Y-54099300D01*
X107783406Y-54102582D01*
X107778169Y-54103912D01*
X107763241Y-54107702D01*
X107763234Y-54107704D01*
X107762865Y-54107798D01*
X107745387Y-54114741D01*
X107729571Y-54123203D01*
X107714015Y-54132977D01*
X107697425Y-54143786D01*
X107697173Y-54143944D01*
X107678366Y-54155454D01*
X107677800Y-54155780D01*
X107655238Y-54167911D01*
X107654549Y-54168252D01*
X107637353Y-54176055D01*
X107628404Y-54176354D01*
X107621729Y-54169924D01*
X107541175Y-53977682D01*
X107541175Y-53968638D01*
X107621729Y-53776397D01*
X107628087Y-53770091D01*
X107637354Y-53770265D01*
G37*
%TD.AperFunction*%
%TD*%
%TA.AperFunction,Conductor*%
%TO.N,/MA6*%
G36*
X107262063Y-58515107D02*
G01*
X107265421Y-58522107D01*
X107266779Y-58534515D01*
X107269279Y-58556975D01*
X107271779Y-58579061D01*
X107274279Y-58600771D01*
X107276771Y-58622042D01*
X107276779Y-58622107D01*
X107279278Y-58643059D01*
X107279279Y-58643067D01*
X107281779Y-58663653D01*
X107284279Y-58683863D01*
X107286779Y-58703699D01*
X107288685Y-58718530D01*
X107288780Y-58720021D01*
X107288780Y-58724259D01*
X107288521Y-58726707D01*
X107150721Y-59370692D01*
X107145639Y-59378065D01*
X107136832Y-59379685D01*
X107129459Y-59374603D01*
X107127839Y-59370692D01*
X106990038Y-58726702D01*
X106989779Y-58724254D01*
X106989779Y-58720024D01*
X106989874Y-58718534D01*
X106991779Y-58703699D01*
X106994279Y-58683863D01*
X106996779Y-58663653D01*
X106999279Y-58643067D01*
X106999280Y-58643059D01*
X107001779Y-58622107D01*
X107001787Y-58622042D01*
X107004279Y-58600771D01*
X107006779Y-58579061D01*
X107009279Y-58556975D01*
X107011779Y-58534515D01*
X107013138Y-58522106D01*
X107017445Y-58514255D01*
X107024768Y-58511680D01*
X107253790Y-58511680D01*
X107262063Y-58515107D01*
G37*
%TD.AperFunction*%
%TD*%
%TA.AperFunction,Conductor*%
%TO.N,/A1*%
G36*
X108649101Y-46621717D02*
G01*
X108650721Y-46625628D01*
X108784898Y-47252682D01*
X108785141Y-47255747D01*
X108784280Y-47272061D01*
X108784280Y-47276620D01*
X108784643Y-47288825D01*
X108784726Y-47290220D01*
X108785696Y-47301031D01*
X108785662Y-47303443D01*
X108784279Y-47315160D01*
X108781779Y-47336722D01*
X108779279Y-47358660D01*
X108776779Y-47380972D01*
X108774279Y-47403660D01*
X108771779Y-47426722D01*
X108769279Y-47450160D01*
X108769279Y-47450163D01*
X108766779Y-47473972D01*
X108765365Y-47487662D01*
X108761106Y-47495539D01*
X108753727Y-47498160D01*
X108524833Y-47498160D01*
X108516560Y-47494733D01*
X108513195Y-47487664D01*
X108511779Y-47473973D01*
X108511779Y-47473972D01*
X108509279Y-47450160D01*
X108506779Y-47426722D01*
X108506771Y-47426645D01*
X108504279Y-47403660D01*
X108501779Y-47380972D01*
X108499279Y-47358660D01*
X108496779Y-47336722D01*
X108494279Y-47315160D01*
X108491779Y-47293972D01*
X108489863Y-47278015D01*
X108489780Y-47276620D01*
X108489780Y-47272061D01*
X108490039Y-47269613D01*
X108627839Y-46625628D01*
X108632921Y-46618255D01*
X108641728Y-46616635D01*
X108649101Y-46621717D01*
G37*
%TD.AperFunction*%
%TD*%
%TA.AperFunction,Conductor*%
%TO.N,Net-(U1-Pad30)*%
G36*
X107328463Y-51281360D02*
G01*
X107356405Y-51308874D01*
X107356445Y-51308913D01*
X107387164Y-51337693D01*
X107387248Y-51337765D01*
X107413886Y-51360702D01*
X107413894Y-51360709D01*
X107414034Y-51360829D01*
X107438743Y-51379596D01*
X107438924Y-51379713D01*
X107438931Y-51379718D01*
X107447631Y-51385345D01*
X107462978Y-51395272D01*
X107478949Y-51403970D01*
X107488284Y-51409054D01*
X107488293Y-51409058D01*
X107488426Y-51409131D01*
X107488560Y-51409194D01*
X107488568Y-51409198D01*
X107505123Y-51416975D01*
X107516776Y-51422450D01*
X107549713Y-51436505D01*
X107562590Y-51441781D01*
X107588922Y-51452570D01*
X107588927Y-51452572D01*
X107625287Y-51467489D01*
X107631640Y-51473799D01*
X107631674Y-51482746D01*
X107606724Y-51543686D01*
X107564643Y-51646470D01*
X107552565Y-51675970D01*
X107546171Y-51682364D01*
X107457368Y-51718722D01*
X107352946Y-51761474D01*
X107343991Y-51761437D01*
X107337689Y-51755087D01*
X107322772Y-51718727D01*
X107322770Y-51718722D01*
X107319893Y-51711700D01*
X107306705Y-51679513D01*
X107292650Y-51646576D01*
X107279331Y-51618226D01*
X107265472Y-51592778D01*
X107249796Y-51568543D01*
X107231029Y-51543834D01*
X107207893Y-51516964D01*
X107179113Y-51486245D01*
X107166858Y-51473799D01*
X107151560Y-51458263D01*
X107148197Y-51449964D01*
X107151624Y-51441781D01*
X107311981Y-51281424D01*
X107320254Y-51277997D01*
X107328463Y-51281360D01*
G37*
%TD.AperFunction*%
%TD*%
%TA.AperFunction,Conductor*%
%TO.N,/MA0*%
G36*
X104156831Y-52476397D02*
G01*
X104237385Y-52668638D01*
X104237385Y-52677682D01*
X104156831Y-52869923D01*
X104150473Y-52876229D01*
X104141206Y-52876055D01*
X104123999Y-52868246D01*
X104123331Y-52867917D01*
X104100763Y-52855783D01*
X104100198Y-52855458D01*
X104092369Y-52850666D01*
X104081351Y-52843923D01*
X104081137Y-52843788D01*
X104064543Y-52832977D01*
X104048988Y-52823203D01*
X104033172Y-52814741D01*
X104015694Y-52807798D01*
X104015325Y-52807704D01*
X104015318Y-52807702D01*
X104000390Y-52803912D01*
X103995153Y-52802582D01*
X103970149Y-52799300D01*
X103954613Y-52798726D01*
X103950548Y-52798576D01*
X103942407Y-52794846D01*
X103939280Y-52786884D01*
X103939280Y-52559436D01*
X103942707Y-52551163D01*
X103950548Y-52547744D01*
X103969865Y-52547030D01*
X103969875Y-52547029D01*
X103970149Y-52547019D01*
X103995153Y-52543737D01*
X104000390Y-52542407D01*
X104015318Y-52538617D01*
X104015325Y-52538615D01*
X104015694Y-52538521D01*
X104033172Y-52531578D01*
X104048988Y-52523115D01*
X104064543Y-52513342D01*
X104081137Y-52502531D01*
X104081351Y-52502396D01*
X104092369Y-52495653D01*
X104100198Y-52490861D01*
X104100766Y-52490535D01*
X104123307Y-52478416D01*
X104124012Y-52478067D01*
X104141205Y-52470265D01*
X104150155Y-52469967D01*
X104156831Y-52476397D01*
G37*
%TD.AperFunction*%
%TD*%
%TA.AperFunction,Conductor*%
%TO.N,/MA4*%
G36*
X107649101Y-59471717D02*
G01*
X107650721Y-59475628D01*
X107788522Y-60119618D01*
X107788781Y-60122066D01*
X107788781Y-60126616D01*
X107788697Y-60128012D01*
X107786779Y-60143970D01*
X107786779Y-60143972D01*
X107786776Y-60143995D01*
X107784279Y-60165160D01*
X107781779Y-60186722D01*
X107779279Y-60208660D01*
X107776779Y-60230972D01*
X107774279Y-60253660D01*
X107771779Y-60276722D01*
X107769279Y-60300160D01*
X107769279Y-60300163D01*
X107766779Y-60323972D01*
X107765365Y-60337662D01*
X107761106Y-60345539D01*
X107753727Y-60348160D01*
X107524833Y-60348160D01*
X107516560Y-60344733D01*
X107513195Y-60337664D01*
X107511779Y-60323973D01*
X107511779Y-60323972D01*
X107509279Y-60300160D01*
X107506779Y-60276722D01*
X107506771Y-60276645D01*
X107504279Y-60253660D01*
X107501779Y-60230972D01*
X107499279Y-60208660D01*
X107496779Y-60186722D01*
X107494279Y-60165160D01*
X107492898Y-60153456D01*
X107492864Y-60151035D01*
X107493821Y-60140409D01*
X107493826Y-60140355D01*
X107493910Y-60138959D01*
X107494281Y-60126616D01*
X107494281Y-60122066D01*
X107493420Y-60105743D01*
X107493663Y-60102679D01*
X107627839Y-59475628D01*
X107632921Y-59468255D01*
X107641728Y-59466635D01*
X107649101Y-59471717D01*
G37*
%TD.AperFunction*%
%TD*%
%TA.AperFunction,Conductor*%
%TO.N,/~{WE}*%
G36*
X106260969Y-68335783D02*
G01*
X106264395Y-68343940D01*
X106264781Y-68383016D01*
X106264783Y-68383227D01*
X106264785Y-68383288D01*
X106264786Y-68383315D01*
X106266450Y-68425103D01*
X106266456Y-68425244D01*
X106269542Y-68460512D01*
X106269572Y-68460703D01*
X106269573Y-68460715D01*
X106274249Y-68490910D01*
X106274285Y-68491140D01*
X106280927Y-68519234D01*
X106289712Y-68546902D01*
X106289770Y-68547054D01*
X106289774Y-68547066D01*
X106294902Y-68560537D01*
X106300884Y-68576250D01*
X106308419Y-68594340D01*
X106314656Y-68609317D01*
X106314686Y-68609388D01*
X106331336Y-68648361D01*
X106331361Y-68648420D01*
X106346608Y-68684655D01*
X106346658Y-68693610D01*
X106340346Y-68699984D01*
X106147802Y-68780665D01*
X106138758Y-68780665D01*
X105946168Y-68699965D01*
X105939862Y-68693607D01*
X105939887Y-68684682D01*
X105954891Y-68648596D01*
X105954915Y-68648537D01*
X105954934Y-68648492D01*
X105970890Y-68609667D01*
X105970894Y-68609657D01*
X105970910Y-68609618D01*
X105970946Y-68609526D01*
X105983758Y-68576544D01*
X105983764Y-68576527D01*
X105983796Y-68576445D01*
X105993883Y-68547000D01*
X106001504Y-68519208D01*
X106006992Y-68490992D01*
X106008847Y-68475543D01*
X106010662Y-68460428D01*
X106010663Y-68460416D01*
X106010680Y-68460275D01*
X106012902Y-68424981D01*
X106013991Y-68383033D01*
X106014214Y-68343989D01*
X106017688Y-68335736D01*
X106025914Y-68332356D01*
X106252696Y-68332356D01*
X106260969Y-68335783D01*
G37*
%TD.AperFunction*%
%TD*%
%TA.AperFunction,Conductor*%
%TO.N,/MA1*%
G36*
X104504949Y-74829863D02*
G01*
X104519266Y-74843154D01*
X104539223Y-74858459D01*
X104549542Y-74864581D01*
X104557074Y-74869050D01*
X104557079Y-74869052D01*
X104557400Y-74869243D01*
X104574636Y-74876645D01*
X104574950Y-74876739D01*
X104574957Y-74876742D01*
X104584308Y-74879554D01*
X104591773Y-74881800D01*
X104591961Y-74881843D01*
X104591974Y-74881846D01*
X104601201Y-74883934D01*
X104609651Y-74885847D01*
X104609703Y-74885858D01*
X104609708Y-74885859D01*
X104628968Y-74889892D01*
X104629290Y-74889965D01*
X104650676Y-74895086D01*
X104651297Y-74895254D01*
X104675765Y-74902595D01*
X104676516Y-74902848D01*
X104694104Y-74909452D01*
X104700644Y-74915568D01*
X104700819Y-74924837D01*
X104624196Y-75111988D01*
X104621845Y-75117730D01*
X104615451Y-75124124D01*
X104422557Y-75203099D01*
X104413603Y-75203062D01*
X104407172Y-75196384D01*
X104400568Y-75178796D01*
X104400315Y-75178045D01*
X104392974Y-75153577D01*
X104392802Y-75152940D01*
X104387686Y-75131575D01*
X104387612Y-75131248D01*
X104383579Y-75111988D01*
X104383578Y-75111983D01*
X104383567Y-75111931D01*
X104381654Y-75103481D01*
X104379566Y-75094254D01*
X104379563Y-75094241D01*
X104379520Y-75094053D01*
X104374365Y-75076916D01*
X104366963Y-75059680D01*
X104356179Y-75041503D01*
X104340874Y-75021546D01*
X104327583Y-75007229D01*
X104324465Y-74998836D01*
X104327884Y-74990997D01*
X104488717Y-74830164D01*
X104496990Y-74826737D01*
X104504949Y-74829863D01*
G37*
%TD.AperFunction*%
%TD*%
%TA.AperFunction,Conductor*%
%TO.N,/A0*%
G36*
X109832372Y-52476494D02*
G01*
X109867087Y-52559341D01*
X109912885Y-52668638D01*
X109912885Y-52677682D01*
X109832766Y-52868887D01*
X109832373Y-52869824D01*
X109826015Y-52876130D01*
X109816654Y-52875913D01*
X109802531Y-52869354D01*
X109801652Y-52868899D01*
X109781827Y-52857506D01*
X109781105Y-52857055D01*
X109764704Y-52845901D01*
X109764277Y-52845595D01*
X109749925Y-52834848D01*
X109736578Y-52824949D01*
X109736415Y-52824828D01*
X109722669Y-52815989D01*
X109722357Y-52815839D01*
X109722349Y-52815834D01*
X109714160Y-52811885D01*
X109707386Y-52808617D01*
X109706971Y-52808488D01*
X109706965Y-52808486D01*
X109689659Y-52803121D01*
X109689658Y-52803121D01*
X109689262Y-52802998D01*
X109666994Y-52799417D01*
X109666666Y-52799402D01*
X109666665Y-52799402D01*
X109663859Y-52799275D01*
X109650449Y-52798667D01*
X109642341Y-52794869D01*
X109639280Y-52786979D01*
X109639280Y-52559341D01*
X109642707Y-52551068D01*
X109650449Y-52547653D01*
X109666664Y-52546917D01*
X109666994Y-52546902D01*
X109689262Y-52543321D01*
X109689659Y-52543198D01*
X109706965Y-52537833D01*
X109706971Y-52537831D01*
X109707386Y-52537702D01*
X109714160Y-52534434D01*
X109722349Y-52530485D01*
X109722357Y-52530480D01*
X109722669Y-52530330D01*
X109736415Y-52521491D01*
X109749925Y-52511470D01*
X109764287Y-52500716D01*
X109764708Y-52500415D01*
X109781111Y-52489260D01*
X109781832Y-52488810D01*
X109801635Y-52477430D01*
X109802536Y-52476963D01*
X109816654Y-52470406D01*
X109825600Y-52470029D01*
X109832372Y-52476494D01*
G37*
%TD.AperFunction*%
%TD*%
%TA.AperFunction,Conductor*%
%TO.N,/MA1*%
G36*
X102649101Y-59471717D02*
G01*
X102650721Y-59475628D01*
X102784898Y-60102682D01*
X102785141Y-60105743D01*
X102784280Y-60122061D01*
X102784280Y-60126620D01*
X102784643Y-60138825D01*
X102784726Y-60140220D01*
X102785696Y-60151031D01*
X102785662Y-60153443D01*
X102784279Y-60165160D01*
X102781779Y-60186722D01*
X102779279Y-60208660D01*
X102776779Y-60230972D01*
X102774279Y-60253660D01*
X102771779Y-60276722D01*
X102769279Y-60300160D01*
X102769279Y-60300163D01*
X102766779Y-60323972D01*
X102765365Y-60337662D01*
X102761106Y-60345539D01*
X102753727Y-60348160D01*
X102524833Y-60348160D01*
X102516560Y-60344733D01*
X102513195Y-60337664D01*
X102511779Y-60323973D01*
X102511779Y-60323972D01*
X102509279Y-60300160D01*
X102506779Y-60276722D01*
X102506771Y-60276645D01*
X102504279Y-60253660D01*
X102501779Y-60230972D01*
X102499279Y-60208660D01*
X102496779Y-60186722D01*
X102494279Y-60165160D01*
X102492898Y-60153456D01*
X102492864Y-60151035D01*
X102493822Y-60140402D01*
X102493823Y-60140391D01*
X102493826Y-60140355D01*
X102493910Y-60138959D01*
X102494281Y-60126616D01*
X102494281Y-60122066D01*
X102493420Y-60105743D01*
X102493663Y-60102679D01*
X102627839Y-59475628D01*
X102632921Y-59468255D01*
X102641728Y-59466635D01*
X102649101Y-59471717D01*
G37*
%TD.AperFunction*%
%TD*%
%TA.AperFunction,Conductor*%
%TO.N,/D7*%
G36*
X103748185Y-43097645D02*
G01*
X103925291Y-43170156D01*
X103931684Y-43176549D01*
X103951598Y-43225187D01*
X104010732Y-43369622D01*
X104010695Y-43378577D01*
X104004194Y-43384940D01*
X103978766Y-43394962D01*
X103978421Y-43395092D01*
X103958149Y-43402352D01*
X103947685Y-43406100D01*
X103947521Y-43406156D01*
X103921121Y-43415054D01*
X103897927Y-43423010D01*
X103886873Y-43427293D01*
X103877035Y-43431105D01*
X103877028Y-43431108D01*
X103876850Y-43431177D01*
X103856708Y-43440745D01*
X103836320Y-43452899D01*
X103814503Y-43468828D01*
X103790077Y-43489718D01*
X103789971Y-43489820D01*
X103770128Y-43508833D01*
X103761783Y-43512082D01*
X103753760Y-43508658D01*
X103593181Y-43348079D01*
X103589754Y-43339806D01*
X103593006Y-43331712D01*
X103612004Y-43311884D01*
X103612121Y-43311762D01*
X103633011Y-43287335D01*
X103648939Y-43265519D01*
X103661093Y-43245130D01*
X103670661Y-43224989D01*
X103678829Y-43203912D01*
X103678860Y-43203821D01*
X103678868Y-43203800D01*
X103686784Y-43180718D01*
X103686790Y-43180699D01*
X103695674Y-43154343D01*
X103695746Y-43154135D01*
X103706743Y-43123428D01*
X103706873Y-43123082D01*
X103716900Y-43097645D01*
X103723122Y-43091205D01*
X103732218Y-43091108D01*
X103748185Y-43097645D01*
G37*
%TD.AperFunction*%
%TD*%
%TA.AperFunction,Conductor*%
%TO.N,/A7*%
G36*
X107637354Y-55070265D02*
G01*
X107643173Y-55072905D01*
X107654540Y-55078064D01*
X107655245Y-55078413D01*
X107677799Y-55090539D01*
X107678366Y-55090865D01*
X107697173Y-55102375D01*
X107697425Y-55102533D01*
X107714015Y-55113342D01*
X107729571Y-55123115D01*
X107745387Y-55131578D01*
X107762865Y-55138521D01*
X107763234Y-55138615D01*
X107763241Y-55138617D01*
X107778169Y-55142407D01*
X107783406Y-55143737D01*
X107808410Y-55147019D01*
X107808684Y-55147029D01*
X107808694Y-55147030D01*
X107828012Y-55147744D01*
X107836153Y-55151474D01*
X107839280Y-55159436D01*
X107839280Y-55386884D01*
X107835853Y-55395157D01*
X107828012Y-55398576D01*
X107824285Y-55398714D01*
X107808410Y-55399300D01*
X107783406Y-55402582D01*
X107778169Y-55403912D01*
X107763241Y-55407702D01*
X107763234Y-55407704D01*
X107762865Y-55407798D01*
X107745387Y-55414741D01*
X107729571Y-55423203D01*
X107714015Y-55432977D01*
X107697425Y-55443786D01*
X107697173Y-55443944D01*
X107678366Y-55455454D01*
X107677800Y-55455780D01*
X107655238Y-55467911D01*
X107654549Y-55468252D01*
X107637353Y-55476055D01*
X107628404Y-55476354D01*
X107621729Y-55469924D01*
X107541175Y-55277682D01*
X107541175Y-55268638D01*
X107621729Y-55076397D01*
X107628087Y-55070091D01*
X107637354Y-55070265D01*
G37*
%TD.AperFunction*%
%TD*%
%TA.AperFunction,Conductor*%
%TO.N,/A2*%
G36*
X109833012Y-51176492D02*
G01*
X109851932Y-51221643D01*
X109913526Y-51368638D01*
X109913526Y-51377682D01*
X109833416Y-51568866D01*
X109833013Y-51569827D01*
X109826655Y-51576133D01*
X109817297Y-51575918D01*
X109803083Y-51569320D01*
X109802215Y-51568871D01*
X109782335Y-51557468D01*
X109781590Y-51557003D01*
X109765163Y-51545865D01*
X109764734Y-51545560D01*
X109750308Y-51534800D01*
X109736908Y-51524907D01*
X109736906Y-51524906D01*
X109736744Y-51524786D01*
X109722944Y-51515957D01*
X109721312Y-51515174D01*
X109707992Y-51508782D01*
X109707985Y-51508779D01*
X109707603Y-51508596D01*
X109698216Y-51505701D01*
X109689806Y-51503107D01*
X109689802Y-51503106D01*
X109689416Y-51502987D01*
X109667076Y-51499414D01*
X109666753Y-51499399D01*
X109666749Y-51499399D01*
X109650453Y-51498664D01*
X109642342Y-51494868D01*
X109639280Y-51486976D01*
X109639280Y-51259344D01*
X109642707Y-51251071D01*
X109650452Y-51247656D01*
X109666748Y-51246920D01*
X109666751Y-51246920D01*
X109667076Y-51246905D01*
X109689416Y-51243332D01*
X109689802Y-51243213D01*
X109689806Y-51243212D01*
X109698216Y-51240618D01*
X109707603Y-51237723D01*
X109707985Y-51237540D01*
X109707992Y-51237537D01*
X109722625Y-51230515D01*
X109722624Y-51230515D01*
X109722944Y-51230362D01*
X109736744Y-51221533D01*
X109750308Y-51211519D01*
X109764729Y-51200762D01*
X109765159Y-51200456D01*
X109781590Y-51189316D01*
X109782335Y-51188851D01*
X109802197Y-51177459D01*
X109803092Y-51176996D01*
X109817296Y-51170403D01*
X109826243Y-51170028D01*
X109833012Y-51176492D01*
G37*
%TD.AperFunction*%
%TD*%
%TA.AperFunction,Conductor*%
%TO.N,/~{CAS0}*%
G36*
X106760993Y-61079806D02*
G01*
X106764419Y-61087938D01*
X106764905Y-61128244D01*
X106764994Y-61135644D01*
X106766932Y-61184411D01*
X106769787Y-61225304D01*
X106772793Y-61256199D01*
X106773254Y-61260938D01*
X106773255Y-61260949D01*
X106777030Y-61293969D01*
X106780791Y-61326875D01*
X106780812Y-61327071D01*
X106784254Y-61362458D01*
X106784281Y-61362776D01*
X106787116Y-61403358D01*
X106787135Y-61403708D01*
X106789060Y-61452146D01*
X106789068Y-61452470D01*
X106789638Y-61499771D01*
X106786311Y-61508085D01*
X106777991Y-61511612D01*
X106567159Y-61512549D01*
X106562585Y-61511640D01*
X106368137Y-61430161D01*
X106361831Y-61423803D01*
X106362057Y-61414422D01*
X106378892Y-61378350D01*
X106379385Y-61377408D01*
X106401170Y-61340017D01*
X106401671Y-61339230D01*
X106423047Y-61308469D01*
X106423386Y-61308006D01*
X106443953Y-61281306D01*
X106462938Y-61256551D01*
X106463068Y-61256382D01*
X106479985Y-61231020D01*
X106494134Y-61202780D01*
X106504946Y-61169221D01*
X106511851Y-61127900D01*
X106513754Y-61087527D01*
X106517567Y-61079425D01*
X106525441Y-61076379D01*
X106752720Y-61076379D01*
X106760993Y-61079806D01*
G37*
%TD.AperFunction*%
%TD*%
%TA.AperFunction,Conductor*%
%TO.N,/MA6*%
G36*
X107534692Y-75964040D02*
G01*
X107538118Y-75972473D01*
X107537526Y-76015686D01*
X107537515Y-76016053D01*
X107535481Y-76061123D01*
X107535457Y-76061506D01*
X107533948Y-76080521D01*
X107532462Y-76099237D01*
X107532428Y-76099597D01*
X107528790Y-76132489D01*
X107528764Y-76132710D01*
X107524780Y-76163386D01*
X107520784Y-76194143D01*
X107517111Y-76227349D01*
X107514088Y-76265455D01*
X107512036Y-76310908D01*
X107512035Y-76311012D01*
X107511437Y-76354671D01*
X107507897Y-76362897D01*
X107499790Y-76366211D01*
X107288659Y-76367149D01*
X107284085Y-76366240D01*
X107152035Y-76310908D01*
X107090005Y-76284916D01*
X107083699Y-76278558D01*
X107084089Y-76268838D01*
X107101629Y-76234208D01*
X107102616Y-76232598D01*
X107127806Y-76198081D01*
X107128925Y-76196764D01*
X107155565Y-76169743D01*
X107156465Y-76168921D01*
X107183744Y-76146485D01*
X107184010Y-76146273D01*
X107210768Y-76125789D01*
X107235467Y-76104765D01*
X107235743Y-76104451D01*
X107235748Y-76104446D01*
X107256351Y-76080997D01*
X107256352Y-76080996D01*
X107256769Y-76080521D01*
X107257075Y-76079967D01*
X107273146Y-76050865D01*
X107273148Y-76050861D01*
X107273474Y-76050270D01*
X107283084Y-76015864D01*
X107284223Y-76011784D01*
X107284378Y-76011229D01*
X107287447Y-75971413D01*
X107291499Y-75963428D01*
X107299112Y-75960613D01*
X107526419Y-75960613D01*
X107534692Y-75964040D01*
G37*
%TD.AperFunction*%
%TD*%
%TA.AperFunction,Conductor*%
%TO.N,/MA4*%
G36*
X107762000Y-58501587D02*
G01*
X107765365Y-58508658D01*
X107766779Y-58522347D01*
X107769279Y-58546157D01*
X107769279Y-58546160D01*
X107771779Y-58569597D01*
X107774279Y-58592660D01*
X107776779Y-58615347D01*
X107779279Y-58637660D01*
X107781779Y-58659597D01*
X107784267Y-58681056D01*
X107784270Y-58681080D01*
X107784279Y-58681160D01*
X107785661Y-58692873D01*
X107785695Y-58695288D01*
X107784725Y-58706108D01*
X107784642Y-58707503D01*
X107784279Y-58719708D01*
X107784279Y-58724254D01*
X107784287Y-58724400D01*
X107785140Y-58740577D01*
X107784897Y-58743641D01*
X107650721Y-59370692D01*
X107645639Y-59378065D01*
X107636832Y-59379685D01*
X107629459Y-59374603D01*
X107627839Y-59370692D01*
X107493662Y-58743638D01*
X107493419Y-58740573D01*
X107494272Y-58724403D01*
X107494280Y-58724259D01*
X107494280Y-58720021D01*
X107493885Y-58707613D01*
X107493867Y-58707035D01*
X107493866Y-58707016D01*
X107493864Y-58706954D01*
X107493769Y-58705463D01*
X107492831Y-58695691D01*
X107492858Y-58693202D01*
X107494279Y-58681160D01*
X107494288Y-58681080D01*
X107494291Y-58681056D01*
X107496779Y-58659597D01*
X107499279Y-58637660D01*
X107501779Y-58615347D01*
X107504279Y-58592660D01*
X107506779Y-58569597D01*
X107509279Y-58546160D01*
X107509279Y-58546157D01*
X107511779Y-58522347D01*
X107511779Y-58522344D01*
X107511781Y-58522325D01*
X107513195Y-58508656D01*
X107517455Y-58500780D01*
X107524833Y-58498160D01*
X107753727Y-58498160D01*
X107762000Y-58501587D01*
G37*
%TD.AperFunction*%
%TD*%
%TA.AperFunction,Conductor*%
%TO.N,/MA3*%
G36*
X105159743Y-79142720D02*
G01*
X105187685Y-79170234D01*
X105187725Y-79170273D01*
X105218444Y-79199053D01*
X105218528Y-79199125D01*
X105245166Y-79222062D01*
X105245174Y-79222069D01*
X105245314Y-79222189D01*
X105270023Y-79240956D01*
X105270204Y-79241073D01*
X105270211Y-79241078D01*
X105278911Y-79246705D01*
X105294258Y-79256632D01*
X105310229Y-79265330D01*
X105319564Y-79270414D01*
X105319573Y-79270418D01*
X105319706Y-79270491D01*
X105319840Y-79270554D01*
X105319848Y-79270558D01*
X105336403Y-79278335D01*
X105348056Y-79283810D01*
X105380993Y-79297865D01*
X105393870Y-79303141D01*
X105420202Y-79313930D01*
X105420207Y-79313932D01*
X105456567Y-79328849D01*
X105462920Y-79335159D01*
X105462954Y-79344106D01*
X105438004Y-79405046D01*
X105395923Y-79507830D01*
X105383845Y-79537330D01*
X105377451Y-79543724D01*
X105288648Y-79580082D01*
X105184226Y-79622834D01*
X105175271Y-79622797D01*
X105168969Y-79616447D01*
X105154052Y-79580087D01*
X105154050Y-79580082D01*
X105151173Y-79573060D01*
X105137985Y-79540873D01*
X105123930Y-79507936D01*
X105110611Y-79479586D01*
X105096752Y-79454138D01*
X105081076Y-79429903D01*
X105062309Y-79405194D01*
X105039173Y-79378324D01*
X105010393Y-79347605D01*
X104998138Y-79335159D01*
X104982840Y-79319623D01*
X104979477Y-79311324D01*
X104982904Y-79303141D01*
X105143261Y-79142784D01*
X105151534Y-79139357D01*
X105159743Y-79142720D01*
G37*
%TD.AperFunction*%
%TD*%
%TA.AperFunction,Conductor*%
%TO.N,/MA1*%
G36*
X104156831Y-51826397D02*
G01*
X104237385Y-52018638D01*
X104237385Y-52027682D01*
X104156831Y-52219923D01*
X104150473Y-52226229D01*
X104141206Y-52226055D01*
X104123999Y-52218246D01*
X104123331Y-52217917D01*
X104100763Y-52205783D01*
X104100198Y-52205458D01*
X104092369Y-52200666D01*
X104081351Y-52193923D01*
X104081137Y-52193788D01*
X104064543Y-52182977D01*
X104048988Y-52173203D01*
X104033172Y-52164741D01*
X104015694Y-52157798D01*
X104015325Y-52157704D01*
X104015318Y-52157702D01*
X104000390Y-52153912D01*
X103995153Y-52152582D01*
X103970149Y-52149300D01*
X103954613Y-52148726D01*
X103950548Y-52148576D01*
X103942407Y-52144846D01*
X103939280Y-52136884D01*
X103939280Y-51909436D01*
X103942707Y-51901163D01*
X103950548Y-51897744D01*
X103969865Y-51897030D01*
X103969875Y-51897029D01*
X103970149Y-51897019D01*
X103995153Y-51893737D01*
X104000390Y-51892407D01*
X104015318Y-51888617D01*
X104015325Y-51888615D01*
X104015694Y-51888521D01*
X104033172Y-51881578D01*
X104048988Y-51873115D01*
X104064543Y-51863342D01*
X104081137Y-51852531D01*
X104081351Y-51852396D01*
X104092369Y-51845653D01*
X104100198Y-51840861D01*
X104100766Y-51840535D01*
X104123307Y-51828416D01*
X104124012Y-51828067D01*
X104141205Y-51820265D01*
X104150155Y-51819967D01*
X104156831Y-51826397D01*
G37*
%TD.AperFunction*%
%TD*%
%TA.AperFunction,Conductor*%
%TO.N,/D6*%
G36*
X104262000Y-45651587D02*
G01*
X104265365Y-45658658D01*
X104266779Y-45672347D01*
X104269279Y-45696157D01*
X104269279Y-45696160D01*
X104271779Y-45719597D01*
X104274279Y-45742660D01*
X104276779Y-45765347D01*
X104279279Y-45787660D01*
X104281779Y-45809597D01*
X104284267Y-45831056D01*
X104284270Y-45831080D01*
X104284279Y-45831160D01*
X104285661Y-45842873D01*
X104285695Y-45845288D01*
X104284725Y-45856108D01*
X104284642Y-45857503D01*
X104284279Y-45869708D01*
X104284279Y-45874254D01*
X104284287Y-45874400D01*
X104285140Y-45890577D01*
X104284897Y-45893641D01*
X104150721Y-46520692D01*
X104145639Y-46528065D01*
X104136832Y-46529685D01*
X104129459Y-46524603D01*
X104127839Y-46520692D01*
X103990038Y-45876702D01*
X103989779Y-45874254D01*
X103989779Y-45869708D01*
X103989862Y-45868313D01*
X103991779Y-45852347D01*
X103994279Y-45831160D01*
X103994288Y-45831080D01*
X103994291Y-45831056D01*
X103996779Y-45809597D01*
X103999279Y-45787660D01*
X104001779Y-45765347D01*
X104004279Y-45742660D01*
X104006779Y-45719597D01*
X104009279Y-45696160D01*
X104009279Y-45696157D01*
X104011779Y-45672347D01*
X104011779Y-45672344D01*
X104011781Y-45672325D01*
X104013195Y-45658656D01*
X104017455Y-45650780D01*
X104024833Y-45648160D01*
X104253727Y-45648160D01*
X104262000Y-45651587D01*
G37*
%TD.AperFunction*%
%TD*%
%TA.AperFunction,Conductor*%
%TO.N,/A6*%
G36*
X107637354Y-54420265D02*
G01*
X107643173Y-54422905D01*
X107654540Y-54428064D01*
X107655245Y-54428413D01*
X107677799Y-54440539D01*
X107678366Y-54440865D01*
X107697173Y-54452375D01*
X107697425Y-54452533D01*
X107714015Y-54463342D01*
X107729571Y-54473115D01*
X107745387Y-54481578D01*
X107762865Y-54488521D01*
X107763234Y-54488615D01*
X107763241Y-54488617D01*
X107778169Y-54492407D01*
X107783406Y-54493737D01*
X107808410Y-54497019D01*
X107808684Y-54497029D01*
X107808694Y-54497030D01*
X107828012Y-54497744D01*
X107836153Y-54501474D01*
X107839280Y-54509436D01*
X107839280Y-54736884D01*
X107835853Y-54745157D01*
X107828012Y-54748576D01*
X107824285Y-54748714D01*
X107808410Y-54749300D01*
X107783406Y-54752582D01*
X107778169Y-54753912D01*
X107763241Y-54757702D01*
X107763234Y-54757704D01*
X107762865Y-54757798D01*
X107745387Y-54764741D01*
X107729571Y-54773203D01*
X107714015Y-54782977D01*
X107697425Y-54793786D01*
X107697173Y-54793944D01*
X107678366Y-54805454D01*
X107677800Y-54805780D01*
X107655238Y-54817911D01*
X107654549Y-54818252D01*
X107637353Y-54826055D01*
X107628404Y-54826354D01*
X107621729Y-54819924D01*
X107541175Y-54627682D01*
X107541175Y-54618638D01*
X107621729Y-54426397D01*
X107628087Y-54420091D01*
X107637354Y-54420265D01*
G37*
%TD.AperFunction*%
%TD*%
%TA.AperFunction,Conductor*%
%TO.N,/A7*%
G36*
X108262000Y-58501587D02*
G01*
X108265365Y-58508658D01*
X108266779Y-58522347D01*
X108269279Y-58546157D01*
X108269279Y-58546160D01*
X108271779Y-58569597D01*
X108274279Y-58592660D01*
X108276779Y-58615347D01*
X108279279Y-58637660D01*
X108281779Y-58659597D01*
X108284267Y-58681056D01*
X108284270Y-58681080D01*
X108284279Y-58681160D01*
X108285661Y-58692873D01*
X108285695Y-58695288D01*
X108284725Y-58706108D01*
X108284642Y-58707503D01*
X108284279Y-58719708D01*
X108284279Y-58724254D01*
X108284287Y-58724400D01*
X108285140Y-58740577D01*
X108284897Y-58743641D01*
X108150721Y-59370692D01*
X108145639Y-59378065D01*
X108136832Y-59379685D01*
X108129459Y-59374603D01*
X108127839Y-59370692D01*
X107990038Y-58726702D01*
X107989779Y-58724254D01*
X107989779Y-58719708D01*
X107989862Y-58718313D01*
X107991779Y-58702347D01*
X107994279Y-58681160D01*
X107994288Y-58681080D01*
X107994291Y-58681056D01*
X107996779Y-58659597D01*
X107999279Y-58637660D01*
X108001779Y-58615347D01*
X108004279Y-58592660D01*
X108006779Y-58569597D01*
X108009279Y-58546160D01*
X108009279Y-58546157D01*
X108011779Y-58522347D01*
X108011779Y-58522344D01*
X108011781Y-58522325D01*
X108013195Y-58508656D01*
X108017455Y-58500780D01*
X108024833Y-58498160D01*
X108253727Y-58498160D01*
X108262000Y-58501587D01*
G37*
%TD.AperFunction*%
%TD*%
%TA.AperFunction,Conductor*%
%TO.N,/MA7*%
G36*
X105149101Y-59471717D02*
G01*
X105150721Y-59475628D01*
X105288522Y-60119618D01*
X105288781Y-60122066D01*
X105288781Y-60125136D01*
X105288618Y-60127083D01*
X105286779Y-60137980D01*
X105286775Y-60138004D01*
X105284279Y-60153175D01*
X105281779Y-60168746D01*
X105281775Y-60168771D01*
X105281768Y-60168814D01*
X105279279Y-60184691D01*
X105276779Y-60201012D01*
X105276778Y-60201019D01*
X105276772Y-60201058D01*
X105274279Y-60217707D01*
X105271779Y-60234778D01*
X105269279Y-60252223D01*
X105266779Y-60270044D01*
X105265668Y-60278132D01*
X105261147Y-60285862D01*
X105254077Y-60288240D01*
X105024482Y-60288240D01*
X105016209Y-60284813D01*
X105012891Y-60278133D01*
X105011779Y-60270044D01*
X105009279Y-60252223D01*
X105006779Y-60234778D01*
X105004279Y-60217707D01*
X105001779Y-60201012D01*
X104999279Y-60184691D01*
X104999273Y-60184655D01*
X104999267Y-60184615D01*
X104996779Y-60168746D01*
X104994279Y-60153175D01*
X104994276Y-60153158D01*
X104994269Y-60153114D01*
X104991779Y-60137980D01*
X104989943Y-60127092D01*
X104989780Y-60125147D01*
X104989780Y-60122061D01*
X104990039Y-60119613D01*
X105127839Y-59475628D01*
X105132921Y-59468255D01*
X105141728Y-59466635D01*
X105149101Y-59471717D01*
G37*
%TD.AperFunction*%
%TD*%
%TA.AperFunction,Conductor*%
%TO.N,/D0*%
G36*
X104462171Y-48984798D02*
G01*
X104498428Y-48999960D01*
X104537517Y-49016327D01*
X104537572Y-49016349D01*
X104570655Y-49029643D01*
X104570684Y-49029654D01*
X104570746Y-49029679D01*
X104570802Y-49029699D01*
X104570825Y-49029708D01*
X104600057Y-49040252D01*
X104600062Y-49040254D01*
X104600210Y-49040307D01*
X104600373Y-49040355D01*
X104627794Y-49048440D01*
X104627799Y-49048441D01*
X104628005Y-49048502D01*
X104628204Y-49048545D01*
X104628213Y-49048547D01*
X104645243Y-49052199D01*
X104656226Y-49054555D01*
X104673591Y-49056928D01*
X104686791Y-49058732D01*
X104686797Y-49058733D01*
X104686968Y-49058756D01*
X104709750Y-49060457D01*
X104722204Y-49061387D01*
X104722215Y-49061388D01*
X104722328Y-49061396D01*
X104760033Y-49062625D01*
X104764307Y-49062764D01*
X104764310Y-49062764D01*
X104764400Y-49062767D01*
X104764463Y-49062767D01*
X104764486Y-49062768D01*
X104784435Y-49062922D01*
X104803671Y-49063070D01*
X104811917Y-49066561D01*
X104815280Y-49074770D01*
X104815280Y-49301549D01*
X104811853Y-49309822D01*
X104803670Y-49313249D01*
X104764486Y-49313551D01*
X104764463Y-49313552D01*
X104764400Y-49313552D01*
X104764310Y-49313555D01*
X104764307Y-49313555D01*
X104760033Y-49313694D01*
X104722328Y-49314923D01*
X104722215Y-49314931D01*
X104722204Y-49314932D01*
X104709750Y-49315862D01*
X104686968Y-49317563D01*
X104686797Y-49317586D01*
X104686791Y-49317587D01*
X104673591Y-49319391D01*
X104656226Y-49321764D01*
X104642115Y-49324791D01*
X104628209Y-49327773D01*
X104628203Y-49327775D01*
X104628005Y-49327817D01*
X104627795Y-49327879D01*
X104600392Y-49335957D01*
X104600381Y-49335961D01*
X104600210Y-49336011D01*
X104600050Y-49336069D01*
X104600043Y-49336071D01*
X104577547Y-49344186D01*
X104570746Y-49346639D01*
X104537517Y-49359992D01*
X104498433Y-49376357D01*
X104498428Y-49376359D01*
X104462171Y-49391522D01*
X104453216Y-49391553D01*
X104446866Y-49385250D01*
X104366175Y-49192682D01*
X104366175Y-49183638D01*
X104446866Y-48991070D01*
X104453224Y-48984764D01*
X104462171Y-48984798D01*
G37*
%TD.AperFunction*%
%TD*%
%TA.AperFunction,Conductor*%
%TO.N,/D7*%
G36*
X103762000Y-45651587D02*
G01*
X103765365Y-45658658D01*
X103766779Y-45672347D01*
X103769279Y-45696157D01*
X103769279Y-45696160D01*
X103771779Y-45719597D01*
X103774279Y-45742660D01*
X103776779Y-45765347D01*
X103779279Y-45787660D01*
X103781779Y-45809597D01*
X103784267Y-45831056D01*
X103784270Y-45831080D01*
X103784279Y-45831160D01*
X103785661Y-45842873D01*
X103785695Y-45845288D01*
X103784725Y-45856108D01*
X103784642Y-45857503D01*
X103784279Y-45869708D01*
X103784279Y-45874254D01*
X103784287Y-45874400D01*
X103785140Y-45890577D01*
X103784897Y-45893641D01*
X103650721Y-46520692D01*
X103645639Y-46528065D01*
X103636832Y-46529685D01*
X103629459Y-46524603D01*
X103627839Y-46520692D01*
X103490038Y-45876702D01*
X103489779Y-45874254D01*
X103489779Y-45869708D01*
X103489862Y-45868313D01*
X103491779Y-45852347D01*
X103494279Y-45831160D01*
X103494288Y-45831080D01*
X103494291Y-45831056D01*
X103496779Y-45809597D01*
X103499279Y-45787660D01*
X103501779Y-45765347D01*
X103504279Y-45742660D01*
X103506779Y-45719597D01*
X103509279Y-45696160D01*
X103509279Y-45696157D01*
X103511779Y-45672347D01*
X103511779Y-45672344D01*
X103511781Y-45672325D01*
X103513195Y-45658656D01*
X103517455Y-45650780D01*
X103524833Y-45648160D01*
X103753727Y-45648160D01*
X103762000Y-45651587D01*
G37*
%TD.AperFunction*%
%TD*%
%TA.AperFunction,Conductor*%
%TO.N,/A5*%
G36*
X109262000Y-58501587D02*
G01*
X109265365Y-58508658D01*
X109266779Y-58522347D01*
X109269279Y-58546157D01*
X109269279Y-58546160D01*
X109271779Y-58569597D01*
X109274279Y-58592660D01*
X109276779Y-58615347D01*
X109279279Y-58637660D01*
X109281779Y-58659597D01*
X109284267Y-58681056D01*
X109284270Y-58681080D01*
X109284279Y-58681160D01*
X109285661Y-58692873D01*
X109285695Y-58695288D01*
X109284725Y-58706108D01*
X109284642Y-58707503D01*
X109284279Y-58719708D01*
X109284279Y-58724254D01*
X109284287Y-58724400D01*
X109285140Y-58740577D01*
X109284897Y-58743641D01*
X109150721Y-59370692D01*
X109145639Y-59378065D01*
X109136832Y-59379685D01*
X109129459Y-59374603D01*
X109127839Y-59370692D01*
X108990038Y-58726702D01*
X108989779Y-58724254D01*
X108989779Y-58719708D01*
X108989862Y-58718313D01*
X108991779Y-58702347D01*
X108994279Y-58681160D01*
X108994288Y-58681080D01*
X108994291Y-58681056D01*
X108996779Y-58659597D01*
X108999279Y-58637660D01*
X109001779Y-58615347D01*
X109004279Y-58592660D01*
X109006779Y-58569597D01*
X109009279Y-58546160D01*
X109009279Y-58546157D01*
X109011779Y-58522347D01*
X109011779Y-58522344D01*
X109011781Y-58522325D01*
X109013195Y-58508656D01*
X109017455Y-58500780D01*
X109024833Y-58498160D01*
X109253727Y-58498160D01*
X109262000Y-58501587D01*
G37*
%TD.AperFunction*%
%TD*%
%TA.AperFunction,Conductor*%
%TO.N,/~{OE}*%
G36*
X102267151Y-45352708D02*
G01*
X102275409Y-45356172D01*
X102278799Y-45364488D01*
X102278471Y-45411676D01*
X102277596Y-45449931D01*
X102277364Y-45460060D01*
X102277358Y-45460262D01*
X102275729Y-45500799D01*
X102275720Y-45500983D01*
X102273742Y-45536331D01*
X102273735Y-45536444D01*
X102271580Y-45569266D01*
X102269419Y-45602157D01*
X102269415Y-45602226D01*
X102267433Y-45637651D01*
X102265798Y-45678350D01*
X102265796Y-45678429D01*
X102264688Y-45726856D01*
X102264360Y-45774154D01*
X102260876Y-45782403D01*
X102252660Y-45785773D01*
X102025381Y-45785773D01*
X102017108Y-45782346D01*
X102013697Y-45774687D01*
X102011580Y-45734399D01*
X102011580Y-45734396D01*
X102011560Y-45734022D01*
X102003862Y-45692764D01*
X101991876Y-45659485D01*
X101976295Y-45631673D01*
X101976072Y-45631373D01*
X101976068Y-45631367D01*
X101957923Y-45606968D01*
X101957919Y-45606964D01*
X101957809Y-45606815D01*
X101937109Y-45582397D01*
X101915109Y-45556169D01*
X101914678Y-45555622D01*
X101900400Y-45536374D01*
X101892158Y-45525263D01*
X101891557Y-45524369D01*
X101868961Y-45487172D01*
X101868387Y-45486107D01*
X101851250Y-45449931D01*
X101850806Y-45440987D01*
X101857302Y-45434131D01*
X102051685Y-45352680D01*
X102056259Y-45351771D01*
X102267151Y-45352708D01*
G37*
%TD.AperFunction*%
%TD*%
%TA.AperFunction,Conductor*%
%TO.N,/~{CAS0}*%
G36*
X106649101Y-59471717D02*
G01*
X106650721Y-59475628D01*
X106784898Y-60102682D01*
X106785141Y-60105747D01*
X106784280Y-60122061D01*
X106784280Y-60126620D01*
X106784643Y-60138825D01*
X106784726Y-60140220D01*
X106785696Y-60151031D01*
X106785662Y-60153443D01*
X106784279Y-60165160D01*
X106781779Y-60186722D01*
X106779279Y-60208660D01*
X106776779Y-60230972D01*
X106774279Y-60253660D01*
X106771779Y-60276722D01*
X106769279Y-60300160D01*
X106769279Y-60300163D01*
X106766779Y-60323972D01*
X106765365Y-60337662D01*
X106761106Y-60345539D01*
X106753727Y-60348160D01*
X106524833Y-60348160D01*
X106516560Y-60344733D01*
X106513195Y-60337664D01*
X106511779Y-60323973D01*
X106511779Y-60323972D01*
X106509279Y-60300160D01*
X106506779Y-60276722D01*
X106506771Y-60276645D01*
X106504279Y-60253660D01*
X106501779Y-60230972D01*
X106499279Y-60208660D01*
X106496779Y-60186722D01*
X106494279Y-60165160D01*
X106491779Y-60143972D01*
X106489863Y-60128015D01*
X106489780Y-60126620D01*
X106489780Y-60122061D01*
X106490039Y-60119613D01*
X106627839Y-59475628D01*
X106632921Y-59468255D01*
X106641728Y-59466635D01*
X106649101Y-59471717D01*
G37*
%TD.AperFunction*%
%TD*%
%TA.AperFunction,Conductor*%
%TO.N,/MA5*%
G36*
X105610807Y-77246745D02*
G01*
X105614234Y-77255063D01*
X105614056Y-77300207D01*
X105613448Y-77347052D01*
X105613004Y-77366537D01*
X105612552Y-77386332D01*
X105612549Y-77386436D01*
X105611465Y-77420594D01*
X105611463Y-77420658D01*
X105610280Y-77452439D01*
X105609096Y-77484219D01*
X105608007Y-77518511D01*
X105608005Y-77518579D01*
X105607112Y-77557825D01*
X105607111Y-77557878D01*
X105606504Y-77604670D01*
X105606326Y-77649958D01*
X105602867Y-77658218D01*
X105594679Y-77661612D01*
X105488081Y-77662085D01*
X105383659Y-77662549D01*
X105379085Y-77661640D01*
X105243126Y-77604670D01*
X105184864Y-77580257D01*
X105178558Y-77573899D01*
X105178885Y-77564307D01*
X105196212Y-77529039D01*
X105197001Y-77527674D01*
X105221003Y-77491946D01*
X105221870Y-77490811D01*
X105246635Y-77462249D01*
X105247316Y-77461528D01*
X105272166Y-77437351D01*
X105272353Y-77437173D01*
X105283568Y-77426733D01*
X105296330Y-77414854D01*
X105318202Y-77392010D01*
X105336904Y-77366082D01*
X105351465Y-77334422D01*
X105359525Y-77300271D01*
X105360803Y-77294854D01*
X105360803Y-77294852D01*
X105360914Y-77294383D01*
X105363560Y-77254248D01*
X105367524Y-77246219D01*
X105375235Y-77243318D01*
X105602534Y-77243318D01*
X105610807Y-77246745D01*
G37*
%TD.AperFunction*%
%TD*%
%TA.AperFunction,Conductor*%
%TO.N,/MA4*%
G36*
X107524299Y-80412784D02*
G01*
X107684656Y-80573141D01*
X107688083Y-80581414D01*
X107684720Y-80589623D01*
X107657205Y-80617565D01*
X107657166Y-80617605D01*
X107628386Y-80648324D01*
X107605250Y-80675194D01*
X107586482Y-80699903D01*
X107570807Y-80724138D01*
X107556947Y-80749586D01*
X107543628Y-80777936D01*
X107543575Y-80778061D01*
X107529573Y-80810873D01*
X107513509Y-80850082D01*
X107513507Y-80850087D01*
X107498591Y-80886447D01*
X107492280Y-80892800D01*
X107483333Y-80892834D01*
X107290109Y-80813724D01*
X107283715Y-80807330D01*
X107271638Y-80777830D01*
X107229556Y-80675046D01*
X107204606Y-80614106D01*
X107204643Y-80605151D01*
X107210993Y-80598849D01*
X107247347Y-80583934D01*
X107247352Y-80583932D01*
X107273688Y-80573141D01*
X107286565Y-80567865D01*
X107319503Y-80553810D01*
X107331152Y-80548337D01*
X107347710Y-80540558D01*
X107347718Y-80540554D01*
X107347852Y-80540491D01*
X107347985Y-80540418D01*
X107347994Y-80540414D01*
X107357319Y-80535335D01*
X107373301Y-80526632D01*
X107388648Y-80516705D01*
X107397348Y-80511078D01*
X107397355Y-80511073D01*
X107397536Y-80510956D01*
X107422245Y-80492189D01*
X107422385Y-80492069D01*
X107422393Y-80492062D01*
X107449031Y-80469125D01*
X107449115Y-80469053D01*
X107479834Y-80440273D01*
X107479874Y-80440234D01*
X107507817Y-80412720D01*
X107516117Y-80409357D01*
X107524299Y-80412784D01*
G37*
%TD.AperFunction*%
%TD*%
%TA.AperFunction,Conductor*%
%TO.N,/A4*%
G36*
X109762000Y-58501587D02*
G01*
X109765365Y-58508658D01*
X109766779Y-58522347D01*
X109769279Y-58546157D01*
X109769279Y-58546160D01*
X109771779Y-58569597D01*
X109774279Y-58592660D01*
X109776779Y-58615347D01*
X109779279Y-58637660D01*
X109781779Y-58659597D01*
X109784267Y-58681056D01*
X109784270Y-58681080D01*
X109784279Y-58681160D01*
X109786776Y-58702324D01*
X109786779Y-58702347D01*
X109786779Y-58702349D01*
X109789047Y-58721222D01*
X109788872Y-58725066D01*
X109650721Y-59370692D01*
X109645639Y-59378065D01*
X109636832Y-59379685D01*
X109629459Y-59374603D01*
X109627839Y-59370692D01*
X109490038Y-58726702D01*
X109489779Y-58724254D01*
X109489779Y-58719708D01*
X109489862Y-58718313D01*
X109491779Y-58702347D01*
X109494279Y-58681160D01*
X109494288Y-58681080D01*
X109494291Y-58681056D01*
X109496779Y-58659597D01*
X109499279Y-58637660D01*
X109501779Y-58615347D01*
X109504279Y-58592660D01*
X109506779Y-58569597D01*
X109509279Y-58546160D01*
X109509279Y-58546157D01*
X109511779Y-58522347D01*
X109511779Y-58522344D01*
X109511781Y-58522325D01*
X109513195Y-58508656D01*
X109517455Y-58500780D01*
X109524833Y-58498160D01*
X109753727Y-58498160D01*
X109762000Y-58501587D01*
G37*
%TD.AperFunction*%
%TD*%
%TA.AperFunction,Conductor*%
%TO.N,/A1*%
G36*
X109832372Y-51826494D02*
G01*
X109867087Y-51909341D01*
X109912885Y-52018638D01*
X109912885Y-52027682D01*
X109832766Y-52218887D01*
X109832373Y-52219824D01*
X109826015Y-52226130D01*
X109816654Y-52225913D01*
X109802531Y-52219354D01*
X109801652Y-52218899D01*
X109781827Y-52207506D01*
X109781105Y-52207055D01*
X109764704Y-52195901D01*
X109764277Y-52195595D01*
X109749925Y-52184848D01*
X109736578Y-52174949D01*
X109736415Y-52174828D01*
X109722669Y-52165989D01*
X109722357Y-52165839D01*
X109722349Y-52165834D01*
X109714160Y-52161885D01*
X109707386Y-52158617D01*
X109706971Y-52158488D01*
X109706965Y-52158486D01*
X109689659Y-52153121D01*
X109689658Y-52153121D01*
X109689262Y-52152998D01*
X109666994Y-52149417D01*
X109666666Y-52149402D01*
X109666665Y-52149402D01*
X109663859Y-52149275D01*
X109650449Y-52148667D01*
X109642341Y-52144869D01*
X109639280Y-52136979D01*
X109639280Y-51909341D01*
X109642707Y-51901068D01*
X109650449Y-51897653D01*
X109666664Y-51896917D01*
X109666994Y-51896902D01*
X109689262Y-51893321D01*
X109689659Y-51893198D01*
X109706965Y-51887833D01*
X109706971Y-51887831D01*
X109707386Y-51887702D01*
X109714160Y-51884434D01*
X109722349Y-51880485D01*
X109722357Y-51880480D01*
X109722669Y-51880330D01*
X109736415Y-51871491D01*
X109749925Y-51861470D01*
X109764287Y-51850716D01*
X109764708Y-51850415D01*
X109781111Y-51839260D01*
X109781832Y-51838810D01*
X109801635Y-51827430D01*
X109802536Y-51826963D01*
X109816654Y-51820406D01*
X109825600Y-51820029D01*
X109832372Y-51826494D01*
G37*
%TD.AperFunction*%
%TD*%
%TA.AperFunction,Conductor*%
%TO.N,/D3*%
G36*
X108240386Y-44504262D02*
G01*
X108260193Y-44523522D01*
X108264161Y-44527381D01*
X108291592Y-44552036D01*
X108291705Y-44552126D01*
X108291714Y-44552134D01*
X108311093Y-44567624D01*
X108315829Y-44571410D01*
X108338292Y-44586731D01*
X108338492Y-44586844D01*
X108338500Y-44586849D01*
X108351213Y-44594033D01*
X108360402Y-44599226D01*
X108360590Y-44599315D01*
X108360597Y-44599318D01*
X108383458Y-44610066D01*
X108383470Y-44610071D01*
X108383580Y-44610123D01*
X108383695Y-44610170D01*
X108383706Y-44610175D01*
X108409137Y-44620604D01*
X108409247Y-44620649D01*
X108438822Y-44632034D01*
X108438831Y-44632038D01*
X108473641Y-44645471D01*
X108473801Y-44645534D01*
X108504470Y-44657890D01*
X108510863Y-44664160D01*
X108510926Y-44673175D01*
X108497912Y-44704962D01*
X108438479Y-44850127D01*
X108431845Y-44866330D01*
X108425451Y-44872724D01*
X108296119Y-44925676D01*
X108232295Y-44951806D01*
X108223340Y-44951769D01*
X108217010Y-44945350D01*
X108204654Y-44914681D01*
X108204591Y-44914521D01*
X108191158Y-44879711D01*
X108191154Y-44879702D01*
X108179818Y-44850253D01*
X108179803Y-44850216D01*
X108179769Y-44850127D01*
X108169243Y-44824460D01*
X108158346Y-44801282D01*
X108145851Y-44779172D01*
X108130530Y-44756709D01*
X108111156Y-44732472D01*
X108086501Y-44705041D01*
X108082642Y-44701073D01*
X108063382Y-44681266D01*
X108060071Y-44672945D01*
X108063497Y-44664836D01*
X108223956Y-44504377D01*
X108232229Y-44500950D01*
X108240386Y-44504262D01*
G37*
%TD.AperFunction*%
%TD*%
%TA.AperFunction,Conductor*%
%TO.N,/D4*%
G36*
X102801005Y-37085703D02*
G01*
X102807527Y-37092553D01*
X102869567Y-37265341D01*
X102869905Y-37266457D01*
X102909865Y-37426252D01*
X102910071Y-37427259D01*
X102932304Y-37568169D01*
X102932385Y-37568789D01*
X102945127Y-37695881D01*
X102956591Y-37813788D01*
X102975024Y-37927039D01*
X103008706Y-38040466D01*
X103065916Y-38158903D01*
X103154933Y-38287184D01*
X103155187Y-38287465D01*
X103276585Y-38421890D01*
X103279587Y-38430327D01*
X103276175Y-38438005D01*
X103115125Y-38599055D01*
X103106852Y-38602482D01*
X103099010Y-38599465D01*
X102964585Y-38478067D01*
X102964304Y-38477813D01*
X102836023Y-38388796D01*
X102835607Y-38388595D01*
X102718011Y-38331791D01*
X102718008Y-38331790D01*
X102717586Y-38331586D01*
X102717140Y-38331454D01*
X102717136Y-38331452D01*
X102640766Y-38308774D01*
X102604159Y-38297904D01*
X102540023Y-38287465D01*
X102491101Y-38279502D01*
X102491089Y-38279500D01*
X102490908Y-38279471D01*
X102476150Y-38278036D01*
X102373036Y-38268010D01*
X102373001Y-38268007D01*
X102245909Y-38255265D01*
X102245289Y-38255184D01*
X102104379Y-38232951D01*
X102103378Y-38232746D01*
X101943573Y-38192784D01*
X101942465Y-38192448D01*
X101879077Y-38169689D01*
X101769673Y-38130407D01*
X101763045Y-38124386D01*
X101762812Y-38114930D01*
X101793380Y-38040891D01*
X102061718Y-37390946D01*
X102068066Y-37384598D01*
X102792051Y-37085692D01*
X102801005Y-37085703D01*
G37*
%TD.AperFunction*%
%TD*%
%TA.AperFunction,Conductor*%
%TO.N,/A4*%
G36*
X107637354Y-53120265D02*
G01*
X107643173Y-53122905D01*
X107654540Y-53128064D01*
X107655245Y-53128413D01*
X107677799Y-53140539D01*
X107678366Y-53140865D01*
X107697173Y-53152375D01*
X107697425Y-53152533D01*
X107714015Y-53163342D01*
X107729571Y-53173115D01*
X107745387Y-53181578D01*
X107762865Y-53188521D01*
X107763234Y-53188615D01*
X107763241Y-53188617D01*
X107778169Y-53192407D01*
X107783406Y-53193737D01*
X107808410Y-53197019D01*
X107808684Y-53197029D01*
X107808694Y-53197030D01*
X107828012Y-53197744D01*
X107836153Y-53201474D01*
X107839280Y-53209436D01*
X107839280Y-53436884D01*
X107835853Y-53445157D01*
X107828012Y-53448576D01*
X107824285Y-53448714D01*
X107808410Y-53449300D01*
X107783406Y-53452582D01*
X107778169Y-53453912D01*
X107763241Y-53457702D01*
X107763234Y-53457704D01*
X107762865Y-53457798D01*
X107745387Y-53464741D01*
X107729571Y-53473203D01*
X107714015Y-53482977D01*
X107697425Y-53493786D01*
X107697173Y-53493944D01*
X107678366Y-53505454D01*
X107677800Y-53505780D01*
X107655238Y-53517911D01*
X107654549Y-53518252D01*
X107637353Y-53526055D01*
X107628404Y-53526354D01*
X107621729Y-53519924D01*
X107541175Y-53327682D01*
X107541175Y-53318638D01*
X107621729Y-53126397D01*
X107628087Y-53120091D01*
X107637354Y-53120265D01*
G37*
%TD.AperFunction*%
%TD*%
%TA.AperFunction,Conductor*%
%TO.N,/MA5*%
G36*
X104156831Y-53776397D02*
G01*
X104237385Y-53968638D01*
X104237385Y-53977682D01*
X104156831Y-54169923D01*
X104150473Y-54176229D01*
X104141206Y-54176055D01*
X104123999Y-54168246D01*
X104123331Y-54167917D01*
X104100763Y-54155783D01*
X104100198Y-54155458D01*
X104092369Y-54150666D01*
X104081351Y-54143923D01*
X104081137Y-54143788D01*
X104064543Y-54132977D01*
X104048988Y-54123203D01*
X104033172Y-54114741D01*
X104015694Y-54107798D01*
X104015325Y-54107704D01*
X104015318Y-54107702D01*
X104000390Y-54103912D01*
X103995153Y-54102582D01*
X103970149Y-54099300D01*
X103954613Y-54098726D01*
X103950548Y-54098576D01*
X103942407Y-54094846D01*
X103939280Y-54086884D01*
X103939280Y-53859436D01*
X103942707Y-53851163D01*
X103950548Y-53847744D01*
X103969865Y-53847030D01*
X103969875Y-53847029D01*
X103970149Y-53847019D01*
X103995153Y-53843737D01*
X104000390Y-53842407D01*
X104015318Y-53838617D01*
X104015325Y-53838615D01*
X104015694Y-53838521D01*
X104033172Y-53831578D01*
X104048988Y-53823115D01*
X104064543Y-53813342D01*
X104081137Y-53802531D01*
X104081351Y-53802396D01*
X104092369Y-53795653D01*
X104100198Y-53790861D01*
X104100766Y-53790535D01*
X104123307Y-53778416D01*
X104124012Y-53778067D01*
X104141205Y-53770265D01*
X104150155Y-53769967D01*
X104156831Y-53776397D01*
G37*
%TD.AperFunction*%
%TD*%
%TA.AperFunction,Conductor*%
%TO.N,/MA0*%
G36*
X103262000Y-58501587D02*
G01*
X103265365Y-58508658D01*
X103266779Y-58522347D01*
X103269279Y-58546157D01*
X103269279Y-58546160D01*
X103271779Y-58569597D01*
X103274279Y-58592660D01*
X103276779Y-58615347D01*
X103279279Y-58637660D01*
X103281779Y-58659597D01*
X103284267Y-58681056D01*
X103284270Y-58681080D01*
X103284279Y-58681160D01*
X103285661Y-58692873D01*
X103285695Y-58695289D01*
X103284739Y-58705957D01*
X103284725Y-58706108D01*
X103284642Y-58707503D01*
X103284279Y-58719708D01*
X103284279Y-58724254D01*
X103284287Y-58724400D01*
X103285140Y-58740577D01*
X103284897Y-58743641D01*
X103150721Y-59370692D01*
X103145639Y-59378065D01*
X103136832Y-59379685D01*
X103129459Y-59374603D01*
X103127839Y-59370692D01*
X102990038Y-58726702D01*
X102989779Y-58724254D01*
X102989779Y-58719708D01*
X102989862Y-58718313D01*
X102991779Y-58702347D01*
X102994279Y-58681160D01*
X102994288Y-58681080D01*
X102994291Y-58681056D01*
X102996779Y-58659597D01*
X102999279Y-58637660D01*
X103001779Y-58615347D01*
X103004279Y-58592660D01*
X103006779Y-58569597D01*
X103009279Y-58546160D01*
X103009279Y-58546157D01*
X103011779Y-58522347D01*
X103011779Y-58522344D01*
X103011781Y-58522325D01*
X103013195Y-58508656D01*
X103017455Y-58500780D01*
X103024833Y-58498160D01*
X103253727Y-58498160D01*
X103262000Y-58501587D01*
G37*
%TD.AperFunction*%
%TD*%
%TA.AperFunction,Conductor*%
%TO.N,/A0*%
G36*
X108149101Y-46621717D02*
G01*
X108150721Y-46625628D01*
X108284898Y-47252682D01*
X108285141Y-47255747D01*
X108284280Y-47272061D01*
X108284280Y-47276620D01*
X108284643Y-47288825D01*
X108284726Y-47290220D01*
X108285696Y-47301031D01*
X108285662Y-47303443D01*
X108284279Y-47315160D01*
X108281779Y-47336722D01*
X108279279Y-47358660D01*
X108276779Y-47380972D01*
X108274279Y-47403660D01*
X108271779Y-47426722D01*
X108269279Y-47450160D01*
X108269279Y-47450163D01*
X108266779Y-47473972D01*
X108265365Y-47487662D01*
X108261106Y-47495539D01*
X108253727Y-47498160D01*
X108024833Y-47498160D01*
X108016560Y-47494733D01*
X108013195Y-47487664D01*
X108011779Y-47473973D01*
X108011779Y-47473972D01*
X108009279Y-47450160D01*
X108006779Y-47426722D01*
X108006771Y-47426645D01*
X108004279Y-47403660D01*
X108001779Y-47380972D01*
X107999279Y-47358660D01*
X107996779Y-47336722D01*
X107994279Y-47315160D01*
X107991779Y-47293972D01*
X107989863Y-47278015D01*
X107989780Y-47276620D01*
X107989780Y-47272061D01*
X107990039Y-47269613D01*
X108127839Y-46625628D01*
X108132921Y-46618255D01*
X108141728Y-46616635D01*
X108149101Y-46621717D01*
G37*
%TD.AperFunction*%
%TD*%
%TA.AperFunction,Conductor*%
%TO.N,/MA5*%
G36*
X103649101Y-59471717D02*
G01*
X103650721Y-59475628D01*
X103788522Y-60119618D01*
X103788781Y-60122066D01*
X103788781Y-60125747D01*
X103788660Y-60127429D01*
X103786779Y-60140380D01*
X103784279Y-60157975D01*
X103781779Y-60175946D01*
X103779279Y-60194291D01*
X103776779Y-60213012D01*
X103776775Y-60213039D01*
X103774279Y-60232107D01*
X103771779Y-60251578D01*
X103769279Y-60271423D01*
X103766779Y-60291644D01*
X103765529Y-60301949D01*
X103761131Y-60309749D01*
X103753914Y-60312240D01*
X103524645Y-60312240D01*
X103516372Y-60308813D01*
X103513030Y-60301950D01*
X103511779Y-60291644D01*
X103509279Y-60271423D01*
X103506779Y-60251578D01*
X103504279Y-60232107D01*
X103501779Y-60213012D01*
X103499279Y-60194291D01*
X103499272Y-60194239D01*
X103499268Y-60194208D01*
X103496779Y-60175946D01*
X103494279Y-60157975D01*
X103491779Y-60140380D01*
X103489901Y-60127439D01*
X103489780Y-60125759D01*
X103489780Y-60122061D01*
X103490039Y-60119613D01*
X103627839Y-59475628D01*
X103632921Y-59468255D01*
X103641728Y-59466635D01*
X103649101Y-59471717D01*
G37*
%TD.AperFunction*%
%TD*%
%TA.AperFunction,Conductor*%
%TO.N,/MA0*%
G36*
X103149101Y-59471717D02*
G01*
X103150721Y-59475628D01*
X103284898Y-60102682D01*
X103285141Y-60105747D01*
X103284280Y-60122061D01*
X103284280Y-60125759D01*
X103284811Y-60140522D01*
X103284932Y-60142202D01*
X103284941Y-60142281D01*
X103284941Y-60142286D01*
X103285774Y-60149968D01*
X103285761Y-60152600D01*
X103284279Y-60165160D01*
X103281779Y-60186722D01*
X103279279Y-60208660D01*
X103276779Y-60230972D01*
X103274279Y-60253660D01*
X103271779Y-60276722D01*
X103269279Y-60300160D01*
X103269279Y-60300163D01*
X103266779Y-60323972D01*
X103265365Y-60337662D01*
X103261106Y-60345539D01*
X103253727Y-60348160D01*
X103024833Y-60348160D01*
X103016560Y-60344733D01*
X103013195Y-60337664D01*
X103011779Y-60323973D01*
X103011779Y-60323972D01*
X103009279Y-60300160D01*
X103006779Y-60276722D01*
X103006771Y-60276645D01*
X103004279Y-60253660D01*
X103001779Y-60230972D01*
X102999279Y-60208660D01*
X102996779Y-60186722D01*
X102994279Y-60165160D01*
X102991779Y-60143972D01*
X102989863Y-60128015D01*
X102989780Y-60126620D01*
X102989780Y-60122061D01*
X102990039Y-60119613D01*
X103127839Y-59475628D01*
X103132921Y-59468255D01*
X103141728Y-59466635D01*
X103149101Y-59471717D01*
G37*
%TD.AperFunction*%
%TD*%
%TA.AperFunction,Conductor*%
%TO.N,/A3*%
G36*
X109761818Y-50383112D02*
G01*
X109765202Y-50390379D01*
X109767186Y-50413376D01*
X109775585Y-50438405D01*
X109788993Y-50456343D01*
X109806927Y-50468761D01*
X109807573Y-50469010D01*
X109807577Y-50469012D01*
X109828541Y-50477089D01*
X109828544Y-50477090D01*
X109828905Y-50477229D01*
X109854444Y-50483317D01*
X109883023Y-50488589D01*
X109883102Y-50488604D01*
X109913980Y-50494580D01*
X109914581Y-50494714D01*
X109947084Y-50502880D01*
X109948097Y-50503184D01*
X109970916Y-50511198D01*
X109977586Y-50517173D01*
X109977856Y-50526696D01*
X109898317Y-50719642D01*
X109891933Y-50726011D01*
X109698982Y-50805006D01*
X109690027Y-50804969D01*
X109683909Y-50799044D01*
X109662237Y-50751654D01*
X109662146Y-50751455D01*
X109647141Y-50724160D01*
X109636487Y-50704779D01*
X109636482Y-50704771D01*
X109636391Y-50704605D01*
X109611813Y-50665842D01*
X109611775Y-50665786D01*
X109611763Y-50665768D01*
X109588966Y-50632382D01*
X109588884Y-50632260D01*
X109568388Y-50601423D01*
X109567966Y-50600739D01*
X109550424Y-50569947D01*
X109549821Y-50568729D01*
X109535473Y-50534951D01*
X109534953Y-50533450D01*
X109524084Y-50493521D01*
X109523788Y-50492081D01*
X109516848Y-50442845D01*
X109516742Y-50441676D01*
X109514763Y-50391849D01*
X109517859Y-50383447D01*
X109526454Y-50379685D01*
X109753545Y-50379685D01*
X109761818Y-50383112D01*
G37*
%TD.AperFunction*%
%TD*%
%TA.AperFunction,Conductor*%
%TO.N,/D3*%
G36*
X105762000Y-45651587D02*
G01*
X105765365Y-45658658D01*
X105766779Y-45672347D01*
X105769279Y-45696157D01*
X105769279Y-45696160D01*
X105771779Y-45719597D01*
X105774279Y-45742660D01*
X105776779Y-45765347D01*
X105779279Y-45787660D01*
X105781779Y-45809597D01*
X105784267Y-45831056D01*
X105784270Y-45831080D01*
X105784279Y-45831160D01*
X105786776Y-45852324D01*
X105786779Y-45852347D01*
X105786779Y-45852349D01*
X105788696Y-45868300D01*
X105788780Y-45869696D01*
X105788780Y-45874259D01*
X105788521Y-45876707D01*
X105650721Y-46520692D01*
X105645639Y-46528065D01*
X105636832Y-46529685D01*
X105629459Y-46524603D01*
X105627839Y-46520692D01*
X105493662Y-45893638D01*
X105493419Y-45890573D01*
X105494280Y-45874259D01*
X105494280Y-45869696D01*
X105493909Y-45857353D01*
X105493825Y-45855957D01*
X105492864Y-45845287D01*
X105492898Y-45842866D01*
X105494279Y-45831160D01*
X105494288Y-45831080D01*
X105494291Y-45831056D01*
X105496779Y-45809597D01*
X105499279Y-45787660D01*
X105501779Y-45765347D01*
X105504279Y-45742660D01*
X105506779Y-45719597D01*
X105509279Y-45696160D01*
X105509279Y-45696157D01*
X105511779Y-45672347D01*
X105511779Y-45672344D01*
X105511781Y-45672325D01*
X105513195Y-45658656D01*
X105517455Y-45650780D01*
X105524833Y-45648160D01*
X105753727Y-45648160D01*
X105762000Y-45651587D01*
G37*
%TD.AperFunction*%
%TD*%
%TA.AperFunction,Conductor*%
%TO.N,/MA5*%
G36*
X103762000Y-58501587D02*
G01*
X103765365Y-58508658D01*
X103766779Y-58522347D01*
X103769279Y-58546157D01*
X103769279Y-58546160D01*
X103771779Y-58569597D01*
X103774279Y-58592660D01*
X103776779Y-58615347D01*
X103779279Y-58637660D01*
X103781779Y-58659597D01*
X103784267Y-58681056D01*
X103784270Y-58681080D01*
X103784279Y-58681160D01*
X103786776Y-58702324D01*
X103786779Y-58702347D01*
X103786779Y-58702349D01*
X103788696Y-58718300D01*
X103788780Y-58719696D01*
X103788780Y-58724259D01*
X103788521Y-58726707D01*
X103650721Y-59370692D01*
X103645639Y-59378065D01*
X103636832Y-59379685D01*
X103629459Y-59374603D01*
X103627839Y-59370692D01*
X103490038Y-58726702D01*
X103489779Y-58724254D01*
X103489779Y-58719708D01*
X103489862Y-58718313D01*
X103491779Y-58702347D01*
X103494279Y-58681160D01*
X103494288Y-58681080D01*
X103494291Y-58681056D01*
X103496779Y-58659597D01*
X103499279Y-58637660D01*
X103501779Y-58615347D01*
X103504279Y-58592660D01*
X103506779Y-58569597D01*
X103509279Y-58546160D01*
X103509279Y-58546157D01*
X103511779Y-58522347D01*
X103511779Y-58522344D01*
X103511781Y-58522325D01*
X103513195Y-58508656D01*
X103517455Y-58500780D01*
X103524833Y-58498160D01*
X103753727Y-58498160D01*
X103762000Y-58501587D01*
G37*
%TD.AperFunction*%
%TD*%
%TA.AperFunction,Conductor*%
%TO.N,/D5*%
G36*
X102801005Y-39625703D02*
G01*
X102807527Y-39632553D01*
X102869567Y-39805341D01*
X102869905Y-39806457D01*
X102909865Y-39966252D01*
X102910071Y-39967259D01*
X102932304Y-40108169D01*
X102932385Y-40108789D01*
X102945127Y-40235881D01*
X102956591Y-40353788D01*
X102975024Y-40467039D01*
X103008706Y-40580466D01*
X103065916Y-40698903D01*
X103154933Y-40827184D01*
X103155187Y-40827465D01*
X103276585Y-40961890D01*
X103279587Y-40970327D01*
X103276175Y-40978005D01*
X103115125Y-41139055D01*
X103106852Y-41142482D01*
X103099010Y-41139465D01*
X102964585Y-41018067D01*
X102964304Y-41017813D01*
X102836023Y-40928796D01*
X102835607Y-40928595D01*
X102718011Y-40871791D01*
X102718008Y-40871790D01*
X102717586Y-40871586D01*
X102717140Y-40871454D01*
X102717136Y-40871452D01*
X102640766Y-40848774D01*
X102604159Y-40837904D01*
X102540023Y-40827465D01*
X102491101Y-40819502D01*
X102491089Y-40819500D01*
X102490908Y-40819471D01*
X102476150Y-40818036D01*
X102373036Y-40808010D01*
X102373001Y-40808007D01*
X102245909Y-40795265D01*
X102245289Y-40795184D01*
X102104379Y-40772951D01*
X102103378Y-40772746D01*
X101943573Y-40732784D01*
X101942465Y-40732448D01*
X101879077Y-40709689D01*
X101769673Y-40670407D01*
X101763045Y-40664386D01*
X101762812Y-40654930D01*
X101793380Y-40580891D01*
X102061718Y-39930946D01*
X102068066Y-39924598D01*
X102792051Y-39625692D01*
X102801005Y-39625703D01*
G37*
%TD.AperFunction*%
%TD*%
%TA.AperFunction,Conductor*%
%TO.N,VCC*%
G36*
X105691842Y-57869728D02*
G01*
X105812259Y-57919027D01*
X105884758Y-57948709D01*
X105891142Y-57955078D01*
X105913623Y-58009613D01*
X105968831Y-58143535D01*
X105970703Y-58148077D01*
X105970688Y-58157032D01*
X105963815Y-58163557D01*
X105941580Y-58171483D01*
X105940655Y-58171770D01*
X105908895Y-58180208D01*
X105908359Y-58180336D01*
X105878361Y-58186805D01*
X105878340Y-58186801D01*
X105878342Y-58186809D01*
X105850682Y-58192721D01*
X105826087Y-58199491D01*
X105825705Y-58199656D01*
X105825702Y-58199657D01*
X105805639Y-58208320D01*
X105804993Y-58208599D01*
X105787831Y-58221526D01*
X105775036Y-58239749D01*
X105767041Y-58264750D01*
X105766986Y-58265415D01*
X105765171Y-58287275D01*
X105761071Y-58295236D01*
X105753511Y-58298007D01*
X105526414Y-58298007D01*
X105518141Y-58294580D01*
X105514722Y-58285881D01*
X105516543Y-58235880D01*
X105516632Y-58234802D01*
X105523055Y-58185234D01*
X105523309Y-58183893D01*
X105533428Y-58143535D01*
X105533886Y-58142106D01*
X105547312Y-58107895D01*
X105547861Y-58106698D01*
X105564380Y-58075471D01*
X105564787Y-58074763D01*
X105584200Y-58043552D01*
X105584308Y-58043382D01*
X105606125Y-58009613D01*
X105606178Y-58009531D01*
X105629953Y-57970438D01*
X105630018Y-57970317D01*
X105630027Y-57970301D01*
X105655076Y-57923527D01*
X105655166Y-57923359D01*
X105676753Y-57875726D01*
X105683290Y-57869606D01*
X105691842Y-57869728D01*
G37*
%TD.AperFunction*%
%TD*%
%TA.AperFunction,Conductor*%
%TO.N,/A2*%
G36*
X109149101Y-46621717D02*
G01*
X109150721Y-46625628D01*
X109284898Y-47252682D01*
X109285141Y-47255747D01*
X109284280Y-47272061D01*
X109284280Y-47276620D01*
X109284643Y-47288825D01*
X109284726Y-47290220D01*
X109285696Y-47301031D01*
X109285662Y-47303443D01*
X109284279Y-47315160D01*
X109281779Y-47336722D01*
X109279279Y-47358660D01*
X109276779Y-47380972D01*
X109274279Y-47403660D01*
X109271779Y-47426722D01*
X109269279Y-47450160D01*
X109269279Y-47450163D01*
X109266779Y-47473972D01*
X109265365Y-47487662D01*
X109261106Y-47495539D01*
X109253727Y-47498160D01*
X109024833Y-47498160D01*
X109016560Y-47494733D01*
X109013195Y-47487664D01*
X109011779Y-47473973D01*
X109011779Y-47473972D01*
X109009279Y-47450160D01*
X109006779Y-47426722D01*
X109006771Y-47426645D01*
X109004279Y-47403660D01*
X109001779Y-47380972D01*
X108999279Y-47358660D01*
X108996779Y-47336722D01*
X108994279Y-47315160D01*
X108991779Y-47293972D01*
X108989863Y-47278015D01*
X108989780Y-47276620D01*
X108989780Y-47272061D01*
X108990039Y-47269613D01*
X109127839Y-46625628D01*
X109132921Y-46618255D01*
X109141728Y-46616635D01*
X109149101Y-46621717D01*
G37*
%TD.AperFunction*%
%TD*%
%TA.AperFunction,Conductor*%
%TO.N,/D2*%
G36*
X106762291Y-45703472D02*
G01*
X106765618Y-45710218D01*
X106766779Y-45719044D01*
X106769279Y-45737668D01*
X106771779Y-45755916D01*
X106774279Y-45773791D01*
X106776779Y-45791290D01*
X106779279Y-45808414D01*
X106781771Y-45825111D01*
X106781779Y-45825163D01*
X106784279Y-45841537D01*
X106786767Y-45857462D01*
X106786774Y-45857505D01*
X106786779Y-45857536D01*
X106788633Y-45869119D01*
X106788780Y-45870968D01*
X106788780Y-45874259D01*
X106788521Y-45876707D01*
X106650721Y-46520692D01*
X106645639Y-46528065D01*
X106636832Y-46529685D01*
X106629459Y-46524603D01*
X106627839Y-46520692D01*
X106490038Y-45876702D01*
X106489779Y-45874254D01*
X106489779Y-45870969D01*
X106489926Y-45869121D01*
X106491779Y-45857536D01*
X106491791Y-45857461D01*
X106494279Y-45841537D01*
X106496779Y-45825163D01*
X106496787Y-45825111D01*
X106499279Y-45808414D01*
X106501779Y-45791290D01*
X106504279Y-45773791D01*
X106506779Y-45755916D01*
X106509279Y-45737668D01*
X106511779Y-45719044D01*
X106512941Y-45710218D01*
X106517419Y-45702463D01*
X106524541Y-45700045D01*
X106754018Y-45700045D01*
X106762291Y-45703472D01*
G37*
%TD.AperFunction*%
%TD*%
%TA.AperFunction,Conductor*%
%TO.N,VCC*%
G36*
X104762000Y-58501587D02*
G01*
X104765365Y-58508658D01*
X104766779Y-58522347D01*
X104769279Y-58546157D01*
X104769279Y-58546160D01*
X104771779Y-58569597D01*
X104774279Y-58592660D01*
X104776779Y-58615347D01*
X104779279Y-58637660D01*
X104781779Y-58659597D01*
X104784267Y-58681056D01*
X104784270Y-58681080D01*
X104784279Y-58681160D01*
X104785661Y-58692873D01*
X104785695Y-58695289D01*
X104784739Y-58705957D01*
X104784725Y-58706108D01*
X104784642Y-58707503D01*
X104784279Y-58719708D01*
X104784279Y-58724254D01*
X104784287Y-58724400D01*
X104785140Y-58740577D01*
X104784897Y-58743641D01*
X104650721Y-59370692D01*
X104645639Y-59378065D01*
X104636832Y-59379685D01*
X104629459Y-59374603D01*
X104627839Y-59370692D01*
X104490038Y-58726702D01*
X104489779Y-58724254D01*
X104489779Y-58719708D01*
X104489862Y-58718313D01*
X104491779Y-58702347D01*
X104494279Y-58681160D01*
X104494288Y-58681080D01*
X104494291Y-58681056D01*
X104496779Y-58659597D01*
X104499279Y-58637660D01*
X104501779Y-58615347D01*
X104504279Y-58592660D01*
X104506779Y-58569597D01*
X104509279Y-58546160D01*
X104509279Y-58546157D01*
X104511779Y-58522347D01*
X104511779Y-58522344D01*
X104511781Y-58522325D01*
X104513195Y-58508656D01*
X104517455Y-58500780D01*
X104524833Y-58498160D01*
X104753727Y-58498160D01*
X104762000Y-58501587D01*
G37*
%TD.AperFunction*%
%TD*%
%TA.AperFunction,Conductor*%
%TO.N,/MA1*%
G36*
X102762000Y-58501587D02*
G01*
X102765365Y-58508658D01*
X102766779Y-58522347D01*
X102769279Y-58546157D01*
X102769279Y-58546160D01*
X102771779Y-58569597D01*
X102774279Y-58592660D01*
X102776779Y-58615347D01*
X102779279Y-58637660D01*
X102781779Y-58659597D01*
X102784267Y-58681056D01*
X102784270Y-58681080D01*
X102784279Y-58681160D01*
X102785661Y-58692873D01*
X102785695Y-58695289D01*
X102784739Y-58705957D01*
X102784725Y-58706108D01*
X102784642Y-58707503D01*
X102784279Y-58719708D01*
X102784279Y-58724254D01*
X102784287Y-58724400D01*
X102785140Y-58740577D01*
X102784897Y-58743641D01*
X102650721Y-59370692D01*
X102645639Y-59378065D01*
X102636832Y-59379685D01*
X102629459Y-59374603D01*
X102627839Y-59370692D01*
X102493662Y-58743638D01*
X102493419Y-58740573D01*
X102494272Y-58724403D01*
X102494280Y-58724259D01*
X102494280Y-58719696D01*
X102493909Y-58707353D01*
X102493825Y-58705957D01*
X102492864Y-58695287D01*
X102492898Y-58692866D01*
X102494279Y-58681160D01*
X102494288Y-58681080D01*
X102494291Y-58681056D01*
X102496779Y-58659597D01*
X102499279Y-58637660D01*
X102501779Y-58615347D01*
X102504279Y-58592660D01*
X102506779Y-58569597D01*
X102509279Y-58546160D01*
X102509279Y-58546157D01*
X102511779Y-58522347D01*
X102511779Y-58522344D01*
X102511781Y-58522325D01*
X102513195Y-58508656D01*
X102517455Y-58500780D01*
X102524833Y-58498160D01*
X102753727Y-58498160D01*
X102762000Y-58501587D01*
G37*
%TD.AperFunction*%
%TD*%
%TA.AperFunction,Conductor*%
%TO.N,Net-(U1-Pad30)*%
G36*
X103149101Y-46621717D02*
G01*
X103150721Y-46625628D01*
X103288522Y-47269618D01*
X103288781Y-47272066D01*
X103288781Y-47276616D01*
X103288697Y-47278012D01*
X103286779Y-47293970D01*
X103286779Y-47293972D01*
X103286776Y-47293995D01*
X103284279Y-47315160D01*
X103281779Y-47336722D01*
X103279279Y-47358660D01*
X103276779Y-47380972D01*
X103274279Y-47403660D01*
X103271779Y-47426722D01*
X103269279Y-47450160D01*
X103269279Y-47450163D01*
X103266779Y-47473972D01*
X103265365Y-47487662D01*
X103261106Y-47495539D01*
X103253727Y-47498160D01*
X103024833Y-47498160D01*
X103016560Y-47494733D01*
X103013195Y-47487664D01*
X103011779Y-47473973D01*
X103011779Y-47473972D01*
X103009279Y-47450160D01*
X103006779Y-47426722D01*
X103006771Y-47426645D01*
X103004279Y-47403660D01*
X103001779Y-47380972D01*
X102999279Y-47358660D01*
X102996779Y-47336722D01*
X102994279Y-47315160D01*
X102992898Y-47303456D01*
X102992864Y-47301035D01*
X102993821Y-47290409D01*
X102993826Y-47290355D01*
X102993910Y-47288959D01*
X102994281Y-47276616D01*
X102994281Y-47272066D01*
X102993420Y-47255743D01*
X102993663Y-47252679D01*
X103127839Y-46625628D01*
X103132921Y-46618255D01*
X103141728Y-46616635D01*
X103149101Y-46621717D01*
G37*
%TD.AperFunction*%
%TD*%
%TA.AperFunction,Conductor*%
%TO.N,/MA3*%
G36*
X102149101Y-59471717D02*
G01*
X102150721Y-59475628D01*
X102288522Y-60119618D01*
X102288781Y-60122066D01*
X102288781Y-60126616D01*
X102288697Y-60128012D01*
X102286779Y-60143970D01*
X102286779Y-60143972D01*
X102286776Y-60143995D01*
X102284279Y-60165160D01*
X102281779Y-60186722D01*
X102279279Y-60208660D01*
X102276779Y-60230972D01*
X102274279Y-60253660D01*
X102271779Y-60276722D01*
X102269279Y-60300160D01*
X102269279Y-60300163D01*
X102266779Y-60323972D01*
X102265365Y-60337662D01*
X102261106Y-60345539D01*
X102253727Y-60348160D01*
X102024833Y-60348160D01*
X102016560Y-60344733D01*
X102013195Y-60337664D01*
X102011779Y-60323973D01*
X102011779Y-60323972D01*
X102009279Y-60300160D01*
X102006779Y-60276722D01*
X102006771Y-60276645D01*
X102004279Y-60253660D01*
X102001779Y-60230972D01*
X101999279Y-60208660D01*
X101996779Y-60186722D01*
X101994279Y-60165160D01*
X101991779Y-60143972D01*
X101991779Y-60143970D01*
X101989512Y-60125093D01*
X101989688Y-60121252D01*
X102127839Y-59475628D01*
X102132921Y-59468255D01*
X102141728Y-59466635D01*
X102149101Y-59471717D01*
G37*
%TD.AperFunction*%
%TD*%
%TA.AperFunction,Conductor*%
%TO.N,/D4*%
G36*
X105262000Y-45651587D02*
G01*
X105265365Y-45658658D01*
X105266779Y-45672347D01*
X105269279Y-45696157D01*
X105269279Y-45696160D01*
X105271779Y-45719597D01*
X105274279Y-45742660D01*
X105276779Y-45765347D01*
X105279279Y-45787660D01*
X105281779Y-45809597D01*
X105284267Y-45831056D01*
X105284270Y-45831080D01*
X105284279Y-45831160D01*
X105286776Y-45852324D01*
X105286779Y-45852347D01*
X105286779Y-45852349D01*
X105288696Y-45868300D01*
X105288780Y-45869696D01*
X105288780Y-45874259D01*
X105288521Y-45876707D01*
X105150721Y-46520692D01*
X105145639Y-46528065D01*
X105136832Y-46529685D01*
X105129459Y-46524603D01*
X105127839Y-46520692D01*
X104990038Y-45876702D01*
X104989779Y-45874254D01*
X104989779Y-45869708D01*
X104989862Y-45868313D01*
X104991779Y-45852347D01*
X104994279Y-45831160D01*
X104994288Y-45831080D01*
X104994291Y-45831056D01*
X104996779Y-45809597D01*
X104999279Y-45787660D01*
X105001779Y-45765347D01*
X105004279Y-45742660D01*
X105006779Y-45719597D01*
X105009279Y-45696160D01*
X105009279Y-45696157D01*
X105011779Y-45672347D01*
X105011779Y-45672344D01*
X105011781Y-45672325D01*
X105013195Y-45658656D01*
X105017455Y-45650780D01*
X105024833Y-45648160D01*
X105253727Y-45648160D01*
X105262000Y-45651587D01*
G37*
%TD.AperFunction*%
%TD*%
%TA.AperFunction,Conductor*%
%TO.N,/D5*%
G36*
X104762000Y-45651587D02*
G01*
X104765365Y-45658658D01*
X104766779Y-45672347D01*
X104769279Y-45696157D01*
X104769279Y-45696160D01*
X104771779Y-45719597D01*
X104774279Y-45742660D01*
X104776779Y-45765347D01*
X104779279Y-45787660D01*
X104781779Y-45809597D01*
X104784267Y-45831056D01*
X104784270Y-45831080D01*
X104784279Y-45831160D01*
X104785661Y-45842873D01*
X104785695Y-45845289D01*
X104784739Y-45855957D01*
X104784725Y-45856108D01*
X104784642Y-45857503D01*
X104784279Y-45869708D01*
X104784279Y-45874254D01*
X104784287Y-45874400D01*
X104785140Y-45890577D01*
X104784897Y-45893641D01*
X104650721Y-46520692D01*
X104645639Y-46528065D01*
X104636832Y-46529685D01*
X104629459Y-46524603D01*
X104627839Y-46520692D01*
X104490038Y-45876702D01*
X104489779Y-45874254D01*
X104489779Y-45869708D01*
X104489862Y-45868313D01*
X104491779Y-45852347D01*
X104494279Y-45831160D01*
X104494288Y-45831080D01*
X104494291Y-45831056D01*
X104496779Y-45809597D01*
X104499279Y-45787660D01*
X104501779Y-45765347D01*
X104504279Y-45742660D01*
X104506779Y-45719597D01*
X104509279Y-45696160D01*
X104509279Y-45696157D01*
X104511779Y-45672347D01*
X104511779Y-45672344D01*
X104511781Y-45672325D01*
X104513195Y-45658656D01*
X104517455Y-45650780D01*
X104524833Y-45648160D01*
X104753727Y-45648160D01*
X104762000Y-45651587D01*
G37*
%TD.AperFunction*%
%TD*%
%TA.AperFunction,Conductor*%
%TO.N,/MA4*%
G36*
X104335328Y-53120197D02*
G01*
X104354286Y-53128702D01*
X104354879Y-53128988D01*
X104379032Y-53141548D01*
X104379467Y-53141788D01*
X104399666Y-53153507D01*
X104399862Y-53153623D01*
X104417593Y-53164377D01*
X104417613Y-53164389D01*
X104417671Y-53164424D01*
X104417730Y-53164458D01*
X104417752Y-53164471D01*
X104434198Y-53173948D01*
X104434384Y-53174055D01*
X104434569Y-53174145D01*
X104434577Y-53174149D01*
X104444807Y-53179113D01*
X104451372Y-53182299D01*
X104470096Y-53188994D01*
X104470437Y-53189072D01*
X104470442Y-53189073D01*
X104491716Y-53193910D01*
X104491720Y-53193911D01*
X104492016Y-53193978D01*
X104492312Y-53194013D01*
X104492320Y-53194014D01*
X104505215Y-53195522D01*
X104518590Y-53197087D01*
X104530005Y-53197462D01*
X104539964Y-53197789D01*
X104548120Y-53201486D01*
X104551280Y-53209483D01*
X104551280Y-53436837D01*
X104547853Y-53445110D01*
X104539964Y-53448531D01*
X104536583Y-53448642D01*
X104518590Y-53449232D01*
X104518374Y-53449257D01*
X104518364Y-53449258D01*
X104492320Y-53452305D01*
X104492312Y-53452306D01*
X104492016Y-53452341D01*
X104491723Y-53452408D01*
X104491715Y-53452409D01*
X104470442Y-53457245D01*
X104470437Y-53457247D01*
X104470096Y-53457324D01*
X104451372Y-53464019D01*
X104434384Y-53472264D01*
X104434217Y-53472361D01*
X104434208Y-53472365D01*
X104417671Y-53481894D01*
X104417600Y-53481936D01*
X104399840Y-53492709D01*
X104399674Y-53492808D01*
X104379467Y-53504530D01*
X104378994Y-53504790D01*
X104354895Y-53517322D01*
X104354289Y-53517616D01*
X104335328Y-53526123D01*
X104326377Y-53526383D01*
X104319748Y-53519970D01*
X104318639Y-53517322D01*
X104239175Y-53327682D01*
X104239175Y-53318638D01*
X104266665Y-53253033D01*
X104319749Y-53126349D01*
X104326106Y-53120044D01*
X104335328Y-53120197D01*
G37*
%TD.AperFunction*%
%TD*%
%TA.AperFunction,Conductor*%
%TO.N,VCC*%
G36*
X105762000Y-58501587D02*
G01*
X105765365Y-58508658D01*
X105766779Y-58522347D01*
X105769279Y-58546157D01*
X105769279Y-58546160D01*
X105771779Y-58569597D01*
X105774279Y-58592660D01*
X105776779Y-58615347D01*
X105779279Y-58637660D01*
X105781779Y-58659597D01*
X105784267Y-58681056D01*
X105784270Y-58681080D01*
X105784279Y-58681160D01*
X105786776Y-58702324D01*
X105786779Y-58702347D01*
X105786779Y-58702349D01*
X105788696Y-58718300D01*
X105788780Y-58719696D01*
X105788780Y-58724259D01*
X105788521Y-58726707D01*
X105650721Y-59370692D01*
X105645639Y-59378065D01*
X105636832Y-59379685D01*
X105629459Y-59374603D01*
X105627839Y-59370692D01*
X105493662Y-58743638D01*
X105493419Y-58740573D01*
X105494280Y-58724259D01*
X105494280Y-58719696D01*
X105493909Y-58707353D01*
X105493825Y-58705957D01*
X105492864Y-58695287D01*
X105492898Y-58692866D01*
X105494279Y-58681160D01*
X105494288Y-58681080D01*
X105494291Y-58681056D01*
X105496779Y-58659597D01*
X105499279Y-58637660D01*
X105501779Y-58615347D01*
X105504279Y-58592660D01*
X105506779Y-58569597D01*
X105509279Y-58546160D01*
X105509279Y-58546157D01*
X105511779Y-58522347D01*
X105511779Y-58522344D01*
X105511781Y-58522325D01*
X105513195Y-58508656D01*
X105517455Y-58500780D01*
X105524833Y-58498160D01*
X105753727Y-58498160D01*
X105762000Y-58501587D01*
G37*
%TD.AperFunction*%
%TD*%
%TA.AperFunction,Conductor*%
%TO.N,/~{OE}*%
G36*
X102262000Y-45651587D02*
G01*
X102265365Y-45658658D01*
X102266779Y-45672347D01*
X102269279Y-45696157D01*
X102269279Y-45696160D01*
X102271779Y-45719597D01*
X102274279Y-45742660D01*
X102276779Y-45765347D01*
X102279279Y-45787660D01*
X102281779Y-45809597D01*
X102284267Y-45831056D01*
X102284270Y-45831080D01*
X102284279Y-45831160D01*
X102286776Y-45852324D01*
X102286779Y-45852347D01*
X102286779Y-45852349D01*
X102288696Y-45868300D01*
X102288780Y-45869696D01*
X102288780Y-45874259D01*
X102288521Y-45876707D01*
X102150721Y-46520692D01*
X102145639Y-46528065D01*
X102136832Y-46529685D01*
X102129459Y-46524603D01*
X102127839Y-46520692D01*
X101989688Y-45875068D01*
X101989512Y-45871225D01*
X101989864Y-45868300D01*
X101991779Y-45852347D01*
X101994279Y-45831160D01*
X101996779Y-45809597D01*
X101999279Y-45787660D01*
X102001779Y-45765347D01*
X102004279Y-45742660D01*
X102006779Y-45719597D01*
X102009279Y-45696160D01*
X102011779Y-45672347D01*
X102012441Y-45665948D01*
X102013195Y-45658656D01*
X102017455Y-45650780D01*
X102024833Y-45648160D01*
X102253727Y-45648160D01*
X102262000Y-45651587D01*
G37*
%TD.AperFunction*%
%TD*%
%TA.AperFunction,Conductor*%
%TO.N,/MA2*%
G36*
X102760991Y-47326762D02*
G01*
X102764417Y-47334896D01*
X102764895Y-47375208D01*
X102764982Y-47382586D01*
X102766888Y-47431342D01*
X102769697Y-47472228D01*
X102773107Y-47507867D01*
X102776819Y-47540883D01*
X102778446Y-47555349D01*
X102780521Y-47573806D01*
X102780541Y-47573999D01*
X102783928Y-47609405D01*
X102783953Y-47609717D01*
X102786737Y-47650237D01*
X102786756Y-47650582D01*
X102788650Y-47699025D01*
X102788658Y-47699343D01*
X102789219Y-47746645D01*
X102785891Y-47754958D01*
X102777572Y-47758484D01*
X102566738Y-47759421D01*
X102562164Y-47758512D01*
X102499976Y-47732454D01*
X102367717Y-47677034D01*
X102361412Y-47670677D01*
X102361639Y-47661294D01*
X102378487Y-47625215D01*
X102378983Y-47624268D01*
X102400800Y-47586884D01*
X102401299Y-47586102D01*
X102422729Y-47555342D01*
X102423067Y-47554882D01*
X102443688Y-47528202D01*
X102462745Y-47503451D01*
X102462864Y-47503297D01*
X102479842Y-47477954D01*
X102494047Y-47449731D01*
X102504904Y-47416182D01*
X102511840Y-47374865D01*
X102513752Y-47334482D01*
X102517566Y-47326380D01*
X102525439Y-47323335D01*
X102752718Y-47323335D01*
X102760991Y-47326762D01*
G37*
%TD.AperFunction*%
%TD*%
%TA.AperFunction,Conductor*%
%TO.N,/MA6*%
G36*
X107149101Y-59471717D02*
G01*
X107150721Y-59475628D01*
X107288522Y-60119618D01*
X107288781Y-60122066D01*
X107288781Y-60126616D01*
X107288697Y-60128012D01*
X107286779Y-60143970D01*
X107286779Y-60143972D01*
X107286776Y-60143995D01*
X107284279Y-60165160D01*
X107281779Y-60186722D01*
X107279279Y-60208660D01*
X107276779Y-60230972D01*
X107274279Y-60253660D01*
X107271779Y-60276722D01*
X107269279Y-60300160D01*
X107269279Y-60300163D01*
X107266779Y-60323972D01*
X107265365Y-60337662D01*
X107261106Y-60345539D01*
X107253727Y-60348160D01*
X107024833Y-60348160D01*
X107016560Y-60344733D01*
X107013195Y-60337664D01*
X107011779Y-60323973D01*
X107011779Y-60323972D01*
X107009279Y-60300160D01*
X107006779Y-60276722D01*
X107006771Y-60276645D01*
X107004279Y-60253660D01*
X107001779Y-60230972D01*
X106999279Y-60208660D01*
X106996779Y-60186722D01*
X106994279Y-60165160D01*
X106991779Y-60143972D01*
X106989863Y-60128015D01*
X106989780Y-60126620D01*
X106989780Y-60122061D01*
X106990039Y-60119613D01*
X107127839Y-59475628D01*
X107132921Y-59468255D01*
X107141728Y-59466635D01*
X107149101Y-59471717D01*
G37*
%TD.AperFunction*%
%TD*%
%TA.AperFunction,Conductor*%
%TO.N,/MA6*%
G36*
X104335351Y-54420255D02*
G01*
X104352795Y-54428158D01*
X104353476Y-54428493D01*
X104376281Y-54440693D01*
X104376791Y-54440985D01*
X104395835Y-54452550D01*
X104396095Y-54452712D01*
X104412823Y-54463496D01*
X104412870Y-54463525D01*
X104428369Y-54473141D01*
X104428381Y-54473148D01*
X104428544Y-54473249D01*
X104444528Y-54481680D01*
X104444827Y-54481797D01*
X104461841Y-54488454D01*
X104461844Y-54488455D01*
X104462184Y-54488588D01*
X104472547Y-54491178D01*
X104482588Y-54493688D01*
X104482596Y-54493689D01*
X104482922Y-54493771D01*
X104483260Y-54493815D01*
X104483262Y-54493815D01*
X104507885Y-54496995D01*
X104507892Y-54496996D01*
X104508151Y-54497029D01*
X104528006Y-54497750D01*
X104536148Y-54501475D01*
X104539280Y-54509442D01*
X104539280Y-54736877D01*
X104535853Y-54745150D01*
X104528005Y-54748569D01*
X104508424Y-54749280D01*
X104508422Y-54749280D01*
X104508151Y-54749290D01*
X104507890Y-54749324D01*
X104507886Y-54749324D01*
X104483262Y-54752503D01*
X104483260Y-54752503D01*
X104482922Y-54752547D01*
X104482593Y-54752629D01*
X104482589Y-54752630D01*
X104462552Y-54757639D01*
X104462184Y-54757731D01*
X104444528Y-54764638D01*
X104444243Y-54764788D01*
X104444235Y-54764792D01*
X104428718Y-54772977D01*
X104428544Y-54773069D01*
X104428381Y-54773170D01*
X104428369Y-54773177D01*
X104416246Y-54780699D01*
X104412823Y-54782823D01*
X104412783Y-54782849D01*
X104396085Y-54793613D01*
X104395818Y-54793780D01*
X104376798Y-54805329D01*
X104376259Y-54805637D01*
X104353464Y-54817832D01*
X104352806Y-54818157D01*
X104348892Y-54819930D01*
X104335350Y-54826065D01*
X104326400Y-54826358D01*
X104319732Y-54819931D01*
X104239175Y-54627682D01*
X104239175Y-54618638D01*
X104319732Y-54426390D01*
X104326090Y-54420084D01*
X104335351Y-54420255D01*
G37*
%TD.AperFunction*%
%TD*%
%TA.AperFunction,Conductor*%
%TO.N,/MA3*%
G36*
X104156831Y-50526397D02*
G01*
X104237385Y-50718638D01*
X104237385Y-50727682D01*
X104156831Y-50919923D01*
X104150473Y-50926229D01*
X104141206Y-50926055D01*
X104123999Y-50918246D01*
X104123331Y-50917917D01*
X104100763Y-50905783D01*
X104100198Y-50905458D01*
X104092369Y-50900666D01*
X104081351Y-50893923D01*
X104081137Y-50893788D01*
X104064543Y-50882977D01*
X104048988Y-50873203D01*
X104033172Y-50864741D01*
X104015694Y-50857798D01*
X104015325Y-50857704D01*
X104015318Y-50857702D01*
X104000390Y-50853912D01*
X103995153Y-50852582D01*
X103970149Y-50849300D01*
X103954613Y-50848726D01*
X103950548Y-50848576D01*
X103942407Y-50844846D01*
X103939280Y-50836884D01*
X103939280Y-50609436D01*
X103942707Y-50601163D01*
X103950548Y-50597744D01*
X103969865Y-50597030D01*
X103969875Y-50597029D01*
X103970149Y-50597019D01*
X103995153Y-50593737D01*
X104000390Y-50592407D01*
X104015318Y-50588617D01*
X104015325Y-50588615D01*
X104015694Y-50588521D01*
X104033172Y-50581578D01*
X104048988Y-50573115D01*
X104064543Y-50563342D01*
X104081137Y-50552531D01*
X104081351Y-50552396D01*
X104092369Y-50545653D01*
X104100198Y-50540861D01*
X104100766Y-50540535D01*
X104123307Y-50528416D01*
X104124012Y-50528067D01*
X104141205Y-50520265D01*
X104150155Y-50519967D01*
X104156831Y-50526397D01*
G37*
%TD.AperFunction*%
%TD*%
%TA.AperFunction,Conductor*%
%TO.N,/A6*%
G36*
X108762000Y-58501587D02*
G01*
X108765365Y-58508658D01*
X108766779Y-58522347D01*
X108769279Y-58546157D01*
X108769279Y-58546160D01*
X108771779Y-58569597D01*
X108774279Y-58592660D01*
X108776779Y-58615347D01*
X108779279Y-58637660D01*
X108781779Y-58659597D01*
X108784267Y-58681056D01*
X108784270Y-58681080D01*
X108784279Y-58681160D01*
X108785661Y-58692873D01*
X108785695Y-58695288D01*
X108784725Y-58706108D01*
X108784642Y-58707503D01*
X108784279Y-58719708D01*
X108784279Y-58724254D01*
X108784287Y-58724400D01*
X108785140Y-58740577D01*
X108784897Y-58743641D01*
X108650721Y-59370692D01*
X108645639Y-59378065D01*
X108636832Y-59379685D01*
X108629459Y-59374603D01*
X108627839Y-59370692D01*
X108490038Y-58726702D01*
X108489779Y-58724254D01*
X108489779Y-58719708D01*
X108489862Y-58718313D01*
X108491779Y-58702347D01*
X108494279Y-58681160D01*
X108494288Y-58681080D01*
X108494291Y-58681056D01*
X108496779Y-58659597D01*
X108499279Y-58637660D01*
X108501779Y-58615347D01*
X108504279Y-58592660D01*
X108506779Y-58569597D01*
X108509279Y-58546160D01*
X108509279Y-58546157D01*
X108511779Y-58522347D01*
X108511779Y-58522344D01*
X108511781Y-58522325D01*
X108513195Y-58508656D01*
X108517455Y-58500780D01*
X108524833Y-58498160D01*
X108753727Y-58498160D01*
X108762000Y-58501587D01*
G37*
%TD.AperFunction*%
%TD*%
%TA.AperFunction,Conductor*%
%TO.N,/D6*%
G36*
X104277991Y-44484308D02*
G01*
X104286249Y-44487772D01*
X104289638Y-44496149D01*
X104289068Y-44543449D01*
X104289060Y-44543773D01*
X104287135Y-44592211D01*
X104287116Y-44592561D01*
X104284281Y-44633141D01*
X104284254Y-44633459D01*
X104280810Y-44668854D01*
X104280789Y-44669049D01*
X104277030Y-44701950D01*
X104273256Y-44734970D01*
X104273247Y-44735059D01*
X104273244Y-44735090D01*
X104272794Y-44739719D01*
X104269787Y-44770614D01*
X104266932Y-44811508D01*
X104264994Y-44860275D01*
X104264994Y-44860308D01*
X104264993Y-44860327D01*
X104264419Y-44907982D01*
X104260893Y-44916213D01*
X104252720Y-44919541D01*
X104025441Y-44919541D01*
X104017168Y-44916114D01*
X104013754Y-44908392D01*
X104011867Y-44868366D01*
X104011851Y-44868018D01*
X104010558Y-44860275D01*
X104005017Y-44827120D01*
X104005015Y-44827114D01*
X104004946Y-44826698D01*
X103994134Y-44793138D01*
X103979985Y-44764898D01*
X103963068Y-44739536D01*
X103943953Y-44714612D01*
X103923378Y-44687902D01*
X103923047Y-44687449D01*
X103901671Y-44656688D01*
X103901170Y-44655901D01*
X103879385Y-44618510D01*
X103878892Y-44617568D01*
X103862057Y-44581497D01*
X103861663Y-44572551D01*
X103868136Y-44565759D01*
X103983278Y-44517511D01*
X104062585Y-44484280D01*
X104067159Y-44483371D01*
X104277991Y-44484308D01*
G37*
%TD.AperFunction*%
%TD*%
%TA.AperFunction,Conductor*%
%TO.N,/D0*%
G36*
X107649001Y-46625965D02*
G01*
X107650758Y-46630206D01*
X107783032Y-47299136D01*
X107782827Y-47304537D01*
X107781641Y-47308803D01*
X107781628Y-47308854D01*
X107781619Y-47308886D01*
X107779714Y-47316111D01*
X107779712Y-47316120D01*
X107779699Y-47316173D01*
X107777783Y-47323812D01*
X107777781Y-47323821D01*
X107775854Y-47331880D01*
X107775838Y-47331948D01*
X107773925Y-47340322D01*
X107771996Y-47349140D01*
X107770067Y-47358332D01*
X107768138Y-47367899D01*
X107768125Y-47367966D01*
X107766209Y-47377842D01*
X107766207Y-47377848D01*
X107766208Y-47377848D01*
X107766064Y-47378616D01*
X107761171Y-47386116D01*
X107754564Y-47388160D01*
X107523995Y-47388160D01*
X107515722Y-47384733D01*
X107512495Y-47378613D01*
X107512352Y-47377851D01*
X107512350Y-47377842D01*
X107510421Y-47367899D01*
X107508492Y-47358332D01*
X107508488Y-47358314D01*
X107508483Y-47358291D01*
X107506563Y-47349140D01*
X107504634Y-47340322D01*
X107502705Y-47331880D01*
X107500776Y-47323812D01*
X107498860Y-47316173D01*
X107498847Y-47316120D01*
X107496918Y-47308803D01*
X107495733Y-47304538D01*
X107495528Y-47299136D01*
X107627802Y-46630206D01*
X107632769Y-46622755D01*
X107641550Y-46620998D01*
X107649001Y-46625965D01*
G37*
%TD.AperFunction*%
%TD*%
%TA.AperFunction,Conductor*%
%TO.N,/MA0*%
G36*
X104994942Y-73379587D02*
G01*
X104998369Y-73387770D01*
X104998672Y-73427039D01*
X105000043Y-73469111D01*
X105002683Y-73504470D01*
X105006884Y-73535213D01*
X105012937Y-73563434D01*
X105021131Y-73591229D01*
X105031759Y-73620693D01*
X105031796Y-73620784D01*
X105031801Y-73620797D01*
X105045112Y-73653922D01*
X105061477Y-73693006D01*
X105061479Y-73693011D01*
X105076642Y-73729269D01*
X105076673Y-73738224D01*
X105070370Y-73744574D01*
X104877802Y-73825265D01*
X104868758Y-73825265D01*
X104676190Y-73744574D01*
X104669884Y-73738216D01*
X104669918Y-73729269D01*
X104685078Y-73693016D01*
X104685080Y-73693011D01*
X104701447Y-73653922D01*
X104701469Y-73653867D01*
X104714763Y-73620784D01*
X104714774Y-73620755D01*
X104714799Y-73620693D01*
X104714819Y-73620637D01*
X104714828Y-73620614D01*
X104725372Y-73591382D01*
X104725374Y-73591377D01*
X104725427Y-73591229D01*
X104733622Y-73563434D01*
X104739675Y-73535213D01*
X104743876Y-73504470D01*
X104746516Y-73469111D01*
X104747887Y-73427039D01*
X104748190Y-73387769D01*
X104751681Y-73379523D01*
X104759890Y-73376160D01*
X104986669Y-73376160D01*
X104994942Y-73379587D01*
G37*
%TD.AperFunction*%
%TD*%
%TA.AperFunction,Conductor*%
%TO.N,/MA2*%
G36*
X102649101Y-46621717D02*
G01*
X102650721Y-46625628D01*
X102788522Y-47269618D01*
X102788781Y-47272066D01*
X102788781Y-47276616D01*
X102788697Y-47278012D01*
X102786779Y-47293970D01*
X102786779Y-47293972D01*
X102786776Y-47293995D01*
X102784279Y-47315160D01*
X102781779Y-47336722D01*
X102779279Y-47358660D01*
X102776779Y-47380972D01*
X102774279Y-47403660D01*
X102771779Y-47426722D01*
X102769279Y-47450160D01*
X102769279Y-47450163D01*
X102766779Y-47473972D01*
X102765365Y-47487662D01*
X102761106Y-47495539D01*
X102753727Y-47498160D01*
X102524833Y-47498160D01*
X102516560Y-47494733D01*
X102513195Y-47487664D01*
X102511779Y-47473973D01*
X102511779Y-47473972D01*
X102509279Y-47450160D01*
X102506779Y-47426722D01*
X102506771Y-47426645D01*
X102504279Y-47403660D01*
X102501779Y-47380972D01*
X102499279Y-47358660D01*
X102496779Y-47336722D01*
X102494279Y-47315160D01*
X102491779Y-47293972D01*
X102489863Y-47278015D01*
X102489780Y-47276620D01*
X102489780Y-47272061D01*
X102490039Y-47269613D01*
X102627839Y-46625628D01*
X102632921Y-46618255D01*
X102641728Y-46616635D01*
X102649101Y-46621717D01*
G37*
%TD.AperFunction*%
%TD*%
%TA.AperFunction,Conductor*%
%TO.N,/D2*%
G36*
X107332296Y-45054312D02*
G01*
X107362402Y-45126160D01*
X107412885Y-45246638D01*
X107412885Y-45255682D01*
X107333587Y-45444928D01*
X107332296Y-45448008D01*
X107325938Y-45454314D01*
X107316753Y-45454178D01*
X107296195Y-45445041D01*
X107295666Y-45444789D01*
X107270169Y-45431891D01*
X107269798Y-45431694D01*
X107248319Y-45419778D01*
X107248193Y-45419707D01*
X107229327Y-45408934D01*
X107229307Y-45408923D01*
X107229286Y-45408911D01*
X107211537Y-45399410D01*
X107193498Y-45391364D01*
X107193218Y-45391273D01*
X107193211Y-45391270D01*
X107181215Y-45387360D01*
X107173655Y-45384895D01*
X107150495Y-45380123D01*
X107150196Y-45380091D01*
X107150193Y-45380091D01*
X107130603Y-45378025D01*
X107122503Y-45377171D01*
X107108668Y-45376764D01*
X107099520Y-45376494D01*
X107091352Y-45372825D01*
X107088165Y-45364799D01*
X107088165Y-45137520D01*
X107091592Y-45129247D01*
X107099520Y-45125825D01*
X107108876Y-45125550D01*
X107122281Y-45125155D01*
X107122293Y-45125154D01*
X107122503Y-45125148D01*
X107122731Y-45125124D01*
X107150193Y-45122228D01*
X107150196Y-45122228D01*
X107150495Y-45122196D01*
X107158495Y-45120548D01*
X107173327Y-45117492D01*
X107173334Y-45117490D01*
X107173655Y-45117424D01*
X107193498Y-45110954D01*
X107211537Y-45102908D01*
X107229286Y-45093407D01*
X107248261Y-45082573D01*
X107269798Y-45070625D01*
X107270169Y-45070428D01*
X107295670Y-45057528D01*
X107296196Y-45057278D01*
X107316754Y-45048142D01*
X107325705Y-45047914D01*
X107332296Y-45054312D01*
G37*
%TD.AperFunction*%
%TD*%
%TA.AperFunction,Conductor*%
%TO.N,/MA7*%
G36*
X105262000Y-58501587D02*
G01*
X105265365Y-58508658D01*
X105266779Y-58522347D01*
X105269279Y-58546157D01*
X105269279Y-58546160D01*
X105271779Y-58569597D01*
X105274279Y-58592660D01*
X105276779Y-58615347D01*
X105279279Y-58637660D01*
X105281779Y-58659597D01*
X105284267Y-58681056D01*
X105284270Y-58681080D01*
X105284279Y-58681160D01*
X105286776Y-58702324D01*
X105286779Y-58702347D01*
X105286779Y-58702349D01*
X105288696Y-58718300D01*
X105288780Y-58719696D01*
X105288780Y-58724259D01*
X105288521Y-58726707D01*
X105150721Y-59370692D01*
X105145639Y-59378065D01*
X105136832Y-59379685D01*
X105129459Y-59374603D01*
X105127839Y-59370692D01*
X104990038Y-58726702D01*
X104989779Y-58724254D01*
X104989779Y-58719708D01*
X104989862Y-58718313D01*
X104991779Y-58702347D01*
X104994279Y-58681160D01*
X104994288Y-58681080D01*
X104994291Y-58681056D01*
X104996779Y-58659597D01*
X104999279Y-58637660D01*
X105001779Y-58615347D01*
X105004279Y-58592660D01*
X105006779Y-58569597D01*
X105009279Y-58546160D01*
X105009279Y-58546157D01*
X105011779Y-58522347D01*
X105011779Y-58522344D01*
X105011781Y-58522325D01*
X105013195Y-58508656D01*
X105017455Y-58500780D01*
X105024833Y-58498160D01*
X105253727Y-58498160D01*
X105262000Y-58501587D01*
G37*
%TD.AperFunction*%
%TD*%
%TA.AperFunction,Conductor*%
%TO.N,/MA3*%
G36*
X102262000Y-58501587D02*
G01*
X102265365Y-58508658D01*
X102266779Y-58522347D01*
X102269279Y-58546157D01*
X102269279Y-58546160D01*
X102271779Y-58569597D01*
X102274279Y-58592660D01*
X102276779Y-58615347D01*
X102279279Y-58637660D01*
X102281779Y-58659597D01*
X102284267Y-58681056D01*
X102284270Y-58681080D01*
X102284279Y-58681160D01*
X102286776Y-58702324D01*
X102286779Y-58702347D01*
X102286779Y-58702349D01*
X102288696Y-58718300D01*
X102288780Y-58719696D01*
X102288780Y-58724259D01*
X102288521Y-58726707D01*
X102150721Y-59370692D01*
X102145639Y-59378065D01*
X102136832Y-59379685D01*
X102129459Y-59374603D01*
X102127839Y-59370692D01*
X101989688Y-58725068D01*
X101989512Y-58721225D01*
X101989864Y-58718300D01*
X101991779Y-58702347D01*
X101994279Y-58681160D01*
X101996779Y-58659597D01*
X101999279Y-58637660D01*
X102001779Y-58615347D01*
X102004279Y-58592660D01*
X102006779Y-58569597D01*
X102009279Y-58546160D01*
X102011779Y-58522347D01*
X102012441Y-58515948D01*
X102013195Y-58508656D01*
X102017455Y-58500780D01*
X102024833Y-58498160D01*
X102253727Y-58498160D01*
X102262000Y-58501587D01*
G37*
%TD.AperFunction*%
%TD*%
%TA.AperFunction,Conductor*%
%TO.N,VCC*%
G36*
X104777991Y-58342108D02*
G01*
X104786249Y-58345572D01*
X104789638Y-58353949D01*
X104789068Y-58401249D01*
X104789060Y-58401573D01*
X104787135Y-58450011D01*
X104787116Y-58450361D01*
X104784281Y-58490941D01*
X104784254Y-58491259D01*
X104780810Y-58526654D01*
X104780789Y-58526849D01*
X104777030Y-58559750D01*
X104773256Y-58592770D01*
X104773247Y-58592859D01*
X104773244Y-58592890D01*
X104772794Y-58597516D01*
X104769787Y-58628414D01*
X104766932Y-58669308D01*
X104764994Y-58718075D01*
X104764994Y-58718108D01*
X104764993Y-58718127D01*
X104764419Y-58765782D01*
X104760893Y-58774013D01*
X104752720Y-58777341D01*
X104525441Y-58777341D01*
X104517168Y-58773914D01*
X104513754Y-58766192D01*
X104511867Y-58726166D01*
X104511851Y-58725818D01*
X104510558Y-58718075D01*
X104505017Y-58684920D01*
X104505015Y-58684914D01*
X104504946Y-58684498D01*
X104494134Y-58650938D01*
X104479985Y-58622698D01*
X104463068Y-58597336D01*
X104462945Y-58597176D01*
X104462936Y-58597163D01*
X104451487Y-58582235D01*
X104451043Y-58581615D01*
X104414450Y-58526849D01*
X104412904Y-58524536D01*
X104406813Y-58520466D01*
X104403705Y-58517415D01*
X104401671Y-58514488D01*
X104401170Y-58513701D01*
X104379385Y-58476310D01*
X104378892Y-58475368D01*
X104362057Y-58439297D01*
X104361663Y-58430351D01*
X104368136Y-58423559D01*
X104483278Y-58375311D01*
X104562585Y-58342080D01*
X104567159Y-58341171D01*
X104777991Y-58342108D01*
G37*
%TD.AperFunction*%
%TD*%
%TA.AperFunction,Conductor*%
%TO.N,/A3*%
G36*
X109649101Y-46621717D02*
G01*
X109650721Y-46625628D01*
X109788872Y-47271254D01*
X109789047Y-47275098D01*
X109786779Y-47293970D01*
X109786779Y-47293972D01*
X109786776Y-47293995D01*
X109784279Y-47315160D01*
X109781779Y-47336722D01*
X109779279Y-47358660D01*
X109776779Y-47380972D01*
X109774279Y-47403660D01*
X109771779Y-47426722D01*
X109769279Y-47450160D01*
X109769279Y-47450163D01*
X109766779Y-47473972D01*
X109765365Y-47487662D01*
X109761106Y-47495539D01*
X109753727Y-47498160D01*
X109524833Y-47498160D01*
X109516560Y-47494733D01*
X109513195Y-47487664D01*
X109511779Y-47473973D01*
X109511779Y-47473972D01*
X109509279Y-47450160D01*
X109506779Y-47426722D01*
X109506771Y-47426645D01*
X109504279Y-47403660D01*
X109501779Y-47380972D01*
X109499279Y-47358660D01*
X109496779Y-47336722D01*
X109494279Y-47315160D01*
X109491779Y-47293972D01*
X109489863Y-47278015D01*
X109489780Y-47276620D01*
X109489780Y-47272061D01*
X109490039Y-47269613D01*
X109627839Y-46625628D01*
X109632921Y-46618255D01*
X109641728Y-46616635D01*
X109649101Y-46621717D01*
G37*
%TD.AperFunction*%
%TD*%
%TA.AperFunction,Conductor*%
%TO.N,/MA7*%
G36*
X104335351Y-55081255D02*
G01*
X104352795Y-55089158D01*
X104353476Y-55089493D01*
X104376281Y-55101693D01*
X104376791Y-55101985D01*
X104395835Y-55113550D01*
X104396095Y-55113712D01*
X104412823Y-55124496D01*
X104412870Y-55124525D01*
X104428369Y-55134141D01*
X104428381Y-55134148D01*
X104428544Y-55134249D01*
X104444528Y-55142680D01*
X104444827Y-55142797D01*
X104461841Y-55149454D01*
X104461844Y-55149455D01*
X104462184Y-55149588D01*
X104472547Y-55152178D01*
X104482588Y-55154688D01*
X104482596Y-55154689D01*
X104482922Y-55154771D01*
X104483260Y-55154815D01*
X104483262Y-55154815D01*
X104507885Y-55157995D01*
X104507892Y-55157996D01*
X104508151Y-55158029D01*
X104528006Y-55158750D01*
X104536148Y-55162475D01*
X104539280Y-55170442D01*
X104539280Y-55397877D01*
X104535853Y-55406150D01*
X104528005Y-55409569D01*
X104508424Y-55410280D01*
X104508422Y-55410280D01*
X104508151Y-55410290D01*
X104507890Y-55410324D01*
X104507886Y-55410324D01*
X104483262Y-55413503D01*
X104483260Y-55413503D01*
X104482922Y-55413547D01*
X104482593Y-55413629D01*
X104482589Y-55413630D01*
X104462552Y-55418639D01*
X104462184Y-55418731D01*
X104444528Y-55425638D01*
X104444243Y-55425788D01*
X104444235Y-55425792D01*
X104428718Y-55433977D01*
X104428544Y-55434069D01*
X104428381Y-55434170D01*
X104428369Y-55434177D01*
X104416246Y-55441699D01*
X104412823Y-55443823D01*
X104412783Y-55443849D01*
X104396085Y-55454613D01*
X104395818Y-55454780D01*
X104376798Y-55466329D01*
X104376259Y-55466637D01*
X104353464Y-55478832D01*
X104352806Y-55479157D01*
X104348892Y-55480930D01*
X104335350Y-55487065D01*
X104326400Y-55487358D01*
X104319732Y-55480931D01*
X104239175Y-55288682D01*
X104239175Y-55279638D01*
X104319732Y-55087390D01*
X104326090Y-55081084D01*
X104335351Y-55081255D01*
G37*
%TD.AperFunction*%
%TD*%
%TA.AperFunction,Conductor*%
%TO.N,/D1*%
G36*
X103954171Y-48349798D02*
G01*
X103990428Y-48364960D01*
X104029517Y-48381327D01*
X104029572Y-48381349D01*
X104062655Y-48394643D01*
X104062684Y-48394654D01*
X104062746Y-48394679D01*
X104062802Y-48394699D01*
X104062825Y-48394708D01*
X104092057Y-48405252D01*
X104092062Y-48405254D01*
X104092210Y-48405307D01*
X104092373Y-48405355D01*
X104119794Y-48413440D01*
X104119799Y-48413441D01*
X104120005Y-48413502D01*
X104120204Y-48413545D01*
X104120213Y-48413547D01*
X104137243Y-48417199D01*
X104148226Y-48419555D01*
X104165591Y-48421928D01*
X104178791Y-48423732D01*
X104178797Y-48423733D01*
X104178968Y-48423756D01*
X104201750Y-48425457D01*
X104214204Y-48426387D01*
X104214215Y-48426388D01*
X104214328Y-48426396D01*
X104252033Y-48427625D01*
X104256307Y-48427764D01*
X104256310Y-48427764D01*
X104256400Y-48427767D01*
X104256463Y-48427767D01*
X104256486Y-48427768D01*
X104276435Y-48427922D01*
X104295671Y-48428070D01*
X104303917Y-48431561D01*
X104307280Y-48439770D01*
X104307280Y-48666549D01*
X104303853Y-48674822D01*
X104295670Y-48678249D01*
X104256486Y-48678551D01*
X104256463Y-48678552D01*
X104256400Y-48678552D01*
X104256310Y-48678555D01*
X104256307Y-48678555D01*
X104252033Y-48678694D01*
X104214328Y-48679923D01*
X104214215Y-48679931D01*
X104214204Y-48679932D01*
X104201750Y-48680862D01*
X104178968Y-48682563D01*
X104178797Y-48682586D01*
X104178791Y-48682587D01*
X104165591Y-48684391D01*
X104148226Y-48686764D01*
X104134116Y-48689790D01*
X104120209Y-48692773D01*
X104120203Y-48692775D01*
X104120005Y-48692817D01*
X104119795Y-48692879D01*
X104092392Y-48700957D01*
X104092381Y-48700961D01*
X104092210Y-48701011D01*
X104092050Y-48701069D01*
X104092043Y-48701071D01*
X104069547Y-48709186D01*
X104062746Y-48711639D01*
X104029517Y-48724992D01*
X103990433Y-48741357D01*
X103990428Y-48741359D01*
X103954171Y-48756522D01*
X103945216Y-48756553D01*
X103938866Y-48750250D01*
X103858175Y-48557682D01*
X103858175Y-48548638D01*
X103938866Y-48356070D01*
X103945224Y-48349764D01*
X103954171Y-48349798D01*
G37*
%TD.AperFunction*%
%TD*%
%TA.AperFunction,Conductor*%
%TO.N,GND*%
G36*
X106280482Y-70671962D02*
G01*
X106333581Y-70719090D01*
X106352780Y-70785945D01*
X106352780Y-75016028D01*
X106331561Y-75086006D01*
X106298044Y-75136192D01*
X106250162Y-75251858D01*
X106225767Y-75374644D01*
X106225780Y-75437054D01*
X106225780Y-82555048D01*
X106225819Y-82555296D01*
X106225839Y-82555804D01*
X106225837Y-82647751D01*
X106258776Y-82897997D01*
X106259847Y-82901994D01*
X106323028Y-83137815D01*
X106323031Y-83137822D01*
X106324097Y-83141803D01*
X106325675Y-83145612D01*
X106325675Y-83145613D01*
X106382012Y-83281630D01*
X106420683Y-83374997D01*
X106546880Y-83593589D01*
X106628416Y-83699853D01*
X106698022Y-83790569D01*
X106698028Y-83790575D01*
X106700531Y-83793838D01*
X106879004Y-83972319D01*
X106882282Y-83974835D01*
X106882285Y-83974837D01*
X106950725Y-84027355D01*
X107079247Y-84125977D01*
X107297834Y-84252183D01*
X107531024Y-84348778D01*
X107774827Y-84414109D01*
X108025072Y-84447058D01*
X108056123Y-84447058D01*
X108109605Y-84447059D01*
X108133413Y-84450065D01*
X108133465Y-84449725D01*
X108139574Y-84450668D01*
X108145576Y-84452208D01*
X108151761Y-84452548D01*
X108151762Y-84452548D01*
X108186292Y-84454445D01*
X108288687Y-84460072D01*
X108305913Y-84462216D01*
X108387239Y-84478098D01*
X108407569Y-84483875D01*
X108456717Y-84502422D01*
X108476035Y-84511659D01*
X108497311Y-84524156D01*
X108517848Y-84536220D01*
X108531471Y-84545470D01*
X108585862Y-84587849D01*
X108591922Y-84592883D01*
X108667563Y-84659842D01*
X108669479Y-84661524D01*
X108762432Y-84742434D01*
X108762800Y-84742744D01*
X108769600Y-84748473D01*
X108769629Y-84748497D01*
X108769997Y-84748807D01*
X108770581Y-84749283D01*
X108778259Y-84755340D01*
X108778635Y-84755627D01*
X108778666Y-84755651D01*
X108786315Y-84761488D01*
X108887236Y-84838503D01*
X108899246Y-84847214D01*
X108900188Y-84847863D01*
X108912783Y-84856091D01*
X109047026Y-84939142D01*
X109061449Y-84947529D01*
X109062569Y-84948140D01*
X109063358Y-84948543D01*
X109063360Y-84948544D01*
X109076604Y-84955308D01*
X109076621Y-84955317D01*
X109077380Y-84955704D01*
X109185159Y-85007099D01*
X109186720Y-85007859D01*
X109191643Y-85010908D01*
X109197082Y-85013015D01*
X109198317Y-85013630D01*
X109203939Y-85016055D01*
X109231357Y-85029130D01*
X109284235Y-85076506D01*
X109303105Y-85144949D01*
X109281976Y-85212729D01*
X109227557Y-85258326D01*
X109177122Y-85268860D01*
X102565107Y-85268860D01*
X102496986Y-85248858D01*
X102450493Y-85195202D01*
X102440389Y-85124928D01*
X102469883Y-85060348D01*
X102519591Y-85025368D01*
X102556917Y-85010908D01*
X102730321Y-84903541D01*
X102881044Y-84766139D01*
X103003953Y-84603381D01*
X103094862Y-84420810D01*
X103122770Y-84322726D01*
X103149084Y-84230243D01*
X103149085Y-84230239D01*
X103150677Y-84224643D01*
X103169495Y-84021560D01*
X103150677Y-83818477D01*
X103144497Y-83796755D01*
X103096455Y-83627910D01*
X103094862Y-83622310D01*
X103003953Y-83439739D01*
X102881044Y-83276981D01*
X102730321Y-83139579D01*
X102556917Y-83032212D01*
X102452280Y-82991676D01*
X102372163Y-82960638D01*
X102372159Y-82960637D01*
X102366736Y-82958536D01*
X102166256Y-82921060D01*
X101962304Y-82921060D01*
X101761824Y-82958536D01*
X101756401Y-82960637D01*
X101756397Y-82960638D01*
X101676280Y-82991676D01*
X101571643Y-83032212D01*
X101398239Y-83139579D01*
X101247516Y-83276981D01*
X101239362Y-83287779D01*
X101236331Y-83291793D01*
X101179318Y-83334101D01*
X101108481Y-83338869D01*
X101046312Y-83304583D01*
X101012548Y-83242129D01*
X101009780Y-83215862D01*
X101009780Y-82287258D01*
X101029782Y-82219137D01*
X101083438Y-82172644D01*
X101153712Y-82162540D01*
X101218292Y-82192034D01*
X101236328Y-82211324D01*
X101247516Y-82226139D01*
X101398239Y-82363541D01*
X101571643Y-82470908D01*
X101676280Y-82511444D01*
X101756397Y-82542482D01*
X101756401Y-82542483D01*
X101761824Y-82544584D01*
X101962304Y-82582060D01*
X102166256Y-82582060D01*
X102366736Y-82544584D01*
X102372159Y-82542483D01*
X102372163Y-82542482D01*
X102452280Y-82511444D01*
X102556917Y-82470908D01*
X102730321Y-82363541D01*
X102881044Y-82226139D01*
X103003953Y-82063381D01*
X103094862Y-81880810D01*
X103150677Y-81684643D01*
X103169495Y-81481560D01*
X103150677Y-81278477D01*
X103148318Y-81270184D01*
X103096455Y-81087910D01*
X103094862Y-81082310D01*
X103003953Y-80899739D01*
X102881044Y-80736981D01*
X102730321Y-80599579D01*
X102556917Y-80492212D01*
X102452280Y-80451676D01*
X102372163Y-80420638D01*
X102372159Y-80420637D01*
X102366736Y-80418536D01*
X102166256Y-80381060D01*
X101962304Y-80381060D01*
X101761824Y-80418536D01*
X101756401Y-80420637D01*
X101756397Y-80420638D01*
X101676280Y-80451676D01*
X101571643Y-80492212D01*
X101398239Y-80599579D01*
X101247516Y-80736981D01*
X101244004Y-80741632D01*
X101236331Y-80751793D01*
X101179318Y-80794101D01*
X101108481Y-80798869D01*
X101046312Y-80764583D01*
X101012548Y-80702129D01*
X101009780Y-80675862D01*
X101009780Y-79747258D01*
X101029782Y-79679137D01*
X101083438Y-79632644D01*
X101153712Y-79622540D01*
X101218292Y-79652034D01*
X101236328Y-79671324D01*
X101247516Y-79686139D01*
X101398239Y-79823541D01*
X101571643Y-79930908D01*
X101676280Y-79971444D01*
X101756397Y-80002482D01*
X101756401Y-80002483D01*
X101761824Y-80004584D01*
X101962304Y-80042060D01*
X102166256Y-80042060D01*
X102366736Y-80004584D01*
X102372159Y-80002483D01*
X102372163Y-80002482D01*
X102452280Y-79971444D01*
X102556917Y-79930908D01*
X102730321Y-79823541D01*
X102881044Y-79686139D01*
X103003953Y-79523381D01*
X103094862Y-79340810D01*
X103142631Y-79172922D01*
X103149084Y-79150243D01*
X103149085Y-79150239D01*
X103150677Y-79144643D01*
X103169495Y-78941560D01*
X103150677Y-78738477D01*
X103094862Y-78542310D01*
X103003953Y-78359739D01*
X102881044Y-78196981D01*
X102730321Y-78059579D01*
X102692807Y-78036351D01*
X102620358Y-77991493D01*
X102556917Y-77952212D01*
X102416633Y-77897866D01*
X102372163Y-77880638D01*
X102372159Y-77880637D01*
X102366736Y-77878536D01*
X102166256Y-77841060D01*
X101962304Y-77841060D01*
X101761824Y-77878536D01*
X101756401Y-77880637D01*
X101756397Y-77880638D01*
X101711927Y-77897866D01*
X101571643Y-77952212D01*
X101508202Y-77991493D01*
X101435754Y-78036351D01*
X101398239Y-78059579D01*
X101247516Y-78196981D01*
X101244004Y-78201632D01*
X101236331Y-78211793D01*
X101179318Y-78254101D01*
X101108481Y-78258869D01*
X101046312Y-78224583D01*
X101012548Y-78162129D01*
X101009780Y-78135862D01*
X101009780Y-77207258D01*
X101029782Y-77139137D01*
X101083438Y-77092644D01*
X101153712Y-77082540D01*
X101218292Y-77112034D01*
X101236328Y-77131324D01*
X101247516Y-77146139D01*
X101398239Y-77283541D01*
X101403190Y-77286607D01*
X101403192Y-77286608D01*
X101440843Y-77309920D01*
X101571643Y-77390908D01*
X101669601Y-77428857D01*
X101756397Y-77462482D01*
X101756401Y-77462483D01*
X101761824Y-77464584D01*
X101962304Y-77502060D01*
X102166256Y-77502060D01*
X102366736Y-77464584D01*
X102372159Y-77462483D01*
X102372163Y-77462482D01*
X102458959Y-77428857D01*
X102556917Y-77390908D01*
X102687717Y-77309920D01*
X102725368Y-77286608D01*
X102725370Y-77286607D01*
X102730321Y-77283541D01*
X102881044Y-77146139D01*
X102951229Y-77053198D01*
X103008244Y-77010890D01*
X103079080Y-77006123D01*
X103141249Y-77040410D01*
X103175012Y-77102864D01*
X103177780Y-77129130D01*
X103177780Y-77141753D01*
X103177769Y-77141851D01*
X103177758Y-77141851D01*
X103177761Y-77268055D01*
X103210713Y-77518303D01*
X103276046Y-77762109D01*
X103277625Y-77765920D01*
X103346888Y-77933128D01*
X103372642Y-77995302D01*
X103374704Y-77998873D01*
X103489086Y-78196981D01*
X103498849Y-78213891D01*
X103652508Y-78414138D01*
X103741749Y-78503377D01*
X104244233Y-79005860D01*
X104742267Y-79503894D01*
X104758469Y-79523791D01*
X104765157Y-79533969D01*
X104784935Y-79554054D01*
X104788912Y-79558093D01*
X104791086Y-79560356D01*
X104810050Y-79580599D01*
X104813578Y-79584527D01*
X104821709Y-79593970D01*
X104840271Y-79622611D01*
X104844133Y-79630832D01*
X104845980Y-79634954D01*
X104855759Y-79657871D01*
X104856462Y-79659552D01*
X104871358Y-79695908D01*
X104871434Y-79696095D01*
X104871435Y-79696096D01*
X104886330Y-79732402D01*
X104889746Y-79737554D01*
X104893903Y-79743824D01*
X104905297Y-79765234D01*
X104922256Y-79806178D01*
X105006489Y-79915951D01*
X105116262Y-80000184D01*
X105123891Y-80003344D01*
X105236469Y-80049975D01*
X105236473Y-80049976D01*
X105244097Y-80053134D01*
X105252277Y-80054211D01*
X105252281Y-80054212D01*
X105373092Y-80070117D01*
X105381280Y-80071195D01*
X105389468Y-80070117D01*
X105510279Y-80054212D01*
X105510283Y-80054211D01*
X105518463Y-80053134D01*
X105526087Y-80049976D01*
X105526091Y-80049975D01*
X105638669Y-80003344D01*
X105646298Y-80000184D01*
X105756071Y-79915951D01*
X105840304Y-79806178D01*
X105859489Y-79759860D01*
X105890095Y-79685971D01*
X105890096Y-79685967D01*
X105893254Y-79678343D01*
X105894331Y-79670163D01*
X105894332Y-79670159D01*
X105910237Y-79549348D01*
X105911315Y-79541160D01*
X105893254Y-79403977D01*
X105840304Y-79276143D01*
X105798187Y-79221256D01*
X105761100Y-79172922D01*
X105761097Y-79172919D01*
X105756071Y-79166369D01*
X105735056Y-79150243D01*
X105652848Y-79087162D01*
X105646298Y-79082136D01*
X105638672Y-79078977D01*
X105638670Y-79078976D01*
X105605336Y-79065169D01*
X105583909Y-79053763D01*
X105577677Y-79049629D01*
X105577675Y-79049628D01*
X105572522Y-79046210D01*
X105536221Y-79031317D01*
X105536220Y-79031316D01*
X105536162Y-79031293D01*
X105536033Y-79031240D01*
X105499672Y-79016342D01*
X105497991Y-79015639D01*
X105475074Y-79005860D01*
X105470952Y-79004013D01*
X105462729Y-79000150D01*
X105434090Y-78981589D01*
X105424647Y-78973458D01*
X105420719Y-78969930D01*
X105400476Y-78950966D01*
X105398213Y-78948792D01*
X105378457Y-78929338D01*
X105378456Y-78929338D01*
X105374089Y-78925037D01*
X105363632Y-78918137D01*
X105343932Y-78902064D01*
X104386752Y-77944884D01*
X104386750Y-77944881D01*
X104346998Y-77905129D01*
X104340283Y-77897866D01*
X104240425Y-77780951D01*
X104228803Y-77764955D01*
X104151066Y-77638103D01*
X104142090Y-77620487D01*
X104085151Y-77483031D01*
X104079041Y-77464228D01*
X104044306Y-77319560D01*
X104041213Y-77300032D01*
X104029169Y-77147049D01*
X104028780Y-77137160D01*
X104028780Y-75583309D01*
X104048782Y-75515188D01*
X104102438Y-75468695D01*
X104172712Y-75458591D01*
X104237292Y-75488085D01*
X104240283Y-75490870D01*
X104244489Y-75496351D01*
X104251035Y-75501374D01*
X104337988Y-75568096D01*
X104354262Y-75580584D01*
X104361891Y-75583744D01*
X104474469Y-75630375D01*
X104474473Y-75630376D01*
X104482097Y-75633534D01*
X104490277Y-75634611D01*
X104490281Y-75634612D01*
X104611092Y-75650517D01*
X104619280Y-75651595D01*
X104627468Y-75650517D01*
X104748279Y-75634612D01*
X104748283Y-75634611D01*
X104756463Y-75633534D01*
X104764087Y-75630376D01*
X104764091Y-75630375D01*
X104884298Y-75580584D01*
X104885029Y-75582348D01*
X104943771Y-75568096D01*
X105010864Y-75591314D01*
X105054753Y-75647119D01*
X105063780Y-75693953D01*
X105063780Y-77160977D01*
X105043778Y-77229098D01*
X105027525Y-77249417D01*
X105025222Y-77251755D01*
X105024541Y-77252476D01*
X105015817Y-77262116D01*
X105015370Y-77262632D01*
X105015343Y-77262662D01*
X104991701Y-77289929D01*
X104991052Y-77290678D01*
X104979097Y-77305362D01*
X104978230Y-77306497D01*
X104967414Y-77321585D01*
X104949015Y-77348973D01*
X104945622Y-77354024D01*
X104943412Y-77357313D01*
X104942845Y-77358222D01*
X104933078Y-77373875D01*
X104933065Y-77373897D01*
X104932507Y-77374791D01*
X104931718Y-77376156D01*
X104922016Y-77394328D01*
X104904689Y-77429596D01*
X104897940Y-77444306D01*
X104896494Y-77450807D01*
X104895067Y-77457222D01*
X104888482Y-77478082D01*
X104869306Y-77524377D01*
X104851245Y-77661560D01*
X104852323Y-77669748D01*
X104868228Y-77790559D01*
X104868229Y-77790563D01*
X104869306Y-77798743D01*
X104872464Y-77806367D01*
X104872465Y-77806371D01*
X104901914Y-77877467D01*
X104922256Y-77926578D01*
X105006489Y-78036351D01*
X105116262Y-78120584D01*
X105123891Y-78123744D01*
X105236469Y-78170375D01*
X105236473Y-78170376D01*
X105244097Y-78173534D01*
X105252277Y-78174611D01*
X105252281Y-78174612D01*
X105373092Y-78190517D01*
X105381280Y-78191595D01*
X105389468Y-78190517D01*
X105510279Y-78174612D01*
X105510283Y-78174611D01*
X105518463Y-78173534D01*
X105526087Y-78170376D01*
X105526091Y-78170375D01*
X105638669Y-78123744D01*
X105646298Y-78120584D01*
X105756071Y-78036351D01*
X105840304Y-77926578D01*
X105860646Y-77877467D01*
X105890095Y-77806371D01*
X105890096Y-77806367D01*
X105893254Y-77798743D01*
X105894331Y-77790563D01*
X105894332Y-77790559D01*
X105910237Y-77669748D01*
X105911315Y-77661560D01*
X105910744Y-77657217D01*
X105910794Y-77656236D01*
X105911824Y-77651159D01*
X105911848Y-77644972D01*
X105911849Y-77644965D01*
X105911873Y-77638817D01*
X105912830Y-77626953D01*
X105914780Y-77620953D01*
X105914780Y-77487310D01*
X105914867Y-77482621D01*
X105916751Y-77432027D01*
X105916755Y-77431920D01*
X105916809Y-77430348D01*
X105916818Y-77430075D01*
X105917891Y-77396240D01*
X105917895Y-77396126D01*
X105917969Y-77393408D01*
X105918868Y-77354024D01*
X105918922Y-77351017D01*
X105919530Y-77304172D01*
X105919554Y-77301412D01*
X105919732Y-77256268D01*
X105917130Y-77242984D01*
X105914780Y-77218764D01*
X105914780Y-70790132D01*
X105934782Y-70722011D01*
X105988438Y-70675518D01*
X106057226Y-70665210D01*
X106109691Y-70672117D01*
X106109692Y-70672117D01*
X106117880Y-70673195D01*
X106126068Y-70672117D01*
X106210333Y-70661023D01*
X106280482Y-70671962D01*
G37*
%TD.AperFunction*%
%TA.AperFunction,Conductor*%
G36*
X108682292Y-79419979D02*
G01*
X108712568Y-79459038D01*
X108744607Y-79523381D01*
X108867516Y-79686139D01*
X109018239Y-79823541D01*
X109191643Y-79930908D01*
X109296280Y-79971444D01*
X109376397Y-80002482D01*
X109376401Y-80002483D01*
X109381824Y-80004584D01*
X109582304Y-80042060D01*
X109786256Y-80042060D01*
X109986736Y-80004584D01*
X109992159Y-80002483D01*
X109992163Y-80002482D01*
X110072280Y-79971444D01*
X110176917Y-79930908D01*
X110350321Y-79823541D01*
X110501044Y-79686139D01*
X110542230Y-79631600D01*
X110599244Y-79589292D01*
X110670080Y-79584525D01*
X110732249Y-79618812D01*
X110766012Y-79681266D01*
X110768780Y-79707532D01*
X110768780Y-80715588D01*
X110748778Y-80783709D01*
X110695122Y-80830202D01*
X110624848Y-80840306D01*
X110560268Y-80810812D01*
X110542230Y-80791520D01*
X110504556Y-80741632D01*
X110501044Y-80736981D01*
X110350321Y-80599579D01*
X110176917Y-80492212D01*
X110072280Y-80451676D01*
X109992163Y-80420638D01*
X109992159Y-80420637D01*
X109986736Y-80418536D01*
X109786256Y-80381060D01*
X109582304Y-80381060D01*
X109381824Y-80418536D01*
X109376401Y-80420637D01*
X109376397Y-80420638D01*
X109296280Y-80451676D01*
X109191643Y-80492212D01*
X109018239Y-80599579D01*
X108867516Y-80736981D01*
X108744607Y-80899739D01*
X108653698Y-81082310D01*
X108652105Y-81087910D01*
X108600243Y-81270184D01*
X108597883Y-81278477D01*
X108579065Y-81481560D01*
X108597883Y-81684643D01*
X108653698Y-81880810D01*
X108744607Y-82063381D01*
X108867516Y-82226139D01*
X109018239Y-82363541D01*
X109191643Y-82470908D01*
X109296280Y-82511444D01*
X109376397Y-82542482D01*
X109376401Y-82542483D01*
X109381824Y-82544584D01*
X109582304Y-82582060D01*
X109786256Y-82582060D01*
X109986736Y-82544584D01*
X109992159Y-82542483D01*
X109992163Y-82542482D01*
X110072280Y-82511444D01*
X110176917Y-82470908D01*
X110350321Y-82363541D01*
X110501044Y-82226139D01*
X110542230Y-82171600D01*
X110599244Y-82129292D01*
X110670080Y-82124525D01*
X110732249Y-82158812D01*
X110766012Y-82221266D01*
X110768780Y-82247532D01*
X110768780Y-83255588D01*
X110748778Y-83323709D01*
X110695122Y-83370202D01*
X110624848Y-83380306D01*
X110560268Y-83350812D01*
X110542230Y-83331520D01*
X110504556Y-83281632D01*
X110501044Y-83276981D01*
X110350321Y-83139579D01*
X110176917Y-83032212D01*
X110072280Y-82991676D01*
X109992163Y-82960638D01*
X109992159Y-82960637D01*
X109986736Y-82958536D01*
X109786256Y-82921060D01*
X109582304Y-82921060D01*
X109381824Y-82958536D01*
X109376401Y-82960637D01*
X109376397Y-82960638D01*
X109266670Y-83003146D01*
X109252154Y-83007781D01*
X109241530Y-83010478D01*
X109241529Y-83010478D01*
X109235526Y-83012002D01*
X109229935Y-83014668D01*
X109203930Y-83027068D01*
X109198301Y-83029496D01*
X109197067Y-83030111D01*
X109191643Y-83032212D01*
X109186730Y-83035254D01*
X109185244Y-83035979D01*
X109078112Y-83087064D01*
X109078090Y-83087075D01*
X109077383Y-83087412D01*
X109062569Y-83094978D01*
X109061449Y-83095589D01*
X109047025Y-83103977D01*
X108912782Y-83187029D01*
X108900188Y-83195256D01*
X108899246Y-83195905D01*
X108887236Y-83204616D01*
X108778259Y-83287779D01*
X108770608Y-83293814D01*
X108770030Y-83294285D01*
X108762439Y-83300678D01*
X108762072Y-83300997D01*
X108762062Y-83301006D01*
X108720854Y-83336875D01*
X108669480Y-83381592D01*
X108667563Y-83383276D01*
X108667437Y-83383386D01*
X108591918Y-83450236D01*
X108585847Y-83455280D01*
X108531478Y-83497644D01*
X108517852Y-83506897D01*
X108476036Y-83531460D01*
X108456713Y-83540699D01*
X108407569Y-83559244D01*
X108387240Y-83565021D01*
X108305912Y-83580903D01*
X108288685Y-83583048D01*
X108145574Y-83590912D01*
X108141459Y-83591908D01*
X108113315Y-83592737D01*
X107975689Y-83580695D01*
X107954059Y-83576881D01*
X107909800Y-83565021D01*
X107794446Y-83534110D01*
X107773808Y-83526598D01*
X107624045Y-83456759D01*
X107605025Y-83445777D01*
X107469664Y-83350993D01*
X107452839Y-83336875D01*
X107420549Y-83304583D01*
X107335999Y-83220030D01*
X107321881Y-83203204D01*
X107227099Y-83067835D01*
X107216118Y-83048814D01*
X107146289Y-82899057D01*
X107138778Y-82878418D01*
X107096012Y-82718798D01*
X107092198Y-82697168D01*
X107082131Y-82582060D01*
X107077259Y-82526360D01*
X107076780Y-82515380D01*
X107076782Y-82460409D01*
X107076782Y-82460394D01*
X107076780Y-82460387D01*
X107076780Y-81457289D01*
X107096782Y-81389168D01*
X107150438Y-81342675D01*
X107219227Y-81332367D01*
X107286280Y-81341195D01*
X107294468Y-81340117D01*
X107415279Y-81324212D01*
X107415283Y-81324211D01*
X107423463Y-81323134D01*
X107431087Y-81319976D01*
X107431091Y-81319975D01*
X107543669Y-81273344D01*
X107551298Y-81270184D01*
X107661071Y-81185951D01*
X107745304Y-81076178D01*
X107748463Y-81068552D01*
X107748465Y-81068548D01*
X107762274Y-81035209D01*
X107773683Y-81013777D01*
X107777812Y-81007553D01*
X107777814Y-81007550D01*
X107781233Y-81002395D01*
X107796149Y-80966035D01*
X107796201Y-80965907D01*
X107811100Y-80929542D01*
X107811773Y-80927932D01*
X107821579Y-80904953D01*
X107823417Y-80900851D01*
X107827289Y-80892609D01*
X107845853Y-80863966D01*
X107853989Y-80854518D01*
X107857517Y-80850591D01*
X107876473Y-80830358D01*
X107878642Y-80828100D01*
X107898098Y-80808341D01*
X107898098Y-80808340D01*
X107902399Y-80803973D01*
X107905773Y-80798860D01*
X107905776Y-80798856D01*
X107909302Y-80793512D01*
X107925375Y-80773812D01*
X107933493Y-80765694D01*
X107933576Y-80765580D01*
X107933762Y-80765378D01*
X107996112Y-80703033D01*
X107999023Y-80700122D01*
X108152683Y-80499879D01*
X108278892Y-80281293D01*
X108287421Y-80260705D01*
X108373909Y-80051919D01*
X108375490Y-80048103D01*
X108440824Y-79804300D01*
X108473776Y-79554054D01*
X108473777Y-79515197D01*
X108493781Y-79447078D01*
X108547438Y-79400586D01*
X108617712Y-79390484D01*
X108682292Y-79419979D01*
G37*
%TD.AperFunction*%
%TA.AperFunction,Conductor*%
G36*
X107582638Y-76891927D02*
G01*
X107618866Y-76952984D01*
X107622780Y-76984146D01*
X107622780Y-79422881D01*
X107622391Y-79432770D01*
X107610444Y-79584527D01*
X107610326Y-79586024D01*
X107607234Y-79605548D01*
X107585507Y-79696037D01*
X107572497Y-79750218D01*
X107566387Y-79769021D01*
X107509450Y-79906469D01*
X107500474Y-79924085D01*
X107453837Y-80000184D01*
X107422736Y-80050934D01*
X107411114Y-80066929D01*
X107323854Y-80169092D01*
X107303146Y-80187349D01*
X107303464Y-80187743D01*
X107298647Y-80191635D01*
X107293473Y-80195034D01*
X107289060Y-80199379D01*
X107284250Y-80203265D01*
X107282976Y-80201688D01*
X107228614Y-80230830D01*
X107157840Y-80225220D01*
X107101333Y-80182237D01*
X107077036Y-80115528D01*
X107076780Y-80107507D01*
X107076780Y-77012289D01*
X107096782Y-76944168D01*
X107150438Y-76897675D01*
X107219227Y-76887367D01*
X107286280Y-76896195D01*
X107294468Y-76895117D01*
X107415279Y-76879212D01*
X107415283Y-76879211D01*
X107423463Y-76878134D01*
X107431087Y-76874976D01*
X107431091Y-76874975D01*
X107442998Y-76870042D01*
X107448562Y-76867738D01*
X107519151Y-76860148D01*
X107582638Y-76891927D01*
G37*
%TD.AperFunction*%
%TA.AperFunction,Conductor*%
G36*
X108682292Y-71799983D02*
G01*
X108712571Y-71839044D01*
X108744607Y-71903381D01*
X108867516Y-72066139D01*
X109018239Y-72203541D01*
X109191643Y-72310908D01*
X109296280Y-72351444D01*
X109376397Y-72382482D01*
X109376401Y-72382483D01*
X109381824Y-72384584D01*
X109582304Y-72422060D01*
X109786256Y-72422060D01*
X109986736Y-72384584D01*
X109992159Y-72382483D01*
X109992163Y-72382482D01*
X110072280Y-72351444D01*
X110176917Y-72310908D01*
X110350321Y-72203541D01*
X110501044Y-72066139D01*
X110542230Y-72011600D01*
X110599244Y-71969292D01*
X110670080Y-71964525D01*
X110732249Y-71998812D01*
X110766012Y-72061266D01*
X110768780Y-72087532D01*
X110768780Y-73095588D01*
X110748778Y-73163709D01*
X110695122Y-73210202D01*
X110624848Y-73220306D01*
X110560268Y-73190812D01*
X110542230Y-73171520D01*
X110521888Y-73144583D01*
X110501044Y-73116981D01*
X110350321Y-72979579D01*
X110176917Y-72872212D01*
X110072280Y-72831676D01*
X109992163Y-72800638D01*
X109992159Y-72800637D01*
X109986736Y-72798536D01*
X109786256Y-72761060D01*
X109582304Y-72761060D01*
X109381824Y-72798536D01*
X109376401Y-72800637D01*
X109376397Y-72800638D01*
X109296280Y-72831676D01*
X109191643Y-72872212D01*
X109018239Y-72979579D01*
X108867516Y-73116981D01*
X108744607Y-73279739D01*
X108742011Y-73284953D01*
X108712571Y-73344076D01*
X108664301Y-73396140D01*
X108595547Y-73413842D01*
X108528137Y-73391563D01*
X108483473Y-73336375D01*
X108473780Y-73287913D01*
X108473780Y-71895207D01*
X108493782Y-71827086D01*
X108547438Y-71780593D01*
X108617712Y-71770489D01*
X108682292Y-71799983D01*
G37*
%TD.AperFunction*%
%TA.AperFunction,Conductor*%
G36*
X108906510Y-33619862D02*
G01*
X108953003Y-33673518D01*
X108963720Y-33738831D01*
X108961735Y-33758014D01*
X108969924Y-33773594D01*
X110731875Y-35535545D01*
X110765901Y-35597857D01*
X110768780Y-35624640D01*
X110768780Y-36621188D01*
X110748778Y-36689309D01*
X110695122Y-36735802D01*
X110624848Y-36745906D01*
X110560268Y-36716412D01*
X110542230Y-36697120D01*
X110504556Y-36647232D01*
X110501044Y-36642581D01*
X110350321Y-36505179D01*
X110340507Y-36499102D01*
X110294212Y-36470438D01*
X110176917Y-36397812D01*
X110035356Y-36342971D01*
X109979062Y-36299712D01*
X109955091Y-36232885D01*
X109971055Y-36163706D01*
X110021885Y-36114141D01*
X110048261Y-36103774D01*
X110128033Y-36082399D01*
X110138333Y-36078650D01*
X110335791Y-35986574D01*
X110345286Y-35981091D01*
X110397328Y-35944651D01*
X110405704Y-35934172D01*
X110398636Y-35920726D01*
X109697092Y-35219182D01*
X109683148Y-35211568D01*
X109681315Y-35211699D01*
X109674700Y-35215950D01*
X108969203Y-35921447D01*
X108962773Y-35933222D01*
X108972069Y-35945237D01*
X109023274Y-35981091D01*
X109032769Y-35986574D01*
X109230227Y-36078650D01*
X109240527Y-36082399D01*
X109320299Y-36103774D01*
X109380921Y-36140725D01*
X109411943Y-36204586D01*
X109403514Y-36275081D01*
X109358310Y-36329827D01*
X109333205Y-36342971D01*
X109191643Y-36397812D01*
X109074348Y-36470438D01*
X109028054Y-36499102D01*
X109018239Y-36505179D01*
X108867516Y-36642581D01*
X108744607Y-36805339D01*
X108653698Y-36987910D01*
X108652105Y-36993510D01*
X108599640Y-37177903D01*
X108597883Y-37184077D01*
X108579065Y-37387160D01*
X108597883Y-37590243D01*
X108653698Y-37786410D01*
X108744607Y-37968981D01*
X108867516Y-38131739D01*
X109018239Y-38269141D01*
X109191643Y-38376508D01*
X109290342Y-38414744D01*
X109376397Y-38448082D01*
X109376401Y-38448083D01*
X109381824Y-38450184D01*
X109582304Y-38487660D01*
X109786256Y-38487660D01*
X109986736Y-38450184D01*
X109992159Y-38448083D01*
X109992163Y-38448082D01*
X110078218Y-38414744D01*
X110176917Y-38376508D01*
X110350321Y-38269141D01*
X110501044Y-38131739D01*
X110542230Y-38077200D01*
X110599244Y-38034892D01*
X110670080Y-38030125D01*
X110732249Y-38064412D01*
X110766012Y-38126866D01*
X110768780Y-38153132D01*
X110768780Y-39161188D01*
X110748778Y-39229309D01*
X110695122Y-39275802D01*
X110624848Y-39285906D01*
X110560268Y-39256412D01*
X110542230Y-39237120D01*
X110504556Y-39187232D01*
X110501044Y-39182581D01*
X110350321Y-39045179D01*
X110176917Y-38937812D01*
X110072280Y-38897276D01*
X109992163Y-38866238D01*
X109992159Y-38866237D01*
X109986736Y-38864136D01*
X109786256Y-38826660D01*
X109582304Y-38826660D01*
X109381824Y-38864136D01*
X109376401Y-38866237D01*
X109376397Y-38866238D01*
X109296280Y-38897276D01*
X109191643Y-38937812D01*
X109018239Y-39045179D01*
X108867516Y-39182581D01*
X108744607Y-39345339D01*
X108653698Y-39527910D01*
X108652105Y-39533510D01*
X108599640Y-39717903D01*
X108597883Y-39724077D01*
X108579065Y-39927160D01*
X108597883Y-40130243D01*
X108653698Y-40326410D01*
X108744607Y-40508981D01*
X108867516Y-40671739D01*
X109018239Y-40809141D01*
X109191643Y-40916508D01*
X109290342Y-40954744D01*
X109376397Y-40988082D01*
X109376401Y-40988083D01*
X109381824Y-40990184D01*
X109582304Y-41027660D01*
X109786256Y-41027660D01*
X109986736Y-40990184D01*
X109992159Y-40988083D01*
X109992163Y-40988082D01*
X110078218Y-40954744D01*
X110176917Y-40916508D01*
X110350321Y-40809141D01*
X110501044Y-40671739D01*
X110542230Y-40617200D01*
X110599244Y-40574892D01*
X110670080Y-40570125D01*
X110732249Y-40604412D01*
X110766012Y-40666866D01*
X110768780Y-40693132D01*
X110768780Y-41701188D01*
X110748778Y-41769309D01*
X110695122Y-41815802D01*
X110624848Y-41825906D01*
X110560268Y-41796412D01*
X110542230Y-41777120D01*
X110504556Y-41727232D01*
X110501044Y-41722581D01*
X110350321Y-41585179D01*
X110176917Y-41477812D01*
X110072280Y-41437276D01*
X109992163Y-41406238D01*
X109992159Y-41406237D01*
X109986736Y-41404136D01*
X109786256Y-41366660D01*
X109582304Y-41366660D01*
X109381824Y-41404136D01*
X109376401Y-41406237D01*
X109376397Y-41406238D01*
X109296280Y-41437276D01*
X109191643Y-41477812D01*
X109018239Y-41585179D01*
X108867516Y-41722581D01*
X108744607Y-41885339D01*
X108653698Y-42067910D01*
X108597883Y-42264077D01*
X108579065Y-42467160D01*
X108597883Y-42670243D01*
X108599475Y-42675839D01*
X108599476Y-42675843D01*
X108611677Y-42718725D01*
X108653698Y-42866410D01*
X108744607Y-43048981D01*
X108867516Y-43211739D01*
X109018239Y-43349141D01*
X109191643Y-43456508D01*
X109267562Y-43485919D01*
X109376397Y-43528082D01*
X109376401Y-43528083D01*
X109381824Y-43530184D01*
X109582304Y-43567660D01*
X109786256Y-43567660D01*
X109986736Y-43530184D01*
X109992159Y-43528083D01*
X109992163Y-43528082D01*
X110100998Y-43485919D01*
X110176917Y-43456508D01*
X110350321Y-43349141D01*
X110501044Y-43211739D01*
X110542230Y-43157200D01*
X110599244Y-43114892D01*
X110670080Y-43110125D01*
X110732249Y-43144412D01*
X110766012Y-43206866D01*
X110768780Y-43233132D01*
X110768780Y-62924080D01*
X110748778Y-62992201D01*
X110731875Y-63013175D01*
X110056302Y-63688748D01*
X110048688Y-63702692D01*
X110048819Y-63704525D01*
X110053070Y-63711140D01*
X110731875Y-64389945D01*
X110765901Y-64452257D01*
X110768780Y-64479040D01*
X110768780Y-65475588D01*
X110748778Y-65543709D01*
X110695122Y-65590202D01*
X110624848Y-65600306D01*
X110560268Y-65570812D01*
X110542230Y-65551520D01*
X110521888Y-65524583D01*
X110501044Y-65496981D01*
X110350321Y-65359579D01*
X110176917Y-65252212D01*
X110035356Y-65197371D01*
X109979062Y-65154112D01*
X109955091Y-65087285D01*
X109971055Y-65018106D01*
X110021885Y-64968541D01*
X110048261Y-64958174D01*
X110128033Y-64936799D01*
X110138333Y-64933050D01*
X110335791Y-64840974D01*
X110345286Y-64835491D01*
X110397328Y-64799051D01*
X110405704Y-64788572D01*
X110398636Y-64775126D01*
X109697092Y-64073582D01*
X109683148Y-64065968D01*
X109681315Y-64066099D01*
X109674700Y-64070350D01*
X108969203Y-64775847D01*
X108962773Y-64787622D01*
X108972069Y-64799637D01*
X109023274Y-64835491D01*
X109032769Y-64840974D01*
X109230227Y-64933050D01*
X109240527Y-64936799D01*
X109320299Y-64958174D01*
X109380921Y-64995125D01*
X109411943Y-65058986D01*
X109403514Y-65129481D01*
X109358310Y-65184227D01*
X109333205Y-65197371D01*
X109191643Y-65252212D01*
X109018239Y-65359579D01*
X109013937Y-65363500D01*
X109013930Y-65363506D01*
X108916174Y-65452622D01*
X108852357Y-65483733D01*
X108781851Y-65475403D01*
X108727041Y-65430277D01*
X108714880Y-65407724D01*
X108675966Y-65313775D01*
X108675963Y-65313770D01*
X108672804Y-65306143D01*
X108629806Y-65250107D01*
X108593600Y-65202922D01*
X108593597Y-65202919D01*
X108588571Y-65196369D01*
X108572748Y-65184227D01*
X108485348Y-65117162D01*
X108478798Y-65112136D01*
X108471169Y-65108976D01*
X108358591Y-65062345D01*
X108358587Y-65062344D01*
X108350963Y-65059186D01*
X108342783Y-65058109D01*
X108342779Y-65058108D01*
X108221968Y-65042203D01*
X108213780Y-65041125D01*
X108205592Y-65042203D01*
X108197333Y-65042203D01*
X108197333Y-65040444D01*
X108137082Y-65031051D01*
X108083982Y-64983925D01*
X108064780Y-64917066D01*
X108064780Y-63707035D01*
X108371763Y-63707035D01*
X108390752Y-63924079D01*
X108392655Y-63934872D01*
X108449044Y-64145321D01*
X108452790Y-64155613D01*
X108544866Y-64353071D01*
X108550349Y-64362566D01*
X108586789Y-64414608D01*
X108597268Y-64422984D01*
X108610714Y-64415916D01*
X109312258Y-63714372D01*
X109319872Y-63700428D01*
X109319741Y-63698595D01*
X109315490Y-63691980D01*
X108609993Y-62986483D01*
X108598218Y-62980053D01*
X108586203Y-62989349D01*
X108550349Y-63040554D01*
X108544866Y-63050049D01*
X108452790Y-63247507D01*
X108449044Y-63257799D01*
X108392655Y-63468248D01*
X108390752Y-63479041D01*
X108371763Y-63696085D01*
X108371763Y-63707035D01*
X108064780Y-63707035D01*
X108064780Y-62614548D01*
X108962856Y-62614548D01*
X108969924Y-62627994D01*
X109671468Y-63329538D01*
X109685412Y-63337152D01*
X109687245Y-63337021D01*
X109693860Y-63332770D01*
X110399357Y-62627273D01*
X110405787Y-62615498D01*
X110396491Y-62603483D01*
X110345286Y-62567629D01*
X110335791Y-62562146D01*
X110138333Y-62470070D01*
X110128041Y-62466324D01*
X109917592Y-62409935D01*
X109906799Y-62408032D01*
X109689755Y-62389043D01*
X109678805Y-62389043D01*
X109461761Y-62408032D01*
X109450968Y-62409935D01*
X109240519Y-62466324D01*
X109230227Y-62470070D01*
X109032769Y-62562146D01*
X109023274Y-62567629D01*
X108971232Y-62604069D01*
X108962856Y-62614548D01*
X108064780Y-62614548D01*
X108064780Y-61276754D01*
X108084782Y-61208633D01*
X108138438Y-61162140D01*
X108197333Y-61153316D01*
X108197333Y-61151617D01*
X108205592Y-61151617D01*
X108213780Y-61152695D01*
X108221968Y-61151617D01*
X108342779Y-61135712D01*
X108342783Y-61135711D01*
X108350963Y-61134634D01*
X108358587Y-61131476D01*
X108358591Y-61131475D01*
X108471169Y-61084844D01*
X108478798Y-61081684D01*
X108536915Y-61037089D01*
X108582025Y-61002474D01*
X108588571Y-60997451D01*
X108672804Y-60887678D01*
X108715540Y-60784503D01*
X108722595Y-60767471D01*
X108722596Y-60767467D01*
X108725754Y-60759843D01*
X108726831Y-60751663D01*
X108726832Y-60751659D01*
X108742737Y-60630848D01*
X108743815Y-60622660D01*
X108742737Y-60614472D01*
X108742737Y-60606214D01*
X108745815Y-60606214D01*
X108754488Y-60550553D01*
X108801609Y-60497448D01*
X108821838Y-60488182D01*
X108822905Y-60488026D01*
X108833942Y-60482630D01*
X108836861Y-60482132D01*
X108841045Y-60480839D01*
X108841215Y-60481389D01*
X108903927Y-60470682D01*
X108944618Y-60482630D01*
X108955655Y-60488026D01*
X108983498Y-60492083D01*
X109024132Y-60498003D01*
X109024137Y-60498003D01*
X109028644Y-60498660D01*
X109249916Y-60498660D01*
X109254423Y-60498003D01*
X109254428Y-60498003D01*
X109295062Y-60492083D01*
X109322905Y-60488026D01*
X109333942Y-60482630D01*
X109336867Y-60482131D01*
X109341044Y-60480840D01*
X109341214Y-60481389D01*
X109403927Y-60470682D01*
X109444618Y-60482630D01*
X109455655Y-60488026D01*
X109483498Y-60492083D01*
X109524132Y-60498003D01*
X109524137Y-60498003D01*
X109528644Y-60498660D01*
X109749916Y-60498660D01*
X109754423Y-60498003D01*
X109754428Y-60498003D01*
X109795062Y-60492083D01*
X109822905Y-60488026D01*
X109935491Y-60432986D01*
X110024106Y-60344371D01*
X110079146Y-60231785D01*
X110089780Y-60158796D01*
X110089780Y-58780230D01*
X110090813Y-58764127D01*
X110093725Y-58741529D01*
X110093725Y-58741528D01*
X110094056Y-58738960D01*
X110094231Y-58735116D01*
X110092365Y-58684772D01*
X110090143Y-58666282D01*
X110087708Y-58645643D01*
X110087675Y-58645363D01*
X110087671Y-58645331D01*
X110085277Y-58624683D01*
X110082814Y-58603068D01*
X110080437Y-58581846D01*
X110077976Y-58559517D01*
X110075540Y-58537043D01*
X110073056Y-58513756D01*
X110070631Y-58490663D01*
X110070672Y-58490443D01*
X110070609Y-58490449D01*
X110069800Y-58482615D01*
X110069248Y-58477269D01*
X110067795Y-58472092D01*
X110067006Y-58467948D01*
X110064780Y-58444369D01*
X110064780Y-55184335D01*
X110064782Y-55184328D01*
X110064780Y-55123428D01*
X110064810Y-55123151D01*
X110064840Y-55123151D01*
X110064837Y-54988531D01*
X110032378Y-54721256D01*
X109988828Y-54544579D01*
X109968853Y-54463546D01*
X109967940Y-54459842D01*
X109966590Y-54456282D01*
X109966587Y-54456273D01*
X109873814Y-54211666D01*
X109872462Y-54208101D01*
X109849326Y-54164021D01*
X109749107Y-53973077D01*
X109749102Y-53973069D01*
X109747336Y-53969704D01*
X109606517Y-53765702D01*
X109596558Y-53751274D01*
X109596555Y-53751270D01*
X109594386Y-53748128D01*
X109415845Y-53546603D01*
X109327085Y-53467971D01*
X109217167Y-53370595D01*
X109217163Y-53370592D01*
X109214314Y-53368068D01*
X109161114Y-53331348D01*
X109067398Y-53266662D01*
X109022698Y-53211504D01*
X109014914Y-53140935D01*
X109046518Y-53077361D01*
X109107476Y-53040965D01*
X109171584Y-53041259D01*
X109262827Y-53065709D01*
X109513072Y-53098658D01*
X109520912Y-53098658D01*
X109555162Y-53098659D01*
X109619906Y-53116728D01*
X109619977Y-53116610D01*
X109629608Y-53122383D01*
X109649433Y-53133776D01*
X109661214Y-53140206D01*
X109662093Y-53140661D01*
X109662702Y-53140960D01*
X109662738Y-53140978D01*
X109673245Y-53146134D01*
X109673274Y-53146148D01*
X109673851Y-53146431D01*
X109674421Y-53146696D01*
X109674453Y-53146711D01*
X109687360Y-53152705D01*
X109687974Y-53152990D01*
X109699722Y-53158149D01*
X109706069Y-53159489D01*
X109706074Y-53159490D01*
X109712214Y-53160786D01*
X109734412Y-53167661D01*
X109768969Y-53181975D01*
X109768973Y-53181976D01*
X109776597Y-53185134D01*
X109784777Y-53186211D01*
X109784781Y-53186212D01*
X109905592Y-53202117D01*
X109913780Y-53203195D01*
X109921968Y-53202117D01*
X110042779Y-53186212D01*
X110042783Y-53186211D01*
X110050963Y-53185134D01*
X110058587Y-53181976D01*
X110058591Y-53181975D01*
X110171169Y-53135344D01*
X110178798Y-53132184D01*
X110288571Y-53047951D01*
X110372804Y-52938178D01*
X110398616Y-52875861D01*
X110422595Y-52817971D01*
X110422596Y-52817967D01*
X110425754Y-52810343D01*
X110426831Y-52802163D01*
X110426832Y-52802159D01*
X110442737Y-52681348D01*
X110443815Y-52673160D01*
X110425754Y-52535977D01*
X110372804Y-52408143D01*
X110372462Y-52407698D01*
X110356563Y-52342168D01*
X110372175Y-52288997D01*
X110372804Y-52288178D01*
X110389253Y-52248467D01*
X110422595Y-52167971D01*
X110422596Y-52167967D01*
X110425754Y-52160343D01*
X110426831Y-52152163D01*
X110426832Y-52152159D01*
X110442737Y-52031348D01*
X110443815Y-52023160D01*
X110425754Y-51885977D01*
X110372804Y-51758143D01*
X110372732Y-51758049D01*
X110356884Y-51692719D01*
X110372560Y-51639331D01*
X110373445Y-51638178D01*
X110378316Y-51626418D01*
X110423236Y-51517971D01*
X110423237Y-51517967D01*
X110426395Y-51510343D01*
X110427472Y-51502163D01*
X110427473Y-51502159D01*
X110443378Y-51381348D01*
X110444456Y-51373160D01*
X110426395Y-51235977D01*
X110373445Y-51108143D01*
X110368416Y-51101588D01*
X110364599Y-51094978D01*
X110347861Y-51025982D01*
X110357309Y-50983760D01*
X110405270Y-50867971D01*
X110405271Y-50867967D01*
X110408429Y-50860343D01*
X110409506Y-50852163D01*
X110409507Y-50852159D01*
X110425412Y-50731348D01*
X110426490Y-50723160D01*
X110408429Y-50585977D01*
X110355479Y-50458143D01*
X110288971Y-50371468D01*
X110276275Y-50354922D01*
X110276272Y-50354919D01*
X110271246Y-50348369D01*
X110245524Y-50328631D01*
X110168023Y-50269162D01*
X110161473Y-50264136D01*
X110153842Y-50260975D01*
X110142561Y-50256302D01*
X110087280Y-50211754D01*
X110064780Y-50139894D01*
X110064780Y-47550642D01*
X110067319Y-47525473D01*
X110067423Y-47524965D01*
X110069248Y-47519049D01*
X110070609Y-47505875D01*
X110073109Y-47482066D01*
X110075500Y-47459646D01*
X110075524Y-47459431D01*
X110077966Y-47436901D01*
X110077990Y-47436681D01*
X110080415Y-47414668D01*
X110080441Y-47414431D01*
X110082853Y-47392910D01*
X110082879Y-47392679D01*
X110085218Y-47372152D01*
X110085246Y-47371907D01*
X110087675Y-47350954D01*
X110087705Y-47350702D01*
X110090140Y-47330062D01*
X110090172Y-47329789D01*
X110092055Y-47314125D01*
X110092056Y-47314114D01*
X110092364Y-47311550D01*
X110094231Y-47261204D01*
X110094056Y-47257360D01*
X110090813Y-47232193D01*
X110089780Y-47216090D01*
X110089780Y-45837524D01*
X110079146Y-45764535D01*
X110024106Y-45651949D01*
X109935491Y-45563334D01*
X109822905Y-45508294D01*
X109793384Y-45503993D01*
X109754428Y-45498317D01*
X109754423Y-45498317D01*
X109749916Y-45497660D01*
X109528644Y-45497660D01*
X109524137Y-45498317D01*
X109524132Y-45498317D01*
X109485176Y-45503993D01*
X109455655Y-45508294D01*
X109446866Y-45512591D01*
X109446865Y-45512591D01*
X109444617Y-45513690D01*
X109441693Y-45514189D01*
X109437516Y-45515480D01*
X109437346Y-45514931D01*
X109374633Y-45525638D01*
X109333943Y-45513690D01*
X109331695Y-45512591D01*
X109331694Y-45512591D01*
X109322905Y-45508294D01*
X109293384Y-45503993D01*
X109254428Y-45498317D01*
X109254423Y-45498317D01*
X109249916Y-45497660D01*
X109028644Y-45497660D01*
X109024137Y-45498317D01*
X109024132Y-45498317D01*
X108985176Y-45503993D01*
X108955655Y-45508294D01*
X108946866Y-45512591D01*
X108946865Y-45512591D01*
X108944617Y-45513690D01*
X108941693Y-45514189D01*
X108937516Y-45515480D01*
X108937346Y-45514931D01*
X108874633Y-45525638D01*
X108833943Y-45513690D01*
X108831695Y-45512591D01*
X108831694Y-45512591D01*
X108822905Y-45508294D01*
X108813226Y-45506884D01*
X108803871Y-45503993D01*
X108804307Y-45502581D01*
X108749369Y-45477369D01*
X108711096Y-45417572D01*
X108711227Y-45346576D01*
X108749720Y-45286920D01*
X108755352Y-45282335D01*
X108797525Y-45249974D01*
X108804071Y-45244951D01*
X108888304Y-45135178D01*
X108899475Y-45108209D01*
X108938095Y-45014971D01*
X108938096Y-45014967D01*
X108941254Y-45007343D01*
X108942331Y-44999163D01*
X108942332Y-44999159D01*
X108958237Y-44878348D01*
X108959315Y-44870160D01*
X108941254Y-44732977D01*
X108888304Y-44605143D01*
X108846188Y-44550256D01*
X108809100Y-44501922D01*
X108809097Y-44501919D01*
X108804071Y-44495369D01*
X108694298Y-44411136D01*
X108686672Y-44407977D01*
X108686668Y-44407975D01*
X108651497Y-44393408D01*
X108630732Y-44382438D01*
X108618634Y-44374523D01*
X108612898Y-44372212D01*
X108612894Y-44372210D01*
X108588095Y-44362219D01*
X108588044Y-44362199D01*
X108587965Y-44362167D01*
X108583796Y-44360523D01*
X108548826Y-44347027D01*
X108548588Y-44346935D01*
X108548430Y-44346874D01*
X108548430Y-44346873D01*
X108523371Y-44337227D01*
X108520893Y-44336243D01*
X108518312Y-44335185D01*
X108481899Y-44312320D01*
X108474655Y-44305809D01*
X108471077Y-44302465D01*
X108453364Y-44285240D01*
X108448281Y-44281921D01*
X108448277Y-44281917D01*
X108443508Y-44278803D01*
X108423326Y-44262418D01*
X108393084Y-44232182D01*
X108275223Y-44146567D01*
X108145420Y-44080442D01*
X108006871Y-44035435D01*
X107862988Y-44012656D01*
X107858039Y-44012656D01*
X107790150Y-44012660D01*
X107492124Y-44012660D01*
X107424003Y-43992658D01*
X107377510Y-43939002D01*
X107367202Y-43870217D01*
X107368237Y-43862354D01*
X107368237Y-43862348D01*
X107369315Y-43854160D01*
X107351254Y-43716977D01*
X107298304Y-43589143D01*
X107251450Y-43528082D01*
X107219100Y-43485922D01*
X107219097Y-43485919D01*
X107214071Y-43479369D01*
X107184279Y-43456508D01*
X107110848Y-43400162D01*
X107104298Y-43395136D01*
X107096669Y-43391976D01*
X106984091Y-43345345D01*
X106984087Y-43345344D01*
X106976463Y-43342186D01*
X106968283Y-43341109D01*
X106968279Y-43341108D01*
X106847468Y-43325203D01*
X106839280Y-43324125D01*
X106702097Y-43342186D01*
X106574263Y-43395136D01*
X106464489Y-43479369D01*
X106380256Y-43589143D01*
X106327306Y-43716977D01*
X106309245Y-43854160D01*
X106310323Y-43862348D01*
X106310323Y-43862351D01*
X106311358Y-43870213D01*
X106300418Y-43940362D01*
X106253290Y-43993460D01*
X106186442Y-44012658D01*
X106139269Y-44012660D01*
X106105792Y-44012660D01*
X106105701Y-44012674D01*
X106105527Y-44012681D01*
X106104556Y-44012681D01*
X106058297Y-44012683D01*
X105898825Y-44040807D01*
X105893656Y-44042689D01*
X105893654Y-44042689D01*
X105751823Y-44094313D01*
X105751819Y-44094315D01*
X105746659Y-44096193D01*
X105743475Y-44098032D01*
X105673840Y-44108609D01*
X105609027Y-44079630D01*
X105570170Y-44020211D01*
X105564780Y-43983753D01*
X105564780Y-41144655D01*
X105564781Y-41144652D01*
X105564780Y-41083561D01*
X105564789Y-41083474D01*
X105564799Y-41083474D01*
X105564797Y-40957270D01*
X105531847Y-40707020D01*
X105466515Y-40463212D01*
X105436524Y-40390811D01*
X105371496Y-40233827D01*
X105371495Y-40233825D01*
X105369918Y-40230018D01*
X105243710Y-40011427D01*
X105162834Y-39906031D01*
X105092561Y-39814453D01*
X105092557Y-39814449D01*
X105090049Y-39811180D01*
X105000812Y-39721945D01*
X105000808Y-39721940D01*
X104957549Y-39678682D01*
X104957548Y-39678681D01*
X103525211Y-38246343D01*
X103510361Y-38227281D01*
X103510163Y-38227427D01*
X103506487Y-38222453D01*
X103503312Y-38217134D01*
X103400178Y-38102932D01*
X103390176Y-38090321D01*
X103336214Y-38012559D01*
X103326274Y-37995530D01*
X103310866Y-37963631D01*
X103298966Y-37938996D01*
X103291636Y-37920058D01*
X103275713Y-37866434D01*
X103272137Y-37850811D01*
X103262503Y-37791621D01*
X103260356Y-37778432D01*
X103259312Y-37770396D01*
X103249193Y-37666317D01*
X103249103Y-37665405D01*
X103236415Y-37538851D01*
X103236414Y-37538842D01*
X103236361Y-37538313D01*
X103235311Y-37529213D01*
X103235230Y-37528593D01*
X103234071Y-37520556D01*
X103211838Y-37379646D01*
X103211388Y-37377160D01*
X104784065Y-37377160D01*
X104802883Y-37580243D01*
X104804475Y-37585839D01*
X104804476Y-37585843D01*
X104807625Y-37596910D01*
X104858698Y-37776410D01*
X104949607Y-37958981D01*
X105072516Y-38121739D01*
X105223239Y-38259141D01*
X105228190Y-38262207D01*
X105228192Y-38262208D01*
X105244343Y-38272208D01*
X105396643Y-38366508D01*
X105485120Y-38400784D01*
X105581397Y-38438082D01*
X105581401Y-38438083D01*
X105586824Y-38440184D01*
X105787304Y-38477660D01*
X105991256Y-38477660D01*
X106191736Y-38440184D01*
X106197159Y-38438083D01*
X106197163Y-38438082D01*
X106293440Y-38400784D01*
X106381917Y-38366508D01*
X106534217Y-38272208D01*
X106550368Y-38262208D01*
X106550370Y-38262207D01*
X106555321Y-38259141D01*
X106706044Y-38121739D01*
X106828953Y-37958981D01*
X106919862Y-37776410D01*
X106970935Y-37596910D01*
X106974084Y-37585843D01*
X106974085Y-37585839D01*
X106975677Y-37580243D01*
X106994495Y-37377160D01*
X106975677Y-37174077D01*
X106972059Y-37161359D01*
X106925034Y-36996088D01*
X106919862Y-36977910D01*
X106828953Y-36795339D01*
X106706044Y-36632581D01*
X106555321Y-36495179D01*
X106381917Y-36387812D01*
X106266171Y-36342972D01*
X106197163Y-36316238D01*
X106197159Y-36316237D01*
X106191736Y-36314136D01*
X105991256Y-36276660D01*
X105787304Y-36276660D01*
X105586824Y-36314136D01*
X105581401Y-36316237D01*
X105581397Y-36316238D01*
X105512389Y-36342972D01*
X105396643Y-36387812D01*
X105223239Y-36495179D01*
X105072516Y-36632581D01*
X104949607Y-36795339D01*
X104858698Y-36977910D01*
X104853526Y-36996088D01*
X104806502Y-37161359D01*
X104802883Y-37174077D01*
X104784065Y-37377160D01*
X103211388Y-37377160D01*
X103209373Y-37366031D01*
X103209167Y-37365024D01*
X103206239Y-37352138D01*
X103166279Y-37192343D01*
X103162289Y-37177903D01*
X103161951Y-37176787D01*
X103159203Y-37168477D01*
X103157336Y-37162830D01*
X103157322Y-37162788D01*
X103157095Y-37162103D01*
X103156856Y-37161438D01*
X103156829Y-37161359D01*
X103097487Y-36996088D01*
X103097465Y-36996019D01*
X103097386Y-36995807D01*
X103097197Y-36995281D01*
X103096051Y-36992089D01*
X103094862Y-36987910D01*
X103093316Y-36984805D01*
X103089938Y-36976045D01*
X103086364Y-36970542D01*
X103083383Y-36964704D01*
X103083414Y-36964688D01*
X103082518Y-36963119D01*
X103006549Y-36810553D01*
X103003953Y-36805339D01*
X102881044Y-36642581D01*
X102730321Y-36505179D01*
X102720507Y-36499102D01*
X102674212Y-36470438D01*
X102556917Y-36397812D01*
X102415358Y-36342972D01*
X102372163Y-36326238D01*
X102372159Y-36326237D01*
X102366736Y-36324136D01*
X102166256Y-36286660D01*
X101962304Y-36286660D01*
X101761824Y-36324136D01*
X101756401Y-36326237D01*
X101756397Y-36326238D01*
X101713202Y-36342972D01*
X101571643Y-36397812D01*
X101454348Y-36470438D01*
X101408054Y-36499102D01*
X101398239Y-36505179D01*
X101247516Y-36642581D01*
X101244004Y-36647232D01*
X101236331Y-36657393D01*
X101179318Y-36699701D01*
X101108481Y-36704469D01*
X101046312Y-36670183D01*
X101012548Y-36607729D01*
X101009780Y-36581462D01*
X101009780Y-35652858D01*
X101029782Y-35584737D01*
X101083438Y-35538244D01*
X101153712Y-35528140D01*
X101218292Y-35557634D01*
X101236328Y-35576924D01*
X101247516Y-35591739D01*
X101398239Y-35729141D01*
X101571643Y-35836508D01*
X101676280Y-35877044D01*
X101756397Y-35908082D01*
X101756401Y-35908083D01*
X101761824Y-35910184D01*
X101962304Y-35947660D01*
X102166256Y-35947660D01*
X102366736Y-35910184D01*
X102372159Y-35908083D01*
X102372163Y-35908082D01*
X102452280Y-35877044D01*
X102556917Y-35836508D01*
X102730321Y-35729141D01*
X102881044Y-35591739D01*
X103003953Y-35428981D01*
X103094862Y-35246410D01*
X103150677Y-35050243D01*
X103168988Y-34852635D01*
X108371763Y-34852635D01*
X108390752Y-35069679D01*
X108392655Y-35080472D01*
X108449044Y-35290921D01*
X108452790Y-35301213D01*
X108544866Y-35498671D01*
X108550349Y-35508166D01*
X108586789Y-35560208D01*
X108597268Y-35568584D01*
X108610714Y-35561516D01*
X109312258Y-34859972D01*
X109319872Y-34846028D01*
X109319741Y-34844195D01*
X109315490Y-34837580D01*
X108609993Y-34132083D01*
X108598218Y-34125653D01*
X108586203Y-34134949D01*
X108550349Y-34186154D01*
X108544866Y-34195649D01*
X108452790Y-34393107D01*
X108449044Y-34403399D01*
X108392655Y-34613848D01*
X108390752Y-34624641D01*
X108371763Y-34841685D01*
X108371763Y-34852635D01*
X103168988Y-34852635D01*
X103169495Y-34847160D01*
X103150677Y-34644077D01*
X103094862Y-34447910D01*
X103003953Y-34265339D01*
X102881044Y-34102581D01*
X102730321Y-33965179D01*
X102556917Y-33857812D01*
X102519591Y-33843352D01*
X102463296Y-33800092D01*
X102439325Y-33733265D01*
X102455289Y-33664086D01*
X102506119Y-33614521D01*
X102565107Y-33599860D01*
X108838389Y-33599860D01*
X108906510Y-33619862D01*
G37*
%TD.AperFunction*%
%TA.AperFunction,Conductor*%
G36*
X101218292Y-40637634D02*
G01*
X101236328Y-40656924D01*
X101247516Y-40671739D01*
X101398239Y-40809141D01*
X101571643Y-40916508D01*
X101634310Y-40940785D01*
X101653688Y-40950275D01*
X101666436Y-40957935D01*
X101672264Y-40960028D01*
X101672265Y-40960028D01*
X101838520Y-41019722D01*
X101838535Y-41019727D01*
X101839228Y-41019976D01*
X101853809Y-41024801D01*
X101854917Y-41025137D01*
X101855628Y-41025334D01*
X101855657Y-41025342D01*
X101864042Y-41027660D01*
X101869460Y-41029158D01*
X101870220Y-41029348D01*
X102028624Y-41068960D01*
X102028650Y-41068966D01*
X102029265Y-41069120D01*
X102029863Y-41069256D01*
X102029901Y-41069265D01*
X102039802Y-41071515D01*
X102042085Y-41072034D01*
X102043086Y-41072239D01*
X102043739Y-41072357D01*
X102043758Y-41072361D01*
X102056048Y-41074588D01*
X102056057Y-41074590D01*
X102056766Y-41074718D01*
X102057485Y-41074831D01*
X102057506Y-41074835D01*
X102172633Y-41093000D01*
X102197676Y-41096951D01*
X102198094Y-41097011D01*
X102198112Y-41097014D01*
X102205359Y-41098059D01*
X102205713Y-41098110D01*
X102206333Y-41098191D01*
X102206695Y-41098233D01*
X102206713Y-41098235D01*
X102214963Y-41099187D01*
X102214991Y-41099190D01*
X102215433Y-41099241D01*
X102215962Y-41099294D01*
X102215971Y-41099295D01*
X102342525Y-41111983D01*
X102343437Y-41112073D01*
X102343568Y-41112086D01*
X102343638Y-41112093D01*
X102408687Y-41118417D01*
X102447524Y-41122193D01*
X102455552Y-41123236D01*
X102504883Y-41131265D01*
X102527931Y-41135017D01*
X102543554Y-41138593D01*
X102597178Y-41154516D01*
X102616116Y-41161846D01*
X102672654Y-41189156D01*
X102689679Y-41199094D01*
X102767441Y-41253056D01*
X102780052Y-41263058D01*
X102894254Y-41366192D01*
X102899178Y-41369217D01*
X102899182Y-41369220D01*
X102900568Y-41370071D01*
X102923707Y-41388335D01*
X103855801Y-42320429D01*
X103855808Y-42320437D01*
X103855811Y-42320442D01*
X103855822Y-42320453D01*
X103895563Y-42360191D01*
X103902281Y-42367458D01*
X103965588Y-42441578D01*
X103994620Y-42506367D01*
X103984016Y-42576567D01*
X103937142Y-42629890D01*
X103886225Y-42648332D01*
X103821820Y-42656812D01*
X103791937Y-42660746D01*
X103664103Y-42713696D01*
X103554329Y-42797929D01*
X103470096Y-42907703D01*
X103466936Y-42915332D01*
X103451444Y-42952734D01*
X103440990Y-42972703D01*
X103436035Y-42980402D01*
X103436032Y-42980408D01*
X103432684Y-42985610D01*
X103422657Y-43011047D01*
X103420892Y-43015633D01*
X103420762Y-43015979D01*
X103419131Y-43020426D01*
X103418996Y-43020804D01*
X103408905Y-43048981D01*
X103408134Y-43051133D01*
X103406256Y-43056534D01*
X103400348Y-43074057D01*
X103379827Y-43111904D01*
X103376587Y-43116006D01*
X103372418Y-43120357D01*
X103369154Y-43125416D01*
X103366394Y-43129693D01*
X103349622Y-43150466D01*
X103316274Y-43183815D01*
X103222641Y-43312690D01*
X103150322Y-43454626D01*
X103148791Y-43459339D01*
X103148789Y-43459343D01*
X103126455Y-43528082D01*
X103101097Y-43606128D01*
X103076179Y-43763465D01*
X103076180Y-43809620D01*
X103076180Y-44884579D01*
X103076187Y-44884626D01*
X103076191Y-44884728D01*
X103076191Y-44898765D01*
X103076190Y-44915632D01*
X103101373Y-45042269D01*
X103103739Y-45047983D01*
X103103740Y-45047985D01*
X103139851Y-45135178D01*
X103150776Y-45161559D01*
X103154211Y-45166701D01*
X103154216Y-45166710D01*
X103192550Y-45224090D01*
X103213780Y-45294084D01*
X103213780Y-45371660D01*
X103193778Y-45439781D01*
X103140122Y-45486274D01*
X103087780Y-45497660D01*
X103028644Y-45497660D01*
X103024137Y-45498317D01*
X103024132Y-45498317D01*
X102985176Y-45503993D01*
X102955655Y-45508294D01*
X102946866Y-45512591D01*
X102946865Y-45512591D01*
X102944617Y-45513690D01*
X102941693Y-45514189D01*
X102937516Y-45515480D01*
X102937346Y-45514931D01*
X102874633Y-45525638D01*
X102833943Y-45513690D01*
X102831695Y-45512591D01*
X102831694Y-45512591D01*
X102822905Y-45508294D01*
X102793384Y-45503993D01*
X102754428Y-45498317D01*
X102754423Y-45498317D01*
X102749916Y-45497660D01*
X102710260Y-45497660D01*
X102642139Y-45477658D01*
X102595646Y-45424002D01*
X102585999Y-45378901D01*
X102584817Y-45379010D01*
X102584249Y-45372823D01*
X102584292Y-45366611D01*
X102583281Y-45361356D01*
X102583152Y-45358552D01*
X102583915Y-45352760D01*
X102565854Y-45215577D01*
X102512904Y-45087743D01*
X102437484Y-44989454D01*
X102433700Y-44984522D01*
X102433697Y-44984519D01*
X102428671Y-44977969D01*
X102377122Y-44938413D01*
X102325448Y-44898762D01*
X102318898Y-44893736D01*
X102300567Y-44886143D01*
X102198691Y-44843945D01*
X102198687Y-44843944D01*
X102191063Y-44840786D01*
X102182883Y-44839709D01*
X102182879Y-44839708D01*
X102062068Y-44823803D01*
X102053880Y-44822725D01*
X101916697Y-44840786D01*
X101788863Y-44893736D01*
X101679089Y-44977969D01*
X101594856Y-45087743D01*
X101541906Y-45215577D01*
X101523845Y-45352760D01*
X101524923Y-45360948D01*
X101540828Y-45481759D01*
X101540829Y-45481763D01*
X101541906Y-45489943D01*
X101564933Y-45545536D01*
X101570728Y-45563063D01*
X101575161Y-45580718D01*
X101592298Y-45616894D01*
X101599460Y-45631050D01*
X101600034Y-45632115D01*
X101607861Y-45645782D01*
X101630457Y-45682979D01*
X101638022Y-45694810D01*
X101638623Y-45695704D01*
X101646794Y-45707271D01*
X101663999Y-45730465D01*
X101688518Y-45797089D01*
X101687902Y-45820554D01*
X101686546Y-45831847D01*
X101686191Y-45834800D01*
X101686095Y-45837406D01*
X101684736Y-45874259D01*
X101684332Y-45885202D01*
X101684508Y-45889045D01*
X101684841Y-45891623D01*
X101687745Y-45914139D01*
X101688780Y-45930259D01*
X101688780Y-47308796D01*
X101689437Y-47313303D01*
X101689437Y-47313308D01*
X101691878Y-47330062D01*
X101699414Y-47381785D01*
X101754454Y-47494371D01*
X101843069Y-47582986D01*
X101852450Y-47587572D01*
X101955655Y-47638026D01*
X101955057Y-47639250D01*
X102005783Y-47672873D01*
X102034361Y-47737864D01*
X102035238Y-47751488D01*
X102034324Y-47758432D01*
X102035402Y-47766620D01*
X102051307Y-47887431D01*
X102051308Y-47887435D01*
X102052385Y-47895615D01*
X102055543Y-47903239D01*
X102055544Y-47903243D01*
X102087463Y-47980303D01*
X102105335Y-48023450D01*
X102110361Y-48030000D01*
X102131959Y-48058147D01*
X102189568Y-48133223D01*
X102299341Y-48217456D01*
X102306970Y-48220616D01*
X102419548Y-48267247D01*
X102419552Y-48267248D01*
X102427176Y-48270406D01*
X102435356Y-48271483D01*
X102435360Y-48271484D01*
X102556171Y-48287389D01*
X102564359Y-48288467D01*
X102572547Y-48287389D01*
X102580806Y-48287389D01*
X102580806Y-48289026D01*
X102641485Y-48298489D01*
X102694582Y-48345619D01*
X102713780Y-48412471D01*
X102713780Y-48620649D01*
X102713760Y-48620837D01*
X102713740Y-48620837D01*
X102713736Y-48742021D01*
X102748222Y-48981923D01*
X102749489Y-48986240D01*
X102749491Y-48986247D01*
X102815235Y-49210164D01*
X102816501Y-49214475D01*
X102818366Y-49218560D01*
X102818368Y-49218564D01*
X102852839Y-49294046D01*
X102917182Y-49434941D01*
X103048217Y-49638834D01*
X103206936Y-49822002D01*
X103390109Y-49980716D01*
X103545805Y-50080768D01*
X103577824Y-50101344D01*
X103624319Y-50154998D01*
X103634425Y-50225271D01*
X103604934Y-50289853D01*
X103545209Y-50328239D01*
X103537381Y-50330101D01*
X103537390Y-50330136D01*
X103279668Y-50393660D01*
X103279665Y-50393661D01*
X103275981Y-50394569D01*
X103024244Y-50490041D01*
X102785851Y-50615160D01*
X102782722Y-50617320D01*
X102782715Y-50617324D01*
X102648719Y-50709815D01*
X102564276Y-50768101D01*
X102362752Y-50946634D01*
X102184216Y-51148157D01*
X102182050Y-51151295D01*
X102182046Y-51151300D01*
X102113596Y-51250466D01*
X102031273Y-51369729D01*
X102029507Y-51373093D01*
X102029505Y-51373097D01*
X102012232Y-51406008D01*
X101906151Y-51608122D01*
X101869706Y-51704216D01*
X101812029Y-51856288D01*
X101812026Y-51856297D01*
X101810676Y-51859857D01*
X101809763Y-51863561D01*
X101751869Y-52098430D01*
X101746240Y-52121265D01*
X101745780Y-52125050D01*
X101745780Y-52125052D01*
X101735615Y-52208757D01*
X101713783Y-52388534D01*
X101713781Y-52489667D01*
X101713780Y-52489672D01*
X101713780Y-52523151D01*
X101713778Y-52584328D01*
X101713780Y-52584335D01*
X101713780Y-58445659D01*
X101711238Y-58470841D01*
X101711142Y-58471313D01*
X101709316Y-58477227D01*
X101707949Y-58490449D01*
X101705502Y-58513756D01*
X101703018Y-58537043D01*
X101700582Y-58559517D01*
X101698121Y-58581846D01*
X101695744Y-58603068D01*
X101693281Y-58624683D01*
X101690851Y-58645643D01*
X101688458Y-58665922D01*
X101686191Y-58684800D01*
X101686095Y-58687406D01*
X101684431Y-58732525D01*
X101684332Y-58735202D01*
X101684508Y-58739045D01*
X101684841Y-58741623D01*
X101687745Y-58764139D01*
X101688780Y-58780259D01*
X101688780Y-60066064D01*
X101687744Y-60082186D01*
X101684508Y-60107268D01*
X101684332Y-60111109D01*
X101686191Y-60161520D01*
X101688458Y-60180397D01*
X101690853Y-60200704D01*
X101690810Y-60200961D01*
X101690883Y-60200953D01*
X101690883Y-60200955D01*
X101693312Y-60221907D01*
X101695679Y-60242678D01*
X101698117Y-60264433D01*
X101700617Y-60287121D01*
X101702994Y-60309044D01*
X101705470Y-60332256D01*
X101707929Y-60355676D01*
X101707892Y-60355877D01*
X101707949Y-60355871D01*
X101709316Y-60369091D01*
X101710770Y-60374272D01*
X101711551Y-60378367D01*
X101713780Y-60401963D01*
X101713780Y-61037067D01*
X101713778Y-61037074D01*
X101713778Y-61037089D01*
X101713780Y-61098149D01*
X101713769Y-61098251D01*
X101713758Y-61098251D01*
X101713761Y-61224455D01*
X101746713Y-61474703D01*
X101812046Y-61718509D01*
X101908642Y-61951702D01*
X102034849Y-62170291D01*
X102188508Y-62370538D01*
X102191426Y-62373456D01*
X102191434Y-62373465D01*
X102203934Y-62385965D01*
X102237960Y-62448277D01*
X102232895Y-62519092D01*
X102190348Y-62575928D01*
X102123828Y-62600739D01*
X102114839Y-62601060D01*
X101962304Y-62601060D01*
X101761824Y-62638536D01*
X101756401Y-62640637D01*
X101756397Y-62640638D01*
X101676280Y-62671676D01*
X101571643Y-62712212D01*
X101398239Y-62819579D01*
X101247516Y-62956981D01*
X101236331Y-62971793D01*
X101179318Y-63014101D01*
X101108481Y-63018869D01*
X101046312Y-62984583D01*
X101012548Y-62922129D01*
X101009780Y-62895862D01*
X101009780Y-40732858D01*
X101029782Y-40664737D01*
X101083438Y-40618244D01*
X101153712Y-40608140D01*
X101218292Y-40637634D01*
G37*
%TD.AperFunction*%
%TA.AperFunction,Conductor*%
G36*
X104641764Y-55746779D02*
G01*
X104641987Y-55746928D01*
X104676633Y-55781607D01*
X104686627Y-55796563D01*
X104705441Y-55841977D01*
X104708465Y-55857175D01*
X104711357Y-55871709D01*
X104713780Y-55896298D01*
X104713780Y-57688066D01*
X104693778Y-57756187D01*
X104640122Y-57802680D01*
X104581227Y-57811504D01*
X104581227Y-57813203D01*
X104572968Y-57813203D01*
X104564780Y-57812125D01*
X104427597Y-57830186D01*
X104299763Y-57883136D01*
X104267482Y-57907906D01*
X104201265Y-57933506D01*
X104131716Y-57919242D01*
X104080919Y-57869641D01*
X104064780Y-57807943D01*
X104064780Y-55935029D01*
X104084782Y-55866908D01*
X104138438Y-55820415D01*
X104207225Y-55810107D01*
X104230089Y-55813117D01*
X104230092Y-55813117D01*
X104238280Y-55814195D01*
X104246468Y-55813117D01*
X104367279Y-55797212D01*
X104367283Y-55797211D01*
X104375463Y-55796134D01*
X104425314Y-55775485D01*
X104444919Y-55769187D01*
X104455390Y-55766746D01*
X104455391Y-55766746D01*
X104461416Y-55765341D01*
X104478872Y-55757433D01*
X104482656Y-55755642D01*
X104487691Y-55753259D01*
X104487718Y-55753246D01*
X104488096Y-55753067D01*
X104488754Y-55752742D01*
X104497575Y-55748206D01*
X104512219Y-55740372D01*
X104581717Y-55725874D01*
X104641764Y-55746779D01*
G37*
%TD.AperFunction*%
%TA.AperFunction,Conductor*%
G36*
X104935543Y-50315428D02*
G01*
X105128694Y-50328091D01*
X105145033Y-50330242D01*
X105270999Y-50355299D01*
X105330839Y-50367202D01*
X105346754Y-50371467D01*
X105412131Y-50393660D01*
X105526138Y-50432361D01*
X105541365Y-50438668D01*
X105711271Y-50522458D01*
X105725544Y-50530699D01*
X105883050Y-50635941D01*
X105896126Y-50645974D01*
X106041782Y-50773711D01*
X106047799Y-50779347D01*
X106482093Y-51213640D01*
X106910989Y-51642536D01*
X106927195Y-51662439D01*
X106933877Y-51672609D01*
X106953137Y-51692168D01*
X106957632Y-51696733D01*
X106959806Y-51698996D01*
X106978770Y-51719239D01*
X106982298Y-51723167D01*
X106990429Y-51732610D01*
X107008990Y-51761249D01*
X107011114Y-51765771D01*
X107012853Y-51769472D01*
X107014700Y-51773594D01*
X107024479Y-51796511D01*
X107025182Y-51798192D01*
X107040078Y-51834548D01*
X107040154Y-51834735D01*
X107040155Y-51834736D01*
X107055050Y-51871042D01*
X107058466Y-51876194D01*
X107062623Y-51882464D01*
X107074017Y-51903874D01*
X107090976Y-51944818D01*
X107175209Y-52054591D01*
X107284982Y-52138824D01*
X107292611Y-52141984D01*
X107405189Y-52188615D01*
X107405193Y-52188616D01*
X107412817Y-52191774D01*
X107420997Y-52192851D01*
X107421001Y-52192852D01*
X107541812Y-52208757D01*
X107550000Y-52209835D01*
X107558188Y-52208757D01*
X107678999Y-52192852D01*
X107679003Y-52192851D01*
X107687183Y-52191774D01*
X107694807Y-52188616D01*
X107694811Y-52188615D01*
X107807385Y-52141986D01*
X107807387Y-52141985D01*
X107815018Y-52138824D01*
X107821572Y-52133795D01*
X107824201Y-52132277D01*
X107893196Y-52115540D01*
X107960288Y-52138761D01*
X107996320Y-52178399D01*
X108013847Y-52208757D01*
X108034880Y-52245189D01*
X108109292Y-52342168D01*
X108186022Y-52442169D01*
X108186028Y-52442175D01*
X108188531Y-52445438D01*
X108367004Y-52623919D01*
X108537032Y-52754391D01*
X108578897Y-52811729D01*
X108583118Y-52882600D01*
X108548352Y-52944502D01*
X108485639Y-52977782D01*
X108430173Y-52976690D01*
X108322081Y-52950049D01*
X108241171Y-52930108D01*
X108237393Y-52929649D01*
X108237386Y-52929648D01*
X108087932Y-52911503D01*
X107973895Y-52897658D01*
X107970085Y-52897658D01*
X107901680Y-52897659D01*
X107837393Y-52880026D01*
X107831003Y-52876235D01*
X107830963Y-52876211D01*
X107830640Y-52876020D01*
X107830073Y-52875694D01*
X107822466Y-52871463D01*
X107799912Y-52859337D01*
X107790780Y-52854624D01*
X107790075Y-52854275D01*
X107780785Y-52849869D01*
X107772088Y-52845922D01*
X107764177Y-52842332D01*
X107764150Y-52842320D01*
X107763599Y-52842070D01*
X107753042Y-52837517D01*
X107740803Y-52834991D01*
X107718061Y-52828002D01*
X107685097Y-52814348D01*
X107685096Y-52814348D01*
X107677463Y-52811186D01*
X107540280Y-52793125D01*
X107403097Y-52811186D01*
X107275263Y-52864136D01*
X107165489Y-52948369D01*
X107081256Y-53058143D01*
X107028306Y-53185977D01*
X107010245Y-53323160D01*
X107011323Y-53331348D01*
X107027228Y-53452159D01*
X107027229Y-53452163D01*
X107028306Y-53460343D01*
X107031464Y-53467967D01*
X107031465Y-53467971D01*
X107064035Y-53546603D01*
X107081256Y-53588178D01*
X107081598Y-53588624D01*
X107097497Y-53654152D01*
X107081884Y-53707324D01*
X107081256Y-53708143D01*
X107078097Y-53715768D01*
X107078096Y-53715771D01*
X107047335Y-53790037D01*
X107028306Y-53835977D01*
X107010245Y-53973160D01*
X107011323Y-53981348D01*
X107027228Y-54102159D01*
X107027229Y-54102163D01*
X107028306Y-54110343D01*
X107031464Y-54117967D01*
X107031465Y-54117971D01*
X107076048Y-54225605D01*
X107081256Y-54238178D01*
X107081598Y-54238624D01*
X107097497Y-54304152D01*
X107081884Y-54357324D01*
X107081256Y-54358143D01*
X107078096Y-54365771D01*
X107073964Y-54372928D01*
X107071747Y-54371648D01*
X107035246Y-54416933D01*
X106967880Y-54439347D01*
X106899091Y-54421782D01*
X106851830Y-54371985D01*
X106716540Y-54114221D01*
X106542974Y-53862775D01*
X106340365Y-53634084D01*
X106285136Y-53585157D01*
X106114521Y-53434009D01*
X106114516Y-53434005D01*
X106111668Y-53431482D01*
X105860218Y-53257923D01*
X105589681Y-53115939D01*
X105586130Y-53114592D01*
X105586127Y-53114591D01*
X105307558Y-53008947D01*
X105307550Y-53008944D01*
X105304002Y-53007599D01*
X105300312Y-53006689D01*
X105300307Y-53006688D01*
X105011044Y-52935394D01*
X105011041Y-52935393D01*
X105007347Y-52934483D01*
X105003565Y-52934024D01*
X105003555Y-52934022D01*
X104864561Y-52917146D01*
X104799348Y-52889080D01*
X104759661Y-52830212D01*
X104754826Y-52775619D01*
X104767237Y-52681349D01*
X104767237Y-52681348D01*
X104768315Y-52673160D01*
X104750254Y-52535977D01*
X104697304Y-52408143D01*
X104696962Y-52407698D01*
X104681063Y-52342168D01*
X104696675Y-52288997D01*
X104697304Y-52288178D01*
X104713753Y-52248467D01*
X104747095Y-52167971D01*
X104747096Y-52167967D01*
X104750254Y-52160343D01*
X104751331Y-52152163D01*
X104751332Y-52152159D01*
X104767237Y-52031348D01*
X104768315Y-52023160D01*
X104750254Y-51885977D01*
X104717672Y-51807316D01*
X104700464Y-51765771D01*
X104700463Y-51765768D01*
X104697304Y-51758143D01*
X104696962Y-51757698D01*
X104681063Y-51692168D01*
X104696675Y-51638997D01*
X104697304Y-51638178D01*
X104702175Y-51626418D01*
X104747095Y-51517971D01*
X104747096Y-51517967D01*
X104750254Y-51510343D01*
X104751331Y-51502163D01*
X104751332Y-51502159D01*
X104767237Y-51381348D01*
X104768315Y-51373160D01*
X104750254Y-51235977D01*
X104712695Y-51145301D01*
X104700464Y-51115771D01*
X104700463Y-51115768D01*
X104697304Y-51108143D01*
X104696962Y-51107698D01*
X104681063Y-51042168D01*
X104696675Y-50988997D01*
X104697304Y-50988178D01*
X104700465Y-50980547D01*
X104747095Y-50867971D01*
X104747096Y-50867967D01*
X104750254Y-50860343D01*
X104751331Y-50852163D01*
X104751332Y-50852159D01*
X104767237Y-50731348D01*
X104768315Y-50723160D01*
X104750254Y-50585977D01*
X104710241Y-50489376D01*
X104702652Y-50418786D01*
X104734432Y-50355299D01*
X104795490Y-50319072D01*
X104826650Y-50315158D01*
X104927300Y-50315158D01*
X104935543Y-50315428D01*
G37*
%TD.AperFunction*%
%TA.AperFunction,Conductor*%
G36*
X105444618Y-47632630D02*
G01*
X105455655Y-47638026D01*
X105483498Y-47642083D01*
X105524132Y-47648003D01*
X105524137Y-47648003D01*
X105528644Y-47648660D01*
X105557511Y-47648660D01*
X105625632Y-47668662D01*
X105646603Y-47685561D01*
X105655032Y-47693989D01*
X105763711Y-47777381D01*
X105777894Y-47785570D01*
X105904455Y-47837993D01*
X105920276Y-47842232D01*
X106021952Y-47855618D01*
X106086879Y-47884340D01*
X106125971Y-47943605D01*
X106126816Y-48014597D01*
X106089146Y-48074776D01*
X106042085Y-48101114D01*
X106021765Y-48107278D01*
X105997542Y-48112095D01*
X105845653Y-48127053D01*
X105833307Y-48127660D01*
X105778191Y-48127659D01*
X105778109Y-48127659D01*
X105778106Y-48127660D01*
X104335480Y-48127660D01*
X104309943Y-48125045D01*
X104298028Y-48122579D01*
X104291841Y-48122531D01*
X104291839Y-48122531D01*
X104264118Y-48122317D01*
X104260990Y-48122254D01*
X104233332Y-48121353D01*
X104228047Y-48121070D01*
X104215612Y-48120141D01*
X104182243Y-48113015D01*
X104173669Y-48109922D01*
X104169452Y-48108315D01*
X104166868Y-48107277D01*
X104146365Y-48099039D01*
X104144725Y-48098366D01*
X104108412Y-48083162D01*
X104108292Y-48083112D01*
X104108143Y-48083049D01*
X104077746Y-48070338D01*
X104077744Y-48070337D01*
X104072035Y-48067950D01*
X104065976Y-48066722D01*
X104065969Y-48066720D01*
X104058605Y-48065228D01*
X104035416Y-48058149D01*
X103994463Y-48041186D01*
X103986283Y-48040109D01*
X103986279Y-48040108D01*
X103865468Y-48024203D01*
X103857280Y-48023125D01*
X103849092Y-48024203D01*
X103728284Y-48040108D01*
X103728283Y-48040108D01*
X103720097Y-48041186D01*
X103719746Y-48041331D01*
X103652419Y-48039731D01*
X103593622Y-47999939D01*
X103565672Y-47934676D01*
X103564780Y-47919713D01*
X103564780Y-47774660D01*
X103584782Y-47706539D01*
X103638438Y-47660046D01*
X103690780Y-47648660D01*
X103749916Y-47648660D01*
X103754423Y-47648003D01*
X103754428Y-47648003D01*
X103795062Y-47642083D01*
X103822905Y-47638026D01*
X103833942Y-47632630D01*
X103836867Y-47632131D01*
X103841044Y-47630840D01*
X103841214Y-47631389D01*
X103903927Y-47620682D01*
X103944618Y-47632630D01*
X103955655Y-47638026D01*
X103983498Y-47642083D01*
X104024132Y-47648003D01*
X104024137Y-47648003D01*
X104028644Y-47648660D01*
X104249916Y-47648660D01*
X104254423Y-47648003D01*
X104254428Y-47648003D01*
X104295062Y-47642083D01*
X104322905Y-47638026D01*
X104333942Y-47632630D01*
X104336867Y-47632131D01*
X104341044Y-47630840D01*
X104341214Y-47631389D01*
X104403927Y-47620682D01*
X104444618Y-47632630D01*
X104455655Y-47638026D01*
X104483498Y-47642083D01*
X104524132Y-47648003D01*
X104524137Y-47648003D01*
X104528644Y-47648660D01*
X104749916Y-47648660D01*
X104754423Y-47648003D01*
X104754428Y-47648003D01*
X104795062Y-47642083D01*
X104822905Y-47638026D01*
X104833942Y-47632630D01*
X104836867Y-47632131D01*
X104841044Y-47630840D01*
X104841214Y-47631389D01*
X104903927Y-47620682D01*
X104944618Y-47632630D01*
X104955655Y-47638026D01*
X104983498Y-47642083D01*
X105024132Y-47648003D01*
X105024137Y-47648003D01*
X105028644Y-47648660D01*
X105249916Y-47648660D01*
X105254423Y-47648003D01*
X105254428Y-47648003D01*
X105295062Y-47642083D01*
X105322905Y-47638026D01*
X105333942Y-47632630D01*
X105336867Y-47632131D01*
X105341044Y-47630840D01*
X105341214Y-47631389D01*
X105403927Y-47620682D01*
X105444618Y-47632630D01*
G37*
%TD.AperFunction*%
%TA.AperFunction,Conductor*%
G36*
X106472153Y-44883662D02*
G01*
X106518646Y-44937318D01*
X106528750Y-45007592D01*
X106499256Y-45072172D01*
X106493138Y-45078745D01*
X106463681Y-45108209D01*
X106461190Y-45110700D01*
X106458909Y-45108419D01*
X106458908Y-45108420D01*
X106461189Y-45110701D01*
X106455649Y-45116242D01*
X106455514Y-45116350D01*
X106455501Y-45116337D01*
X106455376Y-45116462D01*
X106436665Y-45135178D01*
X106409566Y-45162283D01*
X106342762Y-45254254D01*
X106317719Y-45273569D01*
X106319217Y-45275257D01*
X106274420Y-45315017D01*
X106210195Y-45345276D01*
X106139805Y-45336009D01*
X106085600Y-45290158D01*
X106064780Y-45220781D01*
X106064780Y-44989660D01*
X106084782Y-44921539D01*
X106138438Y-44875046D01*
X106190780Y-44863660D01*
X106404032Y-44863660D01*
X106472153Y-44883662D01*
G37*
%TD.AperFunction*%
%TD*%
M02*
