%TF.GenerationSoftware,KiCad,Pcbnew,8.0.8*%
%TF.CreationDate,2025-01-27T20:38:42+01:00*%
%TF.ProjectId,GX4000-SRAM-rounded,47583430-3030-42d5-9352-414d2d726f75,rev?*%
%TF.SameCoordinates,Original*%
%TF.FileFunction,Copper,L2,Inr*%
%TF.FilePolarity,Positive*%
%FSLAX46Y46*%
G04 Gerber Fmt 4.6, Leading zero omitted, Abs format (unit mm)*
G04 Created by KiCad (PCBNEW 8.0.8) date 2025-01-27 20:38:42*
%MOMM*%
%LPD*%
G01*
G04 APERTURE LIST*
%TA.AperFunction,ComponentPad*%
%ADD10C,1.600000*%
%TD*%
%TA.AperFunction,ViaPad*%
%ADD11C,0.450000*%
%TD*%
%TA.AperFunction,Conductor*%
%ADD12C,0.250000*%
%TD*%
%TA.AperFunction,Conductor*%
%ADD13C,0.508000*%
%TD*%
G04 APERTURE END LIST*
D10*
%TO.N,/~{OE}*%
%TO.C,IC10*%
X105395000Y-77927200D03*
%TO.N,/D0*%
X105395000Y-80467200D03*
%TO.N,/D1*%
X105395000Y-83007200D03*
%TO.N,/~{WE}*%
X105395000Y-85547200D03*
%TO.N,/~{RAS}*%
X105395000Y-88087200D03*
%TO.N,/MA6*%
X105395000Y-90627200D03*
%TO.N,/MA5*%
X105395000Y-93167200D03*
%TO.N,/MA4*%
X105395000Y-95707200D03*
%TO.N,VCC*%
X105395000Y-98247200D03*
%TO.N,/MA7*%
X113015000Y-98247200D03*
%TO.N,/MA3*%
X113015000Y-95707200D03*
%TO.N,/MA2*%
X113015000Y-93167200D03*
%TO.N,/MA1*%
X113015000Y-90627200D03*
%TO.N,/MA0*%
X113015000Y-88087200D03*
%TO.N,/D2*%
X113015000Y-85547200D03*
%TO.N,/~{CAS0}*%
X113015000Y-83007200D03*
%TO.N,/D3*%
X113015000Y-80467200D03*
%TO.N,GND*%
X113015000Y-77927200D03*
%TD*%
%TO.N,Net-(CAS1-Pin_1)*%
%TO.C,CAS1*%
X109220000Y-51602800D03*
%TD*%
%TO.N,/~{OE}*%
%TO.C,IC11*%
X105395000Y-49072800D03*
%TO.N,/D4*%
X105395000Y-51612800D03*
%TO.N,/D5*%
X105395000Y-54152800D03*
%TO.N,/D6*%
X113015000Y-56692800D03*
%TO.N,/~{CAS0}*%
X113015000Y-54152800D03*
%TO.N,/D7*%
X113015000Y-51612800D03*
%TO.N,GND*%
X113015000Y-49072800D03*
%TD*%
D11*
%TO.N,VCC*%
X107895500Y-72567800D03*
X109220000Y-72177200D03*
%TO.N,GND*%
X110490000Y-98806000D03*
X109595500Y-59303800D03*
X106290000Y-57480000D03*
X110998000Y-54650800D03*
X113538000Y-76327000D03*
X107696000Y-71541800D03*
X107950000Y-98806000D03*
X106984800Y-49123600D03*
X112776000Y-74930000D03*
X107800000Y-62100000D03*
X111545000Y-75946000D03*
X105980000Y-63660000D03*
X107569000Y-70271800D03*
X109464500Y-86385400D03*
X108350000Y-64850000D03*
X110170000Y-55793800D03*
%TO.N,/~{OE}*%
X105400000Y-59510000D03*
%TO.N,/D0*%
X107696000Y-63413800D03*
%TO.N,/D1*%
X107188000Y-62778800D03*
%TO.N,/~{RAS}*%
X109448600Y-84368800D03*
%TO.N,/MA5*%
X108712000Y-91887200D03*
X107569000Y-68198800D03*
%TO.N,/MA3*%
X108712000Y-93766800D03*
X107569000Y-64948800D03*
%TO.N,/MA2*%
X107569000Y-65598800D03*
X105895079Y-61984072D03*
%TO.N,/MA1*%
X107950000Y-89347200D03*
X107569000Y-66248800D03*
%TO.N,/MA0*%
X108204000Y-88051800D03*
X107569000Y-66898800D03*
%TO.N,/D2*%
X110744500Y-59476800D03*
%TO.N,/D3*%
X111760000Y-59095800D03*
%TO.N,/~{WE}*%
X109474000Y-83007200D03*
%TO.N,/MA6*%
X110617000Y-90591800D03*
X107569000Y-68848800D03*
%TO.N,/MA4*%
X110617000Y-95036800D03*
X107569000Y-67548800D03*
%TO.N,/MA7*%
X107569000Y-69509800D03*
%TO.N,/D6*%
X107395500Y-58710000D03*
%TO.N,/D7*%
X106895500Y-59473800D03*
%TO.N,/A7*%
X110871000Y-69498800D03*
%TO.N,/A6*%
X110871000Y-68848800D03*
%TO.N,/A5*%
X110871000Y-68198800D03*
%TO.N,/A4*%
X110871000Y-67548800D03*
%TO.N,/A3*%
X113227175Y-64948800D03*
%TO.N,/A2*%
X113245141Y-65598800D03*
%TO.N,/A1*%
X113244500Y-66248800D03*
%TO.N,/A0*%
X113244500Y-66898800D03*
%TO.N,/~{CAS0}*%
X109895500Y-75737200D03*
%TO.N,Net-(U3-Pad1)*%
X111544500Y-74848300D03*
X110170000Y-58079800D03*
%TO.N,Net-(U1-~{CE1})*%
X111544500Y-79796800D03*
X110895500Y-64115300D03*
%TD*%
D12*
%TO.N,GND*%
X113015000Y-75169000D02*
X112776000Y-74930000D01*
D13*
X113015000Y-77927200D02*
X113015000Y-75169000D01*
D12*
%TO.N,/D1*%
X107188000Y-62778800D02*
X106934000Y-63032800D01*
X106494660Y-81907540D02*
X105395000Y-83007200D01*
X106934000Y-63032800D02*
X106934000Y-80846880D01*
X106494660Y-81907540D02*
G75*
G03*
X106933986Y-80846880I-1060660J1060640D01*
G01*
%TO.N,/MA2*%
X108470500Y-66958447D02*
X108470500Y-86045980D01*
X107732173Y-65598800D02*
X108031160Y-65897787D01*
X111818340Y-91970540D02*
X113015000Y-93167200D01*
X111379000Y-90197120D02*
X111379000Y-90909880D01*
X107569000Y-65598800D02*
X107732173Y-65598800D01*
X108909840Y-87106640D02*
X110939660Y-89136460D01*
X108470500Y-86045980D02*
G75*
G03*
X108909830Y-87106650I1500000J-20D01*
G01*
X108470500Y-66958447D02*
G75*
G03*
X108031184Y-65897763I-1500000J47D01*
G01*
X111818340Y-91970540D02*
G75*
G02*
X111379014Y-90909880I1060660J1060640D01*
G01*
X111379000Y-90197120D02*
G75*
G03*
X110939670Y-89136450I-1500000J20D01*
G01*
%TO.N,/D2*%
X110490000Y-70437485D02*
X110490000Y-82400880D01*
X110744500Y-59476800D02*
X110489002Y-59732298D01*
X110353158Y-70134958D02*
X110372843Y-70154643D01*
X110929340Y-83461540D02*
X113015000Y-85547200D01*
X110236000Y-60343098D02*
X110236000Y-69852115D01*
X110489002Y-59732298D02*
G75*
G03*
X110235998Y-60343098I610798J-610802D01*
G01*
X110490000Y-70437485D02*
G75*
G03*
X110372836Y-70154650I-400000J-15D01*
G01*
X110353158Y-70134958D02*
G75*
G02*
X110235990Y-69852115I282842J282858D01*
G01*
X110490000Y-82400880D02*
G75*
G03*
X110929330Y-83461550I1500000J-20D01*
G01*
%TO.N,/~{CAS0}*%
X108712000Y-59573322D02*
X108712000Y-58994278D01*
X109895500Y-75737200D02*
X109895500Y-71035449D01*
X109474000Y-70034051D02*
X109474000Y-61412278D01*
X109690474Y-70540474D02*
X109679025Y-70529025D01*
X109092761Y-58075039D02*
X113015000Y-54152800D01*
X109093239Y-60493039D02*
X109092761Y-60492561D01*
X109474000Y-70034051D02*
G75*
G03*
X109679000Y-70529050I700000J-49D01*
G01*
X109092761Y-60492561D02*
G75*
G02*
X108711984Y-59573322I919239J919261D01*
G01*
X109895500Y-71035449D02*
G75*
G03*
X109690499Y-70540449I-700000J49D01*
G01*
X108712000Y-58994278D02*
G75*
G02*
X109092772Y-58075050I1300000J-22D01*
G01*
X109474000Y-61412278D02*
G75*
G03*
X109093228Y-60493050I-1300000J-22D01*
G01*
%TO.N,Net-(U1-~{CE1})*%
X110897462Y-64117262D02*
X110897462Y-65821379D01*
X111334840Y-66764140D02*
X111680160Y-67109460D01*
X112119500Y-68170120D02*
X112119500Y-76250108D01*
X111544500Y-77570692D02*
X111544500Y-79796800D01*
X110895500Y-64115300D02*
X110897462Y-64117262D01*
X111855896Y-76886504D02*
X111808104Y-76934296D01*
X111680160Y-67109460D02*
G75*
G02*
X112119486Y-68170120I-1060660J-1060640D01*
G01*
X112119500Y-76250108D02*
G75*
G02*
X111855892Y-76886500I-900000J8D01*
G01*
X111808104Y-76934296D02*
G75*
G03*
X111544494Y-77570692I636396J-636404D01*
G01*
X110897462Y-65821379D02*
G75*
G03*
X111334856Y-66764124I1516338J130679D01*
G01*
%TD*%
%TA.AperFunction,Conductor*%
%TO.N,GND*%
G36*
X107562203Y-72974431D02*
G01*
X107603700Y-73006273D01*
X107630485Y-73026826D01*
X107702565Y-73056681D01*
X107758317Y-73079774D01*
X107895500Y-73097835D01*
X107902552Y-73096906D01*
X107972699Y-73107844D01*
X108025799Y-73154970D01*
X108045000Y-73221828D01*
X108045000Y-86109889D01*
X108045014Y-86110108D01*
X108045014Y-86172188D01*
X108077955Y-86422424D01*
X108077955Y-86422426D01*
X108110061Y-86542250D01*
X108143281Y-86666233D01*
X108143282Y-86666237D01*
X108143283Y-86666238D01*
X108143283Y-86666240D01*
X108239865Y-86899415D01*
X108239872Y-86899430D01*
X108366067Y-87118014D01*
X108366070Y-87118019D01*
X108366072Y-87118021D01*
X108432979Y-87205218D01*
X108519722Y-87318266D01*
X108519731Y-87318277D01*
X108563884Y-87362430D01*
X108563909Y-87362458D01*
X108576272Y-87374821D01*
X108610298Y-87437133D01*
X108605233Y-87507948D01*
X108562686Y-87564784D01*
X108496166Y-87589595D01*
X108438960Y-87580325D01*
X108341183Y-87539826D01*
X108204000Y-87521765D01*
X108066816Y-87539826D01*
X107938983Y-87592774D01*
X107829208Y-87677008D01*
X107744974Y-87786783D01*
X107692026Y-87914616D01*
X107673965Y-88051800D01*
X107692026Y-88188983D01*
X107744973Y-88316814D01*
X107744975Y-88316817D01*
X107744976Y-88316818D01*
X107829209Y-88426591D01*
X107907218Y-88486450D01*
X107938985Y-88510826D01*
X108011065Y-88540681D01*
X108066817Y-88563774D01*
X108204000Y-88581835D01*
X108341183Y-88563774D01*
X108436353Y-88524353D01*
X108469014Y-88510826D01*
X108469014Y-88510825D01*
X108469018Y-88510824D01*
X108578791Y-88426591D01*
X108663024Y-88316818D01*
X108671254Y-88296950D01*
X108676553Y-88284153D01*
X108715974Y-88188983D01*
X108734035Y-88051800D01*
X108715974Y-87914617D01*
X108675473Y-87816837D01*
X108667884Y-87746247D01*
X108699664Y-87682761D01*
X108760722Y-87646534D01*
X108831674Y-87649068D01*
X108880977Y-87679525D01*
X110635267Y-89433815D01*
X110641984Y-89441080D01*
X110741844Y-89558003D01*
X110753465Y-89573999D01*
X110831197Y-89700849D01*
X110840173Y-89718466D01*
X110897104Y-89855914D01*
X110903214Y-89874719D01*
X110916646Y-89930672D01*
X110913098Y-90001580D01*
X110871777Y-90059313D01*
X110805803Y-90085542D01*
X110761518Y-90081791D01*
X110754185Y-90079826D01*
X110617000Y-90061765D01*
X110479816Y-90079826D01*
X110351983Y-90132774D01*
X110242208Y-90217008D01*
X110157974Y-90326783D01*
X110105026Y-90454616D01*
X110086965Y-90591800D01*
X110105026Y-90728983D01*
X110157973Y-90856814D01*
X110157975Y-90856817D01*
X110157976Y-90856818D01*
X110242209Y-90966591D01*
X110320218Y-91026450D01*
X110351985Y-91050826D01*
X110415728Y-91077228D01*
X110479817Y-91103774D01*
X110617000Y-91121835D01*
X110754183Y-91103774D01*
X110799950Y-91084816D01*
X110870538Y-91077228D01*
X110934025Y-91109007D01*
X110970252Y-91170065D01*
X110973088Y-91184781D01*
X110986455Y-91286324D01*
X110986455Y-91286326D01*
X111015084Y-91393172D01*
X111051781Y-91530133D01*
X111051782Y-91530137D01*
X111051783Y-91530138D01*
X111051783Y-91530140D01*
X111148365Y-91763315D01*
X111148372Y-91763330D01*
X111274567Y-91981914D01*
X111274570Y-91981919D01*
X111274572Y-91981921D01*
X111405243Y-92152218D01*
X111428222Y-92182166D01*
X111428231Y-92182177D01*
X111472384Y-92226330D01*
X111472409Y-92226358D01*
X111508042Y-92261990D01*
X111517463Y-92271411D01*
X111531269Y-92285217D01*
X111553853Y-92307802D01*
X111572189Y-92331063D01*
X111575964Y-92337223D01*
X111575965Y-92337225D01*
X111606860Y-92371435D01*
X111606899Y-92371477D01*
X111679108Y-92451434D01*
X111689101Y-92464033D01*
X111743069Y-92541804D01*
X111752963Y-92558742D01*
X111753282Y-92559403D01*
X111753315Y-92559492D01*
X111753323Y-92559489D01*
X111780309Y-92615357D01*
X111787639Y-92634293D01*
X111803564Y-92687922D01*
X111807138Y-92703539D01*
X111817623Y-92767950D01*
X111818920Y-92775919D01*
X111819964Y-92783965D01*
X111835355Y-92942249D01*
X111835637Y-92943441D01*
X111842912Y-93016002D01*
X111843903Y-93024646D01*
X111843991Y-93025331D01*
X111845206Y-93033799D01*
X111867437Y-93174688D01*
X111867441Y-93174710D01*
X111869907Y-93188327D01*
X111870112Y-93189329D01*
X111873038Y-93202208D01*
X111913002Y-93362023D01*
X111916992Y-93376464D01*
X111917330Y-93377580D01*
X111922187Y-93392265D01*
X111954546Y-93482387D01*
X111981794Y-93558277D01*
X111984388Y-93566348D01*
X111984415Y-93566445D01*
X111985116Y-93568253D01*
X111986722Y-93571785D01*
X111992339Y-93585398D01*
X111992350Y-93585419D01*
X111993032Y-93586417D01*
X112001786Y-93601333D01*
X112075326Y-93749020D01*
X112075327Y-93749021D01*
X112198234Y-93911778D01*
X112348959Y-94049181D01*
X112348960Y-94049182D01*
X112522351Y-94156541D01*
X112522354Y-94156542D01*
X112522363Y-94156548D01*
X112712544Y-94230224D01*
X112913024Y-94267700D01*
X112913026Y-94267700D01*
X113116974Y-94267700D01*
X113116976Y-94267700D01*
X113317456Y-94230224D01*
X113507637Y-94156548D01*
X113681041Y-94049181D01*
X113831764Y-93911779D01*
X113872949Y-93857240D01*
X113929963Y-93814933D01*
X114000799Y-93810165D01*
X114062968Y-93844451D01*
X114096732Y-93906905D01*
X114099500Y-93933172D01*
X114099500Y-94941227D01*
X114079498Y-95009348D01*
X114025842Y-95055841D01*
X113955568Y-95065945D01*
X113890988Y-95036451D01*
X113872950Y-95017159D01*
X113831765Y-94962621D01*
X113681040Y-94825218D01*
X113681039Y-94825217D01*
X113507648Y-94717858D01*
X113507641Y-94717854D01*
X113507637Y-94717852D01*
X113391133Y-94672718D01*
X113317457Y-94644176D01*
X113250629Y-94631684D01*
X113116976Y-94606700D01*
X112913024Y-94606700D01*
X112812784Y-94625438D01*
X112712542Y-94644176D01*
X112565190Y-94701260D01*
X112522363Y-94717852D01*
X112522362Y-94717852D01*
X112522361Y-94717853D01*
X112522351Y-94717858D01*
X112348960Y-94825217D01*
X112348959Y-94825218D01*
X112198234Y-94962621D01*
X112075329Y-95125375D01*
X111984416Y-95307954D01*
X111928603Y-95504115D01*
X111909785Y-95707200D01*
X111928603Y-95910284D01*
X111984416Y-96106445D01*
X111984417Y-96106447D01*
X111984418Y-96106450D01*
X112075327Y-96289021D01*
X112075328Y-96289022D01*
X112075329Y-96289024D01*
X112198234Y-96451778D01*
X112348959Y-96589181D01*
X112348960Y-96589182D01*
X112522351Y-96696541D01*
X112522354Y-96696542D01*
X112522363Y-96696548D01*
X112712544Y-96770224D01*
X112913024Y-96807700D01*
X112913026Y-96807700D01*
X113116974Y-96807700D01*
X113116976Y-96807700D01*
X113317456Y-96770224D01*
X113507637Y-96696548D01*
X113681041Y-96589181D01*
X113831764Y-96451779D01*
X113872949Y-96397240D01*
X113929963Y-96354933D01*
X114000799Y-96350165D01*
X114062968Y-96384451D01*
X114096732Y-96446905D01*
X114099500Y-96473172D01*
X114099500Y-97481227D01*
X114079498Y-97549348D01*
X114025842Y-97595841D01*
X113955568Y-97605945D01*
X113890988Y-97576451D01*
X113872950Y-97557159D01*
X113831765Y-97502621D01*
X113681040Y-97365218D01*
X113681039Y-97365217D01*
X113507648Y-97257858D01*
X113507641Y-97257854D01*
X113507637Y-97257852D01*
X113391133Y-97212718D01*
X113317457Y-97184176D01*
X113250629Y-97171684D01*
X113116976Y-97146700D01*
X112913024Y-97146700D01*
X112812784Y-97165438D01*
X112712542Y-97184176D01*
X112565190Y-97241260D01*
X112522363Y-97257852D01*
X112522362Y-97257852D01*
X112522361Y-97257853D01*
X112522351Y-97257858D01*
X112348960Y-97365217D01*
X112348959Y-97365218D01*
X112198234Y-97502621D01*
X112075329Y-97665375D01*
X111984416Y-97847954D01*
X111928603Y-98044115D01*
X111909785Y-98247200D01*
X111928603Y-98450284D01*
X111984416Y-98646445D01*
X111984417Y-98646447D01*
X111984418Y-98646450D01*
X112075327Y-98829021D01*
X112075328Y-98829022D01*
X112075329Y-98829024D01*
X112198234Y-98991778D01*
X112348959Y-99129181D01*
X112348960Y-99129182D01*
X112522351Y-99236541D01*
X112522354Y-99236542D01*
X112522363Y-99236548D01*
X112542335Y-99244285D01*
X112559691Y-99251009D01*
X112615986Y-99294268D01*
X112639956Y-99361096D01*
X112623992Y-99430274D01*
X112573161Y-99479840D01*
X112514174Y-99494500D01*
X105895826Y-99494500D01*
X105827705Y-99474498D01*
X105781212Y-99420842D01*
X105771108Y-99350568D01*
X105800602Y-99285988D01*
X105850309Y-99251009D01*
X105855642Y-99248942D01*
X105887637Y-99236548D01*
X106061041Y-99129181D01*
X106211764Y-98991779D01*
X106334673Y-98829021D01*
X106425582Y-98646450D01*
X106481397Y-98450283D01*
X106500215Y-98247200D01*
X106481397Y-98044117D01*
X106425582Y-97847950D01*
X106334673Y-97665379D01*
X106289791Y-97605945D01*
X106211765Y-97502621D01*
X106061040Y-97365218D01*
X106061039Y-97365217D01*
X105887648Y-97257858D01*
X105887641Y-97257854D01*
X105887637Y-97257852D01*
X105771133Y-97212718D01*
X105697457Y-97184176D01*
X105630629Y-97171684D01*
X105496976Y-97146700D01*
X105293024Y-97146700D01*
X105192784Y-97165438D01*
X105092542Y-97184176D01*
X104945190Y-97241260D01*
X104902363Y-97257852D01*
X104902362Y-97257852D01*
X104902361Y-97257853D01*
X104902351Y-97257858D01*
X104728960Y-97365217D01*
X104728959Y-97365218D01*
X104578236Y-97502620D01*
X104567049Y-97517434D01*
X104510034Y-97559740D01*
X104439198Y-97564506D01*
X104377030Y-97530219D01*
X104343268Y-97467764D01*
X104340500Y-97441500D01*
X104340500Y-96512899D01*
X104360502Y-96444778D01*
X104414158Y-96398285D01*
X104484432Y-96388181D01*
X104549012Y-96417675D01*
X104567051Y-96436968D01*
X104578235Y-96451779D01*
X104728959Y-96589181D01*
X104728960Y-96589182D01*
X104902351Y-96696541D01*
X104902354Y-96696542D01*
X104902363Y-96696548D01*
X105092544Y-96770224D01*
X105293024Y-96807700D01*
X105293026Y-96807700D01*
X105496974Y-96807700D01*
X105496976Y-96807700D01*
X105697456Y-96770224D01*
X105887637Y-96696548D01*
X106061041Y-96589181D01*
X106211764Y-96451779D01*
X106334673Y-96289021D01*
X106425582Y-96106450D01*
X106481397Y-95910283D01*
X106500215Y-95707200D01*
X106481397Y-95504117D01*
X106425582Y-95307950D01*
X106334673Y-95125379D01*
X106289791Y-95065945D01*
X106267782Y-95036800D01*
X110086965Y-95036800D01*
X110105026Y-95173983D01*
X110157973Y-95301814D01*
X110157975Y-95301817D01*
X110157976Y-95301818D01*
X110242209Y-95411591D01*
X110351982Y-95495824D01*
X110351985Y-95495826D01*
X110424065Y-95525681D01*
X110479817Y-95548774D01*
X110617000Y-95566835D01*
X110754183Y-95548774D01*
X110861997Y-95504117D01*
X110882014Y-95495826D01*
X110882014Y-95495825D01*
X110882018Y-95495824D01*
X110991791Y-95411591D01*
X111076024Y-95301818D01*
X111128974Y-95173983D01*
X111147035Y-95036800D01*
X111128974Y-94899617D01*
X111098158Y-94825219D01*
X111076025Y-94771783D01*
X110991792Y-94662010D01*
X110991789Y-94662008D01*
X110882018Y-94577776D01*
X110882017Y-94577775D01*
X110882014Y-94577773D01*
X110754183Y-94524826D01*
X110617000Y-94506765D01*
X110479816Y-94524826D01*
X110351983Y-94577774D01*
X110242208Y-94662008D01*
X110157974Y-94771783D01*
X110105026Y-94899616D01*
X110086965Y-95036800D01*
X106267782Y-95036800D01*
X106211765Y-94962621D01*
X106061040Y-94825218D01*
X106061039Y-94825217D01*
X105887648Y-94717858D01*
X105887641Y-94717854D01*
X105887637Y-94717852D01*
X105771133Y-94672718D01*
X105697457Y-94644176D01*
X105630629Y-94631684D01*
X105496976Y-94606700D01*
X105293024Y-94606700D01*
X105192784Y-94625438D01*
X105092542Y-94644176D01*
X104945190Y-94701260D01*
X104902363Y-94717852D01*
X104902362Y-94717852D01*
X104902361Y-94717853D01*
X104902351Y-94717858D01*
X104728960Y-94825217D01*
X104728959Y-94825218D01*
X104578236Y-94962620D01*
X104567049Y-94977434D01*
X104510034Y-95019740D01*
X104439198Y-95024506D01*
X104377030Y-94990219D01*
X104343268Y-94927764D01*
X104340500Y-94901500D01*
X104340500Y-93972899D01*
X104360502Y-93904778D01*
X104414158Y-93858285D01*
X104484432Y-93848181D01*
X104549012Y-93877675D01*
X104567051Y-93896968D01*
X104578235Y-93911779D01*
X104728959Y-94049181D01*
X104728960Y-94049182D01*
X104902351Y-94156541D01*
X104902354Y-94156542D01*
X104902363Y-94156548D01*
X105092544Y-94230224D01*
X105293024Y-94267700D01*
X105293026Y-94267700D01*
X105496974Y-94267700D01*
X105496976Y-94267700D01*
X105697456Y-94230224D01*
X105887637Y-94156548D01*
X106061041Y-94049181D01*
X106211764Y-93911779D01*
X106321247Y-93766800D01*
X108181965Y-93766800D01*
X108200026Y-93903983D01*
X108252973Y-94031814D01*
X108252975Y-94031817D01*
X108252976Y-94031818D01*
X108337209Y-94141591D01*
X108446982Y-94225824D01*
X108446985Y-94225826D01*
X108519065Y-94255681D01*
X108574817Y-94278774D01*
X108712000Y-94296835D01*
X108849183Y-94278774D01*
X108944353Y-94239353D01*
X108977014Y-94225826D01*
X108977014Y-94225825D01*
X108977018Y-94225824D01*
X109086791Y-94141591D01*
X109171024Y-94031818D01*
X109223974Y-93903983D01*
X109242035Y-93766800D01*
X109223974Y-93629617D01*
X109200195Y-93572209D01*
X109171025Y-93501783D01*
X109086792Y-93392010D01*
X109086789Y-93392008D01*
X108977018Y-93307776D01*
X108977017Y-93307775D01*
X108977014Y-93307773D01*
X108849183Y-93254826D01*
X108712000Y-93236765D01*
X108574816Y-93254826D01*
X108446983Y-93307774D01*
X108337208Y-93392008D01*
X108252974Y-93501783D01*
X108200026Y-93629616D01*
X108181965Y-93766800D01*
X106321247Y-93766800D01*
X106334673Y-93749021D01*
X106425582Y-93566450D01*
X106481397Y-93370283D01*
X106500215Y-93167200D01*
X106481397Y-92964117D01*
X106425582Y-92767950D01*
X106334673Y-92585379D01*
X106315053Y-92559398D01*
X106211765Y-92422621D01*
X106061040Y-92285218D01*
X106061039Y-92285217D01*
X105887648Y-92177858D01*
X105887641Y-92177854D01*
X105887637Y-92177852D01*
X105771133Y-92132718D01*
X105697457Y-92104176D01*
X105630629Y-92091684D01*
X105496976Y-92066700D01*
X105293024Y-92066700D01*
X105192784Y-92085438D01*
X105092542Y-92104176D01*
X104945190Y-92161260D01*
X104902363Y-92177852D01*
X104902362Y-92177852D01*
X104902361Y-92177853D01*
X104902351Y-92177858D01*
X104728960Y-92285217D01*
X104728959Y-92285218D01*
X104578236Y-92422620D01*
X104567049Y-92437434D01*
X104510034Y-92479740D01*
X104439198Y-92484506D01*
X104377030Y-92450219D01*
X104343268Y-92387764D01*
X104340500Y-92361500D01*
X104340500Y-91887200D01*
X108181965Y-91887200D01*
X108200026Y-92024383D01*
X108252973Y-92152214D01*
X108252975Y-92152217D01*
X108252976Y-92152218D01*
X108337209Y-92261991D01*
X108446982Y-92346224D01*
X108446985Y-92346226D01*
X108519065Y-92376081D01*
X108574817Y-92399174D01*
X108712000Y-92417235D01*
X108849183Y-92399174D01*
X108944353Y-92359753D01*
X108977014Y-92346226D01*
X108977014Y-92346225D01*
X108977018Y-92346224D01*
X109086791Y-92261991D01*
X109171024Y-92152218D01*
X109173914Y-92145242D01*
X109203262Y-92074386D01*
X109223974Y-92024383D01*
X109242035Y-91887200D01*
X109223974Y-91750017D01*
X109192149Y-91673184D01*
X109171025Y-91622183D01*
X109086792Y-91512410D01*
X109086789Y-91512408D01*
X108977018Y-91428176D01*
X108977017Y-91428175D01*
X108977014Y-91428173D01*
X108849183Y-91375226D01*
X108712000Y-91357165D01*
X108574816Y-91375226D01*
X108446983Y-91428174D01*
X108337208Y-91512408D01*
X108252974Y-91622183D01*
X108200026Y-91750016D01*
X108181965Y-91887200D01*
X104340500Y-91887200D01*
X104340500Y-91432899D01*
X104360502Y-91364778D01*
X104414158Y-91318285D01*
X104484432Y-91308181D01*
X104549012Y-91337675D01*
X104567051Y-91356968D01*
X104578235Y-91371779D01*
X104728959Y-91509181D01*
X104728960Y-91509182D01*
X104902351Y-91616541D01*
X104902354Y-91616542D01*
X104902363Y-91616548D01*
X105092544Y-91690224D01*
X105293024Y-91727700D01*
X105293026Y-91727700D01*
X105496974Y-91727700D01*
X105496976Y-91727700D01*
X105697456Y-91690224D01*
X105887637Y-91616548D01*
X106061041Y-91509181D01*
X106211764Y-91371779D01*
X106212791Y-91370420D01*
X106276295Y-91286326D01*
X106334673Y-91209021D01*
X106425582Y-91026450D01*
X106481397Y-90830283D01*
X106500215Y-90627200D01*
X106481397Y-90424117D01*
X106425582Y-90227950D01*
X106334673Y-90045379D01*
X106289791Y-89985945D01*
X106211765Y-89882621D01*
X106061040Y-89745218D01*
X106061039Y-89745217D01*
X105887648Y-89637858D01*
X105887641Y-89637854D01*
X105887637Y-89637852D01*
X105771133Y-89592718D01*
X105697457Y-89564176D01*
X105630629Y-89551684D01*
X105496976Y-89526700D01*
X105293024Y-89526700D01*
X105192784Y-89545438D01*
X105092542Y-89564176D01*
X104968532Y-89612218D01*
X104902363Y-89637852D01*
X104902362Y-89637852D01*
X104902361Y-89637853D01*
X104902351Y-89637858D01*
X104728960Y-89745217D01*
X104728959Y-89745218D01*
X104578236Y-89882620D01*
X104567049Y-89897434D01*
X104510034Y-89939740D01*
X104439198Y-89944506D01*
X104377030Y-89910219D01*
X104343268Y-89847764D01*
X104340500Y-89821500D01*
X104340500Y-89347200D01*
X107419965Y-89347200D01*
X107438026Y-89484383D01*
X107490973Y-89612214D01*
X107490975Y-89612217D01*
X107490976Y-89612218D01*
X107575209Y-89721991D01*
X107684982Y-89806224D01*
X107684985Y-89806226D01*
X107757065Y-89836081D01*
X107812817Y-89859174D01*
X107950000Y-89877235D01*
X108087183Y-89859174D01*
X108182353Y-89819753D01*
X108215014Y-89806226D01*
X108215014Y-89806225D01*
X108215018Y-89806224D01*
X108324791Y-89721991D01*
X108409024Y-89612218D01*
X108461974Y-89484383D01*
X108480035Y-89347200D01*
X108461974Y-89210017D01*
X108437207Y-89150223D01*
X108409025Y-89082183D01*
X108324792Y-88972410D01*
X108324789Y-88972408D01*
X108215018Y-88888176D01*
X108215017Y-88888175D01*
X108215014Y-88888173D01*
X108087183Y-88835226D01*
X107950000Y-88817165D01*
X107812816Y-88835226D01*
X107684983Y-88888174D01*
X107575208Y-88972408D01*
X107490974Y-89082183D01*
X107438026Y-89210016D01*
X107419965Y-89347200D01*
X104340500Y-89347200D01*
X104340500Y-88892899D01*
X104360502Y-88824778D01*
X104414158Y-88778285D01*
X104484432Y-88768181D01*
X104549012Y-88797675D01*
X104567051Y-88816968D01*
X104578235Y-88831779D01*
X104728959Y-88969181D01*
X104728960Y-88969182D01*
X104902351Y-89076541D01*
X104902354Y-89076542D01*
X104902363Y-89076548D01*
X105092544Y-89150224D01*
X105293024Y-89187700D01*
X105293026Y-89187700D01*
X105496974Y-89187700D01*
X105496976Y-89187700D01*
X105697456Y-89150224D01*
X105887637Y-89076548D01*
X106061041Y-88969181D01*
X106211764Y-88831779D01*
X106334673Y-88669021D01*
X106425582Y-88486450D01*
X106481397Y-88290283D01*
X106500215Y-88087200D01*
X106481397Y-87884117D01*
X106425582Y-87687950D01*
X106334673Y-87505379D01*
X106289791Y-87445945D01*
X106211765Y-87342621D01*
X106061040Y-87205218D01*
X106061039Y-87205217D01*
X105887648Y-87097858D01*
X105887641Y-87097854D01*
X105887637Y-87097852D01*
X105771133Y-87052718D01*
X105697457Y-87024176D01*
X105630629Y-87011684D01*
X105496976Y-86986700D01*
X105293024Y-86986700D01*
X105192784Y-87005438D01*
X105092542Y-87024176D01*
X104945190Y-87081260D01*
X104902363Y-87097852D01*
X104902362Y-87097852D01*
X104902361Y-87097853D01*
X104902351Y-87097858D01*
X104728960Y-87205217D01*
X104728959Y-87205218D01*
X104578236Y-87342620D01*
X104567049Y-87357434D01*
X104510034Y-87399740D01*
X104439198Y-87404506D01*
X104377030Y-87370219D01*
X104343268Y-87307764D01*
X104340500Y-87281500D01*
X104340500Y-86352899D01*
X104360502Y-86284778D01*
X104414158Y-86238285D01*
X104484432Y-86228181D01*
X104549012Y-86257675D01*
X104567051Y-86276968D01*
X104578235Y-86291779D01*
X104728959Y-86429181D01*
X104728960Y-86429182D01*
X104902351Y-86536541D01*
X104902354Y-86536542D01*
X104902363Y-86536548D01*
X105092544Y-86610224D01*
X105293024Y-86647700D01*
X105293026Y-86647700D01*
X105496974Y-86647700D01*
X105496976Y-86647700D01*
X105697456Y-86610224D01*
X105887637Y-86536548D01*
X106061041Y-86429181D01*
X106211764Y-86291779D01*
X106334673Y-86129021D01*
X106425582Y-85946450D01*
X106481397Y-85750283D01*
X106500215Y-85547200D01*
X106481397Y-85344117D01*
X106425582Y-85147950D01*
X106334673Y-84965379D01*
X106315053Y-84939398D01*
X106211765Y-84802621D01*
X106061040Y-84665218D01*
X106061039Y-84665217D01*
X105887648Y-84557858D01*
X105887641Y-84557854D01*
X105887637Y-84557852D01*
X105753747Y-84505983D01*
X105697457Y-84484176D01*
X105630629Y-84471684D01*
X105496976Y-84446700D01*
X105293024Y-84446700D01*
X105192784Y-84465438D01*
X105092542Y-84484176D01*
X104945190Y-84541260D01*
X104902363Y-84557852D01*
X104902362Y-84557852D01*
X104902361Y-84557853D01*
X104902351Y-84557858D01*
X104728960Y-84665217D01*
X104728959Y-84665218D01*
X104578236Y-84802620D01*
X104567049Y-84817434D01*
X104510034Y-84859740D01*
X104439198Y-84864506D01*
X104377030Y-84830219D01*
X104343268Y-84767764D01*
X104340500Y-84741500D01*
X104340500Y-83812899D01*
X104360502Y-83744778D01*
X104414158Y-83698285D01*
X104484432Y-83688181D01*
X104549012Y-83717675D01*
X104567051Y-83736968D01*
X104578235Y-83751779D01*
X104728959Y-83889181D01*
X104728960Y-83889182D01*
X104902351Y-83996541D01*
X104902354Y-83996542D01*
X104902363Y-83996548D01*
X105092544Y-84070224D01*
X105293024Y-84107700D01*
X105293026Y-84107700D01*
X105496974Y-84107700D01*
X105496976Y-84107700D01*
X105697456Y-84070224D01*
X105887637Y-83996548D01*
X106061041Y-83889181D01*
X106211764Y-83751779D01*
X106334673Y-83589021D01*
X106425582Y-83406450D01*
X106425698Y-83406038D01*
X106428255Y-83398067D01*
X106434144Y-83381604D01*
X106485884Y-83236968D01*
X106490731Y-83222251D01*
X106491078Y-83221100D01*
X106495269Y-83205765D01*
X106533413Y-83050411D01*
X106536508Y-83036390D01*
X106536716Y-83035330D01*
X106539076Y-83021669D01*
X106559543Y-82884747D01*
X106560754Y-82875727D01*
X106560838Y-82875022D01*
X106561809Y-82865647D01*
X106567222Y-82804117D01*
X106572653Y-82742370D01*
X106572656Y-82742335D01*
X106572683Y-82742029D01*
X106572839Y-82740183D01*
X106572859Y-82739950D01*
X106581114Y-82638181D01*
X106581968Y-82630566D01*
X106592100Y-82559862D01*
X106595317Y-82544400D01*
X106609413Y-82493036D01*
X106616337Y-82473973D01*
X106640894Y-82420300D01*
X106650546Y-82402965D01*
X106700252Y-82328247D01*
X106710145Y-82315286D01*
X106807556Y-82203495D01*
X106809648Y-82199951D01*
X106829056Y-82174911D01*
X106884775Y-82119191D01*
X106884774Y-82119191D01*
X106884786Y-82119180D01*
X107038441Y-81918929D01*
X107164643Y-81700335D01*
X107261233Y-81467138D01*
X107326558Y-81223329D01*
X107359501Y-80973079D01*
X107359500Y-80846874D01*
X107359500Y-80785697D01*
X107359500Y-73074394D01*
X107379502Y-73006273D01*
X107433158Y-72959780D01*
X107503432Y-72949676D01*
X107562203Y-72974431D01*
G37*
%TD.AperFunction*%
%TA.AperFunction,Conductor*%
G36*
X110164194Y-83090225D02*
G01*
X110212573Y-83142186D01*
X110216311Y-83150371D01*
X110259365Y-83254315D01*
X110259372Y-83254330D01*
X110385567Y-83472914D01*
X110385570Y-83472919D01*
X110385572Y-83472921D01*
X110434920Y-83537234D01*
X110539222Y-83673166D01*
X110539231Y-83673177D01*
X110583384Y-83717330D01*
X110583409Y-83717358D01*
X110610830Y-83744778D01*
X110628463Y-83762411D01*
X110671722Y-83805671D01*
X110678903Y-83812852D01*
X110678910Y-83812858D01*
X111553848Y-84687796D01*
X111572189Y-84711062D01*
X111575965Y-84717225D01*
X111606860Y-84751435D01*
X111606899Y-84751477D01*
X111679108Y-84831434D01*
X111689101Y-84844033D01*
X111743069Y-84921804D01*
X111752963Y-84938742D01*
X111753282Y-84939403D01*
X111753315Y-84939492D01*
X111753323Y-84939489D01*
X111780309Y-84995357D01*
X111787639Y-85014293D01*
X111803564Y-85067922D01*
X111807138Y-85083539D01*
X111817623Y-85147950D01*
X111818920Y-85155919D01*
X111819964Y-85163965D01*
X111835355Y-85322249D01*
X111835637Y-85323441D01*
X111842912Y-85396002D01*
X111843903Y-85404646D01*
X111843991Y-85405331D01*
X111845206Y-85413799D01*
X111867437Y-85554688D01*
X111867441Y-85554710D01*
X111869907Y-85568327D01*
X111870112Y-85569329D01*
X111873038Y-85582208D01*
X111913002Y-85742023D01*
X111916992Y-85756464D01*
X111917330Y-85757580D01*
X111922187Y-85772265D01*
X111954546Y-85862387D01*
X111981794Y-85938277D01*
X111984388Y-85946348D01*
X111984415Y-85946445D01*
X111985116Y-85948253D01*
X111986722Y-85951785D01*
X111992339Y-85965398D01*
X111992350Y-85965419D01*
X111993032Y-85966417D01*
X112001786Y-85981333D01*
X112075326Y-86129020D01*
X112075327Y-86129021D01*
X112198234Y-86291778D01*
X112348959Y-86429181D01*
X112348960Y-86429182D01*
X112522351Y-86536541D01*
X112522354Y-86536542D01*
X112522363Y-86536548D01*
X112712544Y-86610224D01*
X112913024Y-86647700D01*
X112913026Y-86647700D01*
X113116974Y-86647700D01*
X113116976Y-86647700D01*
X113317456Y-86610224D01*
X113507637Y-86536548D01*
X113681041Y-86429181D01*
X113831764Y-86291779D01*
X113872949Y-86237240D01*
X113929963Y-86194933D01*
X114000799Y-86190165D01*
X114062968Y-86224451D01*
X114096732Y-86286905D01*
X114099500Y-86313172D01*
X114099500Y-87321227D01*
X114079498Y-87389348D01*
X114025842Y-87435841D01*
X113955568Y-87445945D01*
X113890988Y-87416451D01*
X113872950Y-87397159D01*
X113831765Y-87342621D01*
X113681040Y-87205218D01*
X113681039Y-87205217D01*
X113507648Y-87097858D01*
X113507641Y-87097854D01*
X113507637Y-87097852D01*
X113391133Y-87052718D01*
X113317457Y-87024176D01*
X113250629Y-87011684D01*
X113116976Y-86986700D01*
X112913024Y-86986700D01*
X112812784Y-87005438D01*
X112712542Y-87024176D01*
X112565190Y-87081260D01*
X112522363Y-87097852D01*
X112522362Y-87097852D01*
X112522361Y-87097853D01*
X112522351Y-87097858D01*
X112348960Y-87205217D01*
X112348959Y-87205218D01*
X112198234Y-87342621D01*
X112075329Y-87505375D01*
X111984416Y-87687954D01*
X111928603Y-87884115D01*
X111909785Y-88087200D01*
X111928603Y-88290284D01*
X111984416Y-88486445D01*
X111984417Y-88486447D01*
X111984418Y-88486450D01*
X112075327Y-88669021D01*
X112075328Y-88669022D01*
X112075329Y-88669024D01*
X112198234Y-88831778D01*
X112348959Y-88969181D01*
X112348960Y-88969182D01*
X112522351Y-89076541D01*
X112522354Y-89076542D01*
X112522363Y-89076548D01*
X112712544Y-89150224D01*
X112913024Y-89187700D01*
X112913026Y-89187700D01*
X113116974Y-89187700D01*
X113116976Y-89187700D01*
X113317456Y-89150224D01*
X113507637Y-89076548D01*
X113681041Y-88969181D01*
X113831764Y-88831779D01*
X113872949Y-88777240D01*
X113929963Y-88734933D01*
X114000799Y-88730165D01*
X114062968Y-88764451D01*
X114096732Y-88826905D01*
X114099500Y-88853172D01*
X114099500Y-89861227D01*
X114079498Y-89929348D01*
X114025842Y-89975841D01*
X113955568Y-89985945D01*
X113890988Y-89956451D01*
X113872950Y-89937159D01*
X113831765Y-89882621D01*
X113681040Y-89745218D01*
X113681039Y-89745217D01*
X113507648Y-89637858D01*
X113507641Y-89637854D01*
X113507637Y-89637852D01*
X113391133Y-89592718D01*
X113317457Y-89564176D01*
X113250629Y-89551684D01*
X113116976Y-89526700D01*
X112913024Y-89526700D01*
X112812784Y-89545438D01*
X112712542Y-89564176D01*
X112588532Y-89612218D01*
X112522363Y-89637852D01*
X112522362Y-89637852D01*
X112522361Y-89637853D01*
X112522351Y-89637858D01*
X112348960Y-89745217D01*
X112348959Y-89745218D01*
X112198234Y-89882621D01*
X112075328Y-90045376D01*
X112075327Y-90045377D01*
X112042330Y-90111645D01*
X111994061Y-90163708D01*
X111925306Y-90181410D01*
X111857896Y-90159130D01*
X111813232Y-90103943D01*
X111804618Y-90071925D01*
X111787845Y-89944506D01*
X111771544Y-89820674D01*
X111706219Y-89576867D01*
X111700962Y-89564176D01*
X111609634Y-89343684D01*
X111609633Y-89343683D01*
X111609629Y-89343672D01*
X111497945Y-89150224D01*
X111483432Y-89125085D01*
X111483429Y-89125082D01*
X111483428Y-89125079D01*
X111329775Y-88924830D01*
X111329768Y-88924823D01*
X111329760Y-88924814D01*
X111287332Y-88882385D01*
X111287328Y-88882380D01*
X111280145Y-88875197D01*
X111240537Y-88835589D01*
X111197278Y-88792329D01*
X111197277Y-88792328D01*
X111192877Y-88787928D01*
X111192867Y-88787919D01*
X109214232Y-86809284D01*
X109207515Y-86802019D01*
X109107655Y-86685096D01*
X109096034Y-86669100D01*
X109018302Y-86542250D01*
X109009326Y-86524633D01*
X108952395Y-86387185D01*
X108946285Y-86368380D01*
X108926215Y-86284778D01*
X108911556Y-86223715D01*
X108908464Y-86204190D01*
X108907360Y-86190165D01*
X108896387Y-86050723D01*
X108896000Y-86040842D01*
X108896001Y-85984808D01*
X108896000Y-85984804D01*
X108896000Y-84862656D01*
X108916002Y-84794535D01*
X108969658Y-84748042D01*
X109039932Y-84737938D01*
X109098703Y-84762693D01*
X109170042Y-84817434D01*
X109183585Y-84827826D01*
X109254404Y-84857159D01*
X109311417Y-84880774D01*
X109448600Y-84898835D01*
X109585783Y-84880774D01*
X109680953Y-84841353D01*
X109713614Y-84827826D01*
X109713614Y-84827825D01*
X109713618Y-84827824D01*
X109823391Y-84743591D01*
X109907624Y-84633818D01*
X109960574Y-84505983D01*
X109978635Y-84368800D01*
X109960574Y-84231617D01*
X109941014Y-84184394D01*
X109907625Y-84103783D01*
X109823392Y-83994010D01*
X109813267Y-83986241D01*
X109713618Y-83909776D01*
X109713617Y-83909775D01*
X109713614Y-83909773D01*
X109585783Y-83856826D01*
X109448600Y-83838765D01*
X109311416Y-83856826D01*
X109183586Y-83909773D01*
X109098704Y-83974906D01*
X109032483Y-84000506D01*
X108962934Y-83986241D01*
X108912139Y-83936640D01*
X108896000Y-83874943D01*
X108896000Y-83481566D01*
X108916002Y-83413445D01*
X108969658Y-83366952D01*
X109039932Y-83356848D01*
X109098705Y-83381604D01*
X109099208Y-83381990D01*
X109099209Y-83381991D01*
X109130560Y-83406048D01*
X109208985Y-83466226D01*
X109281065Y-83496081D01*
X109336817Y-83519174D01*
X109474000Y-83537235D01*
X109611183Y-83519174D01*
X109722867Y-83472914D01*
X109739014Y-83466226D01*
X109739014Y-83466225D01*
X109739018Y-83466224D01*
X109848791Y-83381991D01*
X109933024Y-83272218D01*
X109983494Y-83150368D01*
X110028040Y-83095090D01*
X110095403Y-83072668D01*
X110164194Y-83090225D01*
G37*
%TD.AperFunction*%
%TA.AperFunction,Conductor*%
G36*
X114062968Y-54830051D02*
G01*
X114096732Y-54892505D01*
X114099500Y-54918772D01*
X114099500Y-55926827D01*
X114079498Y-55994948D01*
X114025842Y-56041441D01*
X113955568Y-56051545D01*
X113890988Y-56022051D01*
X113872950Y-56002759D01*
X113831765Y-55948221D01*
X113681040Y-55810818D01*
X113681039Y-55810817D01*
X113507648Y-55703458D01*
X113507641Y-55703454D01*
X113507637Y-55703452D01*
X113391133Y-55658318D01*
X113317457Y-55629776D01*
X113232783Y-55613948D01*
X113116976Y-55592300D01*
X112913024Y-55592300D01*
X112853655Y-55603398D01*
X112712542Y-55629776D01*
X112565190Y-55686860D01*
X112522363Y-55703452D01*
X112522362Y-55703452D01*
X112522361Y-55703453D01*
X112522351Y-55703458D01*
X112348960Y-55810817D01*
X112348959Y-55810818D01*
X112198234Y-55948221D01*
X112075329Y-56110975D01*
X111984416Y-56293554D01*
X111928603Y-56489715D01*
X111909785Y-56692800D01*
X111928603Y-56895884D01*
X111984416Y-57092045D01*
X111984417Y-57092047D01*
X111984418Y-57092050D01*
X112075327Y-57274621D01*
X112075328Y-57274622D01*
X112075329Y-57274624D01*
X112198234Y-57437378D01*
X112348959Y-57574781D01*
X112348960Y-57574782D01*
X112522351Y-57682141D01*
X112522354Y-57682142D01*
X112522363Y-57682148D01*
X112712544Y-57755824D01*
X112913024Y-57793300D01*
X112913026Y-57793300D01*
X113116974Y-57793300D01*
X113116976Y-57793300D01*
X113317456Y-57755824D01*
X113507637Y-57682148D01*
X113681041Y-57574781D01*
X113831764Y-57437379D01*
X113872949Y-57382840D01*
X113929963Y-57340533D01*
X114000799Y-57335765D01*
X114062968Y-57370051D01*
X114096732Y-57432505D01*
X114099500Y-57458772D01*
X114099500Y-77149719D01*
X114079498Y-77217840D01*
X114062595Y-77238814D01*
X113374210Y-77927199D01*
X114062595Y-78615584D01*
X114096620Y-78677897D01*
X114099500Y-78704680D01*
X114099500Y-79701227D01*
X114079498Y-79769348D01*
X114025842Y-79815841D01*
X113955568Y-79825945D01*
X113890988Y-79796451D01*
X113872950Y-79777159D01*
X113831765Y-79722621D01*
X113681040Y-79585218D01*
X113681039Y-79585217D01*
X113507648Y-79477858D01*
X113507641Y-79477854D01*
X113507637Y-79477852D01*
X113507632Y-79477850D01*
X113366074Y-79423010D01*
X113309779Y-79379751D01*
X113285809Y-79312923D01*
X113301773Y-79243745D01*
X113352604Y-79194179D01*
X113378981Y-79183812D01*
X113464066Y-79161014D01*
X113464073Y-79161011D01*
X113671497Y-79064288D01*
X113742888Y-79014299D01*
X113742888Y-79014297D01*
X113015001Y-78286410D01*
X113015000Y-78286410D01*
X112287110Y-79014298D01*
X112287110Y-79014300D01*
X112358498Y-79064286D01*
X112565926Y-79161011D01*
X112565933Y-79161014D01*
X112651018Y-79183812D01*
X112711641Y-79220763D01*
X112742663Y-79284624D01*
X112734235Y-79355118D01*
X112689033Y-79409865D01*
X112663925Y-79423010D01*
X112522367Y-79477850D01*
X112522351Y-79477858D01*
X112348960Y-79585217D01*
X112348959Y-79585218D01*
X112246893Y-79678263D01*
X112183076Y-79709373D01*
X112112570Y-79701043D01*
X112057760Y-79655916D01*
X112045600Y-79633367D01*
X112039854Y-79619493D01*
X112033068Y-79597707D01*
X112029708Y-79582041D01*
X112014547Y-79545788D01*
X112014493Y-79545657D01*
X111999283Y-79509333D01*
X111998625Y-79507729D01*
X111989343Y-79484630D01*
X111987731Y-79480400D01*
X111984640Y-79471830D01*
X111977516Y-79438474D01*
X111976583Y-79425980D01*
X111976306Y-79420795D01*
X111975400Y-79393013D01*
X111975340Y-79390014D01*
X111975080Y-79356061D01*
X111974978Y-79350161D01*
X111972815Y-79340105D01*
X111970000Y-79313616D01*
X111970000Y-78665180D01*
X111990002Y-78597059D01*
X112006905Y-78576085D01*
X112665000Y-77917989D01*
X112665000Y-77973278D01*
X112688852Y-78062295D01*
X112734930Y-78142105D01*
X112800095Y-78207270D01*
X112879905Y-78253348D01*
X112968922Y-78277200D01*
X113061078Y-78277200D01*
X113150095Y-78253348D01*
X113229905Y-78207270D01*
X113295070Y-78142105D01*
X113341148Y-78062295D01*
X113365000Y-77973278D01*
X113365000Y-77881122D01*
X113341148Y-77792105D01*
X113295070Y-77712295D01*
X113229905Y-77647130D01*
X113150095Y-77601052D01*
X113061078Y-77577200D01*
X113005789Y-77577200D01*
X113742888Y-76840099D01*
X113742888Y-76840098D01*
X113671501Y-76790113D01*
X113464073Y-76693388D01*
X113464068Y-76693386D01*
X113243000Y-76634151D01*
X113243004Y-76634151D01*
X113015000Y-76614204D01*
X112786997Y-76634151D01*
X112676593Y-76663734D01*
X112605616Y-76662044D01*
X112546821Y-76622249D01*
X112518873Y-76556985D01*
X112521992Y-76513391D01*
X112521515Y-76513296D01*
X112522271Y-76509493D01*
X112522277Y-76509408D01*
X112522318Y-76509258D01*
X112544999Y-76336989D01*
X112544999Y-76320801D01*
X112545000Y-76320792D01*
X112545000Y-76235995D01*
X112545001Y-76188934D01*
X112545000Y-76188930D01*
X112545000Y-68114102D01*
X112545000Y-68105814D01*
X112544985Y-68105589D01*
X112544986Y-68043922D01*
X112538201Y-67992382D01*
X112512044Y-67793675D01*
X112512044Y-67793673D01*
X112495283Y-67731118D01*
X112446719Y-67549867D01*
X112390942Y-67415207D01*
X112350134Y-67316684D01*
X112350133Y-67316683D01*
X112350129Y-67316672D01*
X112296511Y-67223800D01*
X112223932Y-67098085D01*
X112223929Y-67098082D01*
X112223928Y-67098079D01*
X112070275Y-66897830D01*
X112070268Y-66897823D01*
X112070261Y-66897815D01*
X112027829Y-66855383D01*
X112027823Y-66855375D01*
X112014962Y-66842514D01*
X112014960Y-66842513D01*
X111934615Y-66762166D01*
X111934601Y-66762153D01*
X111639704Y-66467256D01*
X111633505Y-66460593D01*
X111617261Y-66441814D01*
X111542337Y-66355199D01*
X111531812Y-66341164D01*
X111529892Y-66338194D01*
X111458477Y-66227695D01*
X111450002Y-66212331D01*
X111393142Y-66089777D01*
X111386883Y-66073385D01*
X111357334Y-65976152D01*
X111347595Y-65944105D01*
X111343677Y-65927014D01*
X111324485Y-65804707D01*
X111322962Y-65785175D01*
X111322962Y-64948800D01*
X112697140Y-64948800D01*
X112715201Y-65085983D01*
X112768150Y-65213818D01*
X112772278Y-65220967D01*
X112771024Y-65221691D01*
X112793405Y-65279595D01*
X112784250Y-65338287D01*
X112733167Y-65461616D01*
X112715106Y-65598800D01*
X112733167Y-65735983D01*
X112789277Y-65871449D01*
X112787001Y-65872391D01*
X112800791Y-65929249D01*
X112787195Y-65975555D01*
X112788636Y-65976152D01*
X112732526Y-66111616D01*
X112714465Y-66248800D01*
X112732526Y-66385983D01*
X112788636Y-66521448D01*
X112786529Y-66522320D01*
X112800471Y-66579803D01*
X112787056Y-66625498D01*
X112788636Y-66626153D01*
X112732526Y-66761616D01*
X112714465Y-66898800D01*
X112732526Y-67035983D01*
X112785473Y-67163814D01*
X112785475Y-67163817D01*
X112785476Y-67163818D01*
X112869709Y-67273591D01*
X112979482Y-67357824D01*
X112979485Y-67357826D01*
X113051565Y-67387681D01*
X113107317Y-67410774D01*
X113244500Y-67428835D01*
X113381683Y-67410774D01*
X113476853Y-67371353D01*
X113509514Y-67357826D01*
X113509514Y-67357825D01*
X113509518Y-67357824D01*
X113619291Y-67273591D01*
X113703524Y-67163818D01*
X113756474Y-67035983D01*
X113774535Y-66898800D01*
X113756474Y-66761617D01*
X113733245Y-66705538D01*
X113700364Y-66626152D01*
X113702473Y-66625278D01*
X113688527Y-66567820D01*
X113701952Y-66522106D01*
X113700364Y-66521449D01*
X113733348Y-66441814D01*
X113756474Y-66385983D01*
X113774535Y-66248800D01*
X113756474Y-66111617D01*
X113733245Y-66055538D01*
X113700364Y-65976152D01*
X113702644Y-65975207D01*
X113688846Y-65918388D01*
X113702450Y-65872048D01*
X113701004Y-65871449D01*
X113728649Y-65804707D01*
X113757115Y-65735983D01*
X113775176Y-65598800D01*
X113757115Y-65461617D01*
X113704165Y-65333783D01*
X113700038Y-65326634D01*
X113701293Y-65325908D01*
X113678911Y-65268019D01*
X113688065Y-65209314D01*
X113703098Y-65173018D01*
X113739149Y-65085983D01*
X113757210Y-64948800D01*
X113739149Y-64811617D01*
X113719589Y-64764394D01*
X113686200Y-64683783D01*
X113601967Y-64574010D01*
X113601964Y-64574008D01*
X113492193Y-64489776D01*
X113492192Y-64489775D01*
X113492189Y-64489773D01*
X113364358Y-64436826D01*
X113227175Y-64418765D01*
X113089991Y-64436826D01*
X112962158Y-64489774D01*
X112852383Y-64574008D01*
X112768149Y-64683783D01*
X112715201Y-64811616D01*
X112697140Y-64948800D01*
X111322962Y-64948800D01*
X111322962Y-64593594D01*
X111325266Y-64569610D01*
X111328033Y-64555340D01*
X111328262Y-64521030D01*
X111328313Y-64518201D01*
X111329153Y-64489601D01*
X111329397Y-64484644D01*
X111330362Y-64470630D01*
X111337205Y-64437472D01*
X111339931Y-64429722D01*
X111341585Y-64425291D01*
X111350397Y-64402999D01*
X111351137Y-64401170D01*
X111365964Y-64365443D01*
X111366222Y-64364822D01*
X111366225Y-64364823D01*
X111366288Y-64364663D01*
X111380838Y-64329777D01*
X111383388Y-64323466D01*
X111385486Y-64312435D01*
X111392856Y-64287773D01*
X111407474Y-64252483D01*
X111425535Y-64115300D01*
X111407474Y-63978117D01*
X111363861Y-63872824D01*
X111354525Y-63850283D01*
X111270292Y-63740510D01*
X111160514Y-63656273D01*
X111032683Y-63603326D01*
X110895500Y-63585265D01*
X110895499Y-63585265D01*
X110803946Y-63597318D01*
X110733797Y-63586379D01*
X110680699Y-63539250D01*
X110661500Y-63472396D01*
X110661500Y-60349285D01*
X110662107Y-60336936D01*
X110668489Y-60272135D01*
X110668706Y-60269935D01*
X110673521Y-60245726D01*
X110691263Y-60187237D01*
X110700713Y-60164426D01*
X110729520Y-60110531D01*
X110743234Y-60090006D01*
X110778677Y-60046819D01*
X110837351Y-60006853D01*
X110837950Y-60006661D01*
X110838007Y-60006644D01*
X110841481Y-60005544D01*
X110841647Y-60005490D01*
X110841695Y-60005475D01*
X110841724Y-60005465D01*
X110841750Y-60005457D01*
X110845319Y-60004278D01*
X110883392Y-59991445D01*
X110889634Y-59989266D01*
X110890110Y-59989094D01*
X110896293Y-59986784D01*
X110929464Y-59973981D01*
X110931831Y-59973056D01*
X110932056Y-59972967D01*
X110942067Y-59968800D01*
X110950356Y-59963165D01*
X110972969Y-59950961D01*
X111009518Y-59935824D01*
X111119291Y-59851591D01*
X111203524Y-59741818D01*
X111204769Y-59738814D01*
X111226468Y-59686425D01*
X111256474Y-59613983D01*
X111256945Y-59610402D01*
X111258183Y-59607603D01*
X111258612Y-59606005D01*
X111258861Y-59606071D01*
X111285664Y-59545478D01*
X111344927Y-59506384D01*
X111415919Y-59505535D01*
X111458571Y-59526885D01*
X111494982Y-59554825D01*
X111567103Y-59584697D01*
X111622817Y-59607774D01*
X111760000Y-59625835D01*
X111897183Y-59607774D01*
X111992353Y-59568353D01*
X112025014Y-59554826D01*
X112025014Y-59554825D01*
X112025018Y-59554824D01*
X112134791Y-59470591D01*
X112219024Y-59360818D01*
X112226378Y-59343065D01*
X112239773Y-59310725D01*
X112271974Y-59232983D01*
X112290035Y-59095800D01*
X112271974Y-58958617D01*
X112239901Y-58881184D01*
X112219025Y-58830783D01*
X112134792Y-58721010D01*
X112134789Y-58721008D01*
X112025018Y-58636776D01*
X112025017Y-58636775D01*
X112025014Y-58636773D01*
X111897183Y-58583826D01*
X111760000Y-58565765D01*
X111622816Y-58583826D01*
X111494983Y-58636774D01*
X111385208Y-58721008D01*
X111300974Y-58830783D01*
X111248025Y-58958618D01*
X111248025Y-58958619D01*
X111247553Y-58962204D01*
X111246314Y-58965003D01*
X111245888Y-58966595D01*
X111245639Y-58966528D01*
X111218828Y-59027130D01*
X111159561Y-59066219D01*
X111088569Y-59067060D01*
X111045928Y-59045714D01*
X111009517Y-59017774D01*
X110881683Y-58964826D01*
X110744500Y-58946765D01*
X110607316Y-58964826D01*
X110479483Y-59017774D01*
X110369708Y-59102008D01*
X110285478Y-59211779D01*
X110285475Y-59211783D01*
X110270969Y-59246804D01*
X110259046Y-59269002D01*
X110251686Y-59279922D01*
X110251682Y-59279928D01*
X110238360Y-59310725D01*
X110236291Y-59315260D01*
X110225675Y-59337358D01*
X110222752Y-59343065D01*
X110216296Y-59354918D01*
X110212608Y-59361244D01*
X110208398Y-59368006D01*
X110204595Y-59373758D01*
X110198765Y-59382071D01*
X110195946Y-59385933D01*
X110184293Y-59401276D01*
X110183271Y-59402603D01*
X110174929Y-59413287D01*
X110164868Y-59426175D01*
X110164782Y-59426285D01*
X110164772Y-59426299D01*
X110163192Y-59428341D01*
X110140527Y-59457906D01*
X110140528Y-59457907D01*
X110139370Y-59459424D01*
X110136185Y-59463703D01*
X110110130Y-59499342D01*
X110108190Y-59502026D01*
X110107987Y-59502310D01*
X110104977Y-59506601D01*
X110081232Y-59541084D01*
X110078678Y-59544853D01*
X110078597Y-59544976D01*
X110074942Y-59550591D01*
X110074936Y-59550602D01*
X110072165Y-59557517D01*
X110057148Y-59584697D01*
X109997095Y-59667353D01*
X109904959Y-59848178D01*
X109842247Y-60041182D01*
X109834937Y-60087336D01*
X109811559Y-60234945D01*
X109810500Y-60241630D01*
X109810500Y-60339374D01*
X109790498Y-60407495D01*
X109736842Y-60453988D01*
X109666568Y-60464092D01*
X109601988Y-60434598D01*
X109584539Y-60416080D01*
X109474082Y-60272135D01*
X109474080Y-60272132D01*
X109447269Y-60245321D01*
X109447260Y-60245310D01*
X109426567Y-60224618D01*
X109397128Y-60195180D01*
X109390435Y-60187940D01*
X109310947Y-60094874D01*
X109299331Y-60078886D01*
X109237980Y-59978773D01*
X109229011Y-59961169D01*
X109218512Y-59935824D01*
X109184085Y-59852711D01*
X109177976Y-59833914D01*
X109150566Y-59719751D01*
X109147476Y-59700235D01*
X109137889Y-59578445D01*
X109137500Y-59568558D01*
X109137500Y-58999231D01*
X109137889Y-58989344D01*
X109141910Y-58938258D01*
X109147491Y-58867364D01*
X109150583Y-58847844D01*
X109150742Y-58847183D01*
X109177992Y-58733685D01*
X109184094Y-58714902D01*
X109229028Y-58606427D01*
X109238000Y-58588821D01*
X109299342Y-58488725D01*
X109310959Y-58472734D01*
X109390583Y-58379509D01*
X109397258Y-58372289D01*
X109436891Y-58332658D01*
X109436891Y-58332657D01*
X109447259Y-58322290D01*
X109447267Y-58322280D01*
X109493797Y-58275749D01*
X109556107Y-58241725D01*
X109626922Y-58246790D01*
X109683758Y-58289337D01*
X109699299Y-58316628D01*
X109710974Y-58344815D01*
X109710975Y-58344817D01*
X109710976Y-58344818D01*
X109795209Y-58454591D01*
X109904982Y-58538824D01*
X109904985Y-58538826D01*
X109977065Y-58568681D01*
X110032817Y-58591774D01*
X110170000Y-58609835D01*
X110307183Y-58591774D01*
X110402353Y-58552353D01*
X110435014Y-58538826D01*
X110435014Y-58538825D01*
X110435018Y-58538824D01*
X110544791Y-58454591D01*
X110629024Y-58344818D01*
X110638362Y-58322275D01*
X110642553Y-58312153D01*
X110681974Y-58216983D01*
X110700035Y-58079800D01*
X110681974Y-57942617D01*
X110645327Y-57854142D01*
X110629025Y-57814783D01*
X110544792Y-57705010D01*
X110514998Y-57682148D01*
X110435018Y-57620776D01*
X110435017Y-57620775D01*
X110435015Y-57620774D01*
X110406828Y-57609099D01*
X110351547Y-57564551D01*
X110329126Y-57497188D01*
X110346684Y-57428396D01*
X110365947Y-57403599D01*
X112155602Y-55613944D01*
X112178863Y-55595608D01*
X112185028Y-55591831D01*
X112299247Y-55488677D01*
X112311831Y-55478696D01*
X112389614Y-55424719D01*
X112406607Y-55414801D01*
X112463172Y-55387478D01*
X112482084Y-55380159D01*
X112535714Y-55364233D01*
X112551334Y-55360658D01*
X112623734Y-55348874D01*
X112631769Y-55347830D01*
X112735806Y-55337716D01*
X112735805Y-55337714D01*
X112736587Y-55337639D01*
X112736688Y-55337630D01*
X112736759Y-55337623D01*
X112790040Y-55332443D01*
X112791229Y-55332161D01*
X112863829Y-55324882D01*
X112868860Y-55324304D01*
X112872551Y-55323881D01*
X112873178Y-55323800D01*
X112873206Y-55323796D01*
X112881624Y-55322587D01*
X113022508Y-55300357D01*
X113035997Y-55297918D01*
X113036204Y-55297875D01*
X113037007Y-55297712D01*
X113039038Y-55297250D01*
X113050020Y-55294758D01*
X113209815Y-55254798D01*
X113224255Y-55250808D01*
X113225371Y-55250470D01*
X113240053Y-55245615D01*
X113412842Y-55183576D01*
X113419498Y-55181098D01*
X113420009Y-55180901D01*
X113433206Y-55175456D01*
X113436306Y-55173337D01*
X113461884Y-55159871D01*
X113507637Y-55142148D01*
X113681041Y-55034781D01*
X113831764Y-54897379D01*
X113872949Y-54842840D01*
X113929963Y-54800533D01*
X114000799Y-54795765D01*
X114062968Y-54830051D01*
G37*
%TD.AperFunction*%
%TA.AperFunction,Conductor*%
G36*
X112231742Y-47845502D02*
G01*
X112278235Y-47899158D01*
X112289141Y-47962483D01*
X112287109Y-47985699D01*
X113024211Y-48722800D01*
X112968922Y-48722800D01*
X112879905Y-48746652D01*
X112800095Y-48792730D01*
X112734930Y-48857895D01*
X112688852Y-48937705D01*
X112665000Y-49026722D01*
X112665000Y-49118878D01*
X112688852Y-49207895D01*
X112734930Y-49287705D01*
X112800095Y-49352870D01*
X112879905Y-49398948D01*
X112968922Y-49422800D01*
X113061078Y-49422800D01*
X113150095Y-49398948D01*
X113229905Y-49352870D01*
X113295070Y-49287705D01*
X113341148Y-49207895D01*
X113365000Y-49118878D01*
X113365000Y-49063590D01*
X114062595Y-49761185D01*
X114096621Y-49823497D01*
X114099500Y-49850280D01*
X114099500Y-50846827D01*
X114079498Y-50914948D01*
X114025842Y-50961441D01*
X113955568Y-50971545D01*
X113890988Y-50942051D01*
X113872950Y-50922759D01*
X113831765Y-50868221D01*
X113681040Y-50730818D01*
X113681039Y-50730817D01*
X113507648Y-50623458D01*
X113507641Y-50623454D01*
X113507637Y-50623452D01*
X113507632Y-50623450D01*
X113366074Y-50568610D01*
X113309779Y-50525351D01*
X113285809Y-50458523D01*
X113301773Y-50389345D01*
X113352604Y-50339779D01*
X113378981Y-50329412D01*
X113464066Y-50306614D01*
X113464073Y-50306611D01*
X113671497Y-50209888D01*
X113742888Y-50159899D01*
X113742888Y-50159897D01*
X113015001Y-49432010D01*
X113015000Y-49432010D01*
X112287110Y-50159898D01*
X112287110Y-50159900D01*
X112358498Y-50209886D01*
X112565926Y-50306611D01*
X112565933Y-50306614D01*
X112651018Y-50329412D01*
X112711641Y-50366363D01*
X112742663Y-50430224D01*
X112734235Y-50500718D01*
X112689033Y-50555465D01*
X112663925Y-50568610D01*
X112522367Y-50623450D01*
X112522351Y-50623458D01*
X112348960Y-50730817D01*
X112348959Y-50730818D01*
X112198234Y-50868221D01*
X112075329Y-51030975D01*
X111984416Y-51213554D01*
X111928603Y-51409715D01*
X111909785Y-51612800D01*
X111928603Y-51815884D01*
X111984416Y-52012045D01*
X111984417Y-52012047D01*
X111984418Y-52012050D01*
X112075327Y-52194621D01*
X112075328Y-52194622D01*
X112075329Y-52194624D01*
X112198234Y-52357378D01*
X112348959Y-52494781D01*
X112348960Y-52494782D01*
X112522351Y-52602141D01*
X112522354Y-52602142D01*
X112522363Y-52602148D01*
X112712544Y-52675824D01*
X112913024Y-52713300D01*
X112913026Y-52713300D01*
X113116974Y-52713300D01*
X113116976Y-52713300D01*
X113317456Y-52675824D01*
X113507637Y-52602148D01*
X113681041Y-52494781D01*
X113831764Y-52357379D01*
X113872949Y-52302840D01*
X113929963Y-52260533D01*
X114000799Y-52255765D01*
X114062968Y-52290051D01*
X114096732Y-52352505D01*
X114099500Y-52378772D01*
X114099500Y-53386827D01*
X114079498Y-53454948D01*
X114025842Y-53501441D01*
X113955568Y-53511545D01*
X113890988Y-53482051D01*
X113872950Y-53462759D01*
X113831765Y-53408221D01*
X113681040Y-53270818D01*
X113681039Y-53270817D01*
X113507648Y-53163458D01*
X113507641Y-53163454D01*
X113507637Y-53163452D01*
X113391133Y-53118318D01*
X113317457Y-53089776D01*
X113250629Y-53077284D01*
X113116976Y-53052300D01*
X112913024Y-53052300D01*
X112812784Y-53071038D01*
X112712542Y-53089776D01*
X112565190Y-53146860D01*
X112522363Y-53163452D01*
X112522362Y-53163452D01*
X112522361Y-53163453D01*
X112522351Y-53163458D01*
X112348960Y-53270817D01*
X112348959Y-53270818D01*
X112198234Y-53408221D01*
X112075329Y-53570975D01*
X111984417Y-53753551D01*
X111984415Y-53753557D01*
X111984386Y-53753660D01*
X111981793Y-53761725D01*
X111922179Y-53927755D01*
X111917360Y-53942313D01*
X111917035Y-53943383D01*
X111915285Y-53949715D01*
X111913000Y-53957979D01*
X111912996Y-53957996D01*
X111873041Y-54117770D01*
X111870050Y-54130961D01*
X111869853Y-54131926D01*
X111868379Y-54140088D01*
X111867443Y-54145276D01*
X111845207Y-54286191D01*
X111843985Y-54294714D01*
X111843980Y-54294754D01*
X111843906Y-54295323D01*
X111842912Y-54303994D01*
X111830179Y-54430997D01*
X111830180Y-54430998D01*
X111830071Y-54432098D01*
X111819963Y-54536038D01*
X111818919Y-54544084D01*
X111807141Y-54616448D01*
X111803564Y-54632075D01*
X111787639Y-54685703D01*
X111780309Y-54704639D01*
X111753004Y-54761167D01*
X111743065Y-54778197D01*
X111689106Y-54855956D01*
X111679100Y-54868570D01*
X111575964Y-54982776D01*
X111575963Y-54982777D01*
X111572081Y-54989096D01*
X111553823Y-55012227D01*
X108746837Y-57819213D01*
X108746672Y-57819400D01*
X108711942Y-57854129D01*
X108711929Y-57854144D01*
X108574230Y-58033591D01*
X108461140Y-58229464D01*
X108461133Y-58229479D01*
X108374576Y-58438436D01*
X108316030Y-58656918D01*
X108316029Y-58656923D01*
X108308397Y-58714890D01*
X108286502Y-58881175D01*
X108286501Y-58881184D01*
X108286500Y-58938253D01*
X108286500Y-58938256D01*
X108286500Y-58938260D01*
X108286500Y-58970496D01*
X108286500Y-58994271D01*
X108286499Y-59045714D01*
X108286498Y-59065590D01*
X108286500Y-59065615D01*
X108286500Y-59503358D01*
X108286498Y-59503388D01*
X108286498Y-59521125D01*
X108286484Y-59521172D01*
X108286486Y-59686418D01*
X108286486Y-59686420D01*
X108286487Y-59686425D01*
X108307176Y-59843552D01*
X108316016Y-59910687D01*
X108374560Y-60129161D01*
X108461120Y-60338129D01*
X108461128Y-60338145D01*
X108574220Y-60534021D01*
X108711911Y-60713457D01*
X108711915Y-60713462D01*
X108711920Y-60713468D01*
X108711923Y-60713471D01*
X108711924Y-60713472D01*
X108741921Y-60743468D01*
X108741932Y-60743481D01*
X108749108Y-60750657D01*
X108749109Y-60750658D01*
X108788870Y-60790418D01*
X108795573Y-60797670D01*
X108875050Y-60890724D01*
X108886670Y-60906715D01*
X108948016Y-61006821D01*
X108956988Y-61024430D01*
X109001914Y-61132888D01*
X109008024Y-61151691D01*
X109035431Y-61265841D01*
X109038524Y-61285369D01*
X109048111Y-61407152D01*
X109048500Y-61417040D01*
X109048500Y-66317096D01*
X109028498Y-66385217D01*
X108974842Y-66431710D01*
X108904568Y-66441814D01*
X108839988Y-66412320D01*
X108801604Y-66352594D01*
X108800804Y-66349748D01*
X108797711Y-66338202D01*
X108701128Y-66105013D01*
X108701128Y-66105012D01*
X108687725Y-66081796D01*
X108574927Y-65886413D01*
X108421277Y-65686162D01*
X108421275Y-65686159D01*
X108394651Y-65659534D01*
X108377588Y-65642470D01*
X108377564Y-65642442D01*
X108332045Y-65596924D01*
X108332042Y-65596918D01*
X108332041Y-65596920D01*
X108282858Y-65547733D01*
X108282825Y-65547704D01*
X108260991Y-65525870D01*
X108246685Y-65508777D01*
X108237186Y-65495135D01*
X108205580Y-65464010D01*
X108205448Y-65463880D01*
X108205448Y-65463879D01*
X108204402Y-65462856D01*
X108204073Y-65462536D01*
X108201542Y-65460101D01*
X108168238Y-65428437D01*
X108166657Y-65426945D01*
X108166572Y-65426866D01*
X108163805Y-65424301D01*
X108135180Y-65398107D01*
X108132620Y-65395791D01*
X108132570Y-65395746D01*
X108132419Y-65395611D01*
X108131099Y-65394438D01*
X108120747Y-65385290D01*
X108115104Y-65379983D01*
X108064392Y-65329271D01*
X108030366Y-65266959D01*
X108035431Y-65196144D01*
X108037078Y-65191959D01*
X108080974Y-65085983D01*
X108099035Y-64948800D01*
X108080974Y-64811617D01*
X108061414Y-64764394D01*
X108028025Y-64683783D01*
X107943792Y-64574010D01*
X107943789Y-64574008D01*
X107834018Y-64489776D01*
X107834017Y-64489775D01*
X107834014Y-64489773D01*
X107706183Y-64436826D01*
X107569000Y-64418765D01*
X107501947Y-64427593D01*
X107431798Y-64416654D01*
X107378699Y-64369526D01*
X107359500Y-64302671D01*
X107359500Y-64031786D01*
X107379502Y-63963665D01*
X107433158Y-63917172D01*
X107503432Y-63907068D01*
X107533709Y-63915374D01*
X107558817Y-63925774D01*
X107696000Y-63943835D01*
X107833183Y-63925774D01*
X107928353Y-63886353D01*
X107961014Y-63872826D01*
X107961014Y-63872825D01*
X107961018Y-63872824D01*
X108070791Y-63788591D01*
X108155024Y-63678818D01*
X108207974Y-63550983D01*
X108226035Y-63413800D01*
X108207974Y-63276617D01*
X108188414Y-63229394D01*
X108155025Y-63148783D01*
X108070792Y-63039010D01*
X108065696Y-63035100D01*
X107961018Y-62954776D01*
X107961017Y-62954775D01*
X107961014Y-62954773D01*
X107833181Y-62901825D01*
X107833179Y-62901824D01*
X107827584Y-62901088D01*
X107762658Y-62872363D01*
X107723568Y-62813097D01*
X107719645Y-62786918D01*
X107719113Y-62786989D01*
X107718035Y-62778800D01*
X107699974Y-62641617D01*
X107680414Y-62594394D01*
X107647025Y-62513783D01*
X107562792Y-62404010D01*
X107562789Y-62404008D01*
X107453018Y-62319776D01*
X107453017Y-62319775D01*
X107453014Y-62319773D01*
X107325183Y-62266826D01*
X107188000Y-62248765D01*
X107050816Y-62266826D01*
X106922983Y-62319774D01*
X106813208Y-62404008D01*
X106728980Y-62513776D01*
X106728973Y-62513788D01*
X106716495Y-62543912D01*
X106703210Y-62568090D01*
X106697444Y-62576301D01*
X106697442Y-62576305D01*
X106682053Y-62610093D01*
X106678093Y-62618033D01*
X106665922Y-62640427D01*
X106662181Y-62646852D01*
X106648233Y-62669256D01*
X106646123Y-62672530D01*
X106627336Y-62700724D01*
X106624920Y-62704406D01*
X106604854Y-62735485D01*
X106599400Y-62744256D01*
X106599025Y-62744883D01*
X106593624Y-62754274D01*
X106576487Y-62785344D01*
X106568381Y-62801105D01*
X106567833Y-62802251D01*
X106560798Y-62818102D01*
X106549683Y-62845189D01*
X106542239Y-62860348D01*
X106537497Y-62868561D01*
X106537496Y-62868564D01*
X106508500Y-62976781D01*
X106508500Y-63014568D01*
X106507726Y-63028512D01*
X106507120Y-63033952D01*
X106507018Y-63035120D01*
X106506096Y-63049855D01*
X106504188Y-63099738D01*
X106504025Y-63105360D01*
X106504018Y-63105723D01*
X106504038Y-63118957D01*
X106505785Y-63127236D01*
X106508500Y-63153249D01*
X106508500Y-77199629D01*
X106488498Y-77267750D01*
X106434842Y-77314243D01*
X106364568Y-77324347D01*
X106299988Y-77294853D01*
X106281950Y-77275561D01*
X106211765Y-77182621D01*
X106061040Y-77045218D01*
X106061039Y-77045217D01*
X105887648Y-76937858D01*
X105887641Y-76937854D01*
X105887637Y-76937852D01*
X105771133Y-76892718D01*
X105697457Y-76864176D01*
X105630629Y-76851684D01*
X105496976Y-76826700D01*
X105293024Y-76826700D01*
X105192784Y-76845438D01*
X105092542Y-76864176D01*
X104945190Y-76921260D01*
X104902363Y-76937852D01*
X104902362Y-76937852D01*
X104902361Y-76937853D01*
X104902351Y-76937858D01*
X104728960Y-77045217D01*
X104728959Y-77045218D01*
X104578236Y-77182620D01*
X104567049Y-77197434D01*
X104510034Y-77239740D01*
X104439198Y-77244506D01*
X104377030Y-77210219D01*
X104343268Y-77147764D01*
X104340500Y-77121500D01*
X104340500Y-61984072D01*
X105365044Y-61984072D01*
X105383105Y-62121255D01*
X105436052Y-62249086D01*
X105436054Y-62249089D01*
X105436055Y-62249090D01*
X105520288Y-62358863D01*
X105630061Y-62443096D01*
X105630064Y-62443098D01*
X105702144Y-62472953D01*
X105757896Y-62496046D01*
X105895079Y-62514107D01*
X106032262Y-62496046D01*
X106127432Y-62456625D01*
X106160093Y-62443098D01*
X106160093Y-62443097D01*
X106160097Y-62443096D01*
X106269870Y-62358863D01*
X106354103Y-62249090D01*
X106407053Y-62121255D01*
X106425114Y-61984072D01*
X106407053Y-61846889D01*
X106387493Y-61799666D01*
X106354104Y-61719055D01*
X106269871Y-61609282D01*
X106269868Y-61609280D01*
X106160097Y-61525048D01*
X106160096Y-61525047D01*
X106160093Y-61525045D01*
X106032262Y-61472098D01*
X105895079Y-61454037D01*
X105757895Y-61472098D01*
X105630062Y-61525046D01*
X105520287Y-61609280D01*
X105436053Y-61719055D01*
X105383105Y-61846888D01*
X105365044Y-61984072D01*
X104340500Y-61984072D01*
X104340500Y-59510000D01*
X104869965Y-59510000D01*
X104888026Y-59647183D01*
X104940973Y-59775014D01*
X104940975Y-59775017D01*
X104940976Y-59775018D01*
X105025209Y-59884791D01*
X105127348Y-59963166D01*
X105134985Y-59969026D01*
X105183419Y-59989087D01*
X105262817Y-60021974D01*
X105400000Y-60040035D01*
X105537183Y-60021974D01*
X105641448Y-59978787D01*
X105665014Y-59969026D01*
X105665014Y-59969025D01*
X105665018Y-59969024D01*
X105774791Y-59884791D01*
X105859024Y-59775018D01*
X105911974Y-59647183D01*
X105930035Y-59510000D01*
X105925269Y-59473800D01*
X106365465Y-59473800D01*
X106383526Y-59610983D01*
X106436473Y-59738814D01*
X106436475Y-59738817D01*
X106436476Y-59738818D01*
X106520709Y-59848591D01*
X106630482Y-59932824D01*
X106630485Y-59932826D01*
X106698914Y-59961169D01*
X106758317Y-59985774D01*
X106895500Y-60003835D01*
X107032683Y-59985774D01*
X107127853Y-59946353D01*
X107160514Y-59932826D01*
X107160514Y-59932825D01*
X107160518Y-59932824D01*
X107270291Y-59848591D01*
X107354524Y-59738818D01*
X107407474Y-59610983D01*
X107425535Y-59473800D01*
X107411217Y-59365050D01*
X107422156Y-59294905D01*
X107469283Y-59241806D01*
X107519692Y-59223684D01*
X107532683Y-59221974D01*
X107627853Y-59182553D01*
X107660514Y-59169026D01*
X107660514Y-59169025D01*
X107660518Y-59169024D01*
X107770291Y-59084791D01*
X107854524Y-58975018D01*
X107858673Y-58965003D01*
X107869751Y-58938256D01*
X107907474Y-58847183D01*
X107925535Y-58710000D01*
X107907474Y-58572817D01*
X107887914Y-58525594D01*
X107854525Y-58444983D01*
X107770292Y-58335210D01*
X107770289Y-58335208D01*
X107660518Y-58250976D01*
X107660517Y-58250975D01*
X107660514Y-58250973D01*
X107532683Y-58198026D01*
X107395500Y-58179965D01*
X107258316Y-58198026D01*
X107130483Y-58250974D01*
X107020708Y-58335208D01*
X106936474Y-58444983D01*
X106883526Y-58572816D01*
X106865465Y-58710000D01*
X106879782Y-58818746D01*
X106868843Y-58888895D01*
X106821715Y-58941994D01*
X106771312Y-58960114D01*
X106758319Y-58961825D01*
X106758318Y-58961825D01*
X106630483Y-59014774D01*
X106520708Y-59099008D01*
X106436474Y-59208783D01*
X106383526Y-59336616D01*
X106365465Y-59473800D01*
X105925269Y-59473800D01*
X105911974Y-59372817D01*
X105886255Y-59310725D01*
X105859025Y-59244983D01*
X105774792Y-59135210D01*
X105774789Y-59135208D01*
X105665018Y-59050976D01*
X105665017Y-59050975D01*
X105665014Y-59050973D01*
X105537183Y-58998026D01*
X105400000Y-58979965D01*
X105262816Y-58998026D01*
X105134983Y-59050974D01*
X105025208Y-59135208D01*
X104940974Y-59244983D01*
X104888026Y-59372816D01*
X104869965Y-59510000D01*
X104340500Y-59510000D01*
X104340500Y-54958499D01*
X104360502Y-54890378D01*
X104414158Y-54843885D01*
X104484432Y-54833781D01*
X104549012Y-54863275D01*
X104567051Y-54882568D01*
X104578235Y-54897379D01*
X104728959Y-55034781D01*
X104728960Y-55034782D01*
X104902351Y-55142141D01*
X104902354Y-55142142D01*
X104902363Y-55142148D01*
X105092544Y-55215824D01*
X105293024Y-55253300D01*
X105293026Y-55253300D01*
X105496974Y-55253300D01*
X105496976Y-55253300D01*
X105697456Y-55215824D01*
X105887637Y-55142148D01*
X106061041Y-55034781D01*
X106211764Y-54897379D01*
X106334673Y-54734621D01*
X106425582Y-54552050D01*
X106481397Y-54355883D01*
X106500215Y-54152800D01*
X106481397Y-53949717D01*
X106425582Y-53753550D01*
X106334673Y-53570979D01*
X106289791Y-53511545D01*
X106211765Y-53408221D01*
X106061040Y-53270818D01*
X106061039Y-53270817D01*
X105887648Y-53163458D01*
X105887641Y-53163454D01*
X105887637Y-53163452D01*
X105771133Y-53118318D01*
X105697457Y-53089776D01*
X105630629Y-53077284D01*
X105496976Y-53052300D01*
X105293024Y-53052300D01*
X105192784Y-53071038D01*
X105092542Y-53089776D01*
X104945190Y-53146860D01*
X104902363Y-53163452D01*
X104902362Y-53163452D01*
X104902361Y-53163453D01*
X104902351Y-53163458D01*
X104728960Y-53270817D01*
X104728959Y-53270818D01*
X104578236Y-53408220D01*
X104567049Y-53423034D01*
X104510034Y-53465340D01*
X104439198Y-53470106D01*
X104377030Y-53435819D01*
X104343268Y-53373364D01*
X104340500Y-53347100D01*
X104340500Y-52418499D01*
X104360502Y-52350378D01*
X104414158Y-52303885D01*
X104484432Y-52293781D01*
X104549012Y-52323275D01*
X104567051Y-52342568D01*
X104578235Y-52357379D01*
X104728959Y-52494781D01*
X104728960Y-52494782D01*
X104902351Y-52602141D01*
X104902354Y-52602142D01*
X104902363Y-52602148D01*
X105092544Y-52675824D01*
X105293024Y-52713300D01*
X105293026Y-52713300D01*
X105496974Y-52713300D01*
X105496976Y-52713300D01*
X105697456Y-52675824D01*
X105887637Y-52602148D01*
X106061041Y-52494781D01*
X106211764Y-52357379D01*
X106219317Y-52347378D01*
X106262608Y-52290051D01*
X106334673Y-52194621D01*
X106425582Y-52012050D01*
X106481397Y-51815883D01*
X106500215Y-51612800D01*
X106499288Y-51602800D01*
X108114785Y-51602800D01*
X108133603Y-51805884D01*
X108189416Y-52002045D01*
X108189417Y-52002047D01*
X108189418Y-52002050D01*
X108280327Y-52184621D01*
X108280328Y-52184622D01*
X108280329Y-52184624D01*
X108403234Y-52347378D01*
X108553959Y-52484781D01*
X108553960Y-52484782D01*
X108727351Y-52592141D01*
X108727354Y-52592142D01*
X108727363Y-52592148D01*
X108917544Y-52665824D01*
X109118024Y-52703300D01*
X109118026Y-52703300D01*
X109321974Y-52703300D01*
X109321976Y-52703300D01*
X109522456Y-52665824D01*
X109712637Y-52592148D01*
X109886041Y-52484781D01*
X110036764Y-52347379D01*
X110054967Y-52323275D01*
X110102347Y-52260533D01*
X110159673Y-52184621D01*
X110250582Y-52002050D01*
X110306397Y-51805883D01*
X110325215Y-51602800D01*
X110306397Y-51399717D01*
X110250582Y-51203550D01*
X110159673Y-51020979D01*
X110159670Y-51020975D01*
X110036765Y-50858221D01*
X109886040Y-50720818D01*
X109886039Y-50720817D01*
X109712648Y-50613458D01*
X109712641Y-50613454D01*
X109712637Y-50613452D01*
X109596133Y-50568318D01*
X109522457Y-50539776D01*
X109455629Y-50527284D01*
X109321976Y-50502300D01*
X109118024Y-50502300D01*
X109017784Y-50521038D01*
X108917542Y-50539776D01*
X108770190Y-50596860D01*
X108727363Y-50613452D01*
X108727362Y-50613452D01*
X108727361Y-50613453D01*
X108727351Y-50613458D01*
X108553960Y-50720817D01*
X108553959Y-50720818D01*
X108403234Y-50858221D01*
X108280329Y-51020975D01*
X108189416Y-51203554D01*
X108133603Y-51399715D01*
X108114785Y-51602800D01*
X106499288Y-51602800D01*
X106481397Y-51409717D01*
X106425582Y-51213550D01*
X106334673Y-51030979D01*
X106289791Y-50971545D01*
X106211765Y-50868221D01*
X106061040Y-50730818D01*
X106061039Y-50730817D01*
X105887648Y-50623458D01*
X105887641Y-50623454D01*
X105887637Y-50623452D01*
X105771133Y-50578318D01*
X105697457Y-50549776D01*
X105630629Y-50537284D01*
X105496976Y-50512300D01*
X105293024Y-50512300D01*
X105192784Y-50531038D01*
X105092542Y-50549776D01*
X104945190Y-50606860D01*
X104902363Y-50623452D01*
X104902362Y-50623452D01*
X104902361Y-50623453D01*
X104902351Y-50623458D01*
X104728960Y-50730817D01*
X104728959Y-50730818D01*
X104578236Y-50868220D01*
X104567049Y-50883034D01*
X104510034Y-50925340D01*
X104439198Y-50930106D01*
X104377030Y-50895819D01*
X104343268Y-50833364D01*
X104340500Y-50807100D01*
X104340500Y-49878499D01*
X104360502Y-49810378D01*
X104414158Y-49763885D01*
X104484432Y-49753781D01*
X104549012Y-49783275D01*
X104567051Y-49802568D01*
X104578235Y-49817379D01*
X104728959Y-49954781D01*
X104728960Y-49954782D01*
X104902351Y-50062141D01*
X104902354Y-50062142D01*
X104902363Y-50062148D01*
X105092544Y-50135824D01*
X105293024Y-50173300D01*
X105293026Y-50173300D01*
X105496974Y-50173300D01*
X105496976Y-50173300D01*
X105697456Y-50135824D01*
X105887637Y-50062148D01*
X106061041Y-49954781D01*
X106211764Y-49817379D01*
X106224369Y-49800688D01*
X106278277Y-49729301D01*
X106334673Y-49654621D01*
X106425582Y-49472050D01*
X106481397Y-49275883D01*
X106500215Y-49072800D01*
X111702004Y-49072800D01*
X111721951Y-49300802D01*
X111781186Y-49521868D01*
X111781188Y-49521873D01*
X111877913Y-49729301D01*
X111927899Y-49800688D01*
X112655790Y-49072799D01*
X111927900Y-48344909D01*
X111877913Y-48416300D01*
X111781188Y-48623726D01*
X111781186Y-48623731D01*
X111721951Y-48844797D01*
X111702004Y-49072800D01*
X106500215Y-49072800D01*
X106481397Y-48869717D01*
X106425582Y-48673550D01*
X106334673Y-48490979D01*
X106334670Y-48490975D01*
X106211765Y-48328221D01*
X106061040Y-48190818D01*
X106061039Y-48190817D01*
X105887648Y-48083458D01*
X105887641Y-48083454D01*
X105887637Y-48083452D01*
X105887632Y-48083450D01*
X105850309Y-48068991D01*
X105794014Y-48025732D01*
X105770044Y-47958904D01*
X105786008Y-47889726D01*
X105836839Y-47840160D01*
X105895826Y-47825500D01*
X112163621Y-47825500D01*
X112231742Y-47845502D01*
G37*
%TD.AperFunction*%
%TA.AperFunction,Conductor*%
G36*
X111124012Y-75167760D02*
G01*
X111141460Y-75186277D01*
X111169709Y-75223091D01*
X111279482Y-75307324D01*
X111279485Y-75307326D01*
X111351565Y-75337181D01*
X111407317Y-75360274D01*
X111544500Y-75378335D01*
X111551552Y-75377406D01*
X111621699Y-75388344D01*
X111674799Y-75435470D01*
X111694000Y-75502328D01*
X111694000Y-76243915D01*
X111693393Y-76256267D01*
X111686098Y-76330324D01*
X111681279Y-76354550D01*
X111661481Y-76419812D01*
X111652029Y-76442630D01*
X111619881Y-76502775D01*
X111606156Y-76523315D01*
X111558904Y-76580889D01*
X111550602Y-76590048D01*
X111511762Y-76628887D01*
X111511763Y-76628888D01*
X111462946Y-76677706D01*
X111462890Y-76677768D01*
X111445806Y-76694853D01*
X111340021Y-76832711D01*
X111253150Y-76983178D01*
X111253142Y-76983193D01*
X111186653Y-77143707D01*
X111186652Y-77143710D01*
X111163206Y-77231213D01*
X111126255Y-77291835D01*
X111062394Y-77322857D01*
X110991899Y-77314427D01*
X110937153Y-77269224D01*
X110915536Y-77201599D01*
X110915500Y-77198601D01*
X110915500Y-75262984D01*
X110935502Y-75194863D01*
X110989158Y-75148370D01*
X111059432Y-75138266D01*
X111124012Y-75167760D01*
G37*
%TD.AperFunction*%
%TA.AperFunction,Conductor*%
G36*
X107978063Y-69951134D02*
G01*
X108028860Y-70000734D01*
X108045000Y-70062434D01*
X108045000Y-71913771D01*
X108024998Y-71981892D01*
X107971342Y-72028385D01*
X107902558Y-72038694D01*
X107895500Y-72037765D01*
X107758316Y-72055826D01*
X107630483Y-72108774D01*
X107562204Y-72161168D01*
X107495984Y-72186769D01*
X107426435Y-72172504D01*
X107375639Y-72122903D01*
X107359500Y-72061206D01*
X107359500Y-70155929D01*
X107379502Y-70087808D01*
X107433158Y-70041315D01*
X107501947Y-70031007D01*
X107569000Y-70039835D01*
X107706183Y-70021774D01*
X107801353Y-69982353D01*
X107834014Y-69968826D01*
X107834014Y-69968825D01*
X107834018Y-69968824D01*
X107842295Y-69962472D01*
X107908513Y-69936871D01*
X107978063Y-69951134D01*
G37*
%TD.AperFunction*%
%TD*%
%TA.AperFunction,Conductor*%
%TO.N,/D2*%
G36*
X111980270Y-84334894D02*
G01*
X112114974Y-84456544D01*
X112114983Y-84456551D01*
X112243251Y-84545560D01*
X112243252Y-84545561D01*
X112361689Y-84602771D01*
X112361691Y-84602771D01*
X112361692Y-84602772D01*
X112475119Y-84636454D01*
X112588370Y-84654887D01*
X112706244Y-84666347D01*
X112706276Y-84666364D01*
X112706278Y-84666351D01*
X112833365Y-84679092D01*
X112833994Y-84679174D01*
X112974893Y-84701407D01*
X112975895Y-84701612D01*
X113135710Y-84741576D01*
X113136823Y-84741913D01*
X113230240Y-84775455D01*
X113309606Y-84803952D01*
X113316234Y-84809973D01*
X113316664Y-84818918D01*
X113316467Y-84819429D01*
X113017562Y-85543412D01*
X113011237Y-85549751D01*
X113011212Y-85549762D01*
X112287229Y-85848667D01*
X112278274Y-85848656D01*
X112271949Y-85842317D01*
X112271752Y-85841806D01*
X112209714Y-85669026D01*
X112209376Y-85667910D01*
X112169412Y-85508095D01*
X112169207Y-85507093D01*
X112146974Y-85366194D01*
X112146891Y-85365551D01*
X112134151Y-85238478D01*
X112134148Y-85238443D01*
X112122688Y-85120584D01*
X112122687Y-85120572D01*
X112122687Y-85120570D01*
X112104254Y-85007319D01*
X112070572Y-84893892D01*
X112034604Y-84819429D01*
X112013361Y-84775452D01*
X112013360Y-84775451D01*
X111924351Y-84647183D01*
X111924344Y-84647174D01*
X111832578Y-84545561D01*
X111802693Y-84512469D01*
X111799692Y-84504033D01*
X111803103Y-84496356D01*
X111964156Y-84335303D01*
X111972428Y-84331877D01*
X111980270Y-84334894D01*
G37*
%TD.AperFunction*%
%TD*%
%TA.AperFunction,Conductor*%
%TO.N,/D2*%
G36*
X110547239Y-59395037D02*
G01*
X110740517Y-59474112D01*
X110746877Y-59480417D01*
X110746913Y-59480503D01*
X110826073Y-59673620D01*
X110826040Y-59682575D01*
X110819685Y-59688884D01*
X110819460Y-59688973D01*
X110786289Y-59701776D01*
X110785813Y-59701948D01*
X110747740Y-59714781D01*
X110747471Y-59714868D01*
X110714270Y-59725170D01*
X110714271Y-59725171D01*
X110684854Y-59734590D01*
X110684846Y-59734592D01*
X110684843Y-59734594D01*
X110679310Y-59736707D01*
X110658422Y-59744688D01*
X110658421Y-59744689D01*
X110633918Y-59757110D01*
X110610270Y-59773508D01*
X110586439Y-59795516D01*
X110561380Y-59824776D01*
X110561379Y-59824776D01*
X110540631Y-59853733D01*
X110533027Y-59858462D01*
X110524621Y-59856646D01*
X110336035Y-59730636D01*
X110331060Y-59723191D01*
X110332807Y-59714408D01*
X110332857Y-59714333D01*
X110356557Y-59679915D01*
X110356735Y-59679666D01*
X110382839Y-59643961D01*
X110382889Y-59643895D01*
X110405665Y-59614183D01*
X110425834Y-59588351D01*
X110444177Y-59564201D01*
X110461498Y-59539504D01*
X110478599Y-59512033D01*
X110496286Y-59479560D01*
X110515360Y-59439856D01*
X110532073Y-59401221D01*
X110538503Y-59394989D01*
X110547239Y-59395037D01*
G37*
%TD.AperFunction*%
%TD*%
%TA.AperFunction,Conductor*%
%TO.N,GND*%
G36*
X112890758Y-74865573D02*
G01*
X112914349Y-74882316D01*
X112936069Y-74893325D01*
X112956829Y-74900081D01*
X112977540Y-74904068D01*
X112999111Y-74906766D01*
X113022452Y-74909660D01*
X113048475Y-74914231D01*
X113078088Y-74921961D01*
X113112202Y-74934335D01*
X113015707Y-75169707D01*
X112780335Y-75266202D01*
X112767961Y-75232088D01*
X112760231Y-75202475D01*
X112755660Y-75176452D01*
X112752766Y-75153111D01*
X112750068Y-75131540D01*
X112746081Y-75110829D01*
X112739325Y-75090069D01*
X112728316Y-75068349D01*
X112711573Y-75044758D01*
X112687612Y-75018388D01*
X112864388Y-74841612D01*
X112890758Y-74865573D01*
G37*
%TD.AperFunction*%
%TD*%
%TA.AperFunction,Conductor*%
%TO.N,/MA2*%
G36*
X107736334Y-65447812D02*
G01*
X107768148Y-65479142D01*
X107768167Y-65479160D01*
X107768171Y-65479164D01*
X107801737Y-65511077D01*
X107830424Y-65537327D01*
X107847379Y-65552310D01*
X107855859Y-65559804D01*
X107879663Y-65580389D01*
X107903419Y-65600932D01*
X107903514Y-65601015D01*
X107928801Y-65623361D01*
X107928952Y-65623496D01*
X107957533Y-65649650D01*
X107957696Y-65649803D01*
X107991075Y-65681538D01*
X107991222Y-65681681D01*
X108022828Y-65712806D01*
X108026319Y-65721052D01*
X108022955Y-65729351D01*
X108022892Y-65729415D01*
X107862164Y-65890143D01*
X107853891Y-65893570D01*
X107846218Y-65890703D01*
X107843508Y-65888348D01*
X107815951Y-65864410D01*
X107798393Y-65853934D01*
X107780836Y-65843459D01*
X107764390Y-65837901D01*
X107747946Y-65832344D01*
X107747944Y-65832343D01*
X107716120Y-65828407D01*
X107684220Y-65828992D01*
X107654329Y-65831196D01*
X107651639Y-65831084D01*
X107569000Y-65817996D01*
X107536235Y-65823185D01*
X107530680Y-65822720D01*
X107494728Y-65810646D01*
X107487976Y-65804764D01*
X107487362Y-65795830D01*
X107487625Y-65795122D01*
X107534097Y-65681615D01*
X107567393Y-65600290D01*
X107569981Y-65596419D01*
X107719889Y-65447837D01*
X107728177Y-65444448D01*
X107736334Y-65447812D01*
G37*
%TD.AperFunction*%
%TD*%
%TA.AperFunction,Conductor*%
%TO.N,/D1*%
G36*
X106990542Y-62696960D02*
G01*
X107183479Y-62775949D01*
X107189836Y-62782254D01*
X107189862Y-62782317D01*
X107269410Y-62975287D01*
X107269395Y-62984242D01*
X107263052Y-62990563D01*
X107262492Y-62990777D01*
X107239941Y-62998748D01*
X107238960Y-62999047D01*
X107206805Y-63007328D01*
X107206217Y-63007464D01*
X107175694Y-63013666D01*
X107175628Y-63013679D01*
X107147510Y-63019224D01*
X107147493Y-63019228D01*
X107122388Y-63025614D01*
X107122387Y-63025615D01*
X107122383Y-63025616D01*
X107122381Y-63025617D01*
X107111238Y-63030134D01*
X107100792Y-63034370D01*
X107100791Y-63034370D01*
X107083200Y-63047012D01*
X107070064Y-63065074D01*
X107070063Y-63065075D01*
X107061843Y-63090089D01*
X107061842Y-63090093D01*
X107059909Y-63112879D01*
X107055795Y-63120833D01*
X107048251Y-63123590D01*
X106821156Y-63123590D01*
X106812883Y-63120163D01*
X106809456Y-63111890D01*
X106809465Y-63111443D01*
X106811374Y-63061542D01*
X106811472Y-63060414D01*
X106813293Y-63047013D01*
X106818184Y-63011023D01*
X106818460Y-63009633D01*
X106819045Y-63007407D01*
X106829001Y-62969503D01*
X106829485Y-62968057D01*
X106843436Y-62934062D01*
X106844004Y-62932874D01*
X106861111Y-62901859D01*
X106861511Y-62901191D01*
X106881566Y-62870128D01*
X106904041Y-62836404D01*
X106928264Y-62797495D01*
X106953778Y-62750545D01*
X106975462Y-62702936D01*
X106982009Y-62696830D01*
X106990542Y-62696960D01*
G37*
%TD.AperFunction*%
%TD*%
%TA.AperFunction,Conductor*%
%TO.N,/MA2*%
G36*
X111980270Y-91954894D02*
G01*
X112114974Y-92076544D01*
X112114983Y-92076551D01*
X112243251Y-92165560D01*
X112243252Y-92165561D01*
X112361689Y-92222771D01*
X112361691Y-92222771D01*
X112361692Y-92222772D01*
X112475119Y-92256454D01*
X112588370Y-92274887D01*
X112706244Y-92286347D01*
X112706276Y-92286364D01*
X112706278Y-92286351D01*
X112833365Y-92299092D01*
X112833994Y-92299174D01*
X112974893Y-92321407D01*
X112975895Y-92321612D01*
X113135710Y-92361576D01*
X113136823Y-92361913D01*
X113230240Y-92395455D01*
X113309606Y-92423952D01*
X113316234Y-92429973D01*
X113316664Y-92438918D01*
X113316467Y-92439429D01*
X113017562Y-93163412D01*
X113011237Y-93169751D01*
X113011212Y-93169762D01*
X112287229Y-93468667D01*
X112278274Y-93468656D01*
X112271949Y-93462317D01*
X112271752Y-93461806D01*
X112209714Y-93289026D01*
X112209376Y-93287910D01*
X112169412Y-93128095D01*
X112169207Y-93127093D01*
X112146974Y-92986194D01*
X112146891Y-92985551D01*
X112134151Y-92858478D01*
X112134148Y-92858443D01*
X112122688Y-92740584D01*
X112122687Y-92740572D01*
X112122687Y-92740570D01*
X112104254Y-92627319D01*
X112070572Y-92513892D01*
X112034604Y-92439429D01*
X112013361Y-92395452D01*
X112013360Y-92395451D01*
X111924351Y-92267183D01*
X111924344Y-92267174D01*
X111832578Y-92165561D01*
X111802693Y-92132469D01*
X111799692Y-92124033D01*
X111803103Y-92116356D01*
X111964156Y-91955303D01*
X111972428Y-91951877D01*
X111980270Y-91954894D01*
G37*
%TD.AperFunction*%
%TD*%
%TA.AperFunction,Conductor*%
%TO.N,/~{CAS0}*%
G36*
X110017162Y-75290627D02*
G01*
X110020589Y-75298810D01*
X110020891Y-75338084D01*
X110022262Y-75380144D01*
X110024905Y-75415531D01*
X110029103Y-75446249D01*
X110035157Y-75474476D01*
X110035158Y-75474480D01*
X110043349Y-75502263D01*
X110043352Y-75502271D01*
X110053980Y-75531738D01*
X110067331Y-75564961D01*
X110083699Y-75604051D01*
X110083701Y-75604056D01*
X110098862Y-75640309D01*
X110098893Y-75649264D01*
X110092590Y-75655614D01*
X109900022Y-75736305D01*
X109891067Y-75736342D01*
X109890978Y-75736305D01*
X109698409Y-75655614D01*
X109692103Y-75649256D01*
X109692136Y-75640311D01*
X109707300Y-75604051D01*
X109723667Y-75564962D01*
X109737019Y-75531733D01*
X109747647Y-75502269D01*
X109755842Y-75474474D01*
X109761895Y-75446253D01*
X109766096Y-75415510D01*
X109768736Y-75380151D01*
X109770107Y-75338079D01*
X109770410Y-75298809D01*
X109773901Y-75290563D01*
X109782110Y-75287200D01*
X110008889Y-75287200D01*
X110017162Y-75290627D01*
G37*
%TD.AperFunction*%
%TD*%
%TA.AperFunction,Conductor*%
%TO.N,Net-(U1-~{CE1})*%
G36*
X111092601Y-64196890D02*
G01*
X111098906Y-64203247D01*
X111098877Y-64212183D01*
X111083795Y-64248346D01*
X111083796Y-64248347D01*
X111083792Y-64248357D01*
X111067595Y-64287391D01*
X111054471Y-64320592D01*
X111044109Y-64350047D01*
X111036200Y-64377829D01*
X111036198Y-64377835D01*
X111036190Y-64377867D01*
X111030422Y-64406047D01*
X111026471Y-64436787D01*
X111024036Y-64472110D01*
X111022803Y-64514118D01*
X111022540Y-64553289D01*
X111019057Y-64561539D01*
X111010840Y-64564910D01*
X110784060Y-64564910D01*
X110775787Y-64561483D01*
X110772360Y-64553313D01*
X110772360Y-64553289D01*
X110772015Y-64514034D01*
X110770495Y-64471990D01*
X110767636Y-64436675D01*
X110763773Y-64410139D01*
X110763171Y-64406001D01*
X110763165Y-64405968D01*
X110758941Y-64387215D01*
X110756828Y-64377829D01*
X110748343Y-64350096D01*
X110737448Y-64320688D01*
X110723876Y-64287504D01*
X110723828Y-64287391D01*
X110707358Y-64248443D01*
X110707345Y-64248412D01*
X110692154Y-64212197D01*
X110692114Y-64203242D01*
X110698415Y-64196883D01*
X110890980Y-64116193D01*
X110899931Y-64116157D01*
X111092601Y-64196890D01*
G37*
%TD.AperFunction*%
%TD*%
%TA.AperFunction,Conductor*%
%TO.N,/~{CAS0}*%
G36*
X112287229Y-53851332D02*
G01*
X113011212Y-54150237D01*
X113017551Y-54156562D01*
X113017562Y-54156587D01*
X113316467Y-54880570D01*
X113316456Y-54889525D01*
X113310117Y-54895850D01*
X113309606Y-54896047D01*
X113136817Y-54958086D01*
X113135701Y-54958424D01*
X112975906Y-54998384D01*
X112974892Y-54998591D01*
X112834008Y-55020821D01*
X112833351Y-55020906D01*
X112706278Y-55033647D01*
X112706243Y-55033650D01*
X112588384Y-55045109D01*
X112588372Y-55045110D01*
X112475123Y-55063543D01*
X112475115Y-55063545D01*
X112361689Y-55097226D01*
X112243252Y-55154436D01*
X112243251Y-55154437D01*
X112114983Y-55243446D01*
X112114974Y-55243453D01*
X111980270Y-55365105D01*
X111971833Y-55368107D01*
X111964155Y-55364695D01*
X111803104Y-55203644D01*
X111799677Y-55195371D01*
X111802693Y-55187531D01*
X111924345Y-55052824D01*
X112013362Y-54924543D01*
X112070572Y-54806106D01*
X112104254Y-54692679D01*
X112122687Y-54579428D01*
X112134151Y-54461521D01*
X112146893Y-54334429D01*
X112146973Y-54333809D01*
X112169209Y-54192894D01*
X112169411Y-54191902D01*
X112209374Y-54032092D01*
X112209711Y-54030981D01*
X112271752Y-53858193D01*
X112277773Y-53851565D01*
X112286718Y-53851135D01*
X112287229Y-53851332D01*
G37*
%TD.AperFunction*%
%TD*%
%TA.AperFunction,Conductor*%
%TO.N,/D1*%
G36*
X106412751Y-81828351D02*
G01*
X106576539Y-81986700D01*
X106580105Y-81994914D01*
X106577228Y-82002798D01*
X106461414Y-82135711D01*
X106461405Y-82135723D01*
X106377294Y-82262158D01*
X106377284Y-82262176D01*
X106324033Y-82378565D01*
X106293534Y-82489699D01*
X106277682Y-82600330D01*
X106268359Y-82715246D01*
X106268352Y-82715325D01*
X106257484Y-82838878D01*
X106257400Y-82839583D01*
X106236933Y-82976505D01*
X106236725Y-82977565D01*
X106198581Y-83132919D01*
X106198234Y-83134070D01*
X106138238Y-83301788D01*
X106132225Y-83308423D01*
X106123281Y-83308863D01*
X106122757Y-83308662D01*
X105398799Y-83009773D01*
X105392460Y-83003448D01*
X105392449Y-83003423D01*
X105324804Y-82839583D01*
X105093552Y-82279477D01*
X105093563Y-82270524D01*
X105099902Y-82264199D01*
X105100427Y-82263998D01*
X105268096Y-82204636D01*
X105269284Y-82204288D01*
X105425357Y-82167527D01*
X105426430Y-82167328D01*
X105564586Y-82148644D01*
X105565300Y-82148570D01*
X105690316Y-82139602D01*
X105776447Y-82133970D01*
X105806427Y-82132011D01*
X105806431Y-82132010D01*
X105806453Y-82132009D01*
X105917819Y-82117405D01*
X105917823Y-82117404D01*
X105917827Y-82117403D01*
X105938099Y-82111921D01*
X106028875Y-82087379D01*
X106144082Y-82033520D01*
X106267901Y-81947416D01*
X106396671Y-81828177D01*
X106405068Y-81825072D01*
X106412751Y-81828351D01*
G37*
%TD.AperFunction*%
%TD*%
%TA.AperFunction,Conductor*%
%TO.N,GND*%
G36*
X112890758Y-74865573D02*
G01*
X112914349Y-74882316D01*
X112936069Y-74893325D01*
X112956829Y-74900081D01*
X112977540Y-74904068D01*
X112999111Y-74906766D01*
X113022452Y-74909660D01*
X113048475Y-74914231D01*
X113078088Y-74921961D01*
X113112202Y-74934335D01*
X113015707Y-75169707D01*
X112780335Y-75266202D01*
X112767961Y-75232088D01*
X112760231Y-75202475D01*
X112755660Y-75176452D01*
X112752766Y-75153111D01*
X112750068Y-75131540D01*
X112746081Y-75110829D01*
X112739325Y-75090069D01*
X112728316Y-75068349D01*
X112711573Y-75044758D01*
X112687612Y-75018388D01*
X112864388Y-74841612D01*
X112890758Y-74865573D01*
G37*
%TD.AperFunction*%
%TD*%
%TA.AperFunction,Conductor*%
%TO.N,Net-(U1-~{CE1})*%
G36*
X111666162Y-79350227D02*
G01*
X111669589Y-79358410D01*
X111669891Y-79397684D01*
X111671262Y-79439744D01*
X111673905Y-79475131D01*
X111678103Y-79505849D01*
X111684157Y-79534076D01*
X111684158Y-79534080D01*
X111692349Y-79561863D01*
X111692352Y-79561871D01*
X111702980Y-79591338D01*
X111716331Y-79624561D01*
X111732699Y-79663651D01*
X111732701Y-79663656D01*
X111747862Y-79699909D01*
X111747893Y-79708864D01*
X111741590Y-79715214D01*
X111549022Y-79795905D01*
X111540067Y-79795942D01*
X111539978Y-79795905D01*
X111347409Y-79715214D01*
X111341103Y-79708856D01*
X111341136Y-79699911D01*
X111356300Y-79663651D01*
X111372667Y-79624562D01*
X111386019Y-79591333D01*
X111396647Y-79561869D01*
X111404842Y-79534074D01*
X111410895Y-79505853D01*
X111415096Y-79475110D01*
X111417736Y-79439751D01*
X111419107Y-79397679D01*
X111419410Y-79358409D01*
X111422901Y-79350163D01*
X111431110Y-79346800D01*
X111657889Y-79346800D01*
X111666162Y-79350227D01*
G37*
%TD.AperFunction*%
%TD*%
%TA.AperFunction,Conductor*%
%TO.N,GND*%
G36*
X112890758Y-74865573D02*
G01*
X112914349Y-74882316D01*
X112936069Y-74893325D01*
X112956829Y-74900081D01*
X112977540Y-74904068D01*
X112999111Y-74906766D01*
X113022452Y-74909660D01*
X113048475Y-74914231D01*
X113078088Y-74921961D01*
X113112202Y-74934335D01*
X113015707Y-75169707D01*
X112780335Y-75266202D01*
X112767961Y-75232088D01*
X112760231Y-75202475D01*
X112755660Y-75176452D01*
X112752766Y-75153111D01*
X112750068Y-75131540D01*
X112746081Y-75110829D01*
X112739325Y-75090069D01*
X112728316Y-75068349D01*
X112711573Y-75044758D01*
X112687612Y-75018388D01*
X112864388Y-74841612D01*
X112890758Y-74865573D01*
G37*
%TD.AperFunction*%
%TD*%
%TA.AperFunction,Conductor*%
%TO.N,GND*%
G36*
X113016121Y-74907671D02*
G01*
X113051871Y-74956878D01*
X113089497Y-74995308D01*
X113127375Y-75026751D01*
X113163882Y-75055000D01*
X113197394Y-75083845D01*
X113226285Y-75117076D01*
X113248933Y-75158485D01*
X113263712Y-75211864D01*
X113269000Y-75281003D01*
X112761000Y-75281003D01*
X112759256Y-75248762D01*
X112754158Y-75223113D01*
X112745910Y-75202671D01*
X112734712Y-75186052D01*
X112720767Y-75171871D01*
X112704277Y-75158745D01*
X112685443Y-75145289D01*
X112664468Y-75130118D01*
X112641553Y-75111850D01*
X112616901Y-75089099D01*
X112776000Y-74929000D01*
X112983873Y-74843896D01*
X113016121Y-74907671D01*
G37*
%TD.AperFunction*%
%TD*%
%TA.AperFunction,Conductor*%
%TO.N,GND*%
G36*
X112890758Y-74865573D02*
G01*
X112914349Y-74882316D01*
X112936069Y-74893325D01*
X112956829Y-74900081D01*
X112977540Y-74904068D01*
X112999111Y-74906766D01*
X113022452Y-74909660D01*
X113048475Y-74914231D01*
X113078088Y-74921961D01*
X113112202Y-74934335D01*
X113015707Y-75169707D01*
X112780335Y-75266202D01*
X112767961Y-75232088D01*
X112760231Y-75202475D01*
X112755660Y-75176452D01*
X112752766Y-75153111D01*
X112750068Y-75131540D01*
X112746081Y-75110829D01*
X112739325Y-75090069D01*
X112728316Y-75068349D01*
X112711573Y-75044758D01*
X112687612Y-75018388D01*
X112864388Y-74841612D01*
X112890758Y-74865573D01*
G37*
%TD.AperFunction*%
%TD*%
%TA.AperFunction,Conductor*%
%TO.N,GND*%
G36*
X112890758Y-74865573D02*
G01*
X112914349Y-74882316D01*
X112936069Y-74893325D01*
X112956829Y-74900081D01*
X112977540Y-74904068D01*
X112999111Y-74906766D01*
X113022452Y-74909660D01*
X113048475Y-74914231D01*
X113078088Y-74921961D01*
X113112202Y-74934335D01*
X113015707Y-75169707D01*
X112780335Y-75266202D01*
X112767961Y-75232088D01*
X112760231Y-75202475D01*
X112755660Y-75176452D01*
X112752766Y-75153111D01*
X112750068Y-75131540D01*
X112746081Y-75110829D01*
X112739325Y-75090069D01*
X112728316Y-75068349D01*
X112711573Y-75044758D01*
X112687612Y-75018388D01*
X112864388Y-74841612D01*
X112890758Y-74865573D01*
G37*
%TD.AperFunction*%
%TD*%
M02*
