%TF.GenerationSoftware,KiCad,Pcbnew,8.0.8*%
%TF.CreationDate,2025-01-27T20:38:42+01:00*%
%TF.ProjectId,GX4000-SRAM-rounded,47583430-3030-42d5-9352-414d2d726f75,rev?*%
%TF.SameCoordinates,Original*%
%TF.FileFunction,Copper,L3,Inr*%
%TF.FilePolarity,Positive*%
%FSLAX46Y46*%
G04 Gerber Fmt 4.6, Leading zero omitted, Abs format (unit mm)*
G04 Created by KiCad (PCBNEW 8.0.8) date 2025-01-27 20:38:42*
%MOMM*%
%LPD*%
G01*
G04 APERTURE LIST*
%TA.AperFunction,ComponentPad*%
%ADD10C,1.600000*%
%TD*%
%TA.AperFunction,ViaPad*%
%ADD11C,0.450000*%
%TD*%
%TA.AperFunction,Conductor*%
%ADD12C,0.508000*%
%TD*%
%TA.AperFunction,Conductor*%
%ADD13C,0.250000*%
%TD*%
G04 APERTURE END LIST*
D10*
%TO.N,/~{OE}*%
%TO.C,IC10*%
X105395000Y-77927200D03*
%TO.N,/D0*%
X105395000Y-80467200D03*
%TO.N,/D1*%
X105395000Y-83007200D03*
%TO.N,/~{WE}*%
X105395000Y-85547200D03*
%TO.N,/~{RAS}*%
X105395000Y-88087200D03*
%TO.N,/MA6*%
X105395000Y-90627200D03*
%TO.N,/MA5*%
X105395000Y-93167200D03*
%TO.N,/MA4*%
X105395000Y-95707200D03*
%TO.N,VCC*%
X105395000Y-98247200D03*
%TO.N,/MA7*%
X113015000Y-98247200D03*
%TO.N,/MA3*%
X113015000Y-95707200D03*
%TO.N,/MA2*%
X113015000Y-93167200D03*
%TO.N,/MA1*%
X113015000Y-90627200D03*
%TO.N,/MA0*%
X113015000Y-88087200D03*
%TO.N,/D2*%
X113015000Y-85547200D03*
%TO.N,/~{CAS0}*%
X113015000Y-83007200D03*
%TO.N,/D3*%
X113015000Y-80467200D03*
%TO.N,GND*%
X113015000Y-77927200D03*
%TD*%
%TO.N,Net-(CAS1-Pin_1)*%
%TO.C,CAS1*%
X109220000Y-51602800D03*
%TD*%
%TO.N,/~{OE}*%
%TO.C,IC11*%
X105395000Y-49072800D03*
%TO.N,/D4*%
X105395000Y-51612800D03*
%TO.N,/D5*%
X105395000Y-54152800D03*
%TO.N,/D6*%
X113015000Y-56692800D03*
%TO.N,/~{CAS0}*%
X113015000Y-54152800D03*
%TO.N,/D7*%
X113015000Y-51612800D03*
%TO.N,GND*%
X113015000Y-49072800D03*
%TD*%
D11*
%TO.N,VCC*%
X107895500Y-72567800D03*
X109220000Y-72177200D03*
%TO.N,GND*%
X110490000Y-98806000D03*
X109595500Y-59303800D03*
X106290000Y-57480000D03*
X110998000Y-54650800D03*
X113538000Y-76327000D03*
X107696000Y-71541800D03*
X107950000Y-98806000D03*
X106984800Y-49123600D03*
X112776000Y-74930000D03*
X107800000Y-62100000D03*
X111545000Y-75946000D03*
X105980000Y-63660000D03*
X107569000Y-70271800D03*
X109464500Y-86385400D03*
X108350000Y-64850000D03*
X110170000Y-55793800D03*
%TO.N,/~{OE}*%
X105400000Y-59510000D03*
%TO.N,/D0*%
X107696000Y-63413800D03*
%TO.N,/D1*%
X107188000Y-62778800D03*
%TO.N,/~{RAS}*%
X109448600Y-84368800D03*
%TO.N,/MA5*%
X108712000Y-91887200D03*
X107569000Y-68198800D03*
%TO.N,/MA3*%
X108712000Y-93766800D03*
X107569000Y-64948800D03*
%TO.N,/MA2*%
X107569000Y-65598800D03*
X105895079Y-61984072D03*
%TO.N,/MA1*%
X107950000Y-89347200D03*
X107569000Y-66248800D03*
%TO.N,/MA0*%
X108204000Y-88051800D03*
X107569000Y-66898800D03*
%TO.N,/D2*%
X110744500Y-59476800D03*
%TO.N,/D3*%
X111760000Y-59095800D03*
%TO.N,/~{WE}*%
X109474000Y-83007200D03*
%TO.N,/MA6*%
X110617000Y-90591800D03*
X107569000Y-68848800D03*
%TO.N,/MA4*%
X110617000Y-95036800D03*
X107569000Y-67548800D03*
%TO.N,/MA7*%
X107569000Y-69509800D03*
%TO.N,/D6*%
X107395500Y-58710000D03*
%TO.N,/D7*%
X106895500Y-59473800D03*
%TO.N,/A7*%
X110871000Y-69498800D03*
%TO.N,/A6*%
X110871000Y-68848800D03*
%TO.N,/A5*%
X110871000Y-68198800D03*
%TO.N,/A4*%
X110871000Y-67548800D03*
%TO.N,/A3*%
X113227175Y-64948800D03*
%TO.N,/A2*%
X113245141Y-65598800D03*
%TO.N,/A1*%
X113244500Y-66248800D03*
%TO.N,/A0*%
X113244500Y-66898800D03*
%TO.N,/~{CAS0}*%
X109895500Y-75737200D03*
%TO.N,Net-(U3-Pad1)*%
X111544500Y-74848300D03*
X110170000Y-58079800D03*
%TO.N,Net-(U1-~{CE1})*%
X111544500Y-79796800D03*
X110895500Y-64115300D03*
%TD*%
D12*
%TO.N,GND*%
X113015000Y-75169000D02*
X113015000Y-77927200D01*
D13*
X112776000Y-74930000D02*
X113015000Y-75169000D01*
%TO.N,/~{OE}*%
X105909340Y-56716860D02*
X106530660Y-56095540D01*
X105471962Y-59438038D02*
X105471962Y-57659621D01*
X106970000Y-55034880D02*
X106970000Y-51269120D01*
X105400000Y-59510000D02*
X105471962Y-59438038D01*
X106530660Y-50208460D02*
X105395000Y-49072800D01*
X105320500Y-77852700D02*
X105395000Y-77927200D01*
X105320500Y-59589500D02*
X105320500Y-77852700D01*
X105400000Y-59510000D02*
X105320500Y-59589500D01*
X106970000Y-51269120D02*
G75*
G03*
X106530670Y-50208450I-1500000J20D01*
G01*
X106530660Y-56095540D02*
G75*
G03*
X106969986Y-55034880I-1060660J1060640D01*
G01*
X105471962Y-57659621D02*
G75*
G02*
X105909356Y-56716876I1516338J-130679D01*
G01*
%TO.N,/D0*%
X107696000Y-63413800D02*
X107373340Y-63736460D01*
X106934000Y-64797120D02*
X106934000Y-78306880D01*
X106494660Y-79367540D02*
X105395000Y-80467200D01*
X106934000Y-78306880D02*
G75*
G02*
X106494670Y-79367550I-1500000J-20D01*
G01*
X107373340Y-63736460D02*
G75*
G03*
X106934014Y-64797120I1060660J-1060640D01*
G01*
%TO.N,/~{RAS}*%
X109448600Y-84368800D02*
X105730200Y-88087200D01*
X105730200Y-88087200D02*
X105395000Y-88087200D01*
%TO.N,/MA5*%
X106810680Y-93167200D02*
X105395000Y-93167200D01*
X108712000Y-91887200D02*
X107871340Y-92727860D01*
X106810680Y-93167200D02*
G75*
G03*
X107871350Y-92727870I20J1500000D01*
G01*
%TO.N,/MA3*%
X111513940Y-94206140D02*
X113015000Y-95707200D01*
X108712000Y-93766800D02*
X110453280Y-93766800D01*
X111513940Y-94206140D02*
G75*
G03*
X110453280Y-93766814I-1060640J-1060660D01*
G01*
%TO.N,/MA1*%
X107950000Y-89347200D02*
X111113680Y-89347200D01*
X112174340Y-89786540D02*
X113015000Y-90627200D01*
X111113680Y-89347200D02*
G75*
G02*
X112174350Y-89786530I20J-1500000D01*
G01*
%TO.N,/MA0*%
X108239400Y-88087200D02*
X113015000Y-88087200D01*
X108204000Y-88051800D02*
X108239400Y-88087200D01*
%TO.N,/D3*%
X112199340Y-79638467D02*
X113015000Y-80454127D01*
X111760000Y-77230928D02*
X111760000Y-78577807D01*
X113015000Y-80454127D02*
X113015000Y-80467200D01*
X111760000Y-59095800D02*
X111990149Y-59325949D01*
X112119500Y-59638230D02*
X112119500Y-76374372D01*
X111943764Y-76798636D02*
X111935736Y-76806664D01*
X112119500Y-76374372D02*
G75*
G02*
X111943778Y-76798650I-600000J-28D01*
G01*
X112199340Y-79638467D02*
G75*
G02*
X111759995Y-78577807I1060660J1060667D01*
G01*
X111760000Y-77230928D02*
G75*
G02*
X111935722Y-76806650I600000J28D01*
G01*
X111990149Y-59325949D02*
G75*
G02*
X112119488Y-59638230I-312249J-312251D01*
G01*
%TO.N,/~{WE}*%
X106518915Y-85547200D02*
X105395000Y-85547200D01*
X109474000Y-83007200D02*
X107227509Y-85253691D01*
X106518915Y-85547200D02*
G75*
G03*
X107227501Y-85253683I-15J1002100D01*
G01*
%TO.N,/MA6*%
X110617000Y-90591800D02*
X110581600Y-90627200D01*
X110581600Y-90627200D02*
X105395000Y-90627200D01*
%TO.N,/MA4*%
X106040000Y-95062200D02*
X105395000Y-95707200D01*
X110617000Y-95036800D02*
X110591600Y-95062200D01*
X110591600Y-95062200D02*
X106040000Y-95062200D01*
%TO.N,/D6*%
X107395500Y-58710000D02*
X107395500Y-58703558D01*
X112898000Y-56809800D02*
X113015000Y-56692800D01*
X109907820Y-56809800D02*
X112898000Y-56809800D01*
X107395500Y-58703558D02*
X108931906Y-57167152D01*
X108931906Y-57167152D02*
G75*
G02*
X109907820Y-56809809I979794J-1164548D01*
G01*
%TO.N,/D7*%
X107259840Y-57398360D02*
X113015000Y-51643200D01*
X106820500Y-59398800D02*
X106820500Y-58459020D01*
X106895500Y-59473800D02*
X106820500Y-59398800D01*
X106820500Y-58459020D02*
G75*
G02*
X107259830Y-57398350I1500000J20D01*
G01*
%TO.N,/~{CAS0}*%
X110334840Y-80327040D02*
X113015000Y-83007200D01*
X109895500Y-75737200D02*
X109895500Y-79266380D01*
X110334840Y-80327040D02*
G75*
G02*
X109895514Y-79266380I1060660J1060640D01*
G01*
%TO.N,Net-(U3-Pad1)*%
X111544500Y-74848300D02*
X111544500Y-74755300D01*
X111544500Y-74755300D02*
X110609340Y-73820140D01*
X110170000Y-72759480D02*
X110170000Y-58079800D01*
X110609340Y-73820140D02*
G75*
G02*
X110170014Y-72759480I1060660J1060640D01*
G01*
%TD*%
%TA.AperFunction,Conductor*%
%TO.N,GND*%
G36*
X112231742Y-47845502D02*
G01*
X112278235Y-47899158D01*
X112289141Y-47962483D01*
X112287109Y-47985699D01*
X113024211Y-48722800D01*
X112968922Y-48722800D01*
X112879905Y-48746652D01*
X112800095Y-48792730D01*
X112734930Y-48857895D01*
X112688852Y-48937705D01*
X112665000Y-49026722D01*
X112665000Y-49118878D01*
X112688852Y-49207895D01*
X112734930Y-49287705D01*
X112800095Y-49352870D01*
X112879905Y-49398948D01*
X112968922Y-49422800D01*
X113061078Y-49422800D01*
X113150095Y-49398948D01*
X113229905Y-49352870D01*
X113295070Y-49287705D01*
X113341148Y-49207895D01*
X113365000Y-49118878D01*
X113365000Y-49063590D01*
X114062595Y-49761185D01*
X114096621Y-49823497D01*
X114099500Y-49850280D01*
X114099500Y-50846827D01*
X114079498Y-50914948D01*
X114025842Y-50961441D01*
X113955568Y-50971545D01*
X113890988Y-50942051D01*
X113872950Y-50922759D01*
X113831765Y-50868221D01*
X113681040Y-50730818D01*
X113681039Y-50730817D01*
X113507648Y-50623458D01*
X113507641Y-50623454D01*
X113507637Y-50623452D01*
X113507632Y-50623450D01*
X113366074Y-50568610D01*
X113309779Y-50525351D01*
X113285809Y-50458523D01*
X113301773Y-50389345D01*
X113352604Y-50339779D01*
X113378981Y-50329412D01*
X113464066Y-50306614D01*
X113464073Y-50306611D01*
X113671497Y-50209888D01*
X113742888Y-50159899D01*
X113742888Y-50159897D01*
X113015001Y-49432010D01*
X113015000Y-49432010D01*
X112287110Y-50159898D01*
X112287110Y-50159900D01*
X112358498Y-50209886D01*
X112565926Y-50306611D01*
X112565933Y-50306614D01*
X112651018Y-50329412D01*
X112711641Y-50366363D01*
X112742663Y-50430224D01*
X112734235Y-50500718D01*
X112689033Y-50555465D01*
X112663925Y-50568610D01*
X112522367Y-50623450D01*
X112522351Y-50623458D01*
X112348960Y-50730817D01*
X112348959Y-50730818D01*
X112198234Y-50868221D01*
X112075329Y-51030975D01*
X111984417Y-51213551D01*
X111984413Y-51213562D01*
X111984151Y-51214485D01*
X111981684Y-51222198D01*
X111922193Y-51389474D01*
X111917110Y-51405081D01*
X111916765Y-51406246D01*
X111912599Y-51421799D01*
X111874015Y-51582677D01*
X111870988Y-51596754D01*
X111870779Y-51597854D01*
X111868388Y-51612279D01*
X111848319Y-51754398D01*
X111847151Y-51763690D01*
X111847072Y-51764414D01*
X111846167Y-51774009D01*
X111836120Y-51902278D01*
X111835933Y-51904774D01*
X111828385Y-52010334D01*
X111827567Y-52018253D01*
X111817624Y-52091688D01*
X111814385Y-52107708D01*
X111800108Y-52160444D01*
X111792908Y-52180279D01*
X111767816Y-52234696D01*
X111757622Y-52252735D01*
X111706176Y-52328471D01*
X111695700Y-52341853D01*
X111593565Y-52455598D01*
X111593560Y-52455604D01*
X111589900Y-52461590D01*
X111571501Y-52484950D01*
X107002224Y-57054227D01*
X107002218Y-57054231D01*
X106995876Y-57060574D01*
X106995831Y-57060598D01*
X106869728Y-57186704D01*
X106869711Y-57186724D01*
X106716056Y-57386974D01*
X106589857Y-57605565D01*
X106589852Y-57605574D01*
X106493266Y-57838761D01*
X106427942Y-58082569D01*
X106427941Y-58082572D01*
X106394999Y-58332811D01*
X106394999Y-58332820D01*
X106395000Y-58403002D01*
X106395000Y-59008558D01*
X106392573Y-59033171D01*
X106389884Y-59046670D01*
X106389389Y-59088536D01*
X106389302Y-59091952D01*
X106387880Y-59128443D01*
X106387682Y-59132144D01*
X106385706Y-59161005D01*
X106385434Y-59164319D01*
X106382908Y-59190796D01*
X106382709Y-59192712D01*
X106379401Y-59222233D01*
X106379401Y-59222234D01*
X106379109Y-59224840D01*
X106375702Y-59255236D01*
X106375178Y-59260278D01*
X106371790Y-59295779D01*
X106371490Y-59299139D01*
X106371485Y-59299197D01*
X106371465Y-59299435D01*
X106371106Y-59304145D01*
X106368883Y-59336617D01*
X106368314Y-59344920D01*
X106368043Y-59349372D01*
X106368025Y-59349709D01*
X106367826Y-59353992D01*
X106366794Y-59380514D01*
X106365934Y-59402604D01*
X106365806Y-59406567D01*
X106365796Y-59406937D01*
X106365718Y-59411178D01*
X106365158Y-59458530D01*
X106365205Y-59471822D01*
X106365465Y-59473798D01*
X106365465Y-59473800D01*
X106378966Y-59576349D01*
X106383526Y-59610983D01*
X106436473Y-59738814D01*
X106436475Y-59738817D01*
X106436476Y-59738818D01*
X106520709Y-59848591D01*
X106630482Y-59932824D01*
X106630485Y-59932826D01*
X106702565Y-59962681D01*
X106758317Y-59985774D01*
X106895500Y-60003835D01*
X107032683Y-59985774D01*
X107147812Y-59938087D01*
X107160514Y-59932826D01*
X107160514Y-59932825D01*
X107160518Y-59932824D01*
X107270291Y-59848591D01*
X107354524Y-59738818D01*
X107357823Y-59730855D01*
X107380687Y-59675653D01*
X107407474Y-59610983D01*
X107425535Y-59473800D01*
X107411217Y-59365050D01*
X107422156Y-59294905D01*
X107469283Y-59241806D01*
X107519692Y-59223684D01*
X107532683Y-59221974D01*
X107627853Y-59182553D01*
X107660514Y-59169026D01*
X107660514Y-59169025D01*
X107660518Y-59169024D01*
X107770291Y-59084791D01*
X107854524Y-58975018D01*
X107871428Y-58934204D01*
X107881864Y-58914261D01*
X107890724Y-58900490D01*
X107890725Y-58900486D01*
X107890727Y-58900484D01*
X107891030Y-58899900D01*
X107891250Y-58899669D01*
X107891430Y-58899391D01*
X107921331Y-58824674D01*
X107921721Y-58823709D01*
X107924194Y-58817675D01*
X107932231Y-58798061D01*
X107933727Y-58794566D01*
X107938179Y-58784578D01*
X107956591Y-58755065D01*
X107961848Y-58748777D01*
X107965793Y-58744283D01*
X107982843Y-58725781D01*
X107985464Y-58723024D01*
X108008329Y-58699690D01*
X108012139Y-58695732D01*
X108017649Y-58687180D01*
X108034463Y-58666340D01*
X109207082Y-57493721D01*
X109221955Y-57480999D01*
X109322139Y-57407990D01*
X109336998Y-57398674D01*
X109429447Y-57349318D01*
X109456187Y-57335041D01*
X109472188Y-57327882D01*
X109599072Y-57281422D01*
X109615919Y-57276554D01*
X109748015Y-57248174D01*
X109765385Y-57245693D01*
X109774354Y-57245044D01*
X109904477Y-57235629D01*
X109913570Y-57235300D01*
X111401049Y-57235300D01*
X111428799Y-57238394D01*
X111438158Y-57240507D01*
X111590858Y-57246197D01*
X111602691Y-57247200D01*
X111632248Y-57251115D01*
X111632250Y-57251115D01*
X111706276Y-57260917D01*
X111720975Y-57263762D01*
X111791385Y-57281798D01*
X111806963Y-57286889D01*
X111862352Y-57309074D01*
X111875299Y-57315133D01*
X111922407Y-57340533D01*
X111934838Y-57347235D01*
X111942404Y-57351661D01*
X112019518Y-57400446D01*
X112021212Y-57401537D01*
X112117667Y-57464740D01*
X112117791Y-57464820D01*
X112120804Y-57466769D01*
X112121089Y-57466951D01*
X112125266Y-57469568D01*
X112125587Y-57469769D01*
X112239911Y-57540041D01*
X112247533Y-57544576D01*
X112247562Y-57544592D01*
X112247571Y-57544598D01*
X112248122Y-57544915D01*
X112248828Y-57545308D01*
X112255488Y-57549018D01*
X112356735Y-57603600D01*
X112371204Y-57611400D01*
X112371205Y-57611401D01*
X112393218Y-57623268D01*
X112402331Y-57627985D01*
X112403044Y-57628339D01*
X112412560Y-57632861D01*
X112571508Y-57705057D01*
X112571547Y-57705074D01*
X112571586Y-57705092D01*
X112576462Y-57707254D01*
X112576483Y-57707263D01*
X112576537Y-57707287D01*
X112576886Y-57707438D01*
X112587488Y-57711790D01*
X112598242Y-57713813D01*
X112620450Y-57720147D01*
X112712544Y-57755824D01*
X112913024Y-57793300D01*
X112913026Y-57793300D01*
X113116974Y-57793300D01*
X113116976Y-57793300D01*
X113317456Y-57755824D01*
X113507637Y-57682148D01*
X113681041Y-57574781D01*
X113831764Y-57437379D01*
X113872949Y-57382840D01*
X113929963Y-57340533D01*
X114000799Y-57335765D01*
X114062968Y-57370051D01*
X114096732Y-57432505D01*
X114099500Y-57458772D01*
X114099500Y-77149719D01*
X114079498Y-77217840D01*
X114062595Y-77238814D01*
X113374210Y-77927199D01*
X114062595Y-78615584D01*
X114096620Y-78677897D01*
X114099500Y-78704680D01*
X114099500Y-79701227D01*
X114079498Y-79769348D01*
X114025842Y-79815841D01*
X113955568Y-79825945D01*
X113890988Y-79796451D01*
X113872950Y-79777159D01*
X113831765Y-79722621D01*
X113681040Y-79585218D01*
X113681039Y-79585217D01*
X113507648Y-79477858D01*
X113507635Y-79477851D01*
X113436895Y-79450446D01*
X113421773Y-79443403D01*
X113404492Y-79433915D01*
X113404488Y-79433913D01*
X113375451Y-79424377D01*
X113316973Y-79384118D01*
X113289543Y-79318634D01*
X113301871Y-79248716D01*
X113350043Y-79196562D01*
X113382157Y-79182961D01*
X113464066Y-79161014D01*
X113464073Y-79161011D01*
X113671497Y-79064288D01*
X113742888Y-79014299D01*
X113742888Y-79014298D01*
X113005789Y-78277200D01*
X113061078Y-78277200D01*
X113150095Y-78253348D01*
X113229905Y-78207270D01*
X113295070Y-78142105D01*
X113341148Y-78062295D01*
X113365000Y-77973278D01*
X113365000Y-77881122D01*
X113341148Y-77792105D01*
X113295070Y-77712295D01*
X113229905Y-77647130D01*
X113150095Y-77601052D01*
X113061078Y-77577200D01*
X113005789Y-77577200D01*
X113742888Y-76840099D01*
X113742888Y-76840098D01*
X113671501Y-76790113D01*
X113464073Y-76693388D01*
X113464068Y-76693386D01*
X113243000Y-76634151D01*
X113243004Y-76634151D01*
X113015000Y-76614204D01*
X112786997Y-76634151D01*
X112692071Y-76659587D01*
X112621094Y-76657897D01*
X112562299Y-76618103D01*
X112534351Y-76552838D01*
X112535011Y-76518174D01*
X112545003Y-76455067D01*
X112545004Y-76455062D01*
X112545000Y-76374352D01*
X112545000Y-76373136D01*
X112545000Y-67216703D01*
X112565002Y-67148582D01*
X112618658Y-67102089D01*
X112688932Y-67091985D01*
X112753512Y-67121479D01*
X112779605Y-67157666D01*
X112781344Y-67156663D01*
X112785471Y-67163812D01*
X112814144Y-67201178D01*
X112869709Y-67273591D01*
X112979482Y-67357824D01*
X112979485Y-67357826D01*
X113051565Y-67387681D01*
X113107317Y-67410774D01*
X113244500Y-67428835D01*
X113381683Y-67410774D01*
X113476853Y-67371353D01*
X113509514Y-67357826D01*
X113509514Y-67357825D01*
X113509518Y-67357824D01*
X113619291Y-67273591D01*
X113703524Y-67163818D01*
X113703527Y-67163812D01*
X113721061Y-67121479D01*
X113756474Y-67035983D01*
X113774535Y-66898800D01*
X113756474Y-66761617D01*
X113733245Y-66705538D01*
X113700364Y-66626152D01*
X113702473Y-66625278D01*
X113688527Y-66567820D01*
X113701952Y-66522106D01*
X113700364Y-66521449D01*
X113725379Y-66461052D01*
X113756474Y-66385983D01*
X113774535Y-66248800D01*
X113756474Y-66111617D01*
X113733245Y-66055538D01*
X113700364Y-65976152D01*
X113702644Y-65975207D01*
X113688846Y-65918388D01*
X113702450Y-65872048D01*
X113701004Y-65871449D01*
X113704165Y-65863818D01*
X113757115Y-65735983D01*
X113775176Y-65598800D01*
X113757115Y-65461617D01*
X113704165Y-65333783D01*
X113700038Y-65326634D01*
X113701293Y-65325908D01*
X113678911Y-65268019D01*
X113688065Y-65209314D01*
X113703098Y-65173018D01*
X113739149Y-65085983D01*
X113757210Y-64948800D01*
X113739149Y-64811617D01*
X113719589Y-64764394D01*
X113686200Y-64683783D01*
X113601967Y-64574010D01*
X113601964Y-64574008D01*
X113492193Y-64489776D01*
X113492192Y-64489775D01*
X113492189Y-64489773D01*
X113364358Y-64436826D01*
X113227175Y-64418765D01*
X113089991Y-64436826D01*
X112962158Y-64489774D01*
X112852383Y-64574008D01*
X112770962Y-64680119D01*
X112713624Y-64721986D01*
X112642753Y-64726208D01*
X112580850Y-64691444D01*
X112547569Y-64628731D01*
X112545000Y-64603415D01*
X112545000Y-59573862D01*
X112544991Y-59573743D01*
X112544992Y-59570011D01*
X112523647Y-59435196D01*
X112481473Y-59305380D01*
X112419508Y-59183760D01*
X112413786Y-59175884D01*
X112397434Y-59145228D01*
X112395117Y-59138916D01*
X112395117Y-59138915D01*
X112395116Y-59138912D01*
X112377502Y-59109296D01*
X112375186Y-59105466D01*
X112375036Y-59105222D01*
X112372993Y-59101946D01*
X112352636Y-59069751D01*
X112350911Y-59067060D01*
X112350635Y-59066629D01*
X112350369Y-59066220D01*
X112348972Y-59064097D01*
X112348453Y-59063309D01*
X112330659Y-59036621D01*
X112329239Y-59034511D01*
X112329146Y-59034374D01*
X112328146Y-59032910D01*
X112328016Y-59032719D01*
X112312801Y-59010585D01*
X112312518Y-59010172D01*
X112301271Y-58993670D01*
X112299497Y-58990994D01*
X112293205Y-58981237D01*
X112290460Y-58976781D01*
X112289424Y-58975017D01*
X112285970Y-58969139D01*
X112283100Y-58963979D01*
X112277190Y-58952741D01*
X112274802Y-58947956D01*
X112265644Y-58928571D01*
X112263847Y-58924589D01*
X112253468Y-58900490D01*
X112253000Y-58899403D01*
X112251294Y-58895518D01*
X112251292Y-58895515D01*
X112245356Y-58886937D01*
X112232557Y-58863457D01*
X112219024Y-58830783D01*
X112214336Y-58824674D01*
X112134792Y-58721010D01*
X112134789Y-58721008D01*
X112025018Y-58636776D01*
X112025017Y-58636775D01*
X112025014Y-58636773D01*
X111897183Y-58583826D01*
X111760000Y-58565765D01*
X111622816Y-58583826D01*
X111494983Y-58636774D01*
X111385208Y-58721008D01*
X111300974Y-58830783D01*
X111248025Y-58958618D01*
X111248025Y-58958619D01*
X111247553Y-58962204D01*
X111246314Y-58965003D01*
X111245888Y-58966595D01*
X111245639Y-58966528D01*
X111218828Y-59027130D01*
X111159561Y-59066219D01*
X111088569Y-59067060D01*
X111045928Y-59045714D01*
X111009517Y-59017774D01*
X110881683Y-58964826D01*
X110744500Y-58946765D01*
X110744498Y-58946765D01*
X110737941Y-58947628D01*
X110667792Y-58936685D01*
X110614696Y-58889555D01*
X110595500Y-58822705D01*
X110595500Y-58558767D01*
X110597827Y-58534663D01*
X110600580Y-58520539D01*
X110600840Y-58486577D01*
X110600900Y-58483587D01*
X110601804Y-58455833D01*
X110602084Y-58450623D01*
X110603018Y-58438119D01*
X110610140Y-58404764D01*
X110613243Y-58396161D01*
X110614834Y-58391988D01*
X110623661Y-58370021D01*
X110624279Y-58368516D01*
X110640188Y-58330475D01*
X110640216Y-58330408D01*
X110640313Y-58330175D01*
X110640342Y-58330105D01*
X110642362Y-58325274D01*
X110655210Y-58294551D01*
X110657810Y-58288131D01*
X110659924Y-58277051D01*
X110667284Y-58252446D01*
X110681972Y-58216987D01*
X110681974Y-58216983D01*
X110700035Y-58079800D01*
X110681974Y-57942617D01*
X110662414Y-57895394D01*
X110629025Y-57814783D01*
X110544792Y-57705010D01*
X110544789Y-57705008D01*
X110435018Y-57620776D01*
X110435017Y-57620775D01*
X110435014Y-57620773D01*
X110307183Y-57567826D01*
X110170000Y-57549765D01*
X110032816Y-57567826D01*
X109904983Y-57620774D01*
X109795208Y-57705008D01*
X109710974Y-57814783D01*
X109658026Y-57942616D01*
X109639965Y-58079800D01*
X109658026Y-58216983D01*
X109658027Y-58216987D01*
X109674639Y-58257095D01*
X109681425Y-58278877D01*
X109684788Y-58294554D01*
X109684789Y-58294555D01*
X109697636Y-58325274D01*
X109697636Y-58325277D01*
X109697671Y-58325359D01*
X109697700Y-58325428D01*
X109697705Y-58325440D01*
X109699956Y-58330822D01*
X109715569Y-58368151D01*
X109716242Y-58369793D01*
X109725160Y-58391988D01*
X109726773Y-58396219D01*
X109729859Y-58404776D01*
X109736981Y-58438132D01*
X109737909Y-58450550D01*
X109738192Y-58455835D01*
X109739094Y-58483509D01*
X109739157Y-58486643D01*
X109739418Y-58520524D01*
X109739520Y-58526433D01*
X109739521Y-58526439D01*
X109741289Y-58534663D01*
X109741684Y-58536497D01*
X109744500Y-58562986D01*
X109744500Y-71661781D01*
X109724498Y-71729902D01*
X109670842Y-71776395D01*
X109600568Y-71786499D01*
X109541796Y-71761743D01*
X109485017Y-71718174D01*
X109357183Y-71665226D01*
X109220000Y-71647165D01*
X109082816Y-71665226D01*
X108954983Y-71718174D01*
X108845208Y-71802408D01*
X108760974Y-71912183D01*
X108708026Y-72040016D01*
X108689965Y-72177200D01*
X108708026Y-72314383D01*
X108760973Y-72442214D01*
X108760975Y-72442217D01*
X108760976Y-72442218D01*
X108845209Y-72551991D01*
X108948070Y-72630920D01*
X108954985Y-72636226D01*
X109027065Y-72666081D01*
X109082817Y-72689174D01*
X109220000Y-72707235D01*
X109357183Y-72689174D01*
X109452353Y-72649753D01*
X109485014Y-72636226D01*
X109485014Y-72636225D01*
X109485018Y-72636224D01*
X109541797Y-72592655D01*
X109608015Y-72567055D01*
X109677564Y-72581319D01*
X109728360Y-72630920D01*
X109744500Y-72692618D01*
X109744500Y-72823389D01*
X109744514Y-72823608D01*
X109744514Y-72885688D01*
X109777455Y-73135924D01*
X109777455Y-73135926D01*
X109804841Y-73238133D01*
X109842781Y-73379733D01*
X109842782Y-73379737D01*
X109842783Y-73379738D01*
X109842783Y-73379740D01*
X109939365Y-73612915D01*
X109939372Y-73612930D01*
X110065567Y-73831514D01*
X110219222Y-74031766D01*
X110219231Y-74031777D01*
X110263384Y-74075930D01*
X110263409Y-74075958D01*
X110300928Y-74113476D01*
X110308463Y-74121011D01*
X110351722Y-74164271D01*
X110358903Y-74171452D01*
X110358910Y-74171458D01*
X110953815Y-74766363D01*
X110971612Y-74788749D01*
X110978641Y-74800012D01*
X110996074Y-74846242D01*
X110997587Y-74855432D01*
X110998693Y-74861729D01*
X110998780Y-74862195D01*
X110999901Y-74867911D01*
X111007409Y-74904330D01*
X111009705Y-74914574D01*
X111009888Y-74915330D01*
X111012155Y-74924016D01*
X111012594Y-74925697D01*
X111024215Y-74967239D01*
X111027676Y-74978737D01*
X111027684Y-74978762D01*
X111027691Y-74978785D01*
X111027956Y-74979609D01*
X111032077Y-74991532D01*
X111045813Y-75028770D01*
X111047790Y-75033982D01*
X111047947Y-75034385D01*
X111052604Y-75045660D01*
X111052605Y-75045663D01*
X111057797Y-75053309D01*
X111069964Y-75075870D01*
X111085475Y-75113317D01*
X111085476Y-75113318D01*
X111169709Y-75223091D01*
X111279482Y-75307324D01*
X111279485Y-75307326D01*
X111351565Y-75337181D01*
X111407317Y-75360274D01*
X111544500Y-75378335D01*
X111551552Y-75377406D01*
X111621699Y-75388344D01*
X111674799Y-75435470D01*
X111694000Y-75502328D01*
X111694000Y-76304796D01*
X111693997Y-76304842D01*
X111693999Y-76366133D01*
X111692922Y-76382576D01*
X111690220Y-76403109D01*
X111681706Y-76434887D01*
X111676970Y-76446321D01*
X111660525Y-76474806D01*
X111648104Y-76490994D01*
X111637239Y-76503384D01*
X111577768Y-76562859D01*
X111482892Y-76693454D01*
X111409616Y-76837283D01*
X111359740Y-76990806D01*
X111359740Y-76990808D01*
X111334497Y-77150222D01*
X111334496Y-77150241D01*
X111334500Y-77227417D01*
X111334500Y-78508897D01*
X111334499Y-78508915D01*
X111334499Y-78525615D01*
X111334496Y-78525625D01*
X111334496Y-78704005D01*
X111334497Y-78704013D01*
X111367442Y-78954252D01*
X111367443Y-78954257D01*
X111367444Y-78954261D01*
X111396926Y-79064288D01*
X111422555Y-79159933D01*
X111420865Y-79230910D01*
X111381071Y-79289706D01*
X111349065Y-79308954D01*
X111279483Y-79337774D01*
X111169708Y-79422008D01*
X111085474Y-79531783D01*
X111032526Y-79659616D01*
X111014465Y-79796800D01*
X111032526Y-79933983D01*
X111085473Y-80061814D01*
X111085475Y-80061817D01*
X111085476Y-80061818D01*
X111169709Y-80171591D01*
X111279482Y-80255824D01*
X111279485Y-80255826D01*
X111351565Y-80285681D01*
X111407317Y-80308774D01*
X111544500Y-80326835D01*
X111681683Y-80308774D01*
X111681683Y-80308773D01*
X111689870Y-80307696D01*
X111690058Y-80309128D01*
X111752121Y-80310598D01*
X111810921Y-80350385D01*
X111836281Y-80401174D01*
X111863211Y-80513217D01*
X111865627Y-80522615D01*
X111865840Y-80523391D01*
X111868685Y-80533124D01*
X111868692Y-80533147D01*
X111914980Y-80682251D01*
X111915516Y-80683975D01*
X111918578Y-80693308D01*
X111918810Y-80693979D01*
X111922056Y-80702903D01*
X111982410Y-80861132D01*
X111982724Y-80862077D01*
X111985682Y-80869714D01*
X111985896Y-80870271D01*
X111986183Y-80871024D01*
X111987983Y-80875633D01*
X111988070Y-80875851D01*
X111988078Y-80875869D01*
X111992103Y-80885454D01*
X111993770Y-80887894D01*
X112002519Y-80902804D01*
X112075327Y-81049022D01*
X112075328Y-81049023D01*
X112198234Y-81211778D01*
X112348959Y-81349181D01*
X112348960Y-81349182D01*
X112522351Y-81456541D01*
X112522354Y-81456542D01*
X112522363Y-81456548D01*
X112712544Y-81530224D01*
X112913024Y-81567700D01*
X112913026Y-81567700D01*
X113116974Y-81567700D01*
X113116976Y-81567700D01*
X113317456Y-81530224D01*
X113507637Y-81456548D01*
X113681041Y-81349181D01*
X113831764Y-81211779D01*
X113872949Y-81157240D01*
X113929963Y-81114933D01*
X114000799Y-81110165D01*
X114062968Y-81144451D01*
X114096732Y-81206905D01*
X114099500Y-81233172D01*
X114099500Y-82241227D01*
X114079498Y-82309348D01*
X114025842Y-82355841D01*
X113955568Y-82365945D01*
X113890988Y-82336451D01*
X113872950Y-82317159D01*
X113831765Y-82262621D01*
X113681040Y-82125218D01*
X113681039Y-82125217D01*
X113507646Y-82017856D01*
X113507637Y-82017852D01*
X113446029Y-81993985D01*
X113427910Y-81985242D01*
X113412845Y-81976425D01*
X113333479Y-81947928D01*
X113240062Y-81914386D01*
X113240023Y-81914373D01*
X113225357Y-81909521D01*
X113224244Y-81909184D01*
X113209834Y-81905204D01*
X113050033Y-81865244D01*
X113050022Y-81865241D01*
X113050008Y-81865238D01*
X113037129Y-81862312D01*
X113037107Y-81862307D01*
X113037096Y-81862305D01*
X113036442Y-81862171D01*
X113036127Y-81862107D01*
X113022510Y-81859641D01*
X113022488Y-81859637D01*
X112904871Y-81841078D01*
X112881611Y-81837408D01*
X112881533Y-81837396D01*
X112873501Y-81836238D01*
X112872878Y-81836157D01*
X112863866Y-81835118D01*
X112778983Y-81826608D01*
X112741192Y-81822820D01*
X112740864Y-81822773D01*
X112736208Y-81822320D01*
X112736056Y-81822305D01*
X112735910Y-81822290D01*
X112735893Y-81822289D01*
X112631767Y-81812166D01*
X112623720Y-81811120D01*
X112596189Y-81806639D01*
X112551347Y-81799340D01*
X112535724Y-81795764D01*
X112482088Y-81779837D01*
X112463160Y-81772511D01*
X112406617Y-81745199D01*
X112389605Y-81735269D01*
X112311841Y-81681306D01*
X112299233Y-81671305D01*
X112185028Y-81568167D01*
X112185027Y-81568166D01*
X112178707Y-81564284D01*
X112155569Y-81546021D01*
X110639232Y-80029684D01*
X110632515Y-80022419D01*
X110532655Y-79905496D01*
X110521034Y-79889500D01*
X110451040Y-79775278D01*
X110443301Y-79762648D01*
X110434326Y-79745033D01*
X110377393Y-79607581D01*
X110371285Y-79588780D01*
X110368980Y-79579180D01*
X110336556Y-79444115D01*
X110333464Y-79424590D01*
X110333447Y-79424377D01*
X110321387Y-79271123D01*
X110321000Y-79261242D01*
X110321000Y-79248716D01*
X110321001Y-79205208D01*
X110321000Y-79205204D01*
X110321000Y-76216167D01*
X110323327Y-76192063D01*
X110326080Y-76177939D01*
X110326340Y-76143977D01*
X110326400Y-76140987D01*
X110327304Y-76113233D01*
X110327584Y-76108023D01*
X110328518Y-76095519D01*
X110335640Y-76062164D01*
X110338722Y-76053619D01*
X110338743Y-76053561D01*
X110340334Y-76049388D01*
X110349161Y-76027421D01*
X110349779Y-76025916D01*
X110365688Y-75987875D01*
X110365716Y-75987808D01*
X110365813Y-75987575D01*
X110365842Y-75987505D01*
X110367862Y-75982674D01*
X110380710Y-75951951D01*
X110383310Y-75945531D01*
X110385424Y-75934451D01*
X110392784Y-75909846D01*
X110407472Y-75874387D01*
X110407474Y-75874383D01*
X110425535Y-75737200D01*
X110407474Y-75600017D01*
X110387914Y-75552794D01*
X110354525Y-75472183D01*
X110270292Y-75362410D01*
X110270289Y-75362408D01*
X110160518Y-75278176D01*
X110160517Y-75278175D01*
X110160514Y-75278173D01*
X110032683Y-75225226D01*
X109895500Y-75207165D01*
X109758316Y-75225226D01*
X109630483Y-75278174D01*
X109520708Y-75362408D01*
X109436474Y-75472183D01*
X109383526Y-75600016D01*
X109365465Y-75737200D01*
X109383526Y-75874383D01*
X109383527Y-75874387D01*
X109400139Y-75914495D01*
X109406925Y-75936277D01*
X109410288Y-75951954D01*
X109410289Y-75951955D01*
X109423136Y-75982674D01*
X109423136Y-75982677D01*
X109423171Y-75982759D01*
X109423200Y-75982828D01*
X109423205Y-75982840D01*
X109425456Y-75988222D01*
X109441069Y-76025551D01*
X109441742Y-76027193D01*
X109450660Y-76049388D01*
X109452273Y-76053619D01*
X109455359Y-76062176D01*
X109462481Y-76095532D01*
X109463409Y-76107950D01*
X109463692Y-76113235D01*
X109464594Y-76140909D01*
X109464657Y-76144043D01*
X109464918Y-76177924D01*
X109465020Y-76183833D01*
X109465021Y-76183839D01*
X109466789Y-76192063D01*
X109467184Y-76193897D01*
X109470000Y-76220386D01*
X109470000Y-79330289D01*
X109470014Y-79330508D01*
X109470014Y-79392588D01*
X109502955Y-79642824D01*
X109502955Y-79642826D01*
X109532796Y-79754195D01*
X109568281Y-79886633D01*
X109568282Y-79886637D01*
X109568283Y-79886638D01*
X109568283Y-79886640D01*
X109664865Y-80119815D01*
X109664872Y-80119830D01*
X109791067Y-80338414D01*
X109791070Y-80338419D01*
X109791072Y-80338421D01*
X109911470Y-80495330D01*
X109944722Y-80538666D01*
X109944731Y-80538677D01*
X109988884Y-80582830D01*
X109988909Y-80582858D01*
X110033962Y-80627910D01*
X110033963Y-80627911D01*
X110071812Y-80665761D01*
X110084403Y-80678352D01*
X110084410Y-80678358D01*
X111553848Y-82147796D01*
X111572189Y-82171062D01*
X111575965Y-82177225D01*
X111606860Y-82211435D01*
X111606899Y-82211477D01*
X111679108Y-82291434D01*
X111689101Y-82304033D01*
X111743069Y-82381804D01*
X111752963Y-82398742D01*
X111753282Y-82399403D01*
X111753315Y-82399492D01*
X111753323Y-82399489D01*
X111780309Y-82455357D01*
X111787639Y-82474293D01*
X111803564Y-82527922D01*
X111807138Y-82543539D01*
X111807894Y-82548176D01*
X111818920Y-82615919D01*
X111819964Y-82623965D01*
X111835355Y-82782249D01*
X111835637Y-82783441D01*
X111842912Y-82856002D01*
X111843903Y-82864646D01*
X111843991Y-82865331D01*
X111845206Y-82873799D01*
X111867437Y-83014688D01*
X111867441Y-83014710D01*
X111869907Y-83028327D01*
X111870112Y-83029329D01*
X111873038Y-83042208D01*
X111873044Y-83042233D01*
X111898588Y-83144383D01*
X111913002Y-83202023D01*
X111916992Y-83216464D01*
X111917330Y-83217580D01*
X111922187Y-83232265D01*
X111954546Y-83322387D01*
X111981794Y-83398277D01*
X111984388Y-83406348D01*
X111984415Y-83406445D01*
X111985116Y-83408253D01*
X111986722Y-83411785D01*
X111992339Y-83425398D01*
X111992350Y-83425419D01*
X111993032Y-83426417D01*
X112001786Y-83441333D01*
X112075326Y-83589020D01*
X112075327Y-83589021D01*
X112198234Y-83751778D01*
X112348959Y-83889181D01*
X112348960Y-83889182D01*
X112522351Y-83996541D01*
X112522354Y-83996542D01*
X112522363Y-83996548D01*
X112712544Y-84070224D01*
X112913024Y-84107700D01*
X112913026Y-84107700D01*
X113116974Y-84107700D01*
X113116976Y-84107700D01*
X113317456Y-84070224D01*
X113507637Y-83996548D01*
X113681041Y-83889181D01*
X113831764Y-83751779D01*
X113872949Y-83697240D01*
X113929963Y-83654933D01*
X114000799Y-83650165D01*
X114062968Y-83684451D01*
X114096732Y-83746905D01*
X114099500Y-83773172D01*
X114099500Y-84781227D01*
X114079498Y-84849348D01*
X114025842Y-84895841D01*
X113955568Y-84905945D01*
X113890988Y-84876451D01*
X113872950Y-84857159D01*
X113831765Y-84802621D01*
X113681040Y-84665218D01*
X113681039Y-84665217D01*
X113507648Y-84557858D01*
X113507641Y-84557854D01*
X113507637Y-84557852D01*
X113373747Y-84505983D01*
X113317457Y-84484176D01*
X113250629Y-84471684D01*
X113116976Y-84446700D01*
X112913024Y-84446700D01*
X112812784Y-84465438D01*
X112712542Y-84484176D01*
X112597306Y-84528819D01*
X112522363Y-84557852D01*
X112522362Y-84557852D01*
X112522361Y-84557853D01*
X112522351Y-84557858D01*
X112348960Y-84665217D01*
X112348959Y-84665218D01*
X112198234Y-84802621D01*
X112075329Y-84965375D01*
X111984416Y-85147954D01*
X111928603Y-85344115D01*
X111909785Y-85547200D01*
X111928603Y-85750284D01*
X111984416Y-85946445D01*
X111984417Y-85946447D01*
X111984418Y-85946450D01*
X112075327Y-86129021D01*
X112075328Y-86129022D01*
X112075329Y-86129024D01*
X112198234Y-86291778D01*
X112348959Y-86429181D01*
X112348960Y-86429182D01*
X112522351Y-86536541D01*
X112522354Y-86536542D01*
X112522363Y-86536548D01*
X112712544Y-86610224D01*
X112913024Y-86647700D01*
X112913026Y-86647700D01*
X113116974Y-86647700D01*
X113116976Y-86647700D01*
X113317456Y-86610224D01*
X113507637Y-86536548D01*
X113681041Y-86429181D01*
X113831764Y-86291779D01*
X113872949Y-86237240D01*
X113929963Y-86194933D01*
X114000799Y-86190165D01*
X114062968Y-86224451D01*
X114096732Y-86286905D01*
X114099500Y-86313172D01*
X114099500Y-87321227D01*
X114079498Y-87389348D01*
X114025842Y-87435841D01*
X113955568Y-87445945D01*
X113890988Y-87416451D01*
X113872950Y-87397159D01*
X113831765Y-87342621D01*
X113681040Y-87205218D01*
X113681039Y-87205217D01*
X113507648Y-87097858D01*
X113507641Y-87097854D01*
X113507637Y-87097852D01*
X113333760Y-87030492D01*
X113317457Y-87024176D01*
X113228049Y-87007463D01*
X113116976Y-86986700D01*
X112913024Y-86986700D01*
X112712544Y-87024176D01*
X112712542Y-87024176D01*
X112712540Y-87024177D01*
X112600949Y-87067406D01*
X112587330Y-87071810D01*
X112567454Y-87077010D01*
X112531437Y-87093995D01*
X112523243Y-87097510D01*
X112522372Y-87097847D01*
X112517157Y-87100444D01*
X112517153Y-87100436D01*
X112513017Y-87102682D01*
X112401405Y-87155320D01*
X112387712Y-87162202D01*
X112386674Y-87162757D01*
X112373520Y-87170213D01*
X112232256Y-87254959D01*
X112220736Y-87262225D01*
X112219883Y-87262790D01*
X112208843Y-87270456D01*
X112093525Y-87354342D01*
X112086807Y-87359370D01*
X112086287Y-87359771D01*
X112079313Y-87365304D01*
X111980534Y-87446083D01*
X111980451Y-87446152D01*
X111979743Y-87446733D01*
X111979681Y-87446783D01*
X111898991Y-87513171D01*
X111892563Y-87518121D01*
X111833057Y-87560968D01*
X111819478Y-87569489D01*
X111770309Y-87596142D01*
X111751738Y-87604348D01*
X111692451Y-87625015D01*
X111673380Y-87630029D01*
X111580243Y-87646858D01*
X111564248Y-87648703D01*
X111410566Y-87656529D01*
X111406236Y-87657564D01*
X111403369Y-87658249D01*
X111374084Y-87661700D01*
X108681347Y-87661700D01*
X108654875Y-87658888D01*
X108643777Y-87656503D01*
X108625583Y-87656014D01*
X108568725Y-87640724D01*
X108554340Y-87632893D01*
X108552486Y-87631892D01*
X108520185Y-87614590D01*
X108515411Y-87612088D01*
X108515066Y-87611911D01*
X108511302Y-87610015D01*
X108472997Y-87591048D01*
X108470195Y-87589701D01*
X108466654Y-87587998D01*
X108466627Y-87587985D01*
X108466595Y-87587970D01*
X108466288Y-87587827D01*
X108466276Y-87587821D01*
X108466217Y-87587794D01*
X108460327Y-87585120D01*
X108424284Y-87569215D01*
X108422021Y-87568227D01*
X108421882Y-87568167D01*
X108412344Y-87564240D01*
X108402295Y-87562318D01*
X108377748Y-87554971D01*
X108341183Y-87539826D01*
X108341181Y-87539825D01*
X108204000Y-87521765D01*
X108066816Y-87539826D01*
X107938983Y-87592774D01*
X107829208Y-87677008D01*
X107744974Y-87786783D01*
X107692026Y-87914616D01*
X107673965Y-88051800D01*
X107692026Y-88188983D01*
X107744973Y-88316814D01*
X107744975Y-88316817D01*
X107744976Y-88316818D01*
X107829209Y-88426591D01*
X107938982Y-88510824D01*
X107938985Y-88510826D01*
X107998433Y-88535449D01*
X108066817Y-88563774D01*
X108204000Y-88581835D01*
X108204000Y-88581834D01*
X108204001Y-88581835D01*
X108212262Y-88581835D01*
X108212262Y-88582060D01*
X108223176Y-88581686D01*
X108225076Y-88581805D01*
X108225086Y-88581807D01*
X108225095Y-88581806D01*
X108225100Y-88581807D01*
X108242903Y-88581276D01*
X108273449Y-88580367D01*
X108284173Y-88579859D01*
X108284973Y-88579807D01*
X108295146Y-88578975D01*
X108344072Y-88574149D01*
X108354967Y-88572876D01*
X108355557Y-88572796D01*
X108355798Y-88572764D01*
X108355809Y-88572762D01*
X108355826Y-88572760D01*
X108367344Y-88570980D01*
X108408100Y-88563884D01*
X108418100Y-88561971D01*
X108418862Y-88561812D01*
X108428758Y-88559575D01*
X108464238Y-88550933D01*
X108470699Y-88549284D01*
X108471130Y-88549169D01*
X108476598Y-88547656D01*
X108509316Y-88538271D01*
X108509348Y-88538263D01*
X108509749Y-88538148D01*
X108519154Y-88535449D01*
X108519153Y-88535448D01*
X108527279Y-88533117D01*
X108527277Y-88533117D01*
X108534710Y-88530985D01*
X108539593Y-88529692D01*
X108553206Y-88526375D01*
X108561395Y-88524666D01*
X108573094Y-88522629D01*
X108582315Y-88521373D01*
X108596085Y-88520015D01*
X108601479Y-88519484D01*
X108610087Y-88518932D01*
X108631739Y-88518287D01*
X108644602Y-88517905D01*
X108644626Y-88517904D01*
X108644699Y-88517902D01*
X108647218Y-88517816D01*
X108656051Y-88515814D01*
X108683893Y-88512700D01*
X111374126Y-88512700D01*
X111403545Y-88516182D01*
X111410571Y-88517870D01*
X111410569Y-88517870D01*
X111427047Y-88518708D01*
X111564256Y-88525694D01*
X111580225Y-88527536D01*
X111673395Y-88544370D01*
X111692447Y-88549379D01*
X111751728Y-88570043D01*
X111770294Y-88578247D01*
X111776639Y-88581686D01*
X111791649Y-88589823D01*
X111791651Y-88589824D01*
X111819482Y-88604910D01*
X111833052Y-88613425D01*
X111892567Y-88656277D01*
X111898974Y-88661211D01*
X111951495Y-88704424D01*
X111958715Y-88710365D01*
X111958946Y-88710661D01*
X112029286Y-88768181D01*
X112079305Y-88809084D01*
X112086164Y-88814531D01*
X112086688Y-88814935D01*
X112089403Y-88816968D01*
X112093487Y-88820027D01*
X112208841Y-88903940D01*
X112208857Y-88903951D01*
X112208861Y-88903954D01*
X112219929Y-88911638D01*
X112219940Y-88911645D01*
X112220808Y-88912220D01*
X112226414Y-88915754D01*
X112232276Y-88919451D01*
X112373531Y-89004191D01*
X112386778Y-89011695D01*
X112387806Y-89012244D01*
X112401407Y-89019078D01*
X112513001Y-89071707D01*
X112517144Y-89073958D01*
X112517148Y-89073952D01*
X112522358Y-89076545D01*
X112522363Y-89076548D01*
X112523111Y-89076837D01*
X112523220Y-89076880D01*
X112531472Y-89080418D01*
X112567409Y-89097367D01*
X112567432Y-89097377D01*
X112567450Y-89097386D01*
X112573998Y-89100380D01*
X112574499Y-89100602D01*
X112587553Y-89106028D01*
X112587555Y-89106029D01*
X112597374Y-89107876D01*
X112619574Y-89114207D01*
X112658874Y-89129432D01*
X112715167Y-89172692D01*
X112739136Y-89239520D01*
X112723171Y-89308698D01*
X112672339Y-89358263D01*
X112602780Y-89372478D01*
X112582520Y-89369091D01*
X112495770Y-89347196D01*
X112487603Y-89344839D01*
X112387986Y-89312412D01*
X112379760Y-89309414D01*
X112257774Y-89260096D01*
X112250722Y-89256991D01*
X112097424Y-89183813D01*
X112094594Y-89182480D01*
X112094595Y-89182480D01*
X112094590Y-89182478D01*
X112094587Y-89182477D01*
X112094584Y-89182476D01*
X112087560Y-89180681D01*
X112055766Y-89167726D01*
X111967141Y-89116560D01*
X111967125Y-89116552D01*
X111733938Y-89019966D01*
X111490130Y-88954642D01*
X111490127Y-88954641D01*
X111239883Y-88921699D01*
X111239879Y-88921699D01*
X111113674Y-88921700D01*
X108428985Y-88921700D01*
X108404877Y-88919372D01*
X108390752Y-88916618D01*
X108390754Y-88916618D01*
X108356808Y-88916355D01*
X108353686Y-88916292D01*
X108336029Y-88915717D01*
X108335980Y-88915716D01*
X108332123Y-88915590D01*
X108326021Y-88915391D01*
X108320765Y-88915109D01*
X108316786Y-88914812D01*
X108308346Y-88914182D01*
X108274964Y-88907055D01*
X108266407Y-88903968D01*
X108262187Y-88902360D01*
X108239027Y-88893054D01*
X108237344Y-88892364D01*
X108227336Y-88888174D01*
X108206215Y-88879330D01*
X108206173Y-88879311D01*
X108202189Y-88877645D01*
X108201141Y-88877206D01*
X108201128Y-88877201D01*
X108201013Y-88877152D01*
X108201010Y-88877151D01*
X108200532Y-88876951D01*
X108199247Y-88876413D01*
X108199148Y-88876372D01*
X108164795Y-88862006D01*
X108164784Y-88862001D01*
X108164754Y-88861989D01*
X108158298Y-88859375D01*
X108158293Y-88859374D01*
X108158296Y-88859374D01*
X108147222Y-88857262D01*
X108122618Y-88849903D01*
X108087183Y-88835226D01*
X107950000Y-88817165D01*
X107812816Y-88835226D01*
X107684983Y-88888174D01*
X107575208Y-88972408D01*
X107490974Y-89082183D01*
X107438026Y-89210016D01*
X107419965Y-89347200D01*
X107438026Y-89484383D01*
X107490973Y-89612214D01*
X107490975Y-89612217D01*
X107490976Y-89612218D01*
X107575209Y-89721991D01*
X107677924Y-89800808D01*
X107684985Y-89806226D01*
X107748202Y-89832410D01*
X107812817Y-89859174D01*
X107950000Y-89877235D01*
X108087183Y-89859174D01*
X108127300Y-89842557D01*
X108149094Y-89835767D01*
X108164751Y-89832410D01*
X108200354Y-89817521D01*
X108200388Y-89817508D01*
X108201134Y-89817195D01*
X108201150Y-89817189D01*
X108203011Y-89816409D01*
X108238719Y-89801477D01*
X108240173Y-89800880D01*
X108262209Y-89792025D01*
X108266356Y-89790444D01*
X108274972Y-89787337D01*
X108308347Y-89780216D01*
X108320837Y-89779285D01*
X108326065Y-89779004D01*
X108353787Y-89778100D01*
X108356785Y-89778040D01*
X108390739Y-89777780D01*
X108396639Y-89777678D01*
X108406700Y-89775514D01*
X108433182Y-89772700D01*
X111052505Y-89772700D01*
X111052508Y-89772701D01*
X111108733Y-89772700D01*
X111118616Y-89773087D01*
X111271890Y-89785149D01*
X111291418Y-89788242D01*
X111342431Y-89800488D01*
X111436092Y-89822973D01*
X111454879Y-89829076D01*
X111592340Y-89886013D01*
X111609955Y-89894988D01*
X111736818Y-89972728D01*
X111752797Y-89984337D01*
X111831892Y-90051889D01*
X111870700Y-90111337D01*
X111875732Y-90138603D01*
X111879574Y-90191684D01*
X111879890Y-90202586D01*
X111878366Y-90308829D01*
X111878367Y-90308830D01*
X111878365Y-90308973D01*
X111876481Y-90443701D01*
X111876510Y-90454009D01*
X111876523Y-90454704D01*
X111876918Y-90465360D01*
X111884886Y-90611877D01*
X111886381Y-90629718D01*
X111886534Y-90631068D01*
X111889085Y-90648866D01*
X111916801Y-90808565D01*
X111921430Y-90830444D01*
X111921849Y-90832121D01*
X111928009Y-90853428D01*
X111980419Y-91012774D01*
X111981917Y-91017659D01*
X111984417Y-91026448D01*
X111984422Y-91026460D01*
X111985538Y-91028701D01*
X111989537Y-91037576D01*
X111992672Y-91045322D01*
X111993712Y-91047260D01*
X112000745Y-91059241D01*
X112075327Y-91209021D01*
X112075328Y-91209022D01*
X112198234Y-91371778D01*
X112348959Y-91509181D01*
X112348960Y-91509182D01*
X112522351Y-91616541D01*
X112522354Y-91616542D01*
X112522363Y-91616548D01*
X112712544Y-91690224D01*
X112913024Y-91727700D01*
X112913026Y-91727700D01*
X113116974Y-91727700D01*
X113116976Y-91727700D01*
X113317456Y-91690224D01*
X113507637Y-91616548D01*
X113681041Y-91509181D01*
X113831764Y-91371779D01*
X113872949Y-91317240D01*
X113929963Y-91274933D01*
X114000799Y-91270165D01*
X114062968Y-91304451D01*
X114096732Y-91366905D01*
X114099500Y-91393172D01*
X114099500Y-92401227D01*
X114079498Y-92469348D01*
X114025842Y-92515841D01*
X113955568Y-92525945D01*
X113890988Y-92496451D01*
X113872950Y-92477159D01*
X113831765Y-92422621D01*
X113681040Y-92285218D01*
X113681039Y-92285217D01*
X113507648Y-92177858D01*
X113507641Y-92177854D01*
X113507637Y-92177852D01*
X113391133Y-92132718D01*
X113317457Y-92104176D01*
X113250629Y-92091684D01*
X113116976Y-92066700D01*
X112913024Y-92066700D01*
X112812784Y-92085438D01*
X112712542Y-92104176D01*
X112565190Y-92161260D01*
X112522363Y-92177852D01*
X112522362Y-92177852D01*
X112522361Y-92177853D01*
X112522351Y-92177858D01*
X112348960Y-92285217D01*
X112348959Y-92285218D01*
X112198234Y-92422621D01*
X112075329Y-92585375D01*
X111984416Y-92767954D01*
X111928603Y-92964115D01*
X111909785Y-93167200D01*
X111928603Y-93370284D01*
X111984416Y-93566445D01*
X111984417Y-93566447D01*
X111984418Y-93566450D01*
X112075327Y-93749021D01*
X112075328Y-93749022D01*
X112075329Y-93749024D01*
X112198234Y-93911778D01*
X112348959Y-94049181D01*
X112348960Y-94049182D01*
X112522351Y-94156541D01*
X112522354Y-94156542D01*
X112522363Y-94156548D01*
X112712544Y-94230224D01*
X112913024Y-94267700D01*
X112913026Y-94267700D01*
X113116974Y-94267700D01*
X113116976Y-94267700D01*
X113317456Y-94230224D01*
X113507637Y-94156548D01*
X113681041Y-94049181D01*
X113831764Y-93911779D01*
X113872949Y-93857240D01*
X113929963Y-93814933D01*
X114000799Y-93810165D01*
X114062968Y-93844451D01*
X114096732Y-93906905D01*
X114099500Y-93933172D01*
X114099500Y-94941227D01*
X114079498Y-95009348D01*
X114025842Y-95055841D01*
X113955568Y-95065945D01*
X113890988Y-95036451D01*
X113872950Y-95017159D01*
X113831765Y-94962621D01*
X113681040Y-94825218D01*
X113681039Y-94825217D01*
X113507646Y-94717856D01*
X113507637Y-94717852D01*
X113446029Y-94693985D01*
X113427910Y-94685242D01*
X113412845Y-94676425D01*
X113333479Y-94647928D01*
X113240062Y-94614386D01*
X113240023Y-94614373D01*
X113225357Y-94609521D01*
X113224244Y-94609184D01*
X113209834Y-94605204D01*
X113050033Y-94565244D01*
X113050022Y-94565241D01*
X113050008Y-94565238D01*
X113037129Y-94562312D01*
X113037107Y-94562307D01*
X113037096Y-94562305D01*
X113036442Y-94562171D01*
X113036127Y-94562107D01*
X113022510Y-94559641D01*
X113022488Y-94559637D01*
X112904871Y-94541078D01*
X112881611Y-94537408D01*
X112881533Y-94537396D01*
X112873501Y-94536238D01*
X112872878Y-94536157D01*
X112863866Y-94535118D01*
X112778983Y-94526608D01*
X112741192Y-94522820D01*
X112740864Y-94522773D01*
X112736208Y-94522320D01*
X112736056Y-94522305D01*
X112735910Y-94522290D01*
X112735893Y-94522289D01*
X112631767Y-94512166D01*
X112623720Y-94511120D01*
X112577984Y-94503676D01*
X112551347Y-94499340D01*
X112535724Y-94495764D01*
X112482088Y-94479837D01*
X112463160Y-94472511D01*
X112406617Y-94445199D01*
X112389605Y-94435269D01*
X112311841Y-94381306D01*
X112299233Y-94371305D01*
X112185028Y-94268167D01*
X112185027Y-94268166D01*
X112178707Y-94264284D01*
X112155569Y-94246021D01*
X111865258Y-93955710D01*
X111865246Y-93955696D01*
X111851726Y-93942176D01*
X111851701Y-93942131D01*
X111725595Y-93816028D01*
X111725588Y-93816022D01*
X111725580Y-93816014D01*
X111525329Y-93662359D01*
X111525328Y-93662358D01*
X111525325Y-93662356D01*
X111400526Y-93590306D01*
X111306735Y-93536157D01*
X111306731Y-93536155D01*
X111306725Y-93536152D01*
X111073538Y-93439566D01*
X110829730Y-93374242D01*
X110829727Y-93374241D01*
X110579483Y-93341299D01*
X110579479Y-93341299D01*
X110453274Y-93341300D01*
X109190985Y-93341300D01*
X109166877Y-93338972D01*
X109152752Y-93336218D01*
X109152754Y-93336218D01*
X109118808Y-93335955D01*
X109115686Y-93335892D01*
X109098029Y-93335317D01*
X109097980Y-93335316D01*
X109094123Y-93335190D01*
X109088021Y-93334991D01*
X109082765Y-93334709D01*
X109078786Y-93334412D01*
X109070346Y-93333782D01*
X109036964Y-93326655D01*
X109028407Y-93323568D01*
X109024187Y-93321960D01*
X109001027Y-93312654D01*
X108999344Y-93311964D01*
X108989336Y-93307774D01*
X108968217Y-93298931D01*
X108968170Y-93298909D01*
X108963541Y-93296973D01*
X108963141Y-93296806D01*
X108963135Y-93296803D01*
X108963011Y-93296752D01*
X108963010Y-93296751D01*
X108962876Y-93296694D01*
X108961267Y-93296021D01*
X108961148Y-93295972D01*
X108926795Y-93281606D01*
X108926784Y-93281601D01*
X108926754Y-93281589D01*
X108920298Y-93278975D01*
X108920293Y-93278974D01*
X108920296Y-93278974D01*
X108909222Y-93276862D01*
X108884618Y-93269503D01*
X108849183Y-93254826D01*
X108712000Y-93236765D01*
X108574816Y-93254826D01*
X108446983Y-93307774D01*
X108337208Y-93392008D01*
X108252974Y-93501783D01*
X108200026Y-93629616D01*
X108181965Y-93766800D01*
X108200026Y-93903983D01*
X108252973Y-94031814D01*
X108252975Y-94031817D01*
X108252976Y-94031818D01*
X108337209Y-94141591D01*
X108439924Y-94220408D01*
X108446985Y-94225826D01*
X108510202Y-94252010D01*
X108574817Y-94278774D01*
X108712000Y-94296835D01*
X108849183Y-94278774D01*
X108889300Y-94262157D01*
X108911094Y-94255367D01*
X108926751Y-94252010D01*
X108962354Y-94237121D01*
X108962388Y-94237108D01*
X108963134Y-94236795D01*
X108963150Y-94236789D01*
X108965011Y-94236009D01*
X109000719Y-94221077D01*
X109002173Y-94220480D01*
X109024209Y-94211625D01*
X109028356Y-94210044D01*
X109036972Y-94206937D01*
X109070347Y-94199816D01*
X109082837Y-94198885D01*
X109088065Y-94198604D01*
X109115787Y-94197700D01*
X109118785Y-94197640D01*
X109152739Y-94197380D01*
X109158639Y-94197278D01*
X109168700Y-94195114D01*
X109195182Y-94192300D01*
X110392105Y-94192300D01*
X110392108Y-94192301D01*
X110448333Y-94192300D01*
X110458216Y-94192687D01*
X110611490Y-94204749D01*
X110631018Y-94207842D01*
X110682031Y-94220088D01*
X110775692Y-94242573D01*
X110794479Y-94248676D01*
X110931940Y-94305613D01*
X110949556Y-94314589D01*
X111076411Y-94392324D01*
X111092406Y-94403945D01*
X111209179Y-94503676D01*
X111216445Y-94510393D01*
X111553848Y-94847796D01*
X111572189Y-94871062D01*
X111575965Y-94877225D01*
X111606860Y-94911435D01*
X111606899Y-94911477D01*
X111679108Y-94991434D01*
X111689101Y-95004033D01*
X111743069Y-95081804D01*
X111752963Y-95098742D01*
X111753282Y-95099403D01*
X111753315Y-95099492D01*
X111753323Y-95099489D01*
X111780309Y-95155357D01*
X111787639Y-95174293D01*
X111803564Y-95227922D01*
X111807138Y-95243539D01*
X111816624Y-95301814D01*
X111818920Y-95315919D01*
X111819964Y-95323965D01*
X111835355Y-95482249D01*
X111835637Y-95483441D01*
X111842912Y-95556002D01*
X111843903Y-95564646D01*
X111843991Y-95565331D01*
X111845206Y-95573799D01*
X111867437Y-95714688D01*
X111867441Y-95714710D01*
X111869907Y-95728327D01*
X111869911Y-95728346D01*
X111870105Y-95729296D01*
X111873044Y-95742233D01*
X111877201Y-95758856D01*
X111913002Y-95902023D01*
X111916992Y-95916464D01*
X111917330Y-95917580D01*
X111922187Y-95932265D01*
X111954546Y-96022387D01*
X111981794Y-96098277D01*
X111984388Y-96106348D01*
X111984415Y-96106445D01*
X111985116Y-96108253D01*
X111986722Y-96111785D01*
X111992339Y-96125398D01*
X111992350Y-96125419D01*
X111993032Y-96126417D01*
X112001786Y-96141333D01*
X112075326Y-96289020D01*
X112075327Y-96289021D01*
X112198234Y-96451778D01*
X112348959Y-96589181D01*
X112348960Y-96589182D01*
X112522351Y-96696541D01*
X112522354Y-96696542D01*
X112522363Y-96696548D01*
X112712544Y-96770224D01*
X112913024Y-96807700D01*
X112913026Y-96807700D01*
X113116974Y-96807700D01*
X113116976Y-96807700D01*
X113317456Y-96770224D01*
X113507637Y-96696548D01*
X113681041Y-96589181D01*
X113831764Y-96451779D01*
X113872949Y-96397240D01*
X113929963Y-96354933D01*
X114000799Y-96350165D01*
X114062968Y-96384451D01*
X114096732Y-96446905D01*
X114099500Y-96473172D01*
X114099500Y-97481227D01*
X114079498Y-97549348D01*
X114025842Y-97595841D01*
X113955568Y-97605945D01*
X113890988Y-97576451D01*
X113872950Y-97557159D01*
X113831765Y-97502621D01*
X113681040Y-97365218D01*
X113681039Y-97365217D01*
X113507648Y-97257858D01*
X113507641Y-97257854D01*
X113507637Y-97257852D01*
X113391133Y-97212718D01*
X113317457Y-97184176D01*
X113250629Y-97171684D01*
X113116976Y-97146700D01*
X112913024Y-97146700D01*
X112812784Y-97165438D01*
X112712542Y-97184176D01*
X112565190Y-97241260D01*
X112522363Y-97257852D01*
X112522362Y-97257852D01*
X112522361Y-97257853D01*
X112522351Y-97257858D01*
X112348960Y-97365217D01*
X112348959Y-97365218D01*
X112198234Y-97502621D01*
X112075329Y-97665375D01*
X111984416Y-97847954D01*
X111928603Y-98044115D01*
X111909785Y-98247200D01*
X111928603Y-98450284D01*
X111984416Y-98646445D01*
X111984417Y-98646447D01*
X111984418Y-98646450D01*
X112075327Y-98829021D01*
X112075328Y-98829022D01*
X112075329Y-98829024D01*
X112198234Y-98991778D01*
X112348959Y-99129181D01*
X112348960Y-99129182D01*
X112522351Y-99236541D01*
X112522354Y-99236542D01*
X112522363Y-99236548D01*
X112542335Y-99244285D01*
X112559691Y-99251009D01*
X112615986Y-99294268D01*
X112639956Y-99361096D01*
X112623992Y-99430274D01*
X112573161Y-99479840D01*
X112514174Y-99494500D01*
X105895826Y-99494500D01*
X105827705Y-99474498D01*
X105781212Y-99420842D01*
X105771108Y-99350568D01*
X105800602Y-99285988D01*
X105850309Y-99251009D01*
X105855642Y-99248942D01*
X105887637Y-99236548D01*
X106061041Y-99129181D01*
X106211764Y-98991779D01*
X106334673Y-98829021D01*
X106425582Y-98646450D01*
X106481397Y-98450283D01*
X106500215Y-98247200D01*
X106481397Y-98044117D01*
X106425582Y-97847950D01*
X106334673Y-97665379D01*
X106289791Y-97605945D01*
X106211765Y-97502621D01*
X106061040Y-97365218D01*
X106061039Y-97365217D01*
X105887648Y-97257858D01*
X105887641Y-97257854D01*
X105887637Y-97257852D01*
X105771133Y-97212718D01*
X105697457Y-97184176D01*
X105630629Y-97171684D01*
X105496976Y-97146700D01*
X105293024Y-97146700D01*
X105192784Y-97165438D01*
X105092542Y-97184176D01*
X104945190Y-97241260D01*
X104902363Y-97257852D01*
X104902362Y-97257852D01*
X104902361Y-97257853D01*
X104902351Y-97257858D01*
X104728960Y-97365217D01*
X104728959Y-97365218D01*
X104578236Y-97502620D01*
X104567049Y-97517434D01*
X104510034Y-97559740D01*
X104439198Y-97564506D01*
X104377030Y-97530219D01*
X104343268Y-97467764D01*
X104340500Y-97441500D01*
X104340500Y-96512899D01*
X104360502Y-96444778D01*
X104414158Y-96398285D01*
X104484432Y-96388181D01*
X104549012Y-96417675D01*
X104567051Y-96436968D01*
X104578235Y-96451779D01*
X104728959Y-96589181D01*
X104728960Y-96589182D01*
X104902351Y-96696541D01*
X104902354Y-96696542D01*
X104902363Y-96696548D01*
X105092544Y-96770224D01*
X105293024Y-96807700D01*
X105293026Y-96807700D01*
X105496974Y-96807700D01*
X105496976Y-96807700D01*
X105697456Y-96770224D01*
X105887637Y-96696548D01*
X106061041Y-96589181D01*
X106211764Y-96451779D01*
X106245952Y-96406504D01*
X106248747Y-96402941D01*
X106314603Y-96322060D01*
X106332400Y-96297863D01*
X106333669Y-96295947D01*
X106349008Y-96270113D01*
X106426751Y-96123159D01*
X106428482Y-96119550D01*
X106437066Y-96101672D01*
X106437075Y-96101652D01*
X106437800Y-96099977D01*
X106442328Y-96088283D01*
X106446405Y-96077756D01*
X106446411Y-96077739D01*
X106496827Y-95930747D01*
X106501245Y-95916785D01*
X106501557Y-95915710D01*
X106505286Y-95901612D01*
X106539425Y-95758856D01*
X106540218Y-95755456D01*
X106540275Y-95755205D01*
X106540974Y-95752051D01*
X106566694Y-95632972D01*
X106568843Y-95624472D01*
X106579197Y-95588787D01*
X106617389Y-95528938D01*
X106681875Y-95499239D01*
X106687169Y-95498574D01*
X106748939Y-95492152D01*
X106748945Y-95492150D01*
X106754216Y-95491144D01*
X106754291Y-95491541D01*
X106782151Y-95487700D01*
X110135678Y-95487700D01*
X110163042Y-95490707D01*
X110172930Y-95492907D01*
X110205845Y-95494030D01*
X110215714Y-95494756D01*
X110230724Y-95496456D01*
X110241261Y-95498106D01*
X110248931Y-95499642D01*
X110258224Y-95501873D01*
X110269121Y-95504931D01*
X110274571Y-95506597D01*
X110298558Y-95514535D01*
X110298565Y-95514538D01*
X110331673Y-95525492D01*
X110338390Y-95527628D01*
X110338904Y-95527785D01*
X110345599Y-95529747D01*
X110381074Y-95539703D01*
X110392367Y-95542641D01*
X110393230Y-95542848D01*
X110404486Y-95545324D01*
X110445265Y-95553492D01*
X110457887Y-95555746D01*
X110458868Y-95555900D01*
X110468764Y-95557236D01*
X110471850Y-95557653D01*
X110471857Y-95557653D01*
X110471866Y-95557655D01*
X110520985Y-95563218D01*
X110533127Y-95564349D01*
X110534045Y-95564416D01*
X110545857Y-95565048D01*
X110594528Y-95566710D01*
X110598792Y-95566826D01*
X110599139Y-95566833D01*
X110611002Y-95566842D01*
X110611005Y-95566841D01*
X110616913Y-95566846D01*
X110616998Y-95566834D01*
X110617000Y-95566835D01*
X110754183Y-95548774D01*
X110849353Y-95509353D01*
X110882014Y-95495826D01*
X110882014Y-95495825D01*
X110882018Y-95495824D01*
X110991791Y-95411591D01*
X111076024Y-95301818D01*
X111128974Y-95173983D01*
X111147035Y-95036800D01*
X111128974Y-94899617D01*
X111098158Y-94825219D01*
X111076025Y-94771783D01*
X110991792Y-94662010D01*
X110973440Y-94647928D01*
X110882018Y-94577776D01*
X110882017Y-94577775D01*
X110882014Y-94577773D01*
X110754183Y-94524826D01*
X110617000Y-94506765D01*
X110479816Y-94524826D01*
X110479812Y-94524827D01*
X110435767Y-94543070D01*
X110415705Y-94549475D01*
X110398222Y-94553482D01*
X110371182Y-94565238D01*
X110362163Y-94569159D01*
X110360331Y-94569974D01*
X110357336Y-94571307D01*
X110357236Y-94571353D01*
X110357173Y-94571382D01*
X110357112Y-94571410D01*
X110352982Y-94573327D01*
X110352920Y-94573356D01*
X110314431Y-94591572D01*
X110309051Y-94594181D01*
X110277513Y-94609852D01*
X110276959Y-94610126D01*
X110261483Y-94617721D01*
X110215843Y-94630221D01*
X110214741Y-94630307D01*
X110211257Y-94630581D01*
X110204115Y-94630939D01*
X110202370Y-94630976D01*
X110199626Y-94631036D01*
X110199619Y-94631036D01*
X110176918Y-94631524D01*
X110173141Y-94631629D01*
X110170601Y-94632193D01*
X110163830Y-94633698D01*
X110136494Y-94636700D01*
X106755915Y-94636700D01*
X106732190Y-94634446D01*
X106725475Y-94633158D01*
X106717597Y-94631648D01*
X106717603Y-94631648D01*
X106550114Y-94630872D01*
X106548775Y-94630858D01*
X106404467Y-94628654D01*
X106403013Y-94628624D01*
X106282351Y-94625388D01*
X106281028Y-94625345D01*
X106175613Y-94621409D01*
X106174795Y-94621376D01*
X106077653Y-94617117D01*
X106077584Y-94617114D01*
X106077556Y-94617113D01*
X106075565Y-94617026D01*
X106075547Y-94617025D01*
X105973518Y-94612551D01*
X105971497Y-94612470D01*
X105862279Y-94608393D01*
X105859135Y-94608292D01*
X105859063Y-94608290D01*
X105859061Y-94608290D01*
X105843257Y-94607866D01*
X105709967Y-94604291D01*
X105708691Y-94604526D01*
X105580936Y-94602575D01*
X105577855Y-94602544D01*
X105577782Y-94602543D01*
X105577717Y-94602543D01*
X105525360Y-94602300D01*
X105408073Y-94601756D01*
X105400011Y-94601826D01*
X105400003Y-94601826D01*
X105400003Y-94601827D01*
X105400002Y-94601827D01*
X105399996Y-94601828D01*
X105391801Y-94603546D01*
X105389559Y-94604017D01*
X105363698Y-94606700D01*
X105293024Y-94606700D01*
X105193282Y-94625345D01*
X105092542Y-94644176D01*
X104945190Y-94701260D01*
X104902363Y-94717852D01*
X104902362Y-94717852D01*
X104902361Y-94717853D01*
X104902351Y-94717858D01*
X104728960Y-94825217D01*
X104728959Y-94825218D01*
X104578236Y-94962620D01*
X104567049Y-94977434D01*
X104510034Y-95019740D01*
X104439198Y-95024506D01*
X104377030Y-94990219D01*
X104343268Y-94927764D01*
X104340500Y-94901500D01*
X104340500Y-93972899D01*
X104360502Y-93904778D01*
X104414158Y-93858285D01*
X104484432Y-93848181D01*
X104549012Y-93877675D01*
X104567051Y-93896968D01*
X104578235Y-93911779D01*
X104728959Y-94049181D01*
X104728960Y-94049182D01*
X104902351Y-94156541D01*
X104902354Y-94156542D01*
X104902363Y-94156548D01*
X105092544Y-94230224D01*
X105293024Y-94267700D01*
X105293026Y-94267700D01*
X105496974Y-94267700D01*
X105496976Y-94267700D01*
X105697456Y-94230224D01*
X105804723Y-94188668D01*
X105819691Y-94183919D01*
X105839413Y-94178993D01*
X106000529Y-94105180D01*
X106011358Y-94099959D01*
X106012185Y-94099540D01*
X106022937Y-94093820D01*
X106160144Y-94017284D01*
X106170086Y-94011490D01*
X106170834Y-94011035D01*
X106180432Y-94004949D01*
X106292198Y-93931132D01*
X106298928Y-93926558D01*
X106299437Y-93926202D01*
X106305996Y-93921483D01*
X106401470Y-93850875D01*
X106403117Y-93849649D01*
X106403225Y-93849568D01*
X106403277Y-93849529D01*
X106403465Y-93849388D01*
X106404370Y-93848705D01*
X106409985Y-93844451D01*
X106485279Y-93787407D01*
X106489504Y-93784343D01*
X106555603Y-93738501D01*
X106565160Y-93732491D01*
X106626583Y-93697607D01*
X106639494Y-93691222D01*
X106713483Y-93659766D01*
X106726762Y-93654980D01*
X106831381Y-93623796D01*
X106842877Y-93620951D01*
X106996436Y-93590540D01*
X106997608Y-93590306D01*
X107003322Y-93587995D01*
X107034103Y-93579887D01*
X107128642Y-93567442D01*
X107187121Y-93559745D01*
X107187126Y-93559744D01*
X107430933Y-93494419D01*
X107664128Y-93397829D01*
X107882721Y-93271628D01*
X108082970Y-93117975D01*
X108123549Y-93077395D01*
X108123560Y-93077387D01*
X108132601Y-93068345D01*
X108132603Y-93068345D01*
X108172211Y-93028737D01*
X108215471Y-92985478D01*
X108215471Y-92985477D01*
X108225839Y-92975110D01*
X108225847Y-92975100D01*
X108674195Y-92526751D01*
X108692875Y-92511359D01*
X108704822Y-92503311D01*
X108729033Y-92479467D01*
X108731265Y-92477324D01*
X108751418Y-92458443D01*
X108755297Y-92454957D01*
X108764821Y-92446757D01*
X108793449Y-92428207D01*
X108801716Y-92424323D01*
X108805733Y-92422523D01*
X108828893Y-92412641D01*
X108830424Y-92412002D01*
X108866122Y-92397376D01*
X108866235Y-92397330D01*
X108866849Y-92397077D01*
X108866890Y-92397062D01*
X108868774Y-92396288D01*
X108909221Y-92379717D01*
X108909618Y-92379446D01*
X108909623Y-92379445D01*
X108918951Y-92373106D01*
X108941541Y-92360917D01*
X108977018Y-92346224D01*
X109086791Y-92261991D01*
X109171024Y-92152218D01*
X109174094Y-92144808D01*
X109190923Y-92104176D01*
X109223974Y-92024383D01*
X109242035Y-91887200D01*
X109223974Y-91750017D01*
X109199207Y-91690223D01*
X109171025Y-91622183D01*
X109086792Y-91512410D01*
X109086789Y-91512408D01*
X108977018Y-91428176D01*
X108977017Y-91428175D01*
X108977014Y-91428173D01*
X108849183Y-91375226D01*
X108712000Y-91357165D01*
X108574816Y-91375226D01*
X108446983Y-91428174D01*
X108337208Y-91512408D01*
X108252980Y-91622176D01*
X108252975Y-91622184D01*
X108236362Y-91662291D01*
X108225757Y-91682493D01*
X108217051Y-91695954D01*
X108217045Y-91695965D01*
X108202237Y-91732057D01*
X108202179Y-91732204D01*
X108187181Y-91768803D01*
X108186481Y-91770478D01*
X108176701Y-91793397D01*
X108174854Y-91797518D01*
X108170985Y-91805754D01*
X108152427Y-91834391D01*
X108144301Y-91843829D01*
X108140763Y-91847768D01*
X108121802Y-91868005D01*
X108119639Y-91870257D01*
X108095879Y-91894387D01*
X108091775Y-91898636D01*
X108091773Y-91898638D01*
X108091771Y-91898641D01*
X108086192Y-91907277D01*
X108069455Y-91927995D01*
X107613728Y-92383724D01*
X107613727Y-92383724D01*
X107573984Y-92423467D01*
X107566719Y-92430184D01*
X107449796Y-92530044D01*
X107433800Y-92541665D01*
X107306950Y-92619397D01*
X107289333Y-92628373D01*
X107151885Y-92685304D01*
X107133080Y-92691414D01*
X106988417Y-92726142D01*
X106968890Y-92729235D01*
X106815429Y-92741311D01*
X106805544Y-92741699D01*
X106739358Y-92741699D01*
X106739346Y-92741700D01*
X106667920Y-92741700D01*
X106627910Y-92735179D01*
X106614511Y-92730692D01*
X106588899Y-92718775D01*
X106564384Y-92703818D01*
X106547732Y-92691685D01*
X106500819Y-92651237D01*
X106493802Y-92644705D01*
X106422805Y-92573390D01*
X106422425Y-92572974D01*
X106420069Y-92570638D01*
X106419479Y-92570049D01*
X106419363Y-92569937D01*
X106326975Y-92478338D01*
X106319077Y-92470782D01*
X106318448Y-92470202D01*
X106315530Y-92467605D01*
X106310293Y-92462943D01*
X106277172Y-92434504D01*
X106202394Y-92370296D01*
X106188626Y-92359151D01*
X106187568Y-92358344D01*
X106173396Y-92348161D01*
X106040721Y-92258473D01*
X106023346Y-92247560D01*
X106022000Y-92246776D01*
X106013884Y-92242412D01*
X106003750Y-92236963D01*
X106003740Y-92236958D01*
X105906367Y-92188781D01*
X105895919Y-92182979D01*
X105887636Y-92177851D01*
X105877413Y-92173890D01*
X105867068Y-92169338D01*
X105860415Y-92166047D01*
X105847802Y-92159807D01*
X105838560Y-92155426D01*
X105837879Y-92155117D01*
X105837866Y-92155111D01*
X105822293Y-92148559D01*
X105813747Y-92146952D01*
X105791516Y-92140614D01*
X105697459Y-92104177D01*
X105697458Y-92104176D01*
X105697456Y-92104176D01*
X105496976Y-92066700D01*
X105293024Y-92066700D01*
X105192784Y-92085438D01*
X105092542Y-92104176D01*
X104945190Y-92161260D01*
X104902363Y-92177852D01*
X104902362Y-92177852D01*
X104902361Y-92177853D01*
X104902351Y-92177858D01*
X104728960Y-92285217D01*
X104728959Y-92285218D01*
X104578236Y-92422620D01*
X104567049Y-92437434D01*
X104510034Y-92479740D01*
X104439198Y-92484506D01*
X104377030Y-92450219D01*
X104343268Y-92387764D01*
X104340500Y-92361500D01*
X104340500Y-91432899D01*
X104360502Y-91364778D01*
X104414158Y-91318285D01*
X104484432Y-91308181D01*
X104549012Y-91337675D01*
X104567051Y-91356968D01*
X104578235Y-91371779D01*
X104728959Y-91509181D01*
X104728960Y-91509182D01*
X104902351Y-91616541D01*
X104902354Y-91616542D01*
X104902363Y-91616548D01*
X105092544Y-91690224D01*
X105293024Y-91727700D01*
X105293026Y-91727700D01*
X105496974Y-91727700D01*
X105496976Y-91727700D01*
X105697456Y-91690224D01*
X105809074Y-91646982D01*
X105822687Y-91642581D01*
X105842550Y-91637385D01*
X105878524Y-91620418D01*
X105886727Y-91616900D01*
X105887637Y-91616548D01*
X105887647Y-91616542D01*
X105892867Y-91613943D01*
X105892870Y-91613950D01*
X105897018Y-91611695D01*
X106008591Y-91559077D01*
X106022191Y-91552244D01*
X106023219Y-91551695D01*
X106036466Y-91544191D01*
X106177721Y-91459451D01*
X106189204Y-91452210D01*
X106190068Y-91451638D01*
X106201136Y-91443954D01*
X106316487Y-91360044D01*
X106323533Y-91354762D01*
X106324056Y-91354358D01*
X106330689Y-91349085D01*
X106429542Y-91268249D01*
X106429541Y-91268248D01*
X106429835Y-91268009D01*
X106429996Y-91267878D01*
X106430356Y-91267583D01*
X106469376Y-91235675D01*
X106470327Y-91234694D01*
X106511010Y-91201221D01*
X106517396Y-91196302D01*
X106576965Y-91153411D01*
X106590502Y-91144917D01*
X106639699Y-91118247D01*
X106658259Y-91110047D01*
X106717549Y-91089380D01*
X106736602Y-91084371D01*
X106829772Y-91067536D01*
X106845742Y-91065694D01*
X106999429Y-91057870D01*
X107006632Y-91056148D01*
X107035911Y-91052700D01*
X110138860Y-91052700D01*
X110165690Y-91055590D01*
X110176294Y-91057901D01*
X110176296Y-91057901D01*
X110176300Y-91057902D01*
X110210908Y-91058932D01*
X110219520Y-91059484D01*
X110222235Y-91059751D01*
X110238680Y-91061373D01*
X110247905Y-91062629D01*
X110259595Y-91064665D01*
X110267785Y-91066374D01*
X110281426Y-91069697D01*
X110286334Y-91070999D01*
X110311247Y-91078147D01*
X110311257Y-91078149D01*
X110311267Y-91078152D01*
X110311287Y-91078158D01*
X110344368Y-91087647D01*
X110348552Y-91088805D01*
X110349750Y-91089137D01*
X110349772Y-91089143D01*
X110349805Y-91089152D01*
X110350262Y-91089274D01*
X110350286Y-91089280D01*
X110350323Y-91089290D01*
X110355449Y-91090598D01*
X110356760Y-91090933D01*
X110392240Y-91099575D01*
X110402136Y-91101812D01*
X110402898Y-91101971D01*
X110412898Y-91103884D01*
X110453654Y-91110980D01*
X110465172Y-91112760D01*
X110465180Y-91112761D01*
X110465199Y-91112764D01*
X110465588Y-91112816D01*
X110466031Y-91112876D01*
X110476926Y-91114149D01*
X110525852Y-91118975D01*
X110536025Y-91119807D01*
X110536825Y-91119859D01*
X110547549Y-91120367D01*
X110595913Y-91121807D01*
X110599845Y-91121898D01*
X110600054Y-91121901D01*
X110600131Y-91121903D01*
X110600140Y-91121902D01*
X110600141Y-91121903D01*
X110611002Y-91121894D01*
X110611003Y-91121893D01*
X110616584Y-91121889D01*
X110616997Y-91121834D01*
X110617000Y-91121835D01*
X110754183Y-91103774D01*
X110849353Y-91064353D01*
X110882014Y-91050826D01*
X110882014Y-91050825D01*
X110882018Y-91050824D01*
X110991791Y-90966591D01*
X111076024Y-90856818D01*
X111077428Y-90853430D01*
X111096012Y-90808562D01*
X111128974Y-90728983D01*
X111147035Y-90591800D01*
X111128974Y-90454617D01*
X111109414Y-90407394D01*
X111076025Y-90326783D01*
X110991792Y-90217010D01*
X110965884Y-90197130D01*
X110882018Y-90132776D01*
X110882017Y-90132775D01*
X110882014Y-90132773D01*
X110754183Y-90079826D01*
X110617000Y-90061765D01*
X110479816Y-90079826D01*
X110479812Y-90079827D01*
X110434167Y-90098733D01*
X110414776Y-90104982D01*
X110396656Y-90109239D01*
X110396647Y-90109243D01*
X110360641Y-90125132D01*
X110355167Y-90127613D01*
X110354725Y-90127818D01*
X110347982Y-90131055D01*
X110309787Y-90149968D01*
X110305118Y-90152329D01*
X110304709Y-90152539D01*
X110300754Y-90154621D01*
X110287824Y-90161547D01*
X110287746Y-90161588D01*
X110251263Y-90181133D01*
X110195152Y-90196021D01*
X110177367Y-90196499D01*
X110174243Y-90196599D01*
X110165243Y-90198625D01*
X110137577Y-90201700D01*
X107035880Y-90201700D01*
X107006460Y-90198217D01*
X106999427Y-90196528D01*
X106999430Y-90196528D01*
X106845750Y-90188703D01*
X106829754Y-90186858D01*
X106736615Y-90170029D01*
X106717545Y-90165015D01*
X106658260Y-90144349D01*
X106639688Y-90136143D01*
X106590521Y-90109491D01*
X106576941Y-90100970D01*
X106532239Y-90068782D01*
X106532233Y-90068778D01*
X106532215Y-90068765D01*
X106532207Y-90068759D01*
X106517398Y-90058097D01*
X106511003Y-90053171D01*
X106476159Y-90024503D01*
X106433927Y-89989754D01*
X106433689Y-89989540D01*
X106430160Y-89986654D01*
X106429876Y-89986421D01*
X106429554Y-89986156D01*
X106429419Y-89986048D01*
X106330690Y-89905313D01*
X106330674Y-89905300D01*
X106324058Y-89900041D01*
X106323545Y-89899645D01*
X106323533Y-89899636D01*
X106316487Y-89894354D01*
X106201136Y-89810444D01*
X106201129Y-89810439D01*
X106190181Y-89802833D01*
X106189328Y-89802268D01*
X106177761Y-89794971D01*
X106056106Y-89721990D01*
X106036465Y-89710207D01*
X106036453Y-89710200D01*
X106036441Y-89710193D01*
X106023236Y-89702712D01*
X106022199Y-89702158D01*
X106008584Y-89695317D01*
X105897000Y-89642692D01*
X105892848Y-89640438D01*
X105892845Y-89640446D01*
X105887629Y-89637848D01*
X105886763Y-89637513D01*
X105878552Y-89633991D01*
X105842559Y-89617017D01*
X105836028Y-89614031D01*
X105836001Y-89614019D01*
X105835500Y-89613797D01*
X105822444Y-89608370D01*
X105822442Y-89608369D01*
X105822441Y-89608369D01*
X105816576Y-89607265D01*
X105812621Y-89606521D01*
X105790415Y-89600188D01*
X105786509Y-89598675D01*
X105767123Y-89591164D01*
X105697457Y-89564176D01*
X105630629Y-89551684D01*
X105496976Y-89526700D01*
X105293024Y-89526700D01*
X105192784Y-89545438D01*
X105092542Y-89564176D01*
X104956155Y-89617013D01*
X104902363Y-89637852D01*
X104902362Y-89637852D01*
X104902361Y-89637853D01*
X104902351Y-89637858D01*
X104728960Y-89745217D01*
X104728959Y-89745218D01*
X104578236Y-89882620D01*
X104567049Y-89897434D01*
X104510034Y-89939740D01*
X104439198Y-89944506D01*
X104377030Y-89910219D01*
X104343268Y-89847764D01*
X104340500Y-89821500D01*
X104340500Y-88892899D01*
X104360502Y-88824778D01*
X104414158Y-88778285D01*
X104484432Y-88768181D01*
X104549012Y-88797675D01*
X104567051Y-88816968D01*
X104578235Y-88831779D01*
X104728959Y-88969181D01*
X104728960Y-88969182D01*
X104902351Y-89076541D01*
X104902354Y-89076542D01*
X104902363Y-89076548D01*
X105092544Y-89150224D01*
X105293024Y-89187700D01*
X105293026Y-89187700D01*
X105496974Y-89187700D01*
X105496976Y-89187700D01*
X105697456Y-89150224D01*
X105887637Y-89076548D01*
X106061041Y-88969181D01*
X106211764Y-88831779D01*
X106224486Y-88814933D01*
X106262608Y-88764451D01*
X106334673Y-88669021D01*
X106415086Y-88507526D01*
X106421118Y-88496767D01*
X106422713Y-88494225D01*
X106483624Y-88339559D01*
X106485255Y-88335326D01*
X106485388Y-88334973D01*
X106487219Y-88329981D01*
X106537228Y-88189909D01*
X106538384Y-88186614D01*
X106538458Y-88186399D01*
X106539246Y-88184076D01*
X106579149Y-88065042D01*
X106612121Y-87968185D01*
X106613751Y-87963687D01*
X106641784Y-87890762D01*
X106645417Y-87882259D01*
X106673025Y-87823721D01*
X106678587Y-87813242D01*
X106712681Y-87755742D01*
X106719170Y-87745882D01*
X106769339Y-87676919D01*
X106775393Y-87669242D01*
X106799734Y-87640724D01*
X106851004Y-87580656D01*
X106855811Y-87575341D01*
X106961746Y-87464721D01*
X106964318Y-87462002D01*
X106969443Y-87453947D01*
X106986646Y-87432500D01*
X109410795Y-85008351D01*
X109429475Y-84992959D01*
X109441422Y-84984911D01*
X109465633Y-84961067D01*
X109467865Y-84958924D01*
X109488018Y-84940043D01*
X109491897Y-84936557D01*
X109501421Y-84928357D01*
X109530049Y-84909807D01*
X109538316Y-84905923D01*
X109542333Y-84904123D01*
X109565493Y-84894241D01*
X109567024Y-84893602D01*
X109602722Y-84878976D01*
X109602835Y-84878930D01*
X109603449Y-84878677D01*
X109603490Y-84878662D01*
X109605374Y-84877888D01*
X109645821Y-84861317D01*
X109646218Y-84861046D01*
X109646223Y-84861045D01*
X109655551Y-84854706D01*
X109678141Y-84842517D01*
X109713618Y-84827824D01*
X109823391Y-84743591D01*
X109907624Y-84633818D01*
X109909538Y-84629199D01*
X109930837Y-84577775D01*
X109960574Y-84505983D01*
X109978635Y-84368800D01*
X109960574Y-84231617D01*
X109938183Y-84177559D01*
X109907625Y-84103783D01*
X109823392Y-83994010D01*
X109713614Y-83909773D01*
X109585784Y-83856826D01*
X109526208Y-83848982D01*
X109461282Y-83820258D01*
X109422191Y-83760992D01*
X109421348Y-83690001D01*
X109459019Y-83629823D01*
X109462919Y-83626501D01*
X109466816Y-83623314D01*
X109466822Y-83623311D01*
X109491033Y-83599467D01*
X109493265Y-83597324D01*
X109513418Y-83578443D01*
X109517297Y-83574957D01*
X109526821Y-83566757D01*
X109555449Y-83548207D01*
X109563716Y-83544323D01*
X109567733Y-83542523D01*
X109590893Y-83532641D01*
X109592424Y-83532002D01*
X109628122Y-83517376D01*
X109628235Y-83517330D01*
X109628849Y-83517077D01*
X109628890Y-83517062D01*
X109630774Y-83516288D01*
X109671221Y-83499717D01*
X109671618Y-83499446D01*
X109671623Y-83499445D01*
X109680951Y-83493106D01*
X109703541Y-83480917D01*
X109739018Y-83466224D01*
X109848791Y-83381991D01*
X109933024Y-83272218D01*
X109985974Y-83144383D01*
X110004035Y-83007200D01*
X109985974Y-82870017D01*
X109955916Y-82797449D01*
X109933025Y-82742183D01*
X109848792Y-82632410D01*
X109848789Y-82632408D01*
X109739018Y-82548176D01*
X109739017Y-82548175D01*
X109739014Y-82548173D01*
X109611183Y-82495226D01*
X109474000Y-82477165D01*
X109336816Y-82495226D01*
X109208983Y-82548174D01*
X109099208Y-82632408D01*
X109014980Y-82742176D01*
X109014975Y-82742184D01*
X108998362Y-82782291D01*
X108987757Y-82802493D01*
X108979051Y-82815954D01*
X108979045Y-82815965D01*
X108964237Y-82852057D01*
X108964179Y-82852204D01*
X108949181Y-82888803D01*
X108948481Y-82890478D01*
X108938701Y-82913397D01*
X108936854Y-82917518D01*
X108932985Y-82925754D01*
X108914427Y-82954391D01*
X108906301Y-82963829D01*
X108902763Y-82967768D01*
X108883802Y-82988005D01*
X108881639Y-82990257D01*
X108857879Y-83014387D01*
X108853775Y-83018636D01*
X108853773Y-83018638D01*
X108853772Y-83018640D01*
X108848192Y-83027278D01*
X108831453Y-83047997D01*
X106969892Y-84909559D01*
X106969890Y-84909559D01*
X106969891Y-84909560D01*
X106931018Y-84948434D01*
X106921855Y-84956739D01*
X106848846Y-85016657D01*
X106828310Y-85030379D01*
X106750511Y-85071965D01*
X106727691Y-85081418D01*
X106643275Y-85107027D01*
X106619049Y-85111846D01*
X106571519Y-85116528D01*
X106501766Y-85103300D01*
X106468494Y-85078625D01*
X106463811Y-85073771D01*
X106457107Y-85066241D01*
X106456115Y-85065033D01*
X106391528Y-84986358D01*
X106389531Y-84983950D01*
X106305874Y-84884148D01*
X106297828Y-84874931D01*
X106297200Y-84874240D01*
X106288554Y-84865111D01*
X106242119Y-84818062D01*
X106190689Y-84765950D01*
X106175464Y-84751547D01*
X106175459Y-84751542D01*
X106174962Y-84751103D01*
X106174267Y-84750490D01*
X106165898Y-84743591D01*
X106158250Y-84737286D01*
X106151703Y-84732254D01*
X106107010Y-84697900D01*
X106107009Y-84697900D01*
X106038704Y-84645397D01*
X106017180Y-84630281D01*
X106015489Y-84629199D01*
X105992625Y-84615927D01*
X105992622Y-84615925D01*
X105992611Y-84615919D01*
X105923820Y-84579873D01*
X105915974Y-84575396D01*
X105887643Y-84557855D01*
X105887628Y-84557848D01*
X105871863Y-84551741D01*
X105858900Y-84545857D01*
X105854264Y-84543428D01*
X105854265Y-84543428D01*
X105854245Y-84543418D01*
X105841772Y-84537242D01*
X105841758Y-84537235D01*
X105841745Y-84537229D01*
X105840805Y-84536790D01*
X105840806Y-84536790D01*
X105840788Y-84536782D01*
X105822146Y-84528818D01*
X105822142Y-84528817D01*
X105815206Y-84527514D01*
X105792962Y-84521174D01*
X105697459Y-84484177D01*
X105697458Y-84484176D01*
X105697456Y-84484176D01*
X105496976Y-84446700D01*
X105293024Y-84446700D01*
X105192784Y-84465438D01*
X105092542Y-84484176D01*
X104977306Y-84528819D01*
X104902363Y-84557852D01*
X104902362Y-84557852D01*
X104902361Y-84557853D01*
X104902351Y-84557858D01*
X104728960Y-84665217D01*
X104728959Y-84665218D01*
X104578236Y-84802620D01*
X104567049Y-84817434D01*
X104510034Y-84859740D01*
X104439198Y-84864506D01*
X104377030Y-84830219D01*
X104343268Y-84767764D01*
X104340500Y-84741500D01*
X104340500Y-83812899D01*
X104360502Y-83744778D01*
X104414158Y-83698285D01*
X104484432Y-83688181D01*
X104549012Y-83717675D01*
X104567051Y-83736968D01*
X104578235Y-83751779D01*
X104728959Y-83889181D01*
X104728960Y-83889182D01*
X104902351Y-83996541D01*
X104902354Y-83996542D01*
X104902363Y-83996548D01*
X105092544Y-84070224D01*
X105293024Y-84107700D01*
X105293026Y-84107700D01*
X105496974Y-84107700D01*
X105496976Y-84107700D01*
X105697456Y-84070224D01*
X105887637Y-83996548D01*
X106061041Y-83889181D01*
X106211764Y-83751779D01*
X106334673Y-83589021D01*
X106425582Y-83406450D01*
X106481397Y-83210283D01*
X106500215Y-83007200D01*
X106481397Y-82804117D01*
X106425582Y-82607950D01*
X106334673Y-82425379D01*
X106315053Y-82399398D01*
X106211765Y-82262621D01*
X106061040Y-82125218D01*
X106061039Y-82125217D01*
X105887648Y-82017858D01*
X105887641Y-82017854D01*
X105887637Y-82017852D01*
X105771133Y-81972718D01*
X105697457Y-81944176D01*
X105630629Y-81931684D01*
X105496976Y-81906700D01*
X105293024Y-81906700D01*
X105192784Y-81925438D01*
X105092542Y-81944176D01*
X104945190Y-82001260D01*
X104902363Y-82017852D01*
X104902362Y-82017852D01*
X104902361Y-82017853D01*
X104902351Y-82017858D01*
X104728960Y-82125217D01*
X104728959Y-82125218D01*
X104578236Y-82262620D01*
X104567049Y-82277434D01*
X104510034Y-82319740D01*
X104439198Y-82324506D01*
X104377030Y-82290219D01*
X104343268Y-82227764D01*
X104340500Y-82201500D01*
X104340500Y-81272899D01*
X104360502Y-81204778D01*
X104414158Y-81158285D01*
X104484432Y-81148181D01*
X104549012Y-81177675D01*
X104567051Y-81196968D01*
X104578235Y-81211779D01*
X104728959Y-81349181D01*
X104728960Y-81349182D01*
X104902351Y-81456541D01*
X104902354Y-81456542D01*
X104902363Y-81456548D01*
X105092544Y-81530224D01*
X105293024Y-81567700D01*
X105293026Y-81567700D01*
X105496974Y-81567700D01*
X105496976Y-81567700D01*
X105697456Y-81530224D01*
X105887637Y-81456548D01*
X106061041Y-81349181D01*
X106211764Y-81211779D01*
X106334673Y-81049021D01*
X106425582Y-80866450D01*
X106425698Y-80866038D01*
X106428255Y-80858067D01*
X106485884Y-80696968D01*
X106490731Y-80682251D01*
X106491078Y-80681100D01*
X106495269Y-80665765D01*
X106533413Y-80510411D01*
X106536508Y-80496390D01*
X106536716Y-80495330D01*
X106539076Y-80481669D01*
X106559543Y-80344747D01*
X106560754Y-80335727D01*
X106560838Y-80335022D01*
X106561809Y-80325647D01*
X106563294Y-80308774D01*
X106572653Y-80202370D01*
X106572656Y-80202335D01*
X106572683Y-80202029D01*
X106572839Y-80200183D01*
X106572859Y-80199950D01*
X106581114Y-80098181D01*
X106581968Y-80090566D01*
X106592100Y-80019862D01*
X106595317Y-80004400D01*
X106609413Y-79953036D01*
X106616337Y-79933973D01*
X106640894Y-79880300D01*
X106650546Y-79862965D01*
X106700252Y-79788247D01*
X106710145Y-79775286D01*
X106807556Y-79663495D01*
X106809648Y-79659951D01*
X106829056Y-79634911D01*
X106884775Y-79579191D01*
X106884774Y-79579191D01*
X106884786Y-79579180D01*
X107038441Y-79378929D01*
X107164643Y-79160335D01*
X107261233Y-78927138D01*
X107326558Y-78683329D01*
X107359501Y-78433079D01*
X107359500Y-78306874D01*
X107359500Y-78245697D01*
X107359500Y-73074394D01*
X107379502Y-73006273D01*
X107433158Y-72959780D01*
X107503432Y-72949676D01*
X107562203Y-72974431D01*
X107603700Y-73006273D01*
X107630485Y-73026826D01*
X107702565Y-73056681D01*
X107758317Y-73079774D01*
X107895500Y-73097835D01*
X108032683Y-73079774D01*
X108127853Y-73040353D01*
X108160514Y-73026826D01*
X108160514Y-73026825D01*
X108160518Y-73026824D01*
X108270291Y-72942591D01*
X108354524Y-72832818D01*
X108407474Y-72704983D01*
X108425535Y-72567800D01*
X108407474Y-72430617D01*
X108387914Y-72383394D01*
X108354525Y-72302783D01*
X108270292Y-72193010D01*
X108249688Y-72177200D01*
X108160518Y-72108776D01*
X108160517Y-72108775D01*
X108160514Y-72108773D01*
X108032683Y-72055826D01*
X107895500Y-72037765D01*
X107758316Y-72055826D01*
X107630483Y-72108774D01*
X107562204Y-72161168D01*
X107495984Y-72186769D01*
X107426435Y-72172504D01*
X107375639Y-72122903D01*
X107359500Y-72061206D01*
X107359500Y-70155929D01*
X107379502Y-70087808D01*
X107433158Y-70041315D01*
X107501947Y-70031007D01*
X107569000Y-70039835D01*
X107706183Y-70021774D01*
X107801353Y-69982353D01*
X107834014Y-69968826D01*
X107834014Y-69968825D01*
X107834018Y-69968824D01*
X107943791Y-69884591D01*
X108028024Y-69774818D01*
X108080974Y-69646983D01*
X108099035Y-69509800D01*
X108080974Y-69372617D01*
X108054499Y-69308700D01*
X108028025Y-69244784D01*
X108026592Y-69242302D01*
X108026019Y-69239940D01*
X108024864Y-69237152D01*
X108025298Y-69236971D01*
X108009853Y-69173307D01*
X108025057Y-69121529D01*
X108024864Y-69121449D01*
X108025609Y-69119649D01*
X108026595Y-69116293D01*
X108028026Y-69113814D01*
X108041553Y-69081153D01*
X108080974Y-68985983D01*
X108099035Y-68848800D01*
X108080974Y-68711617D01*
X108057745Y-68655538D01*
X108024864Y-68576152D01*
X108026973Y-68575278D01*
X108013027Y-68517820D01*
X108026452Y-68472106D01*
X108024864Y-68471449D01*
X108049879Y-68411052D01*
X108080974Y-68335983D01*
X108099035Y-68198800D01*
X108080974Y-68061617D01*
X108057745Y-68005538D01*
X108024864Y-67926152D01*
X108026973Y-67925278D01*
X108013027Y-67867820D01*
X108026452Y-67822106D01*
X108024864Y-67821449D01*
X108049879Y-67761052D01*
X108080974Y-67685983D01*
X108099035Y-67548800D01*
X108080974Y-67411617D01*
X108057745Y-67355538D01*
X108024864Y-67276152D01*
X108026973Y-67275278D01*
X108013027Y-67217820D01*
X108026452Y-67172106D01*
X108024864Y-67171449D01*
X108049879Y-67111052D01*
X108080974Y-67035983D01*
X108099035Y-66898800D01*
X108080974Y-66761617D01*
X108057745Y-66705538D01*
X108024864Y-66626152D01*
X108026973Y-66625278D01*
X108013027Y-66567820D01*
X108026452Y-66522106D01*
X108024864Y-66521449D01*
X108049879Y-66461052D01*
X108080974Y-66385983D01*
X108099035Y-66248800D01*
X108080974Y-66111617D01*
X108057745Y-66055538D01*
X108024864Y-65976152D01*
X108026973Y-65975278D01*
X108013027Y-65917820D01*
X108026452Y-65872106D01*
X108024864Y-65871449D01*
X108049879Y-65811052D01*
X108080974Y-65735983D01*
X108099035Y-65598800D01*
X108080974Y-65461617D01*
X108057745Y-65405538D01*
X108024864Y-65326152D01*
X108026973Y-65325278D01*
X108013027Y-65267820D01*
X108026452Y-65222106D01*
X108024864Y-65221449D01*
X108049879Y-65161052D01*
X108080974Y-65085983D01*
X108099035Y-64948800D01*
X108080974Y-64811617D01*
X108061414Y-64764394D01*
X108028025Y-64683783D01*
X107943792Y-64574010D01*
X107943789Y-64574008D01*
X107834018Y-64489776D01*
X107834017Y-64489775D01*
X107834014Y-64489773D01*
X107706183Y-64436826D01*
X107613793Y-64424662D01*
X107548866Y-64395939D01*
X107509775Y-64336673D01*
X107508930Y-64265682D01*
X107522804Y-64233911D01*
X107559532Y-64173974D01*
X107571137Y-64158002D01*
X107658146Y-64056125D01*
X107683558Y-64033457D01*
X107688822Y-64029911D01*
X107713033Y-64006067D01*
X107715265Y-64003924D01*
X107735418Y-63985043D01*
X107739297Y-63981557D01*
X107748821Y-63973357D01*
X107777449Y-63954807D01*
X107785716Y-63950923D01*
X107789733Y-63949123D01*
X107812893Y-63939241D01*
X107814424Y-63938602D01*
X107850122Y-63923976D01*
X107850235Y-63923930D01*
X107850849Y-63923677D01*
X107850890Y-63923662D01*
X107852774Y-63922888D01*
X107893221Y-63906317D01*
X107893618Y-63906046D01*
X107893623Y-63906045D01*
X107902951Y-63899706D01*
X107925541Y-63887517D01*
X107961018Y-63872824D01*
X108070791Y-63788591D01*
X108155024Y-63678818D01*
X108207974Y-63550983D01*
X108226035Y-63413800D01*
X108207974Y-63276617D01*
X108157016Y-63153591D01*
X108155025Y-63148783D01*
X108070792Y-63039010D01*
X107961014Y-62954773D01*
X107833181Y-62901825D01*
X107833179Y-62901824D01*
X107827584Y-62901088D01*
X107762658Y-62872363D01*
X107723568Y-62813097D01*
X107719645Y-62786918D01*
X107719113Y-62786989D01*
X107718035Y-62778800D01*
X107699974Y-62641617D01*
X107670324Y-62570034D01*
X107647025Y-62513783D01*
X107562792Y-62404010D01*
X107562789Y-62404008D01*
X107453018Y-62319776D01*
X107453017Y-62319775D01*
X107453014Y-62319773D01*
X107325183Y-62266826D01*
X107188000Y-62248765D01*
X107050816Y-62266826D01*
X106922983Y-62319774D01*
X106813208Y-62404008D01*
X106728974Y-62513783D01*
X106676026Y-62641616D01*
X106657965Y-62778800D01*
X106676026Y-62915983D01*
X106728973Y-63043814D01*
X106728975Y-63043817D01*
X106728976Y-63043818D01*
X106813209Y-63153591D01*
X106922982Y-63237824D01*
X106922985Y-63237826D01*
X106994288Y-63267360D01*
X107049569Y-63311907D01*
X107071991Y-63379271D01*
X107054433Y-63448062D01*
X107035169Y-63472862D01*
X106983216Y-63524817D01*
X106829556Y-63725074D01*
X106703357Y-63943665D01*
X106703352Y-63943674D01*
X106606766Y-64176861D01*
X106541442Y-64420669D01*
X106541441Y-64420672D01*
X106508499Y-64670911D01*
X106508499Y-64670920D01*
X106508500Y-64741102D01*
X106508500Y-77165489D01*
X106488498Y-77233610D01*
X106434842Y-77280103D01*
X106364568Y-77290207D01*
X106299988Y-77260713D01*
X106276657Y-77233850D01*
X106212744Y-77134894D01*
X106211860Y-77133605D01*
X106203199Y-77120975D01*
X106202437Y-77119927D01*
X106192065Y-77106465D01*
X106099785Y-76993353D01*
X106092377Y-76984612D01*
X106091796Y-76983952D01*
X106084039Y-76975468D01*
X106029278Y-76917790D01*
X105993304Y-76879899D01*
X105991817Y-76878344D01*
X105991799Y-76878326D01*
X105991737Y-76878261D01*
X105989822Y-76876287D01*
X105977476Y-76863684D01*
X105977472Y-76863681D01*
X105974120Y-76860259D01*
X105974120Y-76860258D01*
X105974111Y-76860250D01*
X105912874Y-76797740D01*
X105907742Y-76792177D01*
X105857664Y-76734505D01*
X105847397Y-76720927D01*
X105831857Y-76697199D01*
X105818921Y-76677447D01*
X105808139Y-76657159D01*
X105787562Y-76608098D01*
X105780607Y-76586011D01*
X105762835Y-76503831D01*
X105760221Y-76484838D01*
X105754700Y-76393785D01*
X105751106Y-76334518D01*
X105749665Y-76328674D01*
X105746000Y-76298504D01*
X105746000Y-62638155D01*
X105766002Y-62570034D01*
X105819658Y-62523541D01*
X105888451Y-62513234D01*
X105895079Y-62514107D01*
X106032262Y-62496046D01*
X106127432Y-62456625D01*
X106160093Y-62443098D01*
X106160093Y-62443097D01*
X106160097Y-62443096D01*
X106269870Y-62358863D01*
X106354103Y-62249090D01*
X106407053Y-62121255D01*
X106425114Y-61984072D01*
X106407053Y-61846889D01*
X106387493Y-61799666D01*
X106354104Y-61719055D01*
X106269871Y-61609282D01*
X106160093Y-61525045D01*
X106032262Y-61472098D01*
X105895079Y-61454037D01*
X105895077Y-61454037D01*
X105888446Y-61454910D01*
X105818297Y-61443970D01*
X105765199Y-61396842D01*
X105746000Y-61329988D01*
X105746000Y-59989448D01*
X105766002Y-59921327D01*
X105773679Y-59910651D01*
X105778590Y-59904523D01*
X105783484Y-59898250D01*
X105783866Y-59897747D01*
X105788936Y-59890874D01*
X105810838Y-59860296D01*
X105818298Y-59849389D01*
X105818845Y-59848551D01*
X105825679Y-59837582D01*
X105847834Y-59800284D01*
X105855049Y-59787441D01*
X105855579Y-59786442D01*
X105862195Y-59773208D01*
X105879168Y-59737093D01*
X105881799Y-59731341D01*
X105882001Y-59730887D01*
X105882005Y-59730876D01*
X105882015Y-59730855D01*
X105887291Y-59718241D01*
X105887291Y-59718238D01*
X105887294Y-59718233D01*
X105888946Y-59709590D01*
X105896296Y-59685032D01*
X105911974Y-59647183D01*
X105930035Y-59510000D01*
X105930035Y-59509997D01*
X105930035Y-59502688D01*
X105930330Y-59495238D01*
X105930046Y-59473800D01*
X105929689Y-59446786D01*
X105929595Y-59442227D01*
X105929585Y-59441872D01*
X105929416Y-59437159D01*
X105929330Y-59435198D01*
X105927306Y-59388790D01*
X105927305Y-59388775D01*
X105927302Y-59388701D01*
X105927048Y-59383798D01*
X105927025Y-59383413D01*
X105926674Y-59378263D01*
X105923561Y-59337685D01*
X105923173Y-59333079D01*
X105923141Y-59332731D01*
X105922694Y-59328237D01*
X105919131Y-59294905D01*
X105918912Y-59292851D01*
X105918568Y-59289783D01*
X105918565Y-59289759D01*
X105918551Y-59289640D01*
X105918236Y-59287036D01*
X105914102Y-59254105D01*
X105914101Y-59254105D01*
X105910428Y-59224840D01*
X105910161Y-59222537D01*
X105907475Y-59197406D01*
X105907130Y-59193651D01*
X105905023Y-59166182D01*
X105904774Y-59162042D01*
X105904040Y-59145228D01*
X105903238Y-59126848D01*
X105903132Y-59123118D01*
X105902588Y-59081827D01*
X105902480Y-59076772D01*
X105900351Y-59067000D01*
X105897462Y-59040174D01*
X105897462Y-57695971D01*
X105898985Y-57676438D01*
X105906588Y-57627989D01*
X105918201Y-57553981D01*
X105922116Y-57536906D01*
X105961404Y-57407623D01*
X105967661Y-57391237D01*
X105969639Y-57386974D01*
X106024526Y-57268671D01*
X106032995Y-57253318D01*
X106106340Y-57139836D01*
X106116853Y-57125818D01*
X106208244Y-57020164D01*
X106214419Y-57013527D01*
X106777900Y-56450047D01*
X106777910Y-56450039D01*
X106794621Y-56433328D01*
X106794667Y-56433302D01*
X106831547Y-56396421D01*
X106854580Y-56373388D01*
X106920771Y-56307195D01*
X106920770Y-56307195D01*
X106920786Y-56307180D01*
X107074441Y-56106929D01*
X107200643Y-55888335D01*
X107297233Y-55655138D01*
X107362558Y-55411329D01*
X107388294Y-55215824D01*
X107395500Y-55161088D01*
X107395500Y-55161086D01*
X107395501Y-55161079D01*
X107395500Y-55034874D01*
X107395500Y-54973697D01*
X107395500Y-51602800D01*
X108114785Y-51602800D01*
X108133603Y-51805884D01*
X108189416Y-52002045D01*
X108189417Y-52002047D01*
X108189418Y-52002050D01*
X108280327Y-52184621D01*
X108280328Y-52184622D01*
X108280329Y-52184624D01*
X108403234Y-52347378D01*
X108553959Y-52484781D01*
X108553960Y-52484782D01*
X108727351Y-52592141D01*
X108727354Y-52592142D01*
X108727363Y-52592148D01*
X108917544Y-52665824D01*
X109118024Y-52703300D01*
X109118026Y-52703300D01*
X109321974Y-52703300D01*
X109321976Y-52703300D01*
X109522456Y-52665824D01*
X109712637Y-52592148D01*
X109886041Y-52484781D01*
X110036764Y-52347379D01*
X110054967Y-52323275D01*
X110102347Y-52260533D01*
X110159673Y-52184621D01*
X110250582Y-52002050D01*
X110306397Y-51805883D01*
X110325215Y-51602800D01*
X110306397Y-51399717D01*
X110250582Y-51203550D01*
X110159673Y-51020979D01*
X110159670Y-51020975D01*
X110036765Y-50858221D01*
X109886040Y-50720818D01*
X109886039Y-50720817D01*
X109712648Y-50613458D01*
X109712641Y-50613454D01*
X109712637Y-50613452D01*
X109596133Y-50568318D01*
X109522457Y-50539776D01*
X109455629Y-50527284D01*
X109321976Y-50502300D01*
X109118024Y-50502300D01*
X109019009Y-50520809D01*
X108917542Y-50539776D01*
X108770190Y-50596860D01*
X108727363Y-50613452D01*
X108727362Y-50613452D01*
X108727361Y-50613453D01*
X108727351Y-50613458D01*
X108553960Y-50720817D01*
X108553959Y-50720818D01*
X108403234Y-50858221D01*
X108280329Y-51020975D01*
X108189416Y-51203554D01*
X108133603Y-51399715D01*
X108114785Y-51602800D01*
X107395500Y-51602800D01*
X107395500Y-51213102D01*
X107395500Y-51204814D01*
X107395485Y-51204589D01*
X107395485Y-51203550D01*
X107395486Y-51142922D01*
X107362544Y-50892674D01*
X107297219Y-50648867D01*
X107289405Y-50630003D01*
X107200634Y-50415684D01*
X107200633Y-50415683D01*
X107200629Y-50415672D01*
X107137666Y-50306614D01*
X107074432Y-50197085D01*
X107074429Y-50197082D01*
X107074428Y-50197079D01*
X106920775Y-49996830D01*
X106920768Y-49996823D01*
X106920760Y-49996814D01*
X106878332Y-49954385D01*
X106878320Y-49954371D01*
X106856146Y-49932198D01*
X106837803Y-49908930D01*
X106834029Y-49902770D01*
X106830822Y-49899218D01*
X106804142Y-49869676D01*
X106804141Y-49869676D01*
X106762438Y-49823497D01*
X106730888Y-49788561D01*
X106720896Y-49775964D01*
X106666926Y-49698189D01*
X106656995Y-49681174D01*
X106629682Y-49624630D01*
X106622356Y-49605702D01*
X106606432Y-49552075D01*
X106602856Y-49536450D01*
X106591076Y-49464076D01*
X106590031Y-49456032D01*
X106579916Y-49351992D01*
X106575394Y-49305485D01*
X106575088Y-49303821D01*
X106567082Y-49223969D01*
X106566852Y-49221966D01*
X106566085Y-49215278D01*
X106565997Y-49214600D01*
X106564789Y-49206181D01*
X106543743Y-49072800D01*
X111702004Y-49072800D01*
X111721951Y-49300802D01*
X111781186Y-49521868D01*
X111781188Y-49521873D01*
X111877913Y-49729301D01*
X111927899Y-49800688D01*
X112655790Y-49072799D01*
X111927900Y-48344909D01*
X111877913Y-48416300D01*
X111781188Y-48623726D01*
X111781186Y-48623731D01*
X111721951Y-48844797D01*
X111702004Y-49072800D01*
X106543743Y-49072800D01*
X106542557Y-49065282D01*
X106540122Y-49051818D01*
X106540041Y-49051427D01*
X106539911Y-49050786D01*
X106536958Y-49037776D01*
X106496998Y-48877982D01*
X106493008Y-48863543D01*
X106492670Y-48862427D01*
X106487814Y-48847745D01*
X106428208Y-48681737D01*
X106425608Y-48673642D01*
X106425582Y-48673550D01*
X106425578Y-48673542D01*
X106424886Y-48671756D01*
X106423275Y-48668211D01*
X106417658Y-48654599D01*
X106417656Y-48654593D01*
X106416975Y-48653596D01*
X106408215Y-48638670D01*
X106334674Y-48490981D01*
X106334671Y-48490976D01*
X106211765Y-48328221D01*
X106061040Y-48190818D01*
X106061039Y-48190817D01*
X105887648Y-48083458D01*
X105887641Y-48083454D01*
X105887637Y-48083452D01*
X105887632Y-48083450D01*
X105850309Y-48068991D01*
X105794014Y-48025732D01*
X105770044Y-47958904D01*
X105786008Y-47889726D01*
X105836839Y-47840160D01*
X105895826Y-47825500D01*
X112163621Y-47825500D01*
X112231742Y-47845502D01*
G37*
%TD.AperFunction*%
%TA.AperFunction,Conductor*%
G36*
X114062968Y-52290051D02*
G01*
X114096732Y-52352505D01*
X114099500Y-52378772D01*
X114099500Y-53386827D01*
X114079498Y-53454948D01*
X114025842Y-53501441D01*
X113955568Y-53511545D01*
X113890988Y-53482051D01*
X113872950Y-53462759D01*
X113831765Y-53408221D01*
X113681040Y-53270818D01*
X113681039Y-53270817D01*
X113507648Y-53163458D01*
X113507641Y-53163454D01*
X113507637Y-53163452D01*
X113391133Y-53118318D01*
X113317457Y-53089776D01*
X113198214Y-53067486D01*
X113116976Y-53052300D01*
X112913024Y-53052300D01*
X112831786Y-53067486D01*
X112712542Y-53089776D01*
X112618656Y-53126148D01*
X112522363Y-53163452D01*
X112522362Y-53163452D01*
X112522361Y-53163453D01*
X112522351Y-53163458D01*
X112348960Y-53270817D01*
X112348953Y-53270822D01*
X112307777Y-53308359D01*
X112243960Y-53339469D01*
X112189377Y-53333019D01*
X112198187Y-53356639D01*
X112183096Y-53426013D01*
X112173059Y-53441559D01*
X112075329Y-53570975D01*
X111984416Y-53753554D01*
X111928603Y-53949715D01*
X111909785Y-54152800D01*
X111928603Y-54355884D01*
X111984416Y-54552045D01*
X111984417Y-54552047D01*
X111984418Y-54552050D01*
X112075327Y-54734621D01*
X112075328Y-54734622D01*
X112075329Y-54734624D01*
X112198234Y-54897378D01*
X112348959Y-55034781D01*
X112348960Y-55034782D01*
X112522351Y-55142141D01*
X112522354Y-55142142D01*
X112522363Y-55142148D01*
X112712544Y-55215824D01*
X112913024Y-55253300D01*
X112913026Y-55253300D01*
X113116974Y-55253300D01*
X113116976Y-55253300D01*
X113317456Y-55215824D01*
X113507637Y-55142148D01*
X113681041Y-55034781D01*
X113831764Y-54897379D01*
X113872949Y-54842840D01*
X113929963Y-54800533D01*
X114000799Y-54795765D01*
X114062968Y-54830051D01*
X114096732Y-54892505D01*
X114099500Y-54918772D01*
X114099500Y-55926827D01*
X114079498Y-55994948D01*
X114025842Y-56041441D01*
X113955568Y-56051545D01*
X113890988Y-56022051D01*
X113872950Y-56002759D01*
X113831765Y-55948221D01*
X113681040Y-55810818D01*
X113681039Y-55810817D01*
X113507648Y-55703458D01*
X113507641Y-55703454D01*
X113507637Y-55703452D01*
X113382923Y-55655138D01*
X113317457Y-55629776D01*
X113250629Y-55617284D01*
X113116976Y-55592300D01*
X112913024Y-55592300D01*
X112712544Y-55629776D01*
X112712542Y-55629776D01*
X112712540Y-55629777D01*
X112593774Y-55675786D01*
X112582114Y-55679660D01*
X112562931Y-55685010D01*
X112562915Y-55685017D01*
X112541653Y-55695465D01*
X112531611Y-55699868D01*
X112522369Y-55703448D01*
X112522359Y-55703454D01*
X112515880Y-55707465D01*
X112505136Y-55713412D01*
X112394481Y-55767795D01*
X112376343Y-55777480D01*
X112374987Y-55778264D01*
X112357420Y-55789228D01*
X112217168Y-55883523D01*
X112201871Y-55894508D01*
X112200724Y-55895387D01*
X112186232Y-55907209D01*
X112074425Y-56004271D01*
X112064974Y-56012828D01*
X112064262Y-56013500D01*
X112054831Y-56022797D01*
X111961055Y-56119326D01*
X111956357Y-56124270D01*
X111879121Y-56207398D01*
X111874041Y-56212559D01*
X111817296Y-56266995D01*
X111803871Y-56278194D01*
X111763059Y-56307687D01*
X111741987Y-56319998D01*
X111717797Y-56331144D01*
X111717733Y-56331174D01*
X111698268Y-56340142D01*
X111674528Y-56348325D01*
X111598374Y-56366326D01*
X111577688Y-56369431D01*
X111429084Y-56379240D01*
X111429080Y-56379240D01*
X111429079Y-56379241D01*
X111424020Y-56380510D01*
X111393353Y-56384300D01*
X109977863Y-56384300D01*
X109975384Y-56384125D01*
X109907127Y-56384300D01*
X109845107Y-56384300D01*
X109842597Y-56384467D01*
X109793510Y-56384587D01*
X109568669Y-56411402D01*
X109568647Y-56411406D01*
X109348438Y-56464093D01*
X109135780Y-56541961D01*
X108993810Y-56613569D01*
X108923980Y-56626388D01*
X108858305Y-56599418D01*
X108817637Y-56541224D01*
X108814886Y-56470281D01*
X108847970Y-56411976D01*
X111983415Y-53276531D01*
X112045725Y-53242507D01*
X112106056Y-53246822D01*
X112096933Y-53218416D01*
X112115213Y-53149813D01*
X112133794Y-53126152D01*
X112174276Y-53085670D01*
X112197289Y-53067486D01*
X112203791Y-53063481D01*
X112317529Y-52960268D01*
X112329492Y-52950674D01*
X112408179Y-52895093D01*
X112424357Y-52885396D01*
X112481945Y-52856505D01*
X112500110Y-52849102D01*
X112553845Y-52831945D01*
X112569115Y-52828103D01*
X112640037Y-52814910D01*
X112648130Y-52813677D01*
X112750080Y-52801539D01*
X112750081Y-52801538D01*
X112757947Y-52800601D01*
X112875133Y-52786677D01*
X112878332Y-52786255D01*
X112882897Y-52785654D01*
X112883113Y-52785622D01*
X112883522Y-52785563D01*
X112891408Y-52784314D01*
X113030400Y-52760436D01*
X113034018Y-52759736D01*
X113042836Y-52758033D01*
X113042858Y-52758028D01*
X113042880Y-52758024D01*
X113043829Y-52757820D01*
X113056135Y-52754907D01*
X113214090Y-52714046D01*
X113227754Y-52710170D01*
X113228806Y-52709845D01*
X113242594Y-52705223D01*
X113368935Y-52659499D01*
X113413640Y-52643321D01*
X113419951Y-52640957D01*
X113420419Y-52640776D01*
X113420429Y-52640772D01*
X113433218Y-52635485D01*
X113436429Y-52633289D01*
X113462005Y-52619824D01*
X113507637Y-52602148D01*
X113681041Y-52494781D01*
X113831764Y-52357379D01*
X113872949Y-52302840D01*
X113929963Y-52260533D01*
X114000799Y-52255765D01*
X114062968Y-52290051D01*
G37*
%TD.AperFunction*%
%TD*%
%TA.AperFunction,Conductor*%
%TO.N,/~{CAS0}*%
G36*
X110092589Y-75818785D02*
G01*
X110098895Y-75825143D01*
X110098861Y-75834090D01*
X110083701Y-75870343D01*
X110083699Y-75870348D01*
X110067331Y-75909437D01*
X110053980Y-75942660D01*
X110043352Y-75972127D01*
X110043349Y-75972135D01*
X110035158Y-75999918D01*
X110035157Y-75999922D01*
X110029103Y-76028149D01*
X110024905Y-76058866D01*
X110022262Y-76094254D01*
X110020891Y-76136314D01*
X110020589Y-76175590D01*
X110017098Y-76183837D01*
X110008889Y-76187200D01*
X109782110Y-76187200D01*
X109773837Y-76183773D01*
X109770410Y-76175590D01*
X109770107Y-76136314D01*
X109768736Y-76094254D01*
X109768736Y-76094248D01*
X109766096Y-76058888D01*
X109761895Y-76028146D01*
X109755842Y-75999925D01*
X109747647Y-75972130D01*
X109737019Y-75942666D01*
X109737013Y-75942651D01*
X109723677Y-75909460D01*
X109707300Y-75870348D01*
X109707298Y-75870343D01*
X109705047Y-75864961D01*
X109692136Y-75834088D01*
X109692106Y-75825135D01*
X109698407Y-75818786D01*
X109890980Y-75738093D01*
X109899931Y-75738057D01*
X110092589Y-75818785D01*
G37*
%TD.AperFunction*%
%TD*%
%TA.AperFunction,Conductor*%
%TO.N,/MA4*%
G36*
X110535416Y-94839718D02*
G01*
X110535477Y-94839861D01*
X110617080Y-95034605D01*
X110617989Y-95039179D01*
X110617053Y-95249747D01*
X110613589Y-95258005D01*
X110605301Y-95261395D01*
X110604954Y-95261388D01*
X110556283Y-95259726D01*
X110555365Y-95259659D01*
X110506246Y-95254096D01*
X110505265Y-95253942D01*
X110464486Y-95245774D01*
X110463623Y-95245567D01*
X110428148Y-95235611D01*
X110427634Y-95235454D01*
X110394526Y-95224500D01*
X110361173Y-95213464D01*
X110361170Y-95213463D01*
X110361163Y-95213461D01*
X110361157Y-95213459D01*
X110337837Y-95206914D01*
X110324996Y-95203310D01*
X110283294Y-95194958D01*
X110233237Y-95189288D01*
X110183353Y-95187585D01*
X110175201Y-95183878D01*
X110172052Y-95175892D01*
X110172052Y-94948650D01*
X110175479Y-94940377D01*
X110183499Y-94936953D01*
X110206192Y-94936465D01*
X110222937Y-94936105D01*
X110222947Y-94936104D01*
X110222965Y-94936104D01*
X110264715Y-94932824D01*
X110264725Y-94932822D01*
X110264730Y-94932822D01*
X110284913Y-94929653D01*
X110299485Y-94927367D01*
X110329460Y-94919742D01*
X110356823Y-94909958D01*
X110383758Y-94898021D01*
X110412448Y-94883942D01*
X110445079Y-94867727D01*
X110483673Y-94849461D01*
X110483963Y-94849329D01*
X110520024Y-94833652D01*
X110528975Y-94833497D01*
X110535416Y-94839718D01*
G37*
%TD.AperFunction*%
%TD*%
%TA.AperFunction,Conductor*%
%TO.N,/MA1*%
G36*
X111965842Y-89459524D02*
G01*
X112131027Y-89538377D01*
X112279145Y-89598261D01*
X112279153Y-89598263D01*
X112279159Y-89598266D01*
X112406910Y-89639850D01*
X112521351Y-89668733D01*
X112521362Y-89668735D01*
X112521376Y-89668739D01*
X112629521Y-89690507D01*
X112738243Y-89710718D01*
X112738491Y-89710766D01*
X112854695Y-89734979D01*
X112855193Y-89735096D01*
X112985923Y-89768877D01*
X112986563Y-89769062D01*
X113139025Y-89818028D01*
X113139630Y-89818242D01*
X113309961Y-89883791D01*
X113316451Y-89889960D01*
X113316678Y-89898912D01*
X113316574Y-89899174D01*
X113017745Y-90623159D01*
X113011421Y-90629499D01*
X113011397Y-90629509D01*
X112287540Y-90928536D01*
X112278585Y-90928527D01*
X112272259Y-90922189D01*
X112271959Y-90921378D01*
X112218216Y-90757979D01*
X112217802Y-90756324D01*
X112190089Y-90596639D01*
X112189936Y-90595290D01*
X112181966Y-90448743D01*
X112181951Y-90447980D01*
X112183840Y-90312936D01*
X112185628Y-90188280D01*
X112177283Y-90072990D01*
X112148781Y-89965660D01*
X112090094Y-89864883D01*
X111991196Y-89769254D01*
X111991195Y-89769253D01*
X111991191Y-89769250D01*
X111851246Y-89683025D01*
X111846000Y-89675768D01*
X111846957Y-89667755D01*
X111950379Y-89464771D01*
X111957188Y-89458957D01*
X111965842Y-89459524D01*
G37*
%TD.AperFunction*%
%TD*%
%TA.AperFunction,Conductor*%
%TO.N,Net-(U3-Pad1)*%
G36*
X110367089Y-58161385D02*
G01*
X110373395Y-58167743D01*
X110373361Y-58176690D01*
X110358201Y-58212943D01*
X110358199Y-58212948D01*
X110341831Y-58252037D01*
X110328480Y-58285260D01*
X110317852Y-58314727D01*
X110317849Y-58314735D01*
X110309658Y-58342518D01*
X110309657Y-58342522D01*
X110303603Y-58370749D01*
X110299405Y-58401466D01*
X110296762Y-58436854D01*
X110295391Y-58478914D01*
X110295089Y-58518190D01*
X110291598Y-58526437D01*
X110283389Y-58529800D01*
X110056610Y-58529800D01*
X110048337Y-58526373D01*
X110044910Y-58518190D01*
X110044607Y-58478914D01*
X110043236Y-58436854D01*
X110043236Y-58436848D01*
X110040596Y-58401488D01*
X110036395Y-58370746D01*
X110030342Y-58342525D01*
X110022147Y-58314730D01*
X110011519Y-58285266D01*
X110011513Y-58285251D01*
X109998177Y-58252060D01*
X109981800Y-58212948D01*
X109981798Y-58212943D01*
X109979547Y-58207561D01*
X109966636Y-58176688D01*
X109966606Y-58167735D01*
X109972907Y-58161386D01*
X110165480Y-58080693D01*
X110174431Y-58080657D01*
X110367089Y-58161385D01*
G37*
%TD.AperFunction*%
%TD*%
%TA.AperFunction,Conductor*%
%TO.N,GND*%
G36*
X112890758Y-74865573D02*
G01*
X112914349Y-74882316D01*
X112936069Y-74893325D01*
X112956829Y-74900081D01*
X112977540Y-74904068D01*
X112999111Y-74906766D01*
X113022452Y-74909660D01*
X113048475Y-74914231D01*
X113078088Y-74921961D01*
X113112202Y-74934335D01*
X113015707Y-75169707D01*
X112780335Y-75266202D01*
X112767961Y-75232088D01*
X112760231Y-75202475D01*
X112755660Y-75176452D01*
X112752766Y-75153111D01*
X112750068Y-75131540D01*
X112746081Y-75110829D01*
X112739325Y-75090069D01*
X112728316Y-75068349D01*
X112711573Y-75044758D01*
X112687612Y-75018388D01*
X112864388Y-74841612D01*
X112890758Y-74865573D01*
G37*
%TD.AperFunction*%
%TD*%
%TA.AperFunction,Conductor*%
%TO.N,/D7*%
G36*
X106942614Y-59042145D02*
G01*
X106946028Y-59049864D01*
X106947941Y-59090252D01*
X106947942Y-59090260D01*
X106954880Y-59131557D01*
X106954883Y-59131568D01*
X106965749Y-59165116D01*
X106979962Y-59193334D01*
X106996939Y-59218656D01*
X106996948Y-59218668D01*
X107016134Y-59243567D01*
X107036780Y-59270263D01*
X107037123Y-59270731D01*
X107058537Y-59301453D01*
X107059043Y-59302244D01*
X107080871Y-59339635D01*
X107081368Y-59340583D01*
X107098218Y-59376660D01*
X107098614Y-59385606D01*
X107092568Y-59392212D01*
X107092139Y-59392402D01*
X106897694Y-59473880D01*
X106893120Y-59474789D01*
X106682286Y-59473852D01*
X106674028Y-59470388D01*
X106670638Y-59462100D01*
X106670639Y-59462014D01*
X106671198Y-59414712D01*
X106671206Y-59414395D01*
X106672063Y-59392402D01*
X106673094Y-59365929D01*
X106673107Y-59365685D01*
X106675892Y-59325017D01*
X106675912Y-59324779D01*
X106679300Y-59289273D01*
X106683000Y-59256258D01*
X106686700Y-59223244D01*
X106690100Y-59187606D01*
X106692900Y-59146721D01*
X106694800Y-59097966D01*
X106695363Y-59050279D01*
X106698887Y-59042048D01*
X106707062Y-59038718D01*
X106934341Y-59038718D01*
X106942614Y-59042145D01*
G37*
%TD.AperFunction*%
%TD*%
%TA.AperFunction,Conductor*%
%TO.N,GND*%
G36*
X113016121Y-74907671D02*
G01*
X113051871Y-74956878D01*
X113089497Y-74995308D01*
X113127375Y-75026751D01*
X113163882Y-75055000D01*
X113197394Y-75083845D01*
X113226285Y-75117076D01*
X113248933Y-75158485D01*
X113263712Y-75211864D01*
X113269000Y-75281003D01*
X112761000Y-75281003D01*
X112759256Y-75248762D01*
X112754158Y-75223113D01*
X112745910Y-75202671D01*
X112734712Y-75186052D01*
X112720767Y-75171871D01*
X112704277Y-75158745D01*
X112685443Y-75145289D01*
X112664468Y-75130118D01*
X112641553Y-75111850D01*
X112616901Y-75089099D01*
X112776000Y-74929000D01*
X112983873Y-74843896D01*
X113016121Y-74907671D01*
G37*
%TD.AperFunction*%
%TD*%
%TA.AperFunction,Conductor*%
%TO.N,/~{WE}*%
G36*
X109470169Y-83004635D02*
G01*
X109476527Y-83010941D01*
X109476564Y-83011030D01*
X109555673Y-83204252D01*
X109555636Y-83213207D01*
X109549286Y-83219509D01*
X109512932Y-83234424D01*
X109512927Y-83234426D01*
X109473727Y-83250487D01*
X109440790Y-83264541D01*
X109412433Y-83277863D01*
X109386984Y-83291723D01*
X109386959Y-83291738D01*
X109362742Y-83307401D01*
X109338046Y-83326159D01*
X109338034Y-83326169D01*
X109311161Y-83349307D01*
X109280458Y-83378071D01*
X109252463Y-83405640D01*
X109244164Y-83409003D01*
X109235981Y-83405576D01*
X109075623Y-83245218D01*
X109072196Y-83236945D01*
X109075558Y-83228737D01*
X109103113Y-83200754D01*
X109131893Y-83170035D01*
X109155029Y-83143165D01*
X109173796Y-83118456D01*
X109189472Y-83094221D01*
X109203331Y-83068772D01*
X109216650Y-83040423D01*
X109230705Y-83007485D01*
X109246772Y-82968272D01*
X109261689Y-82931911D01*
X109267999Y-82925559D01*
X109276944Y-82925525D01*
X109470169Y-83004635D01*
G37*
%TD.AperFunction*%
%TD*%
%TA.AperFunction,Conductor*%
%TO.N,/~{WE}*%
G36*
X105711533Y-84813591D02*
G01*
X105712473Y-84814030D01*
X105850834Y-84886529D01*
X105852525Y-84887611D01*
X105920830Y-84940114D01*
X105972053Y-84979487D01*
X105973250Y-84980544D01*
X106024684Y-85032660D01*
X106071119Y-85079709D01*
X106071747Y-85080400D01*
X106155404Y-85180202D01*
X106231955Y-85273450D01*
X106308506Y-85352793D01*
X106392460Y-85411233D01*
X106491219Y-85441774D01*
X106491219Y-85441773D01*
X106491220Y-85441774D01*
X106612186Y-85437419D01*
X106697447Y-85411232D01*
X106752591Y-85394295D01*
X106761505Y-85395141D01*
X106766835Y-85401002D01*
X106854074Y-85611611D01*
X106854074Y-85620565D01*
X106848026Y-85626775D01*
X106692916Y-85695873D01*
X106692881Y-85695890D01*
X106560549Y-85764750D01*
X106453145Y-85829933D01*
X106453137Y-85829938D01*
X106362316Y-85892688D01*
X106279792Y-85954223D01*
X106197435Y-86015631D01*
X106197092Y-86015877D01*
X106106727Y-86078313D01*
X106106146Y-86078689D01*
X105999355Y-86143498D01*
X105998686Y-86143875D01*
X105866994Y-86212399D01*
X105866354Y-86212707D01*
X105712106Y-86281421D01*
X105703154Y-86281658D01*
X105696658Y-86275495D01*
X105696558Y-86275265D01*
X105395941Y-85552068D01*
X105395931Y-85543117D01*
X105696242Y-84819907D01*
X105702578Y-84813583D01*
X105711533Y-84813591D01*
G37*
%TD.AperFunction*%
%TD*%
%TA.AperFunction,Conductor*%
%TO.N,GND*%
G36*
X112890758Y-74865573D02*
G01*
X112914349Y-74882316D01*
X112936069Y-74893325D01*
X112956829Y-74900081D01*
X112977540Y-74904068D01*
X112999111Y-74906766D01*
X113022452Y-74909660D01*
X113048475Y-74914231D01*
X113078088Y-74921961D01*
X113112202Y-74934335D01*
X113015707Y-75169707D01*
X112780335Y-75266202D01*
X112767961Y-75232088D01*
X112760231Y-75202475D01*
X112755660Y-75176452D01*
X112752766Y-75153111D01*
X112750068Y-75131540D01*
X112746081Y-75110829D01*
X112739325Y-75090069D01*
X112728316Y-75068349D01*
X112711573Y-75044758D01*
X112687612Y-75018388D01*
X112864388Y-74841612D01*
X112890758Y-74865573D01*
G37*
%TD.AperFunction*%
%TD*%
%TA.AperFunction,Conductor*%
%TO.N,/MA4*%
G36*
X105576301Y-94908040D02*
G01*
X105725561Y-94910319D01*
X105725633Y-94910321D01*
X105850870Y-94913680D01*
X105960144Y-94917759D01*
X106061415Y-94922200D01*
X106061414Y-94922200D01*
X106064811Y-94922348D01*
X106162686Y-94926640D01*
X106271960Y-94930720D01*
X106397240Y-94934080D01*
X106546530Y-94936360D01*
X106716186Y-94937146D01*
X106724443Y-94940611D01*
X106727832Y-94948846D01*
X106727832Y-95176653D01*
X106724405Y-95184926D01*
X106717342Y-95188290D01*
X106557521Y-95204909D01*
X106437929Y-95254989D01*
X106357830Y-95332879D01*
X106357829Y-95332880D01*
X106306012Y-95433996D01*
X106271251Y-95553793D01*
X106271249Y-95553804D01*
X106242360Y-95687551D01*
X106242303Y-95687802D01*
X106208164Y-95830558D01*
X106207852Y-95831633D01*
X106157436Y-95978625D01*
X106156711Y-95980300D01*
X106078968Y-96127254D01*
X106077699Y-96129170D01*
X105968860Y-96262844D01*
X105960979Y-96267096D01*
X105952400Y-96264530D01*
X105951521Y-96263737D01*
X105397440Y-95710634D01*
X105394006Y-95702364D01*
X105394006Y-95702339D01*
X105394024Y-95687682D01*
X105394985Y-94918938D01*
X105398422Y-94910671D01*
X105406699Y-94907254D01*
X105576301Y-94908040D01*
G37*
%TD.AperFunction*%
%TD*%
%TA.AperFunction,Conductor*%
%TO.N,/MA1*%
G36*
X108046888Y-89143836D02*
G01*
X108083144Y-89158998D01*
X108083147Y-89159001D01*
X108083148Y-89159000D01*
X108122260Y-89175377D01*
X108155451Y-89188713D01*
X108155466Y-89188719D01*
X108184930Y-89199347D01*
X108212725Y-89207542D01*
X108240946Y-89213595D01*
X108271688Y-89217796D01*
X108307048Y-89220436D01*
X108328084Y-89221121D01*
X108349114Y-89221807D01*
X108354032Y-89221844D01*
X108388390Y-89222110D01*
X108396637Y-89225601D01*
X108400000Y-89233810D01*
X108400000Y-89460589D01*
X108396573Y-89468862D01*
X108388390Y-89472289D01*
X108349114Y-89472591D01*
X108307054Y-89473962D01*
X108285574Y-89475566D01*
X108271688Y-89476603D01*
X108271682Y-89476603D01*
X108271666Y-89476605D01*
X108240949Y-89480803D01*
X108212722Y-89486857D01*
X108212718Y-89486858D01*
X108184935Y-89495049D01*
X108184927Y-89495052D01*
X108155460Y-89505680D01*
X108122237Y-89519031D01*
X108083153Y-89535397D01*
X108083148Y-89535399D01*
X108046890Y-89550561D01*
X108037935Y-89550591D01*
X108031585Y-89544289D01*
X108015407Y-89505680D01*
X107950893Y-89351719D01*
X107950857Y-89342768D01*
X108031586Y-89150107D01*
X108037943Y-89143803D01*
X108046888Y-89143836D01*
G37*
%TD.AperFunction*%
%TD*%
%TA.AperFunction,Conductor*%
%TO.N,/MA0*%
G36*
X108300809Y-87848652D02*
G01*
X108300948Y-87848712D01*
X108336991Y-87864617D01*
X108337428Y-87864821D01*
X108375706Y-87883774D01*
X108375983Y-87883916D01*
X108408243Y-87901196D01*
X108436603Y-87916634D01*
X108436611Y-87916638D01*
X108463151Y-87930031D01*
X108463156Y-87930034D01*
X108463162Y-87930036D01*
X108463165Y-87930038D01*
X108490157Y-87941284D01*
X108519804Y-87950248D01*
X108554336Y-87956805D01*
X108595978Y-87960830D01*
X108635575Y-87961894D01*
X108643751Y-87965541D01*
X108646959Y-87973589D01*
X108646959Y-88200842D01*
X108643532Y-88209115D01*
X108635607Y-88212537D01*
X108586204Y-88214008D01*
X108536454Y-88218915D01*
X108536421Y-88218919D01*
X108494868Y-88226154D01*
X108458794Y-88234942D01*
X108434884Y-88241801D01*
X108425479Y-88244500D01*
X108392371Y-88253996D01*
X108391940Y-88254111D01*
X108356460Y-88262753D01*
X108355698Y-88262912D01*
X108314942Y-88270008D01*
X108314083Y-88270124D01*
X108265157Y-88274950D01*
X108264357Y-88275002D01*
X108215994Y-88276442D01*
X108207623Y-88273263D01*
X108203951Y-88265095D01*
X108203946Y-88264852D01*
X108203010Y-88054176D01*
X108203918Y-88049608D01*
X108285498Y-87854918D01*
X108291854Y-87848615D01*
X108300809Y-87848652D01*
G37*
%TD.AperFunction*%
%TD*%
%TA.AperFunction,Conductor*%
%TO.N,/~{OE}*%
G36*
X105442761Y-76345446D02*
G01*
X105446166Y-76353009D01*
X105449760Y-76412277D01*
X105457275Y-76536205D01*
X105490431Y-76689522D01*
X105490432Y-76689526D01*
X105541703Y-76811764D01*
X105541705Y-76811767D01*
X105541706Y-76811769D01*
X105607839Y-76912749D01*
X105607841Y-76912751D01*
X105684767Y-77001343D01*
X105685571Y-77002268D01*
X105759241Y-77077469D01*
X105771587Y-77090072D01*
X105771714Y-77090204D01*
X105862487Y-77185813D01*
X105863068Y-77186473D01*
X105955348Y-77299585D01*
X105956110Y-77300633D01*
X106046890Y-77441187D01*
X106047592Y-77442435D01*
X106128703Y-77609903D01*
X106129225Y-77618843D01*
X106123273Y-77625533D01*
X106122663Y-77625807D01*
X105399490Y-77926334D01*
X105390536Y-77926344D01*
X104667117Y-77625716D01*
X104660792Y-77619377D01*
X104660803Y-77610422D01*
X104660968Y-77610043D01*
X104735361Y-77448562D01*
X104735782Y-77447739D01*
X104813825Y-77308751D01*
X104814219Y-77308103D01*
X104889480Y-77193331D01*
X104889706Y-77193001D01*
X104960584Y-77093706D01*
X105025305Y-77001348D01*
X105059356Y-76944982D01*
X105082049Y-76907419D01*
X105082051Y-76907414D01*
X105082057Y-76907405D01*
X105129147Y-76803189D01*
X105164880Y-76680011D01*
X105187562Y-76529184D01*
X105195025Y-76353223D01*
X105198799Y-76345103D01*
X105206714Y-76342019D01*
X105434488Y-76342019D01*
X105442761Y-76345446D01*
G37*
%TD.AperFunction*%
%TD*%
%TA.AperFunction,Conductor*%
%TO.N,/MA6*%
G36*
X110535416Y-90394720D02*
G01*
X110535503Y-90394921D01*
X110617080Y-90589605D01*
X110617989Y-90594179D01*
X110617053Y-90804799D01*
X110613589Y-90813057D01*
X110605301Y-90816447D01*
X110605005Y-90816442D01*
X110556641Y-90815002D01*
X110555841Y-90814950D01*
X110506915Y-90810124D01*
X110506056Y-90810008D01*
X110465300Y-90802912D01*
X110464538Y-90802753D01*
X110429058Y-90794111D01*
X110428601Y-90793989D01*
X110395520Y-90784500D01*
X110382415Y-90780740D01*
X110362204Y-90774942D01*
X110326130Y-90766154D01*
X110284577Y-90758919D01*
X110284544Y-90758915D01*
X110234794Y-90754008D01*
X110185393Y-90752537D01*
X110177225Y-90748865D01*
X110174041Y-90740842D01*
X110174041Y-90513589D01*
X110177468Y-90505316D01*
X110185424Y-90501894D01*
X110225021Y-90500830D01*
X110266663Y-90496805D01*
X110301194Y-90490248D01*
X110330842Y-90481284D01*
X110357834Y-90470038D01*
X110384396Y-90456634D01*
X110412698Y-90441227D01*
X110412755Y-90441197D01*
X110430430Y-90431728D01*
X110444995Y-90423926D01*
X110445270Y-90423784D01*
X110483586Y-90404812D01*
X110483988Y-90404625D01*
X110519990Y-90388738D01*
X110528941Y-90388534D01*
X110535416Y-90394720D01*
G37*
%TD.AperFunction*%
%TD*%
%TA.AperFunction,Conductor*%
%TO.N,/~{OE}*%
G36*
X106131725Y-48771343D02*
G01*
X106138050Y-48777682D01*
X106138247Y-48778193D01*
X106200286Y-48950981D01*
X106200624Y-48952097D01*
X106240584Y-49111891D01*
X106240791Y-49112905D01*
X106263021Y-49253790D01*
X106263106Y-49254447D01*
X106275847Y-49381521D01*
X106275850Y-49381556D01*
X106287309Y-49499413D01*
X106287310Y-49499425D01*
X106305743Y-49612674D01*
X106305745Y-49612682D01*
X106339426Y-49726108D01*
X106396636Y-49844545D01*
X106396637Y-49844546D01*
X106485646Y-49972815D01*
X106485653Y-49972824D01*
X106577419Y-50074437D01*
X106607305Y-50107529D01*
X106610307Y-50115966D01*
X106606895Y-50123644D01*
X106445844Y-50284695D01*
X106437571Y-50288122D01*
X106429729Y-50285105D01*
X106295024Y-50163453D01*
X106295015Y-50163446D01*
X106166746Y-50074437D01*
X106166745Y-50074436D01*
X106048308Y-50017226D01*
X105934882Y-49983545D01*
X105934884Y-49983545D01*
X105934879Y-49983544D01*
X105934876Y-49983543D01*
X105934874Y-49983543D01*
X105821625Y-49965110D01*
X105821613Y-49965109D01*
X105703755Y-49953650D01*
X105703737Y-49953640D01*
X105703721Y-49953647D01*
X105576647Y-49940906D01*
X105575990Y-49940821D01*
X105435105Y-49918591D01*
X105434091Y-49918384D01*
X105274297Y-49878424D01*
X105273181Y-49878086D01*
X105100393Y-49816047D01*
X105093765Y-49810026D01*
X105093335Y-49801081D01*
X105093532Y-49800570D01*
X105124275Y-49726108D01*
X105392438Y-49076585D01*
X105398762Y-49070248D01*
X105398764Y-49070246D01*
X106122770Y-48771332D01*
X106131725Y-48771343D01*
G37*
%TD.AperFunction*%
%TD*%
%TA.AperFunction,Conductor*%
%TO.N,/~{OE}*%
G36*
X105593689Y-59077741D02*
G01*
X105597115Y-59085859D01*
X105597746Y-59133660D01*
X105599877Y-59182488D01*
X105603018Y-59223432D01*
X105606831Y-59259110D01*
X105610981Y-59292156D01*
X105610981Y-59292157D01*
X105615115Y-59325088D01*
X105615140Y-59325302D01*
X105618924Y-59360705D01*
X105618956Y-59361053D01*
X105622069Y-59401631D01*
X105622092Y-59402016D01*
X105624206Y-59450474D01*
X105624216Y-59450829D01*
X105624843Y-59498197D01*
X105621526Y-59506515D01*
X105613299Y-59510051D01*
X105613196Y-59510052D01*
X105402379Y-59510989D01*
X105397805Y-59510080D01*
X105203341Y-59428595D01*
X105197035Y-59422237D01*
X105197072Y-59413282D01*
X105197236Y-59412909D01*
X105214024Y-59376811D01*
X105214496Y-59375905D01*
X105236115Y-59338427D01*
X105236557Y-59337726D01*
X105257690Y-59306835D01*
X105257989Y-59306421D01*
X105278232Y-59279600D01*
X105296978Y-59254561D01*
X105313529Y-59229085D01*
X105327344Y-59200748D01*
X105337882Y-59167123D01*
X105337883Y-59167111D01*
X105337885Y-59167108D01*
X105344598Y-59125806D01*
X105344598Y-59125803D01*
X105344601Y-59125787D01*
X105346296Y-59088831D01*
X105346450Y-59085478D01*
X105350253Y-59077370D01*
X105358138Y-59074314D01*
X105585416Y-59074314D01*
X105593689Y-59077741D01*
G37*
%TD.AperFunction*%
%TD*%
%TA.AperFunction,Conductor*%
%TO.N,/~{OE}*%
G36*
X105402192Y-59509918D02*
G01*
X105596614Y-59591386D01*
X105602919Y-59597743D01*
X105602882Y-59606698D01*
X105602680Y-59607152D01*
X105585707Y-59643267D01*
X105585177Y-59644266D01*
X105563022Y-59681564D01*
X105562475Y-59682402D01*
X105540573Y-59712980D01*
X105540191Y-59713483D01*
X105518977Y-59739956D01*
X105518968Y-59739968D01*
X105499128Y-59764659D01*
X105481490Y-59789793D01*
X105466681Y-59817843D01*
X105466680Y-59817845D01*
X105455331Y-59851272D01*
X105448061Y-59892567D01*
X105446052Y-59933067D01*
X105442219Y-59941160D01*
X105434366Y-59944187D01*
X105207087Y-59944187D01*
X105198814Y-59940760D01*
X105195388Y-59932601D01*
X105194926Y-59885105D01*
X105194926Y-59885085D01*
X105193368Y-59836439D01*
X105191072Y-59795634D01*
X105188284Y-59760056D01*
X105185250Y-59727093D01*
X105182216Y-59694130D01*
X105179435Y-59658647D01*
X105179424Y-59658494D01*
X105177135Y-59617806D01*
X105177129Y-59617667D01*
X105175576Y-59569171D01*
X105175573Y-59569006D01*
X105175114Y-59521760D01*
X105178460Y-59513455D01*
X105186698Y-59509948D01*
X105397622Y-59509010D01*
X105402192Y-59509918D01*
G37*
%TD.AperFunction*%
%TD*%
%TA.AperFunction,Conductor*%
%TO.N,/MA3*%
G36*
X111980270Y-94494894D02*
G01*
X112114974Y-94616544D01*
X112114983Y-94616551D01*
X112243251Y-94705560D01*
X112243252Y-94705561D01*
X112361689Y-94762771D01*
X112361691Y-94762771D01*
X112361692Y-94762772D01*
X112475119Y-94796454D01*
X112588370Y-94814887D01*
X112706244Y-94826347D01*
X112706276Y-94826364D01*
X112706278Y-94826351D01*
X112833365Y-94839092D01*
X112833994Y-94839174D01*
X112974893Y-94861407D01*
X112975895Y-94861612D01*
X113135710Y-94901576D01*
X113136823Y-94901913D01*
X113230240Y-94935455D01*
X113309606Y-94963952D01*
X113316234Y-94969973D01*
X113316664Y-94978918D01*
X113316467Y-94979429D01*
X113017562Y-95703412D01*
X113011237Y-95709751D01*
X113011212Y-95709762D01*
X112287229Y-96008667D01*
X112278274Y-96008656D01*
X112271949Y-96002317D01*
X112271752Y-96001806D01*
X112209714Y-95829026D01*
X112209376Y-95827910D01*
X112169412Y-95668095D01*
X112169207Y-95667093D01*
X112146974Y-95526194D01*
X112146891Y-95525551D01*
X112134151Y-95398478D01*
X112134148Y-95398443D01*
X112122688Y-95280584D01*
X112122687Y-95280572D01*
X112122687Y-95280570D01*
X112104254Y-95167319D01*
X112070572Y-95053892D01*
X112034604Y-94979429D01*
X112013361Y-94935452D01*
X112013360Y-94935451D01*
X111924351Y-94807183D01*
X111924344Y-94807174D01*
X111832578Y-94705561D01*
X111802693Y-94672469D01*
X111799692Y-94664033D01*
X111803103Y-94656356D01*
X111964156Y-94495303D01*
X111972428Y-94491877D01*
X111980270Y-94494894D01*
G37*
%TD.AperFunction*%
%TD*%
%TA.AperFunction,Conductor*%
%TO.N,/MA3*%
G36*
X108808888Y-93563436D02*
G01*
X108845144Y-93578598D01*
X108845147Y-93578601D01*
X108845148Y-93578600D01*
X108884260Y-93594977D01*
X108917451Y-93608313D01*
X108917466Y-93608319D01*
X108946930Y-93618947D01*
X108974725Y-93627142D01*
X109002946Y-93633195D01*
X109033688Y-93637396D01*
X109069048Y-93640036D01*
X109090084Y-93640721D01*
X109111114Y-93641407D01*
X109116032Y-93641444D01*
X109150390Y-93641710D01*
X109158637Y-93645201D01*
X109162000Y-93653410D01*
X109162000Y-93880189D01*
X109158573Y-93888462D01*
X109150390Y-93891889D01*
X109111114Y-93892191D01*
X109069054Y-93893562D01*
X109047574Y-93895166D01*
X109033688Y-93896203D01*
X109033682Y-93896203D01*
X109033666Y-93896205D01*
X109002949Y-93900403D01*
X108974722Y-93906457D01*
X108974718Y-93906458D01*
X108946935Y-93914649D01*
X108946927Y-93914652D01*
X108917460Y-93925280D01*
X108884237Y-93938631D01*
X108845153Y-93954997D01*
X108845148Y-93954999D01*
X108808890Y-93970161D01*
X108799935Y-93970191D01*
X108793585Y-93963889D01*
X108777407Y-93925280D01*
X108712893Y-93771319D01*
X108712857Y-93762368D01*
X108793586Y-93569707D01*
X108799943Y-93563403D01*
X108808888Y-93563436D01*
G37*
%TD.AperFunction*%
%TD*%
%TA.AperFunction,Conductor*%
%TO.N,GND*%
G36*
X112890758Y-74865573D02*
G01*
X112914349Y-74882316D01*
X112936069Y-74893325D01*
X112956829Y-74900081D01*
X112977540Y-74904068D01*
X112999111Y-74906766D01*
X113022452Y-74909660D01*
X113048475Y-74914231D01*
X113078088Y-74921961D01*
X113112202Y-74934335D01*
X113015707Y-75169707D01*
X112780335Y-75266202D01*
X112767961Y-75232088D01*
X112760231Y-75202475D01*
X112755660Y-75176452D01*
X112752766Y-75153111D01*
X112750068Y-75131540D01*
X112746081Y-75110829D01*
X112739325Y-75090069D01*
X112728316Y-75068349D01*
X112711573Y-75044758D01*
X112687612Y-75018388D01*
X112864388Y-74841612D01*
X112890758Y-74865573D01*
G37*
%TD.AperFunction*%
%TD*%
%TA.AperFunction,Conductor*%
%TO.N,/~{RAS}*%
G36*
X106580140Y-87076274D02*
G01*
X106740925Y-87237059D01*
X106744352Y-87245332D01*
X106741102Y-87253424D01*
X106626641Y-87372948D01*
X106626633Y-87372957D01*
X106532153Y-87483649D01*
X106460223Y-87582523D01*
X106405413Y-87674965D01*
X106405406Y-87674978D01*
X106362330Y-87766313D01*
X106325595Y-87861877D01*
X106289788Y-87967060D01*
X106249589Y-88086974D01*
X106249515Y-88087189D01*
X106199506Y-88227261D01*
X106199373Y-88227614D01*
X106138462Y-88382280D01*
X106132242Y-88388722D01*
X106123289Y-88388879D01*
X106123111Y-88388808D01*
X105401534Y-88090896D01*
X105395195Y-88084571D01*
X105394299Y-88080075D01*
X105394989Y-87299265D01*
X105398423Y-87290996D01*
X105406699Y-87287576D01*
X105406999Y-87287580D01*
X105561716Y-87292493D01*
X105562311Y-87292528D01*
X105706550Y-87305071D01*
X105706850Y-87305102D01*
X105756071Y-87310880D01*
X105833244Y-87319941D01*
X105833300Y-87319947D01*
X105946105Y-87332099D01*
X106049380Y-87336545D01*
X106147394Y-87328290D01*
X106244418Y-87302340D01*
X106344721Y-87253702D01*
X106452573Y-87177379D01*
X106563992Y-87075895D01*
X106572412Y-87072860D01*
X106580140Y-87076274D01*
G37*
%TD.AperFunction*%
%TD*%
%TA.AperFunction,Conductor*%
%TO.N,/MA5*%
G36*
X108708169Y-91884635D02*
G01*
X108714527Y-91890941D01*
X108714564Y-91891030D01*
X108793673Y-92084252D01*
X108793636Y-92093207D01*
X108787286Y-92099509D01*
X108750932Y-92114424D01*
X108750927Y-92114426D01*
X108711727Y-92130487D01*
X108678790Y-92144541D01*
X108650433Y-92157863D01*
X108624984Y-92171723D01*
X108624959Y-92171738D01*
X108600742Y-92187401D01*
X108576046Y-92206159D01*
X108576034Y-92206169D01*
X108549161Y-92229307D01*
X108518458Y-92258071D01*
X108490463Y-92285640D01*
X108482164Y-92289003D01*
X108473981Y-92285576D01*
X108313623Y-92125218D01*
X108310196Y-92116945D01*
X108313558Y-92108737D01*
X108341113Y-92080754D01*
X108369893Y-92050035D01*
X108393029Y-92023165D01*
X108411796Y-91998456D01*
X108427472Y-91974221D01*
X108441331Y-91948772D01*
X108454650Y-91920423D01*
X108468705Y-91887485D01*
X108484772Y-91848272D01*
X108499689Y-91811911D01*
X108505999Y-91805559D01*
X108514944Y-91805525D01*
X108708169Y-91884635D01*
G37*
%TD.AperFunction*%
%TD*%
%TA.AperFunction,Conductor*%
%TO.N,/D3*%
G36*
X111966195Y-59014084D02*
G01*
X111972416Y-59020246D01*
X111986219Y-59052295D01*
X112002520Y-59086800D01*
X112017420Y-59115129D01*
X112017437Y-59115160D01*
X112031602Y-59139273D01*
X112045741Y-59161196D01*
X112060440Y-59182763D01*
X112076383Y-59205958D01*
X112076476Y-59206095D01*
X112094270Y-59232783D01*
X112094424Y-59233020D01*
X112114781Y-59265215D01*
X112114931Y-59265459D01*
X112132545Y-59295075D01*
X112133829Y-59303938D01*
X112128470Y-59311112D01*
X112128339Y-59311189D01*
X111931713Y-59424705D01*
X111922835Y-59425873D01*
X111916050Y-59420943D01*
X111901694Y-59398832D01*
X111881895Y-59375884D01*
X111881891Y-59375880D01*
X111862094Y-59359786D01*
X111862087Y-59359781D01*
X111841703Y-59348931D01*
X111841700Y-59348930D01*
X111820144Y-59341715D01*
X111820131Y-59341711D01*
X111796807Y-59336515D01*
X111771220Y-59331745D01*
X111770968Y-59331695D01*
X111742791Y-59325799D01*
X111742099Y-59325632D01*
X111710703Y-59317041D01*
X111709786Y-59316749D01*
X111685335Y-59307840D01*
X111678734Y-59301788D01*
X111678347Y-59292842D01*
X111678500Y-59292444D01*
X111757641Y-59099467D01*
X111763949Y-59093114D01*
X111957241Y-59014045D01*
X111966195Y-59014084D01*
G37*
%TD.AperFunction*%
%TD*%
%TA.AperFunction,Conductor*%
%TO.N,/MA0*%
G36*
X112713336Y-87358917D02*
G01*
X112713558Y-87359418D01*
X113014134Y-88082710D01*
X113014144Y-88091663D01*
X113014135Y-88091685D01*
X113014134Y-88091690D01*
X112713558Y-88814981D01*
X112707219Y-88821306D01*
X112698264Y-88821295D01*
X112697763Y-88821073D01*
X112531720Y-88742765D01*
X112530692Y-88742216D01*
X112389437Y-88657476D01*
X112388573Y-88656904D01*
X112273222Y-88572994D01*
X112272698Y-88572590D01*
X112173846Y-88491754D01*
X112173819Y-88491732D01*
X112082358Y-88416480D01*
X112082355Y-88416477D01*
X111989253Y-88349442D01*
X111989254Y-88349442D01*
X111989252Y-88349441D01*
X111937241Y-88321247D01*
X111885229Y-88293052D01*
X111885226Y-88293051D01*
X111761031Y-88249759D01*
X111607371Y-88221994D01*
X111426105Y-88212765D01*
X111418017Y-88208922D01*
X111415000Y-88201080D01*
X111415000Y-87973319D01*
X111418427Y-87965046D01*
X111426103Y-87961634D01*
X111607376Y-87952404D01*
X111761029Y-87924640D01*
X111885230Y-87881346D01*
X111989252Y-87824958D01*
X112082367Y-87757912D01*
X112173846Y-87682645D01*
X112272700Y-87601806D01*
X112273222Y-87601404D01*
X112388573Y-87517494D01*
X112389420Y-87516933D01*
X112530700Y-87432177D01*
X112531712Y-87431636D01*
X112697763Y-87353325D01*
X112706708Y-87352896D01*
X112713336Y-87358917D01*
G37*
%TD.AperFunction*%
%TD*%
%TA.AperFunction,Conductor*%
%TO.N,/~{RAS}*%
G36*
X109444769Y-84366235D02*
G01*
X109451127Y-84372541D01*
X109451164Y-84372630D01*
X109530273Y-84565852D01*
X109530236Y-84574807D01*
X109523886Y-84581109D01*
X109487532Y-84596024D01*
X109487527Y-84596026D01*
X109448327Y-84612087D01*
X109415390Y-84626141D01*
X109387033Y-84639463D01*
X109361584Y-84653323D01*
X109361559Y-84653338D01*
X109337342Y-84669001D01*
X109312646Y-84687759D01*
X109312634Y-84687769D01*
X109285761Y-84710907D01*
X109255058Y-84739671D01*
X109227063Y-84767240D01*
X109218764Y-84770603D01*
X109210581Y-84767176D01*
X109050223Y-84606818D01*
X109046796Y-84598545D01*
X109050158Y-84590337D01*
X109077713Y-84562354D01*
X109106493Y-84531635D01*
X109129629Y-84504765D01*
X109148396Y-84480056D01*
X109164072Y-84455821D01*
X109177931Y-84430372D01*
X109191250Y-84402023D01*
X109205305Y-84369085D01*
X109221372Y-84329872D01*
X109236289Y-84293511D01*
X109242599Y-84287159D01*
X109251544Y-84287125D01*
X109444769Y-84366235D01*
G37*
%TD.AperFunction*%
%TD*%
%TA.AperFunction,Conductor*%
%TO.N,Net-(U3-Pad1)*%
G36*
X111378710Y-74412472D02*
G01*
X111409738Y-74442517D01*
X111413236Y-74445904D01*
X111449713Y-74478700D01*
X111481448Y-74505012D01*
X111481465Y-74505026D01*
X111509998Y-74526983D01*
X111510024Y-74527002D01*
X111537019Y-74546831D01*
X111563971Y-74566628D01*
X111564058Y-74566694D01*
X111592433Y-74588530D01*
X111592735Y-74588771D01*
X111624150Y-74614818D01*
X111624505Y-74615125D01*
X111660642Y-74647616D01*
X111660958Y-74647911D01*
X111695095Y-74680966D01*
X111698654Y-74689183D01*
X111695361Y-74697510D01*
X111695266Y-74697607D01*
X111546882Y-74847316D01*
X111543005Y-74849908D01*
X111347842Y-74929812D01*
X111338887Y-74929775D01*
X111332581Y-74923417D01*
X111332443Y-74923063D01*
X111318701Y-74885809D01*
X111318420Y-74884938D01*
X111306799Y-74843396D01*
X111306618Y-74842649D01*
X111299105Y-74806201D01*
X111299020Y-74805745D01*
X111293596Y-74772804D01*
X111293596Y-74772803D01*
X111288323Y-74742349D01*
X111288320Y-74742336D01*
X111281182Y-74713058D01*
X111281178Y-74713046D01*
X111270170Y-74683666D01*
X111270169Y-74683663D01*
X111253259Y-74652799D01*
X111228430Y-74619109D01*
X111201243Y-74589496D01*
X111198174Y-74581086D01*
X111201589Y-74573313D01*
X111362299Y-74412603D01*
X111370571Y-74409177D01*
X111378710Y-74412472D01*
G37*
%TD.AperFunction*%
%TD*%
%TA.AperFunction,Conductor*%
%TO.N,/D0*%
G36*
X106412751Y-79288351D02*
G01*
X106576539Y-79446700D01*
X106580105Y-79454914D01*
X106577228Y-79462798D01*
X106461414Y-79595711D01*
X106461405Y-79595723D01*
X106377294Y-79722158D01*
X106377284Y-79722176D01*
X106324033Y-79838565D01*
X106293534Y-79949699D01*
X106277682Y-80060330D01*
X106268359Y-80175246D01*
X106268352Y-80175325D01*
X106257484Y-80298878D01*
X106257400Y-80299583D01*
X106236933Y-80436505D01*
X106236725Y-80437565D01*
X106198581Y-80592919D01*
X106198234Y-80594070D01*
X106138238Y-80761788D01*
X106132225Y-80768423D01*
X106123281Y-80768863D01*
X106122757Y-80768662D01*
X105398799Y-80469773D01*
X105392460Y-80463448D01*
X105392449Y-80463423D01*
X105324804Y-80299583D01*
X105093552Y-79739477D01*
X105093563Y-79730524D01*
X105099902Y-79724199D01*
X105100427Y-79723998D01*
X105268096Y-79664636D01*
X105269284Y-79664288D01*
X105425357Y-79627527D01*
X105426430Y-79627328D01*
X105564586Y-79608644D01*
X105565300Y-79608570D01*
X105690316Y-79599602D01*
X105776447Y-79593970D01*
X105806427Y-79592011D01*
X105806431Y-79592010D01*
X105806453Y-79592009D01*
X105917819Y-79577405D01*
X105917823Y-79577404D01*
X105917827Y-79577403D01*
X105938099Y-79571921D01*
X106028875Y-79547379D01*
X106144082Y-79493520D01*
X106267901Y-79407416D01*
X106396671Y-79288177D01*
X106405068Y-79285072D01*
X106412751Y-79288351D01*
G37*
%TD.AperFunction*%
%TD*%
%TA.AperFunction,Conductor*%
%TO.N,/D3*%
G36*
X112095932Y-79315299D02*
G01*
X112180280Y-79452075D01*
X112274000Y-79548702D01*
X112372794Y-79605851D01*
X112478028Y-79633375D01*
X112591068Y-79641124D01*
X112713279Y-79638953D01*
X112713279Y-79638956D01*
X112713286Y-79638952D01*
X112845645Y-79636718D01*
X112846402Y-79636731D01*
X112989990Y-79644218D01*
X112991363Y-79644371D01*
X113147747Y-79671285D01*
X113149405Y-79671697D01*
X113309171Y-79724163D01*
X113315961Y-79729999D01*
X113316636Y-79738928D01*
X113316334Y-79739745D01*
X113017309Y-80463597D01*
X113010983Y-80469935D01*
X113010959Y-80469945D01*
X112287007Y-80768760D01*
X112278052Y-80768749D01*
X112271728Y-80762409D01*
X112271626Y-80762154D01*
X112207504Y-80594047D01*
X112207278Y-80593394D01*
X112160456Y-80442571D01*
X112160255Y-80441838D01*
X112129110Y-80312259D01*
X112128979Y-80311643D01*
X112107732Y-80196219D01*
X112107682Y-80195925D01*
X112090613Y-80087760D01*
X112072010Y-79980157D01*
X112072007Y-79980142D01*
X112046143Y-79866377D01*
X112046142Y-79866372D01*
X112007271Y-79739594D01*
X112007268Y-79739584D01*
X112007266Y-79739581D01*
X111949650Y-79592968D01*
X111949637Y-79592938D01*
X111872388Y-79429890D01*
X111871942Y-79420947D01*
X111877648Y-79414456D01*
X112080662Y-79311014D01*
X112089588Y-79310313D01*
X112095932Y-79315299D01*
G37*
%TD.AperFunction*%
%TD*%
%TA.AperFunction,Conductor*%
%TO.N,GND*%
G36*
X112890758Y-74865573D02*
G01*
X112914349Y-74882316D01*
X112936069Y-74893325D01*
X112956829Y-74900081D01*
X112977540Y-74904068D01*
X112999111Y-74906766D01*
X113022452Y-74909660D01*
X113048475Y-74914231D01*
X113078088Y-74921961D01*
X113112202Y-74934335D01*
X113015707Y-75169707D01*
X112780335Y-75266202D01*
X112767961Y-75232088D01*
X112760231Y-75202475D01*
X112755660Y-75176452D01*
X112752766Y-75153111D01*
X112750068Y-75131540D01*
X112746081Y-75110829D01*
X112739325Y-75090069D01*
X112728316Y-75068349D01*
X112711573Y-75044758D01*
X112687612Y-75018388D01*
X112864388Y-74841612D01*
X112890758Y-74865573D01*
G37*
%TD.AperFunction*%
%TD*%
%TA.AperFunction,Conductor*%
%TO.N,/MA6*%
G36*
X105711735Y-89893104D02*
G01*
X105712236Y-89893326D01*
X105878277Y-89971633D01*
X105879305Y-89972182D01*
X106020567Y-90056926D01*
X106021424Y-90057494D01*
X106136775Y-90141404D01*
X106137298Y-90141808D01*
X106236124Y-90222622D01*
X106236142Y-90222656D01*
X106236152Y-90222645D01*
X106327634Y-90297914D01*
X106353702Y-90316683D01*
X106420746Y-90364958D01*
X106524768Y-90421346D01*
X106648970Y-90464640D01*
X106802623Y-90492404D01*
X106983896Y-90501634D01*
X106991983Y-90505477D01*
X106995000Y-90513319D01*
X106995000Y-90741080D01*
X106991573Y-90749353D01*
X106983895Y-90752765D01*
X106802627Y-90761994D01*
X106648967Y-90789759D01*
X106524771Y-90833051D01*
X106524768Y-90833052D01*
X106428822Y-90885063D01*
X106420746Y-90889441D01*
X106400259Y-90904192D01*
X106327634Y-90956484D01*
X106236179Y-91031732D01*
X106236151Y-91031754D01*
X106137298Y-91112590D01*
X106136775Y-91112994D01*
X106021424Y-91196904D01*
X106020560Y-91197476D01*
X105879305Y-91282216D01*
X105878277Y-91282765D01*
X105712236Y-91361073D01*
X105703291Y-91361503D01*
X105696663Y-91355482D01*
X105696449Y-91355000D01*
X105395864Y-90631687D01*
X105395854Y-90622738D01*
X105696442Y-89899416D01*
X105702780Y-89893093D01*
X105711735Y-89893104D01*
G37*
%TD.AperFunction*%
%TD*%
%TA.AperFunction,Conductor*%
%TO.N,/D6*%
G36*
X107629675Y-58309062D02*
G01*
X107790034Y-58469421D01*
X107793461Y-58477694D01*
X107790118Y-58485882D01*
X107762633Y-58513933D01*
X107734115Y-58544879D01*
X107711431Y-58572011D01*
X107711426Y-58572017D01*
X107693184Y-58597073D01*
X107678079Y-58621692D01*
X107664812Y-58647487D01*
X107652011Y-58676207D01*
X107641513Y-58701822D01*
X107639732Y-58706169D01*
X107638380Y-58709467D01*
X107622650Y-58748772D01*
X107622624Y-58748839D01*
X107607794Y-58785248D01*
X107601499Y-58791617D01*
X107592544Y-58791670D01*
X107592525Y-58791662D01*
X107399330Y-58712564D01*
X107392972Y-58706258D01*
X107392935Y-58706169D01*
X107380663Y-58676196D01*
X107313815Y-58512920D01*
X107313852Y-58503966D01*
X107320177Y-58497674D01*
X107348734Y-58485882D01*
X107356246Y-58482780D01*
X107360169Y-58481137D01*
X107395115Y-58466511D01*
X107427633Y-58452126D01*
X107455530Y-58438387D01*
X107480514Y-58424068D01*
X107504290Y-58407942D01*
X107528566Y-58388782D01*
X107555046Y-58365361D01*
X107585437Y-58336454D01*
X107613174Y-58309016D01*
X107621465Y-58305635D01*
X107629675Y-58309062D01*
G37*
%TD.AperFunction*%
%TD*%
%TA.AperFunction,Conductor*%
%TO.N,/D0*%
G36*
X107692169Y-63411235D02*
G01*
X107698527Y-63417541D01*
X107698564Y-63417630D01*
X107777673Y-63610852D01*
X107777636Y-63619807D01*
X107771286Y-63626109D01*
X107734932Y-63641024D01*
X107734927Y-63641026D01*
X107695727Y-63657087D01*
X107662790Y-63671141D01*
X107634433Y-63684463D01*
X107608984Y-63698323D01*
X107608959Y-63698338D01*
X107584742Y-63714001D01*
X107560046Y-63732759D01*
X107560034Y-63732769D01*
X107533161Y-63755907D01*
X107502458Y-63784671D01*
X107474463Y-63812240D01*
X107466164Y-63815603D01*
X107457981Y-63812176D01*
X107297623Y-63651818D01*
X107294196Y-63643545D01*
X107297558Y-63635337D01*
X107325113Y-63607354D01*
X107353893Y-63576635D01*
X107377029Y-63549765D01*
X107395796Y-63525056D01*
X107411472Y-63500821D01*
X107425331Y-63475372D01*
X107438650Y-63447023D01*
X107452705Y-63414085D01*
X107468772Y-63374872D01*
X107483689Y-63338511D01*
X107489999Y-63332159D01*
X107498944Y-63332125D01*
X107692169Y-63411235D01*
G37*
%TD.AperFunction*%
%TD*%
%TA.AperFunction,Conductor*%
%TO.N,/~{CAS0}*%
G36*
X111980270Y-81794894D02*
G01*
X112114974Y-81916544D01*
X112114983Y-81916551D01*
X112243251Y-82005560D01*
X112243252Y-82005561D01*
X112361689Y-82062771D01*
X112361691Y-82062771D01*
X112361692Y-82062772D01*
X112475119Y-82096454D01*
X112588370Y-82114887D01*
X112706244Y-82126347D01*
X112706276Y-82126364D01*
X112706278Y-82126351D01*
X112833365Y-82139092D01*
X112833994Y-82139174D01*
X112974893Y-82161407D01*
X112975895Y-82161612D01*
X113135710Y-82201576D01*
X113136823Y-82201913D01*
X113230240Y-82235455D01*
X113309606Y-82263952D01*
X113316234Y-82269973D01*
X113316664Y-82278918D01*
X113316467Y-82279429D01*
X113017562Y-83003412D01*
X113011237Y-83009751D01*
X113011212Y-83009762D01*
X112287229Y-83308667D01*
X112278274Y-83308656D01*
X112271949Y-83302317D01*
X112271752Y-83301806D01*
X112209714Y-83129026D01*
X112209376Y-83127910D01*
X112169412Y-82968095D01*
X112169207Y-82967093D01*
X112146974Y-82826194D01*
X112146891Y-82825551D01*
X112134151Y-82698478D01*
X112134148Y-82698443D01*
X112122688Y-82580584D01*
X112122687Y-82580572D01*
X112122687Y-82580570D01*
X112104254Y-82467319D01*
X112070572Y-82353892D01*
X112034604Y-82279429D01*
X112013361Y-82235452D01*
X112013360Y-82235451D01*
X111924351Y-82107183D01*
X111924344Y-82107174D01*
X111832578Y-82005561D01*
X111802693Y-81972469D01*
X111799692Y-81964033D01*
X111803103Y-81956356D01*
X111964156Y-81795303D01*
X111972428Y-81791877D01*
X111980270Y-81794894D01*
G37*
%TD.AperFunction*%
%TD*%
%TA.AperFunction,Conductor*%
%TO.N,/D7*%
G36*
X112287262Y-51311345D02*
G01*
X112727349Y-51493041D01*
X113011212Y-51610237D01*
X113017551Y-51616562D01*
X113017562Y-51616587D01*
X113316479Y-52340599D01*
X113316468Y-52349554D01*
X113310129Y-52355879D01*
X113309646Y-52356066D01*
X113138631Y-52417957D01*
X113137579Y-52418282D01*
X112979624Y-52459143D01*
X112978675Y-52459347D01*
X112839683Y-52483225D01*
X112839083Y-52483312D01*
X112713960Y-52498181D01*
X112713960Y-52498182D01*
X112598009Y-52511988D01*
X112598004Y-52511988D01*
X112598003Y-52511989D01*
X112486672Y-52532700D01*
X112375091Y-52568325D01*
X112375087Y-52568326D01*
X112258392Y-52626871D01*
X112131751Y-52716324D01*
X112131727Y-52716343D01*
X111998494Y-52837244D01*
X111990065Y-52840266D01*
X111982359Y-52836853D01*
X111821305Y-52675799D01*
X111817878Y-52667526D01*
X111820873Y-52659709D01*
X111942503Y-52524255D01*
X112030337Y-52394950D01*
X112085519Y-52275275D01*
X112085521Y-52275268D01*
X112116598Y-52160475D01*
X112116598Y-52160468D01*
X112116601Y-52160461D01*
X112132134Y-52045741D01*
X112140671Y-51926346D01*
X112150736Y-51797858D01*
X112150814Y-51797150D01*
X112170888Y-51654993D01*
X112171091Y-51653927D01*
X112209678Y-51493037D01*
X112210030Y-51491849D01*
X112271775Y-51318238D01*
X112277775Y-51311594D01*
X112286719Y-51311137D01*
X112287262Y-51311345D01*
G37*
%TD.AperFunction*%
%TD*%
%TA.AperFunction,Conductor*%
%TO.N,/D6*%
G36*
X112713330Y-55964531D02*
G01*
X112713634Y-55965202D01*
X113014134Y-56688310D01*
X113014144Y-56697263D01*
X113014135Y-56697285D01*
X113014134Y-56697290D01*
X112713491Y-57420742D01*
X112707152Y-57427067D01*
X112698197Y-57427056D01*
X112697848Y-57426905D01*
X112538900Y-57354709D01*
X112538187Y-57354355D01*
X112516174Y-57342488D01*
X112400468Y-57280111D01*
X112399917Y-57279794D01*
X112285513Y-57209473D01*
X112285228Y-57209291D01*
X112185803Y-57144142D01*
X112093050Y-57085463D01*
X112093043Y-57085459D01*
X112093035Y-57085454D01*
X111998706Y-57034595D01*
X111998698Y-57034592D01*
X111998693Y-57034589D01*
X111894445Y-56992834D01*
X111894439Y-56992832D01*
X111771879Y-56961439D01*
X111771868Y-56961437D01*
X111672356Y-56948259D01*
X111622602Y-56941670D01*
X111622600Y-56941669D01*
X111622590Y-56941669D01*
X111449537Y-56935219D01*
X111441397Y-56931486D01*
X111438273Y-56923527D01*
X111438273Y-56695753D01*
X111441700Y-56687480D01*
X111449200Y-56684078D01*
X111633673Y-56671902D01*
X111786860Y-56635692D01*
X111847413Y-56607792D01*
X111907964Y-56579895D01*
X111907968Y-56579892D01*
X112007130Y-56508232D01*
X112094485Y-56424431D01*
X112180165Y-56332215D01*
X112273976Y-56235650D01*
X112274673Y-56234992D01*
X112386505Y-56137907D01*
X112387633Y-56137043D01*
X112527869Y-56042759D01*
X112529222Y-56041977D01*
X112697670Y-55959191D01*
X112706606Y-55958618D01*
X112713330Y-55964531D01*
G37*
%TD.AperFunction*%
%TD*%
%TA.AperFunction,Conductor*%
%TO.N,GND*%
G36*
X112890758Y-74865573D02*
G01*
X112914349Y-74882316D01*
X112936069Y-74893325D01*
X112956829Y-74900081D01*
X112977540Y-74904068D01*
X112999111Y-74906766D01*
X113022452Y-74909660D01*
X113048475Y-74914231D01*
X113078088Y-74921961D01*
X113112202Y-74934335D01*
X113015707Y-75169707D01*
X112780335Y-75266202D01*
X112767961Y-75232088D01*
X112760231Y-75202475D01*
X112755660Y-75176452D01*
X112752766Y-75153111D01*
X112750068Y-75131540D01*
X112746081Y-75110829D01*
X112739325Y-75090069D01*
X112728316Y-75068349D01*
X112711573Y-75044758D01*
X112687612Y-75018388D01*
X112864388Y-74841612D01*
X112890758Y-74865573D01*
G37*
%TD.AperFunction*%
%TD*%
%TA.AperFunction,Conductor*%
%TO.N,/MA5*%
G36*
X105711647Y-92433318D02*
G01*
X105712328Y-92433627D01*
X105868276Y-92510783D01*
X105869638Y-92511576D01*
X106002301Y-92601256D01*
X106003367Y-92602069D01*
X106111276Y-92694724D01*
X106111885Y-92695286D01*
X106203939Y-92786555D01*
X106203970Y-92786629D01*
X106203992Y-92786608D01*
X106288884Y-92871881D01*
X106359386Y-92932668D01*
X106375056Y-92946179D01*
X106471347Y-93004926D01*
X106586562Y-93043507D01*
X106729517Y-93057317D01*
X106898165Y-93042693D01*
X106906702Y-93045392D01*
X106910730Y-93052519D01*
X106946368Y-93277554D01*
X106944277Y-93286261D01*
X106937085Y-93290861D01*
X106763577Y-93325224D01*
X106616267Y-93369135D01*
X106497212Y-93419752D01*
X106397439Y-93476415D01*
X106307986Y-93538453D01*
X106219925Y-93605168D01*
X106219817Y-93605249D01*
X106124343Y-93675857D01*
X106123834Y-93676213D01*
X106012068Y-93750030D01*
X106011320Y-93750485D01*
X105874113Y-93827021D01*
X105873286Y-93827440D01*
X105712170Y-93901253D01*
X105703221Y-93901583D01*
X105696660Y-93895489D01*
X105696493Y-93895107D01*
X105668368Y-93827440D01*
X105395878Y-93171845D01*
X105395868Y-93162891D01*
X105395878Y-93162866D01*
X105445806Y-93042693D01*
X105696353Y-92439633D01*
X105702692Y-92433309D01*
X105711647Y-92433318D01*
G37*
%TD.AperFunction*%
%TD*%
M02*
