M48
; DRILL file {KiCad 8.0.8} date 2025-01-27T20:38:38+0100
; FORMAT={-:-/ absolute / inch / decimal}
; #@! TF.CreationDate,2025-01-27T20:38:38+01:00
; #@! TF.GenerationSoftware,Kicad,Pcbnew,8.0.8
; #@! TF.FileFunction,Plated,1,4,PTH
FMAT,2
INCH
; #@! TA.AperFunction,Plated,PTH,ViaDrill
T1C0.0079
; #@! TA.AperFunction,Plated,PTH,ComponentDrill
T2C0.0276
%
G90
G05
T1
X4.1496Y-2.3429
X4.1691Y-2.4403
X4.1724Y-2.5063
X4.1846Y-2.263
X4.2085Y-2.3415
X4.212Y-1.934
X4.22Y-2.4716
X4.2282Y-2.3114
X4.235Y-2.557
X4.235Y-2.5826
X4.235Y-2.6082
X4.235Y-2.6338
X4.235Y-2.6594
X4.235Y-2.685
X4.235Y-2.7106
X4.235Y-2.7366
X4.235Y-2.7666
X4.24Y-2.4966
X4.24Y-2.8166
X4.2441Y-2.4449
X4.2479Y-2.857
X4.25Y-3.5176
X4.25Y-3.89
X4.26Y-3.4666
X4.2657Y-2.5531
X4.28Y-3.6176
X4.28Y-3.6916
X4.3Y-2.8416
X4.309Y-3.3216
X4.3096Y-3.401
X4.31Y-3.268
X4.3148Y-2.3348
X4.3266Y-2.9818
X4.3374Y-2.1966
X4.3374Y-2.2866
X4.35Y-3.89
X4.355Y-3.5666
X4.355Y-3.7416
X4.36Y-2.3416
X4.365Y-2.6594
X4.365Y-2.685
X4.365Y-2.7106
X4.365Y-2.7362
X4.366Y-2.5242
X4.37Y-2.1516
X4.3915Y-2.9468
X4.3915Y-3.1416
X4.3915Y-2.99
X4.4Y-2.3266
X4.44Y-2.95
X4.4578Y-2.557
X4.4584Y-2.6082
X4.4584Y-2.6338
X4.4585Y-2.5826
X4.47Y-3.005
T2
X4.1494Y-1.932
X4.1494Y-2.032
X4.1494Y-2.132
X4.1494Y-3.068
X4.1494Y-3.168
X4.1494Y-3.268
X4.1494Y-3.368
X4.1494Y-3.468
X4.1494Y-3.568
X4.1494Y-3.668
X4.1494Y-3.768
X4.1494Y-3.868
X4.3Y-2.0316
X4.4494Y-1.932
X4.4494Y-2.032
X4.4494Y-2.132
X4.4494Y-2.232
X4.4494Y-3.068
X4.4494Y-3.168
X4.4494Y-3.268
X4.4494Y-3.368
X4.4494Y-3.468
X4.4494Y-3.568
X4.4494Y-3.668
X4.4494Y-3.768
X4.4494Y-3.868
M30
