M48
; DRILL file {KiCad (6.99.0-4380-g9b6f7d5db7)} date Tue Jan 24 18:27:47 2023
; FORMAT={-:-/ absolute / inch / decimal}
; #@! TF.CreationDate,2023-01-24T18:27:47+01:00
; #@! TF.GenerationSoftware,Kicad,Pcbnew,(6.99.0-4380-g9b6f7d5db7)
; #@! TF.FileFunction,Plated,1,4,PTH
FMAT,2
INCH
; #@! TA.AperFunction,Plated,PTH,ViaDrill
T1C0.0079
; #@! TA.AperFunction,Plated,PTH,ComponentDrill
T2C0.0276
%
G90
G05
T1
X3.9879Y-1.8065
X3.9889Y-2.2015
X3.9905Y-2.4498
X4.0031Y-1.6295
X4.0179Y-1.7855
X4.038Y-1.8803
X4.0413Y-1.9462
X4.0509Y-1.7115
X4.0809Y-1.3739
X4.0889Y-1.9115
X4.0917Y-1.6997
X4.097Y-1.7514
X4.1039Y-1.997
X4.1039Y-2.0226
X4.1039Y-2.0482
X4.1039Y-2.0737
X4.1039Y-2.0993
X4.1039Y-2.1249
X4.1039Y-2.1505
X4.1039Y-2.1765
X4.1089Y-1.9365
X4.1089Y-2.2565
X4.1091Y-2.2067
X4.113Y-1.8848
X4.1167Y-2.2969
X4.1189Y-2.9575
X4.1189Y-3.3299
X4.1289Y-2.9065
X4.1346Y-1.9931
X4.1489Y-3.0575
X4.1489Y-3.1315
X4.1689Y-2.2816
X4.1779Y-2.7615
X4.1785Y-2.8409
X4.1789Y-2.7079
X4.1837Y-1.7747
X4.1955Y-2.4217
X4.2063Y-1.7265
X4.2189Y-3.3299
X4.2239Y-3.0065
X4.2239Y-3.1815
X4.2267Y-3.0702
X4.2289Y-1.7815
X4.2339Y-2.0695
X4.2339Y-2.0993
X4.2339Y-2.1249
X4.2339Y-2.1505
X4.2339Y-2.1761
X4.2343Y-2.0346
X4.2389Y-1.5915
X4.2445Y-3.2435
X4.2604Y-2.3867
X4.2604Y-2.5815
X4.2604Y-2.4299
X4.2689Y-1.7665
X4.2803Y-2.8569
X4.3089Y-2.3899
X4.3232Y-1.751
X4.3266Y-1.997
X4.3273Y-2.0482
X4.3273Y-2.0737
X4.3273Y-2.0226
X4.3389Y-2.4449
X4.3472Y-1.9439
T2
X4.0183Y-1.3719
X4.0183Y-1.4719
X4.0183Y-1.5719
X4.0183Y-2.5079
X4.0183Y-2.6079
X4.0183Y-2.7079
X4.0183Y-2.8079
X4.0183Y-2.9079
X4.0183Y-3.0079
X4.0183Y-3.1079
X4.0183Y-3.2079
X4.0183Y-3.3079
X4.1689Y-1.4715
X4.3183Y-1.3719
X4.3183Y-1.4719
X4.3183Y-1.5719
X4.3183Y-1.6719
X4.3183Y-2.5079
X4.3183Y-2.6079
X4.3183Y-2.7079
X4.3183Y-2.8079
X4.3183Y-2.9079
X4.3183Y-3.0079
X4.3183Y-3.1079
X4.3183Y-3.2079
X4.3183Y-3.3079
T0
M30
