%TF.GenerationSoftware,KiCad,Pcbnew,8.0.8*%
%TF.CreationDate,2025-01-27T20:38:42+01:00*%
%TF.ProjectId,GX4000-SRAM-rounded,47583430-3030-42d5-9352-414d2d726f75,rev?*%
%TF.SameCoordinates,Original*%
%TF.FileFunction,Legend,Bot*%
%TF.FilePolarity,Positive*%
%FSLAX46Y46*%
G04 Gerber Fmt 4.6, Leading zero omitted, Abs format (unit mm)*
G04 Created by KiCad (PCBNEW 8.0.8) date 2025-01-27 20:38:42*
%MOMM*%
%LPD*%
G01*
G04 APERTURE LIST*
%ADD10C,0.150000*%
%ADD11C,0.120000*%
G04 APERTURE END LIST*
D10*
X107398208Y-88741429D02*
X108064875Y-88979524D01*
X108064875Y-88979524D02*
X107398208Y-89217619D01*
X107160113Y-89550953D02*
X107112494Y-89598572D01*
X107112494Y-89598572D02*
X107064875Y-89693810D01*
X107064875Y-89693810D02*
X107064875Y-89931905D01*
X107064875Y-89931905D02*
X107112494Y-90027143D01*
X107112494Y-90027143D02*
X107160113Y-90074762D01*
X107160113Y-90074762D02*
X107255351Y-90122381D01*
X107255351Y-90122381D02*
X107350589Y-90122381D01*
X107350589Y-90122381D02*
X107493446Y-90074762D01*
X107493446Y-90074762D02*
X108064875Y-89503334D01*
X108064875Y-89503334D02*
X108064875Y-90122381D01*
X107969636Y-90550953D02*
X108017256Y-90598572D01*
X108017256Y-90598572D02*
X108064875Y-90550953D01*
X108064875Y-90550953D02*
X108017256Y-90503334D01*
X108017256Y-90503334D02*
X107969636Y-90550953D01*
X107969636Y-90550953D02*
X108064875Y-90550953D01*
X108064875Y-91550952D02*
X108064875Y-90979524D01*
X108064875Y-91265238D02*
X107064875Y-91265238D01*
X107064875Y-91265238D02*
X107207732Y-91170000D01*
X107207732Y-91170000D02*
X107302970Y-91074762D01*
X107302970Y-91074762D02*
X107350589Y-90979524D01*
X109674819Y-82598571D02*
X108674819Y-82598571D01*
X109674819Y-83027142D02*
X109151009Y-83027142D01*
X109151009Y-83027142D02*
X109055771Y-82979523D01*
X109055771Y-82979523D02*
X109008152Y-82884285D01*
X109008152Y-82884285D02*
X109008152Y-82741428D01*
X109008152Y-82741428D02*
X109055771Y-82646190D01*
X109055771Y-82646190D02*
X109103390Y-82598571D01*
X109008152Y-83360476D02*
X109008152Y-83741428D01*
X108674819Y-83503333D02*
X109531961Y-83503333D01*
X109531961Y-83503333D02*
X109627200Y-83550952D01*
X109627200Y-83550952D02*
X109674819Y-83646190D01*
X109674819Y-83646190D02*
X109674819Y-83741428D01*
X109008152Y-83931905D02*
X109008152Y-84312857D01*
X108674819Y-84074762D02*
X109531961Y-84074762D01*
X109531961Y-84074762D02*
X109627200Y-84122381D01*
X109627200Y-84122381D02*
X109674819Y-84217619D01*
X109674819Y-84217619D02*
X109674819Y-84312857D01*
X109008152Y-84646191D02*
X110008152Y-84646191D01*
X109055771Y-84646191D02*
X109008152Y-84741429D01*
X109008152Y-84741429D02*
X109008152Y-84931905D01*
X109008152Y-84931905D02*
X109055771Y-85027143D01*
X109055771Y-85027143D02*
X109103390Y-85074762D01*
X109103390Y-85074762D02*
X109198628Y-85122381D01*
X109198628Y-85122381D02*
X109484342Y-85122381D01*
X109484342Y-85122381D02*
X109579580Y-85074762D01*
X109579580Y-85074762D02*
X109627200Y-85027143D01*
X109627200Y-85027143D02*
X109674819Y-84931905D01*
X109674819Y-84931905D02*
X109674819Y-84741429D01*
X109674819Y-84741429D02*
X109627200Y-84646191D01*
X109627200Y-85503334D02*
X109674819Y-85598572D01*
X109674819Y-85598572D02*
X109674819Y-85789048D01*
X109674819Y-85789048D02*
X109627200Y-85884286D01*
X109627200Y-85884286D02*
X109531961Y-85931905D01*
X109531961Y-85931905D02*
X109484342Y-85931905D01*
X109484342Y-85931905D02*
X109389104Y-85884286D01*
X109389104Y-85884286D02*
X109341485Y-85789048D01*
X109341485Y-85789048D02*
X109341485Y-85646191D01*
X109341485Y-85646191D02*
X109293866Y-85550953D01*
X109293866Y-85550953D02*
X109198628Y-85503334D01*
X109198628Y-85503334D02*
X109151009Y-85503334D01*
X109151009Y-85503334D02*
X109055771Y-85550953D01*
X109055771Y-85550953D02*
X109008152Y-85646191D01*
X109008152Y-85646191D02*
X109008152Y-85789048D01*
X109008152Y-85789048D02*
X109055771Y-85884286D01*
X109579580Y-86360477D02*
X109627200Y-86408096D01*
X109627200Y-86408096D02*
X109674819Y-86360477D01*
X109674819Y-86360477D02*
X109627200Y-86312858D01*
X109627200Y-86312858D02*
X109579580Y-86360477D01*
X109579580Y-86360477D02*
X109674819Y-86360477D01*
X109055771Y-86360477D02*
X109103390Y-86408096D01*
X109103390Y-86408096D02*
X109151009Y-86360477D01*
X109151009Y-86360477D02*
X109103390Y-86312858D01*
X109103390Y-86312858D02*
X109055771Y-86360477D01*
X109055771Y-86360477D02*
X109151009Y-86360477D01*
X108627200Y-87550952D02*
X109912914Y-86693810D01*
X108627200Y-88598571D02*
X109912914Y-87741429D01*
X109008152Y-89360476D02*
X109817676Y-89360476D01*
X109817676Y-89360476D02*
X109912914Y-89312857D01*
X109912914Y-89312857D02*
X109960533Y-89265238D01*
X109960533Y-89265238D02*
X110008152Y-89170000D01*
X110008152Y-89170000D02*
X110008152Y-89027143D01*
X110008152Y-89027143D02*
X109960533Y-88931905D01*
X109627200Y-89360476D02*
X109674819Y-89265238D01*
X109674819Y-89265238D02*
X109674819Y-89074762D01*
X109674819Y-89074762D02*
X109627200Y-88979524D01*
X109627200Y-88979524D02*
X109579580Y-88931905D01*
X109579580Y-88931905D02*
X109484342Y-88884286D01*
X109484342Y-88884286D02*
X109198628Y-88884286D01*
X109198628Y-88884286D02*
X109103390Y-88931905D01*
X109103390Y-88931905D02*
X109055771Y-88979524D01*
X109055771Y-88979524D02*
X109008152Y-89074762D01*
X109008152Y-89074762D02*
X109008152Y-89265238D01*
X109008152Y-89265238D02*
X109055771Y-89360476D01*
X109674819Y-89836667D02*
X109008152Y-89836667D01*
X108674819Y-89836667D02*
X108722438Y-89789048D01*
X108722438Y-89789048D02*
X108770057Y-89836667D01*
X108770057Y-89836667D02*
X108722438Y-89884286D01*
X108722438Y-89884286D02*
X108674819Y-89836667D01*
X108674819Y-89836667D02*
X108770057Y-89836667D01*
X109008152Y-90170000D02*
X109008152Y-90550952D01*
X108674819Y-90312857D02*
X109531961Y-90312857D01*
X109531961Y-90312857D02*
X109627200Y-90360476D01*
X109627200Y-90360476D02*
X109674819Y-90455714D01*
X109674819Y-90455714D02*
X109674819Y-90550952D01*
X109674819Y-90884286D02*
X108674819Y-90884286D01*
X109674819Y-91312857D02*
X109151009Y-91312857D01*
X109151009Y-91312857D02*
X109055771Y-91265238D01*
X109055771Y-91265238D02*
X109008152Y-91170000D01*
X109008152Y-91170000D02*
X109008152Y-91027143D01*
X109008152Y-91027143D02*
X109055771Y-90931905D01*
X109055771Y-90931905D02*
X109103390Y-90884286D01*
X109008152Y-92217619D02*
X109674819Y-92217619D01*
X109008152Y-91789048D02*
X109531961Y-91789048D01*
X109531961Y-91789048D02*
X109627200Y-91836667D01*
X109627200Y-91836667D02*
X109674819Y-91931905D01*
X109674819Y-91931905D02*
X109674819Y-92074762D01*
X109674819Y-92074762D02*
X109627200Y-92170000D01*
X109627200Y-92170000D02*
X109579580Y-92217619D01*
X109674819Y-92693810D02*
X108674819Y-92693810D01*
X109055771Y-92693810D02*
X109008152Y-92789048D01*
X109008152Y-92789048D02*
X109008152Y-92979524D01*
X109008152Y-92979524D02*
X109055771Y-93074762D01*
X109055771Y-93074762D02*
X109103390Y-93122381D01*
X109103390Y-93122381D02*
X109198628Y-93170000D01*
X109198628Y-93170000D02*
X109484342Y-93170000D01*
X109484342Y-93170000D02*
X109579580Y-93122381D01*
X109579580Y-93122381D02*
X109627200Y-93074762D01*
X109627200Y-93074762D02*
X109674819Y-92979524D01*
X109674819Y-92979524D02*
X109674819Y-92789048D01*
X109674819Y-92789048D02*
X109627200Y-92693810D01*
X109579580Y-93598572D02*
X109627200Y-93646191D01*
X109627200Y-93646191D02*
X109674819Y-93598572D01*
X109674819Y-93598572D02*
X109627200Y-93550953D01*
X109627200Y-93550953D02*
X109579580Y-93598572D01*
X109579580Y-93598572D02*
X109674819Y-93598572D01*
X109627200Y-94503333D02*
X109674819Y-94408095D01*
X109674819Y-94408095D02*
X109674819Y-94217619D01*
X109674819Y-94217619D02*
X109627200Y-94122381D01*
X109627200Y-94122381D02*
X109579580Y-94074762D01*
X109579580Y-94074762D02*
X109484342Y-94027143D01*
X109484342Y-94027143D02*
X109198628Y-94027143D01*
X109198628Y-94027143D02*
X109103390Y-94074762D01*
X109103390Y-94074762D02*
X109055771Y-94122381D01*
X109055771Y-94122381D02*
X109008152Y-94217619D01*
X109008152Y-94217619D02*
X109008152Y-94408095D01*
X109008152Y-94408095D02*
X109055771Y-94503333D01*
X109674819Y-95074762D02*
X109627200Y-94979524D01*
X109627200Y-94979524D02*
X109579580Y-94931905D01*
X109579580Y-94931905D02*
X109484342Y-94884286D01*
X109484342Y-94884286D02*
X109198628Y-94884286D01*
X109198628Y-94884286D02*
X109103390Y-94931905D01*
X109103390Y-94931905D02*
X109055771Y-94979524D01*
X109055771Y-94979524D02*
X109008152Y-95074762D01*
X109008152Y-95074762D02*
X109008152Y-95217619D01*
X109008152Y-95217619D02*
X109055771Y-95312857D01*
X109055771Y-95312857D02*
X109103390Y-95360476D01*
X109103390Y-95360476D02*
X109198628Y-95408095D01*
X109198628Y-95408095D02*
X109484342Y-95408095D01*
X109484342Y-95408095D02*
X109579580Y-95360476D01*
X109579580Y-95360476D02*
X109627200Y-95312857D01*
X109627200Y-95312857D02*
X109674819Y-95217619D01*
X109674819Y-95217619D02*
X109674819Y-95074762D01*
X109674819Y-95836667D02*
X109008152Y-95836667D01*
X109103390Y-95836667D02*
X109055771Y-95884286D01*
X109055771Y-95884286D02*
X109008152Y-95979524D01*
X109008152Y-95979524D02*
X109008152Y-96122381D01*
X109008152Y-96122381D02*
X109055771Y-96217619D01*
X109055771Y-96217619D02*
X109151009Y-96265238D01*
X109151009Y-96265238D02*
X109674819Y-96265238D01*
X109151009Y-96265238D02*
X109055771Y-96312857D01*
X109055771Y-96312857D02*
X109008152Y-96408095D01*
X109008152Y-96408095D02*
X109008152Y-96550952D01*
X109008152Y-96550952D02*
X109055771Y-96646191D01*
X109055771Y-96646191D02*
X109151009Y-96693810D01*
X109151009Y-96693810D02*
X109674819Y-96693810D01*
X108627200Y-97884285D02*
X109912914Y-97027143D01*
X110332382Y-82574762D02*
X110284763Y-82479524D01*
X110284763Y-82479524D02*
X110284763Y-82336667D01*
X110284763Y-82336667D02*
X110332382Y-82193810D01*
X110332382Y-82193810D02*
X110427620Y-82098572D01*
X110427620Y-82098572D02*
X110522858Y-82050953D01*
X110522858Y-82050953D02*
X110713334Y-82003334D01*
X110713334Y-82003334D02*
X110856191Y-82003334D01*
X110856191Y-82003334D02*
X111046667Y-82050953D01*
X111046667Y-82050953D02*
X111141905Y-82098572D01*
X111141905Y-82098572D02*
X111237144Y-82193810D01*
X111237144Y-82193810D02*
X111284763Y-82336667D01*
X111284763Y-82336667D02*
X111284763Y-82431905D01*
X111284763Y-82431905D02*
X111237144Y-82574762D01*
X111237144Y-82574762D02*
X111189524Y-82622381D01*
X111189524Y-82622381D02*
X110856191Y-82622381D01*
X110856191Y-82622381D02*
X110856191Y-82431905D01*
X110618096Y-83479524D02*
X111284763Y-83479524D01*
X110618096Y-83050953D02*
X111141905Y-83050953D01*
X111141905Y-83050953D02*
X111237144Y-83098572D01*
X111237144Y-83098572D02*
X111284763Y-83193810D01*
X111284763Y-83193810D02*
X111284763Y-83336667D01*
X111284763Y-83336667D02*
X111237144Y-83431905D01*
X111237144Y-83431905D02*
X111189524Y-83479524D01*
X111284763Y-83955715D02*
X110618096Y-83955715D01*
X110284763Y-83955715D02*
X110332382Y-83908096D01*
X110332382Y-83908096D02*
X110380001Y-83955715D01*
X110380001Y-83955715D02*
X110332382Y-84003334D01*
X110332382Y-84003334D02*
X110284763Y-83955715D01*
X110284763Y-83955715D02*
X110380001Y-83955715D01*
X111284763Y-84431905D02*
X110618096Y-84431905D01*
X110713334Y-84431905D02*
X110665715Y-84479524D01*
X110665715Y-84479524D02*
X110618096Y-84574762D01*
X110618096Y-84574762D02*
X110618096Y-84717619D01*
X110618096Y-84717619D02*
X110665715Y-84812857D01*
X110665715Y-84812857D02*
X110760953Y-84860476D01*
X110760953Y-84860476D02*
X111284763Y-84860476D01*
X110760953Y-84860476D02*
X110665715Y-84908095D01*
X110665715Y-84908095D02*
X110618096Y-85003333D01*
X110618096Y-85003333D02*
X110618096Y-85146190D01*
X110618096Y-85146190D02*
X110665715Y-85241429D01*
X110665715Y-85241429D02*
X110760953Y-85289048D01*
X110760953Y-85289048D02*
X111284763Y-85289048D01*
X111284763Y-85908095D02*
X111237144Y-85812857D01*
X111237144Y-85812857D02*
X111141905Y-85765238D01*
X111141905Y-85765238D02*
X110284763Y-85765238D01*
X111284763Y-86289048D02*
X110618096Y-86289048D01*
X110284763Y-86289048D02*
X110332382Y-86241429D01*
X110332382Y-86241429D02*
X110380001Y-86289048D01*
X110380001Y-86289048D02*
X110332382Y-86336667D01*
X110332382Y-86336667D02*
X110284763Y-86289048D01*
X110284763Y-86289048D02*
X110380001Y-86289048D01*
X110237144Y-87479523D02*
X111522858Y-86622381D01*
X110332382Y-88336666D02*
X110284763Y-88241428D01*
X110284763Y-88241428D02*
X110284763Y-88098571D01*
X110284763Y-88098571D02*
X110332382Y-87955714D01*
X110332382Y-87955714D02*
X110427620Y-87860476D01*
X110427620Y-87860476D02*
X110522858Y-87812857D01*
X110522858Y-87812857D02*
X110713334Y-87765238D01*
X110713334Y-87765238D02*
X110856191Y-87765238D01*
X110856191Y-87765238D02*
X111046667Y-87812857D01*
X111046667Y-87812857D02*
X111141905Y-87860476D01*
X111141905Y-87860476D02*
X111237144Y-87955714D01*
X111237144Y-87955714D02*
X111284763Y-88098571D01*
X111284763Y-88098571D02*
X111284763Y-88193809D01*
X111284763Y-88193809D02*
X111237144Y-88336666D01*
X111237144Y-88336666D02*
X111189524Y-88384285D01*
X111189524Y-88384285D02*
X110856191Y-88384285D01*
X110856191Y-88384285D02*
X110856191Y-88193809D01*
X110284763Y-88717619D02*
X111284763Y-89384285D01*
X110284763Y-89384285D02*
X111284763Y-88717619D01*
X110618096Y-90193809D02*
X111284763Y-90193809D01*
X110237144Y-89955714D02*
X110951429Y-89717619D01*
X110951429Y-89717619D02*
X110951429Y-90336666D01*
X110284763Y-90908095D02*
X110284763Y-91003333D01*
X110284763Y-91003333D02*
X110332382Y-91098571D01*
X110332382Y-91098571D02*
X110380001Y-91146190D01*
X110380001Y-91146190D02*
X110475239Y-91193809D01*
X110475239Y-91193809D02*
X110665715Y-91241428D01*
X110665715Y-91241428D02*
X110903810Y-91241428D01*
X110903810Y-91241428D02*
X111094286Y-91193809D01*
X111094286Y-91193809D02*
X111189524Y-91146190D01*
X111189524Y-91146190D02*
X111237144Y-91098571D01*
X111237144Y-91098571D02*
X111284763Y-91003333D01*
X111284763Y-91003333D02*
X111284763Y-90908095D01*
X111284763Y-90908095D02*
X111237144Y-90812857D01*
X111237144Y-90812857D02*
X111189524Y-90765238D01*
X111189524Y-90765238D02*
X111094286Y-90717619D01*
X111094286Y-90717619D02*
X110903810Y-90670000D01*
X110903810Y-90670000D02*
X110665715Y-90670000D01*
X110665715Y-90670000D02*
X110475239Y-90717619D01*
X110475239Y-90717619D02*
X110380001Y-90765238D01*
X110380001Y-90765238D02*
X110332382Y-90812857D01*
X110332382Y-90812857D02*
X110284763Y-90908095D01*
X110284763Y-91860476D02*
X110284763Y-91955714D01*
X110284763Y-91955714D02*
X110332382Y-92050952D01*
X110332382Y-92050952D02*
X110380001Y-92098571D01*
X110380001Y-92098571D02*
X110475239Y-92146190D01*
X110475239Y-92146190D02*
X110665715Y-92193809D01*
X110665715Y-92193809D02*
X110903810Y-92193809D01*
X110903810Y-92193809D02*
X111094286Y-92146190D01*
X111094286Y-92146190D02*
X111189524Y-92098571D01*
X111189524Y-92098571D02*
X111237144Y-92050952D01*
X111237144Y-92050952D02*
X111284763Y-91955714D01*
X111284763Y-91955714D02*
X111284763Y-91860476D01*
X111284763Y-91860476D02*
X111237144Y-91765238D01*
X111237144Y-91765238D02*
X111189524Y-91717619D01*
X111189524Y-91717619D02*
X111094286Y-91670000D01*
X111094286Y-91670000D02*
X110903810Y-91622381D01*
X110903810Y-91622381D02*
X110665715Y-91622381D01*
X110665715Y-91622381D02*
X110475239Y-91670000D01*
X110475239Y-91670000D02*
X110380001Y-91717619D01*
X110380001Y-91717619D02*
X110332382Y-91765238D01*
X110332382Y-91765238D02*
X110284763Y-91860476D01*
X110284763Y-92812857D02*
X110284763Y-92908095D01*
X110284763Y-92908095D02*
X110332382Y-93003333D01*
X110332382Y-93003333D02*
X110380001Y-93050952D01*
X110380001Y-93050952D02*
X110475239Y-93098571D01*
X110475239Y-93098571D02*
X110665715Y-93146190D01*
X110665715Y-93146190D02*
X110903810Y-93146190D01*
X110903810Y-93146190D02*
X111094286Y-93098571D01*
X111094286Y-93098571D02*
X111189524Y-93050952D01*
X111189524Y-93050952D02*
X111237144Y-93003333D01*
X111237144Y-93003333D02*
X111284763Y-92908095D01*
X111284763Y-92908095D02*
X111284763Y-92812857D01*
X111284763Y-92812857D02*
X111237144Y-92717619D01*
X111237144Y-92717619D02*
X111189524Y-92670000D01*
X111189524Y-92670000D02*
X111094286Y-92622381D01*
X111094286Y-92622381D02*
X110903810Y-92574762D01*
X110903810Y-92574762D02*
X110665715Y-92574762D01*
X110665715Y-92574762D02*
X110475239Y-92622381D01*
X110475239Y-92622381D02*
X110380001Y-92670000D01*
X110380001Y-92670000D02*
X110332382Y-92717619D01*
X110332382Y-92717619D02*
X110284763Y-92812857D01*
X110903810Y-93574762D02*
X110903810Y-94336667D01*
X111237144Y-94765238D02*
X111284763Y-94908095D01*
X111284763Y-94908095D02*
X111284763Y-95146190D01*
X111284763Y-95146190D02*
X111237144Y-95241428D01*
X111237144Y-95241428D02*
X111189524Y-95289047D01*
X111189524Y-95289047D02*
X111094286Y-95336666D01*
X111094286Y-95336666D02*
X110999048Y-95336666D01*
X110999048Y-95336666D02*
X110903810Y-95289047D01*
X110903810Y-95289047D02*
X110856191Y-95241428D01*
X110856191Y-95241428D02*
X110808572Y-95146190D01*
X110808572Y-95146190D02*
X110760953Y-94955714D01*
X110760953Y-94955714D02*
X110713334Y-94860476D01*
X110713334Y-94860476D02*
X110665715Y-94812857D01*
X110665715Y-94812857D02*
X110570477Y-94765238D01*
X110570477Y-94765238D02*
X110475239Y-94765238D01*
X110475239Y-94765238D02*
X110380001Y-94812857D01*
X110380001Y-94812857D02*
X110332382Y-94860476D01*
X110332382Y-94860476D02*
X110284763Y-94955714D01*
X110284763Y-94955714D02*
X110284763Y-95193809D01*
X110284763Y-95193809D02*
X110332382Y-95336666D01*
X111284763Y-96336666D02*
X110808572Y-96003333D01*
X111284763Y-95765238D02*
X110284763Y-95765238D01*
X110284763Y-95765238D02*
X110284763Y-96146190D01*
X110284763Y-96146190D02*
X110332382Y-96241428D01*
X110332382Y-96241428D02*
X110380001Y-96289047D01*
X110380001Y-96289047D02*
X110475239Y-96336666D01*
X110475239Y-96336666D02*
X110618096Y-96336666D01*
X110618096Y-96336666D02*
X110713334Y-96289047D01*
X110713334Y-96289047D02*
X110760953Y-96241428D01*
X110760953Y-96241428D02*
X110808572Y-96146190D01*
X110808572Y-96146190D02*
X110808572Y-95765238D01*
X110999048Y-96717619D02*
X110999048Y-97193809D01*
X111284763Y-96622381D02*
X110284763Y-96955714D01*
X110284763Y-96955714D02*
X111284763Y-97289047D01*
X111284763Y-97622381D02*
X110284763Y-97622381D01*
X110284763Y-97622381D02*
X110999048Y-97955714D01*
X110999048Y-97955714D02*
X110284763Y-98289047D01*
X110284763Y-98289047D02*
X111284763Y-98289047D01*
X106274819Y-55031895D02*
X107084342Y-55031895D01*
X107084342Y-55031895D02*
X107179580Y-55079514D01*
X107179580Y-55079514D02*
X107227200Y-55127133D01*
X107227200Y-55127133D02*
X107274819Y-55222371D01*
X107274819Y-55222371D02*
X107274819Y-55412847D01*
X107274819Y-55412847D02*
X107227200Y-55508085D01*
X107227200Y-55508085D02*
X107179580Y-55555704D01*
X107179580Y-55555704D02*
X107084342Y-55603323D01*
X107084342Y-55603323D02*
X106274819Y-55603323D01*
X106608152Y-56508085D02*
X107274819Y-56508085D01*
X106227200Y-56269990D02*
X106941485Y-56031895D01*
X106941485Y-56031895D02*
X106941485Y-56650942D01*
X108055580Y-73686533D02*
X108103200Y-73638914D01*
X108103200Y-73638914D02*
X108150819Y-73496057D01*
X108150819Y-73496057D02*
X108150819Y-73400819D01*
X108150819Y-73400819D02*
X108103200Y-73257962D01*
X108103200Y-73257962D02*
X108007961Y-73162724D01*
X108007961Y-73162724D02*
X107912723Y-73115105D01*
X107912723Y-73115105D02*
X107722247Y-73067486D01*
X107722247Y-73067486D02*
X107579390Y-73067486D01*
X107579390Y-73067486D02*
X107388914Y-73115105D01*
X107388914Y-73115105D02*
X107293676Y-73162724D01*
X107293676Y-73162724D02*
X107198438Y-73257962D01*
X107198438Y-73257962D02*
X107150819Y-73400819D01*
X107150819Y-73400819D02*
X107150819Y-73496057D01*
X107150819Y-73496057D02*
X107198438Y-73638914D01*
X107198438Y-73638914D02*
X107246057Y-73686533D01*
X108150819Y-74638914D02*
X108150819Y-74067486D01*
X108150819Y-74353200D02*
X107150819Y-74353200D01*
X107150819Y-74353200D02*
X107293676Y-74257962D01*
X107293676Y-74257962D02*
X107388914Y-74162724D01*
X107388914Y-74162724D02*
X107436533Y-74067486D01*
X109981904Y-62614619D02*
X109981904Y-63424142D01*
X109981904Y-63424142D02*
X109934285Y-63519380D01*
X109934285Y-63519380D02*
X109886666Y-63567000D01*
X109886666Y-63567000D02*
X109791428Y-63614619D01*
X109791428Y-63614619D02*
X109600952Y-63614619D01*
X109600952Y-63614619D02*
X109505714Y-63567000D01*
X109505714Y-63567000D02*
X109458095Y-63519380D01*
X109458095Y-63519380D02*
X109410476Y-63424142D01*
X109410476Y-63424142D02*
X109410476Y-62614619D01*
X108981904Y-62709857D02*
X108934285Y-62662238D01*
X108934285Y-62662238D02*
X108839047Y-62614619D01*
X108839047Y-62614619D02*
X108600952Y-62614619D01*
X108600952Y-62614619D02*
X108505714Y-62662238D01*
X108505714Y-62662238D02*
X108458095Y-62709857D01*
X108458095Y-62709857D02*
X108410476Y-62805095D01*
X108410476Y-62805095D02*
X108410476Y-62900333D01*
X108410476Y-62900333D02*
X108458095Y-63043190D01*
X108458095Y-63043190D02*
X109029523Y-63614619D01*
X109029523Y-63614619D02*
X108410476Y-63614619D01*
X106274819Y-78526895D02*
X107084342Y-78526895D01*
X107084342Y-78526895D02*
X107179580Y-78574514D01*
X107179580Y-78574514D02*
X107227200Y-78622133D01*
X107227200Y-78622133D02*
X107274819Y-78717371D01*
X107274819Y-78717371D02*
X107274819Y-78907847D01*
X107274819Y-78907847D02*
X107227200Y-79003085D01*
X107227200Y-79003085D02*
X107179580Y-79050704D01*
X107179580Y-79050704D02*
X107084342Y-79098323D01*
X107084342Y-79098323D02*
X106274819Y-79098323D01*
X106274819Y-79479276D02*
X106274819Y-80098323D01*
X106274819Y-80098323D02*
X106655771Y-79764990D01*
X106655771Y-79764990D02*
X106655771Y-79907847D01*
X106655771Y-79907847D02*
X106703390Y-80003085D01*
X106703390Y-80003085D02*
X106751009Y-80050704D01*
X106751009Y-80050704D02*
X106846247Y-80098323D01*
X106846247Y-80098323D02*
X107084342Y-80098323D01*
X107084342Y-80098323D02*
X107179580Y-80050704D01*
X107179580Y-80050704D02*
X107227200Y-80003085D01*
X107227200Y-80003085D02*
X107274819Y-79907847D01*
X107274819Y-79907847D02*
X107274819Y-79622133D01*
X107274819Y-79622133D02*
X107227200Y-79526895D01*
X107227200Y-79526895D02*
X107179580Y-79479276D01*
X105864819Y-59818133D02*
X105388628Y-59484800D01*
X105864819Y-59246705D02*
X104864819Y-59246705D01*
X104864819Y-59246705D02*
X104864819Y-59627657D01*
X104864819Y-59627657D02*
X104912438Y-59722895D01*
X104912438Y-59722895D02*
X104960057Y-59770514D01*
X104960057Y-59770514D02*
X105055295Y-59818133D01*
X105055295Y-59818133D02*
X105198152Y-59818133D01*
X105198152Y-59818133D02*
X105293390Y-59770514D01*
X105293390Y-59770514D02*
X105341009Y-59722895D01*
X105341009Y-59722895D02*
X105388628Y-59627657D01*
X105388628Y-59627657D02*
X105388628Y-59246705D01*
X105864819Y-60770514D02*
X105864819Y-60199086D01*
X105864819Y-60484800D02*
X104864819Y-60484800D01*
X104864819Y-60484800D02*
X105007676Y-60389562D01*
X105007676Y-60389562D02*
X105102914Y-60294324D01*
X105102914Y-60294324D02*
X105150533Y-60199086D01*
X111291666Y-51232119D02*
X111624999Y-50755928D01*
X111863094Y-51232119D02*
X111863094Y-50232119D01*
X111863094Y-50232119D02*
X111482142Y-50232119D01*
X111482142Y-50232119D02*
X111386904Y-50279738D01*
X111386904Y-50279738D02*
X111339285Y-50327357D01*
X111339285Y-50327357D02*
X111291666Y-50422595D01*
X111291666Y-50422595D02*
X111291666Y-50565452D01*
X111291666Y-50565452D02*
X111339285Y-50660690D01*
X111339285Y-50660690D02*
X111386904Y-50708309D01*
X111386904Y-50708309D02*
X111482142Y-50755928D01*
X111482142Y-50755928D02*
X111863094Y-50755928D01*
X110910713Y-50327357D02*
X110863094Y-50279738D01*
X110863094Y-50279738D02*
X110767856Y-50232119D01*
X110767856Y-50232119D02*
X110529761Y-50232119D01*
X110529761Y-50232119D02*
X110434523Y-50279738D01*
X110434523Y-50279738D02*
X110386904Y-50327357D01*
X110386904Y-50327357D02*
X110339285Y-50422595D01*
X110339285Y-50422595D02*
X110339285Y-50517833D01*
X110339285Y-50517833D02*
X110386904Y-50660690D01*
X110386904Y-50660690D02*
X110958332Y-51232119D01*
X110958332Y-51232119D02*
X110339285Y-51232119D01*
X108089580Y-60703333D02*
X108137200Y-60655714D01*
X108137200Y-60655714D02*
X108184819Y-60512857D01*
X108184819Y-60512857D02*
X108184819Y-60417619D01*
X108184819Y-60417619D02*
X108137200Y-60274762D01*
X108137200Y-60274762D02*
X108041961Y-60179524D01*
X108041961Y-60179524D02*
X107946723Y-60131905D01*
X107946723Y-60131905D02*
X107756247Y-60084286D01*
X107756247Y-60084286D02*
X107613390Y-60084286D01*
X107613390Y-60084286D02*
X107422914Y-60131905D01*
X107422914Y-60131905D02*
X107327676Y-60179524D01*
X107327676Y-60179524D02*
X107232438Y-60274762D01*
X107232438Y-60274762D02*
X107184819Y-60417619D01*
X107184819Y-60417619D02*
X107184819Y-60512857D01*
X107184819Y-60512857D02*
X107232438Y-60655714D01*
X107232438Y-60655714D02*
X107280057Y-60703333D01*
X107280057Y-61084286D02*
X107232438Y-61131905D01*
X107232438Y-61131905D02*
X107184819Y-61227143D01*
X107184819Y-61227143D02*
X107184819Y-61465238D01*
X107184819Y-61465238D02*
X107232438Y-61560476D01*
X107232438Y-61560476D02*
X107280057Y-61608095D01*
X107280057Y-61608095D02*
X107375295Y-61655714D01*
X107375295Y-61655714D02*
X107470533Y-61655714D01*
X107470533Y-61655714D02*
X107613390Y-61608095D01*
X107613390Y-61608095D02*
X108184819Y-61036667D01*
X108184819Y-61036667D02*
X108184819Y-61655714D01*
D11*
%TO.C,U4*%
X107660000Y-54993800D02*
X107660000Y-55793800D01*
X107660000Y-56593800D02*
X107660000Y-55793800D01*
X110780000Y-54993800D02*
X110780000Y-55793800D01*
X110780000Y-56593800D02*
X110780000Y-55793800D01*
X107710000Y-54493800D02*
X107380000Y-54733800D01*
X107380000Y-54253800D01*
X107710000Y-54493800D01*
G36*
X107710000Y-54493800D02*
G01*
X107380000Y-54733800D01*
X107380000Y-54253800D01*
X107710000Y-54493800D01*
G37*
%TO.C,C1*%
X108485000Y-73591948D02*
X108485000Y-74114452D01*
X109955000Y-73591948D02*
X109955000Y-74114452D01*
%TO.C,U2*%
X107020000Y-63838800D02*
X109220000Y-63838800D01*
X107020000Y-70608800D02*
X109220000Y-70608800D01*
X111420000Y-63838800D02*
X109220000Y-63838800D01*
X111420000Y-70608800D02*
X109220000Y-70608800D01*
X105360000Y-70148800D02*
X105030000Y-70388800D01*
X105030000Y-69908800D01*
X105360000Y-70148800D01*
G36*
X105360000Y-70148800D02*
G01*
X105030000Y-70388800D01*
X105030000Y-69908800D01*
X105360000Y-70148800D01*
G37*
%TO.C,U3*%
X107660000Y-78488800D02*
X107660000Y-79288800D01*
X107660000Y-80088800D02*
X107660000Y-79288800D01*
X110780000Y-78488800D02*
X110780000Y-79288800D01*
X110780000Y-80088800D02*
X110780000Y-79288800D01*
X107710000Y-77988800D02*
X107380000Y-78228800D01*
X107380000Y-77748800D01*
X107710000Y-77988800D01*
G36*
X107710000Y-77988800D02*
G01*
X107380000Y-78228800D01*
X107380000Y-77748800D01*
X107710000Y-77988800D01*
G37*
%TO.C,R1*%
X104675000Y-57671864D02*
X104675000Y-57217736D01*
X106145000Y-57671864D02*
X106145000Y-57217736D01*
%TO.C,R2*%
X108992936Y-48454800D02*
X109447064Y-48454800D01*
X108992936Y-49924800D02*
X109447064Y-49924800D01*
%TO.C,C2*%
X108485000Y-61135052D02*
X108485000Y-60612548D01*
X109955000Y-61135052D02*
X109955000Y-60612548D01*
%TD*%
M02*
