%TF.GenerationSoftware,KiCad,Pcbnew,8.0.8*%
%TF.CreationDate,2025-01-27T20:38:42+01:00*%
%TF.ProjectId,GX4000-SRAM-rounded,47583430-3030-42d5-9352-414d2d726f75,rev?*%
%TF.SameCoordinates,Original*%
%TF.FileFunction,Legend,Top*%
%TF.FilePolarity,Positive*%
%FSLAX46Y46*%
G04 Gerber Fmt 4.6, Leading zero omitted, Abs format (unit mm)*
G04 Created by KiCad (PCBNEW 8.0.8) date 2025-01-27 20:38:42*
%MOMM*%
%LPD*%
G01*
G04 APERTURE LIST*
%ADD10C,0.300000*%
%ADD11C,0.150000*%
%ADD12C,0.120000*%
G04 APERTURE END LIST*
D10*
X109622129Y-80739201D02*
X109622129Y-79882058D01*
X109622129Y-80310629D02*
X111122129Y-80310629D01*
X111122129Y-80310629D02*
X110907843Y-80167772D01*
X110907843Y-80167772D02*
X110764986Y-80024915D01*
X110764986Y-80024915D02*
X110693558Y-79882058D01*
X110979272Y-81310629D02*
X111050700Y-81382057D01*
X111050700Y-81382057D02*
X111122129Y-81524915D01*
X111122129Y-81524915D02*
X111122129Y-81882057D01*
X111122129Y-81882057D02*
X111050700Y-82024915D01*
X111050700Y-82024915D02*
X110979272Y-82096343D01*
X110979272Y-82096343D02*
X110836415Y-82167772D01*
X110836415Y-82167772D02*
X110693558Y-82167772D01*
X110693558Y-82167772D02*
X110479272Y-82096343D01*
X110479272Y-82096343D02*
X109622129Y-81239200D01*
X109622129Y-81239200D02*
X109622129Y-82167772D01*
X110479272Y-83024914D02*
X110550700Y-82882057D01*
X110550700Y-82882057D02*
X110622129Y-82810628D01*
X110622129Y-82810628D02*
X110764986Y-82739200D01*
X110764986Y-82739200D02*
X110836415Y-82739200D01*
X110836415Y-82739200D02*
X110979272Y-82810628D01*
X110979272Y-82810628D02*
X111050700Y-82882057D01*
X111050700Y-82882057D02*
X111122129Y-83024914D01*
X111122129Y-83024914D02*
X111122129Y-83310628D01*
X111122129Y-83310628D02*
X111050700Y-83453486D01*
X111050700Y-83453486D02*
X110979272Y-83524914D01*
X110979272Y-83524914D02*
X110836415Y-83596343D01*
X110836415Y-83596343D02*
X110764986Y-83596343D01*
X110764986Y-83596343D02*
X110622129Y-83524914D01*
X110622129Y-83524914D02*
X110550700Y-83453486D01*
X110550700Y-83453486D02*
X110479272Y-83310628D01*
X110479272Y-83310628D02*
X110479272Y-83024914D01*
X110479272Y-83024914D02*
X110407843Y-82882057D01*
X110407843Y-82882057D02*
X110336415Y-82810628D01*
X110336415Y-82810628D02*
X110193558Y-82739200D01*
X110193558Y-82739200D02*
X109907843Y-82739200D01*
X109907843Y-82739200D02*
X109764986Y-82810628D01*
X109764986Y-82810628D02*
X109693558Y-82882057D01*
X109693558Y-82882057D02*
X109622129Y-83024914D01*
X109622129Y-83024914D02*
X109622129Y-83310628D01*
X109622129Y-83310628D02*
X109693558Y-83453486D01*
X109693558Y-83453486D02*
X109764986Y-83524914D01*
X109764986Y-83524914D02*
X109907843Y-83596343D01*
X109907843Y-83596343D02*
X110193558Y-83596343D01*
X110193558Y-83596343D02*
X110336415Y-83524914D01*
X110336415Y-83524914D02*
X110407843Y-83453486D01*
X110407843Y-83453486D02*
X110479272Y-83310628D01*
X109622129Y-84239199D02*
X111122129Y-84239199D01*
X109622129Y-85096342D02*
X110479272Y-84453485D01*
X111122129Y-85096342D02*
X110264986Y-84239199D01*
X107278642Y-79810629D02*
X107207213Y-80024915D01*
X107207213Y-80024915D02*
X107207213Y-80382057D01*
X107207213Y-80382057D02*
X107278642Y-80524915D01*
X107278642Y-80524915D02*
X107350070Y-80596343D01*
X107350070Y-80596343D02*
X107492927Y-80667772D01*
X107492927Y-80667772D02*
X107635784Y-80667772D01*
X107635784Y-80667772D02*
X107778642Y-80596343D01*
X107778642Y-80596343D02*
X107850070Y-80524915D01*
X107850070Y-80524915D02*
X107921499Y-80382057D01*
X107921499Y-80382057D02*
X107992927Y-80096343D01*
X107992927Y-80096343D02*
X108064356Y-79953486D01*
X108064356Y-79953486D02*
X108135784Y-79882057D01*
X108135784Y-79882057D02*
X108278642Y-79810629D01*
X108278642Y-79810629D02*
X108421499Y-79810629D01*
X108421499Y-79810629D02*
X108564356Y-79882057D01*
X108564356Y-79882057D02*
X108635784Y-79953486D01*
X108635784Y-79953486D02*
X108707213Y-80096343D01*
X108707213Y-80096343D02*
X108707213Y-80453486D01*
X108707213Y-80453486D02*
X108635784Y-80667772D01*
X107207213Y-82167771D02*
X107921499Y-81667771D01*
X107207213Y-81310628D02*
X108707213Y-81310628D01*
X108707213Y-81310628D02*
X108707213Y-81882057D01*
X108707213Y-81882057D02*
X108635784Y-82024914D01*
X108635784Y-82024914D02*
X108564356Y-82096343D01*
X108564356Y-82096343D02*
X108421499Y-82167771D01*
X108421499Y-82167771D02*
X108207213Y-82167771D01*
X108207213Y-82167771D02*
X108064356Y-82096343D01*
X108064356Y-82096343D02*
X107992927Y-82024914D01*
X107992927Y-82024914D02*
X107921499Y-81882057D01*
X107921499Y-81882057D02*
X107921499Y-81310628D01*
X107635784Y-82739200D02*
X107635784Y-83453486D01*
X107207213Y-82596343D02*
X108707213Y-83096343D01*
X108707213Y-83096343D02*
X107207213Y-83596343D01*
X107207213Y-84096342D02*
X108707213Y-84096342D01*
X108707213Y-84096342D02*
X107635784Y-84596342D01*
X107635784Y-84596342D02*
X108707213Y-85096342D01*
X108707213Y-85096342D02*
X107207213Y-85096342D01*
X109970242Y-91055430D02*
X110041671Y-90912573D01*
X110041671Y-90912573D02*
X110041671Y-90698287D01*
X110041671Y-90698287D02*
X109970242Y-90484001D01*
X109970242Y-90484001D02*
X109827385Y-90341144D01*
X109827385Y-90341144D02*
X109684528Y-90269715D01*
X109684528Y-90269715D02*
X109398814Y-90198287D01*
X109398814Y-90198287D02*
X109184528Y-90198287D01*
X109184528Y-90198287D02*
X108898814Y-90269715D01*
X108898814Y-90269715D02*
X108755957Y-90341144D01*
X108755957Y-90341144D02*
X108613100Y-90484001D01*
X108613100Y-90484001D02*
X108541671Y-90698287D01*
X108541671Y-90698287D02*
X108541671Y-90841144D01*
X108541671Y-90841144D02*
X108613100Y-91055430D01*
X108613100Y-91055430D02*
X108684528Y-91126858D01*
X108684528Y-91126858D02*
X109184528Y-91126858D01*
X109184528Y-91126858D02*
X109184528Y-90841144D01*
X110041671Y-91626858D02*
X108541671Y-92626858D01*
X110041671Y-92626858D02*
X108541671Y-91626858D01*
X109541671Y-93841144D02*
X108541671Y-93841144D01*
X110113100Y-93484001D02*
X109041671Y-93126858D01*
X109041671Y-93126858D02*
X109041671Y-94055429D01*
X110041671Y-94912572D02*
X110041671Y-95055429D01*
X110041671Y-95055429D02*
X109970242Y-95198286D01*
X109970242Y-95198286D02*
X109898814Y-95269715D01*
X109898814Y-95269715D02*
X109755957Y-95341143D01*
X109755957Y-95341143D02*
X109470242Y-95412572D01*
X109470242Y-95412572D02*
X109113100Y-95412572D01*
X109113100Y-95412572D02*
X108827385Y-95341143D01*
X108827385Y-95341143D02*
X108684528Y-95269715D01*
X108684528Y-95269715D02*
X108613100Y-95198286D01*
X108613100Y-95198286D02*
X108541671Y-95055429D01*
X108541671Y-95055429D02*
X108541671Y-94912572D01*
X108541671Y-94912572D02*
X108613100Y-94769715D01*
X108613100Y-94769715D02*
X108684528Y-94698286D01*
X108684528Y-94698286D02*
X108827385Y-94626857D01*
X108827385Y-94626857D02*
X109113100Y-94555429D01*
X109113100Y-94555429D02*
X109470242Y-94555429D01*
X109470242Y-94555429D02*
X109755957Y-94626857D01*
X109755957Y-94626857D02*
X109898814Y-94698286D01*
X109898814Y-94698286D02*
X109970242Y-94769715D01*
X109970242Y-94769715D02*
X110041671Y-94912572D01*
X110041671Y-96341143D02*
X110041671Y-96484000D01*
X110041671Y-96484000D02*
X109970242Y-96626857D01*
X109970242Y-96626857D02*
X109898814Y-96698286D01*
X109898814Y-96698286D02*
X109755957Y-96769714D01*
X109755957Y-96769714D02*
X109470242Y-96841143D01*
X109470242Y-96841143D02*
X109113100Y-96841143D01*
X109113100Y-96841143D02*
X108827385Y-96769714D01*
X108827385Y-96769714D02*
X108684528Y-96698286D01*
X108684528Y-96698286D02*
X108613100Y-96626857D01*
X108613100Y-96626857D02*
X108541671Y-96484000D01*
X108541671Y-96484000D02*
X108541671Y-96341143D01*
X108541671Y-96341143D02*
X108613100Y-96198286D01*
X108613100Y-96198286D02*
X108684528Y-96126857D01*
X108684528Y-96126857D02*
X108827385Y-96055428D01*
X108827385Y-96055428D02*
X109113100Y-95984000D01*
X109113100Y-95984000D02*
X109470242Y-95984000D01*
X109470242Y-95984000D02*
X109755957Y-96055428D01*
X109755957Y-96055428D02*
X109898814Y-96126857D01*
X109898814Y-96126857D02*
X109970242Y-96198286D01*
X109970242Y-96198286D02*
X110041671Y-96341143D01*
X110041671Y-97769714D02*
X110041671Y-97912571D01*
X110041671Y-97912571D02*
X109970242Y-98055428D01*
X109970242Y-98055428D02*
X109898814Y-98126857D01*
X109898814Y-98126857D02*
X109755957Y-98198285D01*
X109755957Y-98198285D02*
X109470242Y-98269714D01*
X109470242Y-98269714D02*
X109113100Y-98269714D01*
X109113100Y-98269714D02*
X108827385Y-98198285D01*
X108827385Y-98198285D02*
X108684528Y-98126857D01*
X108684528Y-98126857D02*
X108613100Y-98055428D01*
X108613100Y-98055428D02*
X108541671Y-97912571D01*
X108541671Y-97912571D02*
X108541671Y-97769714D01*
X108541671Y-97769714D02*
X108613100Y-97626857D01*
X108613100Y-97626857D02*
X108684528Y-97555428D01*
X108684528Y-97555428D02*
X108827385Y-97483999D01*
X108827385Y-97483999D02*
X109113100Y-97412571D01*
X109113100Y-97412571D02*
X109470242Y-97412571D01*
X109470242Y-97412571D02*
X109755957Y-97483999D01*
X109755957Y-97483999D02*
X109898814Y-97555428D01*
X109898814Y-97555428D02*
X109970242Y-97626857D01*
X109970242Y-97626857D02*
X110041671Y-97769714D01*
D11*
X108458095Y-74806619D02*
X108458095Y-75616142D01*
X108458095Y-75616142D02*
X108505714Y-75711380D01*
X108505714Y-75711380D02*
X108553333Y-75759000D01*
X108553333Y-75759000D02*
X108648571Y-75806619D01*
X108648571Y-75806619D02*
X108839047Y-75806619D01*
X108839047Y-75806619D02*
X108934285Y-75759000D01*
X108934285Y-75759000D02*
X108981904Y-75711380D01*
X108981904Y-75711380D02*
X109029523Y-75616142D01*
X109029523Y-75616142D02*
X109029523Y-74806619D01*
X110029523Y-75806619D02*
X109458095Y-75806619D01*
X109743809Y-75806619D02*
X109743809Y-74806619D01*
X109743809Y-74806619D02*
X109648571Y-74949476D01*
X109648571Y-74949476D02*
X109553333Y-75044714D01*
X109553333Y-75044714D02*
X109458095Y-75092333D01*
X107767619Y-88532019D02*
X107767619Y-87532019D01*
X108815237Y-88436780D02*
X108767618Y-88484400D01*
X108767618Y-88484400D02*
X108624761Y-88532019D01*
X108624761Y-88532019D02*
X108529523Y-88532019D01*
X108529523Y-88532019D02*
X108386666Y-88484400D01*
X108386666Y-88484400D02*
X108291428Y-88389161D01*
X108291428Y-88389161D02*
X108243809Y-88293923D01*
X108243809Y-88293923D02*
X108196190Y-88103447D01*
X108196190Y-88103447D02*
X108196190Y-87960590D01*
X108196190Y-87960590D02*
X108243809Y-87770114D01*
X108243809Y-87770114D02*
X108291428Y-87674876D01*
X108291428Y-87674876D02*
X108386666Y-87579638D01*
X108386666Y-87579638D02*
X108529523Y-87532019D01*
X108529523Y-87532019D02*
X108624761Y-87532019D01*
X108624761Y-87532019D02*
X108767618Y-87579638D01*
X108767618Y-87579638D02*
X108815237Y-87627257D01*
X109767618Y-88532019D02*
X109196190Y-88532019D01*
X109481904Y-88532019D02*
X109481904Y-87532019D01*
X109481904Y-87532019D02*
X109386666Y-87674876D01*
X109386666Y-87674876D02*
X109291428Y-87770114D01*
X109291428Y-87770114D02*
X109196190Y-87817733D01*
X110386666Y-87532019D02*
X110481904Y-87532019D01*
X110481904Y-87532019D02*
X110577142Y-87579638D01*
X110577142Y-87579638D02*
X110624761Y-87627257D01*
X110624761Y-87627257D02*
X110672380Y-87722495D01*
X110672380Y-87722495D02*
X110719999Y-87912971D01*
X110719999Y-87912971D02*
X110719999Y-88151066D01*
X110719999Y-88151066D02*
X110672380Y-88341542D01*
X110672380Y-88341542D02*
X110624761Y-88436780D01*
X110624761Y-88436780D02*
X110577142Y-88484400D01*
X110577142Y-88484400D02*
X110481904Y-88532019D01*
X110481904Y-88532019D02*
X110386666Y-88532019D01*
X110386666Y-88532019D02*
X110291428Y-88484400D01*
X110291428Y-88484400D02*
X110243809Y-88436780D01*
X110243809Y-88436780D02*
X110196190Y-88341542D01*
X110196190Y-88341542D02*
X110148571Y-88151066D01*
X110148571Y-88151066D02*
X110148571Y-87912971D01*
X110148571Y-87912971D02*
X110196190Y-87722495D01*
X110196190Y-87722495D02*
X110243809Y-87627257D01*
X110243809Y-87627257D02*
X110291428Y-87579638D01*
X110291428Y-87579638D02*
X110386666Y-87532019D01*
X108148571Y-53762380D02*
X108100952Y-53810000D01*
X108100952Y-53810000D02*
X107958095Y-53857619D01*
X107958095Y-53857619D02*
X107862857Y-53857619D01*
X107862857Y-53857619D02*
X107720000Y-53810000D01*
X107720000Y-53810000D02*
X107624762Y-53714761D01*
X107624762Y-53714761D02*
X107577143Y-53619523D01*
X107577143Y-53619523D02*
X107529524Y-53429047D01*
X107529524Y-53429047D02*
X107529524Y-53286190D01*
X107529524Y-53286190D02*
X107577143Y-53095714D01*
X107577143Y-53095714D02*
X107624762Y-53000476D01*
X107624762Y-53000476D02*
X107720000Y-52905238D01*
X107720000Y-52905238D02*
X107862857Y-52857619D01*
X107862857Y-52857619D02*
X107958095Y-52857619D01*
X107958095Y-52857619D02*
X108100952Y-52905238D01*
X108100952Y-52905238D02*
X108148571Y-52952857D01*
X108529524Y-53571904D02*
X109005714Y-53571904D01*
X108434286Y-53857619D02*
X108767619Y-52857619D01*
X108767619Y-52857619D02*
X109100952Y-53857619D01*
X109386667Y-53810000D02*
X109529524Y-53857619D01*
X109529524Y-53857619D02*
X109767619Y-53857619D01*
X109767619Y-53857619D02*
X109862857Y-53810000D01*
X109862857Y-53810000D02*
X109910476Y-53762380D01*
X109910476Y-53762380D02*
X109958095Y-53667142D01*
X109958095Y-53667142D02*
X109958095Y-53571904D01*
X109958095Y-53571904D02*
X109910476Y-53476666D01*
X109910476Y-53476666D02*
X109862857Y-53429047D01*
X109862857Y-53429047D02*
X109767619Y-53381428D01*
X109767619Y-53381428D02*
X109577143Y-53333809D01*
X109577143Y-53333809D02*
X109481905Y-53286190D01*
X109481905Y-53286190D02*
X109434286Y-53238571D01*
X109434286Y-53238571D02*
X109386667Y-53143333D01*
X109386667Y-53143333D02*
X109386667Y-53048095D01*
X109386667Y-53048095D02*
X109434286Y-52952857D01*
X109434286Y-52952857D02*
X109481905Y-52905238D01*
X109481905Y-52905238D02*
X109577143Y-52857619D01*
X109577143Y-52857619D02*
X109815238Y-52857619D01*
X109815238Y-52857619D02*
X109958095Y-52905238D01*
X110910476Y-53857619D02*
X110339048Y-53857619D01*
X110624762Y-53857619D02*
X110624762Y-52857619D01*
X110624762Y-52857619D02*
X110529524Y-53000476D01*
X110529524Y-53000476D02*
X110434286Y-53095714D01*
X110434286Y-53095714D02*
X110339048Y-53143333D01*
X107767619Y-57604819D02*
X107767619Y-56604819D01*
X108815237Y-57509580D02*
X108767618Y-57557200D01*
X108767618Y-57557200D02*
X108624761Y-57604819D01*
X108624761Y-57604819D02*
X108529523Y-57604819D01*
X108529523Y-57604819D02*
X108386666Y-57557200D01*
X108386666Y-57557200D02*
X108291428Y-57461961D01*
X108291428Y-57461961D02*
X108243809Y-57366723D01*
X108243809Y-57366723D02*
X108196190Y-57176247D01*
X108196190Y-57176247D02*
X108196190Y-57033390D01*
X108196190Y-57033390D02*
X108243809Y-56842914D01*
X108243809Y-56842914D02*
X108291428Y-56747676D01*
X108291428Y-56747676D02*
X108386666Y-56652438D01*
X108386666Y-56652438D02*
X108529523Y-56604819D01*
X108529523Y-56604819D02*
X108624761Y-56604819D01*
X108624761Y-56604819D02*
X108767618Y-56652438D01*
X108767618Y-56652438D02*
X108815237Y-56700057D01*
X109767618Y-57604819D02*
X109196190Y-57604819D01*
X109481904Y-57604819D02*
X109481904Y-56604819D01*
X109481904Y-56604819D02*
X109386666Y-56747676D01*
X109386666Y-56747676D02*
X109291428Y-56842914D01*
X109291428Y-56842914D02*
X109196190Y-56890533D01*
X110719999Y-57604819D02*
X110148571Y-57604819D01*
X110434285Y-57604819D02*
X110434285Y-56604819D01*
X110434285Y-56604819D02*
X110339047Y-56747676D01*
X110339047Y-56747676D02*
X110243809Y-56842914D01*
X110243809Y-56842914D02*
X110148571Y-56890533D01*
D12*
%TO.C,U1*%
X105060000Y-67223800D02*
X105060000Y-61323800D01*
X105060000Y-67223800D02*
X105060000Y-73123800D01*
X113380000Y-67223800D02*
X113380000Y-61323800D01*
X113380000Y-67223800D02*
X113380000Y-73123800D01*
X105710000Y-75013800D02*
X105230000Y-75013800D01*
X105470000Y-74683800D01*
X105710000Y-75013800D01*
G36*
X105710000Y-75013800D02*
G01*
X105230000Y-75013800D01*
X105470000Y-74683800D01*
X105710000Y-75013800D01*
G37*
%TO.C,IC10*%
X106955000Y-76911200D02*
X106955000Y-99263200D01*
X106955000Y-99263200D02*
X111455000Y-99263200D01*
X108205000Y-76911200D02*
X106955000Y-76911200D01*
X111455000Y-76911200D02*
X110205000Y-76911200D01*
X111455000Y-99263200D02*
X111455000Y-76911200D01*
X110205000Y-76927200D02*
G75*
G02*
X108205000Y-76927200I-1000000J0D01*
G01*
%TO.C,CAS1*%
X108270000Y-50652800D02*
X108270000Y-52552800D01*
X108270000Y-52552800D02*
X110120000Y-52552800D01*
X110120000Y-50652800D02*
X108270000Y-50652800D01*
X110120000Y-50702800D02*
X110120000Y-50652800D01*
X110120000Y-52552800D02*
X110120000Y-50702800D01*
%TO.C,IC11*%
X106955000Y-48056800D02*
X106955000Y-59867800D01*
X108205000Y-48056800D02*
X106955000Y-48056800D01*
X111455000Y-48056800D02*
X110205000Y-48056800D01*
X111455000Y-59867800D02*
X111455000Y-48056800D01*
X110205000Y-48072800D02*
G75*
G02*
X108205000Y-48072800I-1000000J0D01*
G01*
%TD*%
M02*
