%TF.GenerationSoftware,KiCad,Pcbnew,(6.99.0-4380-g9b6f7d5db7)*%
%TF.CreationDate,2023-01-24T18:27:43+01:00*%
%TF.ProjectId,GX4000-SRAM-rounded-Kicad7,47583430-3030-42d5-9352-414d2d726f75,rev?*%
%TF.SameCoordinates,Original*%
%TF.FileFunction,Legend,Top*%
%TF.FilePolarity,Positive*%
%FSLAX46Y46*%
G04 Gerber Fmt 4.6, Leading zero omitted, Abs format (unit mm)*
G04 Created by KiCad (PCBNEW (6.99.0-4380-g9b6f7d5db7)) date 2023-01-24 18:27:43*
%MOMM*%
%LPD*%
G01*
G04 APERTURE LIST*
%ADD10C,0.300000*%
%ADD11C,0.150000*%
%ADD12C,0.120000*%
G04 APERTURE END LIST*
D10*
X106343928Y-66519801D02*
X106343928Y-65662658D01*
X106343928Y-66091229D02*
X107843928Y-66091229D01*
X107843928Y-66091229D02*
X107629642Y-65948372D01*
X107629642Y-65948372D02*
X107486785Y-65805515D01*
X107486785Y-65805515D02*
X107415357Y-65662658D01*
X107701071Y-67091229D02*
X107772500Y-67162657D01*
X107772500Y-67162657D02*
X107843928Y-67305515D01*
X107843928Y-67305515D02*
X107843928Y-67662657D01*
X107843928Y-67662657D02*
X107772500Y-67805515D01*
X107772500Y-67805515D02*
X107701071Y-67876943D01*
X107701071Y-67876943D02*
X107558214Y-67948372D01*
X107558214Y-67948372D02*
X107415357Y-67948372D01*
X107415357Y-67948372D02*
X107201071Y-67876943D01*
X107201071Y-67876943D02*
X106343928Y-67019800D01*
X106343928Y-67019800D02*
X106343928Y-67948372D01*
X107201071Y-68805514D02*
X107272500Y-68662657D01*
X107272500Y-68662657D02*
X107343928Y-68591228D01*
X107343928Y-68591228D02*
X107486785Y-68519800D01*
X107486785Y-68519800D02*
X107558214Y-68519800D01*
X107558214Y-68519800D02*
X107701071Y-68591228D01*
X107701071Y-68591228D02*
X107772500Y-68662657D01*
X107772500Y-68662657D02*
X107843928Y-68805514D01*
X107843928Y-68805514D02*
X107843928Y-69091228D01*
X107843928Y-69091228D02*
X107772500Y-69234086D01*
X107772500Y-69234086D02*
X107701071Y-69305514D01*
X107701071Y-69305514D02*
X107558214Y-69376943D01*
X107558214Y-69376943D02*
X107486785Y-69376943D01*
X107486785Y-69376943D02*
X107343928Y-69305514D01*
X107343928Y-69305514D02*
X107272500Y-69234086D01*
X107272500Y-69234086D02*
X107201071Y-69091228D01*
X107201071Y-69091228D02*
X107201071Y-68805514D01*
X107201071Y-68805514D02*
X107129642Y-68662657D01*
X107129642Y-68662657D02*
X107058214Y-68591228D01*
X107058214Y-68591228D02*
X106915357Y-68519800D01*
X106915357Y-68519800D02*
X106629642Y-68519800D01*
X106629642Y-68519800D02*
X106486785Y-68591228D01*
X106486785Y-68591228D02*
X106415357Y-68662657D01*
X106415357Y-68662657D02*
X106343928Y-68805514D01*
X106343928Y-68805514D02*
X106343928Y-69091228D01*
X106343928Y-69091228D02*
X106415357Y-69234086D01*
X106415357Y-69234086D02*
X106486785Y-69305514D01*
X106486785Y-69305514D02*
X106629642Y-69376943D01*
X106629642Y-69376943D02*
X106915357Y-69376943D01*
X106915357Y-69376943D02*
X107058214Y-69305514D01*
X107058214Y-69305514D02*
X107129642Y-69234086D01*
X107129642Y-69234086D02*
X107201071Y-69091228D01*
X106343928Y-70019799D02*
X107843928Y-70019799D01*
X106343928Y-70876942D02*
X107201071Y-70234085D01*
X107843928Y-70876942D02*
X106986785Y-70019799D01*
X103985357Y-65591229D02*
X103913928Y-65805515D01*
X103913928Y-65805515D02*
X103913928Y-66162657D01*
X103913928Y-66162657D02*
X103985357Y-66305515D01*
X103985357Y-66305515D02*
X104056785Y-66376943D01*
X104056785Y-66376943D02*
X104199642Y-66448372D01*
X104199642Y-66448372D02*
X104342500Y-66448372D01*
X104342500Y-66448372D02*
X104485357Y-66376943D01*
X104485357Y-66376943D02*
X104556785Y-66305515D01*
X104556785Y-66305515D02*
X104628214Y-66162657D01*
X104628214Y-66162657D02*
X104699642Y-65876943D01*
X104699642Y-65876943D02*
X104771071Y-65734086D01*
X104771071Y-65734086D02*
X104842500Y-65662657D01*
X104842500Y-65662657D02*
X104985357Y-65591229D01*
X104985357Y-65591229D02*
X105128214Y-65591229D01*
X105128214Y-65591229D02*
X105271071Y-65662657D01*
X105271071Y-65662657D02*
X105342500Y-65734086D01*
X105342500Y-65734086D02*
X105413928Y-65876943D01*
X105413928Y-65876943D02*
X105413928Y-66234086D01*
X105413928Y-66234086D02*
X105342500Y-66448372D01*
X103913928Y-67948371D02*
X104628214Y-67448371D01*
X103913928Y-67091228D02*
X105413928Y-67091228D01*
X105413928Y-67091228D02*
X105413928Y-67662657D01*
X105413928Y-67662657D02*
X105342500Y-67805514D01*
X105342500Y-67805514D02*
X105271071Y-67876943D01*
X105271071Y-67876943D02*
X105128214Y-67948371D01*
X105128214Y-67948371D02*
X104913928Y-67948371D01*
X104913928Y-67948371D02*
X104771071Y-67876943D01*
X104771071Y-67876943D02*
X104699642Y-67805514D01*
X104699642Y-67805514D02*
X104628214Y-67662657D01*
X104628214Y-67662657D02*
X104628214Y-67091228D01*
X104342500Y-68519800D02*
X104342500Y-69234086D01*
X103913928Y-68376943D02*
X105413928Y-68876943D01*
X105413928Y-68876943D02*
X103913928Y-69376943D01*
X103913928Y-69876942D02*
X105413928Y-69876942D01*
X105413928Y-69876942D02*
X104342500Y-70376942D01*
X104342500Y-70376942D02*
X105413928Y-70876942D01*
X105413928Y-70876942D02*
X103913928Y-70876942D01*
X106637500Y-76541230D02*
X106708928Y-76398373D01*
X106708928Y-76398373D02*
X106708928Y-76184087D01*
X106708928Y-76184087D02*
X106637500Y-75969801D01*
X106637500Y-75969801D02*
X106494642Y-75826944D01*
X106494642Y-75826944D02*
X106351785Y-75755515D01*
X106351785Y-75755515D02*
X106066071Y-75684087D01*
X106066071Y-75684087D02*
X105851785Y-75684087D01*
X105851785Y-75684087D02*
X105566071Y-75755515D01*
X105566071Y-75755515D02*
X105423214Y-75826944D01*
X105423214Y-75826944D02*
X105280357Y-75969801D01*
X105280357Y-75969801D02*
X105208928Y-76184087D01*
X105208928Y-76184087D02*
X105208928Y-76326944D01*
X105208928Y-76326944D02*
X105280357Y-76541230D01*
X105280357Y-76541230D02*
X105351785Y-76612658D01*
X105351785Y-76612658D02*
X105851785Y-76612658D01*
X105851785Y-76612658D02*
X105851785Y-76326944D01*
X106708928Y-77112658D02*
X105208928Y-78112658D01*
X106708928Y-78112658D02*
X105208928Y-77112658D01*
X106208928Y-79326944D02*
X105208928Y-79326944D01*
X106780357Y-78969801D02*
X105708928Y-78612658D01*
X105708928Y-78612658D02*
X105708928Y-79541229D01*
X106708928Y-80398372D02*
X106708928Y-80541229D01*
X106708928Y-80541229D02*
X106637500Y-80684086D01*
X106637500Y-80684086D02*
X106566071Y-80755515D01*
X106566071Y-80755515D02*
X106423214Y-80826943D01*
X106423214Y-80826943D02*
X106137500Y-80898372D01*
X106137500Y-80898372D02*
X105780357Y-80898372D01*
X105780357Y-80898372D02*
X105494642Y-80826943D01*
X105494642Y-80826943D02*
X105351785Y-80755515D01*
X105351785Y-80755515D02*
X105280357Y-80684086D01*
X105280357Y-80684086D02*
X105208928Y-80541229D01*
X105208928Y-80541229D02*
X105208928Y-80398372D01*
X105208928Y-80398372D02*
X105280357Y-80255515D01*
X105280357Y-80255515D02*
X105351785Y-80184086D01*
X105351785Y-80184086D02*
X105494642Y-80112657D01*
X105494642Y-80112657D02*
X105780357Y-80041229D01*
X105780357Y-80041229D02*
X106137500Y-80041229D01*
X106137500Y-80041229D02*
X106423214Y-80112657D01*
X106423214Y-80112657D02*
X106566071Y-80184086D01*
X106566071Y-80184086D02*
X106637500Y-80255515D01*
X106637500Y-80255515D02*
X106708928Y-80398372D01*
X106708928Y-81826943D02*
X106708928Y-81969800D01*
X106708928Y-81969800D02*
X106637500Y-82112657D01*
X106637500Y-82112657D02*
X106566071Y-82184086D01*
X106566071Y-82184086D02*
X106423214Y-82255514D01*
X106423214Y-82255514D02*
X106137500Y-82326943D01*
X106137500Y-82326943D02*
X105780357Y-82326943D01*
X105780357Y-82326943D02*
X105494642Y-82255514D01*
X105494642Y-82255514D02*
X105351785Y-82184086D01*
X105351785Y-82184086D02*
X105280357Y-82112657D01*
X105280357Y-82112657D02*
X105208928Y-81969800D01*
X105208928Y-81969800D02*
X105208928Y-81826943D01*
X105208928Y-81826943D02*
X105280357Y-81684086D01*
X105280357Y-81684086D02*
X105351785Y-81612657D01*
X105351785Y-81612657D02*
X105494642Y-81541228D01*
X105494642Y-81541228D02*
X105780357Y-81469800D01*
X105780357Y-81469800D02*
X106137500Y-81469800D01*
X106137500Y-81469800D02*
X106423214Y-81541228D01*
X106423214Y-81541228D02*
X106566071Y-81612657D01*
X106566071Y-81612657D02*
X106637500Y-81684086D01*
X106637500Y-81684086D02*
X106708928Y-81826943D01*
X106708928Y-83255514D02*
X106708928Y-83398371D01*
X106708928Y-83398371D02*
X106637500Y-83541228D01*
X106637500Y-83541228D02*
X106566071Y-83612657D01*
X106566071Y-83612657D02*
X106423214Y-83684085D01*
X106423214Y-83684085D02*
X106137500Y-83755514D01*
X106137500Y-83755514D02*
X105780357Y-83755514D01*
X105780357Y-83755514D02*
X105494642Y-83684085D01*
X105494642Y-83684085D02*
X105351785Y-83612657D01*
X105351785Y-83612657D02*
X105280357Y-83541228D01*
X105280357Y-83541228D02*
X105208928Y-83398371D01*
X105208928Y-83398371D02*
X105208928Y-83255514D01*
X105208928Y-83255514D02*
X105280357Y-83112657D01*
X105280357Y-83112657D02*
X105351785Y-83041228D01*
X105351785Y-83041228D02*
X105494642Y-82969799D01*
X105494642Y-82969799D02*
X105780357Y-82898371D01*
X105780357Y-82898371D02*
X106137500Y-82898371D01*
X106137500Y-82898371D02*
X106423214Y-82969799D01*
X106423214Y-82969799D02*
X106566071Y-83041228D01*
X106566071Y-83041228D02*
X106637500Y-83112657D01*
X106637500Y-83112657D02*
X106708928Y-83255514D01*
D11*
%TO.C,IC10*%
X104436899Y-74218940D02*
X104436899Y-73218940D01*
X105484517Y-74123702D02*
X105436898Y-74171321D01*
X105436898Y-74171321D02*
X105294041Y-74218940D01*
X105294041Y-74218940D02*
X105198803Y-74218940D01*
X105198803Y-74218940D02*
X105055946Y-74171321D01*
X105055946Y-74171321D02*
X104960708Y-74076083D01*
X104960708Y-74076083D02*
X104913089Y-73980845D01*
X104913089Y-73980845D02*
X104865470Y-73790369D01*
X104865470Y-73790369D02*
X104865470Y-73647512D01*
X104865470Y-73647512D02*
X104913089Y-73457036D01*
X104913089Y-73457036D02*
X104960708Y-73361798D01*
X104960708Y-73361798D02*
X105055946Y-73266560D01*
X105055946Y-73266560D02*
X105198803Y-73218940D01*
X105198803Y-73218940D02*
X105294041Y-73218940D01*
X105294041Y-73218940D02*
X105436898Y-73266560D01*
X105436898Y-73266560D02*
X105484517Y-73314179D01*
X106436898Y-74218940D02*
X105865470Y-74218940D01*
X106151184Y-74218940D02*
X106151184Y-73218940D01*
X106151184Y-73218940D02*
X106055946Y-73361798D01*
X106055946Y-73361798D02*
X105960708Y-73457036D01*
X105960708Y-73457036D02*
X105865470Y-73504655D01*
X107055946Y-73218940D02*
X107151184Y-73218940D01*
X107151184Y-73218940D02*
X107246422Y-73266560D01*
X107246422Y-73266560D02*
X107294041Y-73314179D01*
X107294041Y-73314179D02*
X107341660Y-73409417D01*
X107341660Y-73409417D02*
X107389279Y-73599893D01*
X107389279Y-73599893D02*
X107389279Y-73837988D01*
X107389279Y-73837988D02*
X107341660Y-74028464D01*
X107341660Y-74028464D02*
X107294041Y-74123702D01*
X107294041Y-74123702D02*
X107246422Y-74171321D01*
X107246422Y-74171321D02*
X107151184Y-74218940D01*
X107151184Y-74218940D02*
X107055946Y-74218940D01*
X107055946Y-74218940D02*
X106960708Y-74171321D01*
X106960708Y-74171321D02*
X106913089Y-74123702D01*
X106913089Y-74123702D02*
X106865470Y-74028464D01*
X106865470Y-74028464D02*
X106817851Y-73837988D01*
X106817851Y-73837988D02*
X106817851Y-73599893D01*
X106817851Y-73599893D02*
X106865470Y-73409417D01*
X106865470Y-73409417D02*
X106913089Y-73314179D01*
X106913089Y-73314179D02*
X106960708Y-73266560D01*
X106960708Y-73266560D02*
X107055946Y-73218940D01*
%TO.C,IC11*%
X104436899Y-43291740D02*
X104436899Y-42291740D01*
X105484517Y-43196502D02*
X105436898Y-43244121D01*
X105436898Y-43244121D02*
X105294041Y-43291740D01*
X105294041Y-43291740D02*
X105198803Y-43291740D01*
X105198803Y-43291740D02*
X105055946Y-43244121D01*
X105055946Y-43244121D02*
X104960708Y-43148883D01*
X104960708Y-43148883D02*
X104913089Y-43053645D01*
X104913089Y-43053645D02*
X104865470Y-42863169D01*
X104865470Y-42863169D02*
X104865470Y-42720312D01*
X104865470Y-42720312D02*
X104913089Y-42529836D01*
X104913089Y-42529836D02*
X104960708Y-42434598D01*
X104960708Y-42434598D02*
X105055946Y-42339360D01*
X105055946Y-42339360D02*
X105198803Y-42291740D01*
X105198803Y-42291740D02*
X105294041Y-42291740D01*
X105294041Y-42291740D02*
X105436898Y-42339360D01*
X105436898Y-42339360D02*
X105484517Y-42386979D01*
X106436898Y-43291740D02*
X105865470Y-43291740D01*
X106151184Y-43291740D02*
X106151184Y-42291740D01*
X106151184Y-42291740D02*
X106055946Y-42434598D01*
X106055946Y-42434598D02*
X105960708Y-42529836D01*
X105960708Y-42529836D02*
X105865470Y-42577455D01*
X107389279Y-43291740D02*
X106817851Y-43291740D01*
X107103565Y-43291740D02*
X107103565Y-42291740D01*
X107103565Y-42291740D02*
X107008327Y-42434598D01*
X107008327Y-42434598D02*
X106913089Y-42529836D01*
X106913089Y-42529836D02*
X106817851Y-42577455D01*
%TO.C,U1*%
X105127375Y-60493540D02*
X105127375Y-61303064D01*
X105127375Y-61303064D02*
X105174994Y-61398302D01*
X105174994Y-61398302D02*
X105222613Y-61445921D01*
X105222613Y-61445921D02*
X105317851Y-61493540D01*
X105317851Y-61493540D02*
X105508327Y-61493540D01*
X105508327Y-61493540D02*
X105603565Y-61445921D01*
X105603565Y-61445921D02*
X105651184Y-61398302D01*
X105651184Y-61398302D02*
X105698803Y-61303064D01*
X105698803Y-61303064D02*
X105698803Y-60493540D01*
X106698803Y-61493540D02*
X106127375Y-61493540D01*
X106413089Y-61493540D02*
X106413089Y-60493540D01*
X106413089Y-60493540D02*
X106317851Y-60636398D01*
X106317851Y-60636398D02*
X106222613Y-60731636D01*
X106222613Y-60731636D02*
X106127375Y-60779255D01*
%TO.C,CAS1*%
X104817851Y-39449302D02*
X104770232Y-39496921D01*
X104770232Y-39496921D02*
X104627375Y-39544540D01*
X104627375Y-39544540D02*
X104532137Y-39544540D01*
X104532137Y-39544540D02*
X104389280Y-39496921D01*
X104389280Y-39496921D02*
X104294042Y-39401683D01*
X104294042Y-39401683D02*
X104246423Y-39306445D01*
X104246423Y-39306445D02*
X104198804Y-39115969D01*
X104198804Y-39115969D02*
X104198804Y-38973112D01*
X104198804Y-38973112D02*
X104246423Y-38782636D01*
X104246423Y-38782636D02*
X104294042Y-38687398D01*
X104294042Y-38687398D02*
X104389280Y-38592160D01*
X104389280Y-38592160D02*
X104532137Y-38544540D01*
X104532137Y-38544540D02*
X104627375Y-38544540D01*
X104627375Y-38544540D02*
X104770232Y-38592160D01*
X104770232Y-38592160D02*
X104817851Y-38639779D01*
X105198804Y-39258826D02*
X105674994Y-39258826D01*
X105103566Y-39544540D02*
X105436899Y-38544540D01*
X105436899Y-38544540D02*
X105770232Y-39544540D01*
X106055947Y-39496921D02*
X106198804Y-39544540D01*
X106198804Y-39544540D02*
X106436899Y-39544540D01*
X106436899Y-39544540D02*
X106532137Y-39496921D01*
X106532137Y-39496921D02*
X106579756Y-39449302D01*
X106579756Y-39449302D02*
X106627375Y-39354064D01*
X106627375Y-39354064D02*
X106627375Y-39258826D01*
X106627375Y-39258826D02*
X106579756Y-39163588D01*
X106579756Y-39163588D02*
X106532137Y-39115969D01*
X106532137Y-39115969D02*
X106436899Y-39068350D01*
X106436899Y-39068350D02*
X106246423Y-39020731D01*
X106246423Y-39020731D02*
X106151185Y-38973112D01*
X106151185Y-38973112D02*
X106103566Y-38925493D01*
X106103566Y-38925493D02*
X106055947Y-38830255D01*
X106055947Y-38830255D02*
X106055947Y-38735017D01*
X106055947Y-38735017D02*
X106103566Y-38639779D01*
X106103566Y-38639779D02*
X106151185Y-38592160D01*
X106151185Y-38592160D02*
X106246423Y-38544540D01*
X106246423Y-38544540D02*
X106484518Y-38544540D01*
X106484518Y-38544540D02*
X106627375Y-38592160D01*
X107579756Y-39544540D02*
X107008328Y-39544540D01*
X107294042Y-39544540D02*
X107294042Y-38544540D01*
X107294042Y-38544540D02*
X107198804Y-38687398D01*
X107198804Y-38687398D02*
X107103566Y-38782636D01*
X107103566Y-38782636D02*
X107008328Y-38830255D01*
D12*
%TO.C,IC10*%
X103624280Y-62685560D02*
X103624280Y-85037560D01*
X103624280Y-85037560D02*
X108124280Y-85037560D01*
X104874280Y-62685560D02*
X103624280Y-62685560D01*
X108124280Y-62685560D02*
X106874280Y-62685560D01*
X108124280Y-85037560D02*
X108124280Y-62685560D01*
X104874280Y-62701560D02*
G75*
G03*
X106874280Y-62701560I1000000J0D01*
G01*
%TO.C,IC11*%
X103624280Y-33831160D02*
X103624280Y-45642160D01*
X104874280Y-33831160D02*
X103624280Y-33831160D01*
X108124280Y-33831160D02*
X106874280Y-33831160D01*
X108124280Y-45642160D02*
X108124280Y-33831160D01*
X104874280Y-33847160D02*
G75*
G03*
X106874280Y-33847160I1000000J0D01*
G01*
%TO.C,U1*%
X101729280Y-52998160D02*
X101729280Y-60198160D01*
X101729280Y-52998160D02*
X101729280Y-47098160D01*
X110049280Y-52998160D02*
X110049280Y-58898160D01*
X110049280Y-52998160D02*
X110049280Y-47098160D01*
%TO.C,CAS1*%
X104939280Y-36427160D02*
X104939280Y-38327160D01*
X104939280Y-38327160D02*
X106789280Y-38327160D01*
X106789280Y-36427160D02*
X104939280Y-36427160D01*
X106789280Y-36477160D02*
X106789280Y-36427160D01*
X106789280Y-38327160D02*
X106789280Y-36477160D01*
%TD*%
M02*
