%TF.GenerationSoftware,KiCad,Pcbnew,(6.99.0-4380-g9b6f7d5db7)*%
%TF.CreationDate,2023-01-24T18:27:43+01:00*%
%TF.ProjectId,GX4000-SRAM-rounded-Kicad7,47583430-3030-42d5-9352-414d2d726f75,rev?*%
%TF.SameCoordinates,Original*%
%TF.FileFunction,Copper,L3,Inr*%
%TF.FilePolarity,Positive*%
%FSLAX46Y46*%
G04 Gerber Fmt 4.6, Leading zero omitted, Abs format (unit mm)*
G04 Created by KiCad (PCBNEW (6.99.0-4380-g9b6f7d5db7)) date 2023-01-24 18:27:43*
%MOMM*%
%LPD*%
G01*
G04 APERTURE LIST*
%TA.AperFunction,ComponentPad*%
%ADD10C,1.600000*%
%TD*%
%TA.AperFunction,ViaPad*%
%ADD11C,0.450000*%
%TD*%
%TA.AperFunction,Conductor*%
%ADD12C,0.250000*%
%TD*%
G04 APERTURE END LIST*
D10*
%TO.N,/~{OE}*%
%TO.C,IC10*%
X102064280Y-63701560D03*
%TO.N,/D0*%
X102064280Y-66241560D03*
%TO.N,/D1*%
X102064280Y-68781560D03*
%TO.N,/~{WE}*%
X102064280Y-71321560D03*
%TO.N,/~{RAS}*%
X102064280Y-73861560D03*
%TO.N,/MA6*%
X102064280Y-76401560D03*
%TO.N,/MA5*%
X102064280Y-78941560D03*
%TO.N,/MA4*%
X102064280Y-81481560D03*
%TO.N,VCC*%
X102064280Y-84021560D03*
%TO.N,/MA7*%
X109684280Y-84021560D03*
%TO.N,/MA3*%
X109684280Y-81481560D03*
%TO.N,/MA2*%
X109684280Y-78941560D03*
%TO.N,/MA1*%
X109684280Y-76401560D03*
%TO.N,/MA0*%
X109684280Y-73861560D03*
%TO.N,/D2*%
X109684280Y-71321560D03*
%TO.N,/~{CAS0}*%
X109684280Y-68781560D03*
%TO.N,/D3*%
X109684280Y-66241560D03*
%TO.N,GND*%
X109684280Y-63701560D03*
%TD*%
%TO.N,/~{OE}*%
%TO.C,IC11*%
X102064280Y-34847160D03*
%TO.N,/D4*%
X102064280Y-37387160D03*
%TO.N,/D5*%
X102064280Y-39927160D03*
%TO.N,/D6*%
X109684280Y-42467160D03*
%TO.N,/~{CAS0}*%
X109684280Y-39927160D03*
%TO.N,/D7*%
X109684280Y-37387160D03*
%TO.N,GND*%
X109684280Y-34847160D03*
%TD*%
%TO.N,Net-(CAS1-Pad1)*%
%TO.C,CAS1*%
X105889280Y-37377160D03*
%TD*%
D11*
%TO.N,VCC*%
X104564780Y-58342160D03*
X105889280Y-57951560D03*
%TO.N,GND*%
X107359280Y-77984160D03*
X108719280Y-72564160D03*
X107159280Y-84580360D03*
X106264780Y-45078160D03*
X101359280Y-62224160D03*
X102892080Y-43473160D03*
X101291880Y-45886160D03*
X107667280Y-40425160D03*
X110207280Y-62101360D03*
X110419280Y-49374160D03*
X104365280Y-57316160D03*
X104619280Y-84580360D03*
X103654080Y-34897960D03*
X109445280Y-60704360D03*
X104469280Y-47874360D03*
X108214280Y-61720360D03*
X107540280Y-52566360D03*
X102649280Y-49434360D03*
X101679280Y-41390360D03*
X104370000Y-56049800D03*
X109809280Y-44474160D03*
X106133780Y-72159760D03*
X101317280Y-55919160D03*
X105019280Y-50624360D03*
X107809280Y-82384160D03*
%TO.N,/~{OE}*%
X102053880Y-45352760D03*
%TO.N,/D0*%
X104365280Y-49188160D03*
%TO.N,/D1*%
X103857280Y-48553160D03*
%TO.N,/~{RAS}*%
X106117880Y-70143160D03*
%TO.N,/MA5*%
X105381280Y-77661560D03*
X104238280Y-53973160D03*
%TO.N,/MA3*%
X105381280Y-79541160D03*
X104238280Y-50723160D03*
%TO.N,/MA2*%
X104238280Y-51373160D03*
X102564359Y-47758432D03*
%TO.N,/MA1*%
X104619280Y-75121560D03*
X104238280Y-52023160D03*
%TO.N,/MA0*%
X104873280Y-73826160D03*
X104238280Y-52673160D03*
%TO.N,/D2*%
X107413780Y-45251160D03*
%TO.N,/D3*%
X108429280Y-44870160D03*
%TO.N,/~{WE}*%
X106143280Y-68781560D03*
%TO.N,/MA6*%
X107286280Y-76366160D03*
X104238280Y-54623160D03*
%TO.N,/MA4*%
X107286280Y-80811160D03*
X104238280Y-53323160D03*
%TO.N,/MA7*%
X104238280Y-55284160D03*
%TO.N,/D6*%
X104064780Y-44484360D03*
%TO.N,/D7*%
X103929120Y-43172720D03*
%TO.N,/A7*%
X107540280Y-55273160D03*
%TO.N,/A6*%
X107540280Y-54623160D03*
%TO.N,/A5*%
X107540280Y-53973160D03*
%TO.N,/A4*%
X107540280Y-53323160D03*
%TO.N,/A3*%
X109896455Y-50723160D03*
%TO.N,/A2*%
X109914421Y-51373160D03*
%TO.N,/A1*%
X109913780Y-52023160D03*
%TO.N,/A0*%
X109913780Y-52673160D03*
%TO.N,/~{CAS0}*%
X106564780Y-61511560D03*
%TO.N,Net-(U1-Pad30)*%
X108213780Y-65571160D03*
X107550000Y-51679800D03*
%TO.N,Net-(U3-Pad1)*%
X108213780Y-60622660D03*
X106839280Y-43854160D03*
%TD*%
D12*
%TO.N,GND*%
X109445280Y-60704360D02*
X109684280Y-60943360D01*
%TO.N,/~{OE}*%
X102064280Y-34847160D02*
X103199940Y-35982820D01*
X102155511Y-43302058D02*
X102155511Y-45263769D01*
X102069280Y-45350000D02*
X101989780Y-45429500D01*
X103199940Y-41869900D02*
X102578620Y-42491220D01*
X103639280Y-37043480D02*
X103639280Y-40809240D01*
X101989780Y-45429500D02*
X101989780Y-63627060D01*
X102155511Y-45263769D02*
X102069280Y-45350000D01*
X101989780Y-63627060D02*
X102064280Y-63701560D01*
X102578625Y-42491225D02*
G75*
G03*
X102155511Y-43302058I1105275J-1092575D01*
G01*
X103199916Y-41869876D02*
G75*
G03*
X103639280Y-40809240I-1060616J1060676D01*
G01*
X103639299Y-37043480D02*
G75*
G03*
X103199939Y-35982821I-1499999J-20D01*
G01*
%TO.N,/D0*%
X104365280Y-49188160D02*
X104042620Y-49510820D01*
X103603280Y-50571480D02*
X103603280Y-64081240D01*
X103163940Y-65141900D02*
X102064280Y-66241560D01*
X103163916Y-65141876D02*
G75*
G03*
X103603280Y-64081240I-1060616J1060676D01*
G01*
X104042626Y-49510826D02*
G75*
G03*
X103603280Y-50571480I1060674J-1060674D01*
G01*
%TO.N,/~{RAS}*%
X106117880Y-70143160D02*
X102399480Y-73861560D01*
X102399480Y-73861560D02*
X102064280Y-73861560D01*
%TO.N,/MA5*%
X103479960Y-78941560D02*
X102064280Y-78941560D01*
X105381280Y-77661560D02*
X104540620Y-78502220D01*
X103479960Y-78941543D02*
G75*
G03*
X104540620Y-78502220I40J1499943D01*
G01*
%TO.N,/MA3*%
X108183220Y-79980500D02*
X109684280Y-81481560D01*
X105381280Y-79541160D02*
X107122560Y-79541160D01*
X108183248Y-79980472D02*
G75*
G03*
X107122560Y-79541160I-1060648J-1060728D01*
G01*
%TO.N,/MA1*%
X104619280Y-75121560D02*
X107782960Y-75121560D01*
X108843620Y-75560900D02*
X109684280Y-76401560D01*
X108843648Y-75560872D02*
G75*
G03*
X107782960Y-75121560I-1060648J-1060728D01*
G01*
%TO.N,/MA0*%
X104908680Y-73861560D02*
X109684280Y-73861560D01*
X104873280Y-73826160D02*
X104908680Y-73861560D01*
%TO.N,/D3*%
X108868620Y-65412827D02*
X109684280Y-66228487D01*
X108429280Y-63005288D02*
X108429280Y-64352167D01*
X109684280Y-66228487D02*
X109684280Y-66241560D01*
X108429280Y-44870160D02*
X108659429Y-45100309D01*
X108788780Y-45412590D02*
X108788780Y-62148732D01*
X108613044Y-62572996D02*
X108605016Y-62581024D01*
X108613024Y-62572976D02*
G75*
G03*
X108788780Y-62148732I-424224J424276D01*
G01*
X108429310Y-64352167D02*
G75*
G03*
X108868620Y-65412827I1499990J-33D01*
G01*
X108605018Y-62581026D02*
G75*
G03*
X108429280Y-63005288I424282J-424274D01*
G01*
X108788773Y-45412590D02*
G75*
G03*
X108659429Y-45100309I-441673J-10D01*
G01*
%TO.N,/~{WE}*%
X103188195Y-71321560D02*
X102064280Y-71321560D01*
X106143280Y-68781560D02*
X103896789Y-71028051D01*
X103188195Y-71321540D02*
G75*
G03*
X103896789Y-71028051I5J1002140D01*
G01*
%TO.N,/MA6*%
X107286280Y-76366160D02*
X107250880Y-76401560D01*
X107250880Y-76401560D02*
X102064280Y-76401560D01*
%TO.N,/MA4*%
X102709280Y-80836560D02*
X102064280Y-81481560D01*
X107286280Y-80811160D02*
X107260880Y-80836560D01*
X107260880Y-80836560D02*
X102709280Y-80836560D01*
%TO.N,/D6*%
X104064780Y-44484360D02*
X104064780Y-44477918D01*
X109567280Y-42584160D02*
X109684280Y-42467160D01*
X106577100Y-42584160D02*
X109567280Y-42584160D01*
X104064780Y-44477918D02*
X105601186Y-42941512D01*
X106577100Y-42584142D02*
G75*
G03*
X105601186Y-42941512I3900J-1521858D01*
G01*
%TO.N,/D7*%
X103929120Y-43172720D02*
X109684280Y-37417560D01*
%TO.N,/~{CAS0}*%
X107004120Y-66101400D02*
X109684280Y-68781560D01*
X106564780Y-61511560D02*
X106564780Y-65040740D01*
X106564758Y-65040740D02*
G75*
G03*
X107004120Y-66101400I1500042J40D01*
G01*
%TO.N,Net-(U3-Pad1)*%
X108213780Y-60622660D02*
X108213780Y-60529660D01*
X108213780Y-60529660D02*
X107278620Y-59594500D01*
X106839280Y-58533840D02*
X106839280Y-43854160D01*
X106839258Y-58533840D02*
G75*
G03*
X107278620Y-59594500I1500042J40D01*
G01*
%TD*%
%TA.AperFunction,Conductor*%
%TO.N,GND*%
G36*
X108906510Y-33619862D02*
G01*
X108953003Y-33673518D01*
X108963720Y-33738831D01*
X108961735Y-33758014D01*
X108969924Y-33773594D01*
X110731875Y-35535545D01*
X110765901Y-35597857D01*
X110768780Y-35624640D01*
X110768780Y-36621188D01*
X110748778Y-36689309D01*
X110695122Y-36735802D01*
X110624848Y-36745906D01*
X110560268Y-36716412D01*
X110542230Y-36697120D01*
X110531656Y-36683118D01*
X110501044Y-36642581D01*
X110350321Y-36505179D01*
X110340507Y-36499102D01*
X110217939Y-36423212D01*
X110176917Y-36397812D01*
X110035356Y-36342971D01*
X109979062Y-36299712D01*
X109955091Y-36232885D01*
X109971055Y-36163706D01*
X110021885Y-36114141D01*
X110048261Y-36103774D01*
X110128033Y-36082399D01*
X110138333Y-36078650D01*
X110335791Y-35986574D01*
X110345286Y-35981091D01*
X110397328Y-35944651D01*
X110405704Y-35934172D01*
X110398636Y-35920726D01*
X109697092Y-35219182D01*
X109683148Y-35211568D01*
X109681315Y-35211699D01*
X109674700Y-35215950D01*
X108969203Y-35921447D01*
X108962773Y-35933222D01*
X108972069Y-35945237D01*
X109023274Y-35981091D01*
X109032769Y-35986574D01*
X109230227Y-36078650D01*
X109240527Y-36082399D01*
X109320299Y-36103774D01*
X109380921Y-36140725D01*
X109411943Y-36204586D01*
X109403514Y-36275081D01*
X109358310Y-36329827D01*
X109333205Y-36342971D01*
X109191643Y-36397812D01*
X109150621Y-36423212D01*
X109028054Y-36499102D01*
X109018239Y-36505179D01*
X108867516Y-36642581D01*
X108744607Y-36805339D01*
X108653698Y-36987910D01*
X108652323Y-36992743D01*
X108651444Y-36995215D01*
X108651161Y-36995945D01*
X108650958Y-36996581D01*
X108591472Y-37163838D01*
X108586397Y-37179420D01*
X108586045Y-37180608D01*
X108581883Y-37196148D01*
X108543299Y-37357025D01*
X108543146Y-37357739D01*
X108543138Y-37357772D01*
X108540405Y-37370485D01*
X108540397Y-37370526D01*
X108540260Y-37371162D01*
X108540052Y-37372255D01*
X108537667Y-37386651D01*
X108517595Y-37528794D01*
X108516426Y-37538102D01*
X108516348Y-37538811D01*
X108515449Y-37548361D01*
X108515411Y-37548848D01*
X108515408Y-37548881D01*
X108512513Y-37585843D01*
X108505384Y-37676848D01*
X108505229Y-37678918D01*
X108505210Y-37679184D01*
X108497665Y-37784694D01*
X108496847Y-37792612D01*
X108486904Y-37866050D01*
X108483665Y-37882070D01*
X108469390Y-37934801D01*
X108462190Y-37954635D01*
X108437097Y-38009056D01*
X108426902Y-38027097D01*
X108375459Y-38102828D01*
X108364983Y-38116211D01*
X108262844Y-38229959D01*
X108259841Y-38234871D01*
X108259840Y-38234872D01*
X108259187Y-38235940D01*
X108256553Y-38239285D01*
X108256391Y-38239502D01*
X108256385Y-38239498D01*
X108240782Y-38259310D01*
X103966389Y-42533703D01*
X103946482Y-42549912D01*
X103942587Y-42552471D01*
X103936313Y-42556594D01*
X103912166Y-42580370D01*
X103909930Y-42582518D01*
X103889684Y-42601486D01*
X103885764Y-42605008D01*
X103876313Y-42613146D01*
X103847673Y-42631707D01*
X103839437Y-42635576D01*
X103835314Y-42637423D01*
X103812359Y-42647218D01*
X103810681Y-42647920D01*
X103774363Y-42662801D01*
X103774234Y-42662854D01*
X103774199Y-42662868D01*
X103774067Y-42662922D01*
X103743599Y-42675422D01*
X103743594Y-42675425D01*
X103737875Y-42677771D01*
X103732721Y-42681188D01*
X103726452Y-42685344D01*
X103705050Y-42696734D01*
X103671732Y-42710535D01*
X103671726Y-42710538D01*
X103664103Y-42713696D01*
X103554329Y-42797929D01*
X103470096Y-42907703D01*
X103417146Y-43035537D01*
X103399085Y-43172720D01*
X103400163Y-43180908D01*
X103416068Y-43301719D01*
X103416069Y-43301723D01*
X103417146Y-43309903D01*
X103420304Y-43317527D01*
X103420305Y-43317531D01*
X103457555Y-43407460D01*
X103470096Y-43437738D01*
X103554329Y-43547511D01*
X103664102Y-43631744D01*
X103671731Y-43634904D01*
X103784309Y-43681535D01*
X103784313Y-43681536D01*
X103791937Y-43684694D01*
X103800117Y-43685771D01*
X103800121Y-43685772D01*
X103920932Y-43701677D01*
X103929120Y-43702755D01*
X103929377Y-43702721D01*
X103993942Y-43721679D01*
X104040435Y-43775335D01*
X104050539Y-43845609D01*
X104021045Y-43910189D01*
X104009299Y-43922056D01*
X104004494Y-43926306D01*
X103999037Y-43930865D01*
X103998575Y-43931229D01*
X103998371Y-43931390D01*
X103976031Y-43945479D01*
X103969875Y-43948511D01*
X103965186Y-43950701D01*
X103952484Y-43956320D01*
X103944852Y-43959696D01*
X103942528Y-43960697D01*
X103908207Y-43975062D01*
X103907656Y-43975291D01*
X103872846Y-43989667D01*
X103867712Y-43993084D01*
X103861604Y-43997149D01*
X103840011Y-44008665D01*
X103799763Y-44025336D01*
X103793212Y-44030363D01*
X103793210Y-44030364D01*
X103742970Y-44068915D01*
X103689989Y-44109569D01*
X103605756Y-44219343D01*
X103552806Y-44347177D01*
X103534745Y-44484360D01*
X103535823Y-44492548D01*
X103551728Y-44613359D01*
X103551729Y-44613363D01*
X103552806Y-44621543D01*
X103555964Y-44629167D01*
X103555965Y-44629171D01*
X103588485Y-44707682D01*
X103605756Y-44749378D01*
X103689989Y-44859151D01*
X103799762Y-44943384D01*
X103807391Y-44946544D01*
X103919969Y-44993175D01*
X103919973Y-44993176D01*
X103927597Y-44996334D01*
X103935777Y-44997411D01*
X103935781Y-44997412D01*
X104056592Y-45013317D01*
X104064780Y-45014395D01*
X104072968Y-45013317D01*
X104193779Y-44997412D01*
X104193783Y-44997411D01*
X104201963Y-44996334D01*
X104209587Y-44993176D01*
X104209591Y-44993175D01*
X104322169Y-44946544D01*
X104329798Y-44943384D01*
X104439571Y-44859151D01*
X104523804Y-44749378D01*
X104526964Y-44741749D01*
X104526965Y-44741748D01*
X104541075Y-44707682D01*
X104552306Y-44686519D01*
X104556598Y-44680013D01*
X104556600Y-44680009D01*
X104560009Y-44674841D01*
X104574838Y-44638431D01*
X104575535Y-44636705D01*
X104585112Y-44612775D01*
X104590669Y-44598889D01*
X104591062Y-44597918D01*
X104601481Y-44572498D01*
X104602980Y-44568994D01*
X104607458Y-44558946D01*
X104625885Y-44529412D01*
X104631111Y-44523162D01*
X104635114Y-44518602D01*
X104650485Y-44501922D01*
X104652086Y-44500184D01*
X104654699Y-44497434D01*
X104677609Y-44474053D01*
X104684367Y-44463771D01*
X104700564Y-44443882D01*
X105876362Y-43268083D01*
X105891246Y-43255351D01*
X105991427Y-43182339D01*
X106006294Y-43173016D01*
X106125468Y-43109388D01*
X106141485Y-43102222D01*
X106268352Y-43055764D01*
X106285211Y-43050891D01*
X106417301Y-43022511D01*
X106434673Y-43020029D01*
X106573382Y-43009989D01*
X106582478Y-43009660D01*
X108070769Y-43009660D01*
X108099938Y-43013083D01*
X108107439Y-43014868D01*
X108201863Y-43018387D01*
X108260141Y-43020559D01*
X108271990Y-43021563D01*
X108375538Y-43035276D01*
X108390261Y-43038126D01*
X108460658Y-43056158D01*
X108476241Y-43061250D01*
X108531641Y-43083439D01*
X108544589Y-43089499D01*
X108604110Y-43121590D01*
X108611679Y-43126017D01*
X108688846Y-43174837D01*
X108690538Y-43175927D01*
X108787072Y-43239181D01*
X108790085Y-43241130D01*
X108790370Y-43241312D01*
X108790486Y-43241384D01*
X108790567Y-43241436D01*
X108791367Y-43241937D01*
X108794818Y-43244099D01*
X108909210Y-43314412D01*
X108909535Y-43314605D01*
X108909569Y-43314626D01*
X108916336Y-43318652D01*
X108916773Y-43318912D01*
X108917348Y-43319243D01*
X108917710Y-43319445D01*
X108917774Y-43319481D01*
X108921424Y-43321514D01*
X108924791Y-43323391D01*
X108925114Y-43323565D01*
X108925152Y-43323586D01*
X108994692Y-43361074D01*
X109062507Y-43397633D01*
X109062994Y-43397885D01*
X109067400Y-43400165D01*
X109071641Y-43402360D01*
X109072336Y-43402705D01*
X109072810Y-43402930D01*
X109081327Y-43406977D01*
X109081367Y-43406996D01*
X109081831Y-43407216D01*
X109082359Y-43407456D01*
X109082368Y-43407460D01*
X109240237Y-43479167D01*
X109240261Y-43479178D01*
X109240788Y-43479417D01*
X109241294Y-43479635D01*
X109241346Y-43479658D01*
X109245899Y-43481619D01*
X109245901Y-43481620D01*
X109251826Y-43484172D01*
X109265316Y-43486938D01*
X109285525Y-43492878D01*
X109376391Y-43528080D01*
X109376398Y-43528082D01*
X109381824Y-43530184D01*
X109582304Y-43567660D01*
X109786256Y-43567660D01*
X109986736Y-43530184D01*
X109992159Y-43528083D01*
X109992163Y-43528082D01*
X110072280Y-43497044D01*
X110176917Y-43456508D01*
X110350321Y-43349141D01*
X110501044Y-43211739D01*
X110542230Y-43157200D01*
X110599244Y-43114892D01*
X110670080Y-43110125D01*
X110732249Y-43144412D01*
X110766012Y-43206866D01*
X110768780Y-43233132D01*
X110768780Y-62924080D01*
X110748778Y-62992201D01*
X110731875Y-63013175D01*
X110056302Y-63688748D01*
X110048688Y-63702692D01*
X110048819Y-63704525D01*
X110053070Y-63711140D01*
X110731875Y-64389945D01*
X110765901Y-64452257D01*
X110768780Y-64479040D01*
X110768780Y-65475588D01*
X110748778Y-65543709D01*
X110695122Y-65590202D01*
X110624848Y-65600306D01*
X110560268Y-65570812D01*
X110542230Y-65551520D01*
X110531267Y-65537003D01*
X110501044Y-65496981D01*
X110350321Y-65359579D01*
X110176917Y-65252212D01*
X110035356Y-65197371D01*
X109979062Y-65154112D01*
X109955091Y-65087285D01*
X109971055Y-65018106D01*
X110021885Y-64968541D01*
X110048261Y-64958174D01*
X110128033Y-64936799D01*
X110138333Y-64933050D01*
X110335791Y-64840974D01*
X110345286Y-64835491D01*
X110397328Y-64799051D01*
X110405704Y-64788572D01*
X110398636Y-64775126D01*
X109414165Y-63790655D01*
X109380139Y-63728343D01*
X109385204Y-63657528D01*
X109414165Y-63612465D01*
X110399357Y-62627273D01*
X110405787Y-62615498D01*
X110396491Y-62603483D01*
X110345286Y-62567629D01*
X110335791Y-62562146D01*
X110138333Y-62470070D01*
X110128041Y-62466324D01*
X109917592Y-62409935D01*
X109906799Y-62408032D01*
X109689755Y-62389043D01*
X109678805Y-62389043D01*
X109461761Y-62408032D01*
X109450967Y-62409935D01*
X109361343Y-62433949D01*
X109290366Y-62432259D01*
X109231570Y-62392464D01*
X109203623Y-62327200D01*
X109204285Y-62292523D01*
X109213502Y-62234355D01*
X109213503Y-62234341D01*
X109214276Y-62229463D01*
X109214278Y-62182230D01*
X109214280Y-62182220D01*
X109214280Y-62147496D01*
X109214284Y-62087577D01*
X109214280Y-62087563D01*
X109214280Y-52989743D01*
X109234282Y-52921622D01*
X109287938Y-52875129D01*
X109358212Y-52865025D01*
X109422792Y-52894519D01*
X109449400Y-52926745D01*
X109451595Y-52930547D01*
X109454756Y-52938178D01*
X109538989Y-53047951D01*
X109648762Y-53132184D01*
X109656391Y-53135344D01*
X109768969Y-53181975D01*
X109768973Y-53181976D01*
X109776597Y-53185134D01*
X109784777Y-53186211D01*
X109784781Y-53186212D01*
X109905592Y-53202117D01*
X109913780Y-53203195D01*
X109921968Y-53202117D01*
X110042779Y-53186212D01*
X110042783Y-53186211D01*
X110050963Y-53185134D01*
X110058587Y-53181976D01*
X110058591Y-53181975D01*
X110171169Y-53135344D01*
X110178798Y-53132184D01*
X110288571Y-53047951D01*
X110372804Y-52938178D01*
X110390888Y-52894519D01*
X110422595Y-52817971D01*
X110422596Y-52817967D01*
X110425754Y-52810343D01*
X110426831Y-52802163D01*
X110426832Y-52802159D01*
X110442737Y-52681348D01*
X110443815Y-52673160D01*
X110425754Y-52535977D01*
X110372804Y-52408143D01*
X110372462Y-52407698D01*
X110356563Y-52342168D01*
X110372175Y-52288997D01*
X110372804Y-52288178D01*
X110375965Y-52280547D01*
X110422595Y-52167971D01*
X110422596Y-52167967D01*
X110425754Y-52160343D01*
X110426831Y-52152163D01*
X110426832Y-52152159D01*
X110442737Y-52031348D01*
X110443815Y-52023160D01*
X110425754Y-51885977D01*
X110372804Y-51758143D01*
X110372732Y-51758049D01*
X110356884Y-51692719D01*
X110372560Y-51639331D01*
X110373445Y-51638178D01*
X110416188Y-51534986D01*
X110423236Y-51517971D01*
X110423237Y-51517967D01*
X110426395Y-51510343D01*
X110427472Y-51502163D01*
X110427473Y-51502159D01*
X110443378Y-51381348D01*
X110444456Y-51373160D01*
X110426395Y-51235977D01*
X110373445Y-51108143D01*
X110368416Y-51101588D01*
X110364599Y-51094978D01*
X110347861Y-51025982D01*
X110357309Y-50983760D01*
X110405270Y-50867971D01*
X110405271Y-50867967D01*
X110408429Y-50860343D01*
X110409506Y-50852163D01*
X110409507Y-50852159D01*
X110425412Y-50731348D01*
X110426490Y-50723160D01*
X110408429Y-50585977D01*
X110355479Y-50458143D01*
X110293811Y-50377776D01*
X110276275Y-50354922D01*
X110276272Y-50354919D01*
X110271246Y-50348369D01*
X110161473Y-50264136D01*
X110153844Y-50260976D01*
X110041266Y-50214345D01*
X110041262Y-50214344D01*
X110033638Y-50211186D01*
X110025458Y-50210109D01*
X110025454Y-50210108D01*
X109904643Y-50194203D01*
X109896455Y-50193125D01*
X109759272Y-50211186D01*
X109631438Y-50264136D01*
X109521664Y-50348369D01*
X109442460Y-50451590D01*
X109440242Y-50454480D01*
X109382904Y-50496347D01*
X109312033Y-50500569D01*
X109250131Y-50465805D01*
X109216849Y-50403092D01*
X109214280Y-50377776D01*
X109214280Y-45473765D01*
X109214282Y-45473758D01*
X109214280Y-45412580D01*
X109214280Y-45379102D01*
X109214275Y-45379069D01*
X109214273Y-45379011D01*
X109214273Y-45364160D01*
X109214272Y-45344340D01*
X109192920Y-45209539D01*
X109150747Y-45079737D01*
X109088789Y-44958129D01*
X109008572Y-44847710D01*
X109005075Y-44844213D01*
X109005072Y-44844209D01*
X108996013Y-44835150D01*
X108988067Y-44827203D01*
X108956032Y-44772781D01*
X108952440Y-44760230D01*
X108952359Y-44759956D01*
X108950888Y-44754995D01*
X108950871Y-44754938D01*
X108950794Y-44754679D01*
X108950663Y-44754252D01*
X108948884Y-44748645D01*
X108940212Y-44722203D01*
X108940105Y-44721878D01*
X108940093Y-44721841D01*
X108939987Y-44721519D01*
X108939853Y-44721125D01*
X108937582Y-44714490D01*
X108937486Y-44714209D01*
X108937289Y-44713656D01*
X108937155Y-44713294D01*
X108934778Y-44706874D01*
X108934776Y-44706868D01*
X108934648Y-44706523D01*
X108926587Y-44685561D01*
X108918453Y-44672837D01*
X108908205Y-44653189D01*
X108901361Y-44636665D01*
X108888304Y-44605143D01*
X108834082Y-44534480D01*
X108809100Y-44501922D01*
X108809097Y-44501919D01*
X108804071Y-44495369D01*
X108779054Y-44476172D01*
X108700848Y-44416162D01*
X108694298Y-44411136D01*
X108686669Y-44407976D01*
X108574091Y-44361345D01*
X108574087Y-44361344D01*
X108566463Y-44358186D01*
X108558283Y-44357109D01*
X108558279Y-44357108D01*
X108437468Y-44341203D01*
X108429280Y-44340125D01*
X108292097Y-44358186D01*
X108164263Y-44411136D01*
X108054489Y-44495369D01*
X107970256Y-44605143D01*
X107917306Y-44732977D01*
X107916228Y-44741167D01*
X107914091Y-44749141D01*
X107911569Y-44748465D01*
X107888102Y-44801497D01*
X107828833Y-44840581D01*
X107757841Y-44841418D01*
X107715207Y-44820074D01*
X107685348Y-44797162D01*
X107678798Y-44792136D01*
X107632063Y-44772778D01*
X107558591Y-44742345D01*
X107558587Y-44742344D01*
X107550963Y-44739186D01*
X107542783Y-44738109D01*
X107542779Y-44738108D01*
X107421968Y-44722203D01*
X107413780Y-44721125D01*
X107405592Y-44722203D01*
X107397333Y-44722203D01*
X107397333Y-44720444D01*
X107337082Y-44711051D01*
X107283982Y-44663925D01*
X107264780Y-44597066D01*
X107264780Y-44332354D01*
X107267395Y-44306819D01*
X107268605Y-44300973D01*
X107268605Y-44300969D01*
X107269860Y-44294907D01*
X107270122Y-44260998D01*
X107270185Y-44257870D01*
X107271086Y-44230212D01*
X107271369Y-44224931D01*
X107272298Y-44212491D01*
X107279426Y-44179113D01*
X107282510Y-44170565D01*
X107284118Y-44166346D01*
X107293422Y-44143192D01*
X107294113Y-44141508D01*
X107309274Y-44105299D01*
X107309416Y-44104957D01*
X107309486Y-44104805D01*
X107309481Y-44104803D01*
X107322101Y-44074626D01*
X107322102Y-44074623D01*
X107324487Y-44068921D01*
X107325715Y-44062862D01*
X107325717Y-44062855D01*
X107327210Y-44055489D01*
X107334290Y-44032298D01*
X107348093Y-43998974D01*
X107351254Y-43991343D01*
X107369315Y-43854160D01*
X107351254Y-43716977D01*
X107298304Y-43589143D01*
X107251450Y-43528082D01*
X107219100Y-43485922D01*
X107219097Y-43485919D01*
X107214071Y-43479369D01*
X107184279Y-43456508D01*
X107110848Y-43400162D01*
X107104298Y-43395136D01*
X107040335Y-43368642D01*
X106984091Y-43345345D01*
X106984087Y-43345344D01*
X106976463Y-43342186D01*
X106968283Y-43341109D01*
X106968279Y-43341108D01*
X106847468Y-43325203D01*
X106839280Y-43324125D01*
X106702097Y-43342186D01*
X106574263Y-43395136D01*
X106464489Y-43479369D01*
X106380256Y-43589143D01*
X106327306Y-43716977D01*
X106309245Y-43854160D01*
X106327306Y-43991343D01*
X106330467Y-43998974D01*
X106330468Y-43998977D01*
X106344273Y-44032307D01*
X106351359Y-44055524D01*
X106352829Y-44062786D01*
X106354070Y-44068915D01*
X106356457Y-44074623D01*
X106369230Y-44105167D01*
X106369123Y-44105212D01*
X106369139Y-44105353D01*
X106369283Y-44105293D01*
X106384434Y-44141479D01*
X106385125Y-44143165D01*
X106394440Y-44166348D01*
X106396048Y-44170566D01*
X106399134Y-44179120D01*
X106406261Y-44212492D01*
X106407190Y-44224927D01*
X106407473Y-44230212D01*
X106408374Y-44257870D01*
X106408437Y-44260998D01*
X106408699Y-44294907D01*
X106409930Y-44300911D01*
X106409930Y-44300915D01*
X106411214Y-44307178D01*
X106413780Y-44332476D01*
X106413780Y-57436141D01*
X106393778Y-57504262D01*
X106340122Y-57550755D01*
X106269848Y-57560859D01*
X106211076Y-57536103D01*
X106160852Y-57497564D01*
X106160846Y-57497561D01*
X106154298Y-57492536D01*
X106146669Y-57489376D01*
X106034091Y-57442745D01*
X106034087Y-57442744D01*
X106026463Y-57439586D01*
X106018283Y-57438509D01*
X106018279Y-57438508D01*
X105897468Y-57422603D01*
X105889280Y-57421525D01*
X105752097Y-57439586D01*
X105624263Y-57492536D01*
X105514489Y-57576769D01*
X105430256Y-57686543D01*
X105377306Y-57814377D01*
X105359245Y-57951560D01*
X105360323Y-57959748D01*
X105376228Y-58080559D01*
X105376229Y-58080563D01*
X105377306Y-58088743D01*
X105380464Y-58096367D01*
X105380465Y-58096371D01*
X105422290Y-58197346D01*
X105430256Y-58216578D01*
X105514489Y-58326351D01*
X105624262Y-58410584D01*
X105631891Y-58413744D01*
X105744469Y-58460375D01*
X105744473Y-58460376D01*
X105752097Y-58463534D01*
X105760277Y-58464611D01*
X105760281Y-58464612D01*
X105881092Y-58480517D01*
X105889280Y-58481595D01*
X105897468Y-58480517D01*
X106018279Y-58464612D01*
X106018283Y-58464611D01*
X106026463Y-58463534D01*
X106034087Y-58460376D01*
X106034091Y-58460375D01*
X106146669Y-58413744D01*
X106154298Y-58410584D01*
X106160846Y-58405559D01*
X106160852Y-58405556D01*
X106211076Y-58367017D01*
X106277296Y-58341416D01*
X106346845Y-58355680D01*
X106397641Y-58405281D01*
X106413780Y-58466979D01*
X106413780Y-58472667D01*
X106413778Y-58472674D01*
X106413778Y-58472689D01*
X106413780Y-58533749D01*
X106413769Y-58533851D01*
X106413758Y-58533851D01*
X106413761Y-58660055D01*
X106446713Y-58910303D01*
X106512046Y-59154109D01*
X106608642Y-59387302D01*
X106734849Y-59605891D01*
X106888508Y-59806138D01*
X106891426Y-59809056D01*
X106960491Y-59878119D01*
X107623371Y-60540999D01*
X107638500Y-60560257D01*
X107638545Y-60560223D01*
X107640128Y-60562329D01*
X107641931Y-60564624D01*
X107645480Y-60570461D01*
X107644483Y-60571068D01*
X107665169Y-60619476D01*
X107666859Y-60629739D01*
X107667981Y-60636130D01*
X107668067Y-60636591D01*
X107669177Y-60642245D01*
X107676685Y-60678667D01*
X107679036Y-60689136D01*
X107679228Y-60689926D01*
X107681880Y-60700078D01*
X107693491Y-60741585D01*
X107697011Y-60753264D01*
X107697301Y-60754161D01*
X107701365Y-60765908D01*
X107715091Y-60803119D01*
X107719627Y-60814685D01*
X107726559Y-60825291D01*
X107737494Y-60846002D01*
X107754756Y-60887678D01*
X107838989Y-60997451D01*
X107948762Y-61081684D01*
X107956391Y-61084844D01*
X108068969Y-61131475D01*
X108068973Y-61131476D01*
X108076597Y-61134634D01*
X108084777Y-61135711D01*
X108084781Y-61135712D01*
X108205592Y-61151617D01*
X108213780Y-61152695D01*
X108221968Y-61151617D01*
X108230227Y-61151617D01*
X108230227Y-61153232D01*
X108290975Y-61162702D01*
X108344077Y-61209827D01*
X108363280Y-61276688D01*
X108363280Y-62140447D01*
X108362201Y-62156900D01*
X108359498Y-62177423D01*
X108350984Y-62209191D01*
X108346250Y-62220619D01*
X108329803Y-62249104D01*
X108317052Y-62265720D01*
X108306197Y-62278095D01*
X108268926Y-62315360D01*
X108268915Y-62315379D01*
X108268903Y-62315393D01*
X108247073Y-62337224D01*
X108244161Y-62341232D01*
X108170830Y-62442164D01*
X108152196Y-62467811D01*
X108149949Y-62472222D01*
X108149946Y-62472226D01*
X108099065Y-62572088D01*
X108078916Y-62611632D01*
X108077389Y-62616332D01*
X108077388Y-62616334D01*
X108030561Y-62760445D01*
X108030560Y-62760451D01*
X108029034Y-62765146D01*
X108003781Y-62924572D01*
X108003780Y-63005279D01*
X108003778Y-63066457D01*
X108003780Y-63066464D01*
X108003780Y-64385655D01*
X108003799Y-64385779D01*
X108003809Y-64386030D01*
X108003809Y-64431327D01*
X108003808Y-64478360D01*
X108036748Y-64728607D01*
X108037815Y-64732591D01*
X108037818Y-64732604D01*
X108091854Y-64934289D01*
X108090163Y-65005265D01*
X108050368Y-65064060D01*
X108018365Y-65083306D01*
X108008759Y-65087285D01*
X107948763Y-65112136D01*
X107838989Y-65196369D01*
X107754756Y-65306143D01*
X107701806Y-65433977D01*
X107683745Y-65571160D01*
X107684823Y-65579348D01*
X107700728Y-65700159D01*
X107700729Y-65700163D01*
X107701806Y-65708343D01*
X107704964Y-65715967D01*
X107704965Y-65715971D01*
X107735918Y-65790699D01*
X107754756Y-65836178D01*
X107759782Y-65842728D01*
X107776384Y-65864364D01*
X107838989Y-65945951D01*
X107948762Y-66030184D01*
X107956391Y-66033344D01*
X108068969Y-66079975D01*
X108068973Y-66079976D01*
X108076597Y-66083134D01*
X108084777Y-66084211D01*
X108084781Y-66084212D01*
X108205592Y-66100117D01*
X108213780Y-66101195D01*
X108221968Y-66100117D01*
X108342779Y-66084212D01*
X108342783Y-66084211D01*
X108350963Y-66083134D01*
X108406846Y-66059987D01*
X108477434Y-66052398D01*
X108540921Y-66084177D01*
X108577148Y-66145236D01*
X108580959Y-66181486D01*
X108579521Y-66217056D01*
X108579273Y-66230142D01*
X108579603Y-66231883D01*
X108579603Y-66235758D01*
X108579065Y-66241560D01*
X108579602Y-66247355D01*
X108579602Y-66247358D01*
X108593957Y-66402276D01*
X108597883Y-66444643D01*
X108599475Y-66450239D01*
X108599476Y-66450243D01*
X108605583Y-66471706D01*
X108653698Y-66640810D01*
X108744607Y-66823381D01*
X108867516Y-66986139D01*
X109018239Y-67123541D01*
X109191643Y-67230908D01*
X109296280Y-67271444D01*
X109376397Y-67302482D01*
X109376401Y-67302483D01*
X109381824Y-67304584D01*
X109582304Y-67342060D01*
X109786256Y-67342060D01*
X109986736Y-67304584D01*
X109992159Y-67302483D01*
X109992163Y-67302482D01*
X110072280Y-67271444D01*
X110176917Y-67230908D01*
X110350321Y-67123541D01*
X110501044Y-66986139D01*
X110542230Y-66931600D01*
X110599244Y-66889292D01*
X110670080Y-66884525D01*
X110732249Y-66918812D01*
X110766012Y-66981266D01*
X110768780Y-67007532D01*
X110768780Y-68015588D01*
X110748778Y-68083709D01*
X110695122Y-68130202D01*
X110624848Y-68140306D01*
X110560268Y-68110812D01*
X110542230Y-68091520D01*
X110504556Y-68041632D01*
X110501044Y-68036981D01*
X110350321Y-67899579D01*
X110176917Y-67792212D01*
X110171476Y-67790104D01*
X110114261Y-67767938D01*
X110094884Y-67758451D01*
X110094373Y-67758144D01*
X110082128Y-67750786D01*
X109909338Y-67688744D01*
X109894762Y-67683920D01*
X109893664Y-67683587D01*
X109892959Y-67683392D01*
X109892938Y-67683386D01*
X109884523Y-67681060D01*
X109879112Y-67679564D01*
X109878363Y-67679377D01*
X109878330Y-67679368D01*
X109770096Y-67652303D01*
X109719288Y-67639598D01*
X109718694Y-67639463D01*
X109718646Y-67639452D01*
X109706691Y-67636745D01*
X109705998Y-67636588D01*
X109704984Y-67636382D01*
X109700677Y-67635605D01*
X109692469Y-67634124D01*
X109692443Y-67634120D01*
X109691780Y-67634000D01*
X109663149Y-67629482D01*
X109551357Y-67611841D01*
X109551311Y-67611834D01*
X109550892Y-67611768D01*
X109542293Y-67610536D01*
X109541664Y-67610455D01*
X109541210Y-67610403D01*
X109541169Y-67610398D01*
X109533552Y-67609526D01*
X109533523Y-67609523D01*
X109533122Y-67609477D01*
X109406035Y-67596735D01*
X109405122Y-67596645D01*
X109301034Y-67586525D01*
X109293006Y-67585482D01*
X109243675Y-67577453D01*
X109220627Y-67573701D01*
X109205004Y-67570125D01*
X109151380Y-67554202D01*
X109132440Y-67546871D01*
X109075906Y-67519562D01*
X109058878Y-67509624D01*
X108981119Y-67455665D01*
X108968504Y-67445659D01*
X108854305Y-67342527D01*
X108847994Y-67338650D01*
X108824856Y-67320388D01*
X107348252Y-65843784D01*
X107348250Y-65843781D01*
X107308498Y-65804029D01*
X107301783Y-65796766D01*
X107201925Y-65679851D01*
X107190303Y-65663855D01*
X107112566Y-65537003D01*
X107103590Y-65519387D01*
X107046651Y-65381931D01*
X107040541Y-65363128D01*
X107005806Y-65218460D01*
X107002713Y-65198932D01*
X106990669Y-65045949D01*
X106990280Y-65036060D01*
X106990280Y-61989754D01*
X106992895Y-61964219D01*
X106994105Y-61958373D01*
X106994105Y-61958369D01*
X106995360Y-61952307D01*
X106995622Y-61918398D01*
X106995685Y-61915270D01*
X106996586Y-61887612D01*
X106996869Y-61882331D01*
X106997798Y-61869891D01*
X107004926Y-61836513D01*
X107008010Y-61827965D01*
X107009618Y-61823746D01*
X107018922Y-61800592D01*
X107019613Y-61798908D01*
X107034774Y-61762699D01*
X107034916Y-61762357D01*
X107034986Y-61762205D01*
X107034981Y-61762203D01*
X107047601Y-61732026D01*
X107047602Y-61732023D01*
X107049987Y-61726321D01*
X107051215Y-61720262D01*
X107051217Y-61720255D01*
X107052710Y-61712889D01*
X107059790Y-61689698D01*
X107073593Y-61656374D01*
X107076754Y-61648743D01*
X107094815Y-61511560D01*
X107076754Y-61374377D01*
X107023804Y-61246543D01*
X106981688Y-61191656D01*
X106944600Y-61143322D01*
X106944597Y-61143319D01*
X106939571Y-61136769D01*
X106829798Y-61052536D01*
X106822169Y-61049376D01*
X106709591Y-61002745D01*
X106709587Y-61002744D01*
X106701963Y-60999586D01*
X106693783Y-60998509D01*
X106693779Y-60998508D01*
X106572968Y-60982603D01*
X106564780Y-60981525D01*
X106427597Y-60999586D01*
X106299763Y-61052536D01*
X106189989Y-61136769D01*
X106105756Y-61246543D01*
X106052806Y-61374377D01*
X106034745Y-61511560D01*
X106052806Y-61648743D01*
X106055967Y-61656374D01*
X106055968Y-61656377D01*
X106069773Y-61689707D01*
X106076859Y-61712924D01*
X106078329Y-61720186D01*
X106079570Y-61726315D01*
X106081957Y-61732023D01*
X106094730Y-61762567D01*
X106094623Y-61762612D01*
X106094639Y-61762753D01*
X106094783Y-61762693D01*
X106109934Y-61798879D01*
X106110625Y-61800565D01*
X106119940Y-61823748D01*
X106121548Y-61827966D01*
X106124634Y-61836520D01*
X106131761Y-61869892D01*
X106132690Y-61882327D01*
X106132973Y-61887612D01*
X106133874Y-61915270D01*
X106133937Y-61918398D01*
X106134199Y-61952307D01*
X106135430Y-61958311D01*
X106135430Y-61958315D01*
X106136714Y-61964578D01*
X106139280Y-61989876D01*
X106139280Y-64979567D01*
X106139278Y-64979574D01*
X106139278Y-64979589D01*
X106139280Y-65040649D01*
X106139269Y-65040751D01*
X106139258Y-65040751D01*
X106139261Y-65166955D01*
X106172213Y-65417203D01*
X106237546Y-65661009D01*
X106260056Y-65715350D01*
X106323432Y-65868346D01*
X106334142Y-65894202D01*
X106460349Y-66112791D01*
X106614008Y-66313038D01*
X106616936Y-66315965D01*
X106616936Y-66315966D01*
X106703248Y-66402276D01*
X108223349Y-67922377D01*
X108238198Y-67941438D01*
X108238396Y-67941292D01*
X108242073Y-67946269D01*
X108245247Y-67951585D01*
X108335744Y-68051793D01*
X108348379Y-68065784D01*
X108358385Y-68078399D01*
X108412344Y-68156158D01*
X108422282Y-68173186D01*
X108449591Y-68229720D01*
X108456922Y-68248660D01*
X108472845Y-68302284D01*
X108476421Y-68317907D01*
X108477993Y-68327562D01*
X108487816Y-68387910D01*
X108488200Y-68390272D01*
X108489245Y-68398317D01*
X108499362Y-68502368D01*
X108499452Y-68503278D01*
X108512195Y-68630386D01*
X108513196Y-68639109D01*
X108513281Y-68639766D01*
X108514490Y-68648187D01*
X108514541Y-68648510D01*
X108514547Y-68648550D01*
X108516982Y-68663980D01*
X108536720Y-68789061D01*
X108536839Y-68789721D01*
X108536847Y-68789768D01*
X108538551Y-68799211D01*
X108539102Y-68802264D01*
X108539308Y-68803278D01*
X108542318Y-68816567D01*
X108542476Y-68817198D01*
X108542486Y-68817241D01*
X108562120Y-68895758D01*
X108582281Y-68976382D01*
X108586344Y-68991065D01*
X108586683Y-68992181D01*
X108591467Y-69006626D01*
X108651079Y-69172651D01*
X108651103Y-69172724D01*
X108651174Y-69172916D01*
X108652510Y-69176636D01*
X108653698Y-69180810D01*
X108655241Y-69183910D01*
X108658621Y-69192675D01*
X108662193Y-69198173D01*
X108665177Y-69204018D01*
X108665147Y-69204034D01*
X108666048Y-69205612D01*
X108744607Y-69363381D01*
X108867516Y-69526139D01*
X109018239Y-69663541D01*
X109023190Y-69666607D01*
X109023192Y-69666608D01*
X109051501Y-69684136D01*
X109191643Y-69770908D01*
X109296280Y-69811444D01*
X109376397Y-69842482D01*
X109376401Y-69842483D01*
X109381824Y-69844584D01*
X109582304Y-69882060D01*
X109786256Y-69882060D01*
X109986736Y-69844584D01*
X109992159Y-69842483D01*
X109992163Y-69842482D01*
X110072280Y-69811444D01*
X110176917Y-69770908D01*
X110317059Y-69684136D01*
X110345368Y-69666608D01*
X110345370Y-69666607D01*
X110350321Y-69663541D01*
X110501044Y-69526139D01*
X110542230Y-69471600D01*
X110599244Y-69429292D01*
X110670080Y-69424525D01*
X110732249Y-69458812D01*
X110766012Y-69521266D01*
X110768780Y-69547532D01*
X110768780Y-70555588D01*
X110748778Y-70623709D01*
X110695122Y-70670202D01*
X110624848Y-70680306D01*
X110560268Y-70650812D01*
X110542230Y-70631520D01*
X110504556Y-70581632D01*
X110501044Y-70576981D01*
X110350321Y-70439579D01*
X110176917Y-70332212D01*
X110043027Y-70280343D01*
X109992163Y-70260638D01*
X109992159Y-70260637D01*
X109986736Y-70258536D01*
X109786256Y-70221060D01*
X109582304Y-70221060D01*
X109381824Y-70258536D01*
X109376401Y-70260637D01*
X109376397Y-70260638D01*
X109325533Y-70280343D01*
X109191643Y-70332212D01*
X109018239Y-70439579D01*
X108867516Y-70576981D01*
X108744607Y-70739739D01*
X108653698Y-70922310D01*
X108597883Y-71118477D01*
X108579065Y-71321560D01*
X108597883Y-71524643D01*
X108653698Y-71720810D01*
X108744607Y-71903381D01*
X108867516Y-72066139D01*
X109018239Y-72203541D01*
X109191643Y-72310908D01*
X109296280Y-72351444D01*
X109376397Y-72382482D01*
X109376401Y-72382483D01*
X109381824Y-72384584D01*
X109582304Y-72422060D01*
X109786256Y-72422060D01*
X109986736Y-72384584D01*
X109992159Y-72382483D01*
X109992163Y-72382482D01*
X110072280Y-72351444D01*
X110176917Y-72310908D01*
X110350321Y-72203541D01*
X110501044Y-72066139D01*
X110542230Y-72011600D01*
X110599244Y-71969292D01*
X110670080Y-71964525D01*
X110732249Y-71998812D01*
X110766012Y-72061266D01*
X110768780Y-72087532D01*
X110768780Y-73095588D01*
X110748778Y-73163709D01*
X110695122Y-73210202D01*
X110624848Y-73220306D01*
X110560268Y-73190812D01*
X110542230Y-73171520D01*
X110513763Y-73133824D01*
X110501044Y-73116981D01*
X110350321Y-72979579D01*
X110176917Y-72872212D01*
X110072280Y-72831676D01*
X109992163Y-72800638D01*
X109992159Y-72800637D01*
X109986736Y-72798536D01*
X109786256Y-72761060D01*
X109582304Y-72761060D01*
X109381824Y-72798536D01*
X109376401Y-72800637D01*
X109376397Y-72800638D01*
X109268520Y-72842430D01*
X109253490Y-72847195D01*
X109236731Y-72851373D01*
X109207890Y-72864975D01*
X109200743Y-72868345D01*
X109199805Y-72868747D01*
X109199475Y-72868912D01*
X109199124Y-72869082D01*
X109199107Y-72869096D01*
X109198321Y-72869487D01*
X109196689Y-72870257D01*
X109191643Y-72872212D01*
X109190004Y-72873227D01*
X109188525Y-72873490D01*
X109188763Y-72873995D01*
X109071379Y-72929354D01*
X109071342Y-72929372D01*
X109070689Y-72929680D01*
X109063628Y-72933226D01*
X109057900Y-72936102D01*
X109057871Y-72936117D01*
X109057196Y-72936456D01*
X109056167Y-72937005D01*
X109055492Y-72937387D01*
X109055465Y-72937402D01*
X109044886Y-72943392D01*
X109042809Y-72944568D01*
X109042125Y-72944978D01*
X109042117Y-72944983D01*
X108989562Y-72976512D01*
X108901548Y-73029313D01*
X108890143Y-73036503D01*
X108889286Y-73037070D01*
X108888704Y-73037474D01*
X108888692Y-73037482D01*
X108878678Y-73044431D01*
X108878657Y-73044446D01*
X108878141Y-73044804D01*
X108877607Y-73045192D01*
X108877602Y-73045196D01*
X108763154Y-73128449D01*
X108763110Y-73128482D01*
X108762789Y-73128715D01*
X108762454Y-73128966D01*
X108762439Y-73128977D01*
X108756329Y-73133553D01*
X108756282Y-73133589D01*
X108755968Y-73133824D01*
X108755444Y-73134228D01*
X108748585Y-73139675D01*
X108700656Y-73178869D01*
X108649733Y-73220511D01*
X108649023Y-73221093D01*
X108568280Y-73287527D01*
X108561848Y-73292480D01*
X108502331Y-73335334D01*
X108488768Y-73343845D01*
X108439585Y-73370506D01*
X108421017Y-73378711D01*
X108391566Y-73388977D01*
X108361731Y-73399377D01*
X108342661Y-73404390D01*
X108249524Y-73421219D01*
X108233528Y-73423064D01*
X108085633Y-73430595D01*
X108085629Y-73430596D01*
X108079848Y-73430890D01*
X108072642Y-73432612D01*
X108043368Y-73436060D01*
X105350071Y-73436060D01*
X105322179Y-73432934D01*
X105319096Y-73432234D01*
X105319092Y-73432233D01*
X105313059Y-73430864D01*
X105294863Y-73430375D01*
X105238009Y-73415086D01*
X105223586Y-73407235D01*
X105221770Y-73406255D01*
X105189513Y-73388977D01*
X105184800Y-73386505D01*
X105184502Y-73386352D01*
X105180523Y-73384346D01*
X105180420Y-73384295D01*
X105180360Y-73384265D01*
X105142526Y-73365533D01*
X105142278Y-73365410D01*
X105139168Y-73363912D01*
X105136512Y-73362633D01*
X105136462Y-73362609D01*
X105136206Y-73362486D01*
X105135738Y-73362267D01*
X105135554Y-73362184D01*
X105135512Y-73362164D01*
X105129907Y-73359617D01*
X105129898Y-73359613D01*
X105129590Y-73359473D01*
X105129264Y-73359329D01*
X105129219Y-73359309D01*
X105099431Y-73346164D01*
X105099426Y-73346162D01*
X105093626Y-73343603D01*
X105078986Y-73340412D01*
X105057609Y-73333714D01*
X105018091Y-73317345D01*
X105018088Y-73317344D01*
X105010463Y-73314186D01*
X105002283Y-73313109D01*
X105002279Y-73313108D01*
X104881468Y-73297203D01*
X104873280Y-73296125D01*
X104736097Y-73314186D01*
X104608263Y-73367136D01*
X104498489Y-73451369D01*
X104414256Y-73561143D01*
X104361306Y-73688977D01*
X104343245Y-73826160D01*
X104344323Y-73834348D01*
X104360228Y-73955159D01*
X104360229Y-73955163D01*
X104361306Y-73963343D01*
X104364464Y-73970967D01*
X104364465Y-73970971D01*
X104411096Y-74083549D01*
X104414256Y-74091178D01*
X104419282Y-74097728D01*
X104424356Y-74104341D01*
X104498489Y-74200951D01*
X104608262Y-74285184D01*
X104615891Y-74288344D01*
X104728469Y-74334975D01*
X104728473Y-74334976D01*
X104736097Y-74338134D01*
X104744277Y-74339211D01*
X104744281Y-74339212D01*
X104861955Y-74354704D01*
X104873280Y-74356195D01*
X104881469Y-74355117D01*
X104883591Y-74355117D01*
X104889275Y-74355311D01*
X104894372Y-74356168D01*
X104900557Y-74355984D01*
X104900561Y-74355984D01*
X104942241Y-74354742D01*
X104942243Y-74354742D01*
X104942744Y-74354727D01*
X104943197Y-74354706D01*
X104943242Y-74354704D01*
X104948256Y-74354468D01*
X104953190Y-74354236D01*
X104953970Y-74354186D01*
X104956927Y-74353946D01*
X104963961Y-74353374D01*
X104963980Y-74353372D01*
X104964414Y-74353337D01*
X104996037Y-74350218D01*
X105012828Y-74348562D01*
X105012851Y-74348559D01*
X105013353Y-74348510D01*
X105013867Y-74348450D01*
X105013884Y-74348448D01*
X105023810Y-74347286D01*
X105023809Y-74347286D01*
X105024391Y-74347218D01*
X105025247Y-74347102D01*
X105031225Y-74346177D01*
X105036058Y-74345429D01*
X105036068Y-74345427D01*
X105036626Y-74345341D01*
X105037196Y-74345242D01*
X105037231Y-74345236D01*
X105076830Y-74338341D01*
X105076847Y-74338338D01*
X105077392Y-74338243D01*
X105087296Y-74336350D01*
X105088040Y-74336195D01*
X105098036Y-74333936D01*
X105098493Y-74333825D01*
X105098530Y-74333816D01*
X105133213Y-74325367D01*
X105133525Y-74325291D01*
X105133774Y-74325227D01*
X105133820Y-74325216D01*
X105136663Y-74324490D01*
X105140017Y-74323634D01*
X105140474Y-74323512D01*
X105140748Y-74323436D01*
X105140793Y-74323424D01*
X105142930Y-74322832D01*
X105145916Y-74322006D01*
X105146173Y-74321932D01*
X105146284Y-74321901D01*
X105203963Y-74305356D01*
X105208866Y-74304055D01*
X105222504Y-74300733D01*
X105230704Y-74299023D01*
X105242362Y-74296993D01*
X105251595Y-74295735D01*
X105270766Y-74293844D01*
X105279364Y-74293293D01*
X105313974Y-74292263D01*
X105323884Y-74290061D01*
X105351217Y-74287060D01*
X108043711Y-74287060D01*
X108067690Y-74290039D01*
X108067727Y-74289796D01*
X108073848Y-74290715D01*
X108079850Y-74292230D01*
X108086031Y-74292545D01*
X108086033Y-74292545D01*
X108233527Y-74300055D01*
X108249524Y-74301900D01*
X108342661Y-74318729D01*
X108361731Y-74323742D01*
X108421017Y-74344408D01*
X108439585Y-74352613D01*
X108488768Y-74379274D01*
X108502324Y-74387780D01*
X108561871Y-74430656D01*
X108568289Y-74435599D01*
X108648996Y-74502003D01*
X108649706Y-74502586D01*
X108748585Y-74583444D01*
X108755444Y-74588891D01*
X108755968Y-74589295D01*
X108756282Y-74589530D01*
X108756329Y-74589566D01*
X108758945Y-74591525D01*
X108762789Y-74594404D01*
X108763110Y-74594637D01*
X108763154Y-74594670D01*
X108862735Y-74667108D01*
X108878141Y-74678315D01*
X108878657Y-74678673D01*
X108878678Y-74678688D01*
X108888692Y-74685637D01*
X108889286Y-74686049D01*
X108890143Y-74686616D01*
X108901549Y-74693806D01*
X108902160Y-74694173D01*
X108902164Y-74694175D01*
X108905306Y-74696060D01*
X109042811Y-74778551D01*
X109056059Y-74786056D01*
X109057087Y-74786605D01*
X109070688Y-74793439D01*
X109071408Y-74793779D01*
X109071413Y-74793781D01*
X109188765Y-74849126D01*
X109188601Y-74849473D01*
X109189793Y-74849763D01*
X109191643Y-74850908D01*
X109196686Y-74852862D01*
X109198320Y-74853632D01*
X109199110Y-74854026D01*
X109199123Y-74854038D01*
X109199494Y-74854218D01*
X109199794Y-74854367D01*
X109200722Y-74854766D01*
X109236730Y-74871747D01*
X109237417Y-74872052D01*
X109237433Y-74872059D01*
X109243708Y-74874842D01*
X109243711Y-74874843D01*
X109249700Y-74877499D01*
X109256105Y-74878860D01*
X109256116Y-74878864D01*
X109263259Y-74880382D01*
X109282577Y-74886136D01*
X109376397Y-74922482D01*
X109376401Y-74922483D01*
X109381824Y-74924584D01*
X109582304Y-74962060D01*
X109786256Y-74962060D01*
X109986736Y-74924584D01*
X109992159Y-74922483D01*
X109992163Y-74922482D01*
X110100835Y-74880382D01*
X110176917Y-74850908D01*
X110350321Y-74743541D01*
X110501044Y-74606139D01*
X110542230Y-74551600D01*
X110599244Y-74509292D01*
X110670080Y-74504525D01*
X110732249Y-74538812D01*
X110766012Y-74601266D01*
X110768780Y-74627532D01*
X110768780Y-75635588D01*
X110748778Y-75703709D01*
X110695122Y-75750202D01*
X110624848Y-75760306D01*
X110560268Y-75730812D01*
X110542230Y-75711520D01*
X110513763Y-75673824D01*
X110501044Y-75656981D01*
X110350321Y-75519579D01*
X110312807Y-75496351D01*
X110281561Y-75477005D01*
X110176917Y-75412212D01*
X110072280Y-75371676D01*
X109992163Y-75340638D01*
X109992159Y-75340637D01*
X109986736Y-75338536D01*
X109786256Y-75301060D01*
X109698835Y-75301060D01*
X109678524Y-75299412D01*
X109672154Y-75298372D01*
X109661662Y-75296658D01*
X109655479Y-75296871D01*
X109655477Y-75296871D01*
X109568054Y-75299885D01*
X109568036Y-75299886D01*
X109567594Y-75299901D01*
X109558313Y-75300363D01*
X109557605Y-75300409D01*
X109557199Y-75300442D01*
X109557151Y-75300445D01*
X109548891Y-75301107D01*
X109548836Y-75301112D01*
X109548398Y-75301147D01*
X109484325Y-75307260D01*
X109456932Y-75309873D01*
X109456880Y-75309878D01*
X109456599Y-75309905D01*
X109456324Y-75309934D01*
X109456301Y-75309936D01*
X109451396Y-75310448D01*
X109451375Y-75310450D01*
X109451234Y-75310465D01*
X109450819Y-75310512D01*
X109448088Y-75310846D01*
X109445796Y-75311126D01*
X109445753Y-75311131D01*
X109445356Y-75311180D01*
X109402996Y-75316752D01*
X109365487Y-75321686D01*
X109364929Y-75321758D01*
X109306734Y-75329149D01*
X109299191Y-75329877D01*
X109288146Y-75330609D01*
X109218852Y-75315156D01*
X109207928Y-75308366D01*
X109205545Y-75306711D01*
X109192825Y-75296596D01*
X109149730Y-75257536D01*
X109145427Y-75253636D01*
X109139049Y-75249706D01*
X109116060Y-75231537D01*
X109058180Y-75173661D01*
X109055268Y-75170749D01*
X108855012Y-75017099D01*
X108745713Y-74954000D01*
X108639996Y-74892969D01*
X108639992Y-74892967D01*
X108636415Y-74890902D01*
X108403216Y-74794316D01*
X108206987Y-74741743D01*
X108163381Y-74730060D01*
X108163378Y-74730059D01*
X108159405Y-74728995D01*
X108155328Y-74728458D01*
X108155326Y-74728458D01*
X107913241Y-74696594D01*
X107913240Y-74696594D01*
X107909153Y-74696056D01*
X107905026Y-74696056D01*
X107782949Y-74696060D01*
X105097480Y-74696060D01*
X105071943Y-74693445D01*
X105060028Y-74690979D01*
X105053841Y-74690931D01*
X105053839Y-74690931D01*
X105026118Y-74690717D01*
X105022990Y-74690654D01*
X104995332Y-74689753D01*
X104990047Y-74689470D01*
X104977612Y-74688541D01*
X104944243Y-74681415D01*
X104935669Y-74678322D01*
X104931452Y-74676715D01*
X104929142Y-74675787D01*
X104908365Y-74667439D01*
X104906725Y-74666766D01*
X104870412Y-74651562D01*
X104870292Y-74651512D01*
X104870143Y-74651449D01*
X104839746Y-74638738D01*
X104839744Y-74638737D01*
X104834035Y-74636350D01*
X104827976Y-74635122D01*
X104827969Y-74635120D01*
X104820605Y-74633628D01*
X104797416Y-74626549D01*
X104756463Y-74609586D01*
X104748283Y-74608509D01*
X104748279Y-74608508D01*
X104627468Y-74592603D01*
X104619280Y-74591525D01*
X104482097Y-74609586D01*
X104354263Y-74662536D01*
X104244489Y-74746769D01*
X104160256Y-74856543D01*
X104107306Y-74984377D01*
X104089245Y-75121560D01*
X104090323Y-75129748D01*
X104106228Y-75250559D01*
X104106229Y-75250563D01*
X104107306Y-75258743D01*
X104110464Y-75266367D01*
X104110465Y-75266371D01*
X104139914Y-75337467D01*
X104160256Y-75386578D01*
X104244489Y-75496351D01*
X104251035Y-75501374D01*
X104339574Y-75569313D01*
X104354262Y-75580584D01*
X104361891Y-75583744D01*
X104474469Y-75630375D01*
X104474473Y-75630376D01*
X104482097Y-75633534D01*
X104490277Y-75634611D01*
X104490281Y-75634612D01*
X104611092Y-75650517D01*
X104619280Y-75651595D01*
X104756463Y-75633534D01*
X104764097Y-75630372D01*
X104797432Y-75616565D01*
X104820641Y-75609481D01*
X104827967Y-75607997D01*
X104827968Y-75607997D01*
X104834041Y-75606767D01*
X104839752Y-75604379D01*
X104839754Y-75604378D01*
X104869925Y-75591760D01*
X104870017Y-75591722D01*
X104870419Y-75591554D01*
X104906628Y-75576393D01*
X104908285Y-75575713D01*
X104918253Y-75571707D01*
X104931466Y-75566398D01*
X104935685Y-75564790D01*
X104944233Y-75561706D01*
X104977611Y-75554578D01*
X104990051Y-75553649D01*
X104995332Y-75553366D01*
X105022990Y-75552465D01*
X105026118Y-75552402D01*
X105031061Y-75552364D01*
X105060027Y-75552140D01*
X105072294Y-75549626D01*
X105097591Y-75547060D01*
X107721788Y-75547060D01*
X107721794Y-75547062D01*
X107722016Y-75547062D01*
X107778022Y-75547060D01*
X107787900Y-75547448D01*
X107941181Y-75559507D01*
X107960702Y-75562599D01*
X108022706Y-75577482D01*
X108105379Y-75597327D01*
X108124184Y-75603437D01*
X108261638Y-75660368D01*
X108279253Y-75669343D01*
X108406112Y-75747075D01*
X108422110Y-75758697D01*
X108514521Y-75837619D01*
X108533507Y-75857955D01*
X108536356Y-75862707D01*
X108540514Y-75867294D01*
X108540515Y-75867296D01*
X108552144Y-75880126D01*
X108575185Y-75905547D01*
X108579316Y-75910105D01*
X108589431Y-75922825D01*
X108591082Y-75925202D01*
X108613523Y-75992558D01*
X108613329Y-76005426D01*
X108612597Y-76016471D01*
X108611869Y-76024014D01*
X108604478Y-76082209D01*
X108604406Y-76082767D01*
X108593900Y-76162636D01*
X108593232Y-76168099D01*
X108593185Y-76168514D01*
X108592625Y-76173879D01*
X108583867Y-76265678D01*
X108583129Y-76274885D01*
X108583083Y-76275593D01*
X108582621Y-76284874D01*
X108582606Y-76285316D01*
X108582605Y-76285334D01*
X108579819Y-76366160D01*
X108579378Y-76378942D01*
X108579202Y-76391138D01*
X108579574Y-76393069D01*
X108579603Y-76393721D01*
X108579603Y-76395759D01*
X108579065Y-76401560D01*
X108597883Y-76604643D01*
X108599475Y-76610239D01*
X108599476Y-76610243D01*
X108625790Y-76702726D01*
X108653698Y-76800810D01*
X108744607Y-76983381D01*
X108867516Y-77146139D01*
X109018239Y-77283541D01*
X109191643Y-77390908D01*
X109261153Y-77417836D01*
X109376397Y-77462482D01*
X109376401Y-77462483D01*
X109381824Y-77464584D01*
X109582304Y-77502060D01*
X109786256Y-77502060D01*
X109986736Y-77464584D01*
X109992159Y-77462483D01*
X109992163Y-77462482D01*
X110107407Y-77417836D01*
X110176917Y-77390908D01*
X110350321Y-77283541D01*
X110501044Y-77146139D01*
X110542230Y-77091600D01*
X110599244Y-77049292D01*
X110670080Y-77044525D01*
X110732249Y-77078812D01*
X110766012Y-77141266D01*
X110768780Y-77167532D01*
X110768780Y-78175588D01*
X110748778Y-78243709D01*
X110695122Y-78290202D01*
X110624848Y-78300306D01*
X110560268Y-78270812D01*
X110542230Y-78251520D01*
X110517025Y-78218143D01*
X110501044Y-78196981D01*
X110350321Y-78059579D01*
X110312807Y-78036351D01*
X110191113Y-77961002D01*
X110176917Y-77952212D01*
X110072280Y-77911676D01*
X109992163Y-77880638D01*
X109992159Y-77880637D01*
X109986736Y-77878536D01*
X109786256Y-77841060D01*
X109582304Y-77841060D01*
X109381824Y-77878536D01*
X109376401Y-77880637D01*
X109376397Y-77880638D01*
X109296280Y-77911676D01*
X109191643Y-77952212D01*
X109177447Y-77961002D01*
X109055754Y-78036351D01*
X109018239Y-78059579D01*
X108867516Y-78196981D01*
X108744607Y-78359739D01*
X108653698Y-78542310D01*
X108597883Y-78738477D01*
X108579065Y-78941560D01*
X108597883Y-79144643D01*
X108599475Y-79150239D01*
X108599476Y-79150243D01*
X108605136Y-79170136D01*
X108653698Y-79340810D01*
X108744607Y-79523381D01*
X108867516Y-79686139D01*
X109018239Y-79823541D01*
X109191643Y-79930908D01*
X109284932Y-79967048D01*
X109376397Y-80002482D01*
X109376401Y-80002483D01*
X109381824Y-80004584D01*
X109582304Y-80042060D01*
X109786256Y-80042060D01*
X109986736Y-80004584D01*
X109992159Y-80002483D01*
X109992163Y-80002482D01*
X110083628Y-79967048D01*
X110176917Y-79930908D01*
X110350321Y-79823541D01*
X110501044Y-79686139D01*
X110542230Y-79631600D01*
X110599244Y-79589292D01*
X110670080Y-79584525D01*
X110732249Y-79618812D01*
X110766012Y-79681266D01*
X110768780Y-79707532D01*
X110768780Y-80715588D01*
X110748778Y-80783709D01*
X110695122Y-80830202D01*
X110624848Y-80840306D01*
X110560268Y-80810812D01*
X110542230Y-80791520D01*
X110504556Y-80741632D01*
X110501044Y-80736981D01*
X110350321Y-80599579D01*
X110176917Y-80492212D01*
X110171476Y-80490104D01*
X110114261Y-80467938D01*
X110094884Y-80458451D01*
X110094373Y-80458144D01*
X110082128Y-80450786D01*
X109909338Y-80388744D01*
X109894762Y-80383920D01*
X109893664Y-80383587D01*
X109892959Y-80383392D01*
X109892938Y-80383386D01*
X109884523Y-80381060D01*
X109879112Y-80379564D01*
X109878363Y-80379377D01*
X109878330Y-80379368D01*
X109769427Y-80352136D01*
X109719288Y-80339598D01*
X109718694Y-80339463D01*
X109718646Y-80339452D01*
X109706691Y-80336745D01*
X109705998Y-80336588D01*
X109704984Y-80336382D01*
X109700677Y-80335605D01*
X109692469Y-80334124D01*
X109692443Y-80334120D01*
X109691780Y-80334000D01*
X109652756Y-80327842D01*
X109551357Y-80311841D01*
X109551311Y-80311834D01*
X109550892Y-80311768D01*
X109542293Y-80310536D01*
X109541664Y-80310455D01*
X109541210Y-80310403D01*
X109541169Y-80310398D01*
X109533552Y-80309526D01*
X109533523Y-80309523D01*
X109533122Y-80309477D01*
X109406035Y-80296735D01*
X109405122Y-80296645D01*
X109301034Y-80286525D01*
X109293006Y-80285482D01*
X109243675Y-80277453D01*
X109220627Y-80273701D01*
X109205004Y-80270125D01*
X109151380Y-80254202D01*
X109132440Y-80246871D01*
X109075906Y-80219562D01*
X109058878Y-80209624D01*
X108981119Y-80155665D01*
X108968504Y-80145659D01*
X108854305Y-80042527D01*
X108847994Y-80038650D01*
X108824856Y-80020388D01*
X108527355Y-79722887D01*
X108527348Y-79722878D01*
X108527344Y-79722872D01*
X108484218Y-79679750D01*
X108484097Y-79679601D01*
X108484111Y-79679586D01*
X108479667Y-79675142D01*
X108397791Y-79593271D01*
X108397784Y-79593265D01*
X108394868Y-79590349D01*
X108194612Y-79436699D01*
X108018814Y-79335210D01*
X107979596Y-79312569D01*
X107979592Y-79312567D01*
X107976015Y-79310502D01*
X107742816Y-79213916D01*
X107546587Y-79161343D01*
X107502981Y-79149660D01*
X107502978Y-79149659D01*
X107499005Y-79148595D01*
X107494928Y-79148058D01*
X107494926Y-79148058D01*
X107252841Y-79116194D01*
X107252840Y-79116194D01*
X107248753Y-79115656D01*
X107244626Y-79115656D01*
X107122549Y-79115660D01*
X105859480Y-79115660D01*
X105833943Y-79113045D01*
X105822028Y-79110579D01*
X105815841Y-79110531D01*
X105815839Y-79110531D01*
X105788118Y-79110317D01*
X105784990Y-79110254D01*
X105757332Y-79109353D01*
X105752047Y-79109070D01*
X105739612Y-79108141D01*
X105706243Y-79101015D01*
X105697669Y-79097922D01*
X105693452Y-79096315D01*
X105691142Y-79095387D01*
X105670365Y-79087039D01*
X105668725Y-79086366D01*
X105632412Y-79071162D01*
X105632292Y-79071112D01*
X105632143Y-79071049D01*
X105601746Y-79058338D01*
X105601744Y-79058337D01*
X105596035Y-79055950D01*
X105589976Y-79054722D01*
X105589969Y-79054720D01*
X105582605Y-79053228D01*
X105559416Y-79046149D01*
X105518463Y-79029186D01*
X105510283Y-79028109D01*
X105510279Y-79028108D01*
X105389468Y-79012203D01*
X105381280Y-79011125D01*
X105244097Y-79029186D01*
X105116263Y-79082136D01*
X105006489Y-79166369D01*
X104922256Y-79276143D01*
X104869306Y-79403977D01*
X104851245Y-79541160D01*
X104852323Y-79549348D01*
X104868228Y-79670159D01*
X104868229Y-79670163D01*
X104869306Y-79678343D01*
X104872464Y-79685967D01*
X104872465Y-79685971D01*
X104906628Y-79768448D01*
X104922256Y-79806178D01*
X104927282Y-79812728D01*
X104978491Y-79879464D01*
X105006489Y-79915951D01*
X105013035Y-79920974D01*
X105096674Y-79985153D01*
X105116262Y-80000184D01*
X105123891Y-80003344D01*
X105236469Y-80049975D01*
X105236473Y-80049976D01*
X105244097Y-80053134D01*
X105252277Y-80054211D01*
X105252281Y-80054212D01*
X105373092Y-80070117D01*
X105381280Y-80071195D01*
X105518463Y-80053134D01*
X105526097Y-80049972D01*
X105559432Y-80036165D01*
X105582641Y-80029081D01*
X105589967Y-80027597D01*
X105589968Y-80027597D01*
X105596041Y-80026367D01*
X105601752Y-80023979D01*
X105601754Y-80023978D01*
X105631925Y-80011360D01*
X105632017Y-80011322D01*
X105632419Y-80011154D01*
X105668628Y-79995993D01*
X105670285Y-79995313D01*
X105680253Y-79991307D01*
X105693466Y-79985998D01*
X105697685Y-79984390D01*
X105706233Y-79981306D01*
X105739611Y-79974178D01*
X105752051Y-79973249D01*
X105757332Y-79972966D01*
X105784990Y-79972065D01*
X105788118Y-79972002D01*
X105793061Y-79971964D01*
X105822027Y-79971740D01*
X105834294Y-79969226D01*
X105859591Y-79966660D01*
X107061388Y-79966660D01*
X107061394Y-79966662D01*
X107061616Y-79966662D01*
X107117622Y-79966660D01*
X107127500Y-79967048D01*
X107280781Y-79979107D01*
X107300302Y-79982199D01*
X107375229Y-80000184D01*
X107444979Y-80016927D01*
X107463784Y-80023037D01*
X107601238Y-80079968D01*
X107618853Y-80088943D01*
X107745712Y-80166675D01*
X107761708Y-80178295D01*
X107850589Y-80254202D01*
X107878235Y-80277812D01*
X107885503Y-80284531D01*
X108223349Y-80622377D01*
X108238198Y-80641438D01*
X108238396Y-80641292D01*
X108242073Y-80646269D01*
X108245247Y-80651585D01*
X108335744Y-80751793D01*
X108348379Y-80765784D01*
X108358385Y-80778399D01*
X108412344Y-80856158D01*
X108422282Y-80873186D01*
X108449591Y-80929720D01*
X108456922Y-80948660D01*
X108472845Y-81002284D01*
X108476421Y-81017907D01*
X108488200Y-81090272D01*
X108489245Y-81098317D01*
X108499362Y-81202368D01*
X108499452Y-81203278D01*
X108512195Y-81330386D01*
X108513196Y-81339109D01*
X108513281Y-81339766D01*
X108513329Y-81340098D01*
X108513337Y-81340159D01*
X108513494Y-81341247D01*
X108514490Y-81348187D01*
X108536720Y-81489061D01*
X108536839Y-81489721D01*
X108536847Y-81489768D01*
X108538980Y-81501589D01*
X108539102Y-81502264D01*
X108539308Y-81503278D01*
X108542318Y-81516567D01*
X108542476Y-81517198D01*
X108542486Y-81517241D01*
X108546519Y-81533367D01*
X108582281Y-81676382D01*
X108586344Y-81691065D01*
X108586683Y-81692181D01*
X108586919Y-81692893D01*
X108586928Y-81692922D01*
X108591227Y-81705902D01*
X108591467Y-81706626D01*
X108651079Y-81872651D01*
X108651103Y-81872724D01*
X108651174Y-81872916D01*
X108652510Y-81876636D01*
X108653698Y-81880810D01*
X108655241Y-81883910D01*
X108658621Y-81892675D01*
X108662193Y-81898173D01*
X108665177Y-81904018D01*
X108665147Y-81904034D01*
X108666048Y-81905612D01*
X108744607Y-82063381D01*
X108867516Y-82226139D01*
X109018239Y-82363541D01*
X109191643Y-82470908D01*
X109296280Y-82511444D01*
X109376397Y-82542482D01*
X109376401Y-82542483D01*
X109381824Y-82544584D01*
X109582304Y-82582060D01*
X109786256Y-82582060D01*
X109986736Y-82544584D01*
X109992159Y-82542483D01*
X109992163Y-82542482D01*
X110072280Y-82511444D01*
X110176917Y-82470908D01*
X110350321Y-82363541D01*
X110501044Y-82226139D01*
X110542230Y-82171600D01*
X110599244Y-82129292D01*
X110670080Y-82124525D01*
X110732249Y-82158812D01*
X110766012Y-82221266D01*
X110768780Y-82247532D01*
X110768780Y-83255588D01*
X110748778Y-83323709D01*
X110695122Y-83370202D01*
X110624848Y-83380306D01*
X110560268Y-83350812D01*
X110542230Y-83331520D01*
X110504556Y-83281632D01*
X110501044Y-83276981D01*
X110350321Y-83139579D01*
X110176917Y-83032212D01*
X110072280Y-82991676D01*
X109992163Y-82960638D01*
X109992159Y-82960637D01*
X109986736Y-82958536D01*
X109786256Y-82921060D01*
X109582304Y-82921060D01*
X109381824Y-82958536D01*
X109376401Y-82960637D01*
X109376397Y-82960638D01*
X109296280Y-82991676D01*
X109191643Y-83032212D01*
X109018239Y-83139579D01*
X108867516Y-83276981D01*
X108744607Y-83439739D01*
X108653698Y-83622310D01*
X108597883Y-83818477D01*
X108579065Y-84021560D01*
X108597883Y-84224643D01*
X108599475Y-84230239D01*
X108599476Y-84230243D01*
X108625790Y-84322726D01*
X108653698Y-84420810D01*
X108744607Y-84603381D01*
X108867516Y-84766139D01*
X109018239Y-84903541D01*
X109191643Y-85010908D01*
X109228969Y-85025368D01*
X109285264Y-85068628D01*
X109309235Y-85135455D01*
X109293271Y-85204634D01*
X109242441Y-85254199D01*
X109183453Y-85268860D01*
X102565107Y-85268860D01*
X102496986Y-85248858D01*
X102450493Y-85195202D01*
X102440389Y-85124928D01*
X102469883Y-85060348D01*
X102519591Y-85025368D01*
X102556917Y-85010908D01*
X102730321Y-84903541D01*
X102881044Y-84766139D01*
X103003953Y-84603381D01*
X103094862Y-84420810D01*
X103122770Y-84322726D01*
X103149084Y-84230243D01*
X103149085Y-84230239D01*
X103150677Y-84224643D01*
X103169495Y-84021560D01*
X103150677Y-83818477D01*
X103094862Y-83622310D01*
X103003953Y-83439739D01*
X102881044Y-83276981D01*
X102730321Y-83139579D01*
X102556917Y-83032212D01*
X102452280Y-82991676D01*
X102372163Y-82960638D01*
X102372159Y-82960637D01*
X102366736Y-82958536D01*
X102166256Y-82921060D01*
X101962304Y-82921060D01*
X101761824Y-82958536D01*
X101756401Y-82960637D01*
X101756397Y-82960638D01*
X101676280Y-82991676D01*
X101571643Y-83032212D01*
X101398239Y-83139579D01*
X101247516Y-83276981D01*
X101244004Y-83281632D01*
X101236331Y-83291793D01*
X101179318Y-83334101D01*
X101108481Y-83338869D01*
X101046312Y-83304583D01*
X101012548Y-83242129D01*
X101009780Y-83215862D01*
X101009780Y-82287258D01*
X101029782Y-82219137D01*
X101083438Y-82172644D01*
X101153712Y-82162540D01*
X101218292Y-82192034D01*
X101236328Y-82211324D01*
X101247516Y-82226139D01*
X101398239Y-82363541D01*
X101571643Y-82470908D01*
X101676280Y-82511444D01*
X101756397Y-82542482D01*
X101756401Y-82542483D01*
X101761824Y-82544584D01*
X101962304Y-82582060D01*
X102166256Y-82582060D01*
X102366736Y-82544584D01*
X102372159Y-82542483D01*
X102372163Y-82542482D01*
X102452280Y-82511444D01*
X102556917Y-82470908D01*
X102730321Y-82363541D01*
X102881044Y-82226139D01*
X102915215Y-82180889D01*
X102918044Y-82177283D01*
X102982894Y-82097636D01*
X102982899Y-82097629D01*
X102983883Y-82096421D01*
X103001681Y-82072223D01*
X103002950Y-82070307D01*
X103018289Y-82044472D01*
X103092585Y-81904034D01*
X103095464Y-81898591D01*
X103095466Y-81898586D01*
X103096031Y-81897519D01*
X103098356Y-81892675D01*
X103105819Y-81877130D01*
X103105823Y-81877121D01*
X103106355Y-81876013D01*
X103107080Y-81874338D01*
X103115691Y-81852102D01*
X103166108Y-81705110D01*
X103170526Y-81691146D01*
X103170838Y-81690071D01*
X103174568Y-81675971D01*
X103208706Y-81533214D01*
X103209498Y-81529816D01*
X103209555Y-81529565D01*
X103210253Y-81526411D01*
X103235968Y-81407359D01*
X103238120Y-81398847D01*
X103248480Y-81363145D01*
X103286674Y-81303297D01*
X103356457Y-81272935D01*
X103367277Y-81271810D01*
X103412876Y-81267069D01*
X103412882Y-81267068D01*
X103418218Y-81266513D01*
X103423384Y-81265061D01*
X103427363Y-81264300D01*
X103451014Y-81262060D01*
X106805434Y-81262060D01*
X106834221Y-81265393D01*
X106836181Y-81265853D01*
X106836188Y-81265854D01*
X106842214Y-81267268D01*
X106864264Y-81268020D01*
X106875119Y-81268391D01*
X106885000Y-81269118D01*
X106899984Y-81270815D01*
X106910556Y-81272470D01*
X106918228Y-81274007D01*
X106927511Y-81276236D01*
X106938351Y-81279278D01*
X106943857Y-81280961D01*
X107000562Y-81299722D01*
X107000610Y-81299738D01*
X107000953Y-81299851D01*
X107004328Y-81300925D01*
X107007330Y-81301880D01*
X107007400Y-81301902D01*
X107007671Y-81301988D01*
X107008185Y-81302145D01*
X107008431Y-81302217D01*
X107008494Y-81302236D01*
X107012116Y-81303297D01*
X107014880Y-81304107D01*
X107050355Y-81314063D01*
X107050925Y-81314211D01*
X107050935Y-81314214D01*
X107061063Y-81316849D01*
X107061082Y-81316854D01*
X107061648Y-81317001D01*
X107062511Y-81317208D01*
X107073766Y-81319684D01*
X107074286Y-81319788D01*
X107074309Y-81319793D01*
X107113864Y-81327716D01*
X107113883Y-81327720D01*
X107114544Y-81327852D01*
X107115201Y-81327969D01*
X107115231Y-81327975D01*
X107126505Y-81329988D01*
X107126524Y-81329991D01*
X107127167Y-81330106D01*
X107128148Y-81330260D01*
X107128801Y-81330348D01*
X107128827Y-81330352D01*
X107134135Y-81331069D01*
X107141141Y-81332015D01*
X107141833Y-81332093D01*
X107141846Y-81332095D01*
X107154637Y-81333544D01*
X107190262Y-81337579D01*
X107202337Y-81338704D01*
X107203252Y-81338771D01*
X107203775Y-81338799D01*
X107203821Y-81338802D01*
X107212962Y-81339292D01*
X107215137Y-81339409D01*
X107239864Y-81340253D01*
X107263217Y-81341051D01*
X107263246Y-81341052D01*
X107263811Y-81341071D01*
X107264427Y-81341080D01*
X107264454Y-81341081D01*
X107265932Y-81341103D01*
X107275409Y-81341247D01*
X107279856Y-81340398D01*
X107280134Y-81340386D01*
X107286280Y-81341195D01*
X107294468Y-81340117D01*
X107415279Y-81324212D01*
X107415283Y-81324211D01*
X107423463Y-81323134D01*
X107431087Y-81319976D01*
X107431091Y-81319975D01*
X107543669Y-81273344D01*
X107551298Y-81270184D01*
X107661071Y-81185951D01*
X107745304Y-81076178D01*
X107772724Y-81009980D01*
X107795095Y-80955971D01*
X107795096Y-80955967D01*
X107798254Y-80948343D01*
X107799331Y-80940163D01*
X107799332Y-80940159D01*
X107815237Y-80819348D01*
X107816315Y-80811160D01*
X107798254Y-80673977D01*
X107745304Y-80546143D01*
X107682295Y-80464028D01*
X107666100Y-80442922D01*
X107666097Y-80442919D01*
X107661071Y-80436369D01*
X107620581Y-80405299D01*
X107557848Y-80357162D01*
X107551298Y-80352136D01*
X107540253Y-80347561D01*
X107431091Y-80302345D01*
X107431087Y-80302344D01*
X107423463Y-80299186D01*
X107415283Y-80298109D01*
X107415279Y-80298108D01*
X107294468Y-80282203D01*
X107286280Y-80281125D01*
X107278092Y-80282203D01*
X107157281Y-80298108D01*
X107157277Y-80298109D01*
X107149097Y-80299186D01*
X107104011Y-80317861D01*
X107082534Y-80324580D01*
X107067509Y-80327842D01*
X107031485Y-80343502D01*
X107026862Y-80345557D01*
X107026521Y-80345712D01*
X107022256Y-80347690D01*
X107022066Y-80347780D01*
X107021991Y-80347815D01*
X107012861Y-80352136D01*
X106983773Y-80365902D01*
X106978517Y-80368452D01*
X106978308Y-80368556D01*
X106946723Y-80384249D01*
X106946164Y-80384525D01*
X106930760Y-80392084D01*
X106885116Y-80404582D01*
X106880544Y-80404941D01*
X106873396Y-80405299D01*
X106852217Y-80405755D01*
X106852213Y-80405755D01*
X106846202Y-80405885D01*
X106835350Y-80408226D01*
X106808779Y-80411060D01*
X103424379Y-80411060D01*
X103399227Y-80408524D01*
X103386881Y-80406009D01*
X103380695Y-80405980D01*
X103380692Y-80405980D01*
X103278182Y-80405505D01*
X103219366Y-80405233D01*
X103218094Y-80405219D01*
X103073711Y-80403014D01*
X103072314Y-80402986D01*
X103031775Y-80401899D01*
X102951664Y-80399750D01*
X102950341Y-80399707D01*
X102844865Y-80395769D01*
X102844047Y-80395736D01*
X102727333Y-80390619D01*
X102642805Y-80386913D01*
X102641780Y-80386872D01*
X102640902Y-80386836D01*
X102640873Y-80386835D01*
X102640823Y-80386833D01*
X102531549Y-80382753D01*
X102530052Y-80382705D01*
X102528504Y-80382655D01*
X102528382Y-80382651D01*
X102528341Y-80382650D01*
X102528317Y-80382649D01*
X102528239Y-80382647D01*
X102403192Y-80379293D01*
X102403129Y-80379292D01*
X102403104Y-80379291D01*
X102402188Y-80379272D01*
X102399693Y-80379219D01*
X102399591Y-80379217D01*
X102399548Y-80379217D01*
X102399457Y-80379215D01*
X102308968Y-80377833D01*
X102250286Y-80376937D01*
X102247038Y-80376904D01*
X102161643Y-80376508D01*
X102077437Y-80376117D01*
X102064039Y-80378730D01*
X102039920Y-80381060D01*
X101962304Y-80381060D01*
X101761824Y-80418536D01*
X101756401Y-80420637D01*
X101756397Y-80420638D01*
X101715791Y-80436369D01*
X101571643Y-80492212D01*
X101398239Y-80599579D01*
X101247516Y-80736981D01*
X101244004Y-80741632D01*
X101236331Y-80751793D01*
X101179318Y-80794101D01*
X101108481Y-80798869D01*
X101046312Y-80764583D01*
X101012548Y-80702129D01*
X101009780Y-80675862D01*
X101009780Y-79747258D01*
X101029782Y-79679137D01*
X101083438Y-79632644D01*
X101153712Y-79622540D01*
X101218292Y-79652034D01*
X101236328Y-79671324D01*
X101247516Y-79686139D01*
X101398239Y-79823541D01*
X101571643Y-79930908D01*
X101664932Y-79967048D01*
X101756397Y-80002482D01*
X101756401Y-80002483D01*
X101761824Y-80004584D01*
X101962304Y-80042060D01*
X102166256Y-80042060D01*
X102366736Y-80004584D01*
X102372159Y-80002483D01*
X102372163Y-80002482D01*
X102485760Y-79958474D01*
X102499245Y-79954105D01*
X102509425Y-79951429D01*
X102509426Y-79951429D01*
X102515409Y-79949856D01*
X102520968Y-79947147D01*
X102520971Y-79947146D01*
X102527725Y-79943854D01*
X102539377Y-79938177D01*
X102549054Y-79933954D01*
X102556917Y-79930908D01*
X102561866Y-79927844D01*
X102562726Y-79927416D01*
X102572320Y-79922127D01*
X102658920Y-79879929D01*
X102658976Y-79879901D01*
X102659872Y-79879464D01*
X102660756Y-79878998D01*
X102660789Y-79878981D01*
X102676249Y-79870826D01*
X102676254Y-79870823D01*
X102677138Y-79870357D01*
X102678435Y-79869619D01*
X102679265Y-79869111D01*
X102679299Y-79869091D01*
X102694193Y-79859976D01*
X102694203Y-79859970D01*
X102695044Y-79859455D01*
X102817020Y-79779354D01*
X102817757Y-79778839D01*
X102830717Y-79769783D01*
X102830752Y-79769757D01*
X102831470Y-79769256D01*
X102832558Y-79768448D01*
X102846505Y-79757446D01*
X102906135Y-79707532D01*
X102943834Y-79675976D01*
X102943862Y-79675952D01*
X102944328Y-79675562D01*
X102953624Y-79667457D01*
X102954310Y-79666834D01*
X102962941Y-79658683D01*
X103045504Y-79577630D01*
X103049480Y-79573655D01*
X103049592Y-79573541D01*
X103049708Y-79573424D01*
X103116180Y-79505721D01*
X103121525Y-79500589D01*
X103167274Y-79459187D01*
X103180796Y-79448537D01*
X103210085Y-79428552D01*
X103230717Y-79417144D01*
X103261687Y-79403633D01*
X103284468Y-79396181D01*
X103309837Y-79390486D01*
X103344209Y-79382769D01*
X103363906Y-79379957D01*
X103429917Y-79375808D01*
X103488158Y-79372147D01*
X103493679Y-79370776D01*
X103493684Y-79370775D01*
X103493743Y-79370760D01*
X103493916Y-79370739D01*
X103499313Y-79369906D01*
X103499339Y-79370075D01*
X103524118Y-79367044D01*
X103580168Y-79367045D01*
X103602030Y-79367046D01*
X103606153Y-79367046D01*
X103610236Y-79366509D01*
X103610244Y-79366508D01*
X103852303Y-79334645D01*
X103852308Y-79334644D01*
X103856403Y-79334105D01*
X103860397Y-79333035D01*
X104096232Y-79269848D01*
X104096237Y-79269846D01*
X104100213Y-79268781D01*
X104104009Y-79267209D01*
X104104017Y-79267206D01*
X104329610Y-79173766D01*
X104329611Y-79173766D01*
X104333410Y-79172192D01*
X104336966Y-79170139D01*
X104336972Y-79170136D01*
X104548427Y-79048054D01*
X104548432Y-79048051D01*
X104552003Y-79045989D01*
X104569782Y-79032347D01*
X104748990Y-78894837D01*
X104748992Y-78894835D01*
X104752253Y-78892333D01*
X104817812Y-78826775D01*
X104817814Y-78826774D01*
X105344023Y-78300565D01*
X105363920Y-78284364D01*
X105368918Y-78281080D01*
X105368923Y-78281076D01*
X105374094Y-78277678D01*
X105398249Y-78253892D01*
X105400431Y-78251796D01*
X105420717Y-78232790D01*
X105424626Y-78229279D01*
X105434087Y-78221132D01*
X105462729Y-78202569D01*
X105470971Y-78198697D01*
X105475093Y-78196850D01*
X105483984Y-78193056D01*
X105498052Y-78187053D01*
X105499662Y-78186380D01*
X105535967Y-78171506D01*
X105536027Y-78171481D01*
X105536159Y-78171427D01*
X105558823Y-78162129D01*
X105572520Y-78156510D01*
X105583928Y-78148945D01*
X105605344Y-78137547D01*
X105609412Y-78135862D01*
X105646298Y-78120584D01*
X105756071Y-78036351D01*
X105840304Y-77926578D01*
X105860646Y-77877467D01*
X105890095Y-77806371D01*
X105890096Y-77806367D01*
X105893254Y-77798743D01*
X105894331Y-77790563D01*
X105894332Y-77790559D01*
X105910237Y-77669748D01*
X105911315Y-77661560D01*
X105893254Y-77524377D01*
X105840304Y-77396543D01*
X105786909Y-77326957D01*
X105761100Y-77293322D01*
X105761097Y-77293319D01*
X105756071Y-77286769D01*
X105666351Y-77217923D01*
X105652848Y-77207562D01*
X105646298Y-77202536D01*
X105638669Y-77199376D01*
X105526091Y-77152745D01*
X105526087Y-77152744D01*
X105518463Y-77149586D01*
X105510283Y-77148509D01*
X105510279Y-77148508D01*
X105389468Y-77132603D01*
X105381280Y-77131525D01*
X105244097Y-77149586D01*
X105116263Y-77202536D01*
X105006489Y-77286769D01*
X104922256Y-77396543D01*
X104919097Y-77404171D01*
X104919094Y-77404175D01*
X104905291Y-77437500D01*
X104893885Y-77458927D01*
X104886331Y-77470315D01*
X104883982Y-77476040D01*
X104883979Y-77476046D01*
X104871437Y-77506616D01*
X104871414Y-77506674D01*
X104871361Y-77506803D01*
X104856480Y-77543121D01*
X104855778Y-77544799D01*
X104845983Y-77567754D01*
X104844136Y-77571877D01*
X104840267Y-77580113D01*
X104821704Y-77608755D01*
X104814413Y-77617223D01*
X104813561Y-77618212D01*
X104810039Y-77622132D01*
X104791125Y-77642322D01*
X104788956Y-77644581D01*
X104765153Y-77668755D01*
X104758255Y-77679210D01*
X104742183Y-77698909D01*
X104243249Y-78197843D01*
X104235998Y-78204547D01*
X104119076Y-78304407D01*
X104103083Y-78316026D01*
X103976235Y-78393758D01*
X103958617Y-78402735D01*
X103821164Y-78459667D01*
X103802360Y-78465776D01*
X103745250Y-78479486D01*
X103657698Y-78500504D01*
X103638177Y-78503595D01*
X103519082Y-78512966D01*
X103491363Y-78511822D01*
X103488160Y-78510973D01*
X103400117Y-78505438D01*
X103363905Y-78503162D01*
X103344209Y-78500350D01*
X103309837Y-78492633D01*
X103284468Y-78486938D01*
X103261687Y-78479486D01*
X103230717Y-78465975D01*
X103210085Y-78454567D01*
X103180796Y-78434582D01*
X103167274Y-78423932D01*
X103121525Y-78382530D01*
X103116180Y-78377398D01*
X103049708Y-78309695D01*
X103049592Y-78309578D01*
X103049480Y-78309464D01*
X103045504Y-78305489D01*
X102962941Y-78224436D01*
X102954310Y-78216285D01*
X102953624Y-78215662D01*
X102953202Y-78215294D01*
X102953175Y-78215270D01*
X102944779Y-78207949D01*
X102944751Y-78207925D01*
X102944330Y-78207558D01*
X102943856Y-78207161D01*
X102847234Y-78126281D01*
X102847212Y-78126263D01*
X102846507Y-78125673D01*
X102844060Y-78123743D01*
X102833280Y-78115239D01*
X102833259Y-78115223D01*
X102832558Y-78114670D01*
X102831470Y-78113862D01*
X102830752Y-78113360D01*
X102817747Y-78104273D01*
X102817730Y-78104261D01*
X102817018Y-78103764D01*
X102816278Y-78103278D01*
X102695868Y-78024206D01*
X102695850Y-78024194D01*
X102695042Y-78023664D01*
X102678435Y-78013500D01*
X102677138Y-78012762D01*
X102659870Y-78003654D01*
X102572308Y-77960989D01*
X102562741Y-77955712D01*
X102561865Y-77955276D01*
X102556917Y-77952212D01*
X102551489Y-77950109D01*
X102551485Y-77950107D01*
X102549055Y-77949166D01*
X102539379Y-77944943D01*
X102516168Y-77933633D01*
X102516120Y-77933610D01*
X102515407Y-77933263D01*
X102514674Y-77932930D01*
X102514656Y-77932921D01*
X102506776Y-77929336D01*
X102500715Y-77926578D01*
X102487245Y-77923625D01*
X102468715Y-77918042D01*
X102425687Y-77901373D01*
X102372163Y-77880638D01*
X102372159Y-77880637D01*
X102366736Y-77878536D01*
X102166256Y-77841060D01*
X101962304Y-77841060D01*
X101761824Y-77878536D01*
X101756401Y-77880637D01*
X101756397Y-77880638D01*
X101676280Y-77911676D01*
X101571643Y-77952212D01*
X101557447Y-77961002D01*
X101435754Y-78036351D01*
X101398239Y-78059579D01*
X101247516Y-78196981D01*
X101238542Y-78208865D01*
X101236331Y-78211793D01*
X101179318Y-78254101D01*
X101108481Y-78258869D01*
X101046312Y-78224583D01*
X101012548Y-78162129D01*
X101009780Y-78135862D01*
X101009780Y-77207258D01*
X101029782Y-77139137D01*
X101083438Y-77092644D01*
X101153712Y-77082540D01*
X101218292Y-77112034D01*
X101236328Y-77131324D01*
X101247516Y-77146139D01*
X101398239Y-77283541D01*
X101571643Y-77390908D01*
X101641153Y-77417836D01*
X101756397Y-77462482D01*
X101756401Y-77462483D01*
X101761824Y-77464584D01*
X101962304Y-77502060D01*
X102166256Y-77502060D01*
X102366736Y-77464584D01*
X102372159Y-77462483D01*
X102372163Y-77462482D01*
X102480047Y-77420688D01*
X102495069Y-77415926D01*
X102511830Y-77411746D01*
X102517421Y-77409109D01*
X102517427Y-77409107D01*
X102547810Y-77394777D01*
X102548753Y-77394373D01*
X102549056Y-77394222D01*
X102549423Y-77394044D01*
X102549438Y-77394032D01*
X102550301Y-77393602D01*
X102551860Y-77392867D01*
X102556917Y-77390908D01*
X102558556Y-77389893D01*
X102560042Y-77389628D01*
X102559803Y-77389121D01*
X102677156Y-77333775D01*
X102677871Y-77333438D01*
X102684204Y-77330256D01*
X102690771Y-77326957D01*
X102690791Y-77326947D01*
X102691471Y-77326605D01*
X102692499Y-77326056D01*
X102705747Y-77318551D01*
X102847009Y-77233806D01*
X102858415Y-77226616D01*
X102859272Y-77226049D01*
X102859866Y-77225637D01*
X102869880Y-77218688D01*
X102869901Y-77218673D01*
X102870417Y-77218315D01*
X102885617Y-77207258D01*
X102985404Y-77134670D01*
X102985448Y-77134637D01*
X102985769Y-77134404D01*
X102989613Y-77131525D01*
X102992229Y-77129566D01*
X102992276Y-77129530D01*
X102992590Y-77129295D01*
X102993114Y-77128891D01*
X102999973Y-77123444D01*
X103098825Y-77042608D01*
X103099534Y-77042027D01*
X103099637Y-77041943D01*
X103099653Y-77041930D01*
X103180284Y-76975590D01*
X103186712Y-76970639D01*
X103246220Y-76927790D01*
X103259799Y-76919269D01*
X103308973Y-76892613D01*
X103327547Y-76884406D01*
X103386823Y-76863744D01*
X103405891Y-76858731D01*
X103499036Y-76841900D01*
X103515034Y-76840055D01*
X103662925Y-76832525D01*
X103662930Y-76832524D01*
X103668710Y-76832230D01*
X103675916Y-76830508D01*
X103705190Y-76827060D01*
X106808664Y-76827060D01*
X106836905Y-76830266D01*
X106845585Y-76832263D01*
X106880194Y-76833293D01*
X106888793Y-76833844D01*
X106907964Y-76835735D01*
X106917197Y-76836993D01*
X106928855Y-76839023D01*
X106937055Y-76840733D01*
X106950693Y-76844055D01*
X106955596Y-76845356D01*
X107013275Y-76861901D01*
X107013386Y-76861932D01*
X107013643Y-76862006D01*
X107016629Y-76862832D01*
X107018766Y-76863424D01*
X107018811Y-76863436D01*
X107019085Y-76863512D01*
X107019542Y-76863634D01*
X107022896Y-76864490D01*
X107025739Y-76865216D01*
X107025785Y-76865227D01*
X107026034Y-76865291D01*
X107026346Y-76865367D01*
X107061029Y-76873816D01*
X107061066Y-76873825D01*
X107061523Y-76873936D01*
X107071519Y-76876195D01*
X107072263Y-76876350D01*
X107082167Y-76878243D01*
X107082712Y-76878338D01*
X107082729Y-76878341D01*
X107122328Y-76885236D01*
X107122363Y-76885242D01*
X107122933Y-76885341D01*
X107123491Y-76885427D01*
X107123501Y-76885429D01*
X107128334Y-76886177D01*
X107134312Y-76887102D01*
X107135168Y-76887218D01*
X107135750Y-76887286D01*
X107135749Y-76887286D01*
X107145675Y-76888448D01*
X107145692Y-76888450D01*
X107146206Y-76888510D01*
X107146708Y-76888559D01*
X107146731Y-76888562D01*
X107163522Y-76890218D01*
X107195145Y-76893337D01*
X107195579Y-76893372D01*
X107195598Y-76893374D01*
X107202632Y-76893946D01*
X107205589Y-76894186D01*
X107206369Y-76894236D01*
X107211303Y-76894468D01*
X107216317Y-76894704D01*
X107216362Y-76894706D01*
X107216815Y-76894727D01*
X107217316Y-76894742D01*
X107217318Y-76894742D01*
X107258795Y-76895978D01*
X107258799Y-76895978D01*
X107265188Y-76896168D01*
X107270147Y-76895302D01*
X107275317Y-76895117D01*
X107278092Y-76895117D01*
X107286280Y-76896195D01*
X107294468Y-76895117D01*
X107415279Y-76879212D01*
X107415283Y-76879211D01*
X107423463Y-76878134D01*
X107431087Y-76874976D01*
X107431091Y-76874975D01*
X107543669Y-76828344D01*
X107551298Y-76825184D01*
X107661071Y-76740951D01*
X107745304Y-76631178D01*
X107748464Y-76623549D01*
X107795095Y-76510971D01*
X107795096Y-76510967D01*
X107798254Y-76503343D01*
X107799331Y-76495163D01*
X107799332Y-76495159D01*
X107815237Y-76374348D01*
X107816315Y-76366160D01*
X107798254Y-76228977D01*
X107745304Y-76101143D01*
X107686121Y-76024014D01*
X107666100Y-75997922D01*
X107666097Y-75997919D01*
X107661071Y-75991369D01*
X107633712Y-75970375D01*
X107557848Y-75912162D01*
X107551298Y-75907136D01*
X107532621Y-75899400D01*
X107431091Y-75857345D01*
X107431087Y-75857344D01*
X107423463Y-75854186D01*
X107415283Y-75853109D01*
X107415279Y-75853108D01*
X107294468Y-75837203D01*
X107286280Y-75836125D01*
X107278092Y-75837203D01*
X107157281Y-75853108D01*
X107157277Y-75853109D01*
X107149097Y-75854186D01*
X107117446Y-75867296D01*
X107102344Y-75873551D01*
X107081530Y-75880126D01*
X107071979Y-75882254D01*
X107071975Y-75882255D01*
X107065940Y-75883600D01*
X107029974Y-75899470D01*
X107024047Y-75902161D01*
X107023578Y-75902380D01*
X107017273Y-75905413D01*
X107017025Y-75905536D01*
X107017002Y-75905547D01*
X106982100Y-75922829D01*
X106979012Y-75924358D01*
X106975606Y-75926071D01*
X106975328Y-75926213D01*
X106975179Y-75926291D01*
X106975088Y-75926338D01*
X106972024Y-75927941D01*
X106970042Y-75928978D01*
X106937783Y-75946258D01*
X106935973Y-75947235D01*
X106921550Y-75955086D01*
X106864696Y-75970375D01*
X106862095Y-75970445D01*
X106852473Y-75970703D01*
X106852468Y-75970704D01*
X106846500Y-75970864D01*
X106840667Y-75972147D01*
X106840660Y-75972148D01*
X106836252Y-75973118D01*
X106809183Y-75976060D01*
X103704851Y-75976060D01*
X103680872Y-75973081D01*
X103680835Y-75973324D01*
X103674713Y-75972405D01*
X103668712Y-75970890D01*
X103662532Y-75970575D01*
X103662530Y-75970575D01*
X103515033Y-75963064D01*
X103499036Y-75961219D01*
X103405891Y-75944388D01*
X103386823Y-75939375D01*
X103327547Y-75918713D01*
X103308973Y-75910506D01*
X103259799Y-75883850D01*
X103246220Y-75875329D01*
X103186712Y-75832480D01*
X103180284Y-75827529D01*
X103099637Y-75761176D01*
X103099534Y-75761092D01*
X103098825Y-75760511D01*
X103098794Y-75760486D01*
X103098694Y-75760404D01*
X103086218Y-75750202D01*
X102999973Y-75679675D01*
X102993114Y-75674228D01*
X102992590Y-75673824D01*
X102992276Y-75673589D01*
X102992229Y-75673553D01*
X102986119Y-75668977D01*
X102986104Y-75668966D01*
X102985769Y-75668715D01*
X102985448Y-75668482D01*
X102985404Y-75668449D01*
X102870956Y-75585196D01*
X102870951Y-75585192D01*
X102870417Y-75584804D01*
X102869901Y-75584446D01*
X102869880Y-75584431D01*
X102859866Y-75577482D01*
X102859854Y-75577474D01*
X102859272Y-75577070D01*
X102858415Y-75576503D01*
X102847010Y-75569313D01*
X102840743Y-75565553D01*
X102706441Y-75484983D01*
X102706433Y-75484978D01*
X102705749Y-75484568D01*
X102703672Y-75483392D01*
X102693093Y-75477402D01*
X102693066Y-75477387D01*
X102692391Y-75477005D01*
X102691362Y-75476456D01*
X102677870Y-75469680D01*
X102559795Y-75413994D01*
X102559959Y-75413647D01*
X102558767Y-75413357D01*
X102556917Y-75412212D01*
X102551874Y-75410258D01*
X102550240Y-75409488D01*
X102549450Y-75409094D01*
X102549437Y-75409082D01*
X102549066Y-75408902D01*
X102548766Y-75408753D01*
X102547838Y-75408354D01*
X102511830Y-75391373D01*
X102511143Y-75391068D01*
X102511127Y-75391061D01*
X102504852Y-75388278D01*
X102504849Y-75388277D01*
X102498860Y-75385621D01*
X102492455Y-75384260D01*
X102492444Y-75384256D01*
X102485301Y-75382738D01*
X102465983Y-75376984D01*
X102372163Y-75340638D01*
X102372159Y-75340637D01*
X102366736Y-75338536D01*
X102166256Y-75301060D01*
X101962304Y-75301060D01*
X101761824Y-75338536D01*
X101756401Y-75340637D01*
X101756397Y-75340638D01*
X101676280Y-75371676D01*
X101571643Y-75412212D01*
X101466999Y-75477005D01*
X101435754Y-75496351D01*
X101398239Y-75519579D01*
X101247516Y-75656981D01*
X101238181Y-75669343D01*
X101236331Y-75671793D01*
X101179318Y-75714101D01*
X101108481Y-75718869D01*
X101046312Y-75684583D01*
X101012548Y-75622129D01*
X101009780Y-75595862D01*
X101009780Y-74667258D01*
X101029782Y-74599137D01*
X101083438Y-74552644D01*
X101153712Y-74542540D01*
X101218292Y-74572034D01*
X101236328Y-74591324D01*
X101247516Y-74606139D01*
X101398239Y-74743541D01*
X101571643Y-74850908D01*
X101647725Y-74880382D01*
X101756397Y-74922482D01*
X101756401Y-74922483D01*
X101761824Y-74924584D01*
X101962304Y-74962060D01*
X102166256Y-74962060D01*
X102366736Y-74924584D01*
X102372159Y-74922483D01*
X102372163Y-74922482D01*
X102480835Y-74880382D01*
X102556917Y-74850908D01*
X102730321Y-74743541D01*
X102881044Y-74606139D01*
X103003953Y-74443381D01*
X103006548Y-74438169D01*
X103006552Y-74438163D01*
X103084474Y-74281672D01*
X103085825Y-74279295D01*
X103088641Y-74273797D01*
X103091993Y-74268585D01*
X103152904Y-74113918D01*
X103154535Y-74109686D01*
X103154668Y-74109333D01*
X103156499Y-74104341D01*
X103206508Y-73964269D01*
X103208451Y-73958656D01*
X103248422Y-73839431D01*
X103248609Y-73838878D01*
X103281370Y-73742641D01*
X103283038Y-73738036D01*
X103311062Y-73665134D01*
X103314710Y-73656598D01*
X103342297Y-73598103D01*
X103347878Y-73587587D01*
X103381957Y-73530111D01*
X103388447Y-73520250D01*
X103438638Y-73451257D01*
X103444693Y-73443579D01*
X103454375Y-73432236D01*
X103520273Y-73355031D01*
X103525083Y-73349712D01*
X103631027Y-73239080D01*
X103637038Y-73229759D01*
X103653830Y-73208958D01*
X106080618Y-70782170D01*
X106100520Y-70765964D01*
X106105518Y-70762680D01*
X106105523Y-70762676D01*
X106110694Y-70759278D01*
X106134849Y-70735492D01*
X106137031Y-70733396D01*
X106157317Y-70714390D01*
X106161226Y-70710879D01*
X106170687Y-70702732D01*
X106199329Y-70684169D01*
X106207571Y-70680297D01*
X106211693Y-70678450D01*
X106234652Y-70668653D01*
X106236262Y-70667980D01*
X106272567Y-70653106D01*
X106272627Y-70653081D01*
X106272759Y-70653027D01*
X106278158Y-70650812D01*
X106309120Y-70638110D01*
X106320528Y-70630545D01*
X106341944Y-70619147D01*
X106343147Y-70618649D01*
X106382898Y-70602184D01*
X106420758Y-70573133D01*
X106486125Y-70522974D01*
X106492671Y-70517951D01*
X106576904Y-70408178D01*
X106608370Y-70332212D01*
X106626695Y-70287971D01*
X106626696Y-70287967D01*
X106629854Y-70280343D01*
X106630931Y-70272163D01*
X106630932Y-70272159D01*
X106646837Y-70151348D01*
X106647915Y-70143160D01*
X106629854Y-70005977D01*
X106576904Y-69878143D01*
X106534788Y-69823256D01*
X106497700Y-69774922D01*
X106497697Y-69774919D01*
X106492671Y-69768369D01*
X106382898Y-69684136D01*
X106340581Y-69666608D01*
X106262691Y-69634345D01*
X106262687Y-69634344D01*
X106255063Y-69631186D01*
X106246881Y-69630109D01*
X106246878Y-69630108D01*
X106194625Y-69623229D01*
X106129697Y-69594507D01*
X106090606Y-69535241D01*
X106089761Y-69464250D01*
X106131717Y-69400554D01*
X106136094Y-69397678D01*
X106160249Y-69373892D01*
X106162431Y-69371796D01*
X106182717Y-69352790D01*
X106186626Y-69349279D01*
X106196087Y-69341132D01*
X106224729Y-69322569D01*
X106232971Y-69318697D01*
X106237093Y-69316850D01*
X106260052Y-69307053D01*
X106261662Y-69306380D01*
X106297967Y-69291506D01*
X106298027Y-69291481D01*
X106298159Y-69291427D01*
X106334520Y-69276510D01*
X106345928Y-69268945D01*
X106367344Y-69257547D01*
X106368547Y-69257049D01*
X106408298Y-69240584D01*
X106518071Y-69156351D01*
X106602304Y-69046578D01*
X106605464Y-69038949D01*
X106652095Y-68926371D01*
X106652096Y-68926367D01*
X106655254Y-68918743D01*
X106656331Y-68910563D01*
X106656332Y-68910559D01*
X106672237Y-68789748D01*
X106673315Y-68781560D01*
X106655254Y-68644377D01*
X106602304Y-68516543D01*
X106560187Y-68461656D01*
X106523100Y-68413322D01*
X106523097Y-68413319D01*
X106518071Y-68406769D01*
X106408298Y-68322536D01*
X106377985Y-68309980D01*
X106288091Y-68272745D01*
X106288087Y-68272744D01*
X106280463Y-68269586D01*
X106272283Y-68268509D01*
X106272279Y-68268508D01*
X106151468Y-68252603D01*
X106143280Y-68251525D01*
X106006097Y-68269586D01*
X105878263Y-68322536D01*
X105768489Y-68406769D01*
X105684256Y-68516543D01*
X105681097Y-68524171D01*
X105681094Y-68524175D01*
X105667291Y-68557500D01*
X105655885Y-68578927D01*
X105648331Y-68590315D01*
X105645982Y-68596040D01*
X105645979Y-68596046D01*
X105633437Y-68626616D01*
X105633414Y-68626674D01*
X105633361Y-68626803D01*
X105618480Y-68663121D01*
X105617778Y-68664799D01*
X105607983Y-68687754D01*
X105606136Y-68691877D01*
X105602267Y-68700113D01*
X105583704Y-68728755D01*
X105576413Y-68737223D01*
X105575561Y-68738212D01*
X105572039Y-68742132D01*
X105553125Y-68762322D01*
X105550956Y-68764581D01*
X105527153Y-68788755D01*
X105523775Y-68793875D01*
X105523774Y-68793876D01*
X105520254Y-68799211D01*
X105504179Y-68818914D01*
X104552184Y-69770908D01*
X103600310Y-70722782D01*
X103591145Y-70731089D01*
X103528899Y-70782170D01*
X103518141Y-70790998D01*
X103497605Y-70804719D01*
X103419802Y-70846302D01*
X103396983Y-70855753D01*
X103312561Y-70881360D01*
X103288338Y-70886178D01*
X103260716Y-70888898D01*
X103225932Y-70892324D01*
X103197057Y-70891483D01*
X103194950Y-70890935D01*
X103188768Y-70890575D01*
X103188757Y-70890573D01*
X103173454Y-70889681D01*
X103106613Y-70865749D01*
X103075953Y-70833794D01*
X103048548Y-70792692D01*
X103048465Y-70792568D01*
X103047402Y-70790998D01*
X103046036Y-70788981D01*
X103002375Y-70725467D01*
X102997287Y-70718290D01*
X102996899Y-70717759D01*
X102991859Y-70711056D01*
X102939019Y-70642759D01*
X102938635Y-70642283D01*
X102938609Y-70642250D01*
X102931609Y-70633573D01*
X102931222Y-70633093D01*
X102930604Y-70632358D01*
X102922267Y-70622849D01*
X102884388Y-70581409D01*
X102884395Y-70581402D01*
X102884368Y-70581383D01*
X102881044Y-70576981D01*
X102876823Y-70573133D01*
X102863706Y-70558783D01*
X102854177Y-70548820D01*
X102848785Y-70545129D01*
X102848782Y-70545126D01*
X102845252Y-70542710D01*
X102831545Y-70531857D01*
X102784793Y-70489237D01*
X102734624Y-70443501D01*
X102734620Y-70443498D01*
X102730321Y-70439579D01*
X102556917Y-70332212D01*
X102423027Y-70280343D01*
X102372163Y-70260638D01*
X102372159Y-70260637D01*
X102366736Y-70258536D01*
X102166256Y-70221060D01*
X101962304Y-70221060D01*
X101761824Y-70258536D01*
X101756401Y-70260637D01*
X101756397Y-70260638D01*
X101705533Y-70280343D01*
X101571643Y-70332212D01*
X101398239Y-70439579D01*
X101247516Y-70576981D01*
X101244004Y-70581632D01*
X101236331Y-70591793D01*
X101179318Y-70634101D01*
X101108481Y-70638869D01*
X101046312Y-70604583D01*
X101012548Y-70542129D01*
X101009780Y-70515862D01*
X101009780Y-69587258D01*
X101029782Y-69519137D01*
X101083438Y-69472644D01*
X101153712Y-69462540D01*
X101218292Y-69492034D01*
X101236328Y-69511324D01*
X101247516Y-69526139D01*
X101398239Y-69663541D01*
X101403190Y-69666607D01*
X101403192Y-69666608D01*
X101431501Y-69684136D01*
X101571643Y-69770908D01*
X101676280Y-69811444D01*
X101756397Y-69842482D01*
X101756401Y-69842483D01*
X101761824Y-69844584D01*
X101962304Y-69882060D01*
X102166256Y-69882060D01*
X102366736Y-69844584D01*
X102372159Y-69842483D01*
X102372163Y-69842482D01*
X102452280Y-69811444D01*
X102556917Y-69770908D01*
X102697059Y-69684136D01*
X102725368Y-69666608D01*
X102725370Y-69666607D01*
X102730321Y-69663541D01*
X102881044Y-69526139D01*
X103003953Y-69363381D01*
X103094862Y-69180810D01*
X103133055Y-69046578D01*
X103149084Y-68990243D01*
X103149085Y-68990239D01*
X103150677Y-68984643D01*
X103151443Y-68976382D01*
X103168958Y-68787355D01*
X103169495Y-68781560D01*
X103150677Y-68578477D01*
X103144709Y-68557500D01*
X103096455Y-68387910D01*
X103094862Y-68382310D01*
X103003953Y-68199739D01*
X102881044Y-68036981D01*
X102730321Y-67899579D01*
X102556917Y-67792212D01*
X102444578Y-67748692D01*
X102372163Y-67720638D01*
X102372159Y-67720637D01*
X102366736Y-67718536D01*
X102166256Y-67681060D01*
X101962304Y-67681060D01*
X101761824Y-67718536D01*
X101756401Y-67720637D01*
X101756397Y-67720638D01*
X101683982Y-67748692D01*
X101571643Y-67792212D01*
X101398239Y-67899579D01*
X101247516Y-68036981D01*
X101244004Y-68041632D01*
X101236331Y-68051793D01*
X101179318Y-68094101D01*
X101108481Y-68098869D01*
X101046312Y-68064583D01*
X101012548Y-68002129D01*
X101009780Y-67975862D01*
X101009780Y-67047258D01*
X101029782Y-66979137D01*
X101083438Y-66932644D01*
X101153712Y-66922540D01*
X101218292Y-66952034D01*
X101236328Y-66971324D01*
X101247516Y-66986139D01*
X101398239Y-67123541D01*
X101571643Y-67230908D01*
X101676280Y-67271444D01*
X101756397Y-67302482D01*
X101756401Y-67302483D01*
X101761824Y-67304584D01*
X101962304Y-67342060D01*
X102166256Y-67342060D01*
X102366736Y-67304584D01*
X102372159Y-67302483D01*
X102372163Y-67302482D01*
X102452280Y-67271444D01*
X102556917Y-67230908D01*
X102730321Y-67123541D01*
X102881044Y-66986139D01*
X103003953Y-66823381D01*
X103048364Y-66734191D01*
X103092269Y-66646018D01*
X103092270Y-66646016D01*
X103094862Y-66640810D01*
X103096230Y-66636002D01*
X103097149Y-66633420D01*
X103097408Y-66632751D01*
X103097599Y-66632154D01*
X103154698Y-66471706D01*
X103154703Y-66471690D01*
X103154991Y-66470882D01*
X103159999Y-66455540D01*
X103160352Y-66454353D01*
X103164557Y-66438705D01*
X103202000Y-66283014D01*
X103205085Y-66268678D01*
X103205292Y-66267590D01*
X103207629Y-66253527D01*
X103210778Y-66231400D01*
X103223038Y-66145236D01*
X103227196Y-66116013D01*
X103227254Y-66115552D01*
X103227263Y-66115489D01*
X103228300Y-66107309D01*
X103228364Y-66106807D01*
X103228444Y-66106089D01*
X103229356Y-66096551D01*
X103239272Y-65972239D01*
X103239424Y-65970242D01*
X103240834Y-65950974D01*
X103246880Y-65868346D01*
X103247713Y-65860417D01*
X103257277Y-65790699D01*
X103260538Y-65774707D01*
X103273931Y-65725540D01*
X103281138Y-65705771D01*
X103304626Y-65654989D01*
X103314800Y-65637024D01*
X103354032Y-65579348D01*
X103363622Y-65565250D01*
X103374058Y-65551930D01*
X103472185Y-65442694D01*
X103475928Y-65436573D01*
X103494329Y-65413211D01*
X103551112Y-65356433D01*
X103554023Y-65353522D01*
X103707683Y-65153279D01*
X103833892Y-64934693D01*
X103930490Y-64701503D01*
X103995824Y-64457700D01*
X104028776Y-64207454D01*
X104028779Y-64114735D01*
X104028780Y-64114728D01*
X104028780Y-64070651D01*
X104028782Y-64020074D01*
X104028780Y-64020067D01*
X104028780Y-58848754D01*
X104048782Y-58780633D01*
X104102438Y-58734140D01*
X104172712Y-58724036D01*
X104231484Y-58748791D01*
X104299762Y-58801184D01*
X104307391Y-58804344D01*
X104419969Y-58850975D01*
X104419973Y-58850976D01*
X104427597Y-58854134D01*
X104435777Y-58855211D01*
X104435781Y-58855212D01*
X104556592Y-58871117D01*
X104564780Y-58872195D01*
X104572968Y-58871117D01*
X104693779Y-58855212D01*
X104693783Y-58855211D01*
X104701963Y-58854134D01*
X104709587Y-58850976D01*
X104709591Y-58850975D01*
X104822169Y-58804344D01*
X104829798Y-58801184D01*
X104939571Y-58716951D01*
X104980096Y-58664138D01*
X105018778Y-58613728D01*
X105023804Y-58607178D01*
X105026964Y-58599549D01*
X105073595Y-58486971D01*
X105073596Y-58486967D01*
X105076754Y-58479343D01*
X105077831Y-58471163D01*
X105077832Y-58471159D01*
X105093737Y-58350348D01*
X105094815Y-58342160D01*
X105076754Y-58204977D01*
X105023804Y-58077143D01*
X104959700Y-57993601D01*
X104944600Y-57973922D01*
X104944597Y-57973919D01*
X104939571Y-57967369D01*
X104931441Y-57961130D01*
X104836348Y-57888162D01*
X104829798Y-57883136D01*
X104822169Y-57879976D01*
X104709591Y-57833345D01*
X104709587Y-57833344D01*
X104701963Y-57830186D01*
X104693783Y-57829109D01*
X104693779Y-57829108D01*
X104572968Y-57813203D01*
X104564780Y-57812125D01*
X104427597Y-57830186D01*
X104299763Y-57883136D01*
X104231482Y-57935530D01*
X104165264Y-57961130D01*
X104095716Y-57946866D01*
X104044919Y-57897265D01*
X104028780Y-57835567D01*
X104028780Y-55930289D01*
X104048782Y-55862168D01*
X104102438Y-55815675D01*
X104171227Y-55805367D01*
X104238280Y-55814195D01*
X104246468Y-55813117D01*
X104367279Y-55797212D01*
X104367283Y-55797211D01*
X104375463Y-55796134D01*
X104383087Y-55792976D01*
X104383091Y-55792975D01*
X104495669Y-55746344D01*
X104503298Y-55743184D01*
X104613071Y-55658951D01*
X104697304Y-55549178D01*
X104705020Y-55530549D01*
X104747095Y-55428971D01*
X104747096Y-55428967D01*
X104750254Y-55421343D01*
X104751331Y-55413163D01*
X104751332Y-55413159D01*
X104767237Y-55292348D01*
X104768315Y-55284160D01*
X104750254Y-55146977D01*
X104697304Y-55019143D01*
X104694269Y-55015187D01*
X104677888Y-54947665D01*
X104694147Y-54892293D01*
X104697304Y-54888178D01*
X104700465Y-54880547D01*
X104747095Y-54767971D01*
X104747096Y-54767967D01*
X104750254Y-54760343D01*
X104751331Y-54752163D01*
X104751332Y-54752159D01*
X104767237Y-54631348D01*
X104768315Y-54623160D01*
X104750254Y-54485977D01*
X104697304Y-54358143D01*
X104696962Y-54357698D01*
X104681063Y-54292168D01*
X104696675Y-54238997D01*
X104697304Y-54238178D01*
X104700465Y-54230547D01*
X104747095Y-54117971D01*
X104747096Y-54117967D01*
X104750254Y-54110343D01*
X104751331Y-54102163D01*
X104751332Y-54102159D01*
X104767237Y-53981348D01*
X104768315Y-53973160D01*
X104750254Y-53835977D01*
X104697304Y-53708143D01*
X104696962Y-53707698D01*
X104681063Y-53642168D01*
X104696675Y-53588997D01*
X104697304Y-53588178D01*
X104700465Y-53580547D01*
X104747095Y-53467971D01*
X104747096Y-53467967D01*
X104750254Y-53460343D01*
X104751331Y-53452163D01*
X104751332Y-53452159D01*
X104767237Y-53331348D01*
X104768315Y-53323160D01*
X104750254Y-53185977D01*
X104729281Y-53135344D01*
X104700464Y-53065771D01*
X104700463Y-53065768D01*
X104697304Y-53058143D01*
X104696962Y-53057698D01*
X104681063Y-52992168D01*
X104696675Y-52938997D01*
X104697304Y-52938178D01*
X104715388Y-52894519D01*
X104747095Y-52817971D01*
X104747096Y-52817967D01*
X104750254Y-52810343D01*
X104751331Y-52802163D01*
X104751332Y-52802159D01*
X104767237Y-52681348D01*
X104768315Y-52673160D01*
X104750254Y-52535977D01*
X104697304Y-52408143D01*
X104696962Y-52407698D01*
X104681063Y-52342168D01*
X104696675Y-52288997D01*
X104697304Y-52288178D01*
X104700465Y-52280547D01*
X104747095Y-52167971D01*
X104747096Y-52167967D01*
X104750254Y-52160343D01*
X104751331Y-52152163D01*
X104751332Y-52152159D01*
X104767237Y-52031348D01*
X104768315Y-52023160D01*
X104750254Y-51885977D01*
X104718286Y-51808799D01*
X104700464Y-51765771D01*
X104700463Y-51765768D01*
X104697304Y-51758143D01*
X104696962Y-51757698D01*
X104681063Y-51692168D01*
X104696675Y-51638997D01*
X104697304Y-51638178D01*
X104740047Y-51534986D01*
X104747095Y-51517971D01*
X104747096Y-51517967D01*
X104750254Y-51510343D01*
X104751331Y-51502163D01*
X104751332Y-51502159D01*
X104767237Y-51381348D01*
X104768315Y-51373160D01*
X104750254Y-51235977D01*
X104721207Y-51165850D01*
X104700464Y-51115771D01*
X104700463Y-51115768D01*
X104697304Y-51108143D01*
X104696962Y-51107698D01*
X104681063Y-51042168D01*
X104696675Y-50988997D01*
X104697304Y-50988178D01*
X104700465Y-50980547D01*
X104747095Y-50867971D01*
X104747096Y-50867967D01*
X104750254Y-50860343D01*
X104751331Y-50852163D01*
X104751332Y-50852159D01*
X104767237Y-50731348D01*
X104768315Y-50723160D01*
X104750254Y-50585977D01*
X104697304Y-50458143D01*
X104635636Y-50377776D01*
X104618100Y-50354922D01*
X104618097Y-50354919D01*
X104613071Y-50348369D01*
X104503298Y-50264136D01*
X104495669Y-50260976D01*
X104383091Y-50214345D01*
X104383087Y-50214344D01*
X104375463Y-50211186D01*
X104283093Y-50199025D01*
X104218166Y-50170302D01*
X104179075Y-50111037D01*
X104178230Y-50040046D01*
X104192108Y-50008267D01*
X104228818Y-49948363D01*
X104240438Y-49932369D01*
X104327641Y-49830268D01*
X104348411Y-49811954D01*
X104348102Y-49811571D01*
X104352925Y-49807674D01*
X104358094Y-49804278D01*
X104382249Y-49780492D01*
X104384431Y-49778396D01*
X104404717Y-49759390D01*
X104408626Y-49755879D01*
X104418087Y-49747732D01*
X104446729Y-49729169D01*
X104454971Y-49725297D01*
X104459093Y-49723450D01*
X104462892Y-49721829D01*
X104482052Y-49713653D01*
X104483662Y-49712980D01*
X104519967Y-49698106D01*
X104520027Y-49698081D01*
X104520159Y-49698027D01*
X104556520Y-49683110D01*
X104567928Y-49675545D01*
X104589344Y-49664147D01*
X104590547Y-49663649D01*
X104630298Y-49647184D01*
X104740071Y-49562951D01*
X104824304Y-49453178D01*
X104827464Y-49445549D01*
X104874095Y-49332971D01*
X104874096Y-49332967D01*
X104877254Y-49325343D01*
X104878331Y-49317163D01*
X104878332Y-49317159D01*
X104894237Y-49196348D01*
X104895315Y-49188160D01*
X104877254Y-49050977D01*
X104824304Y-48923143D01*
X104782187Y-48868256D01*
X104745100Y-48819922D01*
X104745097Y-48819919D01*
X104740071Y-48813369D01*
X104630298Y-48729136D01*
X104555058Y-48697971D01*
X104510091Y-48679345D01*
X104510087Y-48679344D01*
X104502463Y-48676186D01*
X104494280Y-48675109D01*
X104486298Y-48672970D01*
X104486744Y-48671307D01*
X104430857Y-48646579D01*
X104391769Y-48587311D01*
X104387005Y-48555513D01*
X104387315Y-48553160D01*
X104369254Y-48415977D01*
X104316304Y-48288143D01*
X104274187Y-48233256D01*
X104237100Y-48184922D01*
X104237097Y-48184919D01*
X104232071Y-48178369D01*
X104179783Y-48138246D01*
X104128848Y-48099162D01*
X104122298Y-48094136D01*
X104114669Y-48090976D01*
X104002091Y-48044345D01*
X104002087Y-48044344D01*
X103994463Y-48041186D01*
X103986283Y-48040109D01*
X103986279Y-48040108D01*
X103865468Y-48024203D01*
X103857280Y-48023125D01*
X103720097Y-48041186D01*
X103592263Y-48094136D01*
X103482489Y-48178369D01*
X103398256Y-48288143D01*
X103345306Y-48415977D01*
X103327245Y-48553160D01*
X103328323Y-48561348D01*
X103344228Y-48682159D01*
X103344229Y-48682163D01*
X103345306Y-48690343D01*
X103348464Y-48697967D01*
X103348465Y-48697971D01*
X103360065Y-48725976D01*
X103398256Y-48818178D01*
X103482489Y-48927951D01*
X103592262Y-49012184D01*
X103663593Y-49041730D01*
X103718873Y-49086277D01*
X103741294Y-49153640D01*
X103723736Y-49222431D01*
X103704469Y-49247234D01*
X103655422Y-49296280D01*
X103652512Y-49299190D01*
X103498857Y-49499437D01*
X103372652Y-49718027D01*
X103371078Y-49721827D01*
X103371077Y-49721829D01*
X103356973Y-49755879D01*
X103276059Y-49951219D01*
X103274992Y-49955201D01*
X103217354Y-50170302D01*
X103210729Y-50195025D01*
X103210191Y-50199111D01*
X103210190Y-50199116D01*
X103191201Y-50343342D01*
X103177781Y-50445271D01*
X103177780Y-50571474D01*
X103177779Y-50632652D01*
X103177780Y-50632655D01*
X103177780Y-62939847D01*
X103157778Y-63007968D01*
X103104122Y-63054461D01*
X103033848Y-63064565D01*
X102969268Y-63035071D01*
X102945937Y-63008209D01*
X102902483Y-62940930D01*
X102882017Y-62909243D01*
X102872479Y-62895335D01*
X102871717Y-62894287D01*
X102861345Y-62880824D01*
X102769055Y-62767700D01*
X102768702Y-62767283D01*
X102762050Y-62759435D01*
X102762015Y-62759395D01*
X102761645Y-62758958D01*
X102761086Y-62758323D01*
X102753331Y-62749841D01*
X102662547Y-62654220D01*
X102659230Y-62650780D01*
X102636203Y-62627273D01*
X102582143Y-62572088D01*
X102577013Y-62566526D01*
X102526948Y-62508869D01*
X102516680Y-62495290D01*
X102488209Y-62451817D01*
X102477423Y-62431522D01*
X102456844Y-62382459D01*
X102449886Y-62360360D01*
X102432118Y-62278196D01*
X102429502Y-62259191D01*
X102420733Y-62114584D01*
X102420733Y-62114583D01*
X102420387Y-62108879D01*
X102419020Y-62103336D01*
X102419018Y-62103324D01*
X102418947Y-62103038D01*
X102418841Y-62102163D01*
X102418158Y-62097682D01*
X102418294Y-62097661D01*
X102415280Y-62072863D01*
X102415280Y-48412516D01*
X102435282Y-48344395D01*
X102488938Y-48297902D01*
X102547912Y-48289064D01*
X102547912Y-48287389D01*
X102556171Y-48287389D01*
X102564359Y-48288467D01*
X102572547Y-48287389D01*
X102693358Y-48271484D01*
X102693362Y-48271483D01*
X102701542Y-48270406D01*
X102709166Y-48267248D01*
X102709170Y-48267247D01*
X102821748Y-48220616D01*
X102829377Y-48217456D01*
X102939150Y-48133223D01*
X103007348Y-48044347D01*
X103018357Y-48030000D01*
X103023383Y-48023450D01*
X103026543Y-48015821D01*
X103073174Y-47903243D01*
X103073175Y-47903239D01*
X103076333Y-47895615D01*
X103077410Y-47887435D01*
X103077411Y-47887431D01*
X103093316Y-47766620D01*
X103094394Y-47758432D01*
X103076333Y-47621249D01*
X103023383Y-47493415D01*
X102981267Y-47438528D01*
X102944179Y-47390194D01*
X102944176Y-47390191D01*
X102939150Y-47383641D01*
X102829377Y-47299408D01*
X102821748Y-47296248D01*
X102709170Y-47249617D01*
X102709166Y-47249616D01*
X102701542Y-47246458D01*
X102693362Y-47245381D01*
X102693358Y-47245380D01*
X102572547Y-47229475D01*
X102564359Y-47228397D01*
X102556171Y-47229475D01*
X102547912Y-47229475D01*
X102547912Y-47227740D01*
X102487576Y-47218330D01*
X102434478Y-47171201D01*
X102415280Y-47104348D01*
X102415280Y-45828074D01*
X102418194Y-45803725D01*
X102418157Y-45803720D01*
X102418407Y-45801947D01*
X102418838Y-45798344D01*
X102419020Y-45797594D01*
X102419020Y-45797591D01*
X102419369Y-45796157D01*
X102420483Y-45791569D01*
X102421128Y-45791726D01*
X102441043Y-45741545D01*
X102447171Y-45732882D01*
X102450691Y-45727797D01*
X102450943Y-45727425D01*
X102454005Y-45722815D01*
X102454099Y-45722671D01*
X102454147Y-45722598D01*
X102474026Y-45692075D01*
X102474277Y-45691690D01*
X102479840Y-45682822D01*
X102480248Y-45682146D01*
X102485351Y-45673364D01*
X102506368Y-45635771D01*
X102511954Y-45625307D01*
X102512371Y-45624488D01*
X102517671Y-45613545D01*
X102534235Y-45577537D01*
X102539142Y-45566278D01*
X102541732Y-45553893D01*
X102548655Y-45531468D01*
X102562693Y-45497577D01*
X102562695Y-45497569D01*
X102565854Y-45489943D01*
X102574937Y-45420957D01*
X102582837Y-45360948D01*
X102583915Y-45352760D01*
X102583288Y-45347994D01*
X102583361Y-45346510D01*
X102584389Y-45341361D01*
X102584425Y-45295539D01*
X102584546Y-45249387D01*
X102584726Y-45210222D01*
X102584776Y-45210222D01*
X102584727Y-45209992D01*
X102584741Y-45207946D01*
X102584948Y-45175578D01*
X102585148Y-45148965D01*
X102585426Y-45111877D01*
X102585427Y-45111694D01*
X102585427Y-45111676D01*
X102585430Y-45111359D01*
X102585652Y-45076714D01*
X102585655Y-45076164D01*
X102585838Y-45036449D01*
X102585840Y-45035842D01*
X102585964Y-44988522D01*
X102585965Y-44987968D01*
X102586002Y-44942218D01*
X102583418Y-44929186D01*
X102581011Y-44904678D01*
X102581011Y-43368642D01*
X102585148Y-43336620D01*
X102587520Y-43327595D01*
X102613115Y-43230187D01*
X102614358Y-43225457D01*
X102620478Y-43207683D01*
X102679578Y-43070314D01*
X102688275Y-43053649D01*
X102767145Y-42926616D01*
X102778225Y-42911429D01*
X102877967Y-42794196D01*
X102884838Y-42786749D01*
X103524493Y-42147094D01*
X103524576Y-42146980D01*
X103524762Y-42146778D01*
X103587112Y-42084433D01*
X103590023Y-42081522D01*
X103743683Y-41881279D01*
X103869892Y-41662693D01*
X103890773Y-41612287D01*
X103920023Y-41541676D01*
X103966490Y-41429503D01*
X104031824Y-41185700D01*
X104064776Y-40935454D01*
X104064779Y-40842735D01*
X104064780Y-40842728D01*
X104064780Y-40809141D01*
X104064782Y-40748074D01*
X104064780Y-40748067D01*
X104064780Y-37377160D01*
X104784065Y-37377160D01*
X104802883Y-37580243D01*
X104858698Y-37776410D01*
X104949607Y-37958981D01*
X105072516Y-38121739D01*
X105223239Y-38259141D01*
X105228190Y-38262207D01*
X105228192Y-38262208D01*
X105244343Y-38272208D01*
X105396643Y-38366508D01*
X105501280Y-38407044D01*
X105581397Y-38438082D01*
X105581401Y-38438083D01*
X105586824Y-38440184D01*
X105787304Y-38477660D01*
X105991256Y-38477660D01*
X106191736Y-38440184D01*
X106197159Y-38438083D01*
X106197163Y-38438082D01*
X106277280Y-38407044D01*
X106381917Y-38366508D01*
X106534217Y-38272208D01*
X106550368Y-38262208D01*
X106550370Y-38262207D01*
X106555321Y-38259141D01*
X106706044Y-38121739D01*
X106828953Y-37958981D01*
X106919862Y-37776410D01*
X106975677Y-37580243D01*
X106994495Y-37377160D01*
X106975677Y-37174077D01*
X106955925Y-37104655D01*
X106946625Y-37071972D01*
X106919862Y-36977910D01*
X106828953Y-36795339D01*
X106706044Y-36632581D01*
X106555321Y-36495179D01*
X106381917Y-36387812D01*
X106266171Y-36342972D01*
X106197163Y-36316238D01*
X106197159Y-36316237D01*
X106191736Y-36314136D01*
X105991256Y-36276660D01*
X105787304Y-36276660D01*
X105586824Y-36314136D01*
X105581401Y-36316237D01*
X105581397Y-36316238D01*
X105512389Y-36342972D01*
X105396643Y-36387812D01*
X105223239Y-36495179D01*
X105072516Y-36632581D01*
X104949607Y-36795339D01*
X104858698Y-36977910D01*
X104831935Y-37071972D01*
X104822636Y-37104655D01*
X104802883Y-37174077D01*
X104784065Y-37377160D01*
X104064780Y-37377160D01*
X104064780Y-37104655D01*
X104064781Y-37104652D01*
X104064780Y-37043561D01*
X104064789Y-37043474D01*
X104064799Y-37043474D01*
X104064797Y-36917270D01*
X104031847Y-36667020D01*
X103966515Y-36423212D01*
X103957266Y-36400883D01*
X103871496Y-36193827D01*
X103871495Y-36193825D01*
X103869918Y-36190018D01*
X103743710Y-35971427D01*
X103590049Y-35771180D01*
X103525208Y-35706340D01*
X103510362Y-35687280D01*
X103510163Y-35687427D01*
X103506486Y-35682450D01*
X103503312Y-35677134D01*
X103400178Y-35562932D01*
X103390176Y-35550321D01*
X103336214Y-35472559D01*
X103326274Y-35455530D01*
X103298966Y-35398997D01*
X103291636Y-35380058D01*
X103275713Y-35326434D01*
X103272137Y-35310811D01*
X103268385Y-35287763D01*
X103260356Y-35238432D01*
X103259312Y-35230396D01*
X103257908Y-35215950D01*
X103249193Y-35126317D01*
X103249103Y-35125405D01*
X103236361Y-34998313D01*
X103235311Y-34989213D01*
X103235230Y-34988593D01*
X103234071Y-34980556D01*
X103213887Y-34852635D01*
X108371763Y-34852635D01*
X108390752Y-35069679D01*
X108392655Y-35080472D01*
X108449044Y-35290921D01*
X108452790Y-35301213D01*
X108544866Y-35498671D01*
X108550349Y-35508166D01*
X108586789Y-35560208D01*
X108597268Y-35568584D01*
X108610714Y-35561516D01*
X109312258Y-34859972D01*
X109319872Y-34846028D01*
X109319741Y-34844195D01*
X109315490Y-34837580D01*
X108609993Y-34132083D01*
X108598218Y-34125653D01*
X108586203Y-34134949D01*
X108550349Y-34186154D01*
X108544866Y-34195649D01*
X108452790Y-34393107D01*
X108449044Y-34403399D01*
X108392655Y-34613848D01*
X108390752Y-34624641D01*
X108371763Y-34841685D01*
X108371763Y-34852635D01*
X103213887Y-34852635D01*
X103211838Y-34839646D01*
X103209373Y-34826031D01*
X103209167Y-34825024D01*
X103206239Y-34812138D01*
X103170533Y-34669354D01*
X103166467Y-34653094D01*
X103166463Y-34653079D01*
X103166279Y-34652343D01*
X103162289Y-34637903D01*
X103161951Y-34636787D01*
X103161702Y-34636034D01*
X103157336Y-34622830D01*
X103157322Y-34622788D01*
X103157095Y-34622103D01*
X103156856Y-34621438D01*
X103156829Y-34621359D01*
X103097487Y-34456088D01*
X103097465Y-34456019D01*
X103097386Y-34455807D01*
X103097197Y-34455281D01*
X103096051Y-34452089D01*
X103094862Y-34447910D01*
X103093316Y-34444805D01*
X103089938Y-34436045D01*
X103086364Y-34430542D01*
X103083383Y-34424704D01*
X103083414Y-34424688D01*
X103082518Y-34423119D01*
X103006549Y-34270553D01*
X103003953Y-34265339D01*
X102881044Y-34102581D01*
X102730321Y-33965179D01*
X102556917Y-33857812D01*
X102519591Y-33843352D01*
X102463296Y-33800092D01*
X102439325Y-33733265D01*
X102455289Y-33664086D01*
X102506119Y-33614521D01*
X102565107Y-33599860D01*
X108838389Y-33599860D01*
X108906510Y-33619862D01*
G37*
%TD.AperFunction*%
%TA.AperFunction,Conductor*%
G36*
X103177249Y-40518338D02*
G01*
X103211012Y-40580792D01*
X103213780Y-40607058D01*
X103213780Y-40804281D01*
X103213391Y-40814170D01*
X103205169Y-40918613D01*
X103201326Y-40967424D01*
X103198234Y-40986948D01*
X103172069Y-41095920D01*
X103163497Y-41131618D01*
X103157387Y-41150421D01*
X103100450Y-41287869D01*
X103091473Y-41305485D01*
X103013736Y-41432334D01*
X103002119Y-41448324D01*
X102913714Y-41551827D01*
X102901987Y-41565557D01*
X102895273Y-41572819D01*
X102855814Y-41612275D01*
X102855810Y-41612283D01*
X102855806Y-41612287D01*
X102320516Y-42147576D01*
X102319958Y-42148062D01*
X102319021Y-42148581D01*
X102316898Y-42150729D01*
X102316892Y-42150734D01*
X102277126Y-42190964D01*
X102276611Y-42191481D01*
X102254066Y-42214026D01*
X102253379Y-42214973D01*
X102252772Y-42215633D01*
X102195465Y-42273657D01*
X102195457Y-42273666D01*
X102192829Y-42276327D01*
X102190533Y-42279285D01*
X102190529Y-42279289D01*
X102049944Y-42460373D01*
X102047630Y-42463354D01*
X101925757Y-42666353D01*
X101828945Y-42882431D01*
X101827828Y-42886018D01*
X101827827Y-42886022D01*
X101781063Y-43036262D01*
X101758576Y-43108506D01*
X101751940Y-43144414D01*
X101748897Y-43160881D01*
X101747907Y-43164781D01*
X101745792Y-43168932D01*
X101744241Y-43178725D01*
X101744240Y-43178728D01*
X101736335Y-43228639D01*
X101735798Y-43231770D01*
X101730386Y-43261132D01*
X101725970Y-43285085D01*
X101726900Y-43294052D01*
X101729339Y-43317579D01*
X101730011Y-43330573D01*
X101730011Y-44856454D01*
X101710009Y-44924575D01*
X101696099Y-44942453D01*
X101691282Y-44947611D01*
X101690673Y-44948289D01*
X101682872Y-44957323D01*
X101682550Y-44957711D01*
X101682511Y-44957757D01*
X101665500Y-44978253D01*
X101658735Y-44986404D01*
X101658197Y-44987091D01*
X101650114Y-44997412D01*
X101648046Y-45000052D01*
X101647253Y-45001126D01*
X101646724Y-45001887D01*
X101646722Y-45001890D01*
X101642933Y-45007343D01*
X101637237Y-45015539D01*
X101613634Y-45051679D01*
X101603633Y-45068099D01*
X101602907Y-45069380D01*
X101602455Y-45070239D01*
X101602452Y-45070245D01*
X101599241Y-45076351D01*
X101593952Y-45086409D01*
X101576680Y-45121927D01*
X101570228Y-45136103D01*
X101568803Y-45142573D01*
X101568801Y-45142578D01*
X101567394Y-45148965D01*
X101560755Y-45170070D01*
X101549898Y-45196282D01*
X101541906Y-45215577D01*
X101523845Y-45352760D01*
X101524774Y-45359813D01*
X101524585Y-45364449D01*
X101523623Y-45369750D01*
X101523727Y-45375935D01*
X101523727Y-45375938D01*
X101523782Y-45379201D01*
X101524424Y-45417293D01*
X101524571Y-45422931D01*
X101524587Y-45423384D01*
X101524869Y-45429574D01*
X101524896Y-45430055D01*
X101527328Y-45473758D01*
X101527572Y-45478147D01*
X101528015Y-45484794D01*
X101528053Y-45485284D01*
X101528591Y-45491424D01*
X101528607Y-45491583D01*
X101528610Y-45491620D01*
X101532511Y-45531468D01*
X101532563Y-45532003D01*
X101533124Y-45537260D01*
X101533175Y-45537702D01*
X101533967Y-45543994D01*
X101533997Y-45544213D01*
X101538545Y-45577537D01*
X101538808Y-45579466D01*
X101539439Y-45583856D01*
X101539480Y-45584127D01*
X101539510Y-45584317D01*
X101539891Y-45586760D01*
X101539950Y-45587137D01*
X101549697Y-45647899D01*
X101550131Y-45650819D01*
X101553221Y-45673462D01*
X101553779Y-45678228D01*
X101556118Y-45702130D01*
X101556522Y-45707397D01*
X101558281Y-45738993D01*
X101558458Y-45743872D01*
X101559129Y-45783661D01*
X101560840Y-45791726D01*
X101561538Y-45795018D01*
X101564280Y-45821161D01*
X101564280Y-62078157D01*
X101561361Y-62102490D01*
X101561410Y-62102497D01*
X101561088Y-62104772D01*
X101560706Y-62107953D01*
X101559079Y-62114638D01*
X101552672Y-62265713D01*
X101552594Y-62267542D01*
X101551307Y-62280932D01*
X101542239Y-62341232D01*
X101536332Y-62380510D01*
X101532745Y-62396870D01*
X101519606Y-62442164D01*
X101513577Y-62462949D01*
X101507389Y-62479726D01*
X101497132Y-62502426D01*
X101483526Y-62532537D01*
X101476552Y-62545805D01*
X101440660Y-62605218D01*
X101435999Y-62612374D01*
X101380818Y-62691120D01*
X101380185Y-62692015D01*
X101310567Y-62789546D01*
X101310518Y-62789616D01*
X101310352Y-62789848D01*
X101307086Y-62794515D01*
X101306826Y-62794894D01*
X101306562Y-62795287D01*
X101306559Y-62795292D01*
X101303546Y-62799783D01*
X101303495Y-62799860D01*
X101303273Y-62800191D01*
X101241146Y-62894934D01*
X101187065Y-62940930D01*
X101116701Y-62950387D01*
X101052395Y-62920301D01*
X101014562Y-62860224D01*
X101009780Y-62825840D01*
X101009780Y-40732858D01*
X101029782Y-40664737D01*
X101083438Y-40618244D01*
X101153712Y-40608140D01*
X101218292Y-40637634D01*
X101236328Y-40656924D01*
X101247516Y-40671739D01*
X101398239Y-40809141D01*
X101571643Y-40916508D01*
X101676280Y-40957044D01*
X101756397Y-40988082D01*
X101756401Y-40988083D01*
X101761824Y-40990184D01*
X101962304Y-41027660D01*
X102166256Y-41027660D01*
X102366736Y-40990184D01*
X102372159Y-40988083D01*
X102372163Y-40988082D01*
X102452280Y-40957044D01*
X102556917Y-40916508D01*
X102730321Y-40809141D01*
X102881044Y-40671739D01*
X102987230Y-40531126D01*
X103044244Y-40488818D01*
X103115080Y-40484051D01*
X103177249Y-40518338D01*
G37*
%TD.AperFunction*%
%TA.AperFunction,Conductor*%
G36*
X108127853Y-45301246D02*
G01*
X108164262Y-45329184D01*
X108211868Y-45348903D01*
X108230943Y-45358788D01*
X108239445Y-45364160D01*
X108239453Y-45364164D01*
X108244681Y-45367467D01*
X108265643Y-45375528D01*
X108272776Y-45378169D01*
X108273329Y-45378366D01*
X108273565Y-45378447D01*
X108273746Y-45378510D01*
X108278059Y-45379985D01*
X108336040Y-45420957D01*
X108362665Y-45486772D01*
X108363280Y-45499203D01*
X108363280Y-59773222D01*
X108343278Y-59841343D01*
X108289622Y-59887836D01*
X108219348Y-59897940D01*
X108154768Y-59868446D01*
X108148185Y-59862317D01*
X107622752Y-59336884D01*
X107622750Y-59336881D01*
X107582998Y-59297129D01*
X107576283Y-59289866D01*
X107476425Y-59172951D01*
X107464803Y-59156955D01*
X107387066Y-59030103D01*
X107378090Y-59012487D01*
X107321151Y-58875031D01*
X107315041Y-58856228D01*
X107280306Y-58711560D01*
X107277213Y-58692032D01*
X107265169Y-58539049D01*
X107264780Y-58529160D01*
X107264780Y-55910600D01*
X107284782Y-55842479D01*
X107338438Y-55795986D01*
X107407227Y-55785678D01*
X107532092Y-55802117D01*
X107540280Y-55803195D01*
X107548468Y-55802117D01*
X107669279Y-55786212D01*
X107669283Y-55786211D01*
X107677463Y-55785134D01*
X107685087Y-55781976D01*
X107685091Y-55781975D01*
X107797669Y-55735344D01*
X107805298Y-55732184D01*
X107915071Y-55647951D01*
X107999304Y-55538178D01*
X108002464Y-55530549D01*
X108049095Y-55417971D01*
X108049096Y-55417967D01*
X108052254Y-55410343D01*
X108053331Y-55402163D01*
X108053332Y-55402159D01*
X108069237Y-55281348D01*
X108070315Y-55273160D01*
X108052254Y-55135977D01*
X108007020Y-55026771D01*
X108002464Y-55015771D01*
X108002463Y-55015768D01*
X107999304Y-55008143D01*
X107998962Y-55007698D01*
X107983063Y-54942168D01*
X107998675Y-54888997D01*
X107999304Y-54888178D01*
X108002465Y-54880547D01*
X108049095Y-54767971D01*
X108049096Y-54767967D01*
X108052254Y-54760343D01*
X108053331Y-54752163D01*
X108053332Y-54752159D01*
X108069237Y-54631348D01*
X108070315Y-54623160D01*
X108052254Y-54485977D01*
X107999304Y-54358143D01*
X107998962Y-54357698D01*
X107983063Y-54292168D01*
X107998675Y-54238997D01*
X107999304Y-54238178D01*
X108002465Y-54230547D01*
X108049095Y-54117971D01*
X108049096Y-54117967D01*
X108052254Y-54110343D01*
X108053331Y-54102163D01*
X108053332Y-54102159D01*
X108069237Y-53981348D01*
X108070315Y-53973160D01*
X108052254Y-53835977D01*
X107999304Y-53708143D01*
X107998962Y-53707698D01*
X107983063Y-53642168D01*
X107998675Y-53588997D01*
X107999304Y-53588178D01*
X108002465Y-53580547D01*
X108049095Y-53467971D01*
X108049096Y-53467967D01*
X108052254Y-53460343D01*
X108053331Y-53452163D01*
X108053332Y-53452159D01*
X108069237Y-53331348D01*
X108070315Y-53323160D01*
X108052254Y-53185977D01*
X107999304Y-53058143D01*
X107946819Y-52989743D01*
X107920100Y-52954922D01*
X107920097Y-52954919D01*
X107915071Y-52948369D01*
X107886891Y-52926745D01*
X107811848Y-52869162D01*
X107805298Y-52864136D01*
X107797669Y-52860976D01*
X107685091Y-52814345D01*
X107685087Y-52814344D01*
X107677463Y-52811186D01*
X107669283Y-52810109D01*
X107669279Y-52810108D01*
X107548468Y-52794203D01*
X107540280Y-52793125D01*
X107532092Y-52794203D01*
X107407227Y-52810642D01*
X107337078Y-52799703D01*
X107283979Y-52752575D01*
X107264780Y-52685720D01*
X107264780Y-52315198D01*
X107284782Y-52247077D01*
X107338438Y-52200584D01*
X107408712Y-52190480D01*
X107410656Y-52190879D01*
X107412817Y-52191774D01*
X107418963Y-52192583D01*
X107418967Y-52192584D01*
X107541812Y-52208757D01*
X107550000Y-52209835D01*
X107558188Y-52208757D01*
X107678999Y-52192852D01*
X107679003Y-52192851D01*
X107687183Y-52191774D01*
X107694807Y-52188616D01*
X107694811Y-52188615D01*
X107807389Y-52141984D01*
X107815018Y-52138824D01*
X107924791Y-52054591D01*
X108009024Y-51944818D01*
X108012184Y-51937189D01*
X108058815Y-51824611D01*
X108058816Y-51824607D01*
X108061974Y-51816983D01*
X108063051Y-51808803D01*
X108063052Y-51808799D01*
X108078957Y-51687988D01*
X108080035Y-51679800D01*
X108061974Y-51542617D01*
X108009024Y-51414783D01*
X107966907Y-51359896D01*
X107929820Y-51311562D01*
X107929817Y-51311559D01*
X107924791Y-51305009D01*
X107815018Y-51220776D01*
X107807389Y-51217616D01*
X107694811Y-51170985D01*
X107694807Y-51170984D01*
X107687183Y-51167826D01*
X107679003Y-51166749D01*
X107678999Y-51166748D01*
X107558188Y-51150843D01*
X107550000Y-51149765D01*
X107412817Y-51167826D01*
X107412557Y-51165850D01*
X107352418Y-51164420D01*
X107293621Y-51124628D01*
X107265671Y-51059364D01*
X107264780Y-51044402D01*
X107264780Y-45905254D01*
X107284782Y-45837133D01*
X107338438Y-45790640D01*
X107397333Y-45781816D01*
X107397333Y-45780117D01*
X107405592Y-45780117D01*
X107413780Y-45781195D01*
X107421968Y-45780117D01*
X107542779Y-45764212D01*
X107542783Y-45764211D01*
X107550963Y-45763134D01*
X107558587Y-45759976D01*
X107558591Y-45759975D01*
X107671169Y-45713344D01*
X107678798Y-45710184D01*
X107758083Y-45649346D01*
X107782025Y-45630974D01*
X107788571Y-45625951D01*
X107872804Y-45516178D01*
X107885511Y-45485500D01*
X107922595Y-45395971D01*
X107922596Y-45395967D01*
X107925754Y-45388343D01*
X107926831Y-45380160D01*
X107928970Y-45372178D01*
X107931491Y-45372854D01*
X107954958Y-45319823D01*
X108014227Y-45280739D01*
X108085219Y-45279902D01*
X108127853Y-45301246D01*
G37*
%TD.AperFunction*%
%TA.AperFunction,Conductor*%
G36*
X110732249Y-38064412D02*
G01*
X110766012Y-38126866D01*
X110768780Y-38153132D01*
X110768780Y-39161188D01*
X110748778Y-39229309D01*
X110695122Y-39275802D01*
X110624848Y-39285906D01*
X110560268Y-39256412D01*
X110542230Y-39237120D01*
X110504556Y-39187232D01*
X110501044Y-39182581D01*
X110350321Y-39045179D01*
X110176917Y-38937812D01*
X110072280Y-38897276D01*
X109992163Y-38866238D01*
X109992159Y-38866237D01*
X109986736Y-38864136D01*
X109786256Y-38826660D01*
X109582304Y-38826660D01*
X109381824Y-38864136D01*
X109376401Y-38866237D01*
X109376397Y-38866238D01*
X109296280Y-38897276D01*
X109191643Y-38937812D01*
X109018239Y-39045179D01*
X109013936Y-39049102D01*
X108977065Y-39082714D01*
X108913247Y-39113825D01*
X108858655Y-39107375D01*
X108867467Y-39131001D01*
X108852376Y-39200375D01*
X108842338Y-39215922D01*
X108744607Y-39345339D01*
X108653698Y-39527910D01*
X108597883Y-39724077D01*
X108579065Y-39927160D01*
X108597883Y-40130243D01*
X108653698Y-40326410D01*
X108744607Y-40508981D01*
X108867516Y-40671739D01*
X109018239Y-40809141D01*
X109191643Y-40916508D01*
X109296280Y-40957044D01*
X109376397Y-40988082D01*
X109376401Y-40988083D01*
X109381824Y-40990184D01*
X109582304Y-41027660D01*
X109786256Y-41027660D01*
X109986736Y-40990184D01*
X109992159Y-40988083D01*
X109992163Y-40988082D01*
X110072280Y-40957044D01*
X110176917Y-40916508D01*
X110350321Y-40809141D01*
X110501044Y-40671739D01*
X110542230Y-40617200D01*
X110599244Y-40574892D01*
X110670080Y-40570125D01*
X110732249Y-40604412D01*
X110766012Y-40666866D01*
X110768780Y-40693132D01*
X110768780Y-41701188D01*
X110748778Y-41769309D01*
X110695122Y-41815802D01*
X110624848Y-41825906D01*
X110560268Y-41796412D01*
X110542230Y-41777120D01*
X110504556Y-41727232D01*
X110501044Y-41722581D01*
X110350321Y-41585179D01*
X110324182Y-41568994D01*
X110280061Y-41541676D01*
X110176917Y-41477812D01*
X110041935Y-41425520D01*
X109992163Y-41406238D01*
X109992159Y-41406237D01*
X109986736Y-41404136D01*
X109786256Y-41366660D01*
X109582304Y-41366660D01*
X109381824Y-41404136D01*
X109287215Y-41440788D01*
X109261167Y-41450879D01*
X109248096Y-41455139D01*
X109239421Y-41457451D01*
X109232202Y-41459375D01*
X109210939Y-41469825D01*
X109200903Y-41474225D01*
X109191643Y-41477812D01*
X109185153Y-41481830D01*
X109174403Y-41487781D01*
X109064740Y-41541676D01*
X109064724Y-41541684D01*
X109063762Y-41542157D01*
X109062824Y-41542658D01*
X109046538Y-41551352D01*
X109046520Y-41551362D01*
X109045649Y-41551827D01*
X109044282Y-41552617D01*
X109043414Y-41553159D01*
X109043392Y-41553172D01*
X109032630Y-41559890D01*
X109026692Y-41563596D01*
X108886462Y-41657875D01*
X108885684Y-41658434D01*
X108885672Y-41658442D01*
X108879752Y-41662693D01*
X108871146Y-41668873D01*
X108870018Y-41669737D01*
X108869304Y-41670319D01*
X108869278Y-41670340D01*
X108860291Y-41677672D01*
X108855509Y-41681573D01*
X108743691Y-41778647D01*
X108734185Y-41787256D01*
X108733463Y-41787938D01*
X108724123Y-41797148D01*
X108630401Y-41893620D01*
X108627714Y-41896422D01*
X108627535Y-41896611D01*
X108625537Y-41898740D01*
X108548403Y-41981758D01*
X108543323Y-41986919D01*
X108486573Y-42041360D01*
X108473148Y-42052558D01*
X108432346Y-42082044D01*
X108411273Y-42094356D01*
X108367548Y-42114502D01*
X108343812Y-42122684D01*
X108267645Y-42140689D01*
X108246972Y-42143792D01*
X108153204Y-42149982D01*
X108104022Y-42153228D01*
X108104019Y-42153228D01*
X108098360Y-42153602D01*
X108092860Y-42154982D01*
X108087253Y-42155863D01*
X108087215Y-42155623D01*
X108062634Y-42158660D01*
X106637968Y-42158660D01*
X106637645Y-42158637D01*
X106637187Y-42158504D01*
X106576400Y-42158660D01*
X106576010Y-42158660D01*
X106576010Y-42154850D01*
X106576001Y-42154851D01*
X106576010Y-42158643D01*
X106569111Y-42158660D01*
X106543612Y-42158660D01*
X106543243Y-42158719D01*
X106543109Y-42158724D01*
X106474274Y-42158894D01*
X106462785Y-42158922D01*
X106237929Y-42185743D01*
X106017696Y-42238442D01*
X106014270Y-42239697D01*
X106014262Y-42239699D01*
X105906150Y-42279289D01*
X105805055Y-42316309D01*
X105801791Y-42317955D01*
X105801792Y-42317955D01*
X105663116Y-42387906D01*
X105593287Y-42400727D01*
X105527611Y-42373760D01*
X105486941Y-42315567D01*
X105484189Y-42244623D01*
X105517275Y-42186313D01*
X108652693Y-39050895D01*
X108715005Y-39016869D01*
X108775345Y-39021185D01*
X108766219Y-38992774D01*
X108784498Y-38924171D01*
X108803084Y-38900504D01*
X108843783Y-38859805D01*
X108862910Y-38844867D01*
X108862798Y-38844716D01*
X108867763Y-38841029D01*
X108873073Y-38837842D01*
X108986811Y-38734631D01*
X108998789Y-38725025D01*
X109077450Y-38669462D01*
X109093644Y-38659756D01*
X109151227Y-38630867D01*
X109169407Y-38623457D01*
X109223116Y-38606310D01*
X109238391Y-38602467D01*
X109309299Y-38589275D01*
X109317437Y-38588035D01*
X109419267Y-38575910D01*
X109419294Y-38575915D01*
X109419293Y-38575907D01*
X109544416Y-38561037D01*
X109544760Y-38560992D01*
X109544773Y-38560990D01*
X109551847Y-38560057D01*
X109551871Y-38560054D01*
X109552202Y-38560010D01*
X109552802Y-38559923D01*
X109554901Y-38559591D01*
X109560235Y-38558746D01*
X109560274Y-38558740D01*
X109560688Y-38558674D01*
X109561069Y-38558609D01*
X109561133Y-38558598D01*
X109632356Y-38546362D01*
X109699680Y-38534796D01*
X109700267Y-38534683D01*
X109700281Y-38534680D01*
X109704917Y-38533784D01*
X109712160Y-38532384D01*
X109713109Y-38532180D01*
X109725414Y-38529267D01*
X109726056Y-38529101D01*
X109882672Y-38488587D01*
X109882683Y-38488584D01*
X109883375Y-38488405D01*
X109896965Y-38484552D01*
X109898005Y-38484231D01*
X109911869Y-38479586D01*
X109912523Y-38479349D01*
X109912544Y-38479342D01*
X110082237Y-38417929D01*
X110082260Y-38417920D01*
X110082891Y-38417692D01*
X110095796Y-38412688D01*
X110101272Y-38409121D01*
X110101276Y-38409119D01*
X110102795Y-38408129D01*
X110126050Y-38396215D01*
X110171473Y-38378618D01*
X110171483Y-38378613D01*
X110176917Y-38376508D01*
X110350321Y-38269141D01*
X110501044Y-38131739D01*
X110542230Y-38077200D01*
X110599244Y-38034892D01*
X110670080Y-38030125D01*
X110732249Y-38064412D01*
G37*
%TD.AperFunction*%
%TD*%
%TA.AperFunction,Conductor*%
%TO.N,/MA3*%
G36*
X108649550Y-80269255D02*
G01*
X108750660Y-80360565D01*
X108784255Y-80390905D01*
X108912535Y-80479922D01*
X108912950Y-80480123D01*
X108912951Y-80480123D01*
X109030547Y-80536927D01*
X109030550Y-80536928D01*
X109030972Y-80537132D01*
X109031418Y-80537264D01*
X109031422Y-80537266D01*
X109107792Y-80559944D01*
X109144399Y-80570814D01*
X109186768Y-80577710D01*
X109257457Y-80589216D01*
X109257469Y-80589218D01*
X109257650Y-80589247D01*
X109272373Y-80590679D01*
X109375523Y-80600708D01*
X109375558Y-80600711D01*
X109502645Y-80613453D01*
X109503274Y-80613534D01*
X109587026Y-80626750D01*
X109644162Y-80635766D01*
X109645176Y-80635972D01*
X109696356Y-80648770D01*
X109805000Y-80675938D01*
X109806098Y-80676271D01*
X109978888Y-80738313D01*
X109985515Y-80744333D01*
X109985748Y-80753789D01*
X109686842Y-81477774D01*
X109680494Y-81484122D01*
X108956509Y-81783028D01*
X108947554Y-81783017D01*
X108941032Y-81776167D01*
X108878994Y-81603387D01*
X108878655Y-81602271D01*
X108838692Y-81442456D01*
X108838486Y-81441442D01*
X108816256Y-81300568D01*
X108816171Y-81299911D01*
X108803431Y-81172838D01*
X108803428Y-81172803D01*
X108791986Y-81055126D01*
X108791967Y-81054930D01*
X108773534Y-80941679D01*
X108739852Y-80828252D01*
X108682642Y-80709815D01*
X108593625Y-80581535D01*
X108502041Y-80480123D01*
X108471975Y-80446830D01*
X108468973Y-80438393D01*
X108472385Y-80430715D01*
X108633435Y-80269665D01*
X108641708Y-80266238D01*
X108649550Y-80269255D01*
G37*
%TD.AperFunction*%
%TD*%
%TA.AperFunction,Conductor*%
%TO.N,/MA3*%
G36*
X105478171Y-79337798D02*
G01*
X105514428Y-79352960D01*
X105553517Y-79369327D01*
X105553572Y-79369349D01*
X105586655Y-79382643D01*
X105586684Y-79382654D01*
X105586746Y-79382679D01*
X105586802Y-79382699D01*
X105586825Y-79382708D01*
X105616057Y-79393252D01*
X105616062Y-79393254D01*
X105616210Y-79393307D01*
X105616373Y-79393355D01*
X105643794Y-79401440D01*
X105643799Y-79401441D01*
X105644005Y-79401502D01*
X105644204Y-79401545D01*
X105644213Y-79401547D01*
X105661243Y-79405199D01*
X105672226Y-79407555D01*
X105689591Y-79409928D01*
X105702791Y-79411732D01*
X105702797Y-79411733D01*
X105702968Y-79411756D01*
X105725750Y-79413457D01*
X105738204Y-79414387D01*
X105738215Y-79414388D01*
X105738328Y-79414396D01*
X105776033Y-79415625D01*
X105780307Y-79415764D01*
X105780310Y-79415764D01*
X105780400Y-79415767D01*
X105780463Y-79415767D01*
X105780486Y-79415768D01*
X105800435Y-79415922D01*
X105819671Y-79416070D01*
X105827917Y-79419561D01*
X105831280Y-79427770D01*
X105831280Y-79654549D01*
X105827853Y-79662822D01*
X105819670Y-79666249D01*
X105780486Y-79666551D01*
X105780463Y-79666552D01*
X105780400Y-79666552D01*
X105780310Y-79666555D01*
X105780307Y-79666555D01*
X105776033Y-79666694D01*
X105738328Y-79667923D01*
X105738215Y-79667931D01*
X105738204Y-79667932D01*
X105725750Y-79668862D01*
X105702968Y-79670563D01*
X105702797Y-79670586D01*
X105702791Y-79670587D01*
X105689591Y-79672391D01*
X105672226Y-79674764D01*
X105658115Y-79677791D01*
X105644209Y-79680773D01*
X105644203Y-79680775D01*
X105644005Y-79680817D01*
X105643795Y-79680879D01*
X105616392Y-79688957D01*
X105616381Y-79688961D01*
X105616210Y-79689011D01*
X105616050Y-79689069D01*
X105616043Y-79689071D01*
X105593547Y-79697186D01*
X105586746Y-79699639D01*
X105553517Y-79712992D01*
X105514433Y-79729357D01*
X105514428Y-79729359D01*
X105478171Y-79744522D01*
X105469216Y-79744553D01*
X105462866Y-79738250D01*
X105382175Y-79545682D01*
X105382175Y-79536638D01*
X105462866Y-79344070D01*
X105469224Y-79337764D01*
X105478171Y-79337798D01*
G37*
%TD.AperFunction*%
%TD*%
%TA.AperFunction,Conductor*%
%TO.N,/D0*%
G36*
X104266726Y-49146814D02*
G01*
X104361451Y-49185596D01*
X104367844Y-49191989D01*
X104401826Y-49274989D01*
X104446954Y-49385213D01*
X104446917Y-49394168D01*
X104440568Y-49400470D01*
X104404207Y-49415387D01*
X104364993Y-49431453D01*
X104332056Y-49445508D01*
X104331950Y-49445558D01*
X104303848Y-49458760D01*
X104303840Y-49458764D01*
X104303706Y-49458827D01*
X104303573Y-49458899D01*
X104303564Y-49458904D01*
X104278450Y-49472582D01*
X104278442Y-49472587D01*
X104278258Y-49472687D01*
X104278071Y-49472808D01*
X104254211Y-49488240D01*
X104254204Y-49488245D01*
X104254023Y-49488362D01*
X104229314Y-49507130D01*
X104229174Y-49507250D01*
X104229166Y-49507257D01*
X104213986Y-49520328D01*
X104202444Y-49530266D01*
X104171725Y-49559046D01*
X104171699Y-49559071D01*
X104171685Y-49559085D01*
X104143743Y-49586600D01*
X104135444Y-49589963D01*
X104127261Y-49586536D01*
X103966904Y-49426179D01*
X103963477Y-49417906D01*
X103966840Y-49409697D01*
X103994354Y-49381754D01*
X103994368Y-49381740D01*
X103994393Y-49381714D01*
X104023173Y-49350995D01*
X104046309Y-49324125D01*
X104065076Y-49299416D01*
X104080752Y-49275181D01*
X104094611Y-49249732D01*
X104107930Y-49221383D01*
X104121985Y-49188445D01*
X104138052Y-49149232D01*
X104152969Y-49112873D01*
X104159279Y-49106520D01*
X104168226Y-49106486D01*
X104266726Y-49146814D01*
G37*
%TD.AperFunction*%
%TD*%
%TA.AperFunction,Conductor*%
%TO.N,/~{WE}*%
G36*
X106044726Y-68740214D02*
G01*
X106139451Y-68778996D01*
X106145844Y-68785389D01*
X106179826Y-68868389D01*
X106224954Y-68978613D01*
X106224917Y-68987568D01*
X106218568Y-68993870D01*
X106182207Y-69008787D01*
X106142993Y-69024853D01*
X106110056Y-69038908D01*
X106109950Y-69038958D01*
X106081848Y-69052160D01*
X106081840Y-69052164D01*
X106081706Y-69052227D01*
X106081573Y-69052299D01*
X106081564Y-69052304D01*
X106056450Y-69065982D01*
X106056442Y-69065987D01*
X106056258Y-69066087D01*
X106056071Y-69066208D01*
X106032211Y-69081640D01*
X106032204Y-69081645D01*
X106032023Y-69081762D01*
X106007314Y-69100530D01*
X106007174Y-69100650D01*
X106007166Y-69100657D01*
X105991986Y-69113728D01*
X105980444Y-69123666D01*
X105949725Y-69152446D01*
X105949699Y-69152471D01*
X105949685Y-69152485D01*
X105921743Y-69180000D01*
X105913444Y-69183363D01*
X105905261Y-69179936D01*
X105744904Y-69019579D01*
X105741477Y-69011306D01*
X105744840Y-69003097D01*
X105772354Y-68975154D01*
X105772368Y-68975140D01*
X105772393Y-68975114D01*
X105801173Y-68944395D01*
X105824309Y-68917525D01*
X105843076Y-68892816D01*
X105858752Y-68868581D01*
X105872611Y-68843132D01*
X105885930Y-68814783D01*
X105899985Y-68781845D01*
X105916052Y-68742632D01*
X105930969Y-68706273D01*
X105937279Y-68699920D01*
X105946226Y-68699886D01*
X106044726Y-68740214D01*
G37*
%TD.AperFunction*%
%TD*%
%TA.AperFunction,Conductor*%
%TO.N,/~{RAS}*%
G36*
X106019326Y-70101814D02*
G01*
X106114051Y-70140596D01*
X106120444Y-70146989D01*
X106154426Y-70229989D01*
X106199554Y-70340213D01*
X106199517Y-70349168D01*
X106193168Y-70355470D01*
X106156807Y-70370387D01*
X106117593Y-70386453D01*
X106084656Y-70400508D01*
X106084550Y-70400558D01*
X106056448Y-70413760D01*
X106056440Y-70413764D01*
X106056306Y-70413827D01*
X106056173Y-70413899D01*
X106056164Y-70413904D01*
X106031050Y-70427582D01*
X106031042Y-70427587D01*
X106030858Y-70427687D01*
X106030671Y-70427808D01*
X106006811Y-70443240D01*
X106006804Y-70443245D01*
X106006623Y-70443362D01*
X105981914Y-70462130D01*
X105981774Y-70462250D01*
X105981766Y-70462257D01*
X105966586Y-70475328D01*
X105955044Y-70485266D01*
X105924325Y-70514046D01*
X105924299Y-70514071D01*
X105924285Y-70514085D01*
X105896343Y-70541600D01*
X105888044Y-70544963D01*
X105879861Y-70541536D01*
X105719504Y-70381179D01*
X105716077Y-70372906D01*
X105719440Y-70364697D01*
X105746954Y-70336754D01*
X105746968Y-70336740D01*
X105746993Y-70336714D01*
X105775773Y-70305995D01*
X105798909Y-70279125D01*
X105817676Y-70254416D01*
X105833352Y-70230181D01*
X105847211Y-70204732D01*
X105860530Y-70176383D01*
X105874585Y-70143445D01*
X105890652Y-70104232D01*
X105905569Y-70067873D01*
X105911879Y-70061520D01*
X105920826Y-70061486D01*
X106019326Y-70101814D01*
G37*
%TD.AperFunction*%
%TD*%
%TA.AperFunction,Conductor*%
%TO.N,/~{WE}*%
G36*
X102638214Y-70764899D02*
G01*
X102696775Y-70828965D01*
X102697393Y-70829700D01*
X102750233Y-70897997D01*
X102750621Y-70898528D01*
X102794189Y-70961904D01*
X102794282Y-70962042D01*
X102832673Y-71019622D01*
X102870021Y-71070511D01*
X102870248Y-71070754D01*
X102870252Y-71070759D01*
X102910121Y-71113458D01*
X102910493Y-71113856D01*
X102910929Y-71114175D01*
X102910933Y-71114179D01*
X102957799Y-71148516D01*
X102958318Y-71148896D01*
X103017725Y-71174868D01*
X103018295Y-71174990D01*
X103018297Y-71174991D01*
X103092511Y-71190917D01*
X103092514Y-71190917D01*
X103092941Y-71191009D01*
X103093382Y-71191035D01*
X103093384Y-71191035D01*
X103177176Y-71195918D01*
X103185235Y-71199820D01*
X103188195Y-71207598D01*
X103188195Y-71435522D01*
X103184768Y-71443795D01*
X103177175Y-71447202D01*
X103165132Y-71447904D01*
X103093384Y-71452083D01*
X103093381Y-71452083D01*
X103092941Y-71452109D01*
X103092513Y-71452201D01*
X103092512Y-71452201D01*
X103018297Y-71468128D01*
X103018295Y-71468129D01*
X103017725Y-71468251D01*
X102958318Y-71494223D01*
X102957801Y-71494602D01*
X102957799Y-71494603D01*
X102910933Y-71528939D01*
X102910929Y-71528943D01*
X102910493Y-71529262D01*
X102870021Y-71572608D01*
X102832673Y-71623496D01*
X102832614Y-71623584D01*
X102832601Y-71623603D01*
X102794282Y-71681076D01*
X102794189Y-71681214D01*
X102750627Y-71744582D01*
X102750239Y-71745113D01*
X102697388Y-71813424D01*
X102696774Y-71814155D01*
X102638213Y-71878221D01*
X102630103Y-71882015D01*
X102621312Y-71878607D01*
X102071575Y-71329840D01*
X102068141Y-71321570D01*
X102071575Y-71313280D01*
X102621312Y-70764513D01*
X102629588Y-70761093D01*
X102638214Y-70764899D01*
G37*
%TD.AperFunction*%
%TD*%
%TA.AperFunction,Conductor*%
%TO.N,/MA0*%
G36*
X104970291Y-73623100D02*
G01*
X105006255Y-73638970D01*
X105006723Y-73639189D01*
X105044968Y-73658125D01*
X105045266Y-73658278D01*
X105077523Y-73675556D01*
X105105883Y-73690994D01*
X105105971Y-73691038D01*
X105105993Y-73691050D01*
X105132242Y-73704296D01*
X105132252Y-73704300D01*
X105132445Y-73704398D01*
X105159437Y-73715644D01*
X105159728Y-73715732D01*
X105188789Y-73724519D01*
X105188792Y-73724520D01*
X105189084Y-73724608D01*
X105223616Y-73731165D01*
X105246246Y-73733352D01*
X105265060Y-73735171D01*
X105265064Y-73735171D01*
X105265258Y-73735190D01*
X105304853Y-73736254D01*
X105313031Y-73739902D01*
X105316239Y-73747950D01*
X105316239Y-73975203D01*
X105312812Y-73983476D01*
X105304887Y-73986898D01*
X105289469Y-73987357D01*
X105255681Y-73988362D01*
X105255672Y-73988363D01*
X105255490Y-73988368D01*
X105220731Y-73991796D01*
X105205942Y-73993255D01*
X105205939Y-73993255D01*
X105205710Y-73993278D01*
X105179424Y-73997855D01*
X105164327Y-74000483D01*
X105164320Y-74000484D01*
X105164156Y-74000513D01*
X105163992Y-74000553D01*
X105163987Y-74000554D01*
X105128193Y-74009273D01*
X105128186Y-74009275D01*
X105128087Y-74009299D01*
X105094759Y-74018860D01*
X105061678Y-74028349D01*
X105061221Y-74028471D01*
X105049715Y-74031274D01*
X105025732Y-74037116D01*
X105024988Y-74037271D01*
X104984222Y-74044369D01*
X104983366Y-74044485D01*
X104934427Y-74049312D01*
X104933647Y-74049362D01*
X104885275Y-74050803D01*
X104876904Y-74047624D01*
X104873227Y-74039160D01*
X104872291Y-73828539D01*
X104873200Y-73823965D01*
X104954777Y-73629282D01*
X104961135Y-73622976D01*
X104970291Y-73623100D01*
G37*
%TD.AperFunction*%
%TD*%
%TA.AperFunction,Conductor*%
%TO.N,/D3*%
G36*
X108635046Y-44788622D02*
G01*
X108641444Y-44795214D01*
X108649505Y-44816176D01*
X108649702Y-44816729D01*
X108658599Y-44843855D01*
X108658730Y-44844282D01*
X108665486Y-44867890D01*
X108665516Y-44867995D01*
X108671251Y-44889021D01*
X108677075Y-44908284D01*
X108684131Y-44926722D01*
X108684263Y-44926981D01*
X108684267Y-44926991D01*
X108693426Y-44945024D01*
X108693577Y-44945321D01*
X108706568Y-44965065D01*
X108724262Y-44986936D01*
X108724414Y-44987097D01*
X108740023Y-45003655D01*
X108743205Y-45012026D01*
X108739783Y-45019954D01*
X108579074Y-45180663D01*
X108570801Y-45184090D01*
X108562775Y-45180903D01*
X108546217Y-45165294D01*
X108546056Y-45165142D01*
X108545893Y-45165010D01*
X108545886Y-45165004D01*
X108536775Y-45157633D01*
X108524185Y-45147448D01*
X108504441Y-45134457D01*
X108504144Y-45134306D01*
X108486111Y-45125147D01*
X108486101Y-45125143D01*
X108485842Y-45125011D01*
X108485563Y-45124904D01*
X108485558Y-45124902D01*
X108478013Y-45122015D01*
X108467404Y-45117955D01*
X108448141Y-45112131D01*
X108427115Y-45106396D01*
X108427010Y-45106366D01*
X108403402Y-45099610D01*
X108402975Y-45099479D01*
X108375849Y-45090582D01*
X108375296Y-45090385D01*
X108354334Y-45082324D01*
X108347842Y-45076156D01*
X108347705Y-45066971D01*
X108370201Y-45012026D01*
X108426716Y-44873989D01*
X108433109Y-44867596D01*
X108626091Y-44788585D01*
X108635046Y-44788622D01*
G37*
%TD.AperFunction*%
%TD*%
%TA.AperFunction,Conductor*%
%TO.N,/~{CAS0}*%
G36*
X106761870Y-61593146D02*
G01*
X106768176Y-61599504D01*
X106768142Y-61608451D01*
X106752979Y-61644708D01*
X106736612Y-61683797D01*
X106723259Y-61717026D01*
X106712631Y-61746490D01*
X106704437Y-61774285D01*
X106698384Y-61802506D01*
X106694183Y-61833248D01*
X106691543Y-61868608D01*
X106690172Y-61910680D01*
X106690172Y-61910743D01*
X106690171Y-61910766D01*
X106689869Y-61949950D01*
X106686378Y-61958197D01*
X106678169Y-61961560D01*
X106451390Y-61961560D01*
X106443117Y-61958133D01*
X106439690Y-61949950D01*
X106439388Y-61910766D01*
X106439387Y-61910743D01*
X106439387Y-61910680D01*
X106438016Y-61868608D01*
X106435376Y-61833248D01*
X106431175Y-61802506D01*
X106425122Y-61774285D01*
X106416927Y-61746490D01*
X106416867Y-61746323D01*
X106406328Y-61717105D01*
X106406319Y-61717082D01*
X106406299Y-61717026D01*
X106406274Y-61716964D01*
X106406263Y-61716935D01*
X106392947Y-61683797D01*
X106376580Y-61644708D01*
X106376578Y-61644703D01*
X106361418Y-61608451D01*
X106361388Y-61599496D01*
X106367690Y-61593146D01*
X106560258Y-61512455D01*
X106569302Y-61512455D01*
X106761870Y-61593146D01*
G37*
%TD.AperFunction*%
%TD*%
%TA.AperFunction,Conductor*%
%TO.N,/MA6*%
G36*
X102381517Y-75667686D02*
G01*
X102547557Y-75745993D01*
X102548586Y-75746542D01*
X102689847Y-75831287D01*
X102690704Y-75831854D01*
X102806056Y-75915765D01*
X102806580Y-75916169D01*
X102905432Y-75997005D01*
X102996912Y-76072272D01*
X103090026Y-76139318D01*
X103194048Y-76195706D01*
X103194490Y-76195860D01*
X103194492Y-76195861D01*
X103290466Y-76229315D01*
X103318250Y-76239000D01*
X103471903Y-76266764D01*
X103472265Y-76266782D01*
X103472270Y-76266783D01*
X103653175Y-76275995D01*
X103661263Y-76279838D01*
X103664280Y-76287680D01*
X103664280Y-76515440D01*
X103660853Y-76523713D01*
X103653175Y-76527125D01*
X103472270Y-76536336D01*
X103472265Y-76536337D01*
X103471903Y-76536355D01*
X103318250Y-76564119D01*
X103317816Y-76564270D01*
X103317817Y-76564270D01*
X103194492Y-76607258D01*
X103194490Y-76607259D01*
X103194048Y-76607413D01*
X103090026Y-76663801D01*
X102996912Y-76730847D01*
X102996780Y-76730956D01*
X102996773Y-76730961D01*
X102905459Y-76806092D01*
X102905432Y-76806114D01*
X102806580Y-76886950D01*
X102806056Y-76887354D01*
X102690704Y-76971265D01*
X102689847Y-76971832D01*
X102561507Y-77048825D01*
X102548585Y-77056577D01*
X102547557Y-77057126D01*
X102381516Y-77135434D01*
X102372572Y-77135864D01*
X102365722Y-77129342D01*
X102065146Y-76406050D01*
X102065146Y-76397070D01*
X102365722Y-75673778D01*
X102372061Y-75667453D01*
X102381517Y-75667686D01*
G37*
%TD.AperFunction*%
%TD*%
%TA.AperFunction,Conductor*%
%TO.N,/~{OE}*%
G36*
X102112041Y-62119806D02*
G01*
X102115447Y-62127370D01*
X102126556Y-62310567D01*
X102159711Y-62463882D01*
X102210986Y-62586129D01*
X102277119Y-62687109D01*
X102354851Y-62776628D01*
X102354965Y-62776744D01*
X102440868Y-62864433D01*
X102440995Y-62864565D01*
X102531779Y-62960186D01*
X102532338Y-62960821D01*
X102601419Y-63045496D01*
X102624628Y-63073945D01*
X102625390Y-63074993D01*
X102716171Y-63215547D01*
X102716873Y-63216795D01*
X102797984Y-63384263D01*
X102798506Y-63393203D01*
X102791944Y-63400167D01*
X102068770Y-63700694D01*
X102059790Y-63700694D01*
X101336398Y-63400076D01*
X101330073Y-63393737D01*
X101330261Y-63384376D01*
X101404637Y-63222931D01*
X101405062Y-63222099D01*
X101408041Y-63216795D01*
X101483099Y-63083124D01*
X101483512Y-63082444D01*
X101489086Y-63073945D01*
X101558745Y-62967715D01*
X101559005Y-62967336D01*
X101629864Y-62868066D01*
X101629910Y-62868001D01*
X101655784Y-62831078D01*
X101694585Y-62775708D01*
X101751337Y-62681765D01*
X101798427Y-62577549D01*
X101834160Y-62454371D01*
X101856842Y-62303544D01*
X101864305Y-62127583D01*
X101868079Y-62119463D01*
X101875994Y-62116379D01*
X102103768Y-62116379D01*
X102112041Y-62119806D01*
G37*
%TD.AperFunction*%
%TD*%
%TA.AperFunction,Conductor*%
%TO.N,/MA5*%
G36*
X102381590Y-78207896D02*
G01*
X102526053Y-78278287D01*
X102527350Y-78279025D01*
X102649326Y-78359125D01*
X102650414Y-78359933D01*
X102748237Y-78441818D01*
X102748923Y-78442441D01*
X102831333Y-78523342D01*
X102831486Y-78523494D01*
X102907093Y-78600501D01*
X102984197Y-78670278D01*
X102984525Y-78670502D01*
X102984529Y-78670505D01*
X103070939Y-78729465D01*
X103071392Y-78729774D01*
X103177322Y-78775987D01*
X103310630Y-78805916D01*
X103377392Y-78810113D01*
X103468994Y-78815871D01*
X103477036Y-78819810D01*
X103479960Y-78827548D01*
X103479960Y-79055572D01*
X103476533Y-79063845D01*
X103468994Y-79067249D01*
X103385822Y-79072477D01*
X103310630Y-79077203D01*
X103177322Y-79107132D01*
X103071392Y-79153345D01*
X103070940Y-79153654D01*
X103070939Y-79153654D01*
X102984529Y-79212614D01*
X102984525Y-79212617D01*
X102984197Y-79212841D01*
X102907093Y-79282618D01*
X102906978Y-79282735D01*
X102906975Y-79282738D01*
X102831486Y-79359625D01*
X102831333Y-79359777D01*
X102748923Y-79440678D01*
X102748237Y-79441301D01*
X102650414Y-79523185D01*
X102649326Y-79523993D01*
X102527350Y-79604094D01*
X102526053Y-79604832D01*
X102381590Y-79675224D01*
X102372652Y-79675767D01*
X102365661Y-79669196D01*
X102065146Y-78946050D01*
X102065146Y-78937070D01*
X102305165Y-78359499D01*
X102365661Y-78213924D01*
X102372000Y-78207599D01*
X102381590Y-78207896D01*
G37*
%TD.AperFunction*%
%TD*%
%TA.AperFunction,Conductor*%
%TO.N,/~{CAS0}*%
G36*
X108649550Y-67569255D02*
G01*
X108750660Y-67660565D01*
X108784255Y-67690905D01*
X108912535Y-67779922D01*
X108912950Y-67780123D01*
X108912951Y-67780123D01*
X109030547Y-67836927D01*
X109030550Y-67836928D01*
X109030972Y-67837132D01*
X109031418Y-67837264D01*
X109031422Y-67837266D01*
X109107792Y-67859944D01*
X109144399Y-67870814D01*
X109186768Y-67877710D01*
X109257457Y-67889216D01*
X109257469Y-67889218D01*
X109257650Y-67889247D01*
X109272373Y-67890679D01*
X109375523Y-67900708D01*
X109375558Y-67900711D01*
X109502645Y-67913453D01*
X109503274Y-67913534D01*
X109587026Y-67926750D01*
X109644162Y-67935766D01*
X109645176Y-67935972D01*
X109696356Y-67948770D01*
X109805000Y-67975938D01*
X109806098Y-67976271D01*
X109978888Y-68038313D01*
X109985515Y-68044333D01*
X109985748Y-68053789D01*
X109686842Y-68777774D01*
X109680494Y-68784122D01*
X108956509Y-69083028D01*
X108947554Y-69083017D01*
X108941032Y-69076167D01*
X108878994Y-68903387D01*
X108878655Y-68902271D01*
X108838692Y-68742456D01*
X108838486Y-68741442D01*
X108816256Y-68600568D01*
X108816171Y-68599911D01*
X108803431Y-68472838D01*
X108803428Y-68472803D01*
X108791986Y-68355126D01*
X108791967Y-68354930D01*
X108773534Y-68241679D01*
X108739852Y-68128252D01*
X108682642Y-68009815D01*
X108593625Y-67881535D01*
X108502041Y-67780123D01*
X108471975Y-67746830D01*
X108468973Y-67738393D01*
X108472385Y-67730715D01*
X108633435Y-67569665D01*
X108641708Y-67566238D01*
X108649550Y-67569255D01*
G37*
%TD.AperFunction*%
%TD*%
%TA.AperFunction,Conductor*%
%TO.N,/~{OE}*%
G36*
X102277075Y-44933689D02*
G01*
X102280502Y-44941971D01*
X102280465Y-44987699D01*
X102280465Y-44987721D01*
X102280341Y-45035018D01*
X102280341Y-45035041D01*
X102280158Y-45074735D01*
X102280158Y-45074756D01*
X102279936Y-45109388D01*
X102279936Y-45109401D01*
X102279695Y-45141510D01*
X102279454Y-45173620D01*
X102279232Y-45208264D01*
X102279049Y-45247979D01*
X102278925Y-45295299D01*
X102278889Y-45341121D01*
X102275456Y-45349392D01*
X102267242Y-45352812D01*
X102185267Y-45353176D01*
X102056259Y-45353749D01*
X102051685Y-45352840D01*
X101857418Y-45271437D01*
X101851112Y-45265079D01*
X101851418Y-45255529D01*
X101868690Y-45220011D01*
X101869416Y-45218730D01*
X101893019Y-45182590D01*
X101893812Y-45181516D01*
X101917949Y-45152435D01*
X101918558Y-45151757D01*
X101942610Y-45126986D01*
X101942731Y-45126863D01*
X101960291Y-45109401D01*
X101965788Y-45103934D01*
X101986708Y-45080501D01*
X101986924Y-45080180D01*
X101986928Y-45080175D01*
X102004229Y-45054475D01*
X102004533Y-45054024D01*
X102012719Y-45035018D01*
X102018151Y-45022406D01*
X102018153Y-45022400D01*
X102018370Y-45021896D01*
X102027327Y-44981511D01*
X102029829Y-44941237D01*
X102033762Y-44933192D01*
X102041506Y-44930262D01*
X102268802Y-44930262D01*
X102277075Y-44933689D01*
G37*
%TD.AperFunction*%
%TD*%
%TA.AperFunction,Conductor*%
%TO.N,/~{OE}*%
G36*
X102056075Y-45352680D02*
G01*
X102084532Y-45364604D01*
X102250586Y-45434185D01*
X102256891Y-45440542D01*
X102256692Y-45449865D01*
X102240128Y-45485873D01*
X102239711Y-45486692D01*
X102231018Y-45502242D01*
X102218694Y-45524285D01*
X102218286Y-45524961D01*
X102198014Y-45556086D01*
X102197762Y-45556458D01*
X102187204Y-45571384D01*
X102178552Y-45583615D01*
X102160952Y-45609003D01*
X102145537Y-45634825D01*
X102132759Y-45663460D01*
X102123072Y-45697284D01*
X102116928Y-45738674D01*
X102116916Y-45738966D01*
X102116915Y-45738974D01*
X102115249Y-45778799D01*
X102111479Y-45786922D01*
X102103559Y-45790010D01*
X101876284Y-45790010D01*
X101868011Y-45786583D01*
X101864586Y-45778507D01*
X101863914Y-45738674D01*
X101863774Y-45730384D01*
X101861046Y-45681359D01*
X101857025Y-45640284D01*
X101852143Y-45604509D01*
X101846830Y-45571384D01*
X101841543Y-45538427D01*
X101841502Y-45538156D01*
X101836661Y-45502684D01*
X101836610Y-45502242D01*
X101832638Y-45461663D01*
X101832600Y-45461173D01*
X101829897Y-45412600D01*
X101829881Y-45412147D01*
X101829080Y-45364604D01*
X101832367Y-45356274D01*
X101840725Y-45352707D01*
X101935876Y-45352284D01*
X102051501Y-45351771D01*
X102056075Y-45352680D01*
G37*
%TD.AperFunction*%
%TD*%
%TA.AperFunction,Conductor*%
%TO.N,Net-(U3-Pad1)*%
G36*
X107036370Y-43935746D02*
G01*
X107042676Y-43942104D01*
X107042642Y-43951051D01*
X107027479Y-43987308D01*
X107011112Y-44026397D01*
X106997759Y-44059626D01*
X106987131Y-44089090D01*
X106978937Y-44116885D01*
X106972884Y-44145106D01*
X106968683Y-44175848D01*
X106966043Y-44211208D01*
X106964672Y-44253280D01*
X106964672Y-44253343D01*
X106964671Y-44253366D01*
X106964369Y-44292550D01*
X106960878Y-44300797D01*
X106952669Y-44304160D01*
X106725890Y-44304160D01*
X106717617Y-44300733D01*
X106714190Y-44292550D01*
X106713888Y-44253366D01*
X106713887Y-44253343D01*
X106713887Y-44253280D01*
X106712516Y-44211208D01*
X106709876Y-44175848D01*
X106705675Y-44145106D01*
X106699622Y-44116885D01*
X106691427Y-44089090D01*
X106691367Y-44088923D01*
X106680828Y-44059705D01*
X106680819Y-44059682D01*
X106680799Y-44059626D01*
X106680774Y-44059564D01*
X106680763Y-44059535D01*
X106667447Y-44026397D01*
X106651080Y-43987308D01*
X106651078Y-43987303D01*
X106635918Y-43951051D01*
X106635888Y-43942096D01*
X106642190Y-43935746D01*
X106834758Y-43855055D01*
X106843802Y-43855055D01*
X107036370Y-43935746D01*
G37*
%TD.AperFunction*%
%TD*%
%TA.AperFunction,Conductor*%
%TO.N,/MA4*%
G36*
X102160224Y-80682005D02*
G01*
X102245496Y-80682400D01*
X102245621Y-80682401D01*
X102348479Y-80683971D01*
X102394841Y-80684680D01*
X102394913Y-80684681D01*
X102520150Y-80688040D01*
X102629424Y-80692120D01*
X102831966Y-80701000D01*
X102893949Y-80703314D01*
X102941210Y-80705079D01*
X102941266Y-80705081D01*
X103066520Y-80708440D01*
X103215810Y-80710720D01*
X103385466Y-80711506D01*
X103393723Y-80714971D01*
X103397112Y-80723206D01*
X103397112Y-80951014D01*
X103393685Y-80959287D01*
X103386623Y-80962651D01*
X103301001Y-80971554D01*
X103227657Y-80979180D01*
X103227656Y-80979180D01*
X103226803Y-80979269D01*
X103226013Y-80979600D01*
X103226012Y-80979600D01*
X103108221Y-81028926D01*
X103108220Y-81028927D01*
X103107209Y-81029350D01*
X103027112Y-81107237D01*
X102975292Y-81208360D01*
X102940532Y-81328151D01*
X102940492Y-81328336D01*
X102940490Y-81328344D01*
X102911640Y-81461911D01*
X102911583Y-81462162D01*
X102877445Y-81604919D01*
X102877133Y-81605994D01*
X102826716Y-81752986D01*
X102825991Y-81754661D01*
X102748249Y-81901614D01*
X102746980Y-81903530D01*
X102638140Y-82037204D01*
X102630259Y-82041456D01*
X102621680Y-82038890D01*
X102620801Y-82038097D01*
X102066720Y-81484994D01*
X102063286Y-81476699D01*
X102063304Y-81462042D01*
X102064265Y-80693298D01*
X102067702Y-80685031D01*
X102076018Y-80681614D01*
X102160224Y-80682005D01*
G37*
%TD.AperFunction*%
%TD*%
%TA.AperFunction,Conductor*%
%TO.N,/MA1*%
G36*
X108940262Y-75479993D02*
G01*
X109008065Y-75541448D01*
X109008342Y-75541699D01*
X109077231Y-75589556D01*
X109077684Y-75589767D01*
X109077688Y-75589769D01*
X109102684Y-75601395D01*
X109141376Y-75619391D01*
X109203475Y-75634512D01*
X109203993Y-75634543D01*
X109203995Y-75634543D01*
X109222885Y-75635662D01*
X109266227Y-75638230D01*
X109332333Y-75633852D01*
X109332501Y-75633831D01*
X109332508Y-75633830D01*
X109404492Y-75624687D01*
X109485198Y-75614071D01*
X109485613Y-75614024D01*
X109577412Y-75605266D01*
X109578120Y-75605220D01*
X109672188Y-75601977D01*
X109680574Y-75605117D01*
X109684291Y-75613659D01*
X109684893Y-76295046D01*
X109684977Y-76390547D01*
X109681557Y-76398823D01*
X109673268Y-76402257D01*
X108896379Y-76401571D01*
X108888110Y-76398137D01*
X108884697Y-76389468D01*
X108887940Y-76295400D01*
X108887986Y-76294692D01*
X108896744Y-76202893D01*
X108896791Y-76202478D01*
X108907407Y-76121772D01*
X108916550Y-76049788D01*
X108916551Y-76049781D01*
X108916572Y-76049613D01*
X108920950Y-75983507D01*
X108917232Y-75920755D01*
X108902111Y-75858656D01*
X108872276Y-75794511D01*
X108824419Y-75725622D01*
X108824168Y-75725345D01*
X108762713Y-75657542D01*
X108759696Y-75649111D01*
X108763109Y-75641412D01*
X108924132Y-75480389D01*
X108932405Y-75476962D01*
X108940262Y-75479993D01*
G37*
%TD.AperFunction*%
%TD*%
%TA.AperFunction,Conductor*%
%TO.N,/D6*%
G36*
X104298955Y-44083422D02*
G01*
X104459315Y-44243782D01*
X104462742Y-44252055D01*
X104459399Y-44260243D01*
X104431899Y-44288309D01*
X104403407Y-44319226D01*
X104380703Y-44346381D01*
X104362464Y-44371433D01*
X104347366Y-44396041D01*
X104334085Y-44421862D01*
X104334034Y-44421977D01*
X104334026Y-44421993D01*
X104323216Y-44446251D01*
X104321297Y-44450556D01*
X104321252Y-44450666D01*
X104307678Y-44483782D01*
X104291930Y-44523132D01*
X104291904Y-44523198D01*
X104277075Y-44559608D01*
X104270780Y-44565978D01*
X104261806Y-44566023D01*
X104068609Y-44486924D01*
X104062215Y-44480530D01*
X104049989Y-44450666D01*
X103983516Y-44288309D01*
X103983096Y-44287282D01*
X103983133Y-44278327D01*
X103989458Y-44272035D01*
X104025552Y-44257129D01*
X104037675Y-44252055D01*
X104064365Y-44240884D01*
X104064383Y-44240876D01*
X104064395Y-44240871D01*
X104096913Y-44226486D01*
X104124810Y-44212747D01*
X104149794Y-44198428D01*
X104173570Y-44182302D01*
X104197846Y-44163142D01*
X104224326Y-44139721D01*
X104254717Y-44110814D01*
X104282455Y-44083377D01*
X104290746Y-44079995D01*
X104298955Y-44083422D01*
G37*
%TD.AperFunction*%
%TD*%
%TA.AperFunction,Conductor*%
%TO.N,/~{RAS}*%
G36*
X103249421Y-72850635D02*
G01*
X103410205Y-73011419D01*
X103413632Y-73019692D01*
X103410382Y-73027784D01*
X103296034Y-73147191D01*
X103296025Y-73147201D01*
X103295911Y-73147320D01*
X103201443Y-73257997D01*
X103129501Y-73356888D01*
X103074690Y-73449332D01*
X103031612Y-73540671D01*
X102994873Y-73636245D01*
X102994848Y-73636318D01*
X102994839Y-73636343D01*
X102959077Y-73741394D01*
X102918869Y-73861334D01*
X102918795Y-73861549D01*
X102868786Y-74001621D01*
X102868653Y-74001974D01*
X102807742Y-74156641D01*
X102801522Y-74163083D01*
X102792392Y-74163169D01*
X102070815Y-73865257D01*
X102064476Y-73858932D01*
X102063580Y-73854432D01*
X102063937Y-73449589D01*
X102064269Y-73073626D01*
X102067703Y-73065357D01*
X102076340Y-73061943D01*
X102230973Y-73066853D01*
X102231616Y-73066891D01*
X102282429Y-73071309D01*
X102375837Y-73079432D01*
X102376124Y-73079462D01*
X102449294Y-73088051D01*
X102502577Y-73094307D01*
X102502580Y-73094307D01*
X102580027Y-73102650D01*
X102615189Y-73106438D01*
X102615192Y-73106438D01*
X102615385Y-73106459D01*
X102615584Y-73106468D01*
X102615590Y-73106468D01*
X102718282Y-73110889D01*
X102718286Y-73110889D01*
X102718660Y-73110905D01*
X102719026Y-73110874D01*
X102719034Y-73110874D01*
X102787770Y-73105084D01*
X102816674Y-73102650D01*
X102817170Y-73102517D01*
X102817172Y-73102517D01*
X102850986Y-73093473D01*
X102913698Y-73076700D01*
X103014001Y-73028062D01*
X103121853Y-72951739D01*
X103233270Y-72850258D01*
X103241693Y-72847221D01*
X103249421Y-72850635D01*
G37*
%TD.AperFunction*%
%TD*%
%TA.AperFunction,Conductor*%
%TO.N,/MA0*%
G36*
X109382838Y-73133778D02*
G01*
X109683414Y-73857070D01*
X109683414Y-73866050D01*
X109382838Y-74589342D01*
X109376499Y-74595667D01*
X109367043Y-74595434D01*
X109201001Y-74517126D01*
X109199973Y-74516577D01*
X109187051Y-74508825D01*
X109058711Y-74431832D01*
X109057854Y-74431265D01*
X108942502Y-74347354D01*
X108941978Y-74346950D01*
X108843126Y-74266114D01*
X108843099Y-74266092D01*
X108751647Y-74190847D01*
X108658532Y-74123801D01*
X108554510Y-74067413D01*
X108554068Y-74067259D01*
X108554066Y-74067258D01*
X108430742Y-74024270D01*
X108430743Y-74024270D01*
X108430309Y-74024119D01*
X108276656Y-73996355D01*
X108276294Y-73996337D01*
X108276289Y-73996336D01*
X108095385Y-73987125D01*
X108087297Y-73983282D01*
X108084280Y-73975440D01*
X108084280Y-73747680D01*
X108087707Y-73739407D01*
X108095385Y-73735995D01*
X108276289Y-73726783D01*
X108276294Y-73726782D01*
X108276656Y-73726764D01*
X108430309Y-73699000D01*
X108457813Y-73689413D01*
X108554066Y-73655861D01*
X108554068Y-73655860D01*
X108554510Y-73655706D01*
X108658532Y-73599318D01*
X108751647Y-73532272D01*
X108843126Y-73457005D01*
X108941978Y-73376169D01*
X108942502Y-73375765D01*
X109057854Y-73291854D01*
X109058711Y-73291287D01*
X109199972Y-73206542D01*
X109201001Y-73205993D01*
X109367043Y-73127686D01*
X109375988Y-73127256D01*
X109382838Y-73133778D01*
G37*
%TD.AperFunction*%
%TD*%
%TA.AperFunction,Conductor*%
%TO.N,/MA1*%
G36*
X104716171Y-74918198D02*
G01*
X104752428Y-74933360D01*
X104791517Y-74949727D01*
X104791572Y-74949749D01*
X104824655Y-74963043D01*
X104824684Y-74963054D01*
X104824746Y-74963079D01*
X104824802Y-74963099D01*
X104824825Y-74963108D01*
X104854057Y-74973652D01*
X104854062Y-74973654D01*
X104854210Y-74973707D01*
X104854373Y-74973755D01*
X104881794Y-74981840D01*
X104881799Y-74981841D01*
X104882005Y-74981902D01*
X104882204Y-74981945D01*
X104882213Y-74981947D01*
X104899243Y-74985599D01*
X104910226Y-74987955D01*
X104927591Y-74990328D01*
X104940791Y-74992132D01*
X104940797Y-74992133D01*
X104940968Y-74992156D01*
X104963750Y-74993857D01*
X104976204Y-74994787D01*
X104976215Y-74994788D01*
X104976328Y-74994796D01*
X105014033Y-74996025D01*
X105018307Y-74996164D01*
X105018310Y-74996164D01*
X105018400Y-74996167D01*
X105018463Y-74996167D01*
X105018486Y-74996168D01*
X105038435Y-74996322D01*
X105057671Y-74996470D01*
X105065917Y-74999961D01*
X105069280Y-75008170D01*
X105069280Y-75234949D01*
X105065853Y-75243222D01*
X105057670Y-75246649D01*
X105018486Y-75246951D01*
X105018463Y-75246952D01*
X105018400Y-75246952D01*
X105018310Y-75246955D01*
X105018307Y-75246955D01*
X105014033Y-75247094D01*
X104976328Y-75248323D01*
X104976215Y-75248331D01*
X104976204Y-75248332D01*
X104963750Y-75249262D01*
X104940968Y-75250963D01*
X104940797Y-75250986D01*
X104940791Y-75250987D01*
X104927591Y-75252791D01*
X104910226Y-75255164D01*
X104896115Y-75258191D01*
X104882209Y-75261173D01*
X104882203Y-75261175D01*
X104882005Y-75261217D01*
X104881795Y-75261279D01*
X104854392Y-75269357D01*
X104854381Y-75269361D01*
X104854210Y-75269411D01*
X104854050Y-75269469D01*
X104854043Y-75269471D01*
X104831547Y-75277586D01*
X104824746Y-75280039D01*
X104791517Y-75293392D01*
X104752433Y-75309757D01*
X104752428Y-75309759D01*
X104716171Y-75324922D01*
X104707216Y-75324953D01*
X104700866Y-75318650D01*
X104620175Y-75126082D01*
X104620175Y-75117038D01*
X104700866Y-74924470D01*
X104707224Y-74918164D01*
X104716171Y-74918198D01*
G37*
%TD.AperFunction*%
%TD*%
%TA.AperFunction,Conductor*%
%TO.N,/D0*%
G36*
X103083393Y-65061355D02*
G01*
X103244485Y-65222447D01*
X103247912Y-65230720D01*
X103244916Y-65238539D01*
X103147108Y-65347421D01*
X103127371Y-65369392D01*
X103042244Y-65494537D01*
X103042044Y-65494968D01*
X103042043Y-65494971D01*
X103033325Y-65513821D01*
X102988680Y-65610343D01*
X102958418Y-65721433D01*
X102943192Y-65832427D01*
X102943179Y-65832608D01*
X102943178Y-65832615D01*
X102934745Y-65947871D01*
X102934739Y-65947947D01*
X102924823Y-66072259D01*
X102924743Y-66072977D01*
X102905176Y-66210491D01*
X102904969Y-66211579D01*
X102867526Y-66367270D01*
X102867173Y-66368457D01*
X102807506Y-66536123D01*
X102801504Y-66542768D01*
X102792019Y-66543015D01*
X102068066Y-66244122D01*
X102061718Y-66237774D01*
X101762825Y-65513821D01*
X101762836Y-65504866D01*
X101769716Y-65498334D01*
X101937385Y-65438664D01*
X101938565Y-65438313D01*
X102005008Y-65422334D01*
X102094260Y-65400869D01*
X102095348Y-65400662D01*
X102232861Y-65381095D01*
X102233579Y-65381015D01*
X102283880Y-65377003D01*
X102357892Y-65371100D01*
X102425243Y-65366172D01*
X102473223Y-65362661D01*
X102473230Y-65362660D01*
X102473411Y-65362647D01*
X102473604Y-65362621D01*
X102473609Y-65362620D01*
X102584030Y-65347473D01*
X102584036Y-65347472D01*
X102584406Y-65347421D01*
X102584762Y-65347324D01*
X102584767Y-65347323D01*
X102695022Y-65317287D01*
X102695024Y-65317286D01*
X102695495Y-65317158D01*
X102695938Y-65316953D01*
X102695941Y-65316952D01*
X102810868Y-65263796D01*
X102810871Y-65263795D01*
X102811302Y-65263595D01*
X102936447Y-65178468D01*
X103067301Y-65060924D01*
X103075746Y-65057945D01*
X103083393Y-65061355D01*
G37*
%TD.AperFunction*%
%TD*%
%TA.AperFunction,Conductor*%
%TO.N,/D6*%
G36*
X109382914Y-41739561D02*
G01*
X109495309Y-42010023D01*
X109683414Y-42462670D01*
X109683414Y-42471650D01*
X109382771Y-43195103D01*
X109376432Y-43201428D01*
X109367129Y-43201266D01*
X109208172Y-43129065D01*
X109207477Y-43128720D01*
X109069761Y-43054478D01*
X109069186Y-43054147D01*
X108954794Y-42983834D01*
X108954509Y-42983652D01*
X108855169Y-42918559D01*
X108855087Y-42918505D01*
X108762315Y-42859814D01*
X108667986Y-42808955D01*
X108667681Y-42808833D01*
X108667675Y-42808830D01*
X108564079Y-42767337D01*
X108563722Y-42767194D01*
X108441146Y-42735797D01*
X108291882Y-42716030D01*
X108291621Y-42716020D01*
X108291618Y-42716020D01*
X108211808Y-42713046D01*
X108118817Y-42709580D01*
X108110677Y-42705847D01*
X108107553Y-42697888D01*
X108107553Y-42470114D01*
X108110980Y-42461841D01*
X108118482Y-42458439D01*
X108302468Y-42446294D01*
X108302953Y-42446262D01*
X108309729Y-42444660D01*
X108455570Y-42410187D01*
X108455572Y-42410186D01*
X108456140Y-42410052D01*
X108577247Y-42354253D01*
X108676410Y-42282592D01*
X108763765Y-42198791D01*
X108849344Y-42106684D01*
X108849523Y-42106495D01*
X108943245Y-42010023D01*
X108943967Y-42009341D01*
X109005186Y-41956194D01*
X109055785Y-41912267D01*
X109056913Y-41911403D01*
X109197143Y-41817124D01*
X109198510Y-41816334D01*
X109366950Y-41733552D01*
X109375887Y-41732978D01*
X109382914Y-41739561D01*
G37*
%TD.AperFunction*%
%TD*%
%TA.AperFunction,Conductor*%
%TO.N,/MA4*%
G36*
X107204758Y-80614222D02*
G01*
X107286360Y-80808965D01*
X107287269Y-80813539D01*
X107286352Y-81020134D01*
X107286334Y-81024108D01*
X107282870Y-81032366D01*
X107274236Y-81035749D01*
X107225562Y-81034087D01*
X107224647Y-81034020D01*
X107210043Y-81032366D01*
X107175526Y-81028456D01*
X107174545Y-81028302D01*
X107133767Y-81020134D01*
X107132904Y-81019927D01*
X107097429Y-81009971D01*
X107096915Y-81009814D01*
X107063806Y-80998860D01*
X107030565Y-80987861D01*
X107030552Y-80987857D01*
X107030437Y-80987819D01*
X107023905Y-80985986D01*
X106994494Y-80977731D01*
X106994485Y-80977729D01*
X106994286Y-80977673D01*
X106994082Y-80977632D01*
X106994069Y-80977629D01*
X106952804Y-80969364D01*
X106952798Y-80969363D01*
X106952573Y-80969318D01*
X106952345Y-80969292D01*
X106952344Y-80969292D01*
X106902740Y-80963673D01*
X106902728Y-80963672D01*
X106902515Y-80963648D01*
X106902283Y-80963640D01*
X106902282Y-80963640D01*
X106895923Y-80963423D01*
X106852632Y-80961946D01*
X106844482Y-80958239D01*
X106841332Y-80950253D01*
X106841332Y-80723011D01*
X106844759Y-80714738D01*
X106852780Y-80711314D01*
X106885381Y-80710612D01*
X106892245Y-80710464D01*
X106933995Y-80707184D01*
X106968765Y-80701727D01*
X106998740Y-80694102D01*
X106998983Y-80694015D01*
X106998990Y-80694013D01*
X107025900Y-80684391D01*
X107025910Y-80684387D01*
X107026103Y-80684318D01*
X107026293Y-80684234D01*
X107052946Y-80672422D01*
X107052955Y-80672418D01*
X107053038Y-80672381D01*
X107053136Y-80672333D01*
X107053155Y-80672324D01*
X107081728Y-80658302D01*
X107114319Y-80642107D01*
X107114455Y-80642041D01*
X107152938Y-80623829D01*
X107153279Y-80623674D01*
X107189303Y-80608014D01*
X107198256Y-80607858D01*
X107204758Y-80614222D01*
G37*
%TD.AperFunction*%
%TD*%
%TA.AperFunction,Conductor*%
%TO.N,/MA6*%
G36*
X107204783Y-76169282D02*
G01*
X107286360Y-76363965D01*
X107287269Y-76368539D01*
X107286333Y-76579160D01*
X107282869Y-76587418D01*
X107274285Y-76590803D01*
X107225912Y-76589362D01*
X107225132Y-76589312D01*
X107176193Y-76584485D01*
X107175337Y-76584369D01*
X107134571Y-76577271D01*
X107133827Y-76577116D01*
X107109844Y-76571274D01*
X107098338Y-76568471D01*
X107097881Y-76568349D01*
X107064800Y-76558860D01*
X107031472Y-76549299D01*
X107031373Y-76549275D01*
X107031366Y-76549273D01*
X106995572Y-76540554D01*
X106995567Y-76540553D01*
X106995403Y-76540513D01*
X106995239Y-76540484D01*
X106995232Y-76540483D01*
X106980135Y-76537855D01*
X106953849Y-76533278D01*
X106953620Y-76533255D01*
X106953617Y-76533255D01*
X106938828Y-76531796D01*
X106904069Y-76528368D01*
X106903887Y-76528363D01*
X106903878Y-76528362D01*
X106869680Y-76527345D01*
X106854673Y-76526898D01*
X106846505Y-76523226D01*
X106843321Y-76515203D01*
X106843321Y-76287950D01*
X106846748Y-76279677D01*
X106854707Y-76276254D01*
X106894301Y-76275190D01*
X106894495Y-76275171D01*
X106894499Y-76275171D01*
X106913313Y-76273352D01*
X106935943Y-76271165D01*
X106970474Y-76264608D01*
X106970766Y-76264520D01*
X106970769Y-76264519D01*
X106999831Y-76255732D01*
X107000122Y-76255644D01*
X107027114Y-76244398D01*
X107027307Y-76244300D01*
X107027317Y-76244296D01*
X107053566Y-76231050D01*
X107053588Y-76231038D01*
X107053676Y-76230994D01*
X107082036Y-76215556D01*
X107114295Y-76198276D01*
X107114573Y-76198134D01*
X107152834Y-76179189D01*
X107153303Y-76178970D01*
X107189269Y-76163100D01*
X107198221Y-76162895D01*
X107204783Y-76169282D01*
G37*
%TD.AperFunction*%
%TD*%
%TA.AperFunction,Conductor*%
%TO.N,/D7*%
G36*
X109680494Y-37384598D02*
G01*
X109686842Y-37390946D01*
X109985760Y-38114959D01*
X109985749Y-38123914D01*
X109978927Y-38130426D01*
X109807905Y-38192320D01*
X109806865Y-38192641D01*
X109702556Y-38219624D01*
X109648904Y-38233503D01*
X109647955Y-38233707D01*
X109508963Y-38257585D01*
X109508363Y-38257672D01*
X109383240Y-38272542D01*
X109267289Y-38286348D01*
X109203141Y-38298282D01*
X109156306Y-38306995D01*
X109156304Y-38306996D01*
X109155952Y-38307061D01*
X109044369Y-38342686D01*
X108927677Y-38401229D01*
X108801015Y-38490697D01*
X108800743Y-38490944D01*
X108800739Y-38490947D01*
X108667775Y-38611605D01*
X108659346Y-38614627D01*
X108651640Y-38611214D01*
X108490585Y-38450159D01*
X108487158Y-38441886D01*
X108490153Y-38434069D01*
X108611515Y-38298914D01*
X108611518Y-38298910D01*
X108611783Y-38298615D01*
X108656012Y-38233503D01*
X108699345Y-38169711D01*
X108699347Y-38169708D01*
X108699617Y-38169310D01*
X108717546Y-38130426D01*
X108754593Y-38050082D01*
X108754593Y-38050081D01*
X108754799Y-38049635D01*
X108754927Y-38049163D01*
X108754929Y-38049157D01*
X108785782Y-37935187D01*
X108785782Y-37935186D01*
X108785881Y-37934821D01*
X108801414Y-37820101D01*
X108809951Y-37700706D01*
X108820016Y-37572219D01*
X108820094Y-37571510D01*
X108840166Y-37429367D01*
X108840374Y-37428274D01*
X108849327Y-37390947D01*
X108878958Y-37267397D01*
X108879310Y-37266209D01*
X108941055Y-37092600D01*
X108947056Y-37085954D01*
X108956543Y-37085706D01*
X109680494Y-37384598D01*
G37*
%TD.AperFunction*%
%TD*%
%TA.AperFunction,Conductor*%
%TO.N,/MA5*%
G36*
X105282726Y-77620214D02*
G01*
X105377451Y-77658996D01*
X105383844Y-77665389D01*
X105417826Y-77748389D01*
X105462954Y-77858613D01*
X105462917Y-77867568D01*
X105456568Y-77873870D01*
X105420207Y-77888787D01*
X105380993Y-77904853D01*
X105348056Y-77918908D01*
X105347950Y-77918958D01*
X105319848Y-77932160D01*
X105319840Y-77932164D01*
X105319706Y-77932227D01*
X105319573Y-77932299D01*
X105319564Y-77932304D01*
X105294450Y-77945982D01*
X105294442Y-77945987D01*
X105294258Y-77946087D01*
X105294071Y-77946208D01*
X105270211Y-77961640D01*
X105270204Y-77961645D01*
X105270023Y-77961762D01*
X105245314Y-77980530D01*
X105245174Y-77980650D01*
X105245166Y-77980657D01*
X105229986Y-77993728D01*
X105218444Y-78003666D01*
X105187725Y-78032446D01*
X105187699Y-78032471D01*
X105187685Y-78032485D01*
X105159743Y-78060000D01*
X105151444Y-78063363D01*
X105143261Y-78059936D01*
X104982904Y-77899579D01*
X104979477Y-77891306D01*
X104982840Y-77883097D01*
X105010354Y-77855154D01*
X105010368Y-77855140D01*
X105010393Y-77855114D01*
X105039173Y-77824395D01*
X105062309Y-77797525D01*
X105081076Y-77772816D01*
X105096752Y-77748581D01*
X105110611Y-77723132D01*
X105123930Y-77694783D01*
X105137985Y-77661845D01*
X105154052Y-77622632D01*
X105168969Y-77586273D01*
X105175279Y-77579920D01*
X105184226Y-77579886D01*
X105282726Y-77620214D01*
G37*
%TD.AperFunction*%
%TD*%
%TA.AperFunction,Conductor*%
%TO.N,/D7*%
G36*
X104167139Y-42774344D02*
G01*
X104327496Y-42934701D01*
X104330923Y-42942974D01*
X104327560Y-42951183D01*
X104300045Y-42979125D01*
X104300006Y-42979165D01*
X104271226Y-43009884D01*
X104248090Y-43036754D01*
X104229322Y-43061463D01*
X104213647Y-43085698D01*
X104199787Y-43111146D01*
X104186468Y-43139496D01*
X104186415Y-43139621D01*
X104172413Y-43172433D01*
X104156349Y-43211642D01*
X104156347Y-43211647D01*
X104141431Y-43248007D01*
X104135120Y-43254360D01*
X104126173Y-43254394D01*
X103932949Y-43175284D01*
X103926555Y-43168890D01*
X103914478Y-43139390D01*
X103872396Y-43036606D01*
X103847446Y-42975666D01*
X103847483Y-42966711D01*
X103853833Y-42960409D01*
X103890187Y-42945494D01*
X103890192Y-42945492D01*
X103916528Y-42934701D01*
X103929405Y-42929425D01*
X103962343Y-42915370D01*
X103973992Y-42909897D01*
X103990550Y-42902118D01*
X103990558Y-42902114D01*
X103990692Y-42902051D01*
X103990825Y-42901978D01*
X103990834Y-42901974D01*
X104000159Y-42896895D01*
X104016141Y-42888192D01*
X104031488Y-42878265D01*
X104040188Y-42872638D01*
X104040195Y-42872633D01*
X104040376Y-42872516D01*
X104065085Y-42853749D01*
X104065225Y-42853629D01*
X104065233Y-42853622D01*
X104091871Y-42830685D01*
X104091955Y-42830613D01*
X104122674Y-42801833D01*
X104122714Y-42801794D01*
X104150657Y-42774280D01*
X104158957Y-42770917D01*
X104167139Y-42774344D01*
G37*
%TD.AperFunction*%
%TD*%
%TA.AperFunction,Conductor*%
%TO.N,Net-(U3-Pad1)*%
G36*
X108047991Y-60186832D02*
G01*
X108082516Y-60220264D01*
X108118993Y-60253060D01*
X108119076Y-60253129D01*
X108119090Y-60253141D01*
X108144742Y-60274409D01*
X108150728Y-60279372D01*
X108179304Y-60301362D01*
X108179405Y-60301436D01*
X108233184Y-60340940D01*
X108233393Y-60341097D01*
X108261683Y-60362867D01*
X108262016Y-60363132D01*
X108293431Y-60389179D01*
X108293786Y-60389486D01*
X108329922Y-60421976D01*
X108330238Y-60422271D01*
X108364375Y-60455327D01*
X108367934Y-60463544D01*
X108364546Y-60471968D01*
X108216163Y-60621676D01*
X108212285Y-60624268D01*
X108017123Y-60704172D01*
X108008168Y-60704135D01*
X108001713Y-60697393D01*
X107987987Y-60660182D01*
X107987697Y-60659285D01*
X107976086Y-60617778D01*
X107975894Y-60616988D01*
X107968386Y-60580566D01*
X107968300Y-60580105D01*
X107962884Y-60547212D01*
X107957634Y-60516891D01*
X107957634Y-60516889D01*
X107957600Y-60516695D01*
X107950462Y-60487417D01*
X107939449Y-60458023D01*
X107922539Y-60427159D01*
X107897710Y-60393469D01*
X107870525Y-60363858D01*
X107867455Y-60355446D01*
X107870871Y-60347672D01*
X108031579Y-60186964D01*
X108039852Y-60183537D01*
X108047991Y-60186832D01*
G37*
%TD.AperFunction*%
%TD*%
%TA.AperFunction,Conductor*%
%TO.N,/~{OE}*%
G36*
X102801005Y-34545703D02*
G01*
X102807527Y-34552553D01*
X102869567Y-34725341D01*
X102869905Y-34726457D01*
X102909865Y-34886252D01*
X102910071Y-34887259D01*
X102932304Y-35028169D01*
X102932385Y-35028789D01*
X102945127Y-35155881D01*
X102956591Y-35273788D01*
X102975024Y-35387039D01*
X103008706Y-35500466D01*
X103065916Y-35618903D01*
X103154933Y-35747184D01*
X103155187Y-35747465D01*
X103276585Y-35881890D01*
X103279587Y-35890327D01*
X103276175Y-35898005D01*
X103115125Y-36059055D01*
X103106852Y-36062482D01*
X103099010Y-36059465D01*
X102964585Y-35938067D01*
X102964304Y-35937813D01*
X102836023Y-35848796D01*
X102835607Y-35848595D01*
X102718011Y-35791791D01*
X102718008Y-35791790D01*
X102717586Y-35791586D01*
X102717140Y-35791454D01*
X102717136Y-35791452D01*
X102640766Y-35768774D01*
X102604159Y-35757904D01*
X102540023Y-35747465D01*
X102491101Y-35739502D01*
X102491089Y-35739500D01*
X102490908Y-35739471D01*
X102476150Y-35738036D01*
X102373036Y-35728010D01*
X102373001Y-35728007D01*
X102245909Y-35715265D01*
X102245289Y-35715184D01*
X102104379Y-35692951D01*
X102103378Y-35692746D01*
X101943573Y-35652784D01*
X101942465Y-35652448D01*
X101879077Y-35629689D01*
X101769673Y-35590407D01*
X101763045Y-35584386D01*
X101762812Y-35574930D01*
X101793380Y-35500891D01*
X102061718Y-34850946D01*
X102068066Y-34844598D01*
X102792051Y-34545692D01*
X102801005Y-34545703D01*
G37*
%TD.AperFunction*%
%TD*%
%TA.AperFunction,Conductor*%
%TO.N,/D3*%
G36*
X108965262Y-65331892D02*
G01*
X109030715Y-65391005D01*
X109097295Y-65436628D01*
X109097762Y-65436839D01*
X109097763Y-65436839D01*
X109158801Y-65464348D01*
X109158804Y-65464349D01*
X109159341Y-65464591D01*
X109159916Y-65464721D01*
X109159919Y-65464722D01*
X109185422Y-65470486D01*
X109219442Y-65478176D01*
X109219973Y-65478198D01*
X109219975Y-65478198D01*
X109237243Y-65478905D01*
X109280189Y-65480664D01*
X109280537Y-65480635D01*
X109280540Y-65480635D01*
X109344021Y-65475353D01*
X109344035Y-65475351D01*
X109344172Y-65475340D01*
X109344323Y-65475319D01*
X109344329Y-65475318D01*
X109413983Y-65465485D01*
X109421993Y-65464348D01*
X109491994Y-65454412D01*
X109492433Y-65454358D01*
X109581074Y-65445350D01*
X109581824Y-65445298D01*
X109672164Y-65442002D01*
X109680557Y-65445125D01*
X109684291Y-65453683D01*
X109684895Y-66137131D01*
X109684977Y-66230547D01*
X109681557Y-66238823D01*
X109673268Y-66242257D01*
X108896451Y-66241571D01*
X108888182Y-66238137D01*
X108884772Y-66229398D01*
X108888485Y-66137565D01*
X108888550Y-66136714D01*
X108898802Y-66046673D01*
X108898878Y-66046122D01*
X108911750Y-65966826D01*
X108911762Y-65966752D01*
X108923757Y-65895737D01*
X108923759Y-65895720D01*
X108923780Y-65895598D01*
X108931377Y-65830330D01*
X108931044Y-65768347D01*
X108919272Y-65707046D01*
X108892553Y-65643826D01*
X108847375Y-65576083D01*
X108787629Y-65509464D01*
X108784657Y-65501019D01*
X108788067Y-65493381D01*
X108949146Y-65332302D01*
X108957419Y-65328875D01*
X108965262Y-65331892D01*
G37*
%TD.AperFunction*%
%TD*%
M02*
