%TF.GenerationSoftware,KiCad,Pcbnew,8.0.8*%
%TF.CreationDate,2025-01-27T20:38:42+01:00*%
%TF.ProjectId,GX4000-SRAM-rounded,47583430-3030-42d5-9352-414d2d726f75,rev?*%
%TF.SameCoordinates,Original*%
%TF.FileFunction,Soldermask,Top*%
%TF.FilePolarity,Negative*%
%FSLAX46Y46*%
G04 Gerber Fmt 4.6, Leading zero omitted, Abs format (unit mm)*
G04 Created by KiCad (PCBNEW 8.0.8) date 2025-01-27 20:38:42*
%MOMM*%
%LPD*%
G01*
G04 APERTURE LIST*
G04 Aperture macros list*
%AMRoundRect*
0 Rectangle with rounded corners*
0 $1 Rounding radius*
0 $2 $3 $4 $5 $6 $7 $8 $9 X,Y pos of 4 corners*
0 Add a 4 corners polygon primitive as box body*
4,1,4,$2,$3,$4,$5,$6,$7,$8,$9,$2,$3,0*
0 Add four circle primitives for the rounded corners*
1,1,$1+$1,$2,$3*
1,1,$1+$1,$4,$5*
1,1,$1+$1,$6,$7*
1,1,$1+$1,$8,$9*
0 Add four rect primitives between the rounded corners*
20,1,$1+$1,$2,$3,$4,$5,0*
20,1,$1+$1,$4,$5,$6,$7,0*
20,1,$1+$1,$6,$7,$8,$9,0*
20,1,$1+$1,$8,$9,$2,$3,0*%
G04 Aperture macros list end*
%ADD10RoundRect,0.075000X0.075000X-0.700000X0.075000X0.700000X-0.075000X0.700000X-0.075000X-0.700000X0*%
%ADD11C,1.600000*%
G04 APERTURE END LIST*
D10*
%TO.C,U1*%
X105470000Y-73648800D03*
X105970000Y-73648800D03*
X106470000Y-73648800D03*
X106970000Y-73648800D03*
X107470000Y-73648800D03*
X107970000Y-73648800D03*
X108470000Y-73648800D03*
X108970000Y-73648800D03*
X109470000Y-73648800D03*
X109970000Y-73648800D03*
X110470000Y-73648800D03*
X110970000Y-73648800D03*
X111470000Y-73648800D03*
X111970000Y-73648800D03*
X112470000Y-73648800D03*
X112970000Y-73648800D03*
X112970000Y-60798800D03*
X112470000Y-60798800D03*
X111970000Y-60798800D03*
X111470000Y-60798800D03*
X110970000Y-60798800D03*
X110470000Y-60798800D03*
X109970000Y-60798800D03*
X109470000Y-60798800D03*
X108970000Y-60798800D03*
X108470000Y-60798800D03*
X107970000Y-60798800D03*
X107470000Y-60798800D03*
X106970000Y-60798800D03*
X106470000Y-60798800D03*
X105970000Y-60798800D03*
X105470000Y-60798800D03*
%TD*%
D11*
%TO.C,IC10*%
X105395000Y-77927200D03*
X105395000Y-80467200D03*
X105395000Y-83007200D03*
X105395000Y-85547200D03*
X105395000Y-88087200D03*
X105395000Y-90627200D03*
X105395000Y-93167200D03*
X105395000Y-95707200D03*
X105395000Y-98247200D03*
X113015000Y-98247200D03*
X113015000Y-95707200D03*
X113015000Y-93167200D03*
X113015000Y-90627200D03*
X113015000Y-88087200D03*
X113015000Y-85547200D03*
X113015000Y-83007200D03*
X113015000Y-80467200D03*
X113015000Y-77927200D03*
%TD*%
%TO.C,CAS1*%
X109220000Y-51602800D03*
%TD*%
%TO.C,IC11*%
X105395000Y-49072800D03*
X105395000Y-51612800D03*
X105395000Y-54152800D03*
X113015000Y-56692800D03*
X113015000Y-54152800D03*
X113015000Y-51612800D03*
X113015000Y-49072800D03*
%TD*%
M02*
